<svg xmlns="http://www.w3.org/2000/svg" xmlns:xlink="http://www.w3.org/1999/xlink" version="1.1" x="0px" y="0px" enable-background="new 0 0 100 100" viewBox="13.19 43.18 74.45 13.64">
    <g>
        <rect x="13.19" y="49" width="72.775" height="2"/></g><g><path d="M79.605,56.819c-0.31,0-0.615-0.144-0.811-0.413c-0.324-0.447-0.225-1.073,0.223-1.396l6.372-4.617   c0.163-0.118,0.256-0.252,0.256-0.368c0.001-0.116-0.092-0.251-0.255-0.37l-6.378-4.667c-0.445-0.326-0.542-0.952-0.216-1.397   c0.325-0.446,0.949-0.543,1.397-0.217l6.378,4.667c0.684,0.5,1.075,1.225,1.073,1.988c-0.001,0.763-0.396,1.486-1.082,1.983   l-6.372,4.617C80.014,56.757,79.809,56.819,79.605,56.819z"/>
    </g>
</svg>