<?xml version="1.0" encoding="UTF-8"?>
<svg id="OBJECTS" xmlns="http://www.w3.org/2000/svg" xmlns:xlink="http://www.w3.org/1999/xlink" viewBox="0 0 390.19 324.07">
  <defs>
    <style>
      .cls-1 {
        fill: url(#linear-gradient-38);
      }

      .cls-1, .cls-2, .cls-3, .cls-4, .cls-5, .cls-6, .cls-7, .cls-8, .cls-9, .cls-10, .cls-11, .cls-12, .cls-13, .cls-14, .cls-15, .cls-16, .cls-17, .cls-18, .cls-19, .cls-20, .cls-21, .cls-22, .cls-23, .cls-24, .cls-25, .cls-26, .cls-27, .cls-28, .cls-29, .cls-30, .cls-31, .cls-32, .cls-33, .cls-34, .cls-35, .cls-36, .cls-37, .cls-38, .cls-39, .cls-40, .cls-41, .cls-42, .cls-43, .cls-44, .cls-45, .cls-46, .cls-47, .cls-48, .cls-49, .cls-50, .cls-51, .cls-52, .cls-53, .cls-54, .cls-55, .cls-56, .cls-57, .cls-58, .cls-59, .cls-60, .cls-61, .cls-62, .cls-63, .cls-64, .cls-65, .cls-66, .cls-67, .cls-68, .cls-69, .cls-70, .cls-71, .cls-72, .cls-73, .cls-74, .cls-75, .cls-76, .cls-77, .cls-78, .cls-79, .cls-80, .cls-81, .cls-82, .cls-83, .cls-84, .cls-85, .cls-86, .cls-87, .cls-88, .cls-89, .cls-90, .cls-91, .cls-92, .cls-93, .cls-94, .cls-95, .cls-96, .cls-97, .cls-98, .cls-99, .cls-100, .cls-101, .cls-102, .cls-103, .cls-104, .cls-105, .cls-106, .cls-107, .cls-108, .cls-109, .cls-110, .cls-111, .cls-112, .cls-113, .cls-114, .cls-115, .cls-116, .cls-117, .cls-118, .cls-119, .cls-120, .cls-121, .cls-122, .cls-123, .cls-124, .cls-125, .cls-126, .cls-127, .cls-128, .cls-129, .cls-130, .cls-131, .cls-132, .cls-133, .cls-134, .cls-135, .cls-136, .cls-137, .cls-138, .cls-139, .cls-140, .cls-141, .cls-142, .cls-143, .cls-144, .cls-145, .cls-146, .cls-147, .cls-148, .cls-149, .cls-150, .cls-151, .cls-152 {
        stroke-width: 0px;
      }

      .cls-2 {
        fill: #841e28;
      }

      .cls-3 {
        fill: #626129;
      }

      .cls-4 {
        fill: url(#linear-gradient-12);
      }

      .cls-153 {
        opacity: .7;
      }

      .cls-5 {
        fill: url(#linear-gradient-17);
      }

      .cls-6 {
        fill: url(#linear-gradient-88);
      }

      .cls-7 {
        fill: url(#linear-gradient-19);
      }

      .cls-8 {
        fill: url(#linear-gradient-33);
      }

      .cls-9 {
        fill: url(#linear-gradient);
      }

      .cls-10 {
        fill: url(#linear-gradient-62);
      }

      .cls-11 {
        fill: url(#linear-gradient-92);
      }

      .cls-12 {
        fill: #000;
      }

      .cls-13 {
        fill: url(#linear-gradient-98);
      }

      .cls-14 {
        fill: url(#linear-gradient-67);
      }

      .cls-15 {
        fill: url(#linear-gradient-57);
      }

      .cls-16 {
        fill: url(#New_Gradient_Swatch_2-8);
      }

      .cls-17 {
        opacity: .56;
      }

      .cls-17, .cls-117, .cls-133 {
        fill: #fff;
      }

      .cls-18 {
        fill: url(#linear-gradient-21);
      }

      .cls-19 {
        fill: url(#linear-gradient-6);
      }

      .cls-20 {
        fill: url(#linear-gradient-76);
      }

      .cls-21 {
        fill: #9c2a30;
      }

      .cls-22 {
        fill: url(#radial-gradient-8);
      }

      .cls-23 {
        fill: url(#New_Gradient_Swatch_2-2);
      }

      .cls-154 {
        clip-path: url(#clippath-2);
      }

      .cls-24 {
        fill: url(#linear-gradient-42);
      }

      .cls-25 {
        fill: #363636;
      }

      .cls-26 {
        fill: url(#linear-gradient-104);
      }

      .cls-27 {
        fill: url(#New_Gradient_Swatch_2-6);
      }

      .cls-28 {
        fill: url(#linear-gradient-95);
      }

      .cls-29 {
        fill: url(#linear-gradient-15);
      }

      .cls-30 {
        fill: #879b5f;
      }

      .cls-31 {
        fill: url(#linear-gradient-11);
      }

      .cls-32 {
        fill: url(#linear-gradient-106);
      }

      .cls-33 {
        fill: url(#linear-gradient-101);
      }

      .cls-34 {
        fill: url(#linear-gradient-81);
      }

      .cls-35 {
        fill: url(#linear-gradient-73);
      }

      .cls-36 {
        fill: url(#linear-gradient-91);
      }

      .cls-37 {
        fill: url(#linear-gradient-5);
      }

      .cls-38 {
        fill: none;
      }

      .cls-39 {
        fill: url(#linear-gradient-31);
      }

      .cls-40 {
        fill: url(#linear-gradient-103);
      }

      .cls-41 {
        fill: url(#linear-gradient-71);
      }

      .cls-42 {
        fill: url(#linear-gradient-58);
      }

      .cls-43 {
        fill: url(#linear-gradient-63);
      }

      .cls-44 {
        fill: url(#linear-gradient-34);
      }

      .cls-45 {
        fill: url(#New_Gradient_Swatch_2);
      }

      .cls-46 {
        fill: #d5e7ef;
        opacity: .62;
      }

      .cls-47 {
        fill: url(#linear-gradient-96);
      }

      .cls-155 {
        clip-path: url(#clippath-1);
      }

      .cls-48 {
        fill: url(#linear-gradient-41);
      }

      .cls-49 {
        fill: url(#linear-gradient-89);
      }

      .cls-50 {
        fill: #a52b31;
      }

      .cls-51 {
        fill: url(#linear-gradient-40);
      }

      .cls-52 {
        fill: #774639;
      }

      .cls-53 {
        fill: #a45221;
      }

      .cls-54 {
        fill: url(#linear-gradient-66);
      }

      .cls-55 {
        fill: url(#linear-gradient-13);
      }

      .cls-56 {
        fill: url(#linear-gradient-23);
      }

      .cls-57 {
        fill: url(#linear-gradient-25);
      }

      .cls-58 {
        fill: url(#linear-gradient-43);
      }

      .cls-59 {
        fill: url(#linear-gradient-16);
      }

      .cls-60 {
        fill: url(#linear-gradient-22);
      }

      .cls-61 {
        fill: url(#linear-gradient-54);
      }

      .cls-62 {
        fill: url(#New_Gradient_Swatch_1-3);
      }

      .cls-63 {
        fill: url(#linear-gradient-55);
      }

      .cls-64 {
        fill: url(#linear-gradient-35);
      }

      .cls-65 {
        fill: url(#linear-gradient-50);
      }

      .cls-66 {
        fill: url(#New_Gradient_Swatch_1-8);
      }

      .cls-67 {
        fill: url(#linear-gradient-32);
      }

      .cls-68 {
        fill: url(#linear-gradient-60);
      }

      .cls-69 {
        fill: url(#linear-gradient-59);
      }

      .cls-70 {
        fill: url(#linear-gradient-20);
      }

      .cls-71 {
        fill: url(#New_Gradient_Swatch_1-6);
      }

      .cls-72 {
        fill: url(#linear-gradient-14);
      }

      .cls-73 {
        fill: url(#linear-gradient-2);
      }

      .cls-74 {
        fill: url(#linear-gradient-52);
      }

      .cls-75 {
        fill: url(#New_Gradient_Swatch_1);
      }

      .cls-76 {
        fill: url(#linear-gradient-45);
      }

      .cls-77 {
        fill: url(#linear-gradient-93);
      }

      .cls-78 {
        fill: url(#linear-gradient-7);
      }

      .cls-79 {
        fill: url(#radial-gradient-2);
      }

      .cls-80 {
        fill: url(#linear-gradient-39);
      }

      .cls-81 {
        fill: url(#radial-gradient-7);
      }

      .cls-82 {
        fill: url(#linear-gradient-3);
      }

      .cls-83 {
        fill: url(#linear-gradient-77);
      }

      .cls-84 {
        fill: url(#linear-gradient-69);
      }

      .cls-156 {
        clip-path: url(#clippath);
      }

      .cls-85 {
        fill: url(#New_Gradient_Swatch_1-2);
      }

      .cls-86 {
        fill: url(#radial-gradient-5);
      }

      .cls-87 {
        fill: url(#linear-gradient-94);
      }

      .cls-88 {
        fill: url(#linear-gradient-9);
      }

      .cls-89 {
        fill: url(#linear-gradient-27);
      }

      .cls-90 {
        fill: url(#New_Gradient_Swatch_2-3);
      }

      .cls-91 {
        fill: url(#radial-gradient);
      }

      .cls-92 {
        fill: url(#linear-gradient-100);
      }

      .cls-93 {
        fill: url(#linear-gradient-82);
      }

      .cls-94 {
        fill: url(#linear-gradient-105);
      }

      .cls-95 {
        fill: url(#linear-gradient-83);
      }

      .cls-96 {
        fill: url(#linear-gradient-53);
      }

      .cls-97 {
        fill: url(#linear-gradient-90);
      }

      .cls-98 {
        fill: url(#linear-gradient-85);
      }

      .cls-99 {
        fill: url(#linear-gradient-65);
      }

      .cls-100 {
        fill: url(#linear-gradient-36);
      }

      .cls-101 {
        fill: url(#linear-gradient-48);
      }

      .cls-102 {
        fill: url(#linear-gradient-49);
      }

      .cls-103 {
        fill: #4a4949;
      }

      .cls-104 {
        fill: url(#linear-gradient-8);
      }

      .cls-105 {
        fill: url(#linear-gradient-47);
      }

      .cls-106 {
        fill: url(#radial-gradient-10);
      }

      .cls-107 {
        fill: url(#linear-gradient-24);
      }

      .cls-108 {
        fill: url(#linear-gradient-26);
      }

      .cls-109 {
        fill: url(#linear-gradient-61);
      }

      .cls-110 {
        fill: url(#New_Gradient_Swatch_1-4);
      }

      .cls-111 {
        fill: url(#linear-gradient-18);
      }

      .cls-112 {
        fill: url(#New_Gradient_Swatch_2-7);
      }

      .cls-113 {
        fill: url(#linear-gradient-51);
      }

      .cls-114 {
        fill: url(#linear-gradient-30);
      }

      .cls-115 {
        fill: #92e3a9;
      }

      .cls-116 {
        fill: #c2a131;
      }

      .cls-118 {
        fill: url(#linear-gradient-44);
      }

      .cls-119 {
        fill: url(#linear-gradient-84);
      }

      .cls-120 {
        fill: url(#linear-gradient-97);
      }

      .cls-121 {
        fill: url(#linear-gradient-68);
      }

      .cls-122 {
        fill: url(#linear-gradient-72);
      }

      .cls-123 {
        fill: url(#linear-gradient-29);
      }

      .cls-124 {
        fill: url(#linear-gradient-46);
      }

      .cls-125 {
        fill: #043f22;
      }

      .cls-126 {
        fill: url(#linear-gradient-64);
      }

      .cls-127 {
        fill: url(#linear-gradient-107);
      }

      .cls-128 {
        fill: url(#radial-gradient-6);
      }

      .cls-129 {
        fill: url(#linear-gradient-28);
      }

      .cls-130 {
        fill: url(#linear-gradient-56);
      }

      .cls-131 {
        fill: url(#linear-gradient-99);
      }

      .cls-132 {
        fill: url(#linear-gradient-10);
      }

      .cls-133 {
        opacity: .5;
      }

      .cls-134 {
        fill: url(#linear-gradient-87);
      }

      .cls-135 {
        fill: url(#radial-gradient-9);
      }

      .cls-136 {
        fill: url(#New_Gradient_Swatch_1-5);
      }

      .cls-137 {
        fill: url(#radial-gradient-3);
      }

      .cls-138 {
        fill: url(#linear-gradient-70);
      }

      .cls-139 {
        fill: url(#linear-gradient-78);
      }

      .cls-140 {
        fill: url(#linear-gradient-86);
      }

      .cls-141 {
        fill: url(#linear-gradient-74);
      }

      .cls-142 {
        fill: url(#New_Gradient_Swatch_2-5);
      }

      .cls-143 {
        fill: url(#linear-gradient-102);
      }

      .cls-144 {
        fill: url(#linear-gradient-4);
      }

      .cls-145 {
        fill: url(#New_Gradient_Swatch_2-4);
      }

      .cls-146 {
        fill: #090909;
      }

      .cls-147 {
        fill: url(#linear-gradient-37);
      }

      .cls-148 {
        fill: url(#New_Gradient_Swatch_1-7);
      }

      .cls-149 {
        fill: url(#linear-gradient-80);
      }

      .cls-150 {
        fill: url(#radial-gradient-4);
      }

      .cls-151 {
        fill: url(#linear-gradient-79);
      }

      .cls-152 {
        fill: url(#linear-gradient-75);
      }
    </style>
    <clipPath id="clippath">
      <rect class="cls-38" x="390" y="-186.89" width="390" height="510.96"/>
    </clipPath>
    <linearGradient id="New_Gradient_Swatch_2" data-name="New Gradient Swatch 2" x1="335.15" y1="106.5" x2="335.15" y2="71.6" gradientUnits="userSpaceOnUse">
      <stop offset="0" stop-color="#4070b7"/>
      <stop offset="1" stop-color="#66a8de"/>
    </linearGradient>
    <radialGradient id="New_Gradient_Swatch_1" data-name="New Gradient Swatch 1" cx="2840.27" cy="-414.65" fx="2840.27" fy="-414.65" r="31.68" gradientTransform="translate(-6476.33 609.2) scale(2.4 1.21)" gradientUnits="userSpaceOnUse">
      <stop offset="0" stop-color="#fff" stop-opacity="0"/>
      <stop offset=".29" stop-color="#000" stop-opacity="0"/>
      <stop offset=".91" stop-color="#f1f1f1"/>
    </radialGradient>
    <linearGradient id="New_Gradient_Swatch_2-2" data-name="New Gradient Swatch 2" x1="305.58" x2="305.58" xlink:href="#New_Gradient_Swatch_2"/>
    <radialGradient id="New_Gradient_Swatch_1-2" data-name="New Gradient Swatch 1" cx="2827.87" fx="2827.87" r="31.68" xlink:href="#New_Gradient_Swatch_1"/>
    <linearGradient id="New_Gradient_Swatch_2-3" data-name="New Gradient Swatch 2" x1="371.13" y1="105.45" x2="371.13" y2="91.71" xlink:href="#New_Gradient_Swatch_2"/>
    <radialGradient id="New_Gradient_Swatch_1-3" data-name="New Gradient Swatch 1" cx="2856.08" fx="2856.08" r="31.68" xlink:href="#New_Gradient_Swatch_1"/>
    <linearGradient id="New_Gradient_Swatch_2-4" data-name="New Gradient Swatch 2" x1="400.96" x2="400.96" xlink:href="#New_Gradient_Swatch_2"/>
    <radialGradient id="New_Gradient_Swatch_1-4" data-name="New Gradient Swatch 1" cx="2867.69" fx="2867.69" r="31.68" xlink:href="#New_Gradient_Swatch_1"/>
    <linearGradient id="linear-gradient" x1="401.67" y1="96.5" x2="401.67" y2="135.64" gradientUnits="userSpaceOnUse">
      <stop offset=".36" stop-color="#99cee5"/>
      <stop offset=".47" stop-color="#63add4"/>
      <stop offset=".71" stop-color="#4d88a5"/>
      <stop offset=".74" stop-color="#4a829e"/>
      <stop offset=".77" stop-color="#3f6f89"/>
    </linearGradient>
    <linearGradient id="linear-gradient-2" x1="427.52" y1="121.2" x2="353.93" y2="121.2" xlink:href="#linear-gradient"/>
    <linearGradient id="linear-gradient-3" x1="372.17" y1="206.96" x2="372.17" y2="170.5" gradientUnits="userSpaceOnUse">
      <stop offset="0" stop-color="#fff"/>
      <stop offset=".15" stop-color="#d4d4d4"/>
      <stop offset=".32" stop-color="#adadad"/>
      <stop offset=".48" stop-color="#8e8e8e"/>
      <stop offset=".64" stop-color="#777"/>
      <stop offset=".8" stop-color="#6a6a6a"/>
      <stop offset=".93" stop-color="#666"/>
      <stop offset=".93" stop-color="#000"/>
    </linearGradient>
    <linearGradient id="linear-gradient-4" x1="390.64" y1="141.8" x2="390.64" y2="147.47" xlink:href="#linear-gradient-3"/>
    <linearGradient id="linear-gradient-5" x1="386.32" y1="141.8" x2="386.32" y2="147.47" xlink:href="#linear-gradient-3"/>
    <linearGradient id="linear-gradient-6" x1="381.52" y1="141.8" x2="381.52" y2="147.47" xlink:href="#linear-gradient-3"/>
    <linearGradient id="linear-gradient-7" x1="377.21" y1="141.8" x2="377.21" y2="147.47" xlink:href="#linear-gradient-3"/>
    <linearGradient id="linear-gradient-8" x1="372.41" y1="141.8" x2="372.41" y2="147.47" xlink:href="#linear-gradient-3"/>
    <linearGradient id="linear-gradient-9" x1="368.09" y1="141.8" x2="368.09" y2="147.47" xlink:href="#linear-gradient-3"/>
    <linearGradient id="linear-gradient-10" x1="363.3" y1="141.8" x2="363.3" y2="147.47" xlink:href="#linear-gradient-3"/>
    <linearGradient id="linear-gradient-11" x1="358.98" y1="141.8" x2="358.98" y2="147.47" xlink:href="#linear-gradient-3"/>
    <linearGradient id="linear-gradient-12" x1="354.18" y1="141.8" x2="354.18" y2="147.47" xlink:href="#linear-gradient-3"/>
    <linearGradient id="linear-gradient-13" x1="349.87" y1="141.8" x2="349.87" y2="147.47" xlink:href="#linear-gradient-3"/>
    <linearGradient id="linear-gradient-14" x1="402.15" y1="144.11" x2="402.15" y2="144.75" xlink:href="#linear-gradient-3"/>
    <linearGradient id="linear-gradient-15" x1="317.73" y1="141.8" x2="317.73" y2="147.47" xlink:href="#linear-gradient-3"/>
    <linearGradient id="linear-gradient-16" x1="313.42" y1="141.8" x2="313.42" y2="147.47" xlink:href="#linear-gradient-3"/>
    <linearGradient id="linear-gradient-17" x1="308.62" y1="141.8" x2="308.62" y2="147.47" xlink:href="#linear-gradient-3"/>
    <linearGradient id="linear-gradient-18" x1="304.3" y1="141.8" x2="304.3" y2="147.47" xlink:href="#linear-gradient-3"/>
    <linearGradient id="linear-gradient-19" x1="299.51" y1="141.8" x2="299.51" y2="147.47" xlink:href="#linear-gradient-3"/>
    <linearGradient id="linear-gradient-20" x1="340.75" y1="141.8" x2="340.75" y2="147.47" xlink:href="#linear-gradient-3"/>
    <linearGradient id="linear-gradient-21" x1="335.96" y1="141.8" x2="335.96" y2="147.47" xlink:href="#linear-gradient-3"/>
    <linearGradient id="linear-gradient-22" x1="349.87" y1="141.8" x2="349.87" y2="147.47" xlink:href="#linear-gradient-3"/>
    <linearGradient id="linear-gradient-23" x1="345.07" y1="141.8" x2="345.07" y2="147.47" xlink:href="#linear-gradient-3"/>
    <linearGradient id="linear-gradient-24" x1="331.64" y1="141.8" x2="331.64" y2="147.47" xlink:href="#linear-gradient-3"/>
    <linearGradient id="linear-gradient-25" x1="326.84" y1="141.8" x2="326.84" y2="147.47" xlink:href="#linear-gradient-3"/>
    <linearGradient id="linear-gradient-26" x1="322.53" y1="141.8" x2="322.53" y2="147.47" xlink:href="#linear-gradient-3"/>
    <linearGradient id="linear-gradient-27" x1="295.67" y1="141.8" x2="295.67" y2="147.47" xlink:href="#linear-gradient-3"/>
    <linearGradient id="linear-gradient-28" x1="290.87" y1="141.8" x2="290.87" y2="147.47" xlink:href="#linear-gradient-3"/>
    <linearGradient id="linear-gradient-29" x1="286.56" y1="141.8" x2="286.56" y2="147.47" xlink:href="#linear-gradient-3"/>
    <linearGradient id="linear-gradient-30" x1="281.76" y1="141.8" x2="281.76" y2="147.47" xlink:href="#linear-gradient-3"/>
    <linearGradient id="linear-gradient-31" x1="277.44" y1="141.8" x2="277.44" y2="147.47" xlink:href="#linear-gradient-3"/>
    <linearGradient id="linear-gradient-32" x1="272.65" y1="141.8" x2="272.65" y2="147.47" xlink:href="#linear-gradient-3"/>
    <linearGradient id="linear-gradient-33" x1="268.33" y1="141.8" x2="268.33" y2="147.47" xlink:href="#linear-gradient-3"/>
    <linearGradient id="linear-gradient-34" x1="263.53" y1="141.8" x2="263.53" y2="147.47" xlink:href="#linear-gradient-3"/>
    <linearGradient id="linear-gradient-35" x1="259.22" y1="141.8" x2="259.22" y2="147.47" xlink:href="#linear-gradient-3"/>
    <linearGradient id="linear-gradient-36" x1="254.42" y1="141.8" x2="254.42" y2="147.47" xlink:href="#linear-gradient-3"/>
    <linearGradient id="linear-gradient-37" x1="250.1" y1="141.8" x2="250.1" y2="147.47" xlink:href="#linear-gradient-3"/>
    <linearGradient id="linear-gradient-38" x1="245.31" y1="141.8" x2="245.31" y2="147.47" xlink:href="#linear-gradient-3"/>
    <linearGradient id="linear-gradient-39" x1="297.59" y1="144.11" x2="297.59" y2="144.75" xlink:href="#linear-gradient-3"/>
    <radialGradient id="radial-gradient" cx="640.3" cy="719.35" fx="640.3" fy="719.35" r="21.21" gradientTransform="translate(-250.43 -606.49) rotate(6.16) skewX(.03)" gradientUnits="userSpaceOnUse">
      <stop offset="0" stop-color="#fff"/>
      <stop offset=".67" stop-color="#f1f1f1"/>
      <stop offset=".7" stop-color="#979797"/>
    </radialGradient>
    <radialGradient id="radial-gradient-2" cx="307.39" cy="177.31" fx="307.39" fy="177.31" r="2.75" gradientUnits="userSpaceOnUse">
      <stop offset="0" stop-color="#fff"/>
      <stop offset=".97" stop-color="#f1f1f1"/>
      <stop offset="1" stop-color="#979797"/>
    </radialGradient>
    <linearGradient id="linear-gradient-40" x1="369.7" y1="103.54" x2="369.7" y2="81.41" xlink:href="#linear-gradient-3"/>
    <radialGradient id="radial-gradient-3" cx="703.96" cy="712.54" fx="703.96" fy="712.54" r="15.25" gradientTransform="translate(-250.43 -606.49) rotate(6.16) skewX(.03)" gradientUnits="userSpaceOnUse">
      <stop offset="0" stop-color="#da0000"/>
      <stop offset=".69" stop-color="#b61c20"/>
      <stop offset="1" stop-color="#a52b31"/>
    </radialGradient>
    <radialGradient id="radial-gradient-4" cx="703.96" cy="712.5" fx="703.96" fy="712.5" r="21.21" xlink:href="#radial-gradient"/>
    <radialGradient id="radial-gradient-5" cx="371.27" fx="371.27" r="2.75" xlink:href="#radial-gradient-2"/>
    <clipPath id="clippath-1">
      <rect class="cls-38" x="0" width="390" height="324.07"/>
    </clipPath>
    <linearGradient id="linear-gradient-41" x1="440.87" y1="191.97" x2="440.87" y2="195.58" xlink:href="#linear-gradient-3"/>
    <linearGradient id="linear-gradient-42" x1="386.19" y1="192.33" x2="386.19" y2="197.14" gradientUnits="userSpaceOnUse">
      <stop offset="0" stop-color="#fff"/>
      <stop offset=".12" stop-color="#eee7dd"/>
      <stop offset=".29" stop-color="#dbcbb6"/>
      <stop offset=".46" stop-color="#ccb697"/>
      <stop offset=".63" stop-color="#c1a680"/>
      <stop offset=".78" stop-color="#bb9d73"/>
      <stop offset=".92" stop-color="#b99a6f"/>
      <stop offset="1" stop-color="#6b4d2b"/>
    </linearGradient>
    <linearGradient id="linear-gradient-43" x1="366.53" x2="366.53" xlink:href="#linear-gradient-42"/>
    <linearGradient id="linear-gradient-44" x1="346.62" x2="346.62" xlink:href="#linear-gradient-42"/>
    <linearGradient id="linear-gradient-45" x1="327.44" x2="327.44" xlink:href="#linear-gradient-42"/>
    <linearGradient id="linear-gradient-46" x1="307.77" x2="307.77" xlink:href="#linear-gradient-42"/>
    <linearGradient id="linear-gradient-47" x1="287.87" x2="287.87" xlink:href="#linear-gradient-42"/>
    <linearGradient id="linear-gradient-48" x1="268.68" x2="268.68" xlink:href="#linear-gradient-42"/>
    <linearGradient id="linear-gradient-49" x1="137.05" y1="193.02" x2="137.05" y2="196.19" xlink:href="#linear-gradient-3"/>
    <linearGradient id="linear-gradient-50" x1="294.72" y1="193.34" x2="294.72" y2="197.56" xlink:href="#linear-gradient-42"/>
    <linearGradient id="linear-gradient-51" x1="277.88" y1="193.34" x2="277.88" y2="197.56" xlink:href="#linear-gradient-42"/>
    <linearGradient id="linear-gradient-52" x1="260.41" y1="193.34" x2="260.41" y2="197.56" xlink:href="#linear-gradient-42"/>
    <linearGradient id="linear-gradient-53" x1="243.36" y1="193.34" x2="243.36" y2="197.56" xlink:href="#linear-gradient-42"/>
    <linearGradient id="linear-gradient-54" x1="226.1" y1="193.34" x2="226.1" y2="197.56" xlink:href="#linear-gradient-42"/>
    <linearGradient id="linear-gradient-55" x1="209.26" y1="193.34" x2="209.26" y2="197.56" xlink:href="#linear-gradient-42"/>
    <linearGradient id="linear-gradient-56" x1="191.57" y1="193.34" x2="191.57" y2="197.56" xlink:href="#linear-gradient-42"/>
    <linearGradient id="linear-gradient-57" x1="174.94" y1="193.34" x2="174.94" y2="197.56" xlink:href="#linear-gradient-42"/>
    <linearGradient id="linear-gradient-58" x1="157.68" y1="193.34" x2="157.68" y2="197.56" xlink:href="#linear-gradient-42"/>
    <linearGradient id="linear-gradient-59" x1="140.21" y1="193.34" x2="140.21" y2="197.56" xlink:href="#linear-gradient-42"/>
    <linearGradient id="linear-gradient-60" x1="123.37" y1="193.34" x2="123.37" y2="197.56" xlink:href="#linear-gradient-42"/>
    <linearGradient id="linear-gradient-61" x1="106.11" y1="193.34" x2="106.11" y2="197.56" xlink:href="#linear-gradient-42"/>
    <linearGradient id="linear-gradient-62" x1="89.06" y1="193.34" x2="89.06" y2="197.56" xlink:href="#linear-gradient-42"/>
    <linearGradient id="linear-gradient-63" x1="71.79" y1="193.34" x2="71.79" y2="197.56" xlink:href="#linear-gradient-42"/>
    <linearGradient id="linear-gradient-64" x1="54.32" y1="193.34" x2="54.32" y2="197.56" xlink:href="#linear-gradient-42"/>
    <linearGradient id="linear-gradient-65" x1="37.48" y1="193.34" x2="37.48" y2="197.56" xlink:href="#linear-gradient-42"/>
    <linearGradient id="linear-gradient-66" x1="20.22" y1="193.34" x2="20.22" y2="197.56" xlink:href="#linear-gradient-42"/>
    <linearGradient id="linear-gradient-67" x1="2.75" y1="193.34" x2="2.75" y2="197.56" xlink:href="#linear-gradient-42"/>
    <clipPath id="clippath-2">
      <rect class="cls-38" x="0" y="6.13" width="390" height="317.94"/>
    </clipPath>
    <linearGradient id="New_Gradient_Swatch_2-5" data-name="New Gradient Swatch 2" x1="335.15" y1="106.5" x2="335.15" y2="71.6" xlink:href="#New_Gradient_Swatch_2"/>
    <radialGradient id="New_Gradient_Swatch_1-5" data-name="New Gradient Swatch 1" cx="2840.27" cy="-414.65" fx="2840.27" fy="-414.65" r="31.68" xlink:href="#New_Gradient_Swatch_1"/>
    <linearGradient id="New_Gradient_Swatch_2-6" data-name="New Gradient Swatch 2" x1="305.58" y1="106.5" x2="305.58" y2="71.6" xlink:href="#New_Gradient_Swatch_2"/>
    <radialGradient id="New_Gradient_Swatch_1-6" data-name="New Gradient Swatch 1" cx="2827.87" cy="-414.65" fx="2827.87" fy="-414.65" r="31.68" xlink:href="#New_Gradient_Swatch_1"/>
    <linearGradient id="New_Gradient_Swatch_2-7" data-name="New Gradient Swatch 2" x1="371.13" y1="105.45" x2="371.13" y2="91.71" xlink:href="#New_Gradient_Swatch_2"/>
    <radialGradient id="New_Gradient_Swatch_1-7" data-name="New Gradient Swatch 1" cx="2856.08" cy="-414.65" fx="2856.08" fy="-414.65" r="31.68" xlink:href="#New_Gradient_Swatch_1"/>
    <linearGradient id="New_Gradient_Swatch_2-8" data-name="New Gradient Swatch 2" x1="400.96" y1="106.5" x2="400.96" y2="71.6" xlink:href="#New_Gradient_Swatch_2"/>
    <radialGradient id="New_Gradient_Swatch_1-8" data-name="New Gradient Swatch 1" cx="2867.69" cy="-414.65" fx="2867.69" fy="-414.65" r="31.68" xlink:href="#New_Gradient_Swatch_1"/>
    <linearGradient id="linear-gradient-68" x1="401.67" y1="96.5" x2="401.67" y2="135.64" xlink:href="#linear-gradient"/>
    <linearGradient id="linear-gradient-69" x1="427.52" y1="121.2" x2="353.93" y2="121.2" xlink:href="#linear-gradient"/>
    <linearGradient id="linear-gradient-70" x1="372.17" y1="206.96" x2="372.17" y2="170.5" xlink:href="#linear-gradient-3"/>
    <linearGradient id="linear-gradient-71" x1="390.64" y1="141.8" x2="390.64" y2="147.47" xlink:href="#linear-gradient-3"/>
    <linearGradient id="linear-gradient-72" x1="386.32" y1="141.8" x2="386.32" y2="147.47" xlink:href="#linear-gradient-3"/>
    <linearGradient id="linear-gradient-73" x1="381.52" y1="141.8" x2="381.52" y2="147.47" xlink:href="#linear-gradient-3"/>
    <linearGradient id="linear-gradient-74" x1="377.21" y1="141.8" x2="377.21" y2="147.47" xlink:href="#linear-gradient-3"/>
    <linearGradient id="linear-gradient-75" x1="372.41" y1="141.8" x2="372.41" y2="147.47" xlink:href="#linear-gradient-3"/>
    <linearGradient id="linear-gradient-76" x1="368.09" y1="141.8" x2="368.09" y2="147.47" xlink:href="#linear-gradient-3"/>
    <linearGradient id="linear-gradient-77" x1="363.3" y1="141.8" x2="363.3" y2="147.47" xlink:href="#linear-gradient-3"/>
    <linearGradient id="linear-gradient-78" x1="358.98" y1="141.8" x2="358.98" y2="147.47" xlink:href="#linear-gradient-3"/>
    <linearGradient id="linear-gradient-79" x1="354.18" y1="141.8" x2="354.18" y2="147.47" xlink:href="#linear-gradient-3"/>
    <linearGradient id="linear-gradient-80" x1="349.87" y1="141.8" x2="349.87" y2="147.47" xlink:href="#linear-gradient-3"/>
    <linearGradient id="linear-gradient-81" x1="402.15" y1="144.11" x2="402.15" y2="144.75" xlink:href="#linear-gradient-3"/>
    <linearGradient id="linear-gradient-82" x1="317.73" y1="141.8" x2="317.73" y2="147.47" xlink:href="#linear-gradient-3"/>
    <linearGradient id="linear-gradient-83" x1="313.41" y1="141.8" x2="313.41" y2="147.47" xlink:href="#linear-gradient-3"/>
    <linearGradient id="linear-gradient-84" x1="308.62" y1="141.8" x2="308.62" y2="147.47" xlink:href="#linear-gradient-3"/>
    <linearGradient id="linear-gradient-85" x1="304.3" y1="141.8" x2="304.3" y2="147.47" xlink:href="#linear-gradient-3"/>
    <linearGradient id="linear-gradient-86" x1="299.51" y1="141.8" x2="299.51" y2="147.47" xlink:href="#linear-gradient-3"/>
    <linearGradient id="linear-gradient-87" x1="340.75" y1="141.8" x2="340.75" y2="147.47" xlink:href="#linear-gradient-3"/>
    <linearGradient id="linear-gradient-88" x1="335.96" y1="141.8" x2="335.96" y2="147.47" xlink:href="#linear-gradient-3"/>
    <linearGradient id="linear-gradient-89" x1="349.87" y1="141.8" x2="349.87" y2="147.47" xlink:href="#linear-gradient-3"/>
    <linearGradient id="linear-gradient-90" x1="345.07" y1="141.8" x2="345.07" y2="147.47" xlink:href="#linear-gradient-3"/>
    <linearGradient id="linear-gradient-91" x1="331.64" y1="141.8" x2="331.64" y2="147.47" xlink:href="#linear-gradient-3"/>
    <linearGradient id="linear-gradient-92" x1="326.84" y1="141.8" x2="326.84" y2="147.47" xlink:href="#linear-gradient-3"/>
    <linearGradient id="linear-gradient-93" x1="322.53" y1="141.8" x2="322.53" y2="147.47" xlink:href="#linear-gradient-3"/>
    <linearGradient id="linear-gradient-94" x1="295.67" y1="141.8" x2="295.67" y2="147.47" xlink:href="#linear-gradient-3"/>
    <linearGradient id="linear-gradient-95" x1="290.87" y1="141.8" x2="290.87" y2="147.47" xlink:href="#linear-gradient-3"/>
    <linearGradient id="linear-gradient-96" x1="286.56" y1="141.8" x2="286.56" y2="147.47" xlink:href="#linear-gradient-3"/>
    <linearGradient id="linear-gradient-97" x1="281.76" y1="141.8" x2="281.76" y2="147.47" xlink:href="#linear-gradient-3"/>
    <linearGradient id="linear-gradient-98" x1="277.44" y1="141.8" x2="277.44" y2="147.47" xlink:href="#linear-gradient-3"/>
    <linearGradient id="linear-gradient-99" x1="272.65" y1="141.8" x2="272.65" y2="147.47" xlink:href="#linear-gradient-3"/>
    <linearGradient id="linear-gradient-100" x1="268.33" y1="141.8" x2="268.33" y2="147.47" xlink:href="#linear-gradient-3"/>
    <linearGradient id="linear-gradient-101" x1="263.53" y1="141.8" x2="263.53" y2="147.47" xlink:href="#linear-gradient-3"/>
    <linearGradient id="linear-gradient-102" x1="259.22" y1="141.8" x2="259.22" y2="147.47" xlink:href="#linear-gradient-3"/>
    <linearGradient id="linear-gradient-103" x1="254.42" y1="141.8" x2="254.42" y2="147.47" xlink:href="#linear-gradient-3"/>
    <linearGradient id="linear-gradient-104" x1="250.1" y1="141.8" x2="250.1" y2="147.47" xlink:href="#linear-gradient-3"/>
    <linearGradient id="linear-gradient-105" x1="245.31" y1="141.8" x2="245.31" y2="147.47" xlink:href="#linear-gradient-3"/>
    <linearGradient id="linear-gradient-106" x1="297.59" y1="144.11" x2="297.59" y2="144.75" xlink:href="#linear-gradient-3"/>
    <radialGradient id="radial-gradient-6" cx="640.3" cy="719.35" fx="640.3" fy="719.35" r="21.21" xlink:href="#radial-gradient"/>
    <radialGradient id="radial-gradient-7" cx="307.39" cy="177.31" fx="307.39" fy="177.31" r="2.75" xlink:href="#radial-gradient-2"/>
    <linearGradient id="linear-gradient-107" x1="369.7" y1="103.54" x2="369.7" y2="81.41" xlink:href="#linear-gradient-3"/>
    <radialGradient id="radial-gradient-8" cx="703.96" cy="712.54" fx="703.96" fy="712.54" r="15.25" xlink:href="#radial-gradient-3"/>
    <radialGradient id="radial-gradient-9" cx="703.96" cy="712.5" fx="703.96" fy="712.5" r="21.21" xlink:href="#radial-gradient"/>
    <radialGradient id="radial-gradient-10" cx="371.27" cy="177.31" fx="371.27" fy="177.31" r="2.75" xlink:href="#radial-gradient-2"/>
  </defs>
  <g>
    <path class="cls-115" d="M415,74.79c-13.92,0-25.2,11.2-25.2,25.03,0,6.41,2.43,12.25,6.41,16.68,1.82-.26,5.15-.45,8.83.8,4.87,1.66,7.91,4.37,8.57,5.01h2.26c.66-.63,3.7-3.35,8.57-5.01,4-1.36,7.59-1.02,9.28-.73,4.03-4.44,6.48-10.31,6.48-16.75,0-13.82-11.28-25.03-25.2-25.03Z"/>
    <path class="cls-133" d="M415,74.79c-13.92,0-25.2,11.2-25.2,25.03,0,6.41,2.43,12.25,6.41,16.68,1.82-.26,5.15-.45,8.83.8,4.87,1.66,7.91,4.37,8.57,5.01h2.26c.66-.63,3.7-3.35,8.57-5.01,4-1.36,7.59-1.02,9.28-.73,4.03-4.44,6.48-10.31,6.48-16.75,0-13.82-11.28-25.03-25.2-25.03Z"/>
  </g>
  <g class="cls-156">
    <g>
      <rect class="cls-25" x="370.97" y="176.6" width="64.75" height="1.44"/>
      <rect class="cls-25" x="307.18" y="176.6" width="64.75" height="1.44"/>
      <g>
        <path class="cls-45" d="M348.91,103.43v-11.72h-27.34v11.72c-.96,0-1.19.49-1.19,1.1s.44.92,1.05.92,1.05-.31,1.05-1.27h.08c0,.96.49,1.1,1.1,1.1s1.1-.14,1.1-1.1h.08c0,.96.49,1.1,1.1,1.1s1.1-.14,1.1-1.1h.08c0,.96.49,1.1,1.1,1.1s1.1-.14,1.1-1.1h.08c0,.96.49,1.1,1.1,1.1s1.1-.14,1.1-1.1h.08c0,.96.49,1.1,1.1,1.1s1.1-.14,1.1-1.1h.08c0,.96.49,1.1,1.1,1.1s1.1-.14,1.1-1.1h.08c0,.96.49,1.1,1.1,1.1s1.1-.14,1.1-1.1h.08c0,.96.49,1.1,1.1,1.1s1.1-.14,1.1-1.1h.08c0,.96.49,1.1,1.1,1.1s1.1-.14,1.1-1.1h.08c0,.96.49,1.1,1.1,1.1s1.1-.14,1.1-1.1h.08c0,.96.49,1.1,1.1,1.1s1.1-.14,1.1-1.1h.08c0,.96.49,1.27,1.1,1.27s1.18-.4,1.18-1.01-.54-1.01-1.02-1.01Z"/>
        <g>
          <rect class="cls-75" x="323.01" y="92.67" width="25.9" height="43.17"/>
          <rect class="cls-17" x="342.67" y="92.67" width="3.84" height="43.17"/>
          <rect class="cls-17" x="339.79" y="92.67" width="3.84" height="43.17"/>
        </g>
        <path class="cls-23" d="M319.17,103.43v-11.72h-27.34v11.72c-.48,0-1.03.49-1.03,1.1s.53.92,1.13.92,1.13-.31,1.13-1.27h.08c0,.96.49,1.1,1.1,1.1s1.1-.14,1.1-1.1h.08c0,.96.49,1.1,1.1,1.1s1.1-.14,1.1-1.1h.08c0,.96.49,1.1,1.1,1.1s1.1-.14,1.1-1.1h.08c0,.96.49,1.1,1.1,1.1s1.1-.14,1.1-1.1h.08c0,.96.49,1.1,1.1,1.1s1.1-.14,1.1-1.1h.08c0,.96.49,1.1,1.1,1.1s1.1-.14,1.1-1.1h.08c0,.96.49,1.1,1.1,1.1s1.1-.14,1.1-1.1h.08c0,.96.49,1.1,1.1,1.1s1.1-.14,1.1-1.1h.08c0,.96.49,1.1,1.1,1.1s1.1-.14,1.1-1.1h.08c0,.96.49,1.1,1.1,1.1s1.1-.14,1.1-1.1h.08c0,.96.49,1.1,1.1,1.1s1.1-.14,1.1-1.1h.08c0,.96.49,1.27,1.1,1.27s1.01-.4,1.01-1.01-.23-1.01-1.19-1.01Z"/>
        <rect class="cls-85" x="293.27" y="92.67" width="25.9" height="43.17"/>
        <rect class="cls-17" x="313.42" y="92.67" width="3.84" height="43.17"/>
        <rect class="cls-17" x="310.06" y="92.67" width="4.32" height="43.17"/>
      </g>
      <path class="cls-90" d="M384.88,103.43v-11.72h-27.34v11.72c-.96,0-1.18.49-1.18,1.1s.45.92,1.06.92,1.06-.31,1.06-1.27h.08c0,.96.49,1.1,1.1,1.1s1.1-.14,1.1-1.1h.08c0,.96.49,1.1,1.1,1.1s1.1-.14,1.1-1.1h.08c0,.96.49,1.1,1.1,1.1s1.1-.14,1.1-1.1h.08c0,.96.49,1.1,1.1,1.1s1.1-.14,1.1-1.1h.08c0,.96.49,1.1,1.1,1.1s1.1-.14,1.1-1.1h.08c0,.96.49,1.1,1.1,1.1s1.1-.14,1.1-1.1h.08c0,.96.49,1.1,1.1,1.1s1.1-.14,1.1-1.1h.08c0,.96.49,1.1,1.1,1.1s1.1-.14,1.1-1.1h.08c0,.96.49,1.1,1.1,1.1s1.1-.14,1.1-1.1h.08c0,.96.49,1.1,1.1,1.1s1.1-.14,1.1-1.1h.08c0,.96.49,1.1,1.1,1.1s1.1-.14,1.1-1.1h.08c0,.96.49,1.27,1.1,1.27s1.17-.4,1.17-1.01-.55-1.01-1.03-1.01Z"/>
      <g>
        <rect class="cls-62" x="360.9" y="92.67" width="25.9" height="43.17"/>
        <rect class="cls-17" x="379.12" y="92.67" width="4.32" height="43.17"/>
        <rect class="cls-17" x="376.25" y="92.67" width="3.84" height="43.17"/>
      </g>
      <path class="cls-145" d="M414.62,103.43v-11.72h-27.34v11.72c-.48,0-1.1.49-1.1,1.1s.49.92,1.1.92,1.1-.31,1.1-1.27h.08c0,.96.49,1.1,1.1,1.1s1.1-.14,1.1-1.1h.08c0,.96.49,1.1,1.1,1.1s1.1-.14,1.1-1.1h.08c0,.96.49,1.1,1.1,1.1s1.1-.14,1.1-1.1h.08c0,.96.49,1.1,1.1,1.1s1.1-.14,1.1-1.1h.08c0,.96.49,1.1,1.1,1.1s1.1-.14,1.1-1.1h.08c0,.96.49,1.1,1.1,1.1s1.1-.14,1.1-1.1h.08c0,.96.49,1.1,1.1,1.1s1.1-.14,1.1-1.1h.08c0,.96.49,1.1,1.1,1.1s1.1-.14,1.1-1.1h.08c0,.96.49,1.1,1.1,1.1s1.1-.14,1.1-1.1h.08c0,.96.49,1.1,1.1,1.1s1.1-.14,1.1-1.1h.08c0,.96.49,1.1,1.1,1.1s1.1-.14,1.1-1.1h.08c0,.96.49,1.27,1.1,1.27s1.08-.4,1.08-1.01-.64-1.01-1.12-1.01Z"/>
      <g>
        <rect class="cls-110" x="388.72" y="92.67" width="25.9" height="43.17"/>
        <path class="cls-9" d="M413.18,130.48c0,3.22-2.61,5.83-5.83,5.83h-11.36c-3.22,0-5.83-2.61-5.83-5.83v-31.03c0-3.22,2.61-5.83,5.83-5.83h11.36c3.22,0,5.83,2.61,5.83,5.83v31.03ZM411.74,99.37c0-2.38-1.93-4.31-4.31-4.31h-11.05c-2.38,0-4.31,1.93-4.31,4.31v30.71c0,2.38,1.93,4.31,4.31,4.31h11.05c2.38,0,4.31-1.93,4.31-4.31v-30.71Z"/>
      </g>
      <path class="cls-73" d="M354.18,86.43v69.55h95.93v-69.55h-95.93ZM382.96,130.28c0,2.8-2.27,5.07-5.07,5.07h-10.97c-2.8,0-5.07-2.27-5.07-5.07v-31.11c0-2.8,2.27-5.07,5.07-5.07h10.97c2.8,0,5.07,2.27,5.07,5.07v31.11ZM412.22,130.28c0,2.8-2.27,5.07-5.07,5.07h-10.97c-2.8,0-5.07-2.27-5.07-5.07v-31.11c0-2.8,2.27-5.07,5.07-5.07h10.97c2.8,0,5.07,2.27,5.07,5.07v31.11ZM441.96,130.28c0,2.8-2.27,5.07-5.07,5.07h-10.97c-2.8,0-5.07-2.27-5.07-5.07v-31.11c0-2.8,2.27-5.07,5.07-5.07h10.97c2.8,0,5.07,2.27,5.07,5.07v31.11Z"/>
      <path class="cls-21" d="M354.18,86.43v69.55h95.93v-69.55h-95.93ZM382.96,130.28c0,2.8-2.27,5.07-5.07,5.07h-10.97c-2.8,0-5.07-2.27-5.07-5.07v-31.11c0-2.8,2.27-5.07,5.07-5.07h10.97c2.8,0,5.07,2.27,5.07,5.07v31.11ZM412.22,130.28c0,2.8-2.27,5.07-5.07,5.07h-10.97c-2.8,0-5.07-2.27-5.07-5.07v-31.11c0-2.8,2.27-5.07,5.07-5.07h10.97c2.8,0,5.07,2.27,5.07,5.07v31.11ZM441.96,130.28c0,2.8-2.27,5.07-5.07,5.07h-10.97c-2.8,0-5.07-2.27-5.07-5.07v-31.11c0-2.8,2.27-5.07,5.07-5.07h10.97c2.8,0,5.07,2.27,5.07,5.07v31.11Z"/>
      <path class="cls-21" d="M258.74,86.43v69.55h95.45v-69.55h-95.45ZM287.04,130.28c0,2.8-2.27,5.07-5.07,5.07h-10.97c-2.8,0-5.07-2.27-5.07-5.07v-31.11c0-2.8,2.27-5.07,5.07-5.07h10.97c2.8,0,5.07,2.27,5.07,5.07v31.11ZM316.77,130.28c0,2.8-2.27,5.07-5.07,5.07h-10.97c-2.8,0-5.07-2.27-5.07-5.07v-31.11c0-2.8,2.27-5.07,5.07-5.07h10.97c2.8,0,5.07,2.27,5.07,5.07v31.11ZM346.03,130.28c0,2.8-2.27,5.07-5.07,5.07h-10.97c-2.8,0-5.07-2.27-5.07-5.07v-31.11c0-2.8,2.27-5.07,5.07-5.07h10.97c2.8,0,5.07,2.27,5.07,5.07v31.11Z"/>
      <rect class="cls-82" x="288.47" y="154.06" width="167.39" height="20.62"/>
      <rect class="cls-146" x="287.99" y="90.27" width="166.91" height="1.44"/>
      <rect class="cls-2" x="287.99" y="87.39" width="166.91" height="3.36"/>
      <g>
        <rect class="cls-144" x="390.16" y="144.47" width=".96" height="11.51"/>
        <rect class="cls-37" x="385.84" y="144.47" width=".96" height="11.51"/>
        <rect class="cls-19" x="381.04" y="144.47" width=".96" height="11.51"/>
        <rect class="cls-78" x="376.73" y="144.47" width=".96" height="11.51"/>
        <rect class="cls-104" x="371.93" y="144.47" width=".96" height="11.51"/>
        <rect class="cls-88" x="367.61" y="144.47" width=".96" height="11.51"/>
        <rect class="cls-132" x="362.82" y="144.47" width=".96" height="11.51"/>
        <rect class="cls-31" x="358.5" y="144.47" width=".96" height="11.51"/>
        <rect class="cls-4" x="353.7" y="144.47" width=".96" height="11.51"/>
        <rect class="cls-55" x="349.39" y="144.47" width=".96" height="11.51"/>
        <rect class="cls-72" x="349.39" y="144.47" width="105.52" height=".96"/>
      </g>
      <g>
        <rect class="cls-29" x="317.25" y="144.47" width=".96" height="11.51"/>
        <rect class="cls-59" x="312.94" y="144.47" width=".96" height="11.51"/>
        <rect class="cls-5" x="308.14" y="144.47" width=".96" height="11.51"/>
        <rect class="cls-111" x="303.82" y="144.47" width=".96" height="11.51"/>
        <rect class="cls-7" x="299.03" y="144.47" width=".96" height="11.51"/>
        <rect class="cls-70" x="340.27" y="144.47" width=".96" height="11.51"/>
        <rect class="cls-18" x="335.48" y="144.47" width=".96" height="11.51"/>
        <rect class="cls-60" x="349.39" y="144.47" width=".96" height="11.51"/>
        <rect class="cls-56" x="344.59" y="144.47" width=".96" height="11.51"/>
        <rect class="cls-107" x="331.16" y="144.47" width=".96" height="11.51"/>
        <rect class="cls-57" x="326.37" y="144.47" width=".96" height="11.51"/>
        <rect class="cls-108" x="322.05" y="144.47" width=".96" height="11.51"/>
        <rect class="cls-89" x="295.19" y="144.47" width=".96" height="11.51"/>
        <rect class="cls-129" x="290.39" y="144.47" width=".96" height="11.51"/>
        <rect class="cls-123" x="286.08" y="144.47" width=".96" height="11.51"/>
        <rect class="cls-114" x="281.28" y="144.47" width=".96" height="11.51"/>
        <rect class="cls-39" x="276.96" y="144.47" width=".96" height="11.51"/>
        <rect class="cls-67" x="272.17" y="144.47" width=".96" height="11.51"/>
        <rect class="cls-8" x="267.85" y="144.47" width=".96" height="11.51"/>
        <rect class="cls-44" x="263.05" y="144.47" width=".96" height="11.51"/>
        <rect class="cls-64" x="258.74" y="144.47" width=".96" height="11.51"/>
        <rect class="cls-100" x="253.94" y="144.47" width=".96" height="11.51"/>
        <rect class="cls-147" x="249.62" y="144.47" width=".96" height="11.51"/>
        <rect class="cls-1" x="244.83" y="144.47" width=".96" height="11.51"/>
        <rect class="cls-80" x="244.83" y="144.47" width="105.52" height=".96"/>
      </g>
      <g>
        <g>
          <rect class="cls-50" x="301.45" y="170.5" width="14.7" height=".51" transform="translate(98.12 453.82) rotate(-82.28)"/>
          <rect class="cls-50" x="304.76" y="163.76" width=".51" height="14.7" transform="translate(-42.25 129.66) rotate(-22.49)"/>
          <polygon class="cls-50" points="307.88 177.6 307.57 178.01 295.96 169.03 296.27 168.63 307.88 177.6"/>
          <rect class="cls-50" x="300.09" y="169.45" width=".51" height="14.66" transform="translate(85.16 450.92) rotate(-82.35)"/>
          <polygon class="cls-50" points="307.38 177.54 307.57 178.01 294.01 183.6 293.82 183.13 307.38 177.54"/>
          <polygon class="cls-50" points="307.17 177.7 307.57 178.01 298.62 189.65 298.22 189.34 307.17 177.7"/>
          <rect class="cls-50" x="299" y="185.01" width="14.7" height=".51" transform="translate(81.88 464.16) rotate(-82.33)"/>
          <rect class="cls-50" x="309.88" y="177.55" width=".51" height="14.7" transform="translate(-47.14 132.7) rotate(-22.49)"/>
          <polygon class="cls-50" points="307.27 178.41 307.57 178.01 319.19 186.98 318.88 187.38 307.27 178.41"/>
          <rect class="cls-50" x="314.55" y="171.9" width=".51" height="14.67" transform="translate(95.43 467.51) rotate(-82.38)"/>
          <rect class="cls-50" x="307.11" y="175.19" width="14.67" height=".51" transform="translate(-43.11 132.88) rotate(-22.37)"/>
          <rect class="cls-50" x="304.91" y="172.09" width="14.69" height=".51" transform="translate(-14.75 314.71) rotate(-52.42)"/>
        </g>
        <g>
          <polygon class="cls-2" points="308.08 178.06 307.57 178.01 309.14 163.39 309.64 163.44 308.08 178.06"/>
          <polygon class="cls-2" points="308.04 177.8 307.57 178.01 301.64 164.56 302.1 164.36 308.04 177.8"/>
          <polygon class="cls-2" points="307.87 177.6 307.57 178.01 295.73 169.34 296.03 168.93 307.87 177.6"/>
          <rect class="cls-2" x="300.06" y="169.64" width=".51" height="14.66" transform="translate(92.3 456.67) rotate(-83.87)"/>
          <polygon class="cls-2" points="307.37 177.54 307.57 178.01 294.16 183.95 293.96 183.49 307.37 177.54"/>
          <polygon class="cls-2" points="307.16 177.71 307.57 178.01 298.92 189.88 298.52 189.58 307.16 177.71"/>
          <rect class="cls-2" x="299.19" y="185.03" width="14.7" height=".51" transform="translate(89.38 470.14) rotate(-83.83)"/>
          <polygon class="cls-2" points="307.11 178.21 307.57 178.01 313.5 191.45 313.04 191.66 307.11 178.21"/>
          <polygon class="cls-2" points="307.28 178.41 307.57 178.01 319.42 186.68 319.12 187.09 307.28 178.41"/>
          <rect class="cls-2" x="314.58" y="171.71" width=".51" height="14.66" transform="translate(103.35 473.07) rotate(-83.9)"/>
          <rect class="cls-2" x="307.05" y="175.01" width="14.67" height=".51" transform="translate(-44.03 142.2) rotate(-23.87)"/>
          <polygon class="cls-2" points="307.98 178.3 307.57 178.01 316.22 166.13 316.63 166.43 307.98 178.3"/>
        </g>
        <path class="cls-25" d="M309.61,160.98c-9-.97-17.08,5.56-18.05,14.58-.97,9.02,5.54,17.13,14.54,18.1,9,.97,17.08-5.56,18.05-14.58.97-9.02-5.54-17.13-14.54-18.1ZM306.23,192.48c-8.35-.9-14.4-8.42-13.5-16.79.9-8.37,8.4-14.43,16.75-13.53,8.35.9,14.4,8.42,13.5,16.79-.9,8.37-8.4,14.43-16.75,13.53Z"/>
        <path class="cls-2" d="M309.49,162.15c-8.35-.9-15.85,5.16-16.75,13.53-.9,8.37,5.14,15.89,13.5,16.79,8.35.9,15.85-5.16,16.75-13.53.9-8.37-5.15-15.89-13.5-16.79ZM306.31,191.72c-7.94-.86-13.68-8-12.82-15.96.85-7.96,7.98-13.71,15.92-12.86,7.94.86,13.68,8,12.82,15.96-.85,7.96-7.98,13.71-15.92,12.86Z"/>
        <path class="cls-91" d="M309.41,162.91c-7.94-.86-15.06,4.9-15.92,12.86-.85,7.96,4.89,15.1,12.82,15.96,7.94.86,15.06-4.9,15.92-12.86.85-7.96-4.89-15.1-12.82-15.96ZM306.42,190.71c-7.38-.8-12.72-7.44-11.93-14.84.79-7.4,7.42-12.75,14.8-11.96,7.38.8,12.72,7.44,11.93,14.84-.79,7.4-7.42,12.75-14.8,11.96Z"/>
      </g>
      <g>
        <path class="cls-79" d="M310.14,177.31c0,1.52-1.23,2.75-2.75,2.75s-2.75-1.23-2.75-2.75,1.23-2.75,2.75-2.75,2.75,1.23,2.75,2.75Z"/>
        <path class="cls-103" d="M309.43,177.31c0,1.13-.91,2.04-2.04,2.04s-2.04-.91-2.04-2.04.91-2.04,2.04-2.04,2.04.91,2.04,2.04Z"/>
        <circle class="cls-2" cx="307.39" cy="177.31" r="1.18"/>
      </g>
      <path class="cls-51" d="M447.9,74.44h-156.39c-11.02,2.88-8.33,13.43-8.33,13.43h173.06s2.69-10.55-8.33-13.43Z"/>
      <path class="cls-2" d="M383.92,130.48c0,3.22-2.61,5.83-5.83,5.83h-11.36c-3.22,0-5.83-2.61-5.83-5.83v-31.03c0-3.22,2.61-5.83,5.83-5.83h11.36c3.22,0,5.83,2.61,5.83,5.83v31.03ZM382,99.37c0-2.38-1.93-4.31-4.31-4.31h-11.05c-2.38,0-4.31,1.93-4.31,4.31v30.71c0,2.38,1.93,4.31,4.31,4.31h11.05c2.38,0,4.31-1.93,4.31-4.31v-30.71Z"/>
      <path class="cls-2" d="M413.18,130.48c0,3.22-2.61,5.83-5.83,5.83h-11.36c-3.22,0-5.83-2.61-5.83-5.83v-31.03c0-3.22,2.61-5.83,5.83-5.83h11.36c3.22,0,5.83,2.61,5.83,5.83v31.03ZM411.74,99.37c0-2.38-1.93-4.31-4.31-4.31h-11.05c-2.38,0-4.31,1.93-4.31,4.31v30.71c0,2.38,1.93,4.31,4.31,4.31h11.05c2.38,0,4.31-1.93,4.31-4.31v-30.71Z"/>
      <path class="cls-2" d="M347.47,130.48c0,3.22-2.61,5.83-5.83,5.83h-11.36c-3.22,0-5.83-2.61-5.83-5.83v-31.03c0-3.22,2.61-5.83,5.83-5.83h11.36c3.22,0,5.83,2.61,5.83,5.83v31.03ZM345.55,99.37c0-2.38-1.93-4.31-4.31-4.31h-11.05c-2.38,0-4.31,1.93-4.31,4.31v30.71c0,2.38,1.93,4.31,4.31,4.31h11.05c2.38,0,4.31-1.93,4.31-4.31v-30.71Z"/>
      <path class="cls-2" d="M318.21,130.48c0,3.22-2.61,5.83-5.83,5.83h-11.36c-3.22,0-5.83-2.61-5.83-5.83v-31.03c0-3.22,2.61-5.83,5.83-5.83h11.36c3.22,0,5.83,2.61,5.83,5.83v31.03ZM316.29,99.37c0-2.38-1.93-4.31-4.31-4.31h-11.05c-2.38,0-4.31,1.93-4.31,4.31v30.71c0,2.38,1.93,4.31,4.31,4.31h11.05c2.38,0,4.31-1.93,4.31-4.31v-30.71Z"/>
      <g class="cls-153">
        <path class="cls-117" d="M576.04,29.43c-2.75-5.95-12.97-10.38-25.2-10.38s-22.64,4.51-25.28,10.54c-.61-.03-1.23-.05-1.86-.05-4.99,0-9.52,1.02-12.9,2.68-2.76-1.23-6.3-1.99-10.18-2.05-4.8-5.12-14.83-8.65-26.47-8.65-9.39,0-17.73,2.3-23.13,5.88-1.67-.21-3.39-.33-5.18-.33-8.1,0-15.17,2.26-19.11,5.63-5.79-4.15-15.14-6.86-25.71-6.86-8.38,0-15.98,1.7-21.66,4.47-3.16-1.25-7.09-2-11.37-2-10.42,0-18.87,4.42-18.87,9.88,0,.1.02.2.03.3-2.12-.58-4.54-1-7.11-1-3.14,0-10.53,1.61-10.53,4.23,0,3.8,12.21,5.2,18.25,1.94,0,0,18.41,6.04,39.24.04,0,0,16.96,7.54,39.24.02,0,0,10.66,4.74,19.86.01,0,0,17.44,5.75,35.85,0,0,0,15.02,5.24,28.1,0,0,0,13.08,3.97,20.35,0,0,0,16.96,7.01,29.07,0,0,0,28.29,6.25,37.64,0-1.01-6.95-10.5-12.65-23.07-14.31Z"/>
        <path class="cls-46" d="M598.68,42.09c-.04-.1-.08-.2-.11-.3-.18-.46-.39-.91-.64-1.35-9.18,1.8-17.97,2.6-24.68-.41-14.16-6.48-17.69-1.85-33.62-3.7-.91,0-2.28-.74-3.17-1.7-8.92,10.08-41.07,7.26-46.38-.15,0,3.7-14.47,7.37-17.76,7.69-15.99,1.58-33.83,2.91-46.22-4.5-11.27,8.26-36.87,3.28-45.72-1.35-1.77-1.85-12.39,0-17.69-1.85-3.78-.79-5.94-2.09-7.04-3.76-.03.01-.06.03-.1.05-.44.2-.86.41-1.26.63-.12.06-.23.13-.34.2-.3.17-.58.35-.86.53-.14.09-.28.19-.41.29-.21.15-.41.31-.61.47-.16.13-.32.27-.47.4-.11.1-.23.2-.33.31-.2.2-.38.4-.55.6-.07.08-.13.16-.2.23-.18.23-.35.47-.5.72-.04.06-.08.13-.11.19-.15.26-.28.53-.39.8-.02.04-.03.09-.05.14-.11.29-.2.58-.26.88,0,.02,0,.04-.01.06-.06.32-.09.64-.09.97,0,.05,0,.09.01.14,0,.05.01.14.02.14h.23v.02s-.18-.02-.22-.03c-2.1-.57-4.54-.89-7.07-.89-.74,0-1.49.03-2.2.09-3.51.48-8.37,1.94-8.37,4.06,0,3.8,12.2,5.2,18.24,1.94,0,0,18.41,6.04,39.24.04,0,0,16.95,7.54,39.24.02,0,0,10.66,4.74,19.86.01,0,0,17.44,5.75,35.85,0,0,0,15.02,5.24,28.1,0,0,0,13.08,3.97,20.35,0,0,0,16.96,7.01,29.07,0,0,0,28.29,6.25,37.64,0-.05-.35-.14-.7-.24-1.05-.06-.2-.12-.4-.19-.6Z"/>
      </g>
      <g>
        <g>
          <rect class="cls-50" x="365.32" y="170.5" width="14.7" height=".51" transform="translate(153.4 517.11) rotate(-82.28)"/>
          <rect class="cls-50" x="368.64" y="163.76" width=".51" height="14.7" transform="translate(-37.4 154.15) rotate(-22.49)"/>
          <polygon class="cls-50" points="371.76 177.6 371.45 178.01 359.83 169.03 360.14 168.63 371.76 177.6"/>
          <rect class="cls-50" x="363.96" y="169.45" width=".51" height="14.66" transform="translate(140.65 514.31) rotate(-82.37)"/>
          <polygon class="cls-50" points="371.26 177.54 371.45 178.01 357.89 183.6 357.69 183.13 371.26 177.54"/>
          <polygon class="cls-50" points="371.05 177.7 371.45 178.01 362.49 189.65 362.09 189.34 371.05 177.7"/>
          <rect class="cls-50" x="362.87" y="185.01" width="14.7" height=".51" transform="translate(137.26 527.48) rotate(-82.34)"/>
          <rect class="cls-50" x="373.75" y="177.55" width=".51" height="14.7" transform="translate(-42.28 157.06) rotate(-22.48)"/>
          <polygon class="cls-50" points="371.14 178.41 371.45 178.01 383.06 186.98 382.75 187.38 371.14 178.41"/>
          <rect class="cls-50" x="378.43" y="171.9" width=".51" height="14.67" transform="translate(150.68 530.71) rotate(-82.36)"/>
          <polygon class="cls-50" points="371.64 178.47 371.45 178.01 385.01 172.41 385.2 172.88 371.64 178.47"/>
          <rect class="cls-50" x="368.78" y="172.09" width="14.69" height=".51" transform="translate(10.17 365.33) rotate(-52.42)"/>
        </g>
        <g>
          <polygon class="cls-2" points="371.95 178.06 371.45 178.01 373.02 163.39 373.52 163.44 371.95 178.06"/>
          <polygon class="cls-2" points="371.91 177.8 371.45 178.01 365.52 164.56 365.98 164.36 371.91 177.8"/>
          <polygon class="cls-2" points="371.75 177.6 371.45 178.01 359.61 169.34 359.9 168.93 371.75 177.6"/>
          <rect class="cls-2" x="363.93" y="169.64" width=".51" height="14.66" transform="translate(149.52 520.28) rotate(-83.9)"/>
          <polygon class="cls-2" points="371.24 177.54 371.45 178.01 358.04 183.95 357.83 183.49 371.24 177.54"/>
          <polygon class="cls-2" points="371.04 177.71 371.45 178.01 362.8 189.88 362.39 189.58 371.04 177.71"/>
          <rect class="cls-2" x="363.06" y="185.03" width="14.7" height=".51" transform="translate(146.41 533.66) rotate(-83.83)"/>
          <polygon class="cls-2" points="370.99 178.21 371.45 178.01 377.38 191.45 376.92 191.66 370.99 178.21"/>
          <polygon class="cls-2" points="371.15 178.41 371.45 178.01 383.29 186.68 382.99 187.09 371.15 178.41"/>
          <rect class="cls-2" x="378.46" y="171.71" width=".51" height="14.66" transform="translate(160.26 536.48) rotate(-83.87)"/>
          <polygon class="cls-2" points="371.65 178.47 371.45 178.01 384.86 172.06 385.06 172.52 371.65 178.47"/>
          <polygon class="cls-2" points="371.86 178.3 371.45 178.01 380.1 166.13 380.5 166.43 371.86 178.3"/>
        </g>
        <path class="cls-25" d="M373.49,160.98c-9-.97-17.08,5.56-18.05,14.58-.97,9.02,5.54,17.13,14.54,18.1,9,.97,17.08-5.56,18.05-14.58.97-9.02-5.54-17.13-14.54-18.1ZM370.11,192.48c-8.35-.9-14.4-8.42-13.5-16.79.9-8.37,8.4-14.43,16.75-13.53,8.35.9,14.4,8.42,13.5,16.79-.9,8.37-8.4,14.43-16.75,13.53Z"/>
        <path class="cls-137" d="M373.36,162.15c-8.35-.9-15.85,5.16-16.75,13.53-.9,8.37,5.14,15.89,13.5,16.79,8.35.9,15.85-5.16,16.75-13.53.9-8.37-5.15-15.89-13.5-16.79ZM370.19,191.72c-7.94-.86-13.68-8-12.82-15.96.85-7.96,7.98-13.71,15.92-12.86,7.94.86,13.68,8,12.82,15.96-.85,7.96-7.98,13.71-15.92,12.86Z"/>
        <path class="cls-150" d="M373.28,162.91c-7.94-.86-15.06,4.9-15.92,12.86-.85,7.96,4.89,15.1,12.82,15.96,7.94.86,15.06-4.9,15.92-12.86.85-7.96-4.89-15.1-12.82-15.96ZM370.3,190.71c-7.38-.8-12.72-7.44-11.93-14.84.79-7.4,7.42-12.75,14.8-11.96,7.38.8,12.72,7.44,11.93,14.84-.79,7.4-7.42,12.75-14.8,11.96Z"/>
      </g>
      <g>
        <path class="cls-86" d="M374.01,177.31c0,1.52-1.23,2.75-2.75,2.75s-2.75-1.23-2.75-2.75,1.23-2.75,2.75-2.75,2.75,1.23,2.75,2.75Z"/>
        <path class="cls-103" d="M373.31,177.31c0,1.13-.91,2.04-2.04,2.04s-2.04-.91-2.04-2.04.91-2.04,2.04-2.04,2.04.91,2.04,2.04Z"/>
        <path class="cls-2" d="M372.45,177.31c0,.65-.53,1.18-1.18,1.18s-1.18-.53-1.18-1.18.53-1.18,1.18-1.18,1.18.53,1.18,1.18Z"/>
      </g>
    </g>
  </g>
  <g class="cls-155">
    <g>
      <g>
        <path class="cls-116" d="M279.07,164.19s51.04-36.46,113.02,0l-48.61,30.38-64.41-30.38Z"/>
        <g>
          <path class="cls-125" d="M324.87,132.29s-8.67,43.01,0,43.01,0-43.01,0-43.01Z"/>
          <path class="cls-125" d="M334.52,136.74s-8.67,43.01,0,43.01,0-43.01,0-43.01Z"/>
          <path class="cls-125" d="M341.38,136.74s-8.67,43.01,0,43.01,0-43.01,0-43.01Z"/>
          <path class="cls-125" d="M314.66,124.09s-8.67,45.41,0,45.41,0-45.41,0-45.41Z"/>
          <path class="cls-125" d="M308.28,134.52s-9.21,35.57,0,35.57,0-35.57,0-35.57Z"/>
        </g>
      </g>
      <g>
        <path class="cls-30" d="M324.87,175.3s70.27-35.55,205.78-21.51,306.92,46.25,333.03,47.47l9.09,12.02v53.6s-539.36-28.56-544.05-30.99c-4.68-2.43-3.85-60.6-3.85-60.6Z"/>
        <path class="cls-125" d="M393.31,170.09s-10.61,43.19,0,43.19,0-43.19,0-43.19Z"/>
        <path class="cls-3" d="M-136.58,180.6s54.69-12.36,150.71-32.61c96.01-20.26,199.32-22.48,296.54,16.31,97.23,38.79,147.06,64.31,209.04,65.53H-151.16l14.58-49.22Z"/>
        <g>
          <path class="cls-116" d="M-58.8,218.48s113.43-77.37,236.59-17.22l-118.29,65.63-118.29-48.41Z"/>
          <g>
            <path class="cls-125" d="M9.49,164.71s-12.06,49.09,0,49.09,0-49.09,0-49.09Z"/>
            <path class="cls-125" d="M20.22,170.09s-10.41,42.37,0,42.37,0-42.37,0-42.37Z"/>
            <path class="cls-125" d="M29.69,176.59s-8.99,36.59,0,36.59,0-36.59,0-36.59Z"/>
          </g>
          <rect class="cls-53" x="-44.62" y="189.25" width="51.85" height="31.76"/>
        </g>
      </g>
      <path class="cls-125" d="M-448.65,281.82S144.79,203.22,407.51,208.94c262.72,5.72,622,125.31,622,125.31l-171.05,15.87-1323.68-19.4,16.56-48.89Z"/>
      <path class="cls-30" d="M-454.48,197.35s250.22-45.68,484.98-40.85c234.77,4.83,570.84,153.53,570.84,153.53H-459.4l4.92-112.68Z"/>
    </g>
    <g>
      <g>
        <path class="cls-48" d="M628.17,195.36c0,.65-.48,1.29-1.24,1.29H255.03c-.75,0-1.46-.64-1.46-1.29v-.17c0-.65.7-1.42,1.46-1.42h371.9c.75,0,1.24.76,1.24,1.42v.17Z"/>
        <path class="cls-24" d="M392.19,196.59c0,1.09-.92,1.98-1.9,1.98h-8.12c-.98,0-1.98-.88-1.98-1.98v-.1c0-1.09,1-1.76,1.98-1.76h8.12c.98,0,1.9.67,1.9,1.76v.1Z"/>
        <path class="cls-58" d="M372.52,196.59c0,1.09-1.03,1.98-2.01,1.98h-8.12c-.98,0-1.87-.88-1.87-1.98v-.1c0-1.09.89-1.76,1.87-1.76h8.12c.98,0,2.01.67,2.01,1.76v.1Z"/>
        <path class="cls-118" d="M352.38,196.59c0,1.09-.65,1.98-1.63,1.98h-8.11c-.98,0-1.76-.88-1.76-1.98v-.1c0-1.09.79-1.76,1.76-1.76h8.11c.98,0,1.63.67,1.63,1.76v.1Z"/>
        <path class="cls-76" d="M333.19,196.59c0,1.09-.73,1.98-1.71,1.98h-8.11c-.98,0-1.69-.88-1.69-1.98v-.1c0-1.09.71-1.76,1.69-1.76h8.11c.98,0,1.71.67,1.71,1.76v.1Z"/>
        <path class="cls-124" d="M313.53,196.59c0,1.09-.84,1.98-1.82,1.98h-8.12c-.98,0-1.58-.88-1.58-1.98v-.1c0-1.09.6-1.76,1.58-1.76h8.12c.98,0,1.82.67,1.82,1.76v.1Z"/>
        <path class="cls-105" d="M293.87,196.59c0,1.09-.94,1.98-1.92,1.98h-8.11c-.98,0-1.95-.88-1.95-1.98v-.1c0-1.09.98-1.76,1.95-1.76h8.11c.98,0,1.92.67,1.92,1.76v.1Z"/>
        <path class="cls-101" d="M274.68,196.59c0,1.09-1.02,1.98-2,1.98h-8.12c-.98,0-1.88-.88-1.88-1.98v-.1c0-1.09.9-1.76,1.88-1.76h8.12c.98,0,2,.67,2,1.76v.1Z"/>
      </g>
      <g>
        <path class="cls-102" d="M301.46,196c0,.57-.42,1.13-1.08,1.13H-26.08c-.66,0-1.28-.56-1.28-1.13v-.15c0-.57.62-1.24,1.28-1.24h326.45c.66,0,1.08.67,1.08,1.24v.15Z"/>
        <path class="cls-65" d="M299.77,197.08c0,.96-.68,1.73-1.54,1.73h-7.12c-.86,0-1.44-.78-1.44-1.73v-.09c0-.96.58-1.54,1.44-1.54h7.12c.86,0,1.54.58,1.54,1.54v.09Z"/>
        <path class="cls-113" d="M282.93,197.08c0,.96-.75,1.73-1.61,1.73h-7.12c-.86,0-1.37-.78-1.37-1.73v-.09c0-.96.51-1.54,1.37-1.54h7.12c.86,0,1.61.58,1.61,1.54v.09Z"/>
        <path class="cls-74" d="M265.67,197.08c0,.96-.84,1.73-1.7,1.73h-7.12c-.86,0-1.7-.78-1.7-1.73v-.09c0-.96.84-1.54,1.7-1.54h7.12c.86,0,1.7.58,1.7,1.54v.09Z"/>
        <path class="cls-96" d="M248.41,197.08c0,.96-.49,1.73-1.35,1.73h-7.12c-.86,0-1.63-.78-1.63-1.73v-.09c0-.96.77-1.54,1.63-1.54h7.12c.86,0,1.35.58,1.35,1.54v.09Z"/>
        <path class="cls-61" d="M231.15,197.08c0,.96-.58,1.73-1.44,1.73h-7.12c-.86,0-1.54-.78-1.54-1.73v-.09c0-.96.68-1.54,1.54-1.54h7.12c.86,0,1.44.58,1.44,1.54v.09Z"/>
        <path class="cls-63" d="M214.31,197.08c0,.96-.65,1.73-1.51,1.73h-7.12c-.86,0-1.47-.78-1.47-1.73v-.09c0-.96.61-1.54,1.47-1.54h7.12c.86,0,1.51.58,1.51,1.54v.09Z"/>
        <path class="cls-130" d="M196.63,197.08c0,.96-.77,1.73-1.63,1.73h-7.12c-.86,0-1.35-.78-1.35-1.73v-.09c0-.96.49-1.54,1.35-1.54h7.12c.86,0,1.63.58,1.63,1.54v.09Z"/>
        <path class="cls-15" d="M180.21,197.08c0,.96-.81,1.73-1.67,1.73h-7.12c-.86,0-1.73-.78-1.73-1.73v-.09c0-.96.87-1.54,1.73-1.54h7.12c.86,0,1.67.58,1.67,1.54v.09Z"/>
        <path class="cls-42" d="M162.94,197.08c0,.96-.91,1.73-1.77,1.73h-7.12c-.86,0-1.64-.78-1.64-1.73v-.09c0-.96.78-1.54,1.64-1.54h7.12c.86,0,1.77.58,1.77,1.54v.09Z"/>
        <path class="cls-69" d="M145.26,197.08c0,.96-.58,1.73-1.44,1.73h-7.12c-.86,0-1.54-.78-1.54-1.73v-.09c0-.96.69-1.54,1.54-1.54h7.12c.86,0,1.44.58,1.44,1.54v.09Z"/>
        <path class="cls-68" d="M128.42,197.08c0,.96-.65,1.73-1.51,1.73h-7.12c-.86,0-1.48-.78-1.48-1.73v-.09c0-.96.62-1.54,1.48-1.54h7.12c.86,0,1.51.58,1.51,1.54v.09Z"/>
        <path class="cls-109" d="M111.16,197.08c0,.96-.74,1.73-1.6,1.73h-7.12c-.86,0-1.38-.78-1.38-1.73v-.09c0-.96.52-1.54,1.38-1.54h7.12c.86,0,1.6.58,1.6,1.54v.09Z"/>
        <path class="cls-10" d="M94.32,197.08c0,.96-.81,1.73-1.67,1.73h-7.12c-.86,0-1.73-.78-1.73-1.73v-.09c0-.96.88-1.54,1.73-1.54h7.12c.86,0,1.67.58,1.67,1.54v.09Z"/>
        <path class="cls-43" d="M77.06,197.08c0,.96-.9,1.73-1.76,1.73h-7.12c-.86,0-1.64-.78-1.64-1.73v-.09c0-.96.78-1.54,1.64-1.54h7.12c.86,0,1.76.58,1.76,1.54v.09Z"/>
        <path class="cls-126" d="M59.37,197.08c0,.96-.57,1.73-1.43,1.73h-7.12c-.86,0-1.55-.78-1.55-1.73v-.09c0-.96.69-1.54,1.55-1.54h7.12c.86,0,1.43.58,1.43,1.54v.09Z"/>
        <path class="cls-99" d="M42.53,197.08c0,.96-.64,1.73-1.5,1.73h-7.12c-.86,0-1.48-.78-1.48-1.73v-.09c0-.96.62-1.54,1.48-1.54h7.12c.86,0,1.5.58,1.5,1.54v.09Z"/>
        <path class="cls-54" d="M25.27,197.08c0,.96-.73,1.73-1.59,1.73h-7.12c-.86,0-1.39-.78-1.39-1.73v-.09c0-.96.53-1.54,1.39-1.54h7.12c.86,0,1.59.58,1.59,1.54v.09Z"/>
        <path class="cls-14" d="M8.01,197.08c0,.96-.83,1.73-1.69,1.73H-.8c-.86,0-1.72-.78-1.72-1.73v-.09c0-.96.86-1.54,1.72-1.54h7.12c.86,0,1.69.58,1.69,1.54v.09Z"/>
      </g>
    </g>
    <path class="cls-52" d="M-525.46,352.84v94.04s294.83,0,294.83,0h8.74s286.09,0,286.09,0h8.74s286.09,0,286.09,0h8.74s286.09,0,286.09,0h8.74s286.09,0,286.09,0h8.74s286.09,0,286.09,0h8.74s286.09,0,286.09,0h8.74s294.83,0,294.83,0v-94.04c0-3.03-.14-6.02-.34-9l46.07-139.4-5.53-1.83-41.64,126.02v-119.28h13.41s0-11.65,0-11.65H-500.37s0,11.65,0,11.65h225.64s18.04,54.6,18.04,54.6c-24-26.02-58.34-42.35-96.44-42.35h-41.11c-72.36,0-131.23,58.87-131.23,131.23ZM-268.59,209.35h39.42v100.45c-4.15-11.9-9.96-23.03-17.16-33.1l-22.26-67.35ZM1563.28,276.01c-7.43,10.25-13.41,21.62-17.65,33.79v-100.45h39.68s-22.03,66.66-22.03,66.66ZM1591.44,209.35h197.36s17.9,54.17,17.9,54.17c-23.98-25.76-58.14-41.92-96.03-41.92h-41.11c-37.89,0-72.05,16.16-96.03,41.92l17.9-54.17ZM1522.64,276.71l-22.26-67.35h39.42v100.45c-4.15-11.9-9.96-23.03-17.16-33.1ZM1512.28,263.95c-24-26.01-58.34-42.34-96.43-42.34h-41.11c-38.09,0-72.44,16.33-96.43,42.34l18.04-54.6h197.89s18.04,54.6,18.04,54.6ZM1267.96,276.7c-7.2,10.07-13.02,21.2-17.16,33.1v-100.45h39.42s-22.26,67.35-22.26,67.35ZM1227.32,276.01l-22.03-66.66h39.68v100.45c-4.24-12.18-10.22-23.54-17.65-33.79ZM1217.05,263.53c-23.98-25.76-58.14-41.92-96.03-41.92h-41.11c-38.1,0-72.44,16.33-96.43,42.34l18.04-54.6h197.63s17.9,54.17,17.9,54.17ZM973.13,276.71c-7.2,10.07-13.01,21.19-17.16,33.1v-100.45h39.42s-22.26,67.35-22.26,67.35ZM932.49,276.01l-22.03-66.66h39.68v100.45c-4.24-12.18-10.22-23.54-17.65-33.79ZM922.22,263.53c-23.98-25.76-58.14-41.92-96.03-41.92h-41.11c-37.89,0-72.05,16.16-96.03,41.92l17.9-54.18h197.36s17.9,54.17,17.9,54.17ZM678.79,276.01c-7.43,10.25-13.41,21.62-17.65,33.79v-100.45h39.68s-22.03,66.66-22.03,66.66ZM638.15,276.7l-22.25-67.34h39.42v100.45c-4.15-11.91-9.96-23.03-17.17-33.11ZM627.8,263.95c-24-26.01-58.34-42.34-96.43-42.34h-41.11c-38.1,0-72.44,16.33-96.44,42.35l18.04-54.6h197.89s18.04,54.6,18.04,54.6ZM383.47,276.71c-7.2,10.07-13.01,21.19-17.16,33.1v-100.45h39.42s-22.26,67.35-22.26,67.35ZM342.82,276l-22.03-66.65h39.68v100.45c-4.24-12.18-10.22-23.54-17.66-33.8ZM332.57,263.53c-23.98-25.76-58.14-41.92-96.03-41.92h-41.11c-37.89,0-72.06,16.16-96.03,41.92l17.9-54.18h197.37s17.9,54.17,17.9,54.17ZM89.14,276.01c-7.43,10.25-13.41,21.62-17.65,33.79v-100.45h39.68s-22.03,66.66-22.03,66.66ZM48.49,276.7l-22.25-67.34h39.42v100.45c-4.15-11.91-9.96-23.03-17.16-33.11ZM38.14,263.95c-24-26.01-58.34-42.34-96.43-42.34h-41.11c-37.89,0-72.05,16.16-96.03,41.92l17.9-54.18H20.1s18.04,54.6,18.04,54.6ZM-205.69,276.01c-7.43,10.26-13.42,21.62-17.66,33.8v-100.45h39.68s-22.03,66.65-22.03,66.65ZM1834.63,209.35v100.45c-4.24-12.18-10.22-23.54-17.65-33.79l-22.03-66.66h39.68ZM1547.08,352.84c0-3.63.19-7.21.5-10.75l17.59-53.23c21.57-35.07,60.29-58.5,104.4-58.5h41.11c44.1,0,82.83,23.44,104.4,58.5l17.59,53.23c.31,3.55.5,7.13.5,10.75v85.3h-286.09v-85.3ZM1252.25,352.84c0-3.98.21-7.91.58-11.79l16.94-51.26c21.45-35.58,60.48-59.44,104.97-59.44h41.11c44.5,0,83.52,23.86,104.97,59.44l16.94,51.25c.37,3.88.58,7.81.58,11.79v85.3h-286.09v-85.3ZM957.42,352.84c0-3.98.21-7.91.58-11.79l16.94-51.25c21.45-35.59,60.48-59.44,104.97-59.44h41.11c44.1,0,82.83,23.44,104.4,58.51l17.59,53.22c.31,3.55.5,7.13.5,10.76v85.3h-286.09v-85.3ZM662.6,352.84c0-3.63.19-7.21.5-10.76l17.59-53.21c21.57-35.07,60.3-58.51,104.4-58.51h41.11c44.1,0,82.83,23.44,104.4,58.5l17.59,53.23c.31,3.55.5,7.13.5,10.75v85.3h-286.09v-85.3ZM367.77,352.84c0-3.98.21-7.92.58-11.81l16.93-51.23c21.45-35.59,60.48-59.46,104.98-59.46h41.11c44.5,0,83.52,23.86,104.97,59.44l16.94,51.25c.37,3.88.58,7.81.58,11.79v85.3h-286.09v-85.3ZM72.94,352.84c0-3.63.19-7.21.5-10.76l17.58-53.21c21.57-35.07,60.3-58.51,104.4-58.51h41.11c44.1,0,82.83,23.44,104.4,58.5l17.59,53.23c.31,3.55.5,7.13.5,10.75v85.3H72.94v-85.3ZM-221.89,352.84c0-3.63.19-7.21.5-10.75l17.59-53.23c21.57-35.07,60.3-58.51,104.4-58.51h41.11c44.5,0,83.52,23.86,104.97,59.44l16.94,51.25c.37,3.88.58,7.81.58,11.79v85.3H-221.89v-85.3ZM-516.72,352.84c0-67.54,54.95-122.49,122.49-122.49h41.11c44.5,0,83.53,23.86,104.98,59.46l16.93,51.23c.37,3.89.58,7.82.58,11.81v85.3h-286.09v-85.3Z"/>
    <g class="cls-154">
      <g>
        <rect class="cls-25" x="370.97" y="176.6" width="64.75" height="1.44"/>
        <rect class="cls-25" x="307.18" y="176.6" width="64.75" height="1.44"/>
        <g>
          <path class="cls-142" d="M348.91,103.43v-11.72h-27.34v11.72c-.96,0-1.19.49-1.19,1.1s.44.92,1.05.92,1.05-.31,1.05-1.27h.08c0,.96.49,1.1,1.1,1.1s1.1-.14,1.1-1.1h.08c0,.96.49,1.1,1.1,1.1s1.1-.14,1.1-1.1h.08c0,.96.49,1.1,1.1,1.1s1.1-.14,1.1-1.1h.08c0,.96.49,1.1,1.1,1.1s1.1-.14,1.1-1.1h.08c0,.96.49,1.1,1.1,1.1s1.1-.14,1.1-1.1h.08c0,.96.49,1.1,1.1,1.1s1.1-.14,1.1-1.1h.08c0,.96.49,1.1,1.1,1.1s1.1-.14,1.1-1.1h.08c0,.96.49,1.1,1.1,1.1s1.1-.14,1.1-1.1h.08c0,.96.49,1.1,1.1,1.1s1.1-.14,1.1-1.1h.08c0,.96.49,1.1,1.1,1.1s1.1-.14,1.1-1.1h.08c0,.96.49,1.1,1.1,1.1s1.1-.14,1.1-1.1h.08c0,.96.49,1.27,1.1,1.27s1.18-.4,1.18-1.01-.54-1.01-1.02-1.01Z"/>
          <g>
            <rect class="cls-136" x="323.01" y="92.67" width="25.9" height="43.17"/>
            <rect class="cls-17" x="342.67" y="92.67" width="3.84" height="43.17"/>
            <rect class="cls-17" x="339.79" y="92.67" width="3.84" height="43.17"/>
          </g>
          <path class="cls-27" d="M319.17,103.43v-11.72h-27.34v11.72c-.48,0-1.03.49-1.03,1.1s.53.92,1.13.92,1.13-.31,1.13-1.27h.08c0,.96.49,1.1,1.1,1.1s1.1-.14,1.1-1.1h.08c0,.96.49,1.1,1.1,1.1s1.1-.14,1.1-1.1h.08c0,.96.49,1.1,1.1,1.1s1.1-.14,1.1-1.1h.08c0,.96.49,1.1,1.1,1.1s1.1-.14,1.1-1.1h.08c0,.96.49,1.1,1.1,1.1s1.1-.14,1.1-1.1h.08c0,.96.49,1.1,1.1,1.1s1.1-.14,1.1-1.1h.08c0,.96.49,1.1,1.1,1.1s1.1-.14,1.1-1.1h.08c0,.96.49,1.1,1.1,1.1s1.1-.14,1.1-1.1h.08c0,.96.49,1.1,1.1,1.1s1.1-.14,1.1-1.1h.08c0,.96.49,1.1,1.1,1.1s1.1-.14,1.1-1.1h.08c0,.96.49,1.1,1.1,1.1s1.1-.14,1.1-1.1h.08c0,.96.49,1.27,1.1,1.27s1.01-.4,1.01-1.01-.23-1.01-1.19-1.01Z"/>
          <rect class="cls-71" x="293.27" y="92.67" width="25.9" height="43.17"/>
          <rect class="cls-17" x="313.41" y="92.67" width="3.84" height="43.17"/>
          <rect class="cls-17" x="310.06" y="92.67" width="4.32" height="43.17"/>
        </g>
        <path class="cls-112" d="M384.88,103.43v-11.72h-27.34v11.72c-.96,0-1.18.49-1.18,1.1s.45.92,1.06.92,1.06-.31,1.06-1.27h.08c0,.96.49,1.1,1.1,1.1s1.1-.14,1.1-1.1h.08c0,.96.49,1.1,1.1,1.1s1.1-.14,1.1-1.1h.08c0,.96.49,1.1,1.1,1.1s1.1-.14,1.1-1.1h.08c0,.96.49,1.1,1.1,1.1s1.1-.14,1.1-1.1h.08c0,.96.49,1.1,1.1,1.1s1.1-.14,1.1-1.1h.08c0,.96.49,1.1,1.1,1.1s1.1-.14,1.1-1.1h.08c0,.96.49,1.1,1.1,1.1s1.1-.14,1.1-1.1h.08c0,.96.49,1.1,1.1,1.1s1.1-.14,1.1-1.1h.08c0,.96.49,1.1,1.1,1.1s1.1-.14,1.1-1.1h.08c0,.96.49,1.1,1.1,1.1s1.1-.14,1.1-1.1h.08c0,.96.49,1.1,1.1,1.1s1.1-.14,1.1-1.1h.08c0,.96.49,1.27,1.1,1.27s1.17-.4,1.17-1.01-.55-1.01-1.03-1.01Z"/>
        <g>
          <rect class="cls-148" x="360.9" y="92.67" width="25.9" height="43.17"/>
          <rect class="cls-17" x="379.12" y="92.67" width="4.32" height="43.17"/>
          <rect class="cls-17" x="376.25" y="92.67" width="3.84" height="43.17"/>
        </g>
        <path class="cls-16" d="M414.62,103.43v-11.72h-27.34v11.72c-.48,0-1.1.49-1.1,1.1s.49.92,1.1.92,1.1-.31,1.1-1.27h.08c0,.96.49,1.1,1.1,1.1s1.1-.14,1.1-1.1h.08c0,.96.49,1.1,1.1,1.1s1.1-.14,1.1-1.1h.08c0,.96.49,1.1,1.1,1.1s1.1-.14,1.1-1.1h.08c0,.96.49,1.1,1.1,1.1s1.1-.14,1.1-1.1h.08c0,.96.49,1.1,1.1,1.1s1.1-.14,1.1-1.1h.08c0,.96.49,1.1,1.1,1.1s1.1-.14,1.1-1.1h.08c0,.96.49,1.1,1.1,1.1s1.1-.14,1.1-1.1h.08c0,.96.49,1.1,1.1,1.1s1.1-.14,1.1-1.1h.08c0,.96.49,1.1,1.1,1.1s1.1-.14,1.1-1.1h.08c0,.96.49,1.1,1.1,1.1s1.1-.14,1.1-1.1h.08c0,.96.49,1.1,1.1,1.1s1.1-.14,1.1-1.1h.08c0,.96.49,1.27,1.1,1.27s1.08-.4,1.08-1.01-.64-1.01-1.12-1.01Z"/>
        <g>
          <rect class="cls-66" x="388.72" y="92.67" width="25.9" height="43.17"/>
          <path class="cls-121" d="M413.18,130.48c0,3.22-2.61,5.83-5.83,5.83h-11.36c-3.22,0-5.83-2.61-5.83-5.83v-31.03c0-3.22,2.61-5.83,5.83-5.83h11.36c3.22,0,5.83,2.61,5.83,5.83v31.03ZM411.74,99.37c0-2.38-1.93-4.31-4.31-4.31h-11.05c-2.38,0-4.31,1.93-4.31,4.31v30.71c0,2.38,1.93,4.31,4.31,4.31h11.05c2.38,0,4.31-1.93,4.31-4.31v-30.71Z"/>
        </g>
        <path class="cls-84" d="M354.18,86.43v69.55h95.93v-69.55h-95.93ZM382.96,130.28c0,2.8-2.27,5.07-5.07,5.07h-10.97c-2.8,0-5.07-2.27-5.07-5.07v-31.11c0-2.8,2.27-5.07,5.07-5.07h10.97c2.8,0,5.07,2.27,5.07,5.07v31.11ZM412.22,130.28c0,2.8-2.27,5.07-5.07,5.07h-10.97c-2.8,0-5.07-2.27-5.07-5.07v-31.11c0-2.8,2.27-5.07,5.07-5.07h10.97c2.8,0,5.07,2.27,5.07,5.07v31.11ZM441.96,130.28c0,2.8-2.27,5.07-5.07,5.07h-10.97c-2.8,0-5.07-2.27-5.07-5.07v-31.11c0-2.8,2.27-5.07,5.07-5.07h10.97c2.8,0,5.07,2.27,5.07,5.07v31.11Z"/>
        <path class="cls-21" d="M354.18,86.43v69.55h95.93v-69.55h-95.93ZM382.96,130.28c0,2.8-2.27,5.07-5.07,5.07h-10.97c-2.8,0-5.07-2.27-5.07-5.07v-31.11c0-2.8,2.27-5.07,5.07-5.07h10.97c2.8,0,5.07,2.27,5.07,5.07v31.11ZM412.22,130.28c0,2.8-2.27,5.07-5.07,5.07h-10.97c-2.8,0-5.07-2.27-5.07-5.07v-31.11c0-2.8,2.27-5.07,5.07-5.07h10.97c2.8,0,5.07,2.27,5.07,5.07v31.11ZM441.96,130.28c0,2.8-2.27,5.07-5.07,5.07h-10.97c-2.8,0-5.07-2.27-5.07-5.07v-31.11c0-2.8,2.27-5.07,5.07-5.07h10.97c2.8,0,5.07,2.27,5.07,5.07v31.11Z"/>
        <path class="cls-21" d="M258.74,86.43v69.55h95.45v-69.55h-95.45ZM287.04,130.28c0,2.8-2.27,5.07-5.07,5.07h-10.97c-2.8,0-5.07-2.27-5.07-5.07v-31.11c0-2.8,2.27-5.07,5.07-5.07h10.97c2.8,0,5.07,2.27,5.07,5.07v31.11ZM316.77,130.28c0,2.8-2.27,5.07-5.07,5.07h-10.97c-2.8,0-5.07-2.27-5.07-5.07v-31.11c0-2.8,2.27-5.07,5.07-5.07h10.97c2.8,0,5.07,2.27,5.07,5.07v31.11ZM346.03,130.28c0,2.8-2.27,5.07-5.07,5.07h-10.97c-2.8,0-5.07-2.27-5.07-5.07v-31.11c0-2.8,2.27-5.07,5.07-5.07h10.97c2.8,0,5.07,2.27,5.07,5.07v31.11Z"/>
        <rect class="cls-138" x="288.47" y="154.06" width="167.39" height="20.62"/>
        <rect class="cls-146" x="287.99" y="90.27" width="166.91" height="1.44"/>
        <rect class="cls-2" x="287.99" y="87.39" width="166.91" height="3.36"/>
        <g>
          <rect class="cls-41" x="390.16" y="144.47" width=".96" height="11.51"/>
          <rect class="cls-122" x="385.84" y="144.47" width=".96" height="11.51"/>
          <rect class="cls-35" x="381.04" y="144.47" width=".96" height="11.51"/>
          <rect class="cls-141" x="376.73" y="144.47" width=".96" height="11.51"/>
          <rect class="cls-152" x="371.93" y="144.47" width=".96" height="11.51"/>
          <rect class="cls-20" x="367.61" y="144.47" width=".96" height="11.51"/>
          <rect class="cls-83" x="362.82" y="144.47" width=".96" height="11.51"/>
          <rect class="cls-139" x="358.5" y="144.47" width=".96" height="11.51"/>
          <rect class="cls-151" x="353.7" y="144.47" width=".96" height="11.51"/>
          <rect class="cls-149" x="349.39" y="144.47" width=".96" height="11.51"/>
          <rect class="cls-34" x="349.39" y="144.47" width="105.52" height=".96"/>
        </g>
        <g>
          <rect class="cls-93" x="317.25" y="144.47" width=".96" height="11.51"/>
          <rect class="cls-95" x="312.94" y="144.47" width=".96" height="11.51"/>
          <rect class="cls-119" x="308.14" y="144.47" width=".96" height="11.51"/>
          <rect class="cls-98" x="303.82" y="144.47" width=".96" height="11.51"/>
          <rect class="cls-140" x="299.03" y="144.47" width=".96" height="11.51"/>
          <rect class="cls-134" x="340.27" y="144.47" width=".96" height="11.51"/>
          <rect class="cls-6" x="335.48" y="144.47" width=".96" height="11.51"/>
          <rect class="cls-49" x="349.39" y="144.47" width=".96" height="11.51"/>
          <rect class="cls-97" x="344.59" y="144.47" width=".96" height="11.51"/>
          <rect class="cls-36" x="331.16" y="144.47" width=".96" height="11.51"/>
          <rect class="cls-11" x="326.36" y="144.47" width=".96" height="11.51"/>
          <rect class="cls-77" x="322.05" y="144.47" width=".96" height="11.51"/>
          <rect class="cls-87" x="295.19" y="144.47" width=".96" height="11.51"/>
          <rect class="cls-28" x="290.39" y="144.47" width=".96" height="11.51"/>
          <rect class="cls-47" x="286.08" y="144.47" width=".96" height="11.51"/>
          <rect class="cls-120" x="281.28" y="144.47" width=".96" height="11.51"/>
          <rect class="cls-13" x="276.96" y="144.47" width=".96" height="11.51"/>
          <rect class="cls-131" x="272.17" y="144.47" width=".96" height="11.51"/>
          <rect class="cls-92" x="267.85" y="144.47" width=".96" height="11.51"/>
          <rect class="cls-33" x="263.05" y="144.47" width=".96" height="11.51"/>
          <rect class="cls-143" x="258.74" y="144.47" width=".96" height="11.51"/>
          <rect class="cls-40" x="253.94" y="144.47" width=".96" height="11.51"/>
          <rect class="cls-26" x="249.62" y="144.47" width=".96" height="11.51"/>
          <rect class="cls-94" x="244.83" y="144.47" width=".96" height="11.51"/>
          <rect class="cls-32" x="244.83" y="144.47" width="105.52" height=".96"/>
        </g>
        <g>
          <g>
            <rect class="cls-50" x="301.45" y="170.5" width="14.7" height=".51" transform="translate(98.12 453.82) rotate(-82.28)"/>
            <rect class="cls-50" x="304.76" y="163.76" width=".51" height="14.7" transform="translate(-42.25 129.66) rotate(-22.49)"/>
            <polygon class="cls-50" points="307.88 177.6 307.57 178.01 295.96 169.03 296.27 168.63 307.88 177.6"/>
            <rect class="cls-50" x="300.09" y="169.45" width=".51" height="14.66" transform="translate(85.16 450.92) rotate(-82.35)"/>
            <polygon class="cls-50" points="307.38 177.54 307.57 178.01 294.01 183.6 293.82 183.13 307.38 177.54"/>
            <polygon class="cls-50" points="307.17 177.7 307.57 178.01 298.62 189.65 298.22 189.34 307.17 177.7"/>
            <rect class="cls-50" x="299" y="185.01" width="14.7" height=".51" transform="translate(81.88 464.16) rotate(-82.33)"/>
            <rect class="cls-50" x="309.88" y="177.55" width=".51" height="14.7" transform="translate(-47.14 132.7) rotate(-22.49)"/>
            <polygon class="cls-50" points="307.27 178.41 307.57 178.01 319.19 186.98 318.88 187.38 307.27 178.41"/>
            <rect class="cls-50" x="314.55" y="171.9" width=".51" height="14.67" transform="translate(95.43 467.51) rotate(-82.38)"/>
            <rect class="cls-50" x="307.11" y="175.19" width="14.67" height=".51" transform="translate(-43.11 132.88) rotate(-22.37)"/>
            <rect class="cls-50" x="304.91" y="172.09" width="14.69" height=".51" transform="translate(-14.75 314.71) rotate(-52.42)"/>
          </g>
          <g>
            <polygon class="cls-2" points="308.08 178.06 307.57 178.01 309.14 163.39 309.64 163.44 308.08 178.06"/>
            <polygon class="cls-2" points="308.04 177.8 307.57 178.01 301.64 164.56 302.1 164.36 308.04 177.8"/>
            <polygon class="cls-2" points="307.87 177.6 307.57 178.01 295.73 169.34 296.03 168.93 307.87 177.6"/>
            <rect class="cls-2" x="300.06" y="169.64" width=".51" height="14.66" transform="translate(92.3 456.67) rotate(-83.87)"/>
            <polygon class="cls-2" points="307.37 177.54 307.57 178.01 294.16 183.95 293.96 183.49 307.37 177.54"/>
            <polygon class="cls-2" points="307.16 177.71 307.57 178.01 298.92 189.88 298.52 189.58 307.16 177.71"/>
            <rect class="cls-2" x="299.19" y="185.03" width="14.7" height=".51" transform="translate(89.38 470.14) rotate(-83.83)"/>
            <polygon class="cls-2" points="307.11 178.21 307.57 178.01 313.5 191.45 313.04 191.66 307.11 178.21"/>
            <polygon class="cls-2" points="307.28 178.41 307.57 178.01 319.42 186.68 319.12 187.09 307.28 178.41"/>
            <rect class="cls-2" x="314.58" y="171.71" width=".51" height="14.66" transform="translate(103.35 473.07) rotate(-83.9)"/>
            <rect class="cls-2" x="307.05" y="175.01" width="14.67" height=".51" transform="translate(-44.03 142.2) rotate(-23.87)"/>
            <polygon class="cls-2" points="307.98 178.3 307.57 178.01 316.22 166.13 316.63 166.43 307.98 178.3"/>
          </g>
          <path class="cls-25" d="M309.61,160.98c-9-.97-17.08,5.56-18.05,14.58-.97,9.02,5.54,17.13,14.54,18.1,9,.97,17.08-5.56,18.05-14.58.97-9.02-5.54-17.13-14.54-18.1ZM306.23,192.48c-8.35-.9-14.4-8.42-13.5-16.79.9-8.37,8.4-14.43,16.75-13.53,8.35.9,14.4,8.42,13.5,16.79-.9,8.37-8.4,14.43-16.75,13.53Z"/>
          <path class="cls-2" d="M309.49,162.15c-8.35-.9-15.85,5.16-16.75,13.53-.9,8.37,5.14,15.89,13.5,16.79,8.35.9,15.85-5.16,16.75-13.53.9-8.37-5.15-15.89-13.5-16.79ZM306.31,191.72c-7.94-.86-13.68-8-12.82-15.96.85-7.96,7.98-13.71,15.92-12.86,7.94.86,13.68,8,12.82,15.96-.85,7.96-7.98,13.71-15.92,12.86Z"/>
          <path class="cls-128" d="M309.41,162.91c-7.94-.86-15.06,4.9-15.92,12.86-.85,7.96,4.89,15.1,12.82,15.96,7.94.86,15.06-4.9,15.92-12.86.85-7.96-4.89-15.1-12.82-15.96ZM306.42,190.71c-7.38-.8-12.72-7.44-11.93-14.84.79-7.4,7.42-12.75,14.8-11.96,7.38.8,12.72,7.44,11.93,14.84-.79,7.4-7.42,12.75-14.8,11.96Z"/>
        </g>
        <g>
          <path class="cls-81" d="M310.14,177.31c0,1.52-1.23,2.75-2.75,2.75s-2.75-1.23-2.75-2.75,1.23-2.75,2.75-2.75,2.75,1.23,2.75,2.75Z"/>
          <path class="cls-103" d="M309.43,177.31c0,1.13-.91,2.04-2.04,2.04s-2.04-.91-2.04-2.04.91-2.04,2.04-2.04,2.04.91,2.04,2.04Z"/>
          <circle class="cls-2" cx="307.39" cy="177.31" r="1.18"/>
        </g>
        <path class="cls-127" d="M447.9,74.44h-156.39c-11.02,2.88-8.33,13.43-8.33,13.43h173.06s2.69-10.55-8.33-13.43Z"/>
        <path class="cls-2" d="M383.92,130.48c0,3.22-2.61,5.83-5.83,5.83h-11.36c-3.22,0-5.83-2.61-5.83-5.83v-31.03c0-3.22,2.61-5.83,5.83-5.83h11.36c3.22,0,5.83,2.61,5.83,5.83v31.03ZM382,99.37c0-2.38-1.93-4.31-4.31-4.31h-11.05c-2.38,0-4.31,1.93-4.31,4.31v30.71c0,2.38,1.93,4.31,4.31,4.31h11.05c2.38,0,4.31-1.93,4.31-4.31v-30.71Z"/>
        <path class="cls-2" d="M413.18,130.48c0,3.22-2.61,5.83-5.83,5.83h-11.36c-3.22,0-5.83-2.61-5.83-5.83v-31.03c0-3.22,2.61-5.83,5.83-5.83h11.36c3.22,0,5.83,2.61,5.83,5.83v31.03ZM411.74,99.37c0-2.38-1.93-4.31-4.31-4.31h-11.05c-2.38,0-4.31,1.93-4.31,4.31v30.71c0,2.38,1.93,4.31,4.31,4.31h11.05c2.38,0,4.31-1.93,4.31-4.31v-30.71Z"/>
        <path class="cls-2" d="M347.47,130.48c0,3.22-2.61,5.83-5.83,5.83h-11.36c-3.22,0-5.83-2.61-5.83-5.83v-31.03c0-3.22,2.61-5.83,5.83-5.83h11.36c3.22,0,5.83,2.61,5.83,5.83v31.03ZM345.55,99.37c0-2.38-1.93-4.31-4.31-4.31h-11.05c-2.38,0-4.31,1.93-4.31,4.31v30.71c0,2.38,1.93,4.31,4.31,4.31h11.05c2.38,0,4.31-1.93,4.31-4.31v-30.71Z"/>
        <path class="cls-2" d="M318.21,130.48c0,3.22-2.61,5.83-5.83,5.83h-11.36c-3.22,0-5.83-2.61-5.83-5.83v-31.03c0-3.22,2.61-5.83,5.83-5.83h11.36c3.22,0,5.83,2.61,5.83,5.83v31.03ZM316.29,99.37c0-2.38-1.93-4.31-4.31-4.31h-11.05c-2.38,0-4.31,1.93-4.31,4.31v30.71c0,2.38,1.93,4.31,4.31,4.31h11.05c2.38,0,4.31-1.93,4.31-4.31v-30.71Z"/>
        <g class="cls-153">
          <path class="cls-117" d="M576.04,29.43c-2.75-5.95-12.97-10.38-25.2-10.38s-22.64,4.51-25.28,10.54c-.61-.03-1.23-.05-1.86-.05-4.99,0-9.52,1.02-12.9,2.68-2.76-1.23-6.3-1.99-10.18-2.05-4.8-5.12-14.83-8.65-26.47-8.65-9.39,0-17.73,2.3-23.13,5.88-1.67-.21-3.39-.33-5.18-.33-8.1,0-15.17,2.26-19.11,5.63-5.79-4.15-15.14-6.86-25.71-6.86-8.38,0-15.98,1.7-21.66,4.47-3.16-1.25-7.09-2-11.37-2-10.42,0-18.87,4.42-18.87,9.88,0,.1.02.2.03.3-2.12-.58-4.54-1-7.11-1-3.14,0-10.53,1.61-10.53,4.23,0,3.8,12.21,5.2,18.25,1.94,0,0,18.41,6.04,39.24.04,0,0,16.96,7.54,39.24.02,0,0,10.66,4.74,19.86.01,0,0,17.44,5.75,35.85,0,0,0,15.02,5.24,28.1,0,0,0,13.08,3.97,20.35,0,0,0,16.96,7.01,29.07,0,0,0,28.29,6.25,37.64,0-1.01-6.95-10.5-12.65-23.07-14.31Z"/>
          <path class="cls-46" d="M598.68,42.09c-.04-.1-.08-.2-.11-.3-.18-.46-.39-.91-.64-1.35-9.18,1.8-17.97,2.6-24.68-.41-14.16-6.48-17.69-1.85-33.62-3.7-.91,0-2.28-.74-3.17-1.7-8.92,10.08-41.07,7.26-46.38-.15,0,3.7-14.47,7.37-17.76,7.69-15.99,1.58-33.83,2.91-46.22-4.5-11.27,8.26-36.87,3.28-45.72-1.35-1.77-1.85-12.39,0-17.69-1.85-3.78-.79-5.94-2.09-7.04-3.76-.03.01-.06.03-.1.05-.44.2-.86.41-1.26.63-.12.06-.23.13-.34.2-.3.17-.58.35-.86.53-.14.09-.28.19-.41.29-.21.15-.41.31-.61.47-.16.13-.32.27-.47.4-.11.1-.23.2-.33.31-.2.2-.38.4-.55.6-.07.08-.13.16-.2.23-.18.23-.35.47-.5.72-.04.06-.08.13-.11.19-.15.26-.28.53-.39.8-.02.04-.03.09-.05.14-.11.29-.2.58-.26.88,0,.02,0,.04-.01.06-.06.32-.09.64-.09.97,0,.05,0,.09.01.14,0,.05.01.14.02.14h.23v.02s-.18-.02-.22-.03c-2.1-.57-4.54-.89-7.07-.89-.74,0-1.49.03-2.2.09-3.51.48-8.37,1.94-8.37,4.06,0,3.8,12.2,5.2,18.24,1.94,0,0,18.41,6.04,39.24.04,0,0,16.95,7.54,39.24.02,0,0,10.66,4.74,19.86.01,0,0,17.44,5.75,35.85,0,0,0,15.02,5.24,28.1,0,0,0,13.08,3.97,20.35,0,0,0,16.96,7.01,29.07,0,0,0,28.29,6.25,37.64,0-.05-.35-.14-.7-.24-1.05-.06-.2-.12-.4-.19-.6Z"/>
        </g>
        <g>
          <g>
            <rect class="cls-50" x="365.32" y="170.5" width="14.7" height=".51" transform="translate(153.4 517.11) rotate(-82.28)"/>
            <rect class="cls-50" x="368.64" y="163.76" width=".51" height="14.7" transform="translate(-37.4 154.15) rotate(-22.49)"/>
            <polygon class="cls-50" points="371.76 177.6 371.45 178.01 359.83 169.03 360.14 168.63 371.76 177.6"/>
            <rect class="cls-50" x="363.96" y="169.45" width=".51" height="14.66" transform="translate(140.65 514.31) rotate(-82.37)"/>
            <polygon class="cls-50" points="371.26 177.54 371.45 178.01 357.89 183.6 357.69 183.13 371.26 177.54"/>
            <polygon class="cls-50" points="371.05 177.7 371.45 178.01 362.49 189.65 362.09 189.34 371.05 177.7"/>
            <rect class="cls-50" x="362.87" y="185.01" width="14.7" height=".51" transform="translate(137.26 527.48) rotate(-82.34)"/>
            <rect class="cls-50" x="373.75" y="177.55" width=".51" height="14.7" transform="translate(-42.28 157.06) rotate(-22.48)"/>
            <polygon class="cls-50" points="371.14 178.41 371.45 178.01 383.06 186.98 382.75 187.38 371.14 178.41"/>
            <rect class="cls-50" x="378.43" y="171.9" width=".51" height="14.67" transform="translate(150.68 530.71) rotate(-82.36)"/>
            <polygon class="cls-50" points="371.64 178.47 371.45 178.01 385.01 172.41 385.2 172.88 371.64 178.47"/>
            <rect class="cls-50" x="368.78" y="172.09" width="14.69" height=".51" transform="translate(10.17 365.33) rotate(-52.42)"/>
          </g>
          <g>
            <polygon class="cls-2" points="371.95 178.06 371.45 178.01 373.02 163.39 373.52 163.44 371.95 178.06"/>
            <polygon class="cls-2" points="371.91 177.8 371.45 178.01 365.52 164.56 365.98 164.36 371.91 177.8"/>
            <polygon class="cls-2" points="371.75 177.6 371.45 178.01 359.61 169.34 359.9 168.93 371.75 177.6"/>
            <rect class="cls-2" x="363.93" y="169.64" width=".51" height="14.66" transform="translate(149.52 520.28) rotate(-83.9)"/>
            <polygon class="cls-2" points="371.24 177.54 371.45 178.01 358.04 183.95 357.83 183.49 371.24 177.54"/>
            <polygon class="cls-2" points="371.04 177.71 371.45 178.01 362.8 189.88 362.39 189.58 371.04 177.71"/>
            <rect class="cls-2" x="363.06" y="185.03" width="14.7" height=".51" transform="translate(146.41 533.66) rotate(-83.83)"/>
            <polygon class="cls-2" points="370.99 178.21 371.45 178.01 377.38 191.45 376.92 191.66 370.99 178.21"/>
            <polygon class="cls-2" points="371.15 178.41 371.45 178.01 383.29 186.68 382.99 187.09 371.15 178.41"/>
            <rect class="cls-2" x="378.46" y="171.71" width=".51" height="14.66" transform="translate(160.26 536.48) rotate(-83.87)"/>
            <polygon class="cls-2" points="371.65 178.47 371.45 178.01 384.86 172.06 385.06 172.52 371.65 178.47"/>
            <polygon class="cls-2" points="371.86 178.3 371.45 178.01 380.1 166.13 380.5 166.43 371.86 178.3"/>
          </g>
          <path class="cls-25" d="M373.49,160.98c-9-.97-17.08,5.56-18.05,14.58-.97,9.02,5.54,17.13,14.54,18.1,9,.97,17.08-5.56,18.05-14.58.97-9.02-5.54-17.13-14.54-18.1ZM370.11,192.48c-8.35-.9-14.4-8.42-13.5-16.79.9-8.37,8.4-14.43,16.75-13.53,8.35.9,14.4,8.42,13.5,16.79-.9,8.37-8.4,14.43-16.75,13.53Z"/>
          <path class="cls-22" d="M373.36,162.15c-8.35-.9-15.85,5.16-16.75,13.53-.9,8.37,5.14,15.89,13.5,16.79,8.35.9,15.85-5.16,16.75-13.53.9-8.37-5.15-15.89-13.5-16.79ZM370.19,191.72c-7.94-.86-13.68-8-12.82-15.96.85-7.96,7.98-13.71,15.92-12.86,7.94.86,13.68,8,12.82,15.96-.85,7.96-7.98,13.71-15.92,12.86Z"/>
          <path class="cls-135" d="M373.28,162.91c-7.94-.86-15.06,4.9-15.92,12.86-.85,7.96,4.89,15.1,12.82,15.96,7.94.86,15.06-4.9,15.92-12.86.85-7.96-4.89-15.1-12.82-15.96ZM370.3,190.71c-7.38-.8-12.72-7.44-11.93-14.84.79-7.4,7.42-12.75,14.8-11.96,7.38.8,12.72,7.44,11.93,14.84-.79,7.4-7.42,12.75-14.8,11.96Z"/>
        </g>
        <g>
          <path class="cls-106" d="M374.01,177.31c0,1.52-1.23,2.75-2.75,2.75s-2.75-1.23-2.75-2.75,1.23-2.75,2.75-2.75,2.75,1.23,2.75,2.75Z"/>
          <path class="cls-103" d="M373.31,177.31c0,1.13-.91,2.04-2.04,2.04s-2.04-.91-2.04-2.04.91-2.04,2.04-2.04,2.04.91,2.04,2.04Z"/>
          <path class="cls-2" d="M372.45,177.31c0,.65-.53,1.18-1.18,1.18s-1.18-.53-1.18-1.18.53-1.18,1.18-1.18,1.18.53,1.18,1.18Z"/>
        </g>
      </g>
    </g>
  </g>
  <rect class="cls-12" x="390" y="107.52" width="390" height="216.55"/>
  <rect class="cls-12" x="390" y="107.52" width="390" height="216.55"/>
</svg>