<?xml version="1.0" encoding="UTF-8"?>
<svg id="OBJECTS" xmlns="http://www.w3.org/2000/svg" xmlns:xlink="http://www.w3.org/1999/xlink" viewBox="0 0 390 216.55">
  <defs>
    <style>
      .cls-1 {
        fill: #626129;
      }

      .cls-1, .cls-2, .cls-3, .cls-4, .cls-5, .cls-6, .cls-7, .cls-8, .cls-9, .cls-10 {
        stroke-width: 0px;
      }

      .cls-2 {
        fill: #7b3e19;
      }

      .cls-3 {
        fill: #000;
      }

      .cls-4 {
        fill: #879b5f;
      }

      .cls-5 {
        fill: none;
      }

      .cls-6 {
        fill: #774639;
      }

      .cls-7 {
        fill: #a45221;
      }

      .cls-11 {
        clip-path: url(#clippath);
      }

      .cls-8 {
        fill: #f0f1dd;
      }

      .cls-9 {
        fill: #c2a131;
      }

      .cls-10 {
        fill: #043f22;
      }
    </style>
    <clipPath id="clippath">
      <rect class="cls-5" width="390" height="216.55"/>
    </clipPath>
  </defs>
  <rect class="cls-3" x="-390" width="390" height="216.55"/>
  <g class="cls-11">
    <g>
      <path class="cls-1" d="M156.9,73.26S-20.45,6.39-323.35,47.03v72.12s253.07-27.54,253.07-27.54l227.17-18.36Z"/>
      <path class="cls-9" d="M471.67,57.01s-51.04-36.46-113.02,0l48.61,30.38,64.41-30.38Z"/>
      <g>
        <path class="cls-4" d="M425.87,68.12s-70.27-35.55-205.78-21.51C84.58,60.66-86.83,92.87-112.93,94.08l-9.09,12.02v53.6s539.36-28.56,544.05-30.99c4.68-2.43,3.85-60.6,3.85-60.6Z"/>
        <g>
          <g>
            <rect class="cls-7" x="294.14" y="81.56" width="35.94" height="31.36" transform="translate(624.23 194.48) rotate(-180)"/>
            <rect class="cls-2" x="262.78" y="94.69" width="31.36" height="15.5" transform="translate(556.93 204.87) rotate(-180)"/>
          </g>
          <g>
            <path class="cls-10" d="M333.16,49.27s13.96,56.84,0,56.84c-13.96,0,0-56.84,0-56.84Z"/>
            <path class="cls-10" d="M345.95,57.01s12.06,49.09,0,49.09,0-49.09,0-49.09Z"/>
            <path class="cls-10" d="M357.43,62.91s10.61,43.19,0,43.19c-10.61,0,0-43.19,0-43.19Z"/>
          </g>
        </g>
        <path class="cls-1" d="M887.32,73.42s-54.69-12.36-150.71-32.61c-96.01-20.26-199.32-22.48-296.54,16.31-97.23,38.79-147.06,64.31-209.04,65.53h670.87s-14.58-49.22-14.58-49.22Z"/>
        <path class="cls-8" d="M50.39,137.1s-233.91-64.36-372.64-34.94l-86.83,27.07,310.47,42.97,149.01-35.1Z"/>
        <g>
          <g>
            <rect class="cls-2" x="137.45" y="97.24" width="23.9" height="15.68" transform="translate(298.81 210.16) rotate(-180)"/>
            <rect class="cls-7" x="95.8" y="84.51" width="41.66" height="29.32" transform="translate(233.25 198.34) rotate(-180)"/>
          </g>
          <g>
            <path class="cls-10" d="M92.55,51.06s16.72,68.09,0,68.09c-16.72,0,0-68.09,0-68.09Z"/>
            <path class="cls-10" d="M77.35,65.97s14,56.98,0,56.98c-14,0,0-56.98,0-56.98Z"/>
            <path class="cls-10" d="M63.82,76.05s12.47,50.77,0,50.77,0-50.77,0-50.77Z"/>
          </g>
        </g>
      </g>
      <path class="cls-10" d="M855.88,163.96S417.58,95.2,224.03,105.28C30.49,115.35-293.61,236.99-293.61,236.99l187.03,16.91,975.26-41.32-12.8-48.61Z"/>
      <path class="cls-4" d="M844.38,113.83s-164.7-36.09-319.23-32.27c-154.53,3.81-375.74,121.3-375.74,121.3h698.22s-3.24-89.02-3.24-89.02Z"/>
    </g>
    <path class="cls-6" d="M-1695.46,245.31v94.04s294.83,0,294.83,0h8.74s286.09,0,286.09,0h8.74s286.09,0,286.09,0h8.74s286.09,0,286.09,0h8.74s286.09,0,286.09,0h8.74s286.09,0,286.09,0h8.74s286.09,0,286.09,0h8.74s294.83,0,294.83,0v-94.04c0-3.03-.14-6.02-.34-9l46.07-139.4-5.53-1.83-41.64,126.02v-119.28h13.41s0-11.65,0-11.65H-1670.37s0,11.65,0,11.65h225.64s18.04,54.6,18.04,54.6c-24-26.02-58.34-42.35-96.44-42.35h-41.11c-72.36,0-131.23,58.87-131.23,131.23ZM-1438.59,101.83h39.42v100.45c-4.15-11.9-9.96-23.03-17.16-33.1l-22.26-67.35ZM393.28,168.49c-7.43,10.25-13.41,21.62-17.65,33.79v-100.45h39.68s-22.03,66.66-22.03,66.66ZM421.44,101.83h197.36s17.9,54.17,17.9,54.17c-23.98-25.76-58.14-41.92-96.03-41.92h-41.11c-37.89,0-72.05,16.16-96.03,41.92l17.9-54.17ZM352.64,169.18l-22.26-67.35h39.42v100.45c-4.15-11.9-9.96-23.03-17.16-33.1ZM342.28,156.43c-24-26.01-58.34-42.34-96.43-42.34h-41.11c-38.09,0-72.44,16.33-96.43,42.34l18.04-54.6h197.89s18.04,54.6,18.04,54.6ZM97.96,169.18c-7.2,10.07-13.02,21.2-17.16,33.1v-100.45h39.42s-22.26,67.35-22.26,67.35ZM57.32,168.49l-22.03-66.66h39.68v100.45c-4.24-12.18-10.22-23.54-17.65-33.79ZM47.05,156c-23.98-25.76-58.14-41.92-96.03-41.92h-41.11c-38.1,0-72.44,16.33-96.43,42.34l18.04-54.6H29.15s17.9,54.17,17.9,54.17ZM-196.87,169.18c-7.2,10.07-13.01,21.19-17.16,33.1v-100.45h39.42s-22.26,67.35-22.26,67.35ZM-237.51,168.49l-22.03-66.66h39.68v100.45c-4.24-12.18-10.22-23.54-17.65-33.79ZM-247.78,156c-23.98-25.76-58.14-41.92-96.03-41.92h-41.11c-37.89,0-72.05,16.16-96.03,41.92l17.9-54.18h197.36s17.9,54.17,17.9,54.17ZM-491.21,168.49c-7.43,10.25-13.41,21.62-17.65,33.79v-100.45h39.68s-22.03,66.66-22.03,66.66ZM-531.85,169.17l-22.25-67.34h39.42v100.45c-4.15-11.91-9.96-23.03-17.17-33.11ZM-542.2,156.43c-24-26.01-58.34-42.34-96.43-42.34h-41.11c-38.1,0-72.44,16.33-96.44,42.35l18.04-54.6h197.89s18.04,54.6,18.04,54.6ZM-786.53,169.18c-7.2,10.07-13.01,21.19-17.16,33.1v-100.45h39.42s-22.26,67.35-22.26,67.35ZM-827.18,168.48l-22.03-66.65h39.68v100.45c-4.24-12.18-10.22-23.54-17.66-33.8ZM-837.43,156c-23.98-25.76-58.14-41.92-96.03-41.92h-41.11c-37.89,0-72.06,16.16-96.03,41.92l17.9-54.18h197.37s17.9,54.17,17.9,54.17ZM-1080.86,168.49c-7.43,10.25-13.41,21.62-17.65,33.79v-100.45h39.68s-22.03,66.66-22.03,66.66ZM-1121.51,169.17l-22.25-67.34h39.42v100.45c-4.15-11.91-9.96-23.03-17.16-33.11ZM-1131.86,156.43c-24-26.01-58.34-42.34-96.43-42.34h-41.11c-37.89,0-72.05,16.16-96.03,41.92l17.9-54.18h197.63s18.04,54.6,18.04,54.6ZM-1375.69,168.48c-7.43,10.26-13.42,21.62-17.66,33.8v-100.45h39.68s-22.03,66.65-22.03,66.65ZM664.63,101.83v100.45c-4.24-12.18-10.22-23.54-17.65-33.79l-22.03-66.66h39.68ZM377.08,245.31c0-3.63.19-7.21.5-10.75l17.59-53.23c21.57-35.07,60.29-58.5,104.4-58.5h41.11c44.1,0,82.83,23.44,104.4,58.5l17.59,53.23c.31,3.55.5,7.13.5,10.75v85.3h-286.09v-85.3ZM82.25,245.31c0-3.98.21-7.91.58-11.79l16.94-51.26c21.45-35.58,60.48-59.44,104.97-59.44h41.11c44.5,0,83.52,23.86,104.97,59.44l16.94,51.25c.37,3.88.58,7.81.58,11.79v85.3H82.25v-85.3ZM-212.58,245.31c0-3.98.21-7.91.58-11.79l16.94-51.25c21.45-35.59,60.48-59.44,104.97-59.44h41.11c44.1,0,82.83,23.44,104.4,58.51l17.59,53.22c.31,3.55.5,7.13.5,10.76v85.3H-212.58v-85.3ZM-507.4,245.31c0-3.63.19-7.21.5-10.76l17.59-53.21c21.57-35.07,60.3-58.51,104.4-58.51h41.11c44.1,0,82.83,23.44,104.4,58.5l17.59,53.23c.31,3.55.5,7.13.5,10.75v85.3h-286.09v-85.3ZM-802.23,245.31c0-3.98.21-7.92.58-11.81l16.93-51.23c21.45-35.59,60.48-59.46,104.98-59.46h41.11c44.5,0,83.52,23.86,104.97,59.44l16.94,51.25c.37,3.88.58,7.81.58,11.79v85.3h-286.09v-85.3ZM-1097.06,245.31c0-3.63.19-7.21.5-10.76l17.58-53.21c21.57-35.07,60.3-58.51,104.4-58.51h41.11c44.1,0,82.83,23.44,104.4,58.5l17.59,53.23c.31,3.55.5,7.13.5,10.75v85.3h-286.09v-85.3ZM-1391.89,245.31c0-3.63.19-7.21.5-10.75l17.59-53.23c21.57-35.07,60.3-58.51,104.4-58.51h41.11c44.5,0,83.52,23.86,104.97,59.44l16.94,51.25c.37,3.88.58,7.81.58,11.79v85.3h-286.09v-85.3ZM-1686.72,245.31c0-67.54,54.95-122.49,122.49-122.49h41.11c44.5,0,83.53,23.86,104.98,59.46l16.93,51.23c.37,3.89.58,7.82.58,11.81v85.3h-286.09v-85.3Z"/>
  </g>
</svg>