<?xml version="1.0" encoding="UTF-8"?>
<svg id="OBJECTS" xmlns="http://www.w3.org/2000/svg" xmlns:xlink="http://www.w3.org/1999/xlink" viewBox="0 0 390 529.35">
  <defs>
    <style>
      .cls-1 {
        fill: #4c4159;
      }

      .cls-1, .cls-2, .cls-3, .cls-4, .cls-5, .cls-6, .cls-7, .cls-8, .cls-9, .cls-10, .cls-11, .cls-12, .cls-13, .cls-14, .cls-15, .cls-16, .cls-17, .cls-18, .cls-19, .cls-20, .cls-21, .cls-22, .cls-23, .cls-24, .cls-25, .cls-26, .cls-27, .cls-28, .cls-29, .cls-30, .cls-31, .cls-32, .cls-33, .cls-34, .cls-35, .cls-36, .cls-37, .cls-38, .cls-39, .cls-40, .cls-41, .cls-42, .cls-43, .cls-44, .cls-45, .cls-46, .cls-47, .cls-48, .cls-49, .cls-50, .cls-51 {
        stroke-width: 0px;
      }

      .cls-2 {
        fill: #626129;
      }

      .cls-3 {
        fill: url(#linear-gradient-12);
      }

      .cls-4, .cls-52 {
        fill: #263238;
      }

      .cls-5 {
        fill: url(#linear-gradient-17);
      }

      .cls-6 {
        fill: url(#linear-gradient-19);
      }

      .cls-7 {
        fill: url(#linear-gradient);
      }

      .cls-8 {
        fill: #000;
      }

      .cls-9, .cls-53, .cls-54, .cls-44, .cls-48 {
        fill: #fff;
      }

      .cls-9, .cls-51 {
        opacity: .8;
      }

      .cls-55, .cls-48 {
        opacity: .5;
      }

      .cls-10 {
        fill: url(#linear-gradient-21);
      }

      .cls-11 {
        fill: url(#linear-gradient-6);
      }

      .cls-53, .cls-52, .cls-56, .cls-57, .cls-58 {
        stroke: #263238;
        stroke-miterlimit: 10;
      }

      .cls-12 {
        fill: #433a49;
      }

      .cls-56, .cls-19 {
        fill: none;
      }

      .cls-13 {
        fill: #eaa58f;
      }

      .cls-57 {
        fill: #c2c2c2;
      }

      .cls-14 {
        fill: url(#linear-gradient-15);
      }

      .cls-15 {
        fill: #879b5f;
      }

      .cls-16 {
        fill: url(#linear-gradient-11);
      }

      .cls-17 {
        fill: url(#linear-gradient-5);
      }

      .cls-18 {
        fill: #7f532c;
      }

      .cls-20 {
        fill: #6e472b;
      }

      .cls-59 {
        clip-path: url(#clippath-1);
      }

      .cls-21 {
        fill: #774639;
      }

      .cls-22 {
        fill: url(#linear-gradient-13);
      }

      .cls-23 {
        fill: url(#linear-gradient-23);
      }

      .cls-54 {
        font-family: Rockwell-Bold, Rockwell;
        font-size: 13.07px;
        font-weight: 700;
      }

      .cls-24 {
        fill: #c8dff6;
      }

      .cls-25 {
        fill: url(#linear-gradient-25);
      }

      .cls-26 {
        fill: url(#linear-gradient-16);
      }

      .cls-27 {
        fill: url(#linear-gradient-22);
      }

      .cls-28 {
        fill: url(#linear-gradient-20);
      }

      .cls-29 {
        fill: url(#linear-gradient-14);
      }

      .cls-30 {
        fill: url(#linear-gradient-2);
      }

      .cls-31 {
        fill: #d88f7c;
      }

      .cls-32 {
        fill: url(#linear-gradient-7);
      }

      .cls-33 {
        fill: #e7d8e4;
      }

      .cls-34 {
        fill: url(#linear-gradient-3);
      }

      .cls-58 {
        fill: #eb9486;
      }

      .cls-60 {
        clip-path: url(#clippath);
      }

      .cls-35 {
        fill: url(#linear-gradient-9);
      }

      .cls-36 {
        fill: #573720;
      }

      .cls-37 {
        fill: url(#linear-gradient-8);
      }

      .cls-38 {
        fill: url(#linear-gradient-24);
      }

      .cls-39 {
        fill: url(#linear-gradient-26);
      }

      .cls-40 {
        fill: url(#linear-gradient-18);
      }

      .cls-41, .cls-51 {
        fill: #e7e4d0;
      }

      .cls-42 {
        fill: #f0f1dd;
      }

      .cls-43 {
        fill: #92e3a9;
      }

      .cls-45 {
        fill: #fcf6f9;
      }

      .cls-46 {
        fill: #043f22;
      }

      .cls-47 {
        fill: url(#linear-gradient-10);
      }

      .cls-49 {
        fill: #b6d1e7;
      }

      .cls-50 {
        fill: url(#linear-gradient-4);
      }
    </style>
    <clipPath id="clippath">
      <rect class="cls-19" y="14.34" width="390" height="515.01"/>
    </clipPath>
    <clipPath id="clippath-1">
      <path id="SVGID" class="cls-19" d="M302.9,341.16l4.51-.55s-11.41-1.86-11.68-1.86c-.23,0,15.6-.28,21.34-.34v-22.93l-15.68-.92,15.68-.55v-.21l-12.99-.96,12.99-.69v-7.15h-56.81v3.64c2.9.18,7.52.52,7.52.52l-4.19,1.14,15.67,1.14s-12.92.78-18.99,1.04v36.55h16.1l-4.55,1.34,11.79.96h33.47v-10.16h-14.17Z"/>
    </clipPath>
    <linearGradient id="linear-gradient" x1="10.71" y1="398.3" x2="10.71" y2="401.47" gradientUnits="userSpaceOnUse">
      <stop offset="0" stop-color="#fff"/>
      <stop offset=".15" stop-color="#d4d4d4"/>
      <stop offset=".32" stop-color="#adadad"/>
      <stop offset=".48" stop-color="#8e8e8e"/>
      <stop offset=".64" stop-color="#777"/>
      <stop offset=".8" stop-color="#6a6a6a"/>
      <stop offset=".93" stop-color="#666"/>
      <stop offset=".93" stop-color="#000"/>
    </linearGradient>
    <linearGradient id="linear-gradient-2" x1="168.38" y1="398.62" x2="168.38" y2="402.84" gradientUnits="userSpaceOnUse">
      <stop offset="0" stop-color="#fff"/>
      <stop offset=".12" stop-color="#eee7dd"/>
      <stop offset=".29" stop-color="#dbcbb6"/>
      <stop offset=".46" stop-color="#ccb697"/>
      <stop offset=".63" stop-color="#c1a680"/>
      <stop offset=".78" stop-color="#bb9d73"/>
      <stop offset=".92" stop-color="#b99a6f"/>
      <stop offset="1" stop-color="#6b4d2b"/>
    </linearGradient>
    <linearGradient id="linear-gradient-3" x1="151.54" x2="151.54" xlink:href="#linear-gradient-2"/>
    <linearGradient id="linear-gradient-4" x1="134.07" x2="134.07" xlink:href="#linear-gradient-2"/>
    <linearGradient id="linear-gradient-5" x1="117.02" x2="117.02" xlink:href="#linear-gradient-2"/>
    <linearGradient id="linear-gradient-6" x1="99.76" x2="99.76" xlink:href="#linear-gradient-2"/>
    <linearGradient id="linear-gradient-7" x1="82.92" x2="82.92" xlink:href="#linear-gradient-2"/>
    <linearGradient id="linear-gradient-8" x1="65.23" x2="65.23" xlink:href="#linear-gradient-2"/>
    <linearGradient id="linear-gradient-9" x1="48.6" x2="48.6" xlink:href="#linear-gradient-2"/>
    <linearGradient id="linear-gradient-10" x1="31.34" x2="31.34" xlink:href="#linear-gradient-2"/>
    <linearGradient id="linear-gradient-11" x1="13.87" x2="13.87" xlink:href="#linear-gradient-2"/>
    <linearGradient id="linear-gradient-12" x1="-2.97" x2="-2.97" xlink:href="#linear-gradient-2"/>
    <linearGradient id="linear-gradient-13" x1="338.56" x2="338.56" xlink:href="#linear-gradient"/>
    <linearGradient id="linear-gradient-14" x1="393.08" x2="393.08" xlink:href="#linear-gradient-2"/>
    <linearGradient id="linear-gradient-15" x1="376.45" x2="376.45" xlink:href="#linear-gradient-2"/>
    <linearGradient id="linear-gradient-16" x1="359.19" x2="359.19" xlink:href="#linear-gradient-2"/>
    <linearGradient id="linear-gradient-17" x1="341.71" x2="341.71" xlink:href="#linear-gradient-2"/>
    <linearGradient id="linear-gradient-18" x1="324.87" x2="324.87" xlink:href="#linear-gradient-2"/>
    <linearGradient id="linear-gradient-19" x1="307.61" x2="307.61" xlink:href="#linear-gradient-2"/>
    <linearGradient id="linear-gradient-20" x1="290.56" x2="290.56" xlink:href="#linear-gradient-2"/>
    <linearGradient id="linear-gradient-21" x1="273.3" x2="273.3" xlink:href="#linear-gradient-2"/>
    <linearGradient id="linear-gradient-22" x1="255.83" x2="255.83" xlink:href="#linear-gradient-2"/>
    <linearGradient id="linear-gradient-23" x1="238.99" x2="238.99" xlink:href="#linear-gradient-2"/>
    <linearGradient id="linear-gradient-24" x1="221.73" x2="221.73" xlink:href="#linear-gradient-2"/>
    <linearGradient id="linear-gradient-25" x1="204.25" x2="204.25" xlink:href="#linear-gradient-2"/>
    <linearGradient id="linear-gradient-26" x1="187.41" x2="187.41" xlink:href="#linear-gradient-2"/>
  </defs>
  <g class="cls-60">
    <g>
      <g>
        <path class="cls-2" d="M-186.16,385.72s177.35-66.87,480.24-26.22v72.12l-253.07-27.54-227.17-18.36Z"/>
        <g>
          <path class="cls-15" d="M-455.13,380.58s70.27-35.55,205.78-21.51,306.92,46.25,333.03,47.47l9.09,12.02v53.6s-539.36-28.56-544.05-30.99c-4.68-2.43-3.85-60.6-3.85-60.6Z"/>
          <path class="cls-42" d="M-90,452.54s244.27-67.34,383-37.92v143.14l-383-105.22Z"/>
        </g>
        <path class="cls-46" d="M-1228.65,487.1s593.44-78.6,856.17-72.88c262.72,5.72,622,125.31,622,125.31l-171.05,15.87-1323.68-19.4,16.56-48.89Z"/>
      </g>
      <g>
        <path class="cls-2" d="M546.9,386.06s-177.35-66.87-480.24-26.22v72.12s253.07-27.54,253.07-27.54l227.17-18.36Z"/>
        <g>
          <path class="cls-15" d="M815.87,380.92s-70.27-35.55-205.78-21.51c-135.51,14.04-306.92,46.25-333.03,47.47l-9.09,12.02v53.6s539.36-28.56,544.05-30.99c4.68-2.43,3.85-60.6,3.85-60.6Z"/>
          <path class="cls-42" d="M440.39,449.9s-233.91-64.36-372.64-34.94l-86.83,27.07,310.47,42.97,149.01-35.1Z"/>
        </g>
        <path class="cls-46" d="M1245.88,476.76s-438.3-68.76-631.85-58.69c-193.55,10.07-517.64,131.71-517.64,131.71l187.03,16.91,975.26-41.32-12.8-48.61Z"/>
      </g>
    </g>
    <rect class="cls-19" x="-1.06" width="392.86" height="530.23"/>
    <g>
      <g>
        <g>
          <path class="cls-41" d="M291.89,52.51c-4.58-3.16-9.34-6.15-14.29-8.96-12.79-7.27-26.38-13.07-40.47-17.1-52.18-14.93-109.6-8.65-162.47-.91C38.01,30.9-2.23,37.97-33.78,58.89c-35.54,23.57-70.67,48.61-101.57,78.38-34.28,33.02-64.38,73.61-77.84,120.34-7.96,27.63-9.59,58.28.46,85.59,26.49,72,119.93,79.4,183.5,75.85,46.88-2.62,93.11-11.17,139.97-14.03,44.72-2.73,89.68-1.84,134.26,2.75,35.48,3.65,76.06-4.09,103.35-29.03,24.48-22.38,31.65-52.69,35.17-84.81,9.97-90.99-15.46-188.93-91.63-241.42Z"/>
          <path class="cls-51" d="M291.89,52.51c-4.58-3.16-9.34-6.15-14.29-8.96-12.79-7.27-26.38-13.07-40.47-17.1-52.18-14.93-109.6-8.65-162.47-.91C38.01,30.9-2.23,37.97-33.78,58.89c-35.54,23.57-70.67,48.61-101.57,78.38-34.28,33.02-64.38,73.61-77.84,120.34-7.96,27.63-9.59,58.28.46,85.59,26.49,72,119.93,79.4,183.5,75.85,46.88-2.62,93.11-11.17,139.97-14.03,44.72-2.73,89.68-1.84,134.26,2.75,35.48,3.65,76.06-4.09,103.35-29.03,24.48-22.38,31.65-52.69,35.17-84.81,9.97-90.99-15.46-188.93-91.63-241.42Z"/>
        </g>
        <g>
          <line class="cls-53" x1="404.32" y1="377.84" x2="-231.15" y2="377.84"/>
          <rect class="cls-52" x="-231.15" y="390.43" width="635.47" height="7.07"/>
        </g>
        <g>
          <path class="cls-43" d="M285.56,25.16c-44.6,0-80.76,35.91-80.76,80.21,0,20.54,7.78,39.27,20.56,53.46,5.85-.85,16.51-1.43,28.29,2.58,15.61,5.31,25.34,14.01,27.47,16.04h7.24c2.13-2.03,11.86-10.73,27.47-16.04,12.83-4.36,24.33-3.28,29.73-2.35,12.9-14.22,20.76-33.04,20.76-53.69,0-44.3-36.16-80.21-80.76-80.21Z"/>
          <path class="cls-48" d="M285.56,25.16c-44.6,0-80.76,35.91-80.76,80.21,0,20.54,7.78,39.27,20.56,53.46,5.85-.85,16.51-1.43,28.29,2.58,15.61,5.31,25.34,14.01,27.47,16.04h7.24c2.13-2.03,11.86-10.73,27.47-16.04,12.83-4.36,24.33-3.28,29.73-2.35,12.9-14.22,20.76-33.04,20.76-53.69,0-44.3-36.16-80.21-80.76-80.21Z"/>
          <path class="cls-4" d="M323.15,137.53c-2.48,1.2-4.95,2.44-7.38,3.74-2.43,1.33-4.82,2.77-7.05,4.35-.84.58-1.67,1.19-2.5,1.79l13.23-24.64-18.15,28.43c-1.84,1.48-3.65,2.99-5.42,4.53-2.93,2.55-5.78,5.15-8.58,7.83l-.92-26.74,18.99-28.92-19.13,24.87-.83-23.93-1.36,26.77h0s0,0,0,0l-1.37,26.84c-2.43-2.3-4.89-4.54-7.42-6.74-1.99-1.73-4.02-3.43-6.09-5.08l-17.17-29.33,12.61,25.87c-.72-.53-1.44-1.06-2.18-1.57-2.24-1.58-4.62-3.02-7.05-4.35-2.43-1.3-4.89-2.54-7.38-3.74-4.98-2.39-10.05-4.62-15.28-6.47,5.09,2.15,9.96,4.68,14.73,7.35,2.38,1.34,4.73,2.72,7.04,4.15,2.27,1.44,4.46,2.96,6.54,4.64,4.18,3.31,8.09,6.93,11.85,10.66,3.29,3.26,6.49,6.64,9.54,10.07l-1.74,209.91h7.96l-1.13-208.53c3.41-3.9,7.04-7.75,10.77-11.45,3.76-3.73,7.67-7.35,11.85-10.66,2.08-1.68,4.27-3.2,6.54-4.64,2.31-1.43,4.66-2.81,7.04-4.15,4.76-2.67,9.64-5.19,14.73-7.35-5.24,1.84-10.3,4.08-15.28,6.47Z"/>
        </g>
        <g>
          <path class="cls-43" d="M355.56,180.1c-25.01,0-45.28,20.13-45.28,44.97,0,11.51,4.36,22.02,11.53,29.97,3.28-.48,9.25-.8,15.86,1.44,8.75,2.98,14.21,7.86,15.4,9h4.06c1.19-1.14,6.65-6.02,15.4-9,7.19-2.45,13.64-1.84,16.67-1.32,7.24-7.97,11.64-18.52,11.64-30.1,0-24.84-20.27-44.97-45.28-44.97Z"/>
          <path class="cls-48" d="M355.56,180.1c-25.01,0-45.28,20.13-45.28,44.97,0,11.51,4.36,22.02,11.53,29.97,3.28-.48,9.25-.8,15.86,1.44,8.75,2.98,14.21,7.86,15.4,9h4.06c1.19-1.14,6.65-6.02,15.4-9,7.19-2.45,13.64-1.84,16.67-1.32,7.24-7.97,11.64-18.52,11.64-30.1,0-24.84-20.27-44.97-45.28-44.97Z"/>
          <path class="cls-4" d="M376.64,243.11c-1.39.67-2.77,1.37-4.14,2.1-1.36.75-2.7,1.56-3.96,2.44-.47.33-.94.67-1.4,1.01l7.42-13.82-10.18,15.94c-1.03.83-2.04,1.68-3.04,2.54-1.64,1.43-3.24,2.89-4.81,4.39l-.52-14.99,10.65-16.21-10.73,13.94-.46-13.42-.76,15.01h0s0,0,0,0l-.77,15.05c-1.36-1.29-2.74-2.54-4.16-3.78-1.12-.97-2.25-1.92-3.42-2.85l-9.63-16.44,7.07,14.51c-.41-.3-.81-.59-1.22-.88-1.25-.89-2.59-1.7-3.96-2.44-1.36-.73-2.74-1.42-4.14-2.1-2.79-1.34-5.63-2.59-8.57-3.62,2.85,1.21,5.59,2.62,8.26,4.12,1.33.75,2.65,1.52,3.95,2.33,1.28.81,2.5,1.66,3.67,2.6,2.35,1.86,4.54,3.88,6.65,5.98,1.84,1.83,3.64,3.72,5.35,5.64l-.97,117.69h4.46l-.63-116.92c1.91-2.19,3.95-4.34,6.04-6.42,2.11-2.09,4.3-4.12,6.65-5.98,1.17-.94,2.39-1.8,3.67-2.6,1.3-.8,2.61-1.57,3.95-2.33,2.67-1.49,5.4-2.91,8.26-4.12-2.94,1.03-5.78,2.29-8.57,3.62Z"/>
        </g>
        <path class="cls-56" d="M-4.01,75.27s-22.76-26.55-55.95-26.55-38.88,23.71-45.52,28.45c-6.64,4.74-18.02-3.79-29.4,0-11.38,3.79-14.23,12.33-18.97,14.23-4.74,1.9-11.38-6.64-22.76-3.79-11.38,2.85-26.55,12.33-26.55,12.33H50.04s-1.9-17.07-18.97-18.97c-17.07-1.9-29.4,9.48-35.09-5.69Z"/>
        <path class="cls-56" d="M125.03,123.68s-9.02-10.53-22.18-10.53-15.42,9.4-18.05,11.28c-2.63,1.88-7.14-1.5-11.66,0-4.51,1.5-5.64,4.89-7.52,5.64-1.88.75-4.51-2.63-9.02-1.5-4.51,1.13-10.53,4.89-10.53,4.89h100.4s-.75-6.77-7.52-7.52c-6.77-.75-11.66,3.76-13.91-2.26Z"/>
        <g>
          <rect class="cls-57" x="-141.63" y="175.64" width="473.53" height="108.39"/>
          <line class="cls-56" x1="-140.93" y1="182.71" x2="331.69" y2="182.71"/>
          <line class="cls-56" x1="-140.93" y1="188.73" x2="331.69" y2="188.73"/>
          <rect class="cls-58" x="-141.63" y="268.21" width="473.53" height="108.39"/>
          <polygon class="cls-51" points="331.9 268.21 -141.06 268.21 -163.31 204.53 354.15 204.53 331.9 268.21"/>
          <rect class="cls-58" x="-163.31" y="195.72" width="517.46" height="8.81"/>
          <rect class="cls-58" x="-151.79" y="237.72" width="493.85" height="6.1"/>
          <g>
            <polygon class="cls-53" points="310.97 243.5 322.44 255.68 326.03 255.68 337.71 243.5 310.97 243.5"/>
            <rect class="cls-53" x="321.06" y="243.82" width="8.13" height="139.55"/>
          </g>
          <g>
            <polygon class="cls-53" points="158.35 243.5 169.82 255.68 173.4 255.68 185.09 243.5 158.35 243.5"/>
            <rect class="cls-53" x="167.73" y="243.82" width="8.13" height="139.55"/>
          </g>
          <g>
            <polygon class="cls-53" points="4.65 243.5 16.12 255.68 19.71 255.68 31.39 243.5 4.65 243.5"/>
            <rect class="cls-53" x="14.41" y="243.82" width="8.13" height="139.55"/>
          </g>
          <g>
            <rect class="cls-53" x="210.25" y="343.13" width="1.16" height="33.87"/>
            <rect class="cls-53" x="205.12" y="364.94" width="1.16" height="14.87"/>
            <rect class="cls-53" x="288.39" y="364.94" width="1.16" height="14.87"/>
            <rect class="cls-53" x="284.1" y="343.13" width="1.16" height="33.87"/>
            <polygon class="cls-57" points="292.33 366.37 202.52 366.37 206.6 359.74 288.25 359.74 292.33 366.37"/>
            <g>
              <rect class="cls-57" x="206.6" y="340.15" width="81.64" height="5.63"/>
              <rect class="cls-57" x="206.6" y="355.86" width="81.64" height="4.33"/>
              <rect class="cls-57" x="206.6" y="347.59" width="81.64" height="6.44"/>
            </g>
          </g>
          <g>
            <rect class="cls-53" x="59.33" y="343.13" width="1.16" height="33.87"/>
            <rect class="cls-53" x="54.21" y="364.94" width="1.16" height="14.87"/>
            <rect class="cls-53" x="137.48" y="364.94" width="1.16" height="14.87"/>
            <rect class="cls-53" x="133.18" y="343.13" width="1.16" height="33.87"/>
            <polygon class="cls-57" points="141.42 366.37 51.61 366.37 55.69 359.74 137.33 359.74 141.42 366.37"/>
            <g>
              <rect class="cls-57" x="55.69" y="340.15" width="81.64" height="5.63"/>
              <rect class="cls-57" x="55.69" y="355.86" width="81.64" height="4.33"/>
              <rect class="cls-57" x="55.69" y="347.59" width="81.64" height="6.44"/>
            </g>
          </g>
          <g>
            <rect class="cls-53" x=".85" y="364.94" width="1.16" height="14.87"/>
            <polygon class="cls-57" points="4.79 366.37 -85.02 366.37 -80.94 359.74 .71 359.74 4.79 366.37"/>
            <g>
              <rect class="cls-57" x="-80.94" y="340.15" width="81.64" height="5.63"/>
              <rect class="cls-57" x="-80.94" y="355.86" width="81.64" height="4.33"/>
              <rect class="cls-57" x="-80.94" y="347.59" width="81.64" height="6.44"/>
            </g>
          </g>
          <rect class="cls-9" x="58.93" y="274.44" width="40.17" height="52.57"/>
          <rect class="cls-9" x="-33.07" y="274.44" width="40.17" height="52.57"/>
          <rect class="cls-9" x="111.01" y="275.93" width="37.69" height="28.27"/>
          <rect class="cls-9" x="249.39" y="275.93" width="37.69" height="28.27"/>
          <rect class="cls-9" x="272.2" y="314.06" width="21.9" height="16.43"/>
          <rect class="cls-9" x="205.74" y="281.38" width="33.23" height="42.65"/>
          <g>
            <rect class="cls-58" x="-35.53" y="175.64" width="58.71" height="15.73"/>
            <rect class="cls-58" x="-28.37" y="133.04" width="44.4" height="52.61"/>
            <rect class="cls-58" x="-32.07" y="127.85" width="51.79" height="11.87"/>
          </g>
          <g>
            <rect class="cls-58" x="155.63" y="175.64" width="58.71" height="15.73"/>
            <rect class="cls-58" x="162.78" y="133.04" width="44.4" height="52.61"/>
            <rect class="cls-58" x="159.09" y="127.85" width="51.79" height="11.87"/>
          </g>
        </g>
      </g>
      <g>
        <g>
          <path class="cls-1" d="M122.21,289.31c-1.78,1.82-3.4,17.39-6.17,20.35,0,0,1.72,2.52,4.54,2.35,2.82-.18,5.35-13.57,5.35-13.57l-3.72-9.13Z"/>
          <path class="cls-12" d="M119.19,300.44c-.9,4.03-1.91,7.9-3.15,9.23,0,0,1.72,2.52,4.54,2.35,2.82-.18,5.35-13.57,5.35-13.57l-1.39-3.4-1.94-.59c.49,1.48-1.28,3.82-3.42,5.98Z"/>
        </g>
        <path class="cls-31" d="M122.01,293.31c1.85-.08,2.94.65,3.23,5.39.29,4.74,1.09,7.94,1.09,7.94l-1.09,6.71s-1.94-2.44-2.12-4.73c-.17-2.29-.51-8.54-.51-8.54l-.61-6.77Z"/>
        <g>
          <g>
            <path class="cls-13" d="M103.11,292.99c-1.86.81-1.59,14.68-2.2,17.38-.61,2.7-1.17,3.43-2.74,14.98,0,0-.98,2.8-.49,5.75,0,0,7.33-12.07,7.17-13.26-.15-1.19,0-4.23,0-5.31s1.57-10.58,1.57-10.58c0,0-1.03-9.95-3.31-8.96Z"/>
            <path class="cls-31" d="M104.85,312.53c0-1.08,1.57-10.58,1.57-10.58,0,0-.66-6.4-2.1-8.42l-.28.05c1.3,1.63-.57,15.66-.95,18.43-.38,2.77,1.75,3.58,1.63,6.34,0,.03,0,.04,0,.06.1-.27.15-.47.13-.57-.15-1.19,0-4.23,0-5.31Z"/>
          </g>
          <g>
            <path class="cls-45" d="M105.91,291.82c-.86.19-1.45.41-2.26.62-.46.12-.63.22-.54.55,0,0,1.37-.41,1.89,4.07.52,4.48.11,5.81,1.85,8.88,1.74,3.07,1.38,4.43-.93,8.78-2.31,4.35-14.89,16.54-17.64,61.5h46.25s5.23-14.96-12.45-62.91c0,0-1.7-3.67-.78-6.68.92-3.01,5.11-2.67,1.44-17.65,0,0-3.12.09-2.77.08.35,0-14.05,2.75-14.05,2.75Z"/>
            <path class="cls-33" d="M122.07,313.31s-1.7-3.67-.78-6.68c.09-.3.21-.56.36-.81h0c-2.52,3-3.96,4.85-5.31,7.47-1.35,2.62,9.24-5.88,9.24,62.93h8.95s3.17-38.15-12.45-62.91Z"/>
          </g>
          <path class="cls-12" d="M113.83,274.02c1.91.14,2.71,1.81,2.09,2.74,0,0,1.23.25.75,1.57h-2.64l-.2-4.31Z"/>
          <g>
            <g>
              <path class="cls-13" d="M109.79,283.23c.83,2.83.47,6.66.47,6.66,0,0-.62,1.03-4.34,1.93,0,0,4.24,7.72,9.39,10.13,0,0,5.7-5.93,5.01-12.89h-2.96c-1.1,0-1.1-6.13-1.1-6.13l-6.46.29Z"/>
              <path class="cls-31" d="M117.35,289.07c-1.1,0-1.1-6.13-1.1-6.13l-6.46.29c.83,2.83.47,6.66.47,6.66,0,0-.4.65-2.4,1.36h0c3.5-1.16,5.82-3.91,7.45-1.71,1.6,2.17,1.75,6.86-1.97,11.21.64.47,1.3.88,1.97,1.2,0,0,5.7-5.93,5.01-12.89h-2.96Z"/>
            </g>
            <path class="cls-12" d="M105.59,282.93c-.05.98-2.5,2.8-1.57,5.54.93,2.75,4.85,2.7,6.08.78,1.23-1.91.3-4.32-.32-6.03-.62-1.72-.42-2.65-.42-2.65,0,0-3.68.54-3.78,2.35Z"/>
            <path class="cls-13" d="M113.93,274.59c1.57.15,4.49,6.66,3.6,9.3-.9,2.64-5.17.79-6.63-.51,0,0-1.85,1.4-2.81-.84-.95-2.25,1.18-2.25,2.02-1.18,0,0,2.92.9,2.66-3.65-.14-2.36,1.16-3.13,1.16-3.13Z"/>
            <path class="cls-12" d="M114.68,275.02c-.63.93.08,2.51-1.34,3.07.83,5.82-6.52,2.64-7.75,4.84,0,0-1.86-1.67.29-3.02,0,0-2.06-3.4,1.27-5.61,3.33-2.21,8.29-.43,7.52.72Z"/>
          </g>
        </g>
        <g>
          <g>
            <g>
              <path class="cls-12" d="M132.87,370.73c-.17,1.29-.43,2.78-1.28,3.37-.85.59-1.89,1.1-1.56,2.18h7.56v-5.56l-4.71.02Z"/>
              <g>
                <path class="cls-1" d="M125.31,326.35c.6,7.84,3.88,17.65,4.03,20.1.29,4.8-1.47,5.69,1.86,17.55,1.68,5.98,1.67,6.73,1.67,6.73h2.78s1.02-15.48,0-18.9c-1.02-3.42.35-9.49.89-13.12.54-3.63.18-12.39.18-12.39l-4.15-2.4-7.27,2.44Z"/>
                <path class="cls-12" d="M132.87,370.73h2.78s1.02-15.48,0-18.9c-1.02-3.42.35-9.5.89-13.12.54-3.63.18-12.39.18-12.39l-4.15-2.4-7.27,2.44c.05.66.12,1.33.21,2.01,3.6,2.36,7.26,7.67,8.45,14.66,1.08,6.34-.57,20.99-1.29,26.65.19.87.19,1.05.19,1.05Z"/>
              </g>
            </g>
            <g>
              <path class="cls-13" d="M135.66,370.69s-1.02,1.42-.6,2.43c.42,1,3.09-2.46,3.09-2.46l-2.48.03Z"/>
              <path class="cls-1" d="M136.72,326.32c-.78,2.76-1.2,13.16-1.03,17.14s.6,5.41-.04,8.37c-.64,2.96,0,16.32,0,18.86,0,0,3.17.08,3.17,0s4.74-14.12,4.48-18.35c-.25-4.23-.51-5.92-.51-8.46s5.49-13.39,4.6-20.99l-.5-1.77-10.18,5.19Z"/>
              <path class="cls-12" d="M136.11,330.65c2.47-2.58,8.94-5.96,11.34-7.16-.01-.2-.03-.4-.05-.59l-.5-1.77-10.18,5.19c-.24.85-.45,2.44-.61,4.33Z"/>
              <path class="cls-12" d="M135.66,370.69c-.5.62-1.29,1.61-1.56,2.99-.15.75-.38,2.6.84,2.6h7.27c1.18,0,.76-1.78.42-2.29s-1.27-.65-2.03-1.13c-.76-.48-.7-1.93-1.78-2.17-1.56-.34-2.31,1.23-3.01,1.2-.64-.02-.16-1.2-.16-1.2Z"/>
            </g>
          </g>
          <g>
            <path class="cls-1" d="M122.21,289.31c-.69,3.57,2.21,11.93,3.04,15.29,1.84,7.42-1.22,10.32-1.43,21.18,0,0,4.57,1.93,6.76,1.78,2.19-.15,2.66-2.01,2.66-2.01,0,0,1.11,2.01,3.49.77,2.18-1.13,6.32-3.11,10.68-3.43.64-.05,1.08-.64.94-1.26-.5-2.17-1.72-6.88-3.83-11.21,0,0,4.86-20.65,3.09-21.79-1.78-1.14-3.92-1.99-6.28-2.44-2.36-.46-12.83.76-12.83.76,0,0-2.07.73-3.92,1.21-1.8.47-2.37,1.16-2.37,1.16Z"/>
            <path class="cls-12" d="M143.97,286.89c-.85-.29-1.74-.53-2.66-.71-.72-.14-2.21-.12-3.93-.03l-3.26,17.76c1.56-3.03,10.89-10.63,9.85-17.02Z"/>
            <path class="cls-33" d="M129.94,286.18s-.88.61-1.45.76c-.57.15,1.15,9.89,5.63,16.97,0,0,7-11.38,7.19-17.73,0,0-1.6-.14-2.36-.46l-9.02.46Z"/>
            <g>
              <path class="cls-13" d="M136.01,289.9c1.04-1.1,2.16-2.59,2.37-4.08,0,0-.29-3.16,0-5.69l-7.64,2.88v4.08c0,.73.83,1.86,1.67,2.81h3.61Z"/>
              <path class="cls-31" d="M130.73,283.02v2.72c.64,1.74,3.13,1.71,5.12.15,1.46-1.14,1.87,2.02.86,3.21.79-.97,1.5-2.12,1.66-3.27,0,0-.29-3.16,0-5.69l-7.64,2.88Z"/>
              <path class="cls-12" d="M129.52,278.08c-.41-.57-1.07-.89-.32-1.6,0,0-1.44-1.69-.9-2.95.72-1.68,2.79-.46,4.05-1.71,1.87-1.85,5.23-2.21,5.65,1.41,0,0,2.21-.09,2.02,2.97-.19,3.06-.93,2.43-1.17,3.95l-2.45-.23-6.88-1.82Z"/>
              <path class="cls-13" d="M129.6,275.25c-.51,5.26,1,9.88,3.45,9.88,2.05,0,3.35-2.35,3.86-3.59.36-.87.63-1.14.75-1.02.28.27.71.55,1.19-.39.49-.94.56-2.44.12-2.58s-1.1.78-1.57,1.6c-.47.81-.47.23-.74.06-.26-.17.46-1.15.25-1.38s-.63-1.23-.16-2.17c0,0-.85.03-1.13-1,0,0-3.1,1.26-4.3,1.27-1.19.02-1.72-.69-1.72-.69Z"/>
            </g>
            <path class="cls-45" d="M133.94,290.06c.65-.46,3.65-1.04,4.37-5.2l-.03-.59s.27.06.51.66c.12.29.38.5.47.65.77,1.18-.28,6.2-2.68,7.31,0,0-.37-1.25-1.28-1.7-1.16-.58-1.37-.52-1.37-.52v-.61Z"/>
            <path class="cls-45" d="M133.94,290.06c-.54-.46-2.62-1.1-3.21-5.26v-.45s-.22-.02-.43.58c-.1.29-.31.5-.39.65-.64,1.18-.16,6.2,1.83,7.31,0,0,.31-1.25,1.06-1.7.96-.58,1.14-.52,1.14-.52v-.61Z"/>
            <g>
              <path class="cls-24" d="M134.61,289.59c.19-.04,2.41-1.75,2.71-1.38.31.37.22,3.42,0,3.66-.22.24-1.02.11-2.69-.73,0,0-.32,0-.32-.78s.29-.78.29-.78Z"/>
              <path class="cls-49" d="M137.32,291.86s.06-.15.09-.3c-.05.3-.71.27-1.56-.04-.85-.31-.98-1.09-.71-1.09s1.91.37,1.91-.13-1.43,0-1.88,0-.57-.73-.31-.88h0c-.13.09-.23.15-.26.16,0,0-.29,0-.29.78s.32.78.32.78c1.66.84,2.47.97,2.69.73Z"/>
              <path class="cls-49" d="M137.32,291.86s.06-.15.09-.3c-.05.3-.71.27-1.56-.04-.85-.31-.98-1.09-.71-1.09s1.91.37,1.91-.13-1.43,0-1.88,0-.57-.73-.31-.88h0c-.13.09-.23.15-.26.16,0,0-.29,0-.29.78s.32.78.32.78c1.66.84,2.47.97,2.69.73Z"/>
              <g>
                <path class="cls-24" d="M133.47,289.59c-.19-.04-2.49-1.75-2.8-1.38-.31.37-.22,3.42,0,3.66.22.24,1.11.11,2.77-.73,0,0,.32,0,.32-.78s-.29-.78-.29-.78Z"/>
                <path class="cls-49" d="M130.67,291.86s-.06-.15-.09-.3c.05.3.71.27,1.56-.04.85-.31.98-1.09.71-1.09s-1.91.37-1.91-.13,1.43,0,1.88,0,.57-.78.3-.94l.1.06c.13.09.23.14.26.15,0,0,.29,0,.29.78s-.32.78-.32.78c-1.66.84-2.55.97-2.77.73Z"/>
              </g>
              <path class="cls-24" d="M134.64,291.14c-.09.14-.41-.07-1.01.05-.53.11-.53-1.82.08-1.66.61.16.84-.14.9.06-.34.34-.16,1.53.02,1.55Z"/>
            </g>
            <path class="cls-1" d="M141.9,290.06s.68-.19,1.25-.34c.38-1.58.36-2.73.21-3.03-.48-.97-3.66-.86-4.01-1.35-.35-.49-.52-.32-.52-.32.1.22.43.56.43.56.25,3.52-1.74,9.89-5.14,18.33,2.6-4.04,5.64-7.24,7.15-9.71.81-1.33,1.34-2.61,1.68-3.73l-1.05-.41Z"/>
            <path class="cls-12" d="M128.01,287.1c-.59.2-1.67.56-2.77.87,0,5.25,6.35,12.9,8.52,15.36l-5.75-16.23Z"/>
            <path class="cls-1" d="M127.32,290.71s-.59-.16-1.08-.3c-.36-1.55-.36-2.69-.24-3,.39-.99,3.17-1,3.47-1.51.31-.51.58-.54.58-.54-.24.28-.29.62-.29.62-.18,3.54,1.4,9.91,4.36,17.92-2.4-3.28-4.88-6.82-6.2-9.17-.71-1.27-1.19-2.51-1.49-3.6l.89-.43Z"/>
          </g>
          <path class="cls-12" d="M145.21,292.89c-.03.18-.06.37-.08.55-.63,4.29-.57,7.86-.57,9.89s-1.63,8.19-2.48,10.34c0,0,.95-.85,1.98-2.48,0,0,2.9,7.59,3.04,11.72h0c.1,0,.2-.02.3-.02.64-.05,1.08-.64.94-1.26-.5-2.17-1.72-6.88-3.83-11.22,0,0,2.21-9.37,3.1-15.84l-2.4-1.68Z"/>
          <g>
            <path class="cls-1" d="M147.6,288.62c3.57,2.57,5.02,16.2,5.77,18.2,2.26,6.05,2.22,7.05,1.75,15.34h-4.49s-1.13-3.31-1.44-7.4c-.25-3.34-.44-5.24-1.5-8.2-.59-1.65-2.01-5.27-2.53-8.51-.52-3.24.41-10.88,2.44-9.42Z"/>
            <path class="cls-13" d="M151.31,323.91c0,.48-.77,1.63-.69,2.83.09,1.2.55,1.42.55,2.26s.05,1.53.14,1.83c0,0-.62-.03-.69.3s.35.52.35.52c0,0-.51.35-.35.68.16.33,1.16.22,1.79.16.63-.05,1.69-.85,1.96-1.09.27-.25.6-1.83.87-2.51.27-.68-.76-3.23-.76-4.98h-3.16Z"/>
            <polygon class="cls-45" points="150.62 322.16 150.95 323.91 154.47 323.91 154.47 322.16 150.62 322.16"/>
          </g>
        </g>
        <path class="cls-13" d="M107.8,312.32l.04-.27c.75-.07.58-.73.33-.72-.27,0-.38-.16-.65-.36-.27-.21-1.01-.32-1.11.36-.05.34.33.61-.36,1.19-.36.3-.78.45-.62,1.73.08.66.13,1.53.31,1.97.18.44,1.71.05,2.22-.53,0,0,.26-.34-.33-.51,0,0,.74.04.57-.88-.12-.62.61-1.45.35-1.78-.26-.33-.74-.2-.74-.2Z"/>
      </g>
      <g>
        <g>
          <g>
            <path class="cls-20" d="M291.22,296.56c0,1.16,0,2.41,0,2.41l-.3-1.45-.43,4.38s-.34-3.48-.52-5.34h-2.92l-.08.94-.09-.94h-.04c-.04.75-.16,2.99-.19,3.1-.02.07-.19-1.48-.36-3.1h-.92v96.57h6.55v-96.57h-.72Z"/>
            <path class="cls-36" d="M287.91,296.56c0,1.16,0,2.41,0,2.41l-.13-1.45-.19,4.38s-.15-3.48-.22-5.34h-1.26l-.03.94-.04-.94h-.02c-.02.75-.07,2.99-.08,3.1,0,.07-.08-1.48-.16-3.1h-.4v96.57h2.83v-96.57h-.31Z"/>
            <polygon class="cls-36" points="285.39 351.33 285.39 353.19 292.01 351.33 285.39 351.33"/>
          </g>
          <g>
            <path class="cls-18" d="M302.9,341.16l4.51-.55s-11.58-2.12-11.68-1.86c-1.3,3.05,15.6,1.73,21.34,1.67v-24.94l-15.68-.92,15.68-.55v-.21l-12.99-.96,12.99-.69v-7.15h-56.81v3.64c2.9.18,7.52.52,7.52.52l-4.19,1.14,15.67,1.14s-12.92.78-18.99,1.04v36.55h16.1l-4.55,1.34,11.79.96h33.47v-10.16h-14.17Z"/>
            <path class="cls-18" d="M302.9,341.16l4.51-.55s-11.58-2.12-11.68-1.86c-1.3,3.05,15.6,1.73,21.34,1.67v-24.94l-15.68-.92,15.68-.55v-.21l-12.99-.96,12.99-.69v-7.15h-56.81v3.64c2.9.18,7.52.52,7.52.52l-4.19,1.14,15.67,1.14s-12.92.78-18.99,1.04v36.55h16.1l-4.55,1.34,11.79.96h33.47v-10.16h-14.17Z"/>
            <g class="cls-55">
              <g class="cls-59">
                <g>
                  <g>
                    <path class="cls-36" d="M270.07,309c0-.4-.33-.71-.73-.71-.4,0-.71.33-.71.73,0,.4.33.71.73.71.4,0,.71-.33.71-.73Z"/>
                    <path class="cls-36" d="M269.39,306.39c.16,0,.29-.14.29-.3s-.14-.29-.3-.29c-.16,0-.29.14-.29.3,0,.16.14.29.3.29Z"/>
                    <path class="cls-36" d="M271.5,304.7c0,.1.03.19.07.28-.04.07-.06.15-.06.24,0,.29.24.51.53.51.26,0,.47-.2.5-.46.2-.12.34-.34.33-.6,0-.38-.32-.68-.7-.67-.38,0-.68.32-.67.7Z"/>
                    <path class="cls-36" d="M273.81,306.9s0,0,0,0c-.01-.24-.21-.43-.46-.43-.25,0-.45.21-.44.46,0,.19.13.35.3.42-.02.07-.04.14-.04.22,0,.36.3.65.67.64.36,0,.65-.3.64-.67,0-.36-.3-.65-.67-.64Z"/>
                    <path class="cls-36" d="M273.22,311.35c-.29,0-.53.25-.52.54,0,.29.25.53.54.52.29,0,.53-.25.52-.54s-.25-.53-.54-.52Z"/>
                    <path class="cls-36" d="M271.51,305.73c0-.35-.29-.63-.64-.62-.35,0-.63.29-.62.64,0,.35.29.63.64.62.35,0,.63-.29.62-.64Z"/>
                    <path class="cls-36" d="M277.87,302.97c.6-.01,1.08-.51,1.07-1.11-.01-.6-.51-1.08-1.11-1.07-.6.01-1.08.51-1.07,1.11.01.6.51,1.08,1.11,1.07Z"/>
                    <path class="cls-36" d="M282.74,303.13c-.19,0-.34.16-.34.35,0,.19.16.34.35.34s.34-.16.34-.35c0-.19-.16-.34-.35-.34Z"/>
                    <path class="cls-36" d="M277.2,306.6c.44,0,.79-.37.78-.81,0-.44-.37-.79-.81-.78-.44,0-.79.37-.78.81,0,.44.37.79.81.78Z"/>
                    <path class="cls-36" d="M278.63,309.01c0-.48-.41-.87-.89-.86-.48,0-.87.41-.86.89,0,.48.41.87.89.86.48,0,.87-.41.86-.89Z"/>
                    <path class="cls-36" d="M270.94,313.32c-.27,0-.48.22-.48.49,0,.27.22.48.49.48.27,0,.48-.22.48-.49,0-.27-.22-.48-.49-.48Z"/>
                    <path class="cls-36" d="M275.22,310.77c-.17,0-.31.15-.31.32,0,.17.15.31.32.31.17,0,.31-.15.31-.32,0-.17-.15-.31-.32-.31Z"/>
                    <path class="cls-36" d="M278.61,312.32c-.28,0-.51.24-.51.52,0,.28.24.51.52.51.28,0,.51-.24.51-.52s-.24-.51-.52-.51Z"/>
                    <path class="cls-36" d="M281.92,310.11c-.15,0-.27.13-.27.28,0,.15.13.27.28.27.15,0,.27-.13.27-.28,0-.15-.13-.27-.28-.27Z"/>
                    <path class="cls-36" d="M282.05,308.07c-.24,0-.43.2-.43.44,0,.24.2.43.44.43.24,0,.43-.2.43-.44,0-.24-.2-.43-.44-.43Z"/>
                    <path class="cls-36" d="M282.11,305.63c0-.24-.2-.43-.44-.42-.24,0-.43.2-.42.44,0,.24.2.43.44.42.24,0,.43-.2.42-.44Z"/>
                    <path class="cls-36" d="M261.74,299.56c.11,0,.2-.09.2-.21,0-.11-.09-.2-.21-.2-.11,0-.2.09-.2.21,0,.11.09.2.21.2Z"/>
                    <path class="cls-36" d="M259.46,302.69c0-.15-.13-.27-.28-.27-.15,0-.27.13-.27.28,0,.15.13.27.28.27.15,0,.27-.13.27-.28Z"/>
                    <path class="cls-36" d="M268.48,312.96c-.08,0-.16.02-.24.05.06-.13.1-.27.1-.43,0-.04,0-.07-.01-.11.05.01.1.02.15.02.29,0,.53-.25.52-.54,0-.29-.25-.53-.54-.52-.25,0-.45.18-.51.41-.16-.11-.35-.18-.56-.18-.18,0-.35.06-.5.16.1-.18.16-.4.16-.62,0-.09-.01-.17-.03-.25.36-.07.62-.39.62-.77,0-.05,0-.09-.02-.13.42-.11.72-.49.71-.94,0-.53-.45-.96-.98-.95-.03,0-.06,0-.08,0,.13-.12.21-.29.2-.48,0-.27-.17-.5-.41-.59.02-.08.04-.17.04-.26,0-.03,0-.06,0-.08.22-.07.39-.28.38-.53,0-.22-.14-.41-.33-.49.04-.03.08-.06.11-.09.11.04.23.07.35.06.19,0,.37-.07.51-.17.11.08.25.12.4.12.38,0,.69-.32.68-.71,0-.38-.32-.69-.71-.68-.05,0-.1,0-.15.02-.17-.24-.45-.4-.77-.4-.06,0-.12,0-.17.02,0,0,0-.01,0-.02,0-.41-.34-.73-.75-.72-.26,0-.49.15-.62.36-.12-.06-.25-.1-.39-.1-.06,0-.11,0-.16.02.06-.1.11-.21.15-.32.09.04.18.06.29.05.39,0,.71-.33.7-.73,0-.39-.33-.71-.73-.7-.13,0-.26.04-.37.11-.09-.18-.22-.33-.37-.46.03-.03.05-.06.08-.1.12.27.39.45.7.44.42,0,.75-.35.74-.77,0-.42-.35-.75-.77-.74-.03,0-.05,0-.08,0,.04-.1.06-.21.07-.32.13-.18.21-.41.2-.65-.01-.61-.51-1.09-1.12-1.08-.51,0-.93.36-1.04.83-.2.19-.33.46-.35.76-.25.21-.41.53-.4.89,0,.21.06.4.16.56-.25.14-.46.35-.6.6-.05-.57-.44-1.04-.97-1.2-.17-.19-.41-.31-.69-.31-.5,0-.89.41-.89.91-.13.21-.2.47-.2.73,0,.48.26.9.64,1.13-.13.12-.24.26-.31.43-.03,0-.06,0-.09,0-.49,0-.88.41-.87.9,0,.49.41.88.9.87.1,0,.19-.02.28-.05.19.2.46.32.76.32.13,0,.26-.03.38-.08-.03.08-.04.17-.05.26-.18-.12-.39-.18-.62-.18-.6.01-1.08.51-1.07,1.11,0,.1.02.19.04.27-.02.09-.04.19-.03.29,0,.06,0,.12.02.18-.27.22-.43.56-.43.93.01.62.5,1.12,1.1,1.16-.03.09-.05.19-.05.3,0,.18.06.35.15.49-.09-.02-.18-.03-.27-.03-.15,0-.29.03-.41.08.05-.1.07-.2.07-.32,0-.39-.33-.71-.73-.7-.39,0-.71.33-.7.73,0,.39.33.71.73.7.04,0,.08,0,.12-.01,0,0,0,0,0,0-.15.2-.23.45-.23.72.01.65.55,1.17,1.2,1.16.42,0,.78-.23.98-.56.05.05.1.1.16.14-.21.14-.34.38-.34.66,0,.16.05.3.14.43-.04.08-.07.16-.09.24-.21-.25-.53-.41-.88-.41-.62.01-1.12.52-1.1,1.14.01.62.52,1.12,1.14,1.1.46,0,.85-.29,1.02-.69.26.4.71.66,1.22.65.78-.01,1.41-.66,1.39-1.44,0-.14-.03-.27-.06-.4.02,0,.04,0,.06,0,.26,0,.46-.22.46-.48,0,0,0-.01,0-.02.29-.07.51-.28.61-.55.08.05.18.08.28.08.11,0,.2-.04.28-.1.02,0,.04,0,.06,0,.27,0,.52-.1.73-.25-.05.1-.08.22-.09.34-.53.04-.94.47-.96,1-.1-.03-.2-.05-.31-.05-.58.01-1.05.49-1.04,1.07.01.58.49,1.05,1.07,1.04.44,0,.82-.29.96-.68.17.22.43.36.73.35.5,0,.9-.42.89-.92,0-.25-.11-.47-.27-.63,0-.06.02-.12.02-.18,0,0,0,0,0-.01.1-.02.2-.05.28-.1-.03.07-.04.15-.04.24,0,.38.32.68.7.67.38,0,.68-.32.67-.7,0-.38-.32-.68-.7-.68ZM261.57,310.94c-.04-.08-.08-.15-.14-.22.04,0,.08.01.13.01.32,0,.6-.17.76-.42.03.24.16.44.35.56-.02.01-.04.02-.05.03-.14-.11-.32-.18-.52-.18-.21,0-.39.09-.53.22ZM262.48,309.77c-.01-.42-.3-.76-.69-.87.05-.1.09-.2.12-.31.14.21.33.38.55.49,0,0,0,.02,0,.02,0,.2.05.39.13.55-.04.03-.07.07-.11.11ZM263.13,306.45s.01.03.02.05c-.03,0-.05,0-.08,0,.02-.01.04-.03.06-.05ZM264.16,307.08s0,0,0,0c.03,0,.05,0,.08,0,0,0,0,0,0,0h0s-.06,0-.09,0c0,0,0,0,0-.01ZM266.43,306.01c-.06-.01-.13-.02-.2-.02,0,0,0,0,0,0,.06-.09.11-.2.14-.31.06.05.14.1.22.12-.07.06-.12.12-.16.21ZM266.32,304.73s0-.03,0-.04c.02-.03.04-.07.06-.11.03.01.06.02.09.03-.06.03-.11.07-.16.12ZM264.63,304.64c-.06-.11-.14-.2-.24-.27.17-.07.31-.18.42-.32.03-.01.06-.03.09-.04-.02.07-.04.15-.03.23,0,.07.02.15.04.21-.1.05-.19.11-.27.19ZM262.18,306.8s-.03-.07-.04-.1c0-.02,0-.05,0-.07,0-.03,0-.05,0-.08.09.05.18.08.28.09-.08.04-.16.1-.24.15ZM266.4,309.13c0,.14.03.27.09.38-.19.11-.33.29-.38.51-.1-.02-.21-.04-.32-.04-.37,0-.7.17-.92.43-.05-.05-.1-.09-.16-.13,0-.05-.02-.09-.04-.13.05,0,.09.01.14.01.55,0,.98-.46.97-1.01,0-.29-.13-.54-.33-.72,0-.06.02-.13.01-.2,0,0,0,0,0,0,.3-.02.56-.16.75-.37.08.26.31.45.59.46-.25.18-.4.47-.4.8ZM263.16,303.87c-.09.09-.14.22-.14.36,0,.14.07.27.16.36-.08.12-.13.26-.14.41-.14-.09-.32-.15-.5-.14-.1,0-.19.02-.28.05.04-.1.06-.2.06-.31.13-.19.2-.41.2-.66,0-.12-.03-.24-.06-.36.1-.08.18-.17.24-.29.11.23.27.43.46.58Z"/>
                    <path class="cls-36" d="M268.7,310.93c.29,0,.51-.24.51-.53,0-.29-.24-.51-.53-.51-.29,0-.51.24-.51.53,0,.29.24.51.53.51Z"/>
                    <path class="cls-36" d="M268.12,307.3c0,.3.25.54.56.54.3,0,.54-.25.54-.56,0-.3-.25-.54-.56-.54-.3,0-.54.25-.54.56Z"/>
                    <path class="cls-36" d="M267.11,302.72c0,.24.2.43.44.43.24,0,.43-.2.43-.44,0-.24-.2-.43-.44-.43-.24,0-.43.2-.43.44Z"/>
                    <path class="cls-36" d="M268.25,300.44c.09,0,.17-.02.24-.05,0,0,0,.01,0,.02,0,.53.45.96.98.95.53,0,.96-.45.95-.98,0-.3-.15-.56-.37-.74.1-.16.16-.35.16-.55,0-.54-.46-.98-1-.97-.54,0-.98.46-.97,1,0,0,0,0,0,0,0,0-.02,0-.02,0-.37,0-.66.31-.65.67,0,.37.31.66.67.65Z"/>
                    <path class="cls-36" d="M271,302.65c.44,0,.79-.37.79-.81,0-.44-.37-.79-.81-.79s-.79.37-.79.81.37.79.81.79Z"/>
                    <path class="cls-36" d="M271.31,311.14c0-.43-.36-.77-.79-.76-.43,0-.77.36-.76.79,0,.43.36.77.79.76.43,0,.77-.36.76-.79Z"/>
                    <path class="cls-36" d="M272.48,313.36c-.58.01-1.05.49-1.04,1.07.01.58.49,1.05,1.07,1.04.58-.01,1.05-.49,1.04-1.07,0-.58-.49-1.05-1.07-1.04Z"/>
                    <path class="cls-36" d="M272.63,308.92s.02-.09.02-.14c0-.3-.25-.53-.55-.53s-.53.25-.53.55c0,.12.04.22.11.31-.06.1-.1.22-.09.35,0,.36.3.65.67.64.36,0,.65-.3.64-.67,0-.21-.11-.39-.26-.51Z"/>
                    <path class="cls-36" d="M271.07,307.06c0-.38-.32-.68-.7-.68-.38,0-.68.32-.68.7,0,.38.32.68.7.68.38,0,.68-.32.68-.7Z"/>
                    <path class="cls-36" d="M269.35,303.7c.05,0,.11,0,.16-.02-.08.12-.12.26-.12.41,0,.41.34.73.75.72.41,0,.73-.34.72-.75,0-.41-.34-.73-.75-.72-.05,0-.1,0-.15.02.08-.12.12-.26.12-.42.08-.13.12-.28.12-.44,0-.46-.39-.83-.85-.82-.46,0-.83.39-.82.85,0,.12.03.23.08.33,0,.03,0,.07,0,.1,0,.41.34.74.75.73Z"/>
                    <path class="cls-36" d="M271.73,300.24c.29,0,.52-.24.52-.54,0-.29-.24-.52-.54-.52-.29,0-.52.24-.52.54,0,.29.24.52.54.52Z"/>
                    <path class="cls-36" d="M273.24,303.79c.38,0,.68-.32.67-.69,0-.15-.05-.28-.13-.39.24-.06.42-.28.41-.54,0-.31-.26-.55-.56-.54-.31,0-.55.26-.54.56,0,.09.03.18.07.26-.34.04-.61.33-.6.68,0,.38.32.68.69.67Z"/>
                    <path class="cls-36" d="M274.94,305.5c.28,0,.5-.23.49-.51,0-.28-.23-.5-.51-.49-.28,0-.5.23-.49.51s.23.5.51.49Z"/>
                    <path class="cls-36" d="M276.16,303.74c.14,0,.25-.12.24-.25,0-.14-.12-.25-.25-.24-.14,0-.25.12-.24.25,0,.14.12.25.25.24Z"/>
                    <path class="cls-36" d="M279.68,302.94c.12,0,.22-.1.21-.22,0-.12-.1-.22-.22-.21s-.22.1-.21.22c0,.12.1.22.22.21Z"/>
                    <path class="cls-36" d="M283.82,305.34c-.38,0-.69.32-.68.71,0,.38.32.69.71.68.38,0,.69-.32.68-.71,0-.38-.32-.69-.71-.68Z"/>
                    <path class="cls-36" d="M288.91,305.3c-.13,0-.22.11-.22.23,0,.13.11.22.23.22.12,0,.22-.11.22-.23,0-.12-.11-.22-.23-.22Z"/>
                    <path class="cls-36" d="M287.46,309.83c-.21,0-.38.18-.38.39,0,.21.18.38.39.38.21,0,.38-.18.38-.39,0-.21-.18-.38-.39-.38Z"/>
                    <path class="cls-36" d="M285.56,313.07c-.13,0-.24.11-.24.25,0,.13.11.24.25.24.13,0,.24-.11.24-.25,0-.13-.11-.24-.25-.24Z"/>
                    <path class="cls-36" d="M286.1,308.01c-.21,0-.38.18-.38.39,0,.21.18.38.39.38.21,0,.38-.18.38-.39,0-.21-.18-.38-.39-.38Z"/>
                    <path class="cls-36" d="M291.59,306.16c-.15,0-.27.13-.27.28,0,.15.13.27.28.27.15,0,.27-.13.27-.28,0-.15-.13-.27-.28-.27Z"/>
                    <path class="cls-36" d="M290.76,300.99c-.36,0-.65.31-.65.67,0,.36.31.65.67.65.36,0,.65-.31.65-.67,0-.36-.31-.65-.67-.65Z"/>
                    <path class="cls-36" d="M285.72,300.65c-.21,0-.38.18-.37.39,0,.21.18.38.39.37.21,0,.38-.18.37-.38,0-.21-.18-.38-.39-.37Z"/>
                    <path class="cls-36" d="M282.77,300.05c.23,0,.42-.2.42-.43,0-.23-.2-.42-.43-.42-.23,0-.42.2-.42.43s.2.42.43.42Z"/>
                    <path class="cls-36" d="M279.83,304.91c-.19,0-.34.16-.33.35,0,.19.16.34.35.33.19,0,.34-.16.33-.35,0-.19-.16-.34-.35-.33Z"/>
                    <path class="cls-36" d="M280.37,299.66c-.16,0-.28.13-.28.29,0,.16.13.28.29.28.16,0,.28-.13.28-.29,0-.16-.13-.28-.29-.28Z"/>
                    <path class="cls-36" d="M270.68,309.35c.26,0,.47-.22.46-.48,0-.26-.22-.47-.48-.46-.26,0-.47.22-.46.48,0,.26.22.47.48.46Z"/>
                    <path class="cls-36" d="M272.09,307.7c0-.06-.05-.1-.1-.1-.06,0-.1.05-.1.1,0,.06.05.1.1.1s.1-.05.1-.1Z"/>
                    <path class="cls-36" d="M274.01,305.37c-.13,0-.22.11-.22.23,0,.12.11.22.23.22.13,0,.22-.11.22-.23,0-.13-.11-.22-.23-.22Z"/>
                    <path class="cls-36" d="M276.38,307.07c0-.25-.21-.45-.46-.45-.25,0-.45.21-.45.46,0,.25.21.45.46.45.25,0,.45-.21.45-.46Z"/>
                    <path class="cls-36" d="M275,308.78c0,.11.09.2.2.2s.2-.09.2-.2c0-.11-.09-.2-.2-.2-.11,0-.2.09-.2.2Z"/>
                    <path class="cls-36" d="M273.79,309.81c0-.09-.07-.15-.16-.15-.09,0-.15.07-.15.16,0,.09.07.15.16.15.09,0,.15-.07.15-.16Z"/>
                    <path class="cls-36" d="M276.02,310.11c0,.1.08.18.18.18.1,0,.18-.08.18-.18,0-.1-.08-.18-.18-.18-.1,0-.18.08-.18.18Z"/>
                    <path class="cls-36" d="M276.22,311.38c-.09,0-.17.08-.17.17,0,.09.08.17.17.17.09,0,.17-.08.17-.17,0-.09-.08-.17-.17-.17Z"/>
                    <path class="cls-36" d="M274.67,312.64c-.12,0-.21.1-.21.21,0,.12.1.21.21.21.12,0,.21-.1.21-.21,0-.12-.1-.21-.21-.21Z"/>
                    <path class="cls-36" d="M271.74,312.54c0,.27.22.48.49.48.27,0,.48-.23.48-.49,0-.27-.22-.48-.49-.48-.27,0-.48.22-.48.49Z"/>
                    <path class="cls-36" d="M275.95,312.95c-.1,0-.17.08-.17.18,0,.1.08.17.18.17.1,0,.17-.08.17-.18,0-.1-.08-.17-.18-.17Z"/>
                    <path class="cls-36" d="M277.85,310.77c-.12,0-.21.1-.21.22,0,.12.1.21.22.21.12,0,.21-.1.21-.22,0-.12-.1-.21-.22-.21Z"/>
                    <path class="cls-36" d="M279.69,309.74c-.06,0-.11.05-.11.11,0,.06.05.11.11.11.06,0,.11-.05.11-.11,0-.06-.05-.11-.11-.11Z"/>
                    <path class="cls-36" d="M279.44,307.1c-.15,0-.27.13-.27.28,0,.15.13.27.28.27.15,0,.27-.13.27-.28,0-.15-.13-.27-.28-.27Z"/>
                    <path class="cls-36" d="M278.2,304.17c0,.15.13.27.28.27.15,0,.27-.13.27-.28,0-.15-.13-.27-.28-.27-.15,0-.27.13-.27.28Z"/>
                    <path class="cls-36" d="M275.55,302.11c.15,0,.26-.12.26-.27,0-.15-.12-.26-.27-.26-.15,0-.26.12-.26.27,0,.15.12.26.27.26Z"/>
                    <path class="cls-36" d="M276.62,300.43c.22,0,.4-.19.4-.41,0-.22-.19-.4-.41-.4-.22,0-.4.19-.4.41,0,.22.19.4.41.4Z"/>
                    <path class="cls-36" d="M278.28,299.6c.09,0,.16-.08.16-.16,0-.09-.08-.16-.16-.16-.09,0-.16.08-.16.16,0,.09.08.16.16.16Z"/>
                    <path class="cls-36" d="M281.67,301.34c0-.14-.11-.24-.25-.24-.13,0-.24.11-.24.25,0,.14.11.24.25.24.13,0,.24-.11.24-.25Z"/>
                    <path class="cls-36" d="M281.7,303.39c.2,0,.35-.16.35-.36,0-.2-.16-.35-.36-.35-.2,0-.35.16-.35.36,0,.2.16.35.36.35Z"/>
                    <path class="cls-36" d="M272.6,300.77c.08,0,.14-.06.13-.14,0-.08-.06-.14-.14-.13s-.14.06-.13.14c0,.08.06.14.14.13Z"/>
                    <path class="cls-36" d="M273.67,299.51s.08,0,.12-.01c-.06.08-.1.17-.1.28,0,.23.2.42.43.42.23,0,.42-.2.42-.43,0-.23-.2-.42-.43-.42,0,0-.01,0-.02,0,.13-.12.22-.29.21-.49,0-.36-.3-.64-.65-.63-.36,0-.64.3-.63.65,0,.36.3.64.65.63Z"/>
                    <path class="cls-36" d="M267.42,301.39c.18,0,.33-.16.33-.34,0-.18-.16-.33-.34-.33-.18,0-.33.16-.33.34,0,.18.16.33.34.33Z"/>
                  </g>
                  <g>
                    <path class="cls-36" d="M270.07,323.2c0-.4-.33-.71-.73-.71-.4,0-.71.33-.71.73,0,.4.33.71.73.71.4,0,.71-.33.71-.73Z"/>
                    <path class="cls-36" d="M269.39,320.59c.16,0,.29-.14.29-.3s-.14-.29-.3-.29c-.16,0-.29.14-.29.3,0,.16.14.29.3.29Z"/>
                    <path class="cls-36" d="M271.5,318.9c0,.1.03.19.07.28-.04.07-.06.15-.06.24,0,.29.24.51.53.51.26,0,.47-.2.5-.46.2-.12.34-.34.33-.6,0-.38-.32-.68-.7-.67-.38,0-.68.32-.67.7Z"/>
                    <path class="cls-36" d="M273.81,321.11s0,0,0,0c-.01-.24-.21-.43-.46-.43-.25,0-.45.21-.44.46,0,.19.13.35.3.42-.02.07-.04.14-.04.22,0,.36.3.65.67.64.36,0,.65-.3.64-.67,0-.36-.3-.65-.67-.64Z"/>
                    <path class="cls-36" d="M273.22,325.55c-.29,0-.53.25-.52.54,0,.29.25.53.54.52.29,0,.53-.25.52-.54s-.25-.53-.54-.52Z"/>
                    <path class="cls-36" d="M271.51,319.94c0-.35-.29-.63-.64-.62-.35,0-.63.29-.62.64,0,.35.29.63.64.62.35,0,.63-.29.62-.64Z"/>
                    <path class="cls-36" d="M277.87,317.17c.6-.01,1.08-.51,1.07-1.11-.01-.6-.51-1.08-1.11-1.07-.6.01-1.08.51-1.07,1.11.01.6.51,1.08,1.11,1.07Z"/>
                    <path class="cls-36" d="M282.74,317.33c-.19,0-.34.16-.34.35,0,.19.16.34.35.34.19,0,.34-.16.34-.35,0-.19-.16-.34-.35-.34Z"/>
                    <path class="cls-36" d="M277.2,320.8c.44,0,.79-.37.78-.81,0-.44-.37-.79-.81-.78s-.79.37-.78.81c0,.44.37.79.81.78Z"/>
                    <path class="cls-36" d="M278.63,323.21c0-.48-.41-.87-.89-.86-.48,0-.87.41-.86.89s.41.87.89.86c.48,0,.87-.41.86-.89Z"/>
                    <path class="cls-36" d="M270.94,327.53c-.27,0-.48.22-.48.49,0,.27.22.48.49.48.27,0,.48-.22.48-.49,0-.27-.22-.48-.49-.48Z"/>
                    <path class="cls-36" d="M275.22,324.97c-.17,0-.31.15-.31.32,0,.17.15.31.32.31.17,0,.31-.15.31-.32,0-.17-.15-.31-.32-.31Z"/>
                    <path class="cls-36" d="M278.61,326.52c-.28,0-.51.24-.51.52,0,.28.24.51.52.51.28,0,.51-.24.51-.52,0-.28-.24-.51-.52-.51Z"/>
                    <path class="cls-36" d="M281.92,324.31c-.15,0-.27.13-.27.28,0,.15.13.27.28.27.15,0,.27-.13.27-.28,0-.15-.13-.27-.28-.27Z"/>
                    <path class="cls-36" d="M282.05,322.28c-.24,0-.43.2-.43.44,0,.24.2.43.44.43.24,0,.43-.2.43-.44,0-.24-.2-.43-.44-.43Z"/>
                    <path class="cls-36" d="M282.11,319.83c0-.24-.2-.43-.44-.42-.24,0-.43.2-.42.44,0,.24.2.43.44.42.24,0,.43-.2.42-.44Z"/>
                    <path class="cls-36" d="M261.74,313.76c.11,0,.2-.09.2-.21,0-.11-.09-.2-.21-.2-.11,0-.2.09-.2.21,0,.11.09.2.21.2Z"/>
                    <path class="cls-36" d="M259.46,316.89c0-.15-.13-.27-.28-.27-.15,0-.27.13-.27.28,0,.15.13.27.28.27.15,0,.27-.13.27-.28Z"/>
                    <path class="cls-36" d="M268.48,327.16c-.08,0-.16.02-.24.05.06-.13.1-.27.1-.43,0-.04,0-.07-.01-.11.05.01.1.02.15.02.29,0,.53-.25.52-.54,0-.29-.25-.53-.54-.52-.25,0-.45.18-.51.41-.16-.11-.35-.18-.56-.18-.18,0-.35.06-.5.16.1-.18.16-.4.16-.62,0-.09-.01-.17-.03-.25.36-.07.62-.39.62-.77,0-.05,0-.09-.02-.13.42-.11.72-.49.71-.94,0-.53-.45-.96-.98-.95-.03,0-.06,0-.08.01.13-.12.21-.29.2-.48,0-.27-.17-.5-.41-.59.02-.08.04-.17.04-.26,0-.03,0-.06,0-.08.22-.07.39-.28.38-.53,0-.22-.14-.41-.33-.49.04-.03.08-.06.11-.09.11.04.23.07.35.06.19,0,.37-.07.51-.17.11.08.25.12.4.12.38,0,.69-.32.68-.71,0-.38-.32-.69-.71-.68-.05,0-.1,0-.15.02-.17-.24-.45-.4-.77-.4-.06,0-.12,0-.17.02,0,0,0-.01,0-.02,0-.41-.34-.73-.75-.72-.26,0-.49.15-.62.36-.12-.06-.25-.1-.39-.1-.06,0-.11,0-.16.02.06-.1.11-.21.15-.32.09.04.18.06.29.05.39,0,.71-.33.7-.73,0-.39-.33-.71-.73-.7-.13,0-.26.04-.37.11-.09-.18-.22-.33-.37-.46.03-.03.05-.06.08-.1.12.27.39.45.7.44.42,0,.75-.35.74-.77,0-.42-.35-.75-.77-.74-.03,0-.05,0-.08,0,.04-.1.06-.21.07-.32.13-.18.21-.41.2-.65-.01-.61-.51-1.09-1.12-1.08-.51,0-.93.36-1.04.83-.2.19-.33.46-.35.76-.25.21-.41.53-.4.89,0,.21.06.4.16.56-.25.14-.46.35-.6.6-.05-.57-.44-1.04-.97-1.2-.17-.19-.41-.31-.69-.31-.5,0-.89.41-.89.91-.13.21-.2.47-.2.73,0,.48.26.9.64,1.14-.13.12-.24.26-.31.43-.03,0-.06,0-.09,0-.49,0-.88.41-.87.9,0,.49.41.88.9.87.1,0,.19-.02.28-.05.19.2.46.32.76.32.13,0,.26-.03.38-.08-.03.08-.04.17-.05.26-.18-.12-.39-.18-.62-.18-.6.01-1.08.51-1.07,1.11,0,.1.02.19.04.27-.02.09-.04.19-.03.29,0,.06,0,.12.02.18-.27.22-.43.56-.43.93.01.62.5,1.12,1.1,1.16-.03.09-.05.19-.05.3,0,.18.06.35.15.49-.09-.02-.18-.03-.27-.03-.15,0-.29.03-.41.08.05-.1.07-.2.07-.32,0-.39-.33-.71-.73-.7-.39,0-.71.33-.7.73,0,.39.33.71.73.7.04,0,.08,0,.12-.01,0,0,0,0,0,0-.15.2-.23.45-.23.72.01.65.55,1.17,1.2,1.16.42,0,.78-.23.98-.56.05.05.1.1.16.14-.21.14-.34.38-.34.66,0,.16.05.3.14.43-.04.08-.07.16-.09.24-.21-.25-.53-.41-.88-.41-.62.01-1.12.52-1.1,1.14.01.62.52,1.12,1.14,1.1.46,0,.85-.29,1.02-.69.26.4.71.66,1.22.65.78-.01,1.41-.66,1.39-1.44,0-.14-.03-.27-.06-.4.02,0,.04,0,.06,0,.26,0,.46-.22.46-.48,0,0,0-.01,0-.02.29-.07.51-.28.61-.55.08.05.18.08.28.08.11,0,.2-.04.28-.1.02,0,.04,0,.06,0,.27,0,.52-.1.73-.25-.05.1-.08.22-.09.34-.53.04-.94.47-.96,1-.1-.03-.2-.05-.31-.05-.58.01-1.05.49-1.04,1.07.01.58.49,1.05,1.07,1.04.44,0,.82-.29.96-.68.17.22.43.36.73.35.5,0,.9-.42.89-.92,0-.25-.11-.47-.27-.63,0-.06.02-.12.02-.18,0,0,0,0,0-.01.1-.02.2-.05.28-.1-.03.07-.04.15-.04.24,0,.38.32.68.7.67.38,0,.68-.32.67-.7,0-.38-.32-.68-.7-.67ZM261.57,325.14c-.04-.08-.08-.15-.14-.22.04,0,.08.01.13.01.32,0,.6-.17.76-.42.03.24.16.44.35.56-.02.01-.04.02-.05.03-.14-.11-.32-.18-.52-.18-.21,0-.39.09-.53.22ZM262.48,323.97c-.01-.42-.3-.76-.69-.87.05-.1.09-.2.12-.31.14.21.33.38.55.49,0,0,0,.02,0,.02,0,.2.05.39.13.55-.04.03-.07.07-.11.11ZM263.13,320.65s.01.03.02.05c-.03,0-.05,0-.08,0,.02-.01.04-.03.06-.05ZM264.16,321.28s0,0,0,0c.03,0,.05,0,.08,0,0,0,0,0,0,0h0s-.06,0-.09,0c0,0,0,0,0-.01ZM266.43,320.21c-.06-.01-.13-.02-.2-.02,0,0,0,0,0,0,.06-.09.11-.2.14-.31.06.05.14.1.22.12-.07.05-.12.12-.16.21ZM266.32,318.93s0-.03,0-.04c.02-.03.04-.07.06-.1.03.01.06.02.09.03-.06.03-.11.07-.16.12ZM264.63,318.84c-.06-.11-.14-.2-.24-.27.17-.07.31-.18.42-.32.03-.01.06-.03.09-.04-.02.07-.04.15-.03.23,0,.07.02.15.04.21-.1.05-.19.11-.27.19ZM262.18,321.01s-.03-.07-.04-.1c0-.02,0-.05,0-.07,0-.03,0-.05,0-.08.09.05.18.08.28.09-.08.04-.16.1-.24.15ZM266.4,323.33c0,.14.03.27.09.38-.19.11-.33.29-.38.51-.1-.02-.21-.04-.32-.04-.37,0-.7.17-.92.43-.05-.05-.1-.09-.16-.13,0-.05-.02-.09-.04-.13.05,0,.09.01.14.01.55,0,.98-.46.97-1.01,0-.29-.13-.54-.33-.72,0-.06.02-.13.01-.2,0,0,0,0,0,0,.3-.02.56-.16.75-.37.08.26.31.45.59.46-.25.18-.4.47-.4.8ZM263.16,318.07c-.09.09-.14.22-.14.36,0,.14.07.27.16.36-.08.12-.13.26-.14.41-.14-.09-.32-.15-.5-.14-.1,0-.19.02-.28.05.04-.1.06-.2.06-.31.13-.19.2-.41.2-.66,0-.12-.03-.24-.06-.36.1-.08.18-.17.24-.29.11.23.27.43.46.58Z"/>
                    <path class="cls-36" d="M268.7,325.13c.29,0,.51-.24.51-.53,0-.29-.24-.51-.53-.51-.29,0-.51.24-.51.53,0,.29.24.51.53.51Z"/>
                    <path class="cls-36" d="M268.12,321.5c0,.3.25.54.56.54.3,0,.54-.25.54-.56,0-.3-.25-.54-.56-.54-.3,0-.54.25-.54.56Z"/>
                    <path class="cls-36" d="M267.11,316.92c0,.24.2.43.44.43.24,0,.43-.2.43-.44,0-.24-.2-.43-.44-.43-.24,0-.43.2-.43.44Z"/>
                    <path class="cls-36" d="M268.25,314.65c.09,0,.17-.02.24-.05,0,0,0,.01,0,.02,0,.53.45.96.98.95.53,0,.96-.45.95-.98,0-.3-.15-.56-.37-.74.1-.16.16-.35.16-.55,0-.54-.46-.98-1-.97-.54,0-.98.46-.97,1,0,0,0,0,0,0,0,0-.02,0-.02,0-.37,0-.66.31-.65.67,0,.37.31.66.67.65Z"/>
                    <path class="cls-36" d="M271,316.85c.44,0,.79-.37.79-.81,0-.44-.37-.79-.81-.79s-.79.37-.79.81.37.79.81.79Z"/>
                    <path class="cls-36" d="M271.31,325.34c0-.43-.36-.77-.79-.76-.43,0-.77.36-.76.79s.36.77.79.76c.43,0,.77-.36.76-.79Z"/>
                    <path class="cls-36" d="M272.48,327.56c-.58.01-1.05.49-1.04,1.07.01.58.49,1.05,1.07,1.04.58-.01,1.05-.49,1.04-1.07,0-.58-.49-1.05-1.07-1.04Z"/>
                    <path class="cls-36" d="M272.63,323.12s.02-.09.02-.14c0-.3-.25-.53-.55-.53-.3,0-.53.25-.53.55,0,.12.04.22.11.31-.06.1-.1.22-.09.35,0,.36.3.65.67.64.36,0,.65-.3.64-.67,0-.21-.11-.39-.26-.51Z"/>
                    <path class="cls-36" d="M271.07,321.27c0-.38-.32-.68-.7-.68-.38,0-.68.32-.68.7,0,.38.32.68.7.68.38,0,.68-.32.68-.7Z"/>
                    <path class="cls-36" d="M269.35,317.91c.05,0,.11,0,.16-.02-.08.12-.12.26-.12.41,0,.41.34.73.75.72.41,0,.73-.34.72-.75,0-.41-.34-.73-.75-.72-.05,0-.1,0-.15.02.08-.12.12-.26.12-.42.08-.13.12-.28.12-.44,0-.46-.39-.83-.85-.82-.46,0-.83.39-.82.85,0,.12.03.23.08.33,0,.03,0,.07,0,.1,0,.41.34.74.75.73Z"/>
                    <path class="cls-36" d="M271.73,314.44c.29,0,.52-.24.52-.54,0-.29-.24-.52-.54-.52s-.52.24-.52.54c0,.29.24.52.54.52Z"/>
                    <path class="cls-36" d="M273.24,317.99c.38,0,.68-.32.67-.69,0-.15-.05-.28-.13-.39.24-.06.42-.28.41-.54,0-.31-.26-.55-.56-.54-.31,0-.55.26-.54.56,0,.09.03.18.07.26-.34.04-.61.33-.6.68,0,.38.32.68.69.67Z"/>
                    <path class="cls-36" d="M274.94,319.7c.28,0,.5-.23.49-.51,0-.28-.23-.5-.51-.49-.28,0-.5.23-.49.51s.23.5.51.49Z"/>
                    <path class="cls-36" d="M276.16,317.94c.14,0,.25-.12.24-.25s-.12-.25-.25-.24c-.14,0-.25.12-.24.25,0,.14.12.25.25.24Z"/>
                    <path class="cls-36" d="M279.68,317.14c.12,0,.22-.1.21-.22,0-.12-.1-.22-.22-.21-.12,0-.22.1-.21.22,0,.12.1.22.22.21Z"/>
                    <path class="cls-36" d="M283.82,319.55c-.38,0-.69.32-.68.71s.32.69.71.68c.38,0,.69-.32.68-.71,0-.38-.32-.69-.71-.68Z"/>
                    <path class="cls-36" d="M288.91,319.5c-.13,0-.22.11-.22.23,0,.13.11.22.23.22.12,0,.22-.11.22-.23,0-.13-.11-.22-.23-.22Z"/>
                    <path class="cls-36" d="M287.46,324.03c-.21,0-.38.18-.38.39,0,.21.18.38.39.38.21,0,.38-.18.38-.39,0-.21-.18-.38-.39-.38Z"/>
                    <path class="cls-36" d="M285.56,327.28c-.13,0-.24.11-.24.25,0,.13.11.24.25.24.13,0,.24-.11.24-.25,0-.13-.11-.24-.25-.24Z"/>
                    <path class="cls-36" d="M286.1,322.21c-.21,0-.38.18-.38.39,0,.21.18.38.39.38.21,0,.38-.18.38-.39,0-.21-.18-.38-.39-.38Z"/>
                    <path class="cls-36" d="M291.59,320.36c-.15,0-.27.13-.27.28,0,.15.13.27.28.27.15,0,.27-.13.27-.28s-.13-.27-.28-.27Z"/>
                    <path class="cls-36" d="M290.76,315.19c-.36,0-.65.31-.65.67,0,.36.31.65.67.65.36,0,.65-.31.65-.67,0-.36-.31-.65-.67-.65Z"/>
                    <path class="cls-36" d="M285.72,314.85c-.21,0-.38.18-.37.39,0,.21.18.38.39.37.21,0,.38-.18.37-.39,0-.21-.18-.38-.39-.37Z"/>
                    <path class="cls-36" d="M282.77,314.25c.23,0,.42-.2.42-.43,0-.23-.2-.42-.43-.42-.23,0-.42.2-.42.43,0,.23.2.42.43.42Z"/>
                    <path class="cls-36" d="M279.83,319.11c-.19,0-.34.16-.33.35,0,.19.16.34.35.33.19,0,.34-.16.33-.35,0-.19-.16-.34-.35-.33Z"/>
                    <path class="cls-36" d="M280.37,313.86c-.16,0-.28.13-.28.29,0,.16.13.28.29.28.16,0,.28-.13.28-.29,0-.16-.13-.28-.29-.28Z"/>
                    <path class="cls-36" d="M270.68,323.55c.26,0,.47-.22.46-.48,0-.26-.22-.47-.48-.46-.26,0-.47.22-.46.48,0,.26.22.47.48.46Z"/>
                    <path class="cls-36" d="M272.09,321.9c0-.06-.05-.1-.1-.1-.06,0-.1.05-.1.1,0,.06.05.1.1.1.06,0,.1-.05.1-.1Z"/>
                    <path class="cls-36" d="M274.01,319.57c-.13,0-.22.11-.22.23,0,.12.11.22.23.22.13,0,.22-.11.22-.23,0-.12-.11-.22-.23-.22Z"/>
                    <path class="cls-36" d="M276.38,321.27c0-.25-.21-.45-.46-.45-.25,0-.45.21-.45.46,0,.25.21.45.46.45.25,0,.45-.21.45-.46Z"/>
                    <path class="cls-36" d="M275,322.98c0,.11.09.2.2.2s.2-.09.2-.2c0-.11-.09-.2-.2-.2-.11,0-.2.09-.2.2Z"/>
                    <path class="cls-36" d="M273.79,324.01c0-.09-.07-.15-.16-.15-.09,0-.15.07-.15.16,0,.09.07.15.16.15.09,0,.15-.07.15-.16Z"/>
                    <path class="cls-36" d="M276.02,324.31c0,.1.08.18.18.18.1,0,.18-.08.18-.18,0-.1-.08-.18-.18-.18-.1,0-.18.08-.18.18Z"/>
                    <path class="cls-36" d="M276.22,325.58c-.09,0-.17.08-.17.17,0,.09.08.17.17.17.09,0,.17-.08.17-.17,0-.09-.08-.17-.17-.17Z"/>
                    <path class="cls-36" d="M274.67,326.84c-.12,0-.21.1-.21.21,0,.12.1.21.21.21.12,0,.21-.1.21-.21,0-.12-.1-.21-.21-.21Z"/>
                    <path class="cls-36" d="M271.74,326.74c0,.27.22.48.49.48.27,0,.48-.22.48-.49,0-.27-.22-.48-.49-.48-.27,0-.48.22-.48.49Z"/>
                    <path class="cls-36" d="M275.95,327.15c-.1,0-.17.08-.17.18,0,.1.08.17.18.17.1,0,.17-.08.17-.18,0-.1-.08-.17-.18-.17Z"/>
                    <path class="cls-36" d="M277.85,324.97c-.12,0-.21.1-.21.22,0,.12.1.21.22.21.12,0,.21-.1.21-.22s-.1-.21-.22-.21Z"/>
                    <path class="cls-36" d="M279.69,323.94c-.06,0-.11.05-.11.11,0,.06.05.11.11.11s.11-.05.11-.11c0-.06-.05-.11-.11-.11Z"/>
                    <path class="cls-36" d="M279.44,321.31c-.15,0-.27.13-.27.28,0,.15.13.27.28.27.15,0,.27-.13.27-.28,0-.15-.13-.27-.28-.27Z"/>
                    <path class="cls-36" d="M278.2,318.37c0,.15.13.27.28.27.15,0,.27-.13.27-.28,0-.15-.13-.27-.28-.27-.15,0-.27.13-.27.28Z"/>
                    <path class="cls-36" d="M275.55,316.31c.15,0,.26-.12.26-.27,0-.15-.12-.26-.27-.26-.15,0-.26.12-.26.27,0,.15.12.26.27.26Z"/>
                    <path class="cls-36" d="M276.62,314.63c.22,0,.4-.19.4-.41,0-.22-.19-.4-.41-.4-.22,0-.4.19-.4.41,0,.22.19.4.41.4Z"/>
                    <path class="cls-36" d="M278.28,313.8c.09,0,.16-.08.16-.16,0-.09-.08-.16-.16-.16-.09,0-.16.08-.16.16,0,.09.08.16.16.16Z"/>
                    <path class="cls-36" d="M281.67,315.55c0-.14-.11-.24-.25-.24-.13,0-.24.11-.24.25,0,.14.11.24.25.24.13,0,.24-.11.24-.25Z"/>
                    <path class="cls-36" d="M281.7,317.6c.2,0,.35-.16.35-.36,0-.2-.16-.35-.36-.35-.2,0-.35.16-.35.36,0,.2.16.35.36.35Z"/>
                    <path class="cls-36" d="M272.6,314.98c.08,0,.14-.06.13-.14,0-.08-.06-.14-.14-.13-.08,0-.14.06-.13.14,0,.08.06.14.14.13Z"/>
                    <path class="cls-36" d="M273.67,313.71s.08,0,.12-.01c-.06.08-.1.17-.1.28,0,.23.2.42.43.42.23,0,.42-.2.42-.43,0-.23-.2-.42-.43-.42,0,0-.01,0-.02,0,.13-.12.22-.29.21-.49,0-.36-.3-.64-.65-.63-.36,0-.64.3-.63.65,0,.36.3.64.65.63Z"/>
                    <path class="cls-36" d="M267.42,315.6c.18,0,.33-.15.33-.34,0-.18-.16-.33-.34-.33-.18,0-.33.16-.33.34,0,.18.16.33.34.33Z"/>
                  </g>
                  <g>
                    <path class="cls-36" d="M270.07,337.4c0-.4-.33-.71-.73-.71-.4,0-.71.33-.71.73,0,.4.33.71.73.71.4,0,.71-.33.71-.73Z"/>
                    <path class="cls-36" d="M269.39,334.79c.16,0,.29-.14.29-.3s-.14-.29-.3-.29c-.16,0-.29.14-.29.3,0,.16.14.29.3.29Z"/>
                    <path class="cls-36" d="M271.5,333.1c0,.1.03.19.07.28-.04.07-.06.15-.06.24,0,.29.24.51.53.51.26,0,.47-.2.5-.46.2-.12.34-.34.33-.6,0-.38-.32-.68-.7-.67-.38,0-.68.32-.67.7Z"/>
                    <path class="cls-36" d="M273.81,335.31s0,0,0,0c-.01-.24-.21-.43-.46-.43-.25,0-.45.21-.44.46,0,.19.13.35.3.42-.02.07-.04.14-.04.22,0,.36.3.65.67.64.36,0,.65-.3.64-.67,0-.36-.3-.65-.67-.64Z"/>
                    <path class="cls-36" d="M273.22,339.75c-.29,0-.53.25-.52.54,0,.29.25.53.54.52.29,0,.53-.25.52-.54s-.25-.53-.54-.52Z"/>
                    <path class="cls-36" d="M271.51,334.14c0-.35-.29-.63-.64-.62-.35,0-.63.29-.62.64,0,.35.29.63.64.62.35,0,.63-.29.62-.64Z"/>
                    <path class="cls-36" d="M277.87,331.38c.6-.01,1.08-.51,1.07-1.11-.01-.6-.51-1.08-1.11-1.07-.6.01-1.08.51-1.07,1.11.01.6.51,1.08,1.11,1.07Z"/>
                    <path class="cls-36" d="M282.74,331.53c-.19,0-.34.16-.34.35,0,.19.16.34.35.34.19,0,.34-.16.34-.35,0-.19-.16-.34-.35-.34Z"/>
                    <path class="cls-36" d="M277.2,335c.44,0,.79-.37.78-.81,0-.44-.37-.79-.81-.78-.44,0-.79.37-.78.81,0,.44.37.79.81.78Z"/>
                    <path class="cls-36" d="M278.63,337.41c0-.48-.41-.87-.89-.86-.48,0-.87.41-.86.89,0,.48.41.87.89.86.48,0,.87-.41.86-.89Z"/>
                    <path class="cls-36" d="M270.94,341.73c-.27,0-.48.22-.48.49,0,.27.22.48.49.48.27,0,.48-.22.48-.49,0-.27-.22-.48-.49-.48Z"/>
                    <path class="cls-36" d="M275.22,339.17c-.17,0-.31.15-.31.32,0,.17.15.31.32.31.17,0,.31-.15.31-.32,0-.17-.15-.31-.32-.31Z"/>
                    <path class="cls-36" d="M278.61,340.72c-.28,0-.51.24-.51.52,0,.28.24.51.52.51.28,0,.51-.24.51-.52s-.24-.51-.52-.51Z"/>
                    <path class="cls-36" d="M281.92,338.51c-.15,0-.27.13-.27.28,0,.15.13.27.28.27s.27-.13.27-.28c0-.15-.13-.27-.28-.27Z"/>
                    <path class="cls-36" d="M282.05,336.48c-.24,0-.43.2-.43.44,0,.24.2.43.44.43.24,0,.43-.2.43-.44,0-.24-.2-.43-.44-.43Z"/>
                    <path class="cls-36" d="M282.11,334.03c0-.24-.2-.43-.44-.42-.24,0-.43.2-.42.44,0,.24.2.43.44.42.24,0,.43-.2.42-.44Z"/>
                    <path class="cls-36" d="M261.74,327.96c.11,0,.2-.09.2-.21,0-.11-.09-.2-.21-.2-.11,0-.2.09-.2.21,0,.11.09.2.21.2Z"/>
                    <path class="cls-36" d="M259.46,331.09c0-.15-.13-.27-.28-.27-.15,0-.27.13-.27.28s.13.27.28.27c.15,0,.27-.13.27-.28Z"/>
                    <path class="cls-36" d="M268.48,341.36c-.08,0-.16.02-.24.05.06-.13.1-.27.1-.43,0-.04,0-.07-.01-.11.05.01.1.02.15.02.29,0,.53-.25.52-.54,0-.29-.25-.53-.54-.52-.25,0-.45.18-.51.41-.16-.11-.35-.18-.56-.18-.18,0-.35.06-.5.16.1-.18.16-.4.16-.62,0-.09-.01-.17-.03-.25.36-.07.62-.39.62-.77,0-.05,0-.09-.02-.13.42-.11.72-.49.71-.94,0-.53-.45-.96-.98-.95-.03,0-.06,0-.08,0,.13-.12.21-.29.2-.48,0-.27-.17-.5-.41-.59.02-.08.04-.17.04-.26,0-.03,0-.06,0-.08.22-.07.39-.28.38-.53,0-.22-.14-.41-.33-.49.04-.03.08-.06.11-.09.11.04.23.07.35.06.19,0,.37-.07.51-.17.11.08.25.12.4.12.38,0,.69-.32.68-.71,0-.38-.32-.69-.71-.68-.05,0-.1,0-.15.02-.17-.24-.45-.4-.77-.4-.06,0-.12,0-.17.02,0,0,0-.01,0-.02,0-.41-.34-.73-.75-.72-.26,0-.49.15-.62.36-.12-.06-.25-.1-.39-.1-.06,0-.11,0-.16.02.06-.1.11-.21.15-.32.09.04.18.06.29.05.39,0,.71-.33.7-.73,0-.39-.33-.71-.73-.7-.13,0-.26.04-.37.11-.09-.18-.22-.33-.37-.46.03-.03.05-.06.08-.1.12.27.39.45.7.44.42,0,.75-.35.74-.77,0-.42-.35-.75-.77-.74-.03,0-.05,0-.08,0,.04-.1.06-.21.07-.32.13-.18.21-.41.2-.65-.01-.61-.51-1.09-1.12-1.08-.51,0-.93.36-1.04.83-.2.19-.33.46-.35.76-.25.21-.41.53-.4.89,0,.21.06.4.16.56-.25.14-.46.35-.6.6-.05-.57-.44-1.04-.97-1.2-.17-.19-.41-.31-.69-.31-.5,0-.89.41-.89.91-.13.21-.2.47-.2.73,0,.48.26.9.64,1.14-.13.12-.24.26-.31.43-.03,0-.06,0-.09,0-.49,0-.88.41-.87.9,0,.49.41.88.9.87.1,0,.19-.02.28-.05.19.2.46.32.76.32.13,0,.26-.03.38-.08-.03.08-.04.17-.05.26-.18-.12-.39-.18-.62-.18-.6.01-1.08.51-1.07,1.11,0,.1.02.19.04.27-.02.09-.04.19-.03.29,0,.06,0,.12.02.18-.27.22-.43.56-.43.93.01.62.5,1.12,1.1,1.16-.03.09-.05.19-.05.3,0,.18.06.35.15.49-.09-.02-.18-.03-.27-.03-.15,0-.29.03-.41.08.05-.1.07-.2.07-.32,0-.39-.33-.71-.73-.7-.39,0-.71.33-.7.73,0,.39.33.71.73.7.04,0,.08,0,.12-.01,0,0,0,0,0,0-.15.2-.23.45-.23.72.01.65.55,1.17,1.2,1.16.42,0,.78-.23.98-.56.05.05.1.1.16.14-.21.14-.34.38-.34.66,0,.16.05.3.14.43-.04.08-.07.16-.09.24-.21-.25-.53-.41-.88-.41-.62.01-1.12.52-1.1,1.14.01.62.52,1.12,1.14,1.1.46,0,.85-.29,1.02-.69.26.4.71.66,1.22.65.78-.01,1.41-.66,1.39-1.44,0-.14-.03-.27-.06-.4.02,0,.04,0,.06,0,.26,0,.46-.22.46-.48,0,0,0-.01,0-.02.29-.07.51-.28.61-.55.08.05.18.08.28.08.11,0,.2-.04.28-.1.02,0,.04,0,.06,0,.27,0,.52-.1.73-.25-.05.1-.08.22-.09.34-.53.04-.94.47-.96,1-.1-.03-.2-.05-.31-.05-.58,0-1.05.49-1.04,1.07.01.58.49,1.05,1.07,1.04.44,0,.82-.29.96-.68.17.22.43.36.73.35.5,0,.9-.42.89-.92,0-.25-.11-.47-.27-.63,0-.06.02-.12.02-.18,0,0,0,0,0-.01.1-.02.2-.05.28-.1-.03.07-.04.15-.04.24,0,.38.32.68.7.67.38,0,.68-.32.67-.7,0-.38-.32-.68-.7-.67ZM261.57,339.34c-.04-.08-.08-.15-.14-.22.04,0,.08.01.13.01.32,0,.6-.17.76-.42.03.24.16.44.35.56-.02.01-.04.02-.05.03-.14-.11-.32-.18-.52-.18-.21,0-.39.09-.53.22ZM262.48,338.17c-.01-.42-.3-.76-.69-.87.05-.1.09-.2.12-.31.14.21.33.38.55.49,0,0,0,.02,0,.02,0,.2.05.39.13.55-.04.03-.07.07-.11.11ZM263.13,334.86s.01.03.02.05c-.03,0-.05,0-.08,0,.02-.01.04-.03.06-.05ZM264.16,335.48s0,0,0,0c.03,0,.05,0,.08,0,0,0,0,0,0,0,0,0,0,0,0,0-.03,0-.06,0-.09,0,0,0,0,0,0-.01ZM266.43,334.41c-.06-.01-.13-.02-.2-.02,0,0,0,0,0,0,.06-.09.11-.2.14-.31.06.05.14.1.22.12-.07.05-.12.12-.16.21ZM266.32,333.13s0-.03,0-.04c.02-.03.04-.07.06-.1.03.01.06.02.09.03-.06.03-.11.07-.16.12ZM264.63,333.05c-.06-.11-.14-.2-.24-.27.17-.07.31-.18.42-.32.03-.01.06-.03.09-.04-.02.07-.04.15-.03.23,0,.07.02.15.04.21-.1.05-.19.11-.27.19ZM262.18,335.21s-.03-.07-.04-.1c0-.02,0-.05,0-.07,0-.03,0-.05,0-.08.09.05.18.08.28.09-.08.04-.16.1-.24.15ZM266.4,337.53c0,.14.03.27.09.38-.19.11-.33.29-.38.51-.1-.02-.21-.04-.32-.04-.37,0-.7.17-.92.43-.05-.05-.1-.09-.16-.13,0-.05-.02-.09-.04-.13.05,0,.09.01.14.01.55,0,.98-.46.97-1.01,0-.29-.13-.54-.33-.72,0-.06.02-.13.01-.2,0,0,0,0,0,0,.3-.02.56-.16.75-.37.08.26.31.45.59.46-.25.18-.4.47-.4.8ZM263.16,332.27c-.09.09-.14.22-.14.36,0,.14.07.27.16.36-.08.12-.13.26-.14.41-.14-.09-.32-.15-.5-.14-.1,0-.19.02-.28.05.04-.1.06-.2.06-.31.13-.19.2-.41.2-.66,0-.12-.03-.24-.06-.36.1-.08.18-.17.24-.29.11.23.27.43.46.58Z"/>
                    <path class="cls-36" d="M268.7,339.33c.29,0,.51-.24.51-.53,0-.29-.24-.51-.53-.51-.29,0-.51.24-.51.53,0,.29.24.51.53.51Z"/>
                    <path class="cls-36" d="M268.12,335.7c0,.3.25.54.56.54.3,0,.54-.25.54-.56,0-.3-.25-.54-.56-.54-.3,0-.54.25-.54.56Z"/>
                    <path class="cls-36" d="M267.11,331.12c0,.24.2.43.44.43.24,0,.43-.2.43-.44,0-.24-.2-.43-.44-.43-.24,0-.43.2-.43.44Z"/>
                    <path class="cls-36" d="M268.25,328.85c.09,0,.17-.02.24-.05,0,0,0,.01,0,.02,0,.53.45.96.98.95.53,0,.96-.45.95-.98,0-.3-.15-.56-.37-.74.1-.16.16-.35.16-.55,0-.54-.46-.98-1-.97-.54,0-.98.46-.97,1,0,0,0,0,0,0,0,0-.02,0-.02,0-.37,0-.66.31-.65.67,0,.37.31.66.67.65Z"/>
                    <path class="cls-36" d="M271,331.06c.44,0,.79-.37.79-.81,0-.44-.37-.79-.81-.79-.44,0-.79.37-.79.81s.37.79.81.79Z"/>
                    <path class="cls-36" d="M271.31,339.54c0-.43-.36-.77-.79-.76-.43,0-.77.36-.76.79,0,.43.36.77.79.76.43,0,.77-.36.76-.79Z"/>
                    <path class="cls-36" d="M272.48,341.76c-.58.01-1.05.49-1.04,1.07.01.58.49,1.05,1.07,1.04.58-.01,1.05-.49,1.04-1.07,0-.58-.49-1.05-1.07-1.04Z"/>
                    <path class="cls-36" d="M272.63,337.32s.02-.09.02-.14c0-.3-.25-.53-.55-.53-.3,0-.53.25-.53.55,0,.12.04.22.11.31-.06.1-.1.22-.09.35,0,.36.3.65.67.64.36,0,.65-.3.64-.67,0-.21-.11-.39-.26-.51Z"/>
                    <path class="cls-36" d="M271.07,335.47c0-.38-.32-.68-.7-.68-.38,0-.68.32-.68.7,0,.38.32.68.7.68.38,0,.68-.32.68-.7Z"/>
                    <path class="cls-36" d="M269.35,332.11c.05,0,.11,0,.16-.02-.08.12-.12.26-.12.41,0,.41.34.73.75.72.41,0,.73-.34.72-.75,0-.41-.34-.73-.75-.72-.05,0-.1,0-.15.02.08-.12.12-.26.12-.42.08-.13.12-.28.12-.44,0-.46-.39-.83-.85-.82-.46,0-.83.39-.82.85,0,.12.03.23.08.33,0,.03,0,.07,0,.1,0,.41.34.74.75.73Z"/>
                    <path class="cls-36" d="M271.73,328.64c.29,0,.52-.24.52-.54,0-.29-.24-.52-.54-.52s-.52.24-.52.54c0,.29.24.52.54.52Z"/>
                    <path class="cls-36" d="M273.24,332.19c.38,0,.68-.32.67-.69,0-.15-.05-.28-.13-.39.24-.06.42-.28.41-.54,0-.31-.26-.55-.56-.54-.31,0-.55.26-.54.56,0,.09.03.18.07.26-.34.04-.61.33-.6.68,0,.38.32.68.69.67Z"/>
                    <path class="cls-36" d="M274.94,333.9c.28,0,.5-.23.49-.51,0-.28-.23-.5-.51-.49-.28,0-.5.23-.49.51s.23.5.51.49Z"/>
                    <path class="cls-36" d="M276.16,332.14c.14,0,.25-.12.24-.25,0-.14-.12-.25-.25-.24-.14,0-.25.12-.24.25,0,.14.12.25.25.24Z"/>
                    <path class="cls-36" d="M279.68,331.34c.12,0,.22-.1.21-.22,0-.12-.1-.22-.22-.21-.12,0-.22.1-.21.22,0,.12.1.22.22.21Z"/>
                    <path class="cls-36" d="M283.82,333.75c-.38,0-.69.32-.68.71s.32.69.71.68c.38,0,.69-.32.68-.71,0-.38-.32-.69-.71-.68Z"/>
                    <path class="cls-36" d="M288.91,333.71c-.13,0-.22.11-.22.23,0,.13.11.22.23.22.12,0,.22-.11.22-.23,0-.13-.11-.22-.23-.22Z"/>
                    <path class="cls-36" d="M287.46,338.24c-.21,0-.38.18-.38.39,0,.21.18.38.39.38.21,0,.38-.18.38-.39,0-.21-.18-.38-.39-.38Z"/>
                    <path class="cls-36" d="M285.56,341.48c-.13,0-.24.11-.24.25,0,.13.11.24.25.24.13,0,.24-.11.24-.25,0-.13-.11-.24-.25-.24Z"/>
                    <path class="cls-36" d="M286.1,336.41c-.21,0-.38.18-.38.39,0,.21.18.38.39.38.21,0,.38-.18.38-.39,0-.21-.18-.38-.39-.38Z"/>
                    <path class="cls-36" d="M291.59,334.57c-.15,0-.27.13-.27.28,0,.15.13.27.28.27.15,0,.27-.13.27-.28s-.13-.27-.28-.27Z"/>
                    <path class="cls-36" d="M290.76,329.4c-.36,0-.65.31-.65.67,0,.36.31.65.67.65.36,0,.65-.31.65-.67,0-.36-.31-.65-.67-.65Z"/>
                    <path class="cls-36" d="M285.72,329.05c-.21,0-.38.18-.37.39,0,.21.18.38.39.37.21,0,.38-.18.37-.39,0-.21-.18-.38-.39-.37Z"/>
                    <path class="cls-36" d="M282.77,328.45c.23,0,.42-.2.42-.43,0-.23-.2-.42-.43-.42-.23,0-.42.2-.42.43,0,.23.2.42.43.42Z"/>
                    <path class="cls-36" d="M279.83,333.32c-.19,0-.34.16-.33.35,0,.19.16.34.35.33.19,0,.34-.16.33-.35,0-.19-.16-.34-.35-.33Z"/>
                    <path class="cls-36" d="M280.37,328.07c-.16,0-.28.13-.28.29,0,.16.13.28.29.28.16,0,.28-.13.28-.29,0-.16-.13-.28-.29-.28Z"/>
                    <path class="cls-36" d="M270.68,337.75c.26,0,.47-.22.46-.48,0-.26-.22-.47-.48-.46-.26,0-.47.22-.46.48,0,.26.22.47.48.46Z"/>
                    <path class="cls-36" d="M272.09,336.1c0-.06-.05-.1-.1-.1-.06,0-.1.05-.1.1,0,.06.05.1.1.1.06,0,.1-.05.1-.1Z"/>
                    <path class="cls-36" d="M274.01,333.77c-.13,0-.22.11-.22.23,0,.12.11.22.23.22.13,0,.22-.11.22-.23,0-.12-.11-.22-.23-.22Z"/>
                    <path class="cls-36" d="M276.38,335.47c0-.25-.21-.45-.46-.45-.25,0-.45.21-.45.46s.21.45.46.45c.25,0,.45-.21.45-.46Z"/>
                    <path class="cls-36" d="M275,337.18c0,.11.09.2.2.2s.2-.09.2-.2c0-.11-.09-.2-.2-.2s-.2.09-.2.2Z"/>
                    <path class="cls-36" d="M273.79,338.21c0-.09-.07-.15-.16-.15-.09,0-.15.07-.15.16,0,.09.07.15.16.15.09,0,.15-.07.15-.16Z"/>
                    <path class="cls-36" d="M276.02,338.51c0,.1.08.18.18.18.1,0,.18-.08.18-.18,0-.1-.08-.18-.18-.18-.1,0-.18.08-.18.18Z"/>
                    <path class="cls-36" d="M276.22,339.78c-.09,0-.17.08-.17.17,0,.09.08.17.17.17.09,0,.17-.08.17-.17,0-.09-.08-.17-.17-.17Z"/>
                    <path class="cls-36" d="M274.67,341.04c-.12,0-.21.1-.21.21,0,.12.1.21.21.21.12,0,.21-.1.21-.21,0-.12-.1-.21-.21-.21Z"/>
                    <path class="cls-36" d="M271.74,340.94c0,.27.22.48.49.48.27,0,.48-.22.48-.49,0-.27-.22-.48-.49-.48-.27,0-.48.22-.48.49Z"/>
                    <path class="cls-36" d="M275.95,341.36c-.1,0-.17.08-.17.18,0,.1.08.17.18.17.1,0,.17-.08.17-.18,0-.1-.08-.17-.18-.17Z"/>
                    <path class="cls-36" d="M277.85,339.17c-.12,0-.21.1-.21.22,0,.12.1.21.22.21.12,0,.21-.1.21-.22s-.1-.21-.22-.21Z"/>
                    <path class="cls-36" d="M279.69,338.15c-.06,0-.11.05-.11.11,0,.06.05.11.11.11.06,0,.11-.05.11-.11,0-.06-.05-.11-.11-.11Z"/>
                    <path class="cls-36" d="M279.44,335.51c-.15,0-.27.13-.27.28,0,.15.13.27.28.27s.27-.13.27-.28c0-.15-.13-.27-.28-.27Z"/>
                    <path class="cls-36" d="M278.2,332.57c0,.15.13.27.28.27.15,0,.27-.13.27-.28,0-.15-.13-.27-.28-.27-.15,0-.27.13-.27.28Z"/>
                    <path class="cls-36" d="M275.55,330.52c.15,0,.26-.12.26-.27,0-.15-.12-.26-.27-.26-.15,0-.26.12-.26.27,0,.15.12.26.27.26Z"/>
                    <path class="cls-36" d="M276.62,328.84c.22,0,.4-.19.4-.41,0-.22-.19-.4-.41-.4-.22,0-.4.19-.4.41,0,.22.19.4.41.4Z"/>
                    <path class="cls-36" d="M278.28,328c.09,0,.16-.08.16-.16,0-.09-.08-.16-.16-.16s-.16.08-.16.16c0,.09.08.16.16.16Z"/>
                    <path class="cls-36" d="M281.67,329.75c0-.13-.11-.24-.25-.24-.13,0-.24.11-.24.25,0,.13.11.24.25.24.13,0,.24-.11.24-.25Z"/>
                    <path class="cls-36" d="M281.7,331.8c.2,0,.35-.16.35-.36,0-.2-.16-.35-.36-.35-.2,0-.35.16-.35.36,0,.2.16.35.36.35Z"/>
                    <path class="cls-36" d="M272.6,329.18c.08,0,.14-.06.13-.14,0-.08-.06-.14-.14-.13-.08,0-.14.06-.13.14,0,.08.06.14.14.13Z"/>
                    <path class="cls-36" d="M273.67,327.92s.08,0,.12-.01c-.06.08-.1.17-.1.28,0,.23.2.42.43.42.23,0,.42-.2.42-.43,0-.23-.2-.42-.43-.42,0,0-.01,0-.02,0,.13-.12.22-.29.21-.49,0-.36-.3-.64-.65-.63-.36,0-.64.3-.63.65,0,.36.3.64.65.63Z"/>
                    <path class="cls-36" d="M267.42,329.8c.18,0,.33-.15.33-.34,0-.18-.16-.33-.34-.33-.18,0-.33.16-.33.34s.16.33.34.33Z"/>
                  </g>
                  <g>
                    <path class="cls-36" d="M270.07,351.61c0-.4-.33-.71-.73-.71-.4,0-.71.33-.71.73,0,.4.33.71.73.71.4,0,.71-.33.71-.73Z"/>
                    <path class="cls-36" d="M269.39,348.99c.16,0,.29-.14.29-.3s-.14-.29-.3-.29c-.16,0-.29.14-.29.3,0,.16.14.29.3.29Z"/>
                    <path class="cls-36" d="M271.5,347.3c0,.1.03.19.07.28-.04.07-.06.15-.06.24,0,.29.24.52.53.51.26,0,.47-.2.5-.46.2-.12.34-.34.33-.6,0-.38-.32-.68-.7-.67-.38,0-.68.32-.67.7Z"/>
                    <path class="cls-36" d="M273.81,349.51s0,0,0,0c-.01-.24-.21-.43-.46-.43-.25,0-.45.21-.44.46,0,.19.13.35.3.42-.02.07-.04.14-.04.22,0,.36.3.65.67.64.36,0,.65-.3.64-.67,0-.36-.3-.65-.67-.64Z"/>
                    <path class="cls-36" d="M273.22,353.96c-.29,0-.53.25-.52.54,0,.29.25.53.54.52.29,0,.53-.25.52-.54,0-.29-.25-.53-.54-.52Z"/>
                    <path class="cls-36" d="M271.51,348.34c0-.35-.29-.63-.64-.62-.35,0-.63.29-.62.64,0,.35.29.63.64.62.35,0,.63-.29.62-.64Z"/>
                    <path class="cls-36" d="M277.87,345.58c.6-.01,1.08-.51,1.07-1.11-.01-.6-.51-1.08-1.11-1.07-.6.01-1.08.51-1.07,1.11.01.6.51,1.08,1.11,1.07Z"/>
                    <path class="cls-36" d="M282.74,345.74c-.19,0-.34.16-.34.35,0,.19.16.34.35.34.19,0,.34-.16.34-.35,0-.19-.16-.34-.35-.34Z"/>
                    <path class="cls-36" d="M277.2,349.2c.44,0,.79-.37.78-.81,0-.44-.37-.79-.81-.78-.44,0-.79.37-.78.81,0,.44.37.79.81.78Z"/>
                    <path class="cls-36" d="M278.63,351.61c0-.48-.41-.87-.89-.86-.48,0-.87.41-.86.89,0,.48.41.87.89.86.48,0,.87-.41.86-.89Z"/>
                    <path class="cls-36" d="M270.94,355.93c-.27,0-.48.22-.48.49,0,.27.22.48.49.48.27,0,.48-.22.48-.49,0-.27-.22-.48-.49-.48Z"/>
                    <path class="cls-36" d="M275.22,353.37c-.17,0-.31.15-.31.32,0,.17.15.31.32.31.17,0,.31-.15.31-.32,0-.17-.15-.31-.32-.31Z"/>
                    <path class="cls-36" d="M278.61,354.92c-.28,0-.51.24-.51.52,0,.28.24.51.52.51.28,0,.51-.24.51-.52,0-.28-.24-.51-.52-.51Z"/>
                    <path class="cls-36" d="M281.92,352.71c-.15,0-.27.13-.27.28,0,.15.13.27.28.27.15,0,.27-.13.27-.28,0-.15-.13-.27-.28-.27Z"/>
                    <path class="cls-36" d="M282.05,350.68c-.24,0-.43.2-.43.44,0,.24.2.43.44.43.24,0,.43-.2.43-.44,0-.24-.2-.43-.44-.43Z"/>
                    <path class="cls-36" d="M282.11,348.24c0-.24-.2-.43-.44-.42-.24,0-.43.2-.42.44,0,.24.2.43.44.42.24,0,.43-.2.42-.44Z"/>
                    <path class="cls-36" d="M261.74,342.16c.11,0,.2-.09.2-.21,0-.11-.09-.2-.21-.2-.11,0-.2.09-.2.21,0,.11.09.2.21.2Z"/>
                    <path class="cls-36" d="M259.46,345.3c0-.15-.13-.27-.28-.27-.15,0-.27.13-.27.28s.13.27.28.27c.15,0,.27-.13.27-.28Z"/>
                    <path class="cls-36" d="M268.48,355.57c-.08,0-.16.02-.24.05.06-.13.1-.27.1-.43,0-.04,0-.07-.01-.11.05.01.1.02.15.02.29,0,.53-.25.52-.54,0-.29-.25-.53-.54-.52-.25,0-.45.18-.51.41-.16-.12-.35-.18-.56-.18-.18,0-.35.06-.5.16.1-.18.16-.4.16-.62,0-.09-.01-.17-.03-.25.36-.07.62-.39.62-.77,0-.05,0-.09-.02-.13.42-.11.72-.49.71-.94,0-.53-.45-.96-.98-.95-.03,0-.06,0-.08,0,.13-.12.21-.29.2-.48,0-.27-.17-.5-.41-.59.02-.08.04-.17.04-.26,0-.03,0-.06,0-.08.22-.07.39-.28.38-.53,0-.22-.14-.41-.33-.49.04-.03.08-.06.11-.09.11.04.23.07.35.06.19,0,.37-.07.51-.17.11.08.25.12.4.12.38,0,.69-.32.68-.71,0-.38-.32-.69-.71-.68-.05,0-.1,0-.15.02-.17-.24-.45-.4-.77-.4-.06,0-.12,0-.17.02,0,0,0-.01,0-.02,0-.41-.34-.73-.75-.72-.26,0-.49.15-.62.36-.12-.06-.25-.1-.39-.1-.06,0-.11,0-.16.02.06-.1.11-.21.15-.32.09.04.18.06.29.05.39,0,.71-.33.7-.73,0-.39-.33-.71-.73-.7-.13,0-.26.04-.37.11-.09-.18-.22-.33-.37-.46.03-.03.05-.06.08-.1.12.27.39.45.7.44.42,0,.75-.35.74-.77,0-.42-.35-.75-.77-.74-.03,0-.05,0-.08,0,.04-.1.06-.21.07-.32.13-.18.21-.41.2-.65-.01-.61-.51-1.09-1.12-1.08-.51,0-.93.36-1.04.83-.2.19-.33.46-.35.76-.25.21-.41.53-.4.89,0,.21.06.4.16.56-.25.14-.46.35-.6.6-.05-.57-.44-1.04-.97-1.2-.17-.19-.41-.31-.69-.31-.5,0-.89.41-.89.91-.13.21-.2.47-.2.73,0,.48.26.9.64,1.13-.13.12-.24.26-.31.43-.03,0-.06,0-.09,0-.49,0-.88.41-.87.9,0,.49.41.88.9.87.1,0,.19-.02.28-.05.19.2.46.32.76.32.13,0,.26-.03.38-.08-.03.08-.04.17-.05.26-.18-.12-.39-.18-.62-.18-.6.01-1.08.51-1.07,1.11,0,.1.02.19.04.27-.02.09-.04.19-.03.29,0,.06,0,.12.02.18-.27.22-.43.56-.43.93.01.62.5,1.12,1.1,1.16-.03.09-.05.19-.05.3,0,.18.06.35.15.49-.09-.02-.18-.03-.27-.03-.15,0-.29.03-.41.08.05-.1.07-.2.07-.32,0-.39-.33-.71-.73-.7-.39,0-.71.33-.7.73,0,.39.33.71.73.7.04,0,.08,0,.12-.01,0,0,0,0,0,0-.15.2-.23.45-.23.72.01.65.55,1.17,1.2,1.16.42,0,.78-.23.98-.56.05.05.1.1.16.14-.21.14-.34.38-.34.66,0,.16.05.3.14.43-.04.08-.07.16-.09.24-.21-.25-.53-.41-.88-.41-.62.01-1.12.52-1.1,1.14.01.62.52,1.12,1.14,1.1.46,0,.85-.29,1.02-.69.26.4.71.66,1.22.65.78-.01,1.41-.66,1.39-1.44,0-.14-.03-.27-.06-.4.02,0,.04,0,.06,0,.26,0,.46-.22.46-.48,0,0,0-.01,0-.02.29-.07.51-.27.61-.55.08.05.18.08.28.08.11,0,.2-.04.28-.1.02,0,.04,0,.06,0,.27,0,.52-.1.73-.25-.05.1-.08.22-.09.34-.53.04-.94.47-.96,1-.1-.03-.2-.05-.31-.05-.58,0-1.05.49-1.04,1.07.01.58.49,1.05,1.07,1.04.44,0,.82-.29.96-.68.17.22.43.36.73.35.5,0,.9-.42.89-.92,0-.25-.11-.47-.27-.63,0-.06.02-.12.02-.18,0,0,0,0,0-.01.1-.02.2-.05.28-.1-.03.07-.04.15-.04.24,0,.38.32.68.7.67.38,0,.68-.32.67-.7,0-.38-.32-.68-.7-.67ZM261.57,353.54c-.04-.08-.08-.15-.14-.22.04,0,.08.01.13.01.32,0,.6-.17.76-.42.03.24.16.44.35.56-.02.01-.04.02-.05.03-.14-.11-.32-.18-.52-.18-.21,0-.39.09-.53.22ZM262.48,352.37c-.01-.42-.3-.76-.69-.87.05-.1.09-.2.12-.31.14.21.33.38.55.49,0,0,0,.02,0,.02,0,.2.05.39.13.55-.04.03-.07.07-.11.11ZM263.13,349.06s.01.03.02.05c-.03,0-.05,0-.08,0,.02-.01.04-.03.06-.05ZM264.16,349.69s0,0,0,0c.03,0,.05,0,.08,0,0,0,0,0,0,0h0s-.06,0-.09,0c0,0,0,0,0-.01ZM266.43,348.62c-.06-.01-.13-.02-.2-.02,0,0,0,0,0,0,.06-.09.11-.2.14-.31.06.05.14.1.22.12-.07.05-.12.12-.16.21ZM266.32,347.33s0-.03,0-.04c.02-.03.04-.07.06-.11.03.01.06.02.09.03-.06.03-.11.07-.16.12ZM264.63,347.25c-.06-.11-.14-.2-.24-.27.17-.07.31-.18.42-.32.03-.01.06-.03.09-.04-.02.07-.04.15-.03.23,0,.07.02.15.04.21-.1.05-.19.11-.27.19ZM262.18,349.41s-.03-.06-.04-.1c0-.02,0-.05,0-.07,0-.03,0-.05,0-.08.09.05.18.08.28.09-.08.04-.16.1-.24.15ZM266.4,351.74c0,.14.03.27.09.38-.19.11-.33.29-.38.51-.1-.02-.21-.04-.32-.04-.37,0-.7.17-.92.43-.05-.05-.1-.09-.16-.13,0-.05-.02-.09-.04-.13.05,0,.09.01.14.01.55,0,.98-.46.97-1.01,0-.29-.13-.54-.33-.72,0-.06.02-.13.01-.2,0,0,0,0,0,0,.3-.02.56-.16.75-.37.08.26.31.45.59.46-.25.18-.4.47-.4.8ZM263.16,346.47c-.09.09-.14.22-.14.36,0,.14.07.27.16.36-.08.12-.13.26-.14.41-.14-.09-.32-.15-.5-.14-.1,0-.19.02-.28.05.04-.1.06-.2.06-.31.13-.19.2-.41.2-.66,0-.12-.03-.24-.06-.36.1-.08.18-.17.24-.29.11.23.27.43.46.58Z"/>
                    <path class="cls-36" d="M268.7,353.53c.29,0,.51-.24.51-.53,0-.29-.24-.51-.53-.51-.29,0-.51.24-.51.53,0,.29.24.51.53.51Z"/>
                    <path class="cls-36" d="M268.12,349.91c0,.3.25.54.56.54.3,0,.54-.25.54-.56,0-.3-.25-.54-.56-.54-.3,0-.54.25-.54.56Z"/>
                    <path class="cls-36" d="M267.11,345.33c0,.24.2.43.44.43.24,0,.43-.2.43-.44,0-.24-.2-.43-.44-.43-.24,0-.43.2-.43.44Z"/>
                    <path class="cls-36" d="M268.25,343.05c.09,0,.17-.02.24-.05,0,0,0,.01,0,.02,0,.53.45.96.98.95.53,0,.96-.45.95-.98,0-.3-.15-.56-.37-.74.1-.16.16-.35.16-.55,0-.54-.46-.98-1-.97-.54,0-.98.46-.97,1,0,0,0,0,0,0,0,0-.02,0-.02,0-.37,0-.66.31-.65.67,0,.37.31.66.67.65Z"/>
                    <path class="cls-36" d="M271,345.26c.44,0,.79-.37.79-.81s-.37-.79-.81-.79c-.44,0-.79.37-.79.81,0,.44.37.79.81.79Z"/>
                    <path class="cls-36" d="M271.31,353.75c0-.43-.36-.77-.79-.76-.43,0-.77.36-.76.79,0,.43.36.77.79.76.43,0,.77-.36.76-.79Z"/>
                    <path class="cls-36" d="M272.48,355.97c-.58.01-1.05.49-1.04,1.07.01.58.49,1.05,1.07,1.04.58-.01,1.05-.49,1.04-1.07,0-.58-.49-1.05-1.07-1.04Z"/>
                    <path class="cls-36" d="M272.63,351.52s.02-.09.02-.14c0-.3-.25-.53-.55-.53s-.53.25-.53.55c0,.12.04.22.11.31-.06.1-.1.22-.09.35,0,.36.3.65.67.64s.65-.3.64-.67c0-.21-.11-.39-.26-.51Z"/>
                    <path class="cls-36" d="M271.07,349.67c0-.38-.32-.68-.7-.68-.38,0-.68.32-.68.7,0,.38.32.68.7.68.38,0,.68-.32.68-.7Z"/>
                    <path class="cls-36" d="M269.35,346.31c.05,0,.11,0,.16-.02-.08.12-.12.26-.12.41,0,.41.34.73.75.72.41,0,.73-.34.72-.75,0-.41-.34-.73-.75-.72-.05,0-.1,0-.15.02.08-.12.12-.26.12-.42.08-.13.12-.28.12-.44,0-.46-.39-.83-.85-.82-.46,0-.83.39-.82.85,0,.12.03.23.08.33,0,.03,0,.07,0,.1,0,.41.34.74.75.73Z"/>
                    <path class="cls-36" d="M271.73,342.84c.29,0,.52-.24.52-.54,0-.29-.24-.52-.54-.52-.29,0-.52.24-.52.54,0,.29.24.52.54.52Z"/>
                    <path class="cls-36" d="M273.24,346.39c.38,0,.68-.32.67-.69,0-.15-.05-.28-.13-.39.24-.06.42-.28.41-.54,0-.31-.26-.55-.56-.54-.31,0-.55.26-.54.56,0,.09.03.18.07.26-.34.04-.61.33-.6.68,0,.38.32.68.69.67Z"/>
                    <path class="cls-36" d="M274.94,348.1c.28,0,.5-.23.49-.51,0-.28-.23-.5-.51-.49-.28,0-.5.23-.49.51,0,.28.23.5.51.49Z"/>
                    <path class="cls-36" d="M276.16,346.34c.14,0,.25-.12.24-.25,0-.14-.12-.25-.25-.24-.14,0-.25.12-.24.25,0,.14.12.25.25.24Z"/>
                    <path class="cls-36" d="M279.68,345.55c.12,0,.22-.1.21-.22,0-.12-.1-.22-.22-.21s-.22.1-.21.22c0,.12.1.22.22.21Z"/>
                    <path class="cls-36" d="M283.82,347.95c-.38,0-.69.32-.68.71s.32.69.71.68c.38,0,.69-.32.68-.71,0-.38-.32-.69-.71-.68Z"/>
                    <path class="cls-36" d="M288.91,347.91c-.13,0-.22.11-.22.23,0,.12.11.22.23.22.12,0,.22-.11.22-.23,0-.13-.11-.22-.23-.22Z"/>
                    <path class="cls-36" d="M287.46,352.44c-.21,0-.38.18-.38.39,0,.21.18.38.39.38.21,0,.38-.18.38-.39,0-.21-.18-.38-.39-.38Z"/>
                    <path class="cls-36" d="M285.56,355.68c-.13,0-.24.11-.24.25,0,.13.11.24.25.24.13,0,.24-.11.24-.25,0-.13-.11-.24-.25-.24Z"/>
                    <path class="cls-36" d="M286.1,350.61c-.21,0-.38.18-.38.39,0,.21.18.38.39.38.21,0,.38-.18.38-.39,0-.21-.18-.38-.39-.38Z"/>
                    <path class="cls-36" d="M291.59,348.77c-.15,0-.27.13-.27.28,0,.15.13.27.28.27.15,0,.27-.13.27-.28s-.13-.27-.28-.27Z"/>
                    <path class="cls-36" d="M290.76,343.6c-.36,0-.65.31-.65.67,0,.36.31.65.67.65.36,0,.65-.31.65-.67,0-.36-.31-.65-.67-.65Z"/>
                    <path class="cls-36" d="M285.72,343.26c-.21,0-.38.18-.37.38,0,.21.18.38.39.37.21,0,.38-.18.37-.38,0-.21-.18-.38-.39-.37Z"/>
                    <path class="cls-36" d="M282.77,342.65c.23,0,.42-.2.42-.43,0-.23-.2-.42-.43-.42s-.42.2-.42.43.2.42.43.42Z"/>
                    <path class="cls-36" d="M279.83,347.52c-.19,0-.34.16-.33.35,0,.19.16.34.35.33.19,0,.34-.16.33-.35,0-.19-.16-.34-.35-.33Z"/>
                    <path class="cls-36" d="M280.37,342.27c-.16,0-.28.13-.28.29,0,.16.13.28.29.28.16,0,.28-.13.28-.29,0-.16-.13-.28-.29-.28Z"/>
                    <path class="cls-36" d="M270.68,351.95c.26,0,.47-.22.46-.48,0-.26-.22-.47-.48-.46-.26,0-.47.22-.46.48,0,.26.22.47.48.46Z"/>
                    <path class="cls-36" d="M272.09,350.31c0-.06-.05-.1-.1-.1-.06,0-.1.05-.1.1,0,.06.05.1.1.1.06,0,.1-.05.1-.1Z"/>
                    <path class="cls-36" d="M274.01,347.97c-.13,0-.22.11-.22.23,0,.13.11.22.23.22.13,0,.22-.11.22-.23,0-.13-.11-.22-.23-.22Z"/>
                    <path class="cls-36" d="M276.38,349.67c0-.25-.21-.45-.46-.45-.25,0-.45.21-.45.46,0,.25.21.45.46.45.25,0,.45-.21.45-.46Z"/>
                    <path class="cls-36" d="M275,351.39c0,.11.09.2.2.2s.2-.09.2-.2c0-.11-.09-.2-.2-.2s-.2.09-.2.2Z"/>
                    <path class="cls-36" d="M273.79,352.42c0-.09-.07-.15-.16-.15-.09,0-.15.07-.15.16,0,.09.07.15.16.15.09,0,.15-.07.15-.16Z"/>
                    <path class="cls-36" d="M276.02,352.71c0,.1.08.18.18.18.1,0,.18-.08.18-.18,0-.1-.08-.18-.18-.18-.1,0-.18.08-.18.18Z"/>
                    <path class="cls-36" d="M276.22,353.98c-.09,0-.17.08-.17.17,0,.09.08.17.17.17.09,0,.17-.08.17-.17,0-.09-.08-.17-.17-.17Z"/>
                    <path class="cls-36" d="M274.67,355.24c-.12,0-.21.1-.21.21,0,.12.1.21.21.21.12,0,.21-.1.21-.21,0-.12-.1-.21-.21-.21Z"/>
                    <path class="cls-36" d="M271.74,355.15c0,.27.22.48.49.48.27,0,.48-.22.48-.49,0-.27-.22-.48-.49-.48-.27,0-.48.22-.48.49Z"/>
                    <path class="cls-36" d="M275.95,355.56c-.1,0-.17.08-.17.18,0,.1.08.17.18.17.1,0,.17-.08.17-.18,0-.1-.08-.17-.18-.17Z"/>
                    <path class="cls-36" d="M277.85,353.38c-.12,0-.21.1-.21.22,0,.12.1.21.22.21.12,0,.21-.1.21-.22s-.1-.21-.22-.21Z"/>
                    <path class="cls-36" d="M279.69,352.35c-.06,0-.11.05-.11.11,0,.06.05.11.11.11s.11-.05.11-.11c0-.06-.05-.11-.11-.11Z"/>
                    <path class="cls-36" d="M279.44,349.71c-.15,0-.27.13-.27.28,0,.15.13.27.28.27s.27-.13.27-.28c0-.15-.13-.27-.28-.27Z"/>
                    <path class="cls-36" d="M278.2,346.77c0,.15.13.27.28.27.15,0,.27-.13.27-.28,0-.15-.13-.27-.28-.27-.15,0-.27.13-.27.28Z"/>
                    <path class="cls-36" d="M275.55,344.72c.15,0,.26-.12.26-.27,0-.15-.12-.26-.27-.26-.15,0-.26.12-.26.27,0,.15.12.26.27.26Z"/>
                    <path class="cls-36" d="M276.62,343.04c.22,0,.4-.19.4-.41,0-.22-.19-.4-.41-.4-.22,0-.4.19-.4.41,0,.22.19.4.41.4Z"/>
                    <path class="cls-36" d="M278.28,342.2c.09,0,.16-.08.16-.16,0-.09-.08-.16-.16-.16-.09,0-.16.08-.16.16,0,.09.08.16.16.16Z"/>
                    <path class="cls-36" d="M281.67,343.95c0-.13-.11-.24-.25-.24-.13,0-.24.11-.24.25,0,.13.11.24.25.24.13,0,.24-.11.24-.25Z"/>
                    <path class="cls-36" d="M281.7,346c.2,0,.35-.16.35-.36,0-.2-.16-.35-.36-.35-.2,0-.35.16-.35.36,0,.2.16.35.36.35Z"/>
                    <path class="cls-36" d="M272.6,343.38c.08,0,.14-.06.13-.14,0-.08-.06-.14-.14-.13-.08,0-.14.06-.13.14,0,.08.06.14.14.13Z"/>
                    <path class="cls-36" d="M273.67,342.12s.08,0,.12-.01c-.06.08-.1.17-.1.28,0,.23.2.42.43.42.23,0,.42-.2.42-.43,0-.23-.2-.42-.43-.42,0,0-.01,0-.02,0,.13-.12.22-.29.21-.49,0-.36-.3-.64-.65-.63-.36,0-.64.3-.63.65,0,.36.3.64.65.63Z"/>
                    <path class="cls-36" d="M267.42,344c.18,0,.33-.15.33-.34,0-.18-.16-.33-.34-.33-.18,0-.33.15-.33.34s.16.33.34.33Z"/>
                  </g>
                </g>
              </g>
            </g>
            <circle class="cls-36" cx="288.67" cy="309.44" r="1.15"/>
            <path class="cls-36" d="M289.81,348.32c0,.63-.51,1.15-1.15,1.15s-1.15-.51-1.15-1.15.51-1.15,1.15-1.15,1.15.51,1.15,1.15Z"/>
          </g>
        </g>
        <text class="cls-54" transform="translate(264.46 327.63)"><tspan x="0" y="0">Forever</tspan></text>
        <g>
          <rect class="cls-44" x="271.82" y="335.35" width="35.76" height=".98"/>
          <path class="cls-44" d="M304.46,339.2c-.15,0-.3-.07-.4-.2-.16-.22-.11-.53.11-.69l3.13-2.27c.08-.06.13-.12.13-.18,0-.06-.05-.12-.13-.18l-3.13-2.29c-.22-.16-.27-.47-.11-.69.16-.22.47-.27.69-.11l3.13,2.29c.34.25.53.6.53.98,0,.37-.19.73-.53.97l-3.13,2.27c-.09.06-.19.09-.29.09Z"/>
        </g>
      </g>
    </g>
    <g>
      <g>
        <path class="cls-7" d="M175.12,401.27c0,.57-.42,1.13-1.08,1.13H-152.42c-.66,0-1.28-.56-1.28-1.13v-.15c0-.57.62-1.24,1.28-1.24H174.04c.66,0,1.08.67,1.08,1.24v.15Z"/>
        <path class="cls-30" d="M173.44,402.36c0,.96-.68,1.73-1.54,1.73h-7.12c-.86,0-1.44-.78-1.44-1.73v-.09c0-.96.58-1.54,1.44-1.54h7.12c.86,0,1.54.58,1.54,1.54v.09Z"/>
        <path class="cls-34" d="M156.6,402.36c0,.96-.75,1.73-1.61,1.73h-7.12c-.86,0-1.37-.78-1.37-1.73v-.09c0-.96.51-1.54,1.37-1.54h7.12c.86,0,1.61.58,1.61,1.54v.09Z"/>
        <path class="cls-50" d="M139.33,402.36c0,.96-.84,1.73-1.7,1.73h-7.12c-.86,0-1.7-.78-1.7-1.73v-.09c0-.96.84-1.54,1.7-1.54h7.12c.86,0,1.7.58,1.7,1.54v.09Z"/>
        <path class="cls-17" d="M122.07,402.36c0,.96-.49,1.73-1.35,1.73h-7.12c-.86,0-1.63-.78-1.63-1.73v-.09c0-.96.77-1.54,1.63-1.54h7.12c.86,0,1.35.58,1.35,1.54v.09Z"/>
        <path class="cls-11" d="M104.81,402.36c0,.96-.58,1.73-1.44,1.73h-7.12c-.86,0-1.54-.78-1.54-1.73v-.09c0-.96.68-1.54,1.54-1.54h7.12c.86,0,1.44.58,1.44,1.54v.09Z"/>
        <path class="cls-32" d="M87.97,402.36c0,.96-.65,1.73-1.51,1.73h-7.12c-.86,0-1.47-.78-1.47-1.73v-.09c0-.96.61-1.54,1.47-1.54h7.12c.86,0,1.51.58,1.51,1.54v.09Z"/>
        <path class="cls-37" d="M70.29,402.36c0,.96-.77,1.73-1.63,1.73h-7.12c-.86,0-1.35-.78-1.35-1.73v-.09c0-.96.49-1.54,1.35-1.54h7.12c.86,0,1.63.58,1.63,1.54v.09Z"/>
        <path class="cls-35" d="M53.87,402.36c0,.96-.81,1.73-1.67,1.73h-7.12c-.86,0-1.73-.78-1.73-1.73v-.09c0-.96.87-1.54,1.73-1.54h7.12c.86,0,1.67.58,1.67,1.54v.09Z"/>
        <path class="cls-47" d="M36.61,402.36c0,.96-.91,1.73-1.77,1.73h-7.12c-.86,0-1.64-.78-1.64-1.73v-.09c0-.96.78-1.54,1.64-1.54h7.12c.86,0,1.77.58,1.77,1.54v.09Z"/>
        <path class="cls-16" d="M18.92,402.36c0,.96-.58,1.73-1.44,1.73h-7.12c-.86,0-1.54-.78-1.54-1.73v-.09c0-.96.69-1.54,1.54-1.54h7.12c.86,0,1.44.58,1.44,1.54v.09Z"/>
        <path class="cls-3" d="M2.08,402.36c0,.96-.65,1.73-1.51,1.73h-7.12c-.86,0-1.48-.78-1.48-1.73v-.09c0-.96.62-1.54,1.48-1.54H.58c.86,0,1.51.58,1.51,1.54v.09Z"/>
      </g>
      <g>
        <path class="cls-22" d="M502.96,401.27c0,.57-.42,1.13-1.08,1.13H175.43c-.66,0-1.28-.56-1.28-1.13v-.15c0-.57.62-1.24,1.28-1.24h326.45c.66,0,1.08.67,1.08,1.24v.15Z"/>
        <path class="cls-29" d="M398.13,402.36c0,.96-.77,1.73-1.63,1.73h-7.12c-.86,0-1.35-.78-1.35-1.73v-.09c0-.96.49-1.54,1.35-1.54h7.12c.86,0,1.63.58,1.63,1.54v.09Z"/>
        <path class="cls-14" d="M381.71,402.36c0,.96-.81,1.73-1.67,1.73h-7.12c-.86,0-1.73-.78-1.73-1.73v-.09c0-.96.87-1.54,1.73-1.54h7.12c.86,0,1.67.58,1.67,1.54v.09Z"/>
        <path class="cls-26" d="M364.45,402.36c0,.96-.91,1.73-1.77,1.73h-7.12c-.86,0-1.64-.78-1.64-1.73v-.09c0-.96.78-1.54,1.64-1.54h7.12c.86,0,1.77.58,1.77,1.54v.09Z"/>
        <path class="cls-5" d="M346.77,402.36c0,.96-.58,1.73-1.44,1.73h-7.12c-.86,0-1.54-.78-1.54-1.73v-.09c0-.96.69-1.54,1.54-1.54h7.12c.86,0,1.44.58,1.44,1.54v.09Z"/>
        <path class="cls-40" d="M329.93,402.36c0,.96-.65,1.73-1.51,1.73h-7.12c-.86,0-1.48-.78-1.48-1.73v-.09c0-.96.62-1.54,1.48-1.54h7.12c.86,0,1.51.58,1.51,1.54v.09Z"/>
        <path class="cls-6" d="M312.66,402.36c0,.96-.74,1.73-1.6,1.73h-7.12c-.86,0-1.38-.78-1.38-1.73v-.09c0-.96.52-1.54,1.38-1.54h7.12c.86,0,1.6.58,1.6,1.54v.09Z"/>
        <path class="cls-28" d="M295.82,402.36c0,.96-.81,1.73-1.67,1.73h-7.12c-.86,0-1.73-.78-1.73-1.73v-.09c0-.96.88-1.54,1.73-1.54h7.12c.86,0,1.67.58,1.67,1.54v.09Z"/>
        <path class="cls-10" d="M278.56,402.36c0,.96-.9,1.73-1.76,1.73h-7.12c-.86,0-1.64-.78-1.64-1.73v-.09c0-.96.78-1.54,1.64-1.54h7.12c.86,0,1.76.58,1.76,1.54v.09Z"/>
        <path class="cls-27" d="M260.88,402.36c0,.96-.57,1.73-1.43,1.73h-7.12c-.86,0-1.55-.78-1.55-1.73v-.09c0-.96.69-1.54,1.55-1.54h7.12c.86,0,1.43.58,1.43,1.54v.09Z"/>
        <path class="cls-23" d="M244.04,402.36c0,.96-.64,1.73-1.5,1.73h-7.12c-.86,0-1.48-.78-1.48-1.73v-.09c0-.96.62-1.54,1.48-1.54h7.12c.86,0,1.5.58,1.5,1.54v.09Z"/>
        <path class="cls-38" d="M226.78,402.36c0,.96-.73,1.73-1.59,1.73h-7.12c-.86,0-1.39-.78-1.39-1.73v-.09c0-.96.53-1.54,1.39-1.54h7.12c.86,0,1.59.58,1.59,1.54v.09Z"/>
        <path class="cls-25" d="M209.52,402.36c0,.96-.83,1.73-1.69,1.73h-7.12c-.86,0-1.72-.78-1.72-1.73v-.09c0-.96.86-1.54,1.72-1.54h7.12c.86,0,1.69.58,1.69,1.54v.09Z"/>
        <path class="cls-39" d="M192.68,402.36c0,.96-.9,1.73-1.76,1.73h-7.12c-.86,0-1.65-.78-1.65-1.73v-.09c0-.96.79-1.54,1.65-1.54h7.12c.86,0,1.76.58,1.76,1.54v.09Z"/>
      </g>
    </g>
    <path class="cls-21" d="M-1305.46,558.12v94.04s294.83,0,294.83,0h8.74s286.09,0,286.09,0h8.74s286.09,0,286.09,0h8.74s286.09,0,286.09,0h8.74s286.09,0,286.09,0h8.74s286.09,0,286.09,0h8.74s286.09,0,286.09,0h8.74s294.83,0,294.83,0v-94.04c0-3.03-.14-6.02-.34-9l46.07-139.4-5.53-1.83-41.64,126.02v-119.28h13.41s0-11.65,0-11.65H-1280.37s0,11.65,0,11.65h225.64s18.04,54.6,18.04,54.6c-24-26.02-58.34-42.35-96.44-42.35h-41.11c-72.36,0-131.23,58.87-131.23,131.23ZM-1048.59,414.63h39.42v100.45c-4.15-11.9-9.96-23.03-17.16-33.1l-22.26-67.35ZM783.28,481.29c-7.43,10.25-13.41,21.62-17.65,33.79v-100.45h39.68s-22.03,66.66-22.03,66.66ZM811.44,414.63h197.36s17.9,54.17,17.9,54.17c-23.98-25.76-58.14-41.92-96.03-41.92h-41.11c-37.89,0-72.05,16.16-96.03,41.92l17.9-54.17ZM742.64,481.98l-22.26-67.35h39.42v100.45c-4.15-11.9-9.96-23.03-17.16-33.1ZM732.28,469.23c-24-26.01-58.34-42.34-96.43-42.34h-41.11c-38.09,0-72.44,16.33-96.43,42.34l18.04-54.6h197.89s18.04,54.6,18.04,54.6ZM487.96,481.98c-7.2,10.07-13.02,21.2-17.16,33.1v-100.45h39.42s-22.26,67.35-22.26,67.35ZM447.32,481.29l-22.03-66.66h39.68v100.45c-4.24-12.18-10.22-23.54-17.65-33.79ZM437.05,468.81c-23.98-25.76-58.14-41.92-96.03-41.92h-41.11c-38.1,0-72.44,16.33-96.43,42.34l18.04-54.6h197.63s17.9,54.17,17.9,54.17ZM193.13,481.98c-7.2,10.07-13.01,21.19-17.16,33.1v-100.45h39.42s-22.26,67.35-22.26,67.35ZM152.49,481.29l-22.03-66.66h39.68v100.45c-4.24-12.18-10.22-23.54-17.65-33.79ZM142.22,468.8c-23.98-25.76-58.14-41.92-96.03-41.92H5.08c-37.89,0-72.05,16.16-96.03,41.92l17.9-54.18H124.32s17.9,54.17,17.9,54.17ZM-101.21,481.29c-7.43,10.25-13.41,21.62-17.65,33.79v-100.45h39.68s-22.03,66.66-22.03,66.66ZM-141.85,481.98l-22.25-67.34h39.42v100.45c-4.15-11.91-9.96-23.03-17.17-33.11ZM-152.2,469.23c-24-26.01-58.34-42.34-96.43-42.34h-41.11c-38.1,0-72.44,16.33-96.44,42.35l18.04-54.6h197.89s18.04,54.6,18.04,54.6ZM-396.53,481.98c-7.2,10.07-13.01,21.19-17.16,33.1v-100.45h39.42s-22.26,67.35-22.26,67.35ZM-437.18,481.28l-22.03-66.65h39.68v100.45c-4.24-12.18-10.22-23.54-17.66-33.8ZM-447.43,468.8c-23.98-25.76-58.14-41.92-96.03-41.92h-41.11c-37.89,0-72.06,16.16-96.03,41.92l17.9-54.18h197.37s17.9,54.17,17.9,54.17ZM-690.86,481.29c-7.43,10.25-13.41,21.62-17.65,33.79v-100.45h39.68s-22.03,66.66-22.03,66.66ZM-731.51,481.98l-22.25-67.34h39.42v100.45c-4.15-11.91-9.96-23.03-17.16-33.11ZM-741.86,469.23c-24-26.01-58.34-42.34-96.43-42.34h-41.11c-37.89,0-72.05,16.16-96.03,41.92l17.9-54.18h197.63s18.04,54.6,18.04,54.6ZM-985.69,481.28c-7.43,10.26-13.42,21.62-17.66,33.8v-100.45h39.68s-22.03,66.65-22.03,66.65ZM1054.63,414.63v100.45c-4.24-12.18-10.22-23.54-17.65-33.79l-22.03-66.66h39.68ZM767.08,558.12c0-3.63.19-7.21.5-10.75l17.59-53.23c21.57-35.07,60.29-58.5,104.4-58.5h41.11c44.1,0,82.83,23.44,104.4,58.5l17.59,53.23c.31,3.55.5,7.13.5,10.75v85.3h-286.09v-85.3ZM472.25,558.12c0-3.98.21-7.91.58-11.79l16.94-51.26c21.45-35.58,60.48-59.44,104.97-59.44h41.11c44.5,0,83.52,23.86,104.97,59.44l16.94,51.25c.37,3.88.58,7.81.58,11.79v85.3h-286.09v-85.3ZM177.42,558.12c0-3.98.21-7.91.58-11.79l16.94-51.25c21.45-35.59,60.48-59.44,104.97-59.44h41.11c44.1,0,82.83,23.44,104.4,58.51l17.59,53.22c.31,3.55.5,7.13.5,10.76v85.3H177.42v-85.3ZM-117.4,558.12c0-3.63.19-7.21.5-10.76l17.59-53.21c21.57-35.07,60.3-58.51,104.4-58.51h41.11c44.1,0,82.83,23.44,104.4,58.5l17.59,53.23c.31,3.55.5,7.13.5,10.75v85.3H-117.4v-85.3ZM-412.23,558.12c0-3.98.21-7.92.58-11.81l16.93-51.23c21.45-35.59,60.48-59.46,104.98-59.46h41.11c44.5,0,83.52,23.86,104.97,59.44l16.94,51.25c.37,3.88.58,7.81.58,11.79v85.3h-286.09v-85.3ZM-707.06,558.12c0-3.63.19-7.21.5-10.76l17.58-53.21c21.57-35.07,60.3-58.51,104.4-58.51h41.11c44.1,0,82.83,23.44,104.4,58.5l17.59,53.23c.31,3.55.5,7.13.5,10.75v85.3h-286.09v-85.3ZM-1001.89,558.12c0-3.63.19-7.21.5-10.75l17.59-53.23c21.57-35.07,60.3-58.51,104.4-58.51h41.11c44.5,0,83.52,23.86,104.97,59.44l16.94,51.25c.37,3.88.58,7.81.58,11.79v85.3h-286.09v-85.3ZM-1296.72,558.12c0-67.54,54.95-122.49,122.49-122.49h41.11c44.5,0,83.53,23.86,104.98,59.46l16.93,51.23c.37,3.89.58,7.82.58,11.81v85.3h-286.09v-85.3Z"/>
  </g>
  <rect class="cls-8" x="390" y="312.8" width="390" height="216.55"/>
</svg>