<?xml version="1.0" encoding="UTF-8"?>
<svg id="OBJECTS" xmlns="http://www.w3.org/2000/svg" xmlns:xlink="http://www.w3.org/1999/xlink" viewBox="0 0 390 258.89">
  <defs>
    <style>
      .cls-1 {
        fill: #4c4159;
      }

      .cls-1, .cls-2, .cls-3, .cls-4, .cls-5, .cls-6, .cls-7, .cls-8, .cls-9, .cls-10, .cls-11, .cls-12, .cls-13, .cls-14, .cls-15, .cls-16, .cls-17, .cls-18, .cls-19, .cls-20, .cls-21, .cls-22, .cls-23, .cls-24, .cls-25, .cls-26, .cls-27, .cls-28, .cls-29, .cls-30, .cls-31, .cls-32, .cls-33, .cls-34, .cls-35, .cls-36, .cls-37, .cls-38, .cls-39, .cls-40 {
        stroke-width: 0px;
      }

      .cls-2 {
        fill: #626129;
      }

      .cls-3 {
        fill: url(#linear-gradient-12);
      }

      .cls-4 {
        fill: url(#linear-gradient-17);
      }

      .cls-5 {
        fill: url(#linear-gradient-19);
      }

      .cls-6 {
        fill: url(#linear-gradient);
      }

      .cls-7 {
        fill: #7b3e19;
      }

      .cls-8 {
        fill: url(#linear-gradient-21);
      }

      .cls-9 {
        fill: url(#linear-gradient-6);
      }

      .cls-10 {
        fill: #433a49;
      }

      .cls-11 {
        fill: #eaa58f;
      }

      .cls-12 {
        fill: url(#linear-gradient-15);
      }

      .cls-13 {
        fill: #879b5f;
      }

      .cls-14 {
        fill: url(#linear-gradient-11);
      }

      .cls-15 {
        fill: url(#linear-gradient-5);
      }

      .cls-16 {
        fill: none;
      }

      .cls-17 {
        fill: #774639;
      }

      .cls-18 {
        fill: #a45221;
      }

      .cls-19 {
        fill: url(#linear-gradient-13);
      }

      .cls-20 {
        fill: url(#linear-gradient-23);
      }

      .cls-21 {
        fill: url(#linear-gradient-25);
      }

      .cls-22 {
        fill: url(#linear-gradient-16);
      }

      .cls-23 {
        fill: url(#linear-gradient-22);
      }

      .cls-24 {
        fill: url(#linear-gradient-20);
      }

      .cls-25 {
        fill: url(#linear-gradient-14);
      }

      .cls-26 {
        fill: #351e16;
        fill-rule: evenodd;
      }

      .cls-27 {
        fill: url(#linear-gradient-2);
      }

      .cls-28 {
        fill: #d88f7c;
      }

      .cls-29 {
        fill: url(#linear-gradient-7);
      }

      .cls-30 {
        fill: #e7d8e4;
      }

      .cls-31 {
        fill: url(#linear-gradient-3);
      }

      .cls-41 {
        clip-path: url(#clippath);
      }

      .cls-32 {
        fill: url(#linear-gradient-9);
      }

      .cls-33 {
        fill: url(#linear-gradient-8);
      }

      .cls-34 {
        fill: url(#linear-gradient-24);
      }

      .cls-35 {
        fill: url(#linear-gradient-18);
      }

      .cls-36 {
        fill: #c2a131;
      }

      .cls-37 {
        fill: #fcf6f9;
      }

      .cls-38 {
        fill: #043f22;
      }

      .cls-39 {
        fill: url(#linear-gradient-10);
      }

      .cls-40 {
        fill: url(#linear-gradient-4);
      }
    </style>
    <clipPath id="clippath">
      <rect class="cls-16" x="0" y="-12.15" width="390" height="271.04"/>
    </clipPath>
    <linearGradient id="linear-gradient" x1="6.32" y1="127.85" x2="6.32" y2="131.01" gradientUnits="userSpaceOnUse">
      <stop offset="0" stop-color="#fff"/>
      <stop offset=".15" stop-color="#d4d4d4"/>
      <stop offset=".32" stop-color="#adadad"/>
      <stop offset=".48" stop-color="#8e8e8e"/>
      <stop offset=".64" stop-color="#777"/>
      <stop offset=".8" stop-color="#6a6a6a"/>
      <stop offset=".93" stop-color="#666"/>
      <stop offset=".93" stop-color="#000"/>
    </linearGradient>
    <linearGradient id="linear-gradient-2" x1="163.99" y1="128.16" x2="163.99" y2="132.38" gradientUnits="userSpaceOnUse">
      <stop offset="0" stop-color="#fff"/>
      <stop offset=".12" stop-color="#eee7dd"/>
      <stop offset=".29" stop-color="#dbcbb6"/>
      <stop offset=".46" stop-color="#ccb697"/>
      <stop offset=".63" stop-color="#c1a680"/>
      <stop offset=".78" stop-color="#bb9d73"/>
      <stop offset=".92" stop-color="#b99a6f"/>
      <stop offset="1" stop-color="#6b4d2b"/>
    </linearGradient>
    <linearGradient id="linear-gradient-3" x1="147.15" x2="147.15" xlink:href="#linear-gradient-2"/>
    <linearGradient id="linear-gradient-4" x1="129.68" x2="129.68" xlink:href="#linear-gradient-2"/>
    <linearGradient id="linear-gradient-5" x1="112.63" x2="112.63" xlink:href="#linear-gradient-2"/>
    <linearGradient id="linear-gradient-6" x1="95.37" x2="95.37" xlink:href="#linear-gradient-2"/>
    <linearGradient id="linear-gradient-7" x1="78.53" x2="78.53" xlink:href="#linear-gradient-2"/>
    <linearGradient id="linear-gradient-8" x1="60.84" x2="60.84" xlink:href="#linear-gradient-2"/>
    <linearGradient id="linear-gradient-9" x1="44.21" x2="44.21" xlink:href="#linear-gradient-2"/>
    <linearGradient id="linear-gradient-10" x1="26.95" x2="26.95" xlink:href="#linear-gradient-2"/>
    <linearGradient id="linear-gradient-11" x1="9.48" x2="9.48" xlink:href="#linear-gradient-2"/>
    <linearGradient id="linear-gradient-12" x1="334.66" x2="334.66" xlink:href="#linear-gradient"/>
    <linearGradient id="linear-gradient-13" x1="389.18" x2="389.18" xlink:href="#linear-gradient-2"/>
    <linearGradient id="linear-gradient-14" x1="372.55" x2="372.55" xlink:href="#linear-gradient-2"/>
    <linearGradient id="linear-gradient-15" x1="355.29" x2="355.29" xlink:href="#linear-gradient-2"/>
    <linearGradient id="linear-gradient-16" x1="337.82" x2="337.82" xlink:href="#linear-gradient-2"/>
    <linearGradient id="linear-gradient-17" x1="320.98" x2="320.98" xlink:href="#linear-gradient-2"/>
    <linearGradient id="linear-gradient-18" x1="303.72" x2="303.72" xlink:href="#linear-gradient-2"/>
    <linearGradient id="linear-gradient-19" x1="286.66" x2="286.66" xlink:href="#linear-gradient-2"/>
    <linearGradient id="linear-gradient-20" x1="269.4" x2="269.4" xlink:href="#linear-gradient-2"/>
    <linearGradient id="linear-gradient-21" x1="251.93" x2="251.93" xlink:href="#linear-gradient-2"/>
    <linearGradient id="linear-gradient-22" x1="235.09" x2="235.09" xlink:href="#linear-gradient-2"/>
    <linearGradient id="linear-gradient-23" x1="217.83" x2="217.83" xlink:href="#linear-gradient-2"/>
    <linearGradient id="linear-gradient-24" x1="200.36" x2="200.36" xlink:href="#linear-gradient-2"/>
    <linearGradient id="linear-gradient-25" x1="183.52" x2="183.52" xlink:href="#linear-gradient-2"/>
  </defs>
  <g class="cls-41">
    <g>
      <path class="cls-2" d="M358.25,115.6s177.35-66.87,480.24-26.22v72.12s-253.07-27.54-253.07-27.54l-227.17-18.36Z"/>
      <g>
        <path class="cls-36" d="M43.47,99.36s51.04-36.46,113.02,0l-48.61,30.38-64.41-30.38Z"/>
        <g>
          <path class="cls-38" d="M89.27,67.46s-8.67,43.01,0,43.01,0-43.01,0-43.01Z"/>
          <path class="cls-38" d="M98.92,71.9s-8.67,43.01,0,43.01,0-43.01,0-43.01Z"/>
          <path class="cls-38" d="M105.78,71.9s-8.67,43.01,0,43.01c8.67,0,0-43.01,0-43.01Z"/>
          <path class="cls-38" d="M79.07,59.25s-8.67,45.41,0,45.41,0-45.41,0-45.41Z"/>
          <path class="cls-38" d="M72.68,69.68s-9.21,35.57,0,35.57,0-35.57,0-35.57Z"/>
        </g>
      </g>
      <g>
        <path class="cls-13" d="M89.27,110.47s70.27-35.55,205.78-21.51,306.92,46.25,333.03,47.47l9.09,12.02v53.6s-539.36-28.56-544.05-30.99c-4.68-2.43-3.85-60.6-3.85-60.6Z"/>
        <g>
          <g>
            <rect class="cls-18" x="185.06" y="123.91" width="35.94" height="31.36"/>
            <rect class="cls-7" x="221" y="137.04" width="31.36" height="15.5"/>
          </g>
          <g>
            <path class="cls-38" d="M181.99,91.62s-13.96,56.84,0,56.84c13.96,0,0-56.84,0-56.84Z"/>
            <path class="cls-38" d="M169.2,99.36s-12.06,49.09,0,49.09c12.06,0,0-49.09,0-49.09Z"/>
            <path class="cls-38" d="M157.71,105.26s-10.61,43.19,0,43.19c10.61,0,0-43.19,0-43.19Z"/>
          </g>
        </g>
        <path class="cls-2" d="M-372.18,115.77s54.69-12.36,150.71-32.61C-125.46,62.9-22.15,60.67,75.07,99.46c97.23,38.79,147.06,64.31,209.04,65.53H-386.76s14.58-49.22,14.58-49.22Z"/>
        <g>
          <rect class="cls-7" x="353.79" y="139.59" width="23.9" height="15.68"/>
          <rect class="cls-18" x="377.69" y="126.85" width="41.66" height="29.32"/>
        </g>
      </g>
      <path class="cls-38" d="M-340.74,206.31s438.3-68.76,631.85-58.69c193.55,10.07,330.61,77.32,330.61,77.32v71.3s-975.26-41.32-975.26-41.32l12.8-48.61Z"/>
      <path class="cls-13" d="M-329.23,156.18S-164.53,120.09-10,123.91c154.53,3.81,375.74,121.3,375.74,121.3H-332.47l3.24-89.02Z"/>
    </g>
    <path class="cls-26" d="M296.53,12.4c-3.96-1.82-8.46-1.64-12.61-.63-.49.12-.28.87.21.76,4.27-.95,7.97-.6,12.17.43.32.08.55-.4.23-.55Z"/>
    <path class="cls-26" d="M299.13,11.45c-2.46-2.54-6.71-2.29-9.96-2.24-.46,0-.46.71,0,.72,3.5.05,6.49.33,9.66,1.91.25.12.5-.18.3-.39Z"/>
    <g>
      <g>
        <path class="cls-1" d="M296.75,69.68c-.53,4.47-3.61,7.02-4.15,9.36s-.72,15.05,1.28,19.46c3.14,6.91-.64,15.24-.64,28.28h-6.49s-.32-13.82-.85-20.09c-.18-1.44-2.8-7.36-3.86-13.31-1.06-5.95-3.96-20-3.13-30.03l17.84,6.34Z"/>
        <path class="cls-10" d="M287.76,108.49c.36-4.25-.89-3.3-2.91-9.36-2.02-6.06-.11-28.49,1.59-27.87,1.7.62,7.02,1.4,9.72.89.27-.75.48-1.57.59-2.46l-17.84-6.34c-.83,10.03,2.07,24.07,3.13,30.03,1.06,5.95,3.69,11.87,3.86,13.31.53,6.27.85,20.09.85,20.09h1s-.36-14.03,0-18.29Z"/>
        <path class="cls-10" d="M293.24,126.78c1.15,1.65,2.47,5.47.23,6.11h-17.65c-.5,0-.87-.45-.78-.94.11-.56.41-1.17,1.21-1.22.86-.06,6.59-.9,9.2-3.94,1.19-1.38,1.64,0,3.35,0h4.43Z"/>
      </g>
      <g>
        <path class="cls-11" d="M251.66,79.56c-3.13-.59-8.17.26-11.4-.51-3.23-.77-6.38.09-7.57,0-1.19-.09.09-3.83,5.62-4.94,5.53-1.11,8.08-4.51,9.7-3.4,1.62,1.11,1.13,3.12,3.18,3.57l.48,5.28Z"/>
        <path class="cls-28" d="M247.38,79.35c1.57-.03,3.07-.01,4.28.22l-.48-5.28c-1.55-.34-1.65-1.57-2.31-2.63-.51.31-.77.72-.31,1.25,1.29,1.49-.04,2.21.4,3.02.37.67-.1,2-1.58,3.43Z"/>
        <path class="cls-37" d="M249.65,73.16h0c-.46-.79-.68-1.78-1.65-2.45-1.62-1.11-4.17,2.3-9.7,3.4-5.53,1.11-6.81,4.85-5.62,4.94.62.04,1.76-.16,3.17-.27.35-1.01,1.77-2.05,3.67-2.58,2.77-.77,8.05-3.64,10.14-3.05Z"/>
      </g>
      <g>
        <path class="cls-37" d="M277.63,21c-5.36,3.83,1.38,20.81-4.88,25.48-3.3,2.47-6.04,2.46-8.15,7.1-2.48,5.47,1.53,20.16-.61,23.79,0,0-.65-3.08-3.73-2.76-3.08.32-6.81.49-9.08-.32,0,0-4.65,10-4.51,21.73.2,16.68,7.15,36.86,25.67,36.86,0,0,1.86-.38,0-10.43-1.86-10.05-1.35-19.63,3.56-29.73,6.94-14.29.58-28.32,7.15-43.08,6.57-14.76,8.81-16.89,6.31-21.77-2.5-4.88-3.72-7.56-6.19-8.2-2.47-.64-5.55,1.32-5.55,1.32Z"/>
        <path class="cls-30" d="M275.06,88.89c-1.4,9.27-9.55,10.47-2.72,33.56-1.86-10.05-1.35-19.63,3.56-29.73,6.94-14.29.58-28.32,7.15-43.08,6.57-14.76,8.81-16.89,6.31-21.77-1.02-2-1.83-3.62-2.6-4.89l-3.33,4c1.12,4.35-5.86,13.6-9.09,17.59-.4.75-.92,1.4-1.59,1.9,0,0,3.28,1.76,4.07,7.07.79,5.31-.36,26.07-1.76,35.34Z"/>
        <path class="cls-30" d="M263.99,77.37c-1.49,1.69-2.15,10.7-2.92,12.34,0,0-.2-6.13.87-10.15,1.07-4.02,1.24-3.9.54-4.47,0,0,1.07.56,1.51,2.27Z"/>
      </g>
      <g>
        <path class="cls-11" d="M296.24,19.69c-.82,1.78-1.54,3.94-2,6.34,4.22-1.85,8.09-1.21,8.15-1.18.05-.06,1.31-5.33,1.31-5.39,0-1.1-.11-2.12-2.31-2.12-2.04,0-4.53.97-5.16,2.35Z"/>
        <path class="cls-28" d="M301.4,17.34c-2.04,0-4.53.97-5.16,2.35-.65,1.41-1.23,3.06-1.68,4.88,1.68-.59,2.89-2.46,4.17-2.46.63,0,1.28.43,1.28,1.29,0,.42-.13.88-.27,1.35,1.57-.08,2.61.09,2.65.11.05-.06,1.31-5.33,1.31-5.39,0-1.1-.11-2.12-2.31-2.12Z"/>
        <path class="cls-10" d="M294.47,11.74c-.54.46-1.2.18-1.2-.41,0-.26.24-.51.79-.64-.48-.29-.72-.72-.72-1.29,0-1,1.22-1.55,2.25-1.55,2.38,0,.73,2.28,2.71,2.28.55,0,1.14-.09,1.67-.16,2.89-.35,4.31.45,4.31,2,0,.21-.05.45-.16.71.48.23,2.08.18,2.08,2.04,0,2.46-1.45,4.5-3.23,8.29-.07.14-.27.12-.3-.04-.72-3.69-2.55-2.2-3.39-3.11-.32-.34-.43-1.91-.95-1.91,0,0,0,0,0,0-.71.02-1.32.39-1.98.39-1.52,0-2.5-2-2.5-3.73,0-.94.11-2.23.64-2.89Z"/>
        <path class="cls-11" d="M295.1,11.29c-2.6,1.7-4.15,4.74-3.95,8.08.11,1.89,1.02,3.87,2.58,3.87,1.73,0,2.77-2.62,4.17-3.95.26.96,1.81.52,2.72-1.75.24-.6.14-1.74-1.01-1.77-1.31-.04-1.7,1.57-2.86,1.57-.23,0-.75-.07-.75-.41,0-.48.74-1.2.81-1.89.07-.66-.23-1.53-1.51-1.02.42-.49,1.49-1.26,1.47-1.95-.03-1.15-.89-1.29-1.68-.78Z"/>
      </g>
      <g>
        <path class="cls-1" d="M291.62,26.44c.43-1.61,10.64-2.34,12.51-2.42,0,0,.96.63-.86,4.45,0,0,1.76,3.27-.31,11.21-2.07,7.94-8.31,15.07-8.72,16.94-.39,1.77,3.77,6.63,4.63,12.41.07.5-.26.96-.76,1.03-2.94.39-12.72,1-19.2-6.71,0,0,3.57-20.59,12.26-34.26l.45-2.64Z"/>
        <path class="cls-10" d="M304.13,24.02c-1.86.08-12.08.81-12.51,2.42l-.45,2.64c-8.69,13.66-12.26,34.26-12.26,34.26,2.49,2.96,5.46,4.69,8.34,5.68-.26-3.17-.58-7.91-.31-8.92.41-1.54,2.51.32,2.76.73.24.41-2.03-5.03-2.19-6.16-.16-1.14,1.84-7.67,3-9.65,1.8-3.08,7.71-4.78,9.46-12.1.63-2.64,3.87-1.19,3.87-1.19,0,0,.03-.1.08-.28-.16-2.05-.65-2.98-.65-2.98,1.82-3.82.86-4.45.86-4.45Z"/>
      </g>
      <path class="cls-1" d="M272.75,46.48c-.81-2.35-.32-8.99.65-10.37.97-1.39,7.95-4.41,13.38-7.64,5.43-3.23,11.1-3.34,12.36,1.21,1.26,4.55-1.52,7.88-3.21,8.45-1.69.57-4.89-.89-12.07,1.56-3.03,1.04-4.67,2.07-6.46,3.4-.99,1.58-2.5,3.03-4.65,3.4Z"/>
      <path class="cls-28" d="M278.81,15.18c-.18,2-.61,3.9-1.19,5.82,1.14-.33,2.94-1.09,4.48-1.09.66,0,1.27.14,1.76.52.77-1.33,1.51-3.6,1.51-5.6,0-2.72-1.52-4.04-2.82-4.04-1.84,0-3.56,2.45-3.73,4.39Z"/>
      <path class="cls-10" d="M280.62,6.26c.39-.6.61-1.37.61-2.04,0-.86-.36-1.47-1.18-1.56-1.91-.23-1.94,2.41-3.22,2.41-.94,0-1.34-1.26-2.92-1.26-1,0-1.82.99-1.82,2.47,0,1.74,1.45,3.61,3.98,3.61,1.59,0,3.5-2.01,4.54-3.62Z"/>
      <path class="cls-37" d="M275.65,10.69c-.44,0-1.1-.19-1.1-.55s.49-.54.87-.54c.63,0,.79-.34.79-.63,0-.4-.47-.79-.47-1.17,0-.98,1.59-.38,2.14-.73.7-.45,0-2.06.81-2.06.37,0,.72.3,1.07.3.68,0,.97-1.49,1.58-1.49.2,0,.27.23.27.41,0,1.63-5.62,6.46-5.96,6.46Z"/>
      <path class="cls-10" d="M289.28,12.12c.98-.29,1.75-1.53,1.75-2.63,0-2.53-2.77-1.37-3.9-2.34-1.05-.91-2.14-3.08-3.84-3.08s-7.41,3.98-8.19,8.36c-.32,1.81,1.54,3.02,2.53,4.21.59.71.28,1.93.66,1.87,2.97-.45,1.86-5.22,3.31-6.3.24-.18,3.58,3.61,4.33,3.29,1.39-.58,2.46-2.33,3.36-3.37Z"/>
      <path class="cls-11" d="M289.58,9.79c-1.3.79-1.81,1.06-2.68,1.06-.44,0-.98-.07-1.75-.18-.14.17.08,1.33-1.04,3.04-.47.13-.54-.43-.54-.82,0-.8-.31-1.32-.95-1.45-.67-.14-1.2.85-1.33,1.68-.2,1.24.45,2.37,1.19,2.19.14,1.56.56,4.44,2.53,4.44,3.11,0,4.64-5.28,4.64-8.5,0-.49-.02-.98-.07-1.46Z"/>
      <path class="cls-11" d="M298.31,23.24c-.06-.02-13.29-3.56-15.14-3.56-3.11,0-4.76,1.79-4.76,3.55s1.59,3.76,5.02,3.76c1.43,0,9.61-.36,11.96-.36,1.11,0,7.23,3.05,8.61,5.31l-1.04,7.73s.46.15.75-.62c.29-.77.98-1.85,1.4-2.08.42-.23,1.81-3.73,1.73-4.54-.08-.81-.42-3.34-1.73-4.96-1.31-1.61-6.8-4.25-6.8-4.25Z"/>
      <g>
        <path class="cls-28" d="M305.11,27.49c-.22-.27-.57-.58-.99-.9-.33-.08-.68-.11-1.05-.15-.26.12-.65.35-.65.63,0,.47,1.52.37,1.59.7,0,.02,0,.03,0,.05,0,.44-1.68.92-1.68,2.06,0,.09.08.29.2.53.54.45.99.89,1.3,1.31.2-.03.43-.08.61-.08.12,0,.46.08.78.08.34,0,1.06-.13,1.41-.6-.22-1.11-.67-2.57-1.53-3.64Z"/>
        <path class="cls-11" d="M303.96,26.02c-.66.04-1.25.04-1.25.78,0,.41.5.5.91.5.37,0,.99-.08,1.33-.08.17,0,.33.04.33.22,0,0,0,.01,0,.02-.04.84-2.74.58-2.74,1.96,0,.18.11.33.41.37-.04.2-.11.41-.11.59,0,.21.1.37.45.41.05.19.05.44.24.55.01,0,.03.01.06.01.18,0,.63-.14.82-.14,0,0,0,0,.01,0,.64.02,1.02.1,1.34.1.81,0,2.49-1.3,2.49-1.58,0-.19-.23-.4-.24-.58,0,0,0,0,0-.01,0-.16.11-.3.12-.46,0,0,0,0,0-.01,0-.17-.13-.29-.15-.46,0-.02,0-.04,0-.07,0-.2.1-.42.1-.63,0-1.51-1.78-1.9-2.8-1.9-.5,0-.96.04-1.15.13-.1.05-.15.2-.19.3Z"/>
      </g>
      <path class="cls-11" d="M275.36,36.99c1.13.17,1.56.45,1.56,1.02,0,.43-.4.61-.84.61-.58,0-1.52-.34-1.86-.42.28.3.41.37.4.68-.01.29-.18.5-.85.38-.6-.11-1.3-.14-1.57-.19-.57-.27-.51-1.4-.64-2.07s-.08-1.78,1.03-2.37c1.11-.59,1.97-1.09,2.49-1.42.53-.32,2.25.02,3.12-.24.87-.26.77.93-.3,1.22,0,0,.36.22,1.16.61.79.39,1.34.78,1.18,1.32-.16.54-1.14.5-1.14.5,0,0,.45.99-.36,1.05-.8.06-1.5-.42-1.94-.58-.45-.16-1.44-.09-1.44-.09Z"/>
    </g>
    <g>
      <g>
        <path class="cls-6" d="M170.73,130.82c0,.57-.42,1.13-1.08,1.13H-156.81c-.66,0-1.28-.56-1.28-1.13v-.15c0-.57.62-1.24,1.28-1.24H169.64c.66,0,1.08.67,1.08,1.24v.15Z"/>
        <path class="cls-27" d="M169.04,131.9c0,.96-.68,1.73-1.54,1.73h-7.12c-.86,0-1.44-.78-1.44-1.73v-.09c0-.96.58-1.54,1.44-1.54h7.12c.86,0,1.54.58,1.54,1.54v.09Z"/>
        <path class="cls-31" d="M152.2,131.9c0,.96-.75,1.73-1.61,1.73h-7.12c-.86,0-1.37-.78-1.37-1.73v-.09c0-.96.51-1.54,1.37-1.54h7.12c.86,0,1.61.58,1.61,1.54v.09Z"/>
        <path class="cls-40" d="M134.94,131.9c0,.96-.84,1.73-1.7,1.73h-7.12c-.86,0-1.7-.78-1.7-1.73v-.09c0-.96.84-1.54,1.7-1.54h7.12c.86,0,1.7.58,1.7,1.54v.09Z"/>
        <path class="cls-15" d="M117.68,131.9c0,.96-.49,1.73-1.35,1.73h-7.12c-.86,0-1.63-.78-1.63-1.73v-.09c0-.96.77-1.54,1.63-1.54h7.12c.86,0,1.35.58,1.35,1.54v.09Z"/>
        <path class="cls-9" d="M100.42,131.9c0,.96-.58,1.73-1.44,1.73h-7.12c-.86,0-1.54-.78-1.54-1.73v-.09c0-.96.68-1.54,1.54-1.54h7.12c.86,0,1.44.58,1.44,1.54v.09Z"/>
        <path class="cls-29" d="M83.58,131.9c0,.96-.65,1.73-1.51,1.73h-7.12c-.86,0-1.47-.78-1.47-1.73v-.09c0-.96.61-1.54,1.47-1.54h7.12c.86,0,1.51.58,1.51,1.54v.09Z"/>
        <path class="cls-33" d="M65.9,131.9c0,.96-.77,1.73-1.63,1.73h-7.12c-.86,0-1.35-.78-1.35-1.73v-.09c0-.96.49-1.54,1.35-1.54h7.12c.86,0,1.63.58,1.63,1.54v.09Z"/>
        <path class="cls-32" d="M49.48,131.9c0,.96-.81,1.73-1.67,1.73h-7.12c-.86,0-1.73-.78-1.73-1.73v-.09c0-.96.87-1.54,1.73-1.54h7.12c.86,0,1.67.58,1.67,1.54v.09Z"/>
        <path class="cls-39" d="M32.21,131.9c0,.96-.91,1.73-1.77,1.73h-7.12c-.86,0-1.64-.78-1.64-1.73v-.09c0-.96.78-1.54,1.64-1.54h7.12c.86,0,1.77.58,1.77,1.54v.09Z"/>
        <path class="cls-14" d="M14.53,131.9c0,.96-.58,1.73-1.44,1.73h-7.12c-.86,0-1.54-.78-1.54-1.73v-.09c0-.96.69-1.54,1.54-1.54h7.12c.86,0,1.44.58,1.44,1.54v.09Z"/>
      </g>
      <g>
        <path class="cls-3" d="M499.07,130.82c0,.57-.42,1.13-1.08,1.13H171.53c-.66,0-1.28-.56-1.28-1.13v-.15c0-.57.62-1.24,1.28-1.24h326.45c.66,0,1.08.67,1.08,1.24v.15Z"/>
        <path class="cls-19" d="M394.23,131.9c0,.96-.77,1.73-1.63,1.73h-7.12c-.86,0-1.35-.78-1.35-1.73v-.09c0-.96.49-1.54,1.35-1.54h7.12c.86,0,1.63.58,1.63,1.54v.09Z"/>
        <path class="cls-25" d="M377.81,131.9c0,.96-.81,1.73-1.67,1.73h-7.12c-.86,0-1.73-.78-1.73-1.73v-.09c0-.96.87-1.54,1.73-1.54h7.12c.86,0,1.67.58,1.67,1.54v.09Z"/>
        <path class="cls-12" d="M360.55,131.9c0,.96-.91,1.73-1.77,1.73h-7.12c-.86,0-1.64-.78-1.64-1.73v-.09c0-.96.78-1.54,1.64-1.54h7.12c.86,0,1.77.58,1.77,1.54v.09Z"/>
        <path class="cls-22" d="M342.87,131.9c0,.96-.58,1.73-1.44,1.73h-7.12c-.86,0-1.54-.78-1.54-1.73v-.09c0-.96.69-1.54,1.54-1.54h7.12c.86,0,1.44.58,1.44,1.54v.09Z"/>
        <path class="cls-4" d="M326.03,131.9c0,.96-.65,1.73-1.51,1.73h-7.12c-.86,0-1.48-.78-1.48-1.73v-.09c0-.96.62-1.54,1.48-1.54h7.12c.86,0,1.51.58,1.51,1.54v.09Z"/>
        <path class="cls-35" d="M308.77,131.9c0,.96-.74,1.73-1.6,1.73h-7.12c-.86,0-1.38-.78-1.38-1.73v-.09c0-.96.52-1.54,1.38-1.54h7.12c.86,0,1.6.58,1.6,1.54v.09Z"/>
        <path class="cls-5" d="M291.93,131.9c0,.96-.81,1.73-1.67,1.73h-7.12c-.86,0-1.73-.78-1.73-1.73v-.09c0-.96.88-1.54,1.73-1.54h7.12c.86,0,1.67.58,1.67,1.54v.09Z"/>
        <path class="cls-24" d="M274.67,131.9c0,.96-.9,1.73-1.76,1.73h-7.12c-.86,0-1.64-.78-1.64-1.73v-.09c0-.96.78-1.54,1.64-1.54h7.12c.86,0,1.76.58,1.76,1.54v.09Z"/>
        <path class="cls-8" d="M256.98,131.9c0,.96-.57,1.73-1.43,1.73h-7.12c-.86,0-1.55-.78-1.55-1.73v-.09c0-.96.69-1.54,1.55-1.54h7.12c.86,0,1.43.58,1.43,1.54v.09Z"/>
        <path class="cls-23" d="M240.14,131.9c0,.96-.64,1.73-1.5,1.73h-7.12c-.86,0-1.48-.78-1.48-1.73v-.09c0-.96.62-1.54,1.48-1.54h7.12c.86,0,1.5.58,1.5,1.54v.09Z"/>
        <path class="cls-20" d="M222.88,131.9c0,.96-.73,1.73-1.59,1.73h-7.12c-.86,0-1.39-.78-1.39-1.73v-.09c0-.96.53-1.54,1.39-1.54h7.12c.86,0,1.59.58,1.59,1.54v.09Z"/>
        <path class="cls-34" d="M205.62,131.9c0,.96-.83,1.73-1.69,1.73h-7.12c-.86,0-1.72-.78-1.72-1.73v-.09c0-.96.86-1.54,1.72-1.54h7.12c.86,0,1.69.58,1.69,1.54v.09Z"/>
        <path class="cls-21" d="M188.78,131.9c0,.96-.9,1.73-1.76,1.73h-7.12c-.86,0-1.65-.78-1.65-1.73v-.09c0-.96.79-1.54,1.65-1.54h7.12c.86,0,1.76.58,1.76,1.54v.09Z"/>
      </g>
    </g>
    <path class="cls-17" d="M-510.75,287.66v94.04s294.83,0,294.83,0h8.74s286.09,0,286.09,0h8.74s286.09,0,286.09,0h8.74s286.09,0,286.09,0h8.74s286.09,0,286.09,0h8.74s286.09,0,286.09,0h8.74s286.09,0,286.09,0h8.74s294.83,0,294.83,0v-94.04c0-3.03-.14-6.02-.34-9l46.07-139.4-5.53-1.83-41.64,126.02v-119.28h13.41s0-11.65,0-11.65H-485.66s0,11.65,0,11.65h225.64s18.04,54.6,18.04,54.6c-24-26.02-58.34-42.35-96.44-42.35h-41.11c-72.36,0-131.23,58.87-131.23,131.23ZM-253.88,144.18h39.42v100.45c-4.15-11.9-9.96-23.03-17.16-33.1l-22.26-67.35ZM1577.99,210.83c-7.43,10.25-13.41,21.62-17.65,33.79v-100.45h39.68s-22.03,66.66-22.03,66.66ZM1606.15,144.18h197.36s17.9,54.17,17.9,54.17c-23.98-25.76-58.14-41.92-96.03-41.92h-41.11c-37.89,0-72.05,16.16-96.03,41.92l17.9-54.17ZM1537.35,211.53l-22.26-67.35h39.42v100.45c-4.15-11.9-9.96-23.03-17.16-33.1ZM1527,198.77c-24-26.01-58.34-42.34-96.43-42.34h-41.11c-38.09,0-72.44,16.33-96.43,42.34l18.04-54.6h197.89s18.04,54.6,18.04,54.6ZM1282.67,211.52c-7.2,10.07-13.02,21.2-17.16,33.1v-100.45h39.42s-22.26,67.35-22.26,67.35ZM1242.03,210.84l-22.03-66.66h39.68v100.45c-4.24-12.18-10.22-23.54-17.65-33.79ZM1231.76,198.35c-23.98-25.76-58.14-41.92-96.03-41.92h-41.11c-38.1,0-72.44,16.33-96.43,42.34l18.04-54.6h197.63s17.9,54.17,17.9,54.17ZM987.84,211.53c-7.2,10.07-13.01,21.19-17.16,33.1v-100.45h39.42s-22.26,67.35-22.26,67.35ZM947.2,210.83l-22.03-66.66h39.68v100.45c-4.24-12.18-10.22-23.54-17.65-33.79ZM936.93,198.35c-23.98-25.76-58.14-41.92-96.03-41.92h-41.11c-37.89,0-72.05,16.16-96.03,41.92l17.9-54.18h197.36s17.9,54.17,17.9,54.17ZM693.5,210.83c-7.43,10.25-13.41,21.62-17.65,33.79v-100.45h39.68s-22.03,66.66-22.03,66.66ZM652.86,211.52l-22.25-67.34h39.42v100.45c-4.15-11.91-9.96-23.03-17.17-33.11ZM642.51,198.77c-24-26.01-58.34-42.34-96.43-42.34h-41.11c-38.1,0-72.44,16.33-96.44,42.35l18.04-54.6h197.89s18.04,54.6,18.04,54.6ZM398.18,211.53c-7.2,10.07-13.01,21.19-17.16,33.1v-100.45h39.42s-22.26,67.35-22.26,67.35ZM357.54,210.83l-22.03-66.65h39.68v100.45c-4.24-12.18-10.22-23.54-17.66-33.8ZM347.28,198.35c-23.98-25.76-58.14-41.92-96.03-41.92h-41.11c-37.89,0-72.06,16.16-96.03,41.92l17.9-54.18h197.37s17.9,54.17,17.9,54.17ZM103.85,210.83c-7.43,10.25-13.41,21.62-17.65,33.79v-100.45h39.68s-22.03,66.66-22.03,66.66ZM63.2,211.52l-22.25-67.34h39.42v100.45c-4.15-11.91-9.96-23.03-17.16-33.11ZM52.85,198.77c-24-26.01-58.34-42.34-96.43-42.34h-41.11c-37.89,0-72.05,16.16-96.03,41.92l17.9-54.18H34.81s18.04,54.6,18.04,54.6ZM-190.98,210.83c-7.43,10.26-13.42,21.62-17.66,33.8v-100.45h39.68s-22.03,66.65-22.03,66.65ZM1849.34,144.18v100.45c-4.24-12.18-10.22-23.54-17.65-33.79l-22.03-66.66h39.68ZM1561.79,287.66c0-3.63.19-7.21.5-10.75l17.59-53.23c21.57-35.07,60.29-58.5,104.4-58.5h41.11c44.1,0,82.83,23.44,104.4,58.5l17.59,53.23c.31,3.55.5,7.13.5,10.75v85.3h-286.09v-85.3ZM1266.96,287.66c0-3.98.21-7.91.58-11.79l16.94-51.26c21.45-35.58,60.48-59.44,104.97-59.44h41.11c44.5,0,83.52,23.86,104.97,59.44l16.94,51.25c.37,3.88.58,7.81.58,11.79v85.3h-286.09v-85.3ZM972.14,287.66c0-3.98.21-7.91.58-11.79l16.94-51.25c21.45-35.59,60.48-59.44,104.97-59.44h41.11c44.1,0,82.83,23.44,104.4,58.51l17.59,53.22c.31,3.55.5,7.13.5,10.76v85.3h-286.09v-85.3ZM677.31,287.66c0-3.63.19-7.21.5-10.76l17.59-53.21c21.57-35.07,60.3-58.51,104.4-58.51h41.11c44.1,0,82.83,23.44,104.4,58.5l17.59,53.23c.31,3.55.5,7.13.5,10.75v85.3h-286.09v-85.3ZM382.48,287.66c0-3.98.21-7.92.58-11.81l16.93-51.23c21.45-35.59,60.48-59.46,104.98-59.46h41.11c44.5,0,83.52,23.86,104.97,59.44l16.94,51.25c.37,3.88.58,7.81.58,11.79v85.3h-286.09v-85.3ZM87.65,287.66c0-3.63.19-7.21.5-10.76l17.58-53.21c21.57-35.07,60.3-58.51,104.4-58.51h41.11c44.1,0,82.83,23.44,104.4,58.5l17.59,53.23c.31,3.55.5,7.13.5,10.75v85.3H87.65v-85.3ZM-207.18,287.66c0-3.63.19-7.21.5-10.75l17.59-53.23c21.57-35.07,60.3-58.51,104.4-58.51h41.11c44.5,0,83.52,23.86,104.97,59.44l16.94,51.25c.37,3.88.58,7.81.58,11.79v85.3H-207.18v-85.3ZM-502.01,287.66c0-67.54,54.95-122.49,122.49-122.49h41.11c44.5,0,83.53,23.86,104.98,59.46l16.93,51.23c.37,3.89.58,7.82.58,11.81v85.3h-286.09v-85.3Z"/>
  </g>
</svg>