<?xml version="1.0" encoding="UTF-8"?>
<svg id="OBJECTS" xmlns="http://www.w3.org/2000/svg" xmlns:xlink="http://www.w3.org/1999/xlink" viewBox="0 0 390 216.55">
  <defs>
    <style>
      .cls-1 {
        fill: #626129;
      }

      .cls-1, .cls-2, .cls-3, .cls-4, .cls-5, .cls-6, .cls-7 {
        stroke-width: 0px;
      }

      .cls-2 {
        fill: #000;
      }

      .cls-3 {
        fill: #879b5f;
      }

      .cls-4 {
        fill: none;
      }

      .cls-5 {
        fill: #774639;
      }

      .cls-8 {
        clip-path: url(#clippath);
      }

      .cls-6 {
        fill: #f0f1dd;
      }

      .cls-7 {
        fill: #043f22;
      }
    </style>
    <clipPath id="clippath">
      <rect class="cls-4" width="390" height="216.55"/>
    </clipPath>
  </defs>
  <rect class="cls-2" x="-390" width="390" height="216.55"/>
  <g class="cls-8">
    <g>
      <g>
        <path class="cls-1" d="M-186.16,72.91S-8.8,6.04,294.09,46.69v72.12l-253.07-27.54-227.17-18.36Z"/>
        <g>
          <path class="cls-3" d="M-455.13,67.78s70.27-35.55,205.78-21.51S57.57,92.53,83.67,93.74l9.09,12.02v53.6s-539.36-28.56-544.05-30.99c-4.68-2.43-3.85-60.6-3.85-60.6Z"/>
          <path class="cls-6" d="M-90,139.74s244.27-67.34,383-37.92v143.14L-90,139.74Z"/>
        </g>
        <path class="cls-7" d="M-1228.65,174.29S-635.21,95.69-372.49,101.41c262.72,5.72,622,125.31,622,125.31l-171.05,15.87-1323.68-19.4,16.56-48.89Z"/>
      </g>
      <g>
        <path class="cls-1" d="M546.9,73.26S369.55,6.39,66.65,47.03v72.12s253.07-27.54,253.07-27.54l227.17-18.36Z"/>
        <g>
          <path class="cls-3" d="M815.87,68.12s-70.27-35.55-205.78-21.51c-135.51,14.04-306.92,46.25-333.03,47.47l-9.09,12.02v53.6s539.36-28.56,544.05-30.99c4.68-2.43,3.85-60.6,3.85-60.6Z"/>
          <path class="cls-6" d="M440.39,137.1S206.48,72.74,67.74,102.16l-86.83,27.07,310.47,42.97,149.01-35.1Z"/>
        </g>
        <path class="cls-7" d="M1245.88,163.96s-438.3-68.76-631.85-58.69C420.49,115.35,96.39,236.99,96.39,236.99l187.03,16.91,975.26-41.32-12.8-48.61Z"/>
      </g>
    </g>
    <path class="cls-5" d="M-1305.46,245.31v94.04s294.83,0,294.83,0h8.74s286.09,0,286.09,0h8.74s286.09,0,286.09,0h8.74s286.09,0,286.09,0h8.74s286.09,0,286.09,0h8.74s286.09,0,286.09,0h8.74s286.09,0,286.09,0h8.74s294.83,0,294.83,0v-94.04c0-3.03-.14-6.02-.34-9l46.07-139.4-5.53-1.83-41.64,126.02v-119.28h13.41s0-11.65,0-11.65H-1280.37s0,11.65,0,11.65h225.64s18.04,54.6,18.04,54.6c-24-26.02-58.34-42.35-96.44-42.35h-41.11c-72.36,0-131.23,58.87-131.23,131.23ZM-1048.59,101.83h39.42v100.45c-4.15-11.9-9.96-23.03-17.16-33.1l-22.26-67.35ZM783.28,168.49c-7.43,10.25-13.41,21.62-17.65,33.79v-100.45h39.68s-22.03,66.66-22.03,66.66ZM811.44,101.83h197.36s17.9,54.17,17.9,54.17c-23.98-25.76-58.14-41.92-96.03-41.92h-41.11c-37.89,0-72.05,16.16-96.03,41.92l17.9-54.17ZM742.64,169.18l-22.26-67.35h39.42v100.45c-4.15-11.9-9.96-23.03-17.16-33.1ZM732.28,156.43c-24-26.01-58.34-42.34-96.43-42.34h-41.11c-38.09,0-72.44,16.33-96.43,42.34l18.04-54.6h197.89s18.04,54.6,18.04,54.6ZM487.96,169.18c-7.2,10.07-13.02,21.2-17.16,33.1v-100.45h39.42s-22.26,67.35-22.26,67.35ZM447.32,168.49l-22.03-66.66h39.68v100.45c-4.24-12.18-10.22-23.54-17.65-33.79ZM437.05,156c-23.98-25.76-58.14-41.92-96.03-41.92h-41.11c-38.1,0-72.44,16.33-96.43,42.34l18.04-54.6h197.63s17.9,54.17,17.9,54.17ZM193.13,169.18c-7.2,10.07-13.01,21.19-17.16,33.1v-100.45h39.42s-22.26,67.35-22.26,67.35ZM152.49,168.49l-22.03-66.66h39.68v100.45c-4.24-12.18-10.22-23.54-17.65-33.79ZM142.22,156c-23.98-25.76-58.14-41.92-96.03-41.92H5.08c-37.89,0-72.05,16.16-96.03,41.92l17.9-54.18H124.32s17.9,54.17,17.9,54.17ZM-101.21,168.49c-7.43,10.25-13.41,21.62-17.65,33.79v-100.45h39.68s-22.03,66.66-22.03,66.66ZM-141.85,169.17l-22.25-67.34h39.42v100.45c-4.15-11.91-9.96-23.03-17.17-33.11ZM-152.2,156.43c-24-26.01-58.34-42.34-96.43-42.34h-41.11c-38.1,0-72.44,16.33-96.44,42.35l18.04-54.6h197.89s18.04,54.6,18.04,54.6ZM-396.53,169.18c-7.2,10.07-13.01,21.19-17.16,33.1v-100.45h39.42s-22.26,67.35-22.26,67.35ZM-437.18,168.48l-22.03-66.65h39.68v100.45c-4.24-12.18-10.22-23.54-17.66-33.8ZM-447.43,156c-23.98-25.76-58.14-41.92-96.03-41.92h-41.11c-37.89,0-72.06,16.16-96.03,41.92l17.9-54.18h197.37s17.9,54.17,17.9,54.17ZM-690.86,168.49c-7.43,10.25-13.41,21.62-17.65,33.79v-100.45h39.68s-22.03,66.66-22.03,66.66ZM-731.51,169.17l-22.25-67.34h39.42v100.45c-4.15-11.91-9.96-23.03-17.16-33.11ZM-741.86,156.43c-24-26.01-58.34-42.34-96.43-42.34h-41.11c-37.89,0-72.05,16.16-96.03,41.92l17.9-54.18h197.63s18.04,54.6,18.04,54.6ZM-985.69,168.48c-7.43,10.26-13.42,21.62-17.66,33.8v-100.45h39.68s-22.03,66.65-22.03,66.65ZM1054.63,101.83v100.45c-4.24-12.18-10.22-23.54-17.65-33.79l-22.03-66.66h39.68ZM767.08,245.31c0-3.63.19-7.21.5-10.75l17.59-53.23c21.57-35.07,60.29-58.5,104.4-58.5h41.11c44.1,0,82.83,23.44,104.4,58.5l17.59,53.23c.31,3.55.5,7.13.5,10.75v85.3h-286.09v-85.3ZM472.25,245.31c0-3.98.21-7.91.58-11.79l16.94-51.26c21.45-35.58,60.48-59.44,104.97-59.44h41.11c44.5,0,83.52,23.86,104.97,59.44l16.94,51.25c.37,3.88.58,7.81.58,11.79v85.3h-286.09v-85.3ZM177.42,245.31c0-3.98.21-7.91.58-11.79l16.94-51.25c21.45-35.59,60.48-59.44,104.97-59.44h41.11c44.1,0,82.83,23.44,104.4,58.51l17.59,53.22c.31,3.55.5,7.13.5,10.76v85.3H177.42v-85.3ZM-117.4,245.31c0-3.63.19-7.21.5-10.76l17.59-53.21c21.57-35.07,60.3-58.51,104.4-58.51h41.11c44.1,0,82.83,23.44,104.4,58.5l17.59,53.23c.31,3.55.5,7.13.5,10.75v85.3H-117.4v-85.3ZM-412.23,245.31c0-3.98.21-7.92.58-11.81l16.93-51.23c21.45-35.59,60.48-59.46,104.98-59.46h41.11c44.5,0,83.52,23.86,104.97,59.44l16.94,51.25c.37,3.88.58,7.81.58,11.79v85.3h-286.09v-85.3ZM-707.06,245.31c0-3.63.19-7.21.5-10.76l17.58-53.21c21.57-35.07,60.3-58.51,104.4-58.51h41.11c44.1,0,82.83,23.44,104.4,58.5l17.59,53.23c.31,3.55.5,7.13.5,10.75v85.3h-286.09v-85.3ZM-1001.89,245.31c0-3.63.19-7.21.5-10.75l17.59-53.23c21.57-35.07,60.3-58.51,104.4-58.51h41.11c44.5,0,83.52,23.86,104.97,59.44l16.94,51.25c.37,3.88.58,7.81.58,11.79v85.3h-286.09v-85.3ZM-1296.72,245.31c0-67.54,54.95-122.49,122.49-122.49h41.11c44.5,0,83.53,23.86,104.98,59.46l16.93,51.23c.37,3.89.58,7.82.58,11.81v85.3h-286.09v-85.3Z"/>
  </g>
</svg>