<?xml version="1.0" encoding="UTF-8"?>
<svg id="OBJECTS" xmlns="http://www.w3.org/2000/svg" xmlns:xlink="http://www.w3.org/1999/xlink" viewBox="0 0 390 216.55">
  <defs>
    <style>
      .cls-1 {
        fill: #626129;
      }

      .cls-1, .cls-2, .cls-3, .cls-4, .cls-5, .cls-6, .cls-7, .cls-8, .cls-9, .cls-10, .cls-11, .cls-12, .cls-13, .cls-14, .cls-15, .cls-16, .cls-17, .cls-18, .cls-19, .cls-20, .cls-21, .cls-22, .cls-23, .cls-24, .cls-25, .cls-26, .cls-27, .cls-28, .cls-29, .cls-30, .cls-31, .cls-32, .cls-33, .cls-34, .cls-35, .cls-36 {
        stroke-width: 0px;
      }

      .cls-2 {
        fill: url(#linear-gradient-12);
      }

      .cls-3 {
        fill: url(#linear-gradient-17);
      }

      .cls-4 {
        fill: url(#linear-gradient-19);
      }

      .cls-5 {
        fill: url(#linear-gradient);
      }

      .cls-6 {
        fill: #7b3e19;
      }

      .cls-7 {
        fill: #000;
      }

      .cls-8 {
        fill: url(#linear-gradient-21);
      }

      .cls-9 {
        fill: url(#linear-gradient-6);
      }

      .cls-10 {
        fill: url(#linear-gradient-15);
      }

      .cls-11 {
        fill: #879b5f;
      }

      .cls-12 {
        fill: url(#linear-gradient-11);
      }

      .cls-13 {
        fill: url(#linear-gradient-5);
      }

      .cls-14 {
        fill: none;
      }

      .cls-15 {
        fill: #774639;
      }

      .cls-16 {
        fill: #a45221;
      }

      .cls-17 {
        fill: url(#linear-gradient-13);
      }

      .cls-18 {
        fill: url(#linear-gradient-23);
      }

      .cls-19 {
        fill: url(#linear-gradient-25);
      }

      .cls-20 {
        fill: url(#linear-gradient-16);
      }

      .cls-21 {
        fill: url(#linear-gradient-22);
      }

      .cls-22 {
        fill: url(#linear-gradient-20);
      }

      .cls-23 {
        fill: url(#linear-gradient-14);
      }

      .cls-24 {
        fill: url(#linear-gradient-2);
      }

      .cls-25 {
        fill: url(#linear-gradient-7);
      }

      .cls-26 {
        fill: url(#linear-gradient-3);
      }

      .cls-37 {
        clip-path: url(#clippath);
      }

      .cls-27 {
        fill: url(#linear-gradient-9);
      }

      .cls-28 {
        fill: url(#linear-gradient-27);
      }

      .cls-29 {
        fill: url(#linear-gradient-8);
      }

      .cls-30 {
        fill: url(#linear-gradient-24);
      }

      .cls-31 {
        fill: url(#linear-gradient-26);
      }

      .cls-32 {
        fill: url(#linear-gradient-18);
      }

      .cls-33 {
        fill: #c2a131;
      }

      .cls-34 {
        fill: #043f22;
      }

      .cls-35 {
        fill: url(#linear-gradient-10);
      }

      .cls-36 {
        fill: url(#linear-gradient-4);
      }
    </style>
    <clipPath id="clippath">
      <rect class="cls-14" width="390" height="216.55"/>
    </clipPath>
    <linearGradient id="linear-gradient" x1="527.05" y1="85.5" x2="527.05" y2="88.67" gradientUnits="userSpaceOnUse">
      <stop offset="0" stop-color="#fff"/>
      <stop offset=".15" stop-color="#d4d4d4"/>
      <stop offset=".32" stop-color="#adadad"/>
      <stop offset=".48" stop-color="#8e8e8e"/>
      <stop offset=".64" stop-color="#777"/>
      <stop offset=".8" stop-color="#6a6a6a"/>
      <stop offset=".93" stop-color="#666"/>
      <stop offset=".93" stop-color="#000"/>
    </linearGradient>
    <linearGradient id="linear-gradient-2" x1="392.75" y1="85.82" x2="392.75" y2="90.04" gradientUnits="userSpaceOnUse">
      <stop offset="0" stop-color="#fff"/>
      <stop offset=".12" stop-color="#eee7dd"/>
      <stop offset=".29" stop-color="#dbcbb6"/>
      <stop offset=".46" stop-color="#ccb697"/>
      <stop offset=".63" stop-color="#c1a680"/>
      <stop offset=".78" stop-color="#bb9d73"/>
      <stop offset=".92" stop-color="#b99a6f"/>
      <stop offset="1" stop-color="#6b4d2b"/>
    </linearGradient>
    <linearGradient id="linear-gradient-3" x1="375.91" x2="375.91" xlink:href="#linear-gradient-2"/>
    <linearGradient id="linear-gradient-4" x1="179.35" y1="84.81" x2="179.35" y2="88.42" xlink:href="#linear-gradient"/>
    <linearGradient id="linear-gradient-5" x1="358.97" y1="85.17" x2="358.97" y2="89.98" xlink:href="#linear-gradient-2"/>
    <linearGradient id="linear-gradient-6" x1="339.78" y1="85.17" x2="339.78" y2="89.98" xlink:href="#linear-gradient-2"/>
    <linearGradient id="linear-gradient-7" x1="319.88" y1="85.17" x2="319.88" y2="89.98" xlink:href="#linear-gradient-2"/>
    <linearGradient id="linear-gradient-8" x1="300.45" y1="85.17" x2="300.45" y2="89.98" xlink:href="#linear-gradient-2"/>
    <linearGradient id="linear-gradient-9" x1="280.79" y1="85.17" x2="280.79" y2="89.98" xlink:href="#linear-gradient-2"/>
    <linearGradient id="linear-gradient-10" x1="261.6" y1="85.17" x2="261.6" y2="89.98" xlink:href="#linear-gradient-2"/>
    <linearGradient id="linear-gradient-11" x1="241.46" y1="85.17" x2="241.46" y2="89.98" xlink:href="#linear-gradient-2"/>
    <linearGradient id="linear-gradient-12" x1="222.51" y1="85.17" x2="222.51" y2="89.98" xlink:href="#linear-gradient-2"/>
    <linearGradient id="linear-gradient-13" x1="202.85" y1="85.17" x2="202.85" y2="89.98" xlink:href="#linear-gradient-2"/>
    <linearGradient id="linear-gradient-14" x1="182.94" y1="85.17" x2="182.94" y2="89.98" xlink:href="#linear-gradient-2"/>
    <linearGradient id="linear-gradient-15" x1="163.76" y1="85.17" x2="163.76" y2="89.98" xlink:href="#linear-gradient-2"/>
    <linearGradient id="linear-gradient-16" x1="144.09" y1="85.17" x2="144.09" y2="89.98" xlink:href="#linear-gradient-2"/>
    <linearGradient id="linear-gradient-17" x1="124.67" y1="85.17" x2="124.67" y2="89.98" xlink:href="#linear-gradient-2"/>
    <linearGradient id="linear-gradient-18" x1="105" y1="85.17" x2="105" y2="89.98" xlink:href="#linear-gradient-2"/>
    <linearGradient id="linear-gradient-19" x1="85.1" y1="85.17" x2="85.1" y2="89.98" xlink:href="#linear-gradient-2"/>
    <linearGradient id="linear-gradient-20" x1="65.91" y1="85.17" x2="65.91" y2="89.98" xlink:href="#linear-gradient-2"/>
    <linearGradient id="linear-gradient-21" x1="46.25" y1="85.17" x2="46.25" y2="89.98" xlink:href="#linear-gradient-2"/>
    <linearGradient id="linear-gradient-22" x1="26.34" y1="85.17" x2="26.34" y2="89.98" xlink:href="#linear-gradient-2"/>
    <linearGradient id="linear-gradient-23" x1="7.16" y1="85.17" x2="7.16" y2="89.98" xlink:href="#linear-gradient-2"/>
    <linearGradient id="linear-gradient-24" x1="-124.47" y1="85.87" x2="-124.47" y2="89.03" xlink:href="#linear-gradient"/>
    <linearGradient id="linear-gradient-25" x1="33.2" y1="86.18" x2="33.2" y2="90.4" xlink:href="#linear-gradient-2"/>
    <linearGradient id="linear-gradient-26" x1="16.36" y1="86.18" x2="16.36" y2="90.4" xlink:href="#linear-gradient-2"/>
    <linearGradient id="linear-gradient-27" x1="-1.12" y1="86.18" x2="-1.12" y2="90.4" xlink:href="#linear-gradient-2"/>
  </defs>
  <g class="cls-37">
    <g>
      <g>
        <path class="cls-1" d="M253.42,73.08s54.69-12.36,150.71-32.61c96.01-20.26,199.32-22.48,296.54,16.31,97.23,38.79,147.06,64.31,209.04,65.53H238.84l14.58-49.22Z"/>
        <g>
          <path class="cls-33" d="M331.2,110.96s113.43-77.37,236.59-17.22l-118.29,65.63-118.29-48.41Z"/>
          <g>
            <rect class="cls-16" x="345.38" y="81.73" width="51.85" height="31.76"/>
            <rect class="cls-6" x="325.13" y="90.7" width="20.26" height="20.26"/>
          </g>
        </g>
      </g>
      <path class="cls-34" d="M-58.65,174.29s593.44-78.6,856.17-72.88c262.72,5.72,622,125.31,622,125.31l-171.05,15.87L-75.22,223.19l16.56-48.89Z"/>
      <path class="cls-11" d="M-64.48,89.83s250.22-45.68,484.98-40.85c234.77,4.83,570.84,153.53,570.84,153.53H-69.4l4.92-112.68Z"/>
    </g>
    <g>
      <g>
        <path class="cls-5" d="M691.46,88.47c0,.57-.42,1.13-1.08,1.13h-326.45c-.66,0-1.28-.56-1.28-1.13v-.15c0-.57.62-1.24,1.28-1.24h326.45c.66,0,1.08.67,1.08,1.24v.15Z"/>
        <path class="cls-24" d="M398.01,89.56c0,.96-.83,1.73-1.69,1.73h-7.12c-.86,0-1.72-.78-1.72-1.73v-.09c0-.96.86-1.54,1.72-1.54h7.12c.86,0,1.69.58,1.69,1.54v.09Z"/>
        <path class="cls-26" d="M381.17,89.56c0,.96-.9,1.73-1.76,1.73h-7.12c-.86,0-1.65-.78-1.65-1.73v-.09c0-.96.79-1.54,1.65-1.54h7.12c.86,0,1.76.58,1.76,1.54v.09Z"/>
      </g>
      <g>
        <path class="cls-36" d="M366.64,88.2c0,.65-.48,1.29-1.24,1.29H-6.49c-.75,0-1.46-.64-1.46-1.29v-.17c0-.65.7-1.42,1.46-1.42h371.9c.75,0,1.24.76,1.24,1.42v.17Z"/>
        <path class="cls-13" d="M364.72,89.43c0,1.09-.77,1.98-1.75,1.98h-8.11c-.98,0-1.64-.88-1.64-1.98v-.1c0-1.09.66-1.76,1.64-1.76h8.11c.98,0,1.75.67,1.75,1.76v.1Z"/>
        <path class="cls-9" d="M345.54,89.43c0,1.09-.85,1.98-1.83,1.98h-8.11c-.98,0-1.56-.88-1.56-1.98v-.1c0-1.09.59-1.76,1.56-1.76h8.11c.98,0,1.83.67,1.83,1.76v.1Z"/>
        <path class="cls-25" d="M325.87,89.43c0,1.09-.96,1.98-1.94,1.98h-8.11c-.98,0-1.94-.88-1.94-1.98v-.1c0-1.09.96-1.76,1.94-1.76h8.11c.98,0,1.94.67,1.94,1.76v.1Z"/>
        <path class="cls-29" d="M306.21,89.43c0,1.09-.56,1.98-1.54,1.98h-8.12c-.98,0-1.86-.88-1.86-1.98v-.1c0-1.09.88-1.76,1.86-1.76h8.12c.98,0,1.54.67,1.54,1.76v.1Z"/>
        <path class="cls-27" d="M286.54,89.43c0,1.09-.66,1.98-1.64,1.98h-8.12c-.98,0-1.75-.88-1.75-1.98v-.1c0-1.09.78-1.76,1.75-1.76h8.12c.98,0,1.64.67,1.64,1.76v.1Z"/>
        <path class="cls-35" d="M267.36,89.43c0,1.09-.74,1.98-1.72,1.98h-8.11c-.98,0-1.68-.88-1.68-1.98v-.1c0-1.09.7-1.76,1.68-1.76h8.11c.98,0,1.72.67,1.72,1.76v.1Z"/>
        <path class="cls-12" d="M247.21,89.43c0,1.09-.87,1.98-1.85,1.98h-8.11c-.98,0-1.54-.88-1.54-1.98v-.1c0-1.09.56-1.76,1.54-1.76h8.11c.98,0,1.85.67,1.85,1.76v.1Z"/>
        <path class="cls-2" d="M228.51,89.43c0,1.09-.93,1.98-1.9,1.98h-8.11c-.98,0-1.97-.88-1.97-1.98v-.1c0-1.09.99-1.76,1.97-1.76h8.11c.98,0,1.9.67,1.9,1.76v.1Z"/>
        <path class="cls-17" d="M208.84,89.43c0,1.09-1.03,1.98-2.01,1.98h-8.11c-.98,0-1.87-.88-1.87-1.98v-.1c0-1.09.89-1.76,1.87-1.76h8.11c.98,0,2.01.67,2.01,1.76v.1Z"/>
        <path class="cls-23" d="M188.7,89.43c0,1.09-.66,1.98-1.64,1.98h-8.11c-.98,0-1.76-.88-1.76-1.98v-.1c0-1.09.78-1.76,1.76-1.76h8.11c.98,0,1.64.67,1.64,1.76v.1Z"/>
        <path class="cls-10" d="M169.51,89.43c0,1.09-.74,1.98-1.72,1.98h-8.11c-.98,0-1.68-.88-1.68-1.98v-.1c0-1.09.7-1.76,1.68-1.76h8.11c.98,0,1.72.67,1.72,1.76v.1Z"/>
        <path class="cls-20" d="M149.85,89.43c0,1.09-.84,1.98-1.82,1.98h-8.12c-.98,0-1.57-.88-1.57-1.98v-.1c0-1.09.6-1.76,1.57-1.76h8.12c.98,0,1.82.67,1.82,1.76v.1Z"/>
        <path class="cls-3" d="M130.66,89.43c0,1.09-.92,1.98-1.9,1.98h-8.12c-.98,0-1.98-.88-1.98-1.98v-.1c0-1.09,1-1.76,1.98-1.76h8.12c.98,0,1.9.67,1.9,1.76v.1Z"/>
        <path class="cls-32" d="M111,89.43c0,1.09-1.03,1.98-2.01,1.98h-8.12c-.98,0-1.87-.88-1.87-1.98v-.1c0-1.09.89-1.76,1.87-1.76h8.12c.98,0,2.01.67,2.01,1.76v.1Z"/>
        <path class="cls-4" d="M90.85,89.43c0,1.09-.65,1.98-1.63,1.98h-8.11c-.98,0-1.76-.88-1.76-1.98v-.1c0-1.09.79-1.76,1.76-1.76h8.11c.98,0,1.63.67,1.63,1.76v.1Z"/>
        <path class="cls-22" d="M71.67,89.43c0,1.09-.73,1.98-1.71,1.98h-8.11c-.98,0-1.69-.88-1.69-1.98v-.1c0-1.09.71-1.76,1.69-1.76h8.11c.98,0,1.71.67,1.71,1.76v.1Z"/>
        <path class="cls-8" d="M52,89.43c0,1.09-.84,1.98-1.82,1.98h-8.12c-.98,0-1.58-.88-1.58-1.98v-.1c0-1.09.6-1.76,1.58-1.76h8.12c.98,0,1.82.67,1.82,1.76v.1Z"/>
        <path class="cls-21" d="M32.34,89.43c0,1.09-.94,1.98-1.92,1.98h-8.11c-.98,0-1.95-.88-1.95-1.98v-.1c0-1.09.98-1.76,1.95-1.76h8.11c.98,0,1.92.67,1.92,1.76v.1Z"/>
        <path class="cls-18" d="M13.15,89.43c0,1.09-1.02,1.98-2,1.98H3.04c-.98,0-1.88-.88-1.88-1.98v-.1c0-1.09.9-1.76,1.88-1.76h8.12c.98,0,2,.67,2,1.76v.1Z"/>
      </g>
      <g>
        <path class="cls-30" d="M39.93,88.84c0,.57-.42,1.13-1.08,1.13h-326.45c-.66,0-1.28-.56-1.28-1.13v-.15c0-.57.62-1.24,1.28-1.24H38.85c.66,0,1.08.67,1.08,1.24v.15Z"/>
        <path class="cls-19" d="M38.25,89.92c0,.96-.68,1.73-1.54,1.73h-7.12c-.86,0-1.44-.78-1.44-1.73v-.09c0-.96.58-1.54,1.44-1.54h7.12c.86,0,1.54.58,1.54,1.54v.09Z"/>
        <path class="cls-31" d="M21.41,89.92c0,.96-.75,1.73-1.61,1.73h-7.12c-.86,0-1.37-.78-1.37-1.73v-.09c0-.96.51-1.54,1.37-1.54h7.12c.86,0,1.61.58,1.61,1.54v.09Z"/>
        <path class="cls-28" d="M4.15,89.92c0,.96-.84,1.73-1.7,1.73h-7.12c-.86,0-1.7-.78-1.7-1.73v-.09c0-.96.84-1.54,1.7-1.54H2.44c.86,0,1.7.58,1.7,1.54v.09Z"/>
      </g>
    </g>
    <path class="cls-15" d="M-135.46,245.31v94.04s294.83,0,294.83,0h8.74s286.09,0,286.09,0h8.74s286.09,0,286.09,0h8.74s286.09,0,286.09,0h8.74s286.09,0,286.09,0h8.74s286.09,0,286.09,0h8.74s286.09,0,286.09,0h8.74s294.83,0,294.83,0v-94.04c0-3.03-.14-6.02-.34-9l46.07-139.4-5.53-1.83-41.64,126.02v-119.28h13.41s0-11.65,0-11.65H-110.37s0,11.65,0,11.65H115.27s18.04,54.6,18.04,54.6c-24-26.02-58.34-42.35-96.44-42.35H-4.23c-72.36,0-131.23,58.87-131.23,131.23ZM121.41,101.83h39.42v100.45c-4.15-11.9-9.96-23.03-17.16-33.1l-22.26-67.35ZM1953.28,168.49c-7.43,10.25-13.41,21.62-17.65,33.79v-100.45h39.68s-22.03,66.66-22.03,66.66ZM1981.44,101.83h197.36s17.9,54.17,17.9,54.17c-23.98-25.76-58.14-41.92-96.03-41.92h-41.11c-37.89,0-72.05,16.16-96.03,41.92l17.9-54.17ZM1912.64,169.18l-22.26-67.35h39.42v100.45c-4.15-11.9-9.96-23.03-17.16-33.1ZM1902.28,156.43c-24-26.01-58.34-42.34-96.43-42.34h-41.11c-38.09,0-72.44,16.33-96.43,42.34l18.04-54.6h197.89s18.04,54.6,18.04,54.6ZM1657.96,169.18c-7.2,10.07-13.02,21.2-17.16,33.1v-100.45h39.42s-22.26,67.35-22.26,67.35ZM1617.32,168.49l-22.03-66.66h39.68v100.45c-4.24-12.18-10.22-23.54-17.65-33.79ZM1607.05,156c-23.98-25.76-58.14-41.92-96.03-41.92h-41.11c-38.1,0-72.44,16.33-96.43,42.34l18.04-54.6h197.63s17.9,54.17,17.9,54.17ZM1363.13,169.18c-7.2,10.07-13.01,21.19-17.16,33.1v-100.45h39.42s-22.26,67.35-22.26,67.35ZM1322.49,168.49l-22.03-66.66h39.68v100.45c-4.24-12.18-10.22-23.54-17.65-33.79ZM1312.22,156c-23.98-25.76-58.14-41.92-96.03-41.92h-41.11c-37.89,0-72.05,16.16-96.03,41.92l17.9-54.18h197.36s17.9,54.17,17.9,54.17ZM1068.79,168.49c-7.43,10.25-13.41,21.62-17.65,33.79v-100.45h39.68s-22.03,66.66-22.03,66.66ZM1028.15,169.17l-22.25-67.34h39.42v100.45c-4.15-11.91-9.96-23.03-17.17-33.11ZM1017.8,156.43c-24-26.01-58.34-42.34-96.43-42.34h-41.11c-38.1,0-72.44,16.33-96.44,42.35l18.04-54.6h197.89s18.04,54.6,18.04,54.6ZM773.47,169.18c-7.2,10.07-13.01,21.19-17.16,33.1v-100.45h39.42s-22.26,67.35-22.26,67.35ZM732.82,168.48l-22.03-66.65h39.68v100.45c-4.24-12.18-10.22-23.54-17.66-33.8ZM722.57,156c-23.98-25.76-58.14-41.92-96.03-41.92h-41.11c-37.89,0-72.06,16.16-96.03,41.92l17.9-54.18h197.37s17.9,54.17,17.9,54.17ZM479.14,168.49c-7.43,10.25-13.41,21.62-17.65,33.79v-100.45h39.68s-22.03,66.66-22.03,66.66ZM438.49,169.17l-22.25-67.34h39.42v100.45c-4.15-11.91-9.96-23.03-17.16-33.11ZM428.14,156.43c-24-26.01-58.34-42.34-96.43-42.34h-41.11c-37.89,0-72.05,16.16-96.03,41.92l17.9-54.18h197.63s18.04,54.6,18.04,54.6ZM184.31,168.48c-7.43,10.26-13.42,21.62-17.66,33.8v-100.45h39.68s-22.03,66.65-22.03,66.65ZM2224.63,101.83v100.45c-4.24-12.18-10.22-23.54-17.65-33.79l-22.03-66.66h39.68ZM1937.08,245.31c0-3.63.19-7.21.5-10.75l17.59-53.23c21.57-35.07,60.29-58.5,104.4-58.5h41.11c44.1,0,82.83,23.44,104.4,58.5l17.59,53.23c.31,3.55.5,7.13.5,10.75v85.3h-286.09v-85.3ZM1642.25,245.31c0-3.98.21-7.91.58-11.79l16.94-51.26c21.45-35.58,60.48-59.44,104.97-59.44h41.11c44.5,0,83.52,23.86,104.97,59.44l16.94,51.25c.37,3.88.58,7.81.58,11.79v85.3h-286.09v-85.3ZM1347.42,245.31c0-3.98.21-7.91.58-11.79l16.94-51.25c21.45-35.59,60.48-59.44,104.97-59.44h41.11c44.1,0,82.83,23.44,104.4,58.51l17.59,53.22c.31,3.55.5,7.13.5,10.76v85.3h-286.09v-85.3ZM1052.6,245.31c0-3.63.19-7.21.5-10.76l17.59-53.21c21.57-35.07,60.3-58.51,104.4-58.51h41.11c44.1,0,82.83,23.44,104.4,58.5l17.59,53.23c.31,3.55.5,7.13.5,10.75v85.3h-286.09v-85.3ZM757.77,245.31c0-3.98.21-7.92.58-11.81l16.93-51.23c21.45-35.59,60.48-59.46,104.98-59.46h41.11c44.5,0,83.52,23.86,104.97,59.44l16.94,51.25c.37,3.88.58,7.81.58,11.79v85.3h-286.09v-85.3ZM462.94,245.31c0-3.63.19-7.21.5-10.76l17.58-53.21c21.57-35.07,60.3-58.51,104.4-58.51h41.11c44.1,0,82.83,23.44,104.4,58.5l17.59,53.23c.31,3.55.5,7.13.5,10.75v85.3h-286.09v-85.3ZM168.11,245.31c0-3.63.19-7.21.5-10.75l17.59-53.23c21.57-35.07,60.3-58.51,104.4-58.51h41.11c44.5,0,83.52,23.86,104.97,59.44l16.94,51.25c.37,3.88.58,7.81.58,11.79v85.3H168.11v-85.3ZM-126.72,245.31c0-67.54,54.95-122.49,122.49-122.49h41.11c44.5,0,83.53,23.86,104.98,59.46l16.93,51.23c.37,3.89.58,7.82.58,11.81v85.3H-126.72v-85.3Z"/>
  </g>
  <rect class="cls-7" x="390" y="0" width="390" height="216.55"/>
</svg>