<?xml version="1.0" encoding="UTF-8"?>
<svg id="OBJECTS" xmlns="http://www.w3.org/2000/svg" xmlns:xlink="http://www.w3.org/1999/xlink" viewBox="0 0 390 308.62">
  <defs>
    <style>
      .cls-1 {
        fill: #4c4159;
      }

      .cls-1, .cls-2, .cls-3, .cls-4, .cls-5, .cls-6, .cls-7, .cls-8, .cls-9, .cls-10, .cls-11, .cls-12, .cls-13, .cls-14, .cls-15, .cls-16, .cls-17, .cls-18, .cls-19, .cls-20, .cls-21, .cls-22, .cls-23, .cls-24, .cls-25, .cls-26, .cls-27, .cls-28, .cls-29, .cls-30, .cls-31, .cls-32, .cls-33, .cls-34, .cls-35, .cls-36, .cls-37, .cls-38, .cls-39, .cls-40, .cls-41, .cls-42, .cls-43, .cls-44, .cls-45, .cls-46, .cls-47, .cls-48 {
        stroke-width: 0px;
      }

      .cls-2 {
        fill: #626129;
      }

      .cls-3 {
        fill: url(#linear-gradient-12);
      }

      .cls-4 {
        fill: #263238;
      }

      .cls-5 {
        fill: url(#linear-gradient-17);
      }

      .cls-6 {
        fill: url(#linear-gradient-19);
      }

      .cls-7 {
        fill: url(#linear-gradient);
      }

      .cls-8 {
        fill: #000;
      }

      .cls-9 {
        fill: url(#linear-gradient-21);
      }

      .cls-10 {
        fill: url(#linear-gradient-6);
      }

      .cls-11 {
        fill: #433a49;
      }

      .cls-12 {
        fill: #eaa58f;
      }

      .cls-13 {
        fill: url(#linear-gradient-15);
      }

      .cls-14 {
        fill: #879b5f;
      }

      .cls-15 {
        fill: url(#linear-gradient-11);
      }

      .cls-16 {
        fill: url(#linear-gradient-5);
      }

      .cls-17 {
        fill: none;
      }

      .cls-18 {
        fill: #774639;
      }

      .cls-19 {
        fill: #a45221;
      }

      .cls-20 {
        fill: url(#linear-gradient-13);
      }

      .cls-21 {
        fill: url(#linear-gradient-23);
      }

      .cls-22 {
        fill: #c8dff6;
      }

      .cls-23 {
        fill: url(#linear-gradient-25);
      }

      .cls-24 {
        fill: url(#linear-gradient-16);
      }

      .cls-25 {
        fill: url(#linear-gradient-22);
      }

      .cls-26 {
        fill: url(#linear-gradient-20);
      }

      .cls-27 {
        fill: url(#linear-gradient-14);
      }

      .cls-28 {
        fill: url(#linear-gradient-2);
      }

      .cls-29 {
        fill: #d88f7c;
      }

      .cls-30 {
        fill: url(#linear-gradient-7);
      }

      .cls-31 {
        fill: #e7d8e4;
      }

      .cls-32 {
        fill: url(#linear-gradient-3);
      }

      .cls-49 {
        clip-path: url(#clippath);
      }

      .cls-33 {
        fill: url(#linear-gradient-9);
      }

      .cls-34 {
        fill: url(#linear-gradient-27);
      }

      .cls-35 {
        fill: url(#linear-gradient-8);
      }

      .cls-36 {
        fill: url(#linear-gradient-24);
      }

      .cls-37 {
        fill: url(#linear-gradient-26);
      }

      .cls-38 {
        fill: url(#linear-gradient-18);
      }

      .cls-39 {
        fill: #92e3a9;
      }

      .cls-40 {
        fill: #c2a131;
      }

      .cls-41 {
        fill: #fcf6f9;
      }

      .cls-42 {
        fill: url(#linear-gradient-29);
      }

      .cls-43 {
        fill: #043f22;
      }

      .cls-44 {
        fill: url(#linear-gradient-28);
      }

      .cls-45 {
        fill: url(#linear-gradient-10);
      }

      .cls-46 {
        fill: #fff;
        opacity: .5;
      }

      .cls-47 {
        fill: #b6d1e7;
      }

      .cls-48 {
        fill: url(#linear-gradient-4);
      }
    </style>
    <clipPath id="clippath">
      <rect class="cls-17" width="390" height="308.62"/>
    </clipPath>
    <linearGradient id="linear-gradient" x1="-114.87" y1="177.57" x2="-114.87" y2="180.74" gradientUnits="userSpaceOnUse">
      <stop offset="0" stop-color="#fff"/>
      <stop offset=".15" stop-color="#d4d4d4"/>
      <stop offset=".32" stop-color="#adadad"/>
      <stop offset=".48" stop-color="#8e8e8e"/>
      <stop offset=".64" stop-color="#777"/>
      <stop offset=".8" stop-color="#6a6a6a"/>
      <stop offset=".93" stop-color="#666"/>
      <stop offset=".93" stop-color="#000"/>
    </linearGradient>
    <linearGradient id="linear-gradient-2" x1="42.8" y1="177.89" x2="42.8" y2="182.11" gradientUnits="userSpaceOnUse">
      <stop offset="0" stop-color="#fff"/>
      <stop offset=".12" stop-color="#eee7dd"/>
      <stop offset=".29" stop-color="#dbcbb6"/>
      <stop offset=".46" stop-color="#ccb697"/>
      <stop offset=".63" stop-color="#c1a680"/>
      <stop offset=".78" stop-color="#bb9d73"/>
      <stop offset=".92" stop-color="#b99a6f"/>
      <stop offset="1" stop-color="#6b4d2b"/>
    </linearGradient>
    <linearGradient id="linear-gradient-3" x1="25.96" x2="25.96" xlink:href="#linear-gradient-2"/>
    <linearGradient id="linear-gradient-4" x1="8.48" x2="8.48" xlink:href="#linear-gradient-2"/>
    <linearGradient id="linear-gradient-5" x1="128.43" x2="128.43" xlink:href="#linear-gradient"/>
    <linearGradient id="linear-gradient-6" x1="286.1" x2="286.1" xlink:href="#linear-gradient-2"/>
    <linearGradient id="linear-gradient-7" x1="269.26" x2="269.26" xlink:href="#linear-gradient-2"/>
    <linearGradient id="linear-gradient-8" x1="251.79" x2="251.79" xlink:href="#linear-gradient-2"/>
    <linearGradient id="linear-gradient-9" x1="234.73" x2="234.73" xlink:href="#linear-gradient-2"/>
    <linearGradient id="linear-gradient-10" x1="217.47" x2="217.47" xlink:href="#linear-gradient-2"/>
    <linearGradient id="linear-gradient-11" x1="200.63" x2="200.63" xlink:href="#linear-gradient-2"/>
    <linearGradient id="linear-gradient-12" x1="182.95" x2="182.95" xlink:href="#linear-gradient-2"/>
    <linearGradient id="linear-gradient-13" x1="166.32" x2="166.32" xlink:href="#linear-gradient-2"/>
    <linearGradient id="linear-gradient-14" x1="149.06" x2="149.06" xlink:href="#linear-gradient-2"/>
    <linearGradient id="linear-gradient-15" x1="131.59" x2="131.59" xlink:href="#linear-gradient-2"/>
    <linearGradient id="linear-gradient-16" x1="114.74" x2="114.74" xlink:href="#linear-gradient-2"/>
    <linearGradient id="linear-gradient-17" x1="97.48" x2="97.48" xlink:href="#linear-gradient-2"/>
    <linearGradient id="linear-gradient-18" x1="80.43" x2="80.43" xlink:href="#linear-gradient-2"/>
    <linearGradient id="linear-gradient-19" x1="63.17" x2="63.17" xlink:href="#linear-gradient-2"/>
    <linearGradient id="linear-gradient-20" x1="45.7" x2="45.7" xlink:href="#linear-gradient-2"/>
    <linearGradient id="linear-gradient-21" x1="28.86" x2="28.86" xlink:href="#linear-gradient-2"/>
    <linearGradient id="linear-gradient-22" x1="11.6" x2="11.6" xlink:href="#linear-gradient-2"/>
    <linearGradient id="linear-gradient-23" x1="456.77" x2="456.77" xlink:href="#linear-gradient"/>
    <linearGradient id="linear-gradient-24" x1="391.51" x2="391.51" xlink:href="#linear-gradient-2"/>
    <linearGradient id="linear-gradient-25" x1="374.04" x2="374.04" xlink:href="#linear-gradient-2"/>
    <linearGradient id="linear-gradient-26" x1="357.2" x2="357.2" xlink:href="#linear-gradient-2"/>
    <linearGradient id="linear-gradient-27" x1="339.93" x2="339.93" xlink:href="#linear-gradient-2"/>
    <linearGradient id="linear-gradient-28" x1="322.46" x2="322.46" xlink:href="#linear-gradient-2"/>
    <linearGradient id="linear-gradient-29" x1="305.62" x2="305.62" xlink:href="#linear-gradient-2"/>
  </defs>
  <g>
    <path class="cls-39" d="M45.33,4.92c16.46,0,29.81,13.25,29.81,29.61,0,7.58-2.87,14.49-7.59,19.73-2.16-.31-6.09-.53-10.44.95-5.76,1.96-9.35,5.17-10.14,5.92h-2.67c-.79-.75-4.38-3.96-10.14-5.92-4.73-1.61-8.98-1.21-10.97-.87-4.76-5.25-7.66-12.2-7.66-19.82,0-16.35,13.35-29.61,29.81-29.61Z"/>
    <path class="cls-46" d="M45.33,4.92c16.46,0,29.81,13.25,29.81,29.61,0,7.58-2.87,14.49-7.59,19.73-2.16-.31-6.09-.53-10.44.95-5.76,1.96-9.35,5.17-10.14,5.92h-2.67c-.79-.75-4.38-3.96-10.14-5.92-4.73-1.61-8.98-1.21-10.97-.87-4.76-5.25-7.66-12.2-7.66-19.82,0-16.35,13.35-29.61,29.81-29.61Z"/>
    <path class="cls-4" d="M31.46,46.4c.92.44,1.83.9,2.72,1.38.9.49,1.78,1.02,2.6,1.61.31.22.62.44.92.66l-4.88-9.1,6.7,10.49c.68.55,1.35,1.1,2,1.67,1.08.94,2.13,1.9,3.17,2.89l.34-9.87-7.01-10.67,7.06,9.18.3-8.83.5,9.88h0s0,0,0,0l.5,9.91c.9-.85,1.81-1.68,2.74-2.49.73-.64,1.48-1.27,2.25-1.87l6.34-10.83-4.66,9.55c.27-.19.53-.39.81-.58.83-.58,1.71-1.12,2.6-1.61.9-.48,1.81-.94,2.72-1.38,1.84-.88,3.71-1.71,5.64-2.39-1.88.8-3.68,1.73-5.44,2.71-.88.49-1.74,1-2.6,1.53-.84.53-1.65,1.09-2.41,1.71-1.54,1.22-2.99,2.56-4.38,3.93-1.21,1.2-2.39,2.45-3.52,3.72l.64,77.48h-2.94s.42-76.97.42-76.97c-1.26-1.44-2.6-2.86-3.97-4.23-1.39-1.38-2.83-2.71-4.38-3.93-.77-.62-1.57-1.18-2.41-1.71-.85-.53-1.72-1.04-2.6-1.53-1.76-.98-3.56-1.92-5.44-2.71,1.93.68,3.8,1.51,5.64,2.39Z"/>
  </g>
  <g>
    <path class="cls-39" d="M21.21,62.11c9.23,0,16.71,7.43,16.71,16.6,0,4.25-1.61,8.13-4.25,11.06-1.21-.18-3.42-.3-5.85.53-3.23,1.1-5.24,2.9-5.68,3.32h-1.5c-.44-.42-2.45-2.22-5.68-3.32-2.65-.9-5.03-.68-6.15-.49-2.67-2.94-4.3-6.84-4.3-11.11,0-9.17,7.48-16.6,16.71-16.6Z"/>
    <path class="cls-46" d="M21.21,62.11c9.23,0,16.71,7.43,16.71,16.6,0,4.25-1.61,8.13-4.25,11.06-1.21-.18-3.42-.3-5.85.53-3.23,1.1-5.24,2.9-5.68,3.32h-1.5c-.44-.42-2.45-2.22-5.68-3.32-2.65-.9-5.03-.68-6.15-.49-2.67-2.94-4.3-6.84-4.3-11.11,0-9.17,7.48-16.6,16.71-16.6Z"/>
    <path class="cls-4" d="M13.43,85.37c.51.25,1.02.51,1.53.77.5.28,1,.57,1.46.9.17.12.35.25.52.37l-2.74-5.1,3.76,5.88c.38.31.75.62,1.12.94.61.53,1.2,1.07,1.77,1.62l.19-5.53-3.93-5.98,3.96,5.15.17-4.95.28,5.54h0s0,0,0,0l.28,5.55c.5-.48,1.01-.94,1.54-1.4.41-.36.83-.71,1.26-1.05l3.55-6.07-2.61,5.35c.15-.11.3-.22.45-.32.46-.33.96-.63,1.46-.9.5-.27,1.01-.53,1.53-.77,1.03-.49,2.08-.96,3.16-1.34-1.05.45-2.06.97-3.05,1.52-.49.28-.98.56-1.46.86-.47.3-.92.61-1.35.96-.87.69-1.67,1.43-2.45,2.21-.68.68-1.34,1.37-1.97,2.08l.36,43.44h-1.65s.23-43.16.23-43.16c-.71-.81-1.46-1.6-2.23-2.37-.78-.77-1.59-1.52-2.45-2.21-.43-.35-.88-.66-1.35-.96-.48-.3-.96-.58-1.46-.86-.99-.55-1.99-1.07-3.05-1.52,1.08.38,2.13.84,3.16,1.34Z"/>
  </g>
  <g class="cls-49">
    <g>
      <g>
        <path class="cls-40" d="M81.67,149.09s-51.04-36.46-113.02,0l48.61,30.38,64.41-30.38Z"/>
        <g>
          <path class="cls-43" d="M35.87,117.18s8.67,43.01,0,43.01,0-43.01,0-43.01Z"/>
          <path class="cls-43" d="M26.22,121.63s8.67,43.01,0,43.01,0-43.01,0-43.01Z"/>
          <path class="cls-43" d="M19.36,121.63s8.67,43.01,0,43.01c-8.67,0,0-43.01,0-43.01Z"/>
          <path class="cls-43" d="M46.08,108.98s8.67,45.41,0,45.41,0-45.41,0-45.41Z"/>
          <path class="cls-43" d="M52.46,119.41s9.21,35.57,0,35.57c-9.21,0,0-35.57,0-35.57Z"/>
        </g>
      </g>
      <g>
        <path class="cls-14" d="M35.87,160.19s-70.27-35.55-205.78-21.51c-135.51,14.04-306.92,46.25-333.03,47.47l-9.09,12.02v53.6S27.34,223.22,32.02,220.79c4.68-2.43,3.85-60.6,3.85-60.6Z"/>
        <path class="cls-2" d="M497.32,165.5s-54.69-12.36-150.71-32.61c-96.01-20.26-199.32-22.48-296.54,16.31-97.23,38.79-147.06,64.31-209.04,65.53H511.9s-14.58-49.22-14.58-49.22Z"/>
        <g>
          <path class="cls-40" d="M419.54,203.37s-113.43-77.37-236.59-17.22l118.29,65.63,118.29-48.41Z"/>
          <g>
            <path class="cls-43" d="M351.25,149.6s12.06,49.09,0,49.09c-12.06,0,0-49.09,0-49.09Z"/>
            <path class="cls-43" d="M340.52,154.98s10.41,42.37,0,42.37c-10.41,0,0-42.37,0-42.37Z"/>
            <path class="cls-43" d="M331.06,161.48s8.99,36.59,0,36.59c-8.99,0,0-36.59,0-36.59Z"/>
          </g>
          <rect class="cls-19" x="353.5" y="174.15" width="51.85" height="31.76" transform="translate(758.86 380.05) rotate(-180)"/>
        </g>
      </g>
      <path class="cls-43" d="M465.88,256.04S27.58,187.28-165.97,197.35c-193.55,10.07-517.64,131.71-517.64,131.71l187.03,16.91,975.26-41.32-12.8-48.61Z"/>
      <path class="cls-14" d="M454.38,205.9s-164.7-36.09-319.23-32.27c-154.53,3.81-375.74,121.3-375.74,121.3H457.62s-3.24-89.02-3.24-89.02Z"/>
    </g>
    <g>
      <g>
        <g>
          <g>
            <path class="cls-1" d="M69.57,132.9c-2.22,7.03-4.12,20.13-3.7,22.14.42,2.01,1.27,3.17,1.59,4.23.31,1.06,2.74,14.44,2.74,15.77,0,0,.44,1.03,1.82,1.03,1.08,0,1.77-1.03,1.77-1.03,0,0,.46-6.16.75-10.6.37-5.78-2.28-7.76-2.38-9.24-.11-1.48,4.65-12.2,4.65-12.2l1.42-11.67-8.66,1.57Z"/>
            <path class="cls-11" d="M74.58,163.07c-.08-4.73-2.32-6.51-2.41-7.87-.11-1.48,4.65-12.2,4.65-12.2l.95-7.8-1.1-3.59-7.09,1.28c-.31.99-.62,2.11-.91,3.3,2.51,1.77,4.06,4.83,4.43,6.46.41,1.8-2.2,10.4-2.6,12.1-.4,1.7,4.09,4.09,4.09,8.32Z"/>
            <path class="cls-1" d="M74.57,132.48c-1,6.56.17,8.22.58,8.88.42.66,2.91,1.99,3.4,5.15.5,3.15,1.31,8.94,2.7,11.62,1.98,3.83,1.12,17.68,1.12,17.68h3.77c0-4.57,2.87-11.62,2.29-15.77-.34-2.43-1.33-4.23-1.58-5.89-.25-1.66,1.92-15.27-.08-20.92-2-5.64-12.21-.75-12.21-.75Z"/>
            <path class="cls-11" d="M86.77,133.22c-2-5.64-12.21-.75-12.21-.75-.18,1.17-.29,2.18-.34,3.06.52-.94,2.16,1.72,10.35,2.91,2.71.39,2.25,10.18,2.29,14.45.24-3.87,1.65-14.78-.09-19.68Z"/>
          </g>
          <path class="cls-11" d="M70.2,174.69c1.82-.13,1.22,1.27,2.39.95.83-.23,1.21-.6,1.21-.6,0,0,1.4-.2,1.4,3.68,0,.47-.4.78-.56.84-.64.21-2.46.87-3.3,1.85-1.02,1.21-1.76.99-2.27.99h-5.52s-.19-1.24.74-1.66c.93-.42,2.55-.97,3.16-1.86.6-.88,1.86-2.27,2.18-2.78.32-.51.03-1.36.58-1.4Z"/>
          <path class="cls-11" d="M82.59,175.45c-.75.7-.5,2.57-.71,3.75s-1.14,2.07-.16,3.2h7.13s1.77-.97-.55-2.86c-.65-.53-.93-1.31-1.5-2.32-.43-.76-.65-1.57-.9-1.77-.87-.7-2.92-.36-3.31,0Z"/>
        </g>
        <g>
          <path class="cls-1" d="M73.29,101.93c-2.96-.4-8.57.03-10.81-1.76-1.3-1.04-7.05-8.26-7.05-8.26l-2.35,4.23s3.53,6.1,4.76,7.6c1.23,1.51,6.82,4.01,8.99,5.11,2.17,1.1,3.21,3.9,3.21,3.9l3.25-10.82Z"/>
          <path class="cls-11" d="M71.97,102.46c-1.97,2.08-2.4,5.42-3.56,5.79-.88.28-8.4-2.89-8.41-2.9,2.2,1.31,5.32,2.73,6.82,3.49,2.17,1.1,3.21,3.9,3.21,3.9l2.87-9.55-.94-.74Z"/>
        </g>
        <path class="cls-11" d="M82.15,100.17c.47,0,.25-.47,0-1.25-.25-.79,2.11-3.01,2.33-4.15.21-1.15-.59-1.58-1.17-1.83s.46-1.9-.83-3.01c-1.29-1.11-3.9-1.97-6.3-.68-2.4,1.29-3,.07-4.2.61-1.21.54-.99,2.33.8,3.37.97,1.22,1.32,2.86,3.4,4.87,2.08,2,5.98,2.08,5.98,2.08Z"/>
        <path class="cls-12" d="M75.74,100.03c.39,1.79.68,3.94.86,4.4.18.47.63.99,1.45,1.17.82.18,4.78-2.31,5.03-4.07,0,0-1-.5-1.29-3.01-.29-2.51-2.9-1.61-2.9-1.61l-3.15,3.11Z"/>
        <path class="cls-29" d="M83.08,101.53s-1-.5-1.29-3.01c-.29-2.51-2.9-1.61-2.9-1.61l-3.15,3.11c.25,1.12.45,2.38.61,3.28.5-1.41,1.57-2.55,3.06-2.6,2.05-.07.39,3.28-.48,3.74,1.42.16,3.79-1.71,4.15-2.91Z"/>
        <path class="cls-12" d="M72.77,93.22c-1.41,3.15-.87,7.79.96,8.36,1.83.57,3.73-1.24,4.3-3.53,0,0,.57,1,1.9-.36,1.32-1.36.68-2.9-.18-2.65-.86.25-2.08,2.64-2.79,2.22-1.04-.61.85-3.16.11-3.66-.95-.65-2.78.39-4.3-.39Z"/>
        <g>
          <path class="cls-1" d="M83.73,101.53c-2.06,3.01-5,8.93-6.83,14.21,0,0-1.24-6.95-.68-11.31.15-1.14-.42-2.13-.42-2.13,0,0-2.65-.88-3.83.16-1.18,1.04-3.43,6.17-1.36,12.54,2.41,7.39-3.63,16.25-3.11,18.07s5.01,2.9,6.74.45c0,0-.02,2.01,6.25,2.67,5.29.55,7.67-2,6.98-3.55-.69-1.56-2.94-4.67-1.3-9.16,1.64-4.5,8.27-14.97,4.76-18.93-2.52-2.84-7.2-3.01-7.2-3.01Z"/>
          <path class="cls-31" d="M76.9,115.74s-1.86-7.99-.67-10.88h5.8c-2.44,3.54-5.13,10.88-5.13,10.88Z"/>
          <path class="cls-41" d="M78.55,105.17c.98.21,1.59,1.86,1.9,2.16,0,0,4.11-3.88,4.1-5.72-.06-.38-.88-.06-1.36-.43-.47-.37-.59-1.12-1.05-1.01,0,0,.4.92-1.32,2.81-1.73,1.91-2.86,1.57-2.86,1.88,0,.12.13.22.58.31Z"/>
          <path class="cls-11" d="M76.9,115.74l-.34-2.23c-.32-2.41-.7-6.28-.34-9.08.15-1.14-.42-2.13-.42-2.13,0,0-1.87-.61-3.17-.2-.85,2.73-.03,5.22,1.43,7.79,1.36,2.39,2.49,4.85,2.83,5.84Z"/>
          <path class="cls-1" d="M75.83,101.86c-.24-.11-.54.09-.77.09-.95.02-1.53-.29-1.77-.02-.18.21-.46,1.62-.09,3.84l2.2.05-2.09.52c.26,1.25.72,2.72,1.5,4.37,1.58,3.33,2.08,5.02,2.08,5.02-.33-1.85-1.1-12.47-1.07-13.89Z"/>
          <path class="cls-41" d="M76.07,101.7c-.45.21-.46.56-.33,1.16.13.6.03,3.6.29,3.96,0,0,.45.09.59-.83s1.35-.91,1.35-1.12c0-.17-.25-.13-.59-.36-.42-.28-.89-.76-1.1-1.61l-.21-1.2Z"/>
          <path class="cls-11" d="M88.05,102.54c-2.17-.93-4.32-1.01-4.32-1.01-1.82,2.66-4.32,7.58-6.14,12.33l-.69,1.88c1.81-3.42,10.46-8.52,11.15-13.2Z"/>
          <path class="cls-1" d="M82.32,106.44h2.9c1.69-2.47,1.76-4.47,1.35-4.59-.46-.14-1.34-.33-2.63-.89-.91-.4-.99-.05-.99-.05.31,1.74-4.83,9.8-6.04,14.83,1.24-2.92,5.22-5.49,7.58-8.33l-2.16-.98Z"/>
          <g>
            <path class="cls-22" d="M77.69,105.12c-.51-.58-2.09-1.26-2.28-1.11-.24.19-.83,2.25-.48,3.17.11.3,2.69-.77,2.69-.77,0,0,.15-.08.2-.53.03-.26.02-.59-.12-.76Z"/>
            <path class="cls-47" d="M77.81,105.88c.03-.26.02-.59-.12-.76-.08-.09-.19-.19-.32-.28.13.12-.04.69-.53.56l-.03.21s.26-.02.32.3c.06.36-.36.73-1.1.91-.74.18-1.12.35-1.19,0,.02.13.04.25.08.36.11.3,2.69-.77,2.69-.77,0,0,.15-.08.2-.53Z"/>
            <path class="cls-47" d="M77.52,105.61c-1-.39-2.06-.43-2.11-.2-.05.23,2.11.2,2.11.2Z"/>
            <path class="cls-22" d="M78.4,105.03c-.27-.17-.8-.12-.9,0-.37.43-.27,1.26-.05,1.49.11.12.72.16.92-.04,0,0-.09-.33-.12-.57-.06-.46-.01-.79.15-.88Z"/>
            <path class="cls-22" d="M78.4,105.03c.76-.52,2.55-1.05,2.73-.86.23.24.23,2.46-.19,3.31-.14.29-2.57-1-2.57-1,0,0-.21-.11-.23-.62-.01-.3.03-.67.26-.83Z"/>
            <path class="cls-47" d="M78.14,105.72c1.19-.38,2.37-.24,2.36.1,0,.33-2.36-.1-2.36-.1Z"/>
            <path class="cls-47" d="M78.14,105.86c.02.51.23.62.23.62,0,0,2.43,1.29,2.57,1,.18-.35.28-.94.32-1.53-.06.45-.33,1.27-.56,1.28-.31.01-1.89-.66-2.17-.97-.18-.19-.13-.51.12-.47.06-.08,0-.21,0-.21-.23.03-.45-.24-.25-.55-.23.16-.27.53-.26.83Z"/>
          </g>
        </g>
        <path class="cls-11" d="M91.82,109.19l-4.1-.56c-.95,3.61-.5,7.17-.44,7.96.06.79-4.35,8.75-4.52,10.5-.17,1.75,5.15,6.89,3.07,7.82,1.51-.54,2.04-1.4,1.64-2.28-.69-1.56-2.94-4.67-1.3-9.16,1.18-3.22,4.91-9.51,5.65-14.28Z"/>
        <g>
          <path class="cls-1" d="M90.09,103.74c3.98,3.07,5.26,12.32,5.58,15.04.32,2.71,0,12.55,0,12.55h-4.16s0-2.73-.08-5.44c-.08-2.71-.32-4.95-.32-4.95,0,0-2.05-3.84-3.07-5.92-1.01-2.08-.63-10.66,2.04-11.27Z"/>
          <g>
            <path class="cls-12" d="M95.67,132.9v3.66c0,.41-1.19,2.09-1.45,2.21-.26.12-2.4.78-2.63.78s-.17-.72,0-.87c.17-.14.95-.61.95-.61,0,0-.11-1.53-.21-1.65-.11-.12-.9-.1-.89.14,0,.24.21,1.05-.14,1.45s-.64.55-.84.38c-.2-.17.06-.69,0-1.24-.06-.55-.06-1.54.17-1.91.23-.37,1.03-1,1.58-2.39l3.45.06Z"/>
            <path class="cls-29" d="M92.15,133.01s1.9-.03,2.64.21.89,1.96.89,2.47v-2.79l-3.45-.06-.07.17Z"/>
          </g>
          <polygon class="cls-41" points="91.82 131.33 91.82 132.83 95.67 132.9 95.67 131.33 91.82 131.33"/>
        </g>
        <polygon class="cls-41" points="53.43 95.5 52.32 93.42 54.27 90.27 55.42 91.91 53.43 95.5"/>
        <path class="cls-29" d="M54.27,90.27c-.37-.93-.76-2.85-1.2-3.27-.44-.42-3.35-.56-3.96-.63-.61-.07-.87.54-.56.89.3.35-.07.74.23,1.06s1.52,1.31,1.8,1.59.23,1.45.89,1.83c.66.38,1.27.99,1.27.99l1.52-2.46Z"/>
      </g>
      <g>
        <path class="cls-12" d="M53.47,87.74c-.81.63-1.37-.05-1.75-.45s-.87-.87-1.31-.61c-.45.26.24,1.2.94,1.52.7.33-.24,2.2,1.21,2.81l.92.52.79-1.28-.8-2.52Z"/>
        <path class="cls-29" d="M52.73,88c.77.06,1.09,2.12.28,3.28l.47.27.79-1.28-.8-2.52-.74.25Z"/>
      </g>
      <path class="cls-29" d="M50.68,88.04s.22-.77.53-.78l-.16.94-.36-.16Z"/>
      <g>
        <g>
          <path class="cls-12" d="M48.86,105.98c.6-1.56.66-2.83.51-3.78-.15-.95-1.7-8.12-1.85-10.04-.15-1.92,3.6-11.91,3.52-12.57,0,0-.48-1.75.73-2.64.67-.49,1.2-1.1,1.39-1.36.19-.26-.15-1.32,0-1.55.15-.23,1.14.3,1.14.3l1.14,1.4s-.32,2.35-.5,2.61c-.18.26-1.88,1.48-2.19,1.97-.3.49-1.06,10.03-1.27,11.02-.21.98,1.7,14.19,1.7,14.19l-4.31.46Z"/>
          <path class="cls-29" d="M49.36,102.2c.15.95.09,2.22-.51,3.78l4.31-.46s-1.91-13.2-1.7-14.19c.15-.74.62-6.27.97-9.21-1.47,7.58-4.58,7.97-3.76,5.06h0c-.68,2.2-1.23,4.21-1.17,4.97.15,1.92,1.7,9.09,1.85,10.04Z"/>
          <path class="cls-29" d="M55.42,75.74l-1.14-1.4s-.98-.53-1.14-.3.19,1.29,0,1.55c-.1.14-.31.39-.58.67h0c.55.7-.4,1.19-.54,1.82l2.01.47s.62-.6,1.16-1.3c.13-.71.23-1.5.23-1.5Z"/>
        </g>
        <path class="cls-11" d="M50.22,92.03c-1.39-.03-2.99,2.46-1.42,4.71,0,0,1.19,3.12,1.19,4.72v2.03c0,1.37,1.11,2.49,2.49,2.49h.03v-12.22l-2.3-1.73Z"/>
        <g>
          <path class="cls-41" d="M52.12,104.98c-2.1.07-3.91,1.41-6.1,2.53-2.2,1.12-3.16,2.51-1.43,6.61,1.73,4.1.98,9.82.5,12.94-.48,3.12-18.94,19.95-22.4,55.34h49.02s1.87-26.3-11.75-49.85c-6.34-10.97-5.95-13.87-5.29-16.04,1.06-3.52,7.01-5.95,5.37-11.53h-7.91Z"/>
          <path class="cls-31" d="M59.95,132.55c-6.34-10.97-5.95-13.87-5.29-16.04.6-1.99,2.76-3.63,4.24-5.69l-3.58.02c-.47,1.22-3.17,3.45-4.61,6.15-1.44,2.7,16.44,21.15,16.44,65.42h4.56s1.87-26.3-11.75-49.85Z"/>
        </g>
        <g>
          <path class="cls-12" d="M51.2,99.62c1.04,3.2.88,5.04.92,5.36.04.32-3.76,1.44-5.16,2.8,0,0,5-2.28,10.12-3.2,0,0-2.04-6.16-2.16-6.12-.12.04-3.72,1.16-3.72,1.16Z"/>
          <path class="cls-29" d="M54.92,98.46c-.12.04-3.72,1.16-3.72,1.16.53,1.63.75,2.9.84,3.81.62.68.99,1.44,1.13,2.09,1.24-.36,2.57-.7,3.91-.94,0,0-2.04-6.16-2.16-6.12Z"/>
        </g>
        <path class="cls-12" d="M49.96,92.5c-1.8,2-1.29,8.61.7,8.78,1.99.18,3.81-2.23,3.98-3.46.18-1.23-3.05-7.14-4.68-5.33Z"/>
        <g>
          <path class="cls-11" d="M55.22,90.7c-.5-1.13.59-2.22,1.57-2.03.98.19,1.4,1.41,1.54,2.25,0,0,.9-.41,1.51.65.42.72-.17,1.56-1.54,1.6-1.05.03-3.08-2.47-3.08-2.47Z"/>
          <path class="cls-41" d="M55.34,90.81c-.15-.18-.32-.52-.34-.86-.02-.28-.17-.71,0-.78.46-.19.78.96,1.04,1.1.18.1.47-.24.75-.24.16,0,.35.13.35.34,0,.16-.09.35-.09.52,0,.18.13.35.31.35.15,0,.32-.06.47-.09.18-.03.36.07.36.43,0,.27-.01.41.18.5.17.08.38-.05.52-.05.32.02.1.46.32.64.23.19.53.07.53.21,0,.19-.29.24-.48.24-.57,0-.24-.49-1.31-.49-.18,0-.35.02-.53.02-.06,0-.13,0-.19-.01-.99-.13-1.56-1-1.89-1.83Z"/>
        </g>
        <g>
          <path class="cls-12" d="M55.47,105.41c-2.11,1.71-1.33,5.59,1.61,6.65,0,0,.67,4.01,1.01,8.85.35,4.84,3.79,10.55,3.46,12.45-.33,1.9-.76,2.35.02,3.51.79,1.16.99,2.36,1.38,2.77.39.41.73.57.91.3s.27-.57-.09-1.11c-.36-.55-.36-.98-.36-.98,0,0,.96,1.27,1.23,1.73.86,1.47,1.31,3,1.83,3,0,0,.74.29.44-.67,0,0,.52-.29,0-1.21-.56-.99-1.27-2.39-1.63-3.29-.36-.9-1.5-2.46-1.86-4.86s-.66-8.46-.96-10.68c-.3-2.22-.84-3.06-.84-9.3s-.97-7.34-3.13-7.84c-1.71-.4-3.02.7-3.02.7Z"/>
          <path class="cls-29" d="M57.08,112.06c-.25-1.5-.98-3.35-1.56-3.38,0,0,.24.73-.21,2.15,0,0,.76.94,1.77,1.22Z"/>
        </g>
        <path class="cls-11" d="M49.96,92.5c1.31,0,1.97,1.81,1.97,4.23v3.5c0,1.5,1.22,2.72,2.72,2.72h0s.47,4.22,5.49,4.22c0,0-.58,3.96,4.12,4.01,0,0-1.58-1.53-.32-3.54,1.27-2.01.63-4.86-2.32-5.12,0,0-2.42-1.12-2.42-4.57,0,0,1.35-1.43,1.26-2.8-.11-1.5-.63-2.13-2.67-3.25-1.23-.68-1.72-2.29-4.07-1.97-3.54.47-4.84,2.58-3.75,2.58Z"/>
      </g>
      <path class="cls-12" d="M51.94,78.65c-.15-.91,1.14-1.96,2.23-1.93,0,0,.56-2.2.92-2.42.36-.23.5.25.33,1.44-.19,1.29-.28,2.01-.5,2.61l-1.63,1.39-1.35-1.09Z"/>
    </g>
    <g>
      <g>
        <path class="cls-7" d="M49.53,180.55c0,.57-.42,1.13-1.08,1.13h-326.45c-.66,0-1.28-.56-1.28-1.13v-.15c0-.57.62-1.24,1.28-1.24H48.45c.66,0,1.08.67,1.08,1.24v.15Z"/>
        <path class="cls-28" d="M47.85,181.63c0,.96-.68,1.73-1.54,1.73h-7.12c-.86,0-1.44-.78-1.44-1.73v-.09c0-.96.58-1.54,1.44-1.54h7.12c.86,0,1.54.58,1.54,1.54v.09Z"/>
        <path class="cls-32" d="M31.01,181.63c0,.96-.75,1.73-1.61,1.73h-7.12c-.86,0-1.37-.78-1.37-1.73v-.09c0-.96.51-1.54,1.37-1.54h7.12c.86,0,1.61.58,1.61,1.54v.09Z"/>
        <path class="cls-48" d="M13.75,181.63c0,.96-.84,1.73-1.7,1.73h-7.12c-.86,0-1.7-.78-1.7-1.73v-.09c0-.96.84-1.54,1.7-1.54h7.12c.86,0,1.7.58,1.7,1.54v.09Z"/>
      </g>
      <g>
        <path class="cls-16" d="M292.83,180.55c0,.57-.42,1.13-1.08,1.13H-34.7c-.66,0-1.28-.56-1.28-1.13v-.15c0-.57.62-1.24,1.28-1.24h326.45c.66,0,1.08.67,1.08,1.24v.15Z"/>
        <path class="cls-10" d="M291.15,181.63c0,.96-.68,1.73-1.54,1.73h-7.12c-.86,0-1.44-.78-1.44-1.73v-.09c0-.96.58-1.54,1.44-1.54h7.12c.86,0,1.54.58,1.54,1.54v.09Z"/>
        <path class="cls-30" d="M274.31,181.63c0,.96-.75,1.73-1.61,1.73h-7.12c-.86,0-1.37-.78-1.37-1.73v-.09c0-.96.51-1.54,1.37-1.54h7.12c.86,0,1.61.58,1.61,1.54v.09Z"/>
        <path class="cls-35" d="M257.05,181.63c0,.96-.84,1.73-1.7,1.73h-7.12c-.86,0-1.7-.78-1.7-1.73v-.09c0-.96.84-1.54,1.7-1.54h7.12c.86,0,1.7.58,1.7,1.54v.09Z"/>
        <path class="cls-33" d="M239.79,181.63c0,.96-.49,1.73-1.35,1.73h-7.12c-.86,0-1.63-.78-1.63-1.73v-.09c0-.96.77-1.54,1.63-1.54h7.12c.86,0,1.35.58,1.35,1.54v.09Z"/>
        <path class="cls-45" d="M222.52,181.63c0,.96-.58,1.73-1.44,1.73h-7.12c-.86,0-1.54-.78-1.54-1.73v-.09c0-.96.68-1.54,1.54-1.54h7.12c.86,0,1.44.58,1.44,1.54v.09Z"/>
        <path class="cls-15" d="M205.68,181.63c0,.96-.65,1.73-1.51,1.73h-7.12c-.86,0-1.47-.78-1.47-1.73v-.09c0-.96.61-1.54,1.47-1.54h7.12c.86,0,1.51.58,1.51,1.54v.09Z"/>
        <path class="cls-3" d="M188,181.63c0,.96-.77,1.73-1.63,1.73h-7.12c-.86,0-1.35-.78-1.35-1.73v-.09c0-.96.49-1.54,1.35-1.54h7.12c.86,0,1.63.58,1.63,1.54v.09Z"/>
        <path class="cls-20" d="M171.58,181.63c0,.96-.81,1.73-1.67,1.73h-7.12c-.86,0-1.73-.78-1.73-1.73v-.09c0-.96.87-1.54,1.73-1.54h7.12c.86,0,1.67.58,1.67,1.54v.09Z"/>
        <path class="cls-27" d="M154.32,181.63c0,.96-.91,1.73-1.77,1.73h-7.12c-.86,0-1.64-.78-1.64-1.73v-.09c0-.96.78-1.54,1.64-1.54h7.12c.86,0,1.77.58,1.77,1.54v.09Z"/>
        <path class="cls-13" d="M136.64,181.63c0,.96-.58,1.73-1.44,1.73h-7.12c-.86,0-1.54-.78-1.54-1.73v-.09c0-.96.69-1.54,1.54-1.54h7.12c.86,0,1.44.58,1.44,1.54v.09Z"/>
        <path class="cls-24" d="M119.8,181.63c0,.96-.65,1.73-1.51,1.73h-7.12c-.86,0-1.48-.78-1.48-1.73v-.09c0-.96.62-1.54,1.48-1.54h7.12c.86,0,1.51.58,1.51,1.54v.09Z"/>
        <path class="cls-5" d="M102.54,181.63c0,.96-.74,1.73-1.6,1.73h-7.12c-.86,0-1.38-.78-1.38-1.73v-.09c0-.96.52-1.54,1.38-1.54h7.12c.86,0,1.6.58,1.6,1.54v.09Z"/>
        <path class="cls-38" d="M85.69,181.63c0,.96-.81,1.73-1.67,1.73h-7.12c-.86,0-1.73-.78-1.73-1.73v-.09c0-.96.88-1.54,1.73-1.54h7.12c.86,0,1.67.58,1.67,1.54v.09Z"/>
        <path class="cls-6" d="M68.43,181.63c0,.96-.9,1.73-1.76,1.73h-7.12c-.86,0-1.64-.78-1.64-1.73v-.09c0-.96.78-1.54,1.64-1.54h7.12c.86,0,1.76.58,1.76,1.54v.09Z"/>
        <path class="cls-26" d="M50.75,181.63c0,.96-.57,1.73-1.43,1.73h-7.12c-.86,0-1.55-.78-1.55-1.73v-.09c0-.96.69-1.54,1.55-1.54h7.12c.86,0,1.43.58,1.43,1.54v.09Z"/>
        <path class="cls-9" d="M33.91,181.63c0,.96-.64,1.73-1.5,1.73h-7.12c-.86,0-1.48-.78-1.48-1.73v-.09c0-.96.62-1.54,1.48-1.54h7.12c.86,0,1.5.58,1.5,1.54v.09Z"/>
        <path class="cls-25" d="M16.65,181.63c0,.96-.73,1.73-1.59,1.73h-7.12c-.86,0-1.39-.78-1.39-1.73v-.09c0-.96.53-1.54,1.39-1.54h7.12c.86,0,1.59.58,1.59,1.54v.09Z"/>
      </g>
      <g>
        <path class="cls-21" d="M621.17,180.55c0,.57-.42,1.13-1.08,1.13h-326.45c-.66,0-1.28-.56-1.28-1.13v-.15c0-.57.62-1.24,1.28-1.24h326.45c.66,0,1.08.67,1.08,1.24v.15Z"/>
        <path class="cls-36" d="M396.77,181.63c0,.96-.9,1.73-1.76,1.73h-7.12c-.86,0-1.64-.78-1.64-1.73v-.09c0-.96.78-1.54,1.64-1.54h7.12c.86,0,1.76.58,1.76,1.54v.09Z"/>
        <path class="cls-23" d="M379.09,181.63c0,.96-.57,1.73-1.43,1.73h-7.12c-.86,0-1.55-.78-1.55-1.73v-.09c0-.96.69-1.54,1.55-1.54h7.12c.86,0,1.43.58,1.43,1.54v.09Z"/>
        <path class="cls-37" d="M362.25,181.63c0,.96-.64,1.73-1.5,1.73h-7.12c-.86,0-1.48-.78-1.48-1.73v-.09c0-.96.62-1.54,1.48-1.54h7.12c.86,0,1.5.58,1.5,1.54v.09Z"/>
        <path class="cls-34" d="M344.99,181.63c0,.96-.73,1.73-1.59,1.73h-7.12c-.86,0-1.39-.78-1.39-1.73v-.09c0-.96.53-1.54,1.39-1.54h7.12c.86,0,1.59.58,1.59,1.54v.09Z"/>
        <path class="cls-44" d="M327.72,181.63c0,.96-.83,1.73-1.69,1.73h-7.12c-.86,0-1.72-.78-1.72-1.73v-.09c0-.96.86-1.54,1.72-1.54h7.12c.86,0,1.69.58,1.69,1.54v.09Z"/>
        <path class="cls-42" d="M310.88,181.63c0,.96-.9,1.73-1.76,1.73h-7.12c-.86,0-1.65-.78-1.65-1.73v-.09c0-.96.79-1.54,1.65-1.54h7.12c.86,0,1.76.58,1.76,1.54v.09Z"/>
      </g>
    </g>
    <g>
      <path class="cls-18" d="M269.25,337.39v94.04s294.83,0,294.83,0h8.74s286.09,0,286.09,0h8.74s286.09,0,286.09,0h8.74s286.09,0,286.09,0h8.74s286.09,0,286.09,0h8.74s286.09,0,286.09,0h8.74s286.09,0,286.09,0h8.74s294.83,0,294.83,0v-94.04c0-3.03-.14-6.02-.34-9l46.07-139.4-5.53-1.83-41.64,126.02v-119.28h13.41s0-11.65,0-11.65H294.34s0,11.65,0,11.65h225.64s18.04,54.6,18.04,54.6c-24-26.02-58.34-42.35-96.44-42.35h-41.11c-72.36,0-131.23,58.87-131.23,131.23ZM526.12,193.9h39.42v100.45c-4.15-11.9-9.96-23.03-17.16-33.1l-22.26-67.35ZM2357.99,260.56c-7.43,10.25-13.41,21.62-17.65,33.79v-100.45h39.68s-22.03,66.66-22.03,66.66ZM2386.15,193.9h197.36s17.9,54.17,17.9,54.17c-23.98-25.76-58.14-41.92-96.03-41.92h-41.11c-37.89,0-72.05,16.16-96.03,41.92l17.9-54.17ZM2317.35,261.26l-22.26-67.35h39.42v100.45c-4.15-11.9-9.96-23.03-17.16-33.1ZM2307,248.5c-24-26.01-58.34-42.34-96.43-42.34h-41.11c-38.09,0-72.44,16.33-96.43,42.34l18.04-54.6h197.89s18.04,54.6,18.04,54.6ZM2062.67,261.25c-7.2,10.07-13.02,21.2-17.16,33.1v-100.45h39.42s-22.26,67.35-22.26,67.35ZM2022.03,260.56l-22.03-66.66h39.68v100.45c-4.24-12.18-10.22-23.54-17.65-33.79ZM2011.76,248.08c-23.98-25.76-58.14-41.92-96.03-41.92h-41.11c-38.1,0-72.44,16.33-96.43,42.34l18.04-54.6h197.63s17.9,54.17,17.9,54.17ZM1767.84,261.26c-7.2,10.07-13.01,21.19-17.16,33.1v-100.45h39.42s-22.26,67.35-22.26,67.35ZM1727.2,260.56l-22.03-66.66h39.68v100.45c-4.24-12.18-10.22-23.54-17.65-33.79ZM1716.93,248.08c-23.98-25.76-58.14-41.92-96.03-41.92h-41.11c-37.89,0-72.05,16.16-96.03,41.92l17.9-54.18h197.36s17.9,54.17,17.9,54.17ZM1473.5,260.56c-7.43,10.25-13.41,21.62-17.65,33.79v-100.45h39.68s-22.03,66.66-22.03,66.66ZM1432.86,261.25l-22.25-67.34h39.42v100.45c-4.15-11.91-9.96-23.03-17.17-33.11ZM1422.51,248.5c-24-26.01-58.34-42.34-96.43-42.34h-41.11c-38.1,0-72.44,16.33-96.44,42.35l18.04-54.6h197.89s18.04,54.6,18.04,54.6ZM1178.18,261.26c-7.2,10.07-13.01,21.19-17.16,33.1v-100.45h39.42s-22.26,67.35-22.26,67.35ZM1137.54,260.55l-22.03-66.65h39.68v100.45c-4.24-12.18-10.22-23.54-17.66-33.8ZM1127.28,248.08c-23.98-25.76-58.14-41.92-96.03-41.92h-41.11c-37.89,0-72.06,16.16-96.03,41.92l17.9-54.18h197.37s17.9,54.17,17.9,54.17ZM883.85,260.56c-7.43,10.25-13.41,21.62-17.65,33.79v-100.45h39.68s-22.03,66.66-22.03,66.66ZM843.2,261.25l-22.25-67.34h39.42v100.45c-4.15-11.91-9.96-23.03-17.16-33.11ZM832.85,248.5c-24-26.01-58.34-42.34-96.43-42.34h-41.11c-37.89,0-72.05,16.16-96.03,41.92l17.9-54.18h197.63s18.04,54.6,18.04,54.6ZM589.02,260.56c-7.43,10.26-13.42,21.62-17.66,33.8v-100.45h39.68s-22.03,66.65-22.03,66.65ZM2629.34,193.9v100.45c-4.24-12.18-10.22-23.54-17.65-33.79l-22.03-66.66h39.68ZM2341.79,337.39c0-3.63.19-7.21.5-10.75l17.59-53.23c21.57-35.07,60.29-58.5,104.4-58.5h41.11c44.1,0,82.83,23.44,104.4,58.5l17.59,53.23c.31,3.55.5,7.13.5,10.75v85.3h-286.09v-85.3ZM2046.96,337.39c0-3.98.21-7.91.58-11.79l16.94-51.26c21.45-35.58,60.48-59.44,104.97-59.44h41.11c44.5,0,83.52,23.86,104.97,59.44l16.94,51.25c.37,3.88.58,7.81.58,11.79v85.3h-286.09v-85.3ZM1752.14,337.39c0-3.98.21-7.91.58-11.79l16.94-51.25c21.45-35.59,60.48-59.44,104.97-59.44h41.11c44.1,0,82.83,23.44,104.4,58.51l17.59,53.22c.31,3.55.5,7.13.5,10.76v85.3h-286.09v-85.3ZM1457.31,337.39c0-3.63.19-7.21.5-10.76l17.59-53.21c21.57-35.07,60.3-58.51,104.4-58.51h41.11c44.1,0,82.83,23.44,104.4,58.5l17.59,53.23c.31,3.55.5,7.13.5,10.75v85.3h-286.09v-85.3ZM1162.48,337.39c0-3.98.21-7.92.58-11.81l16.93-51.23c21.45-35.59,60.48-59.46,104.98-59.46h41.11c44.5,0,83.52,23.86,104.97,59.44l16.94,51.25c.37,3.88.58,7.81.58,11.79v85.3h-286.09v-85.3ZM867.65,337.39c0-3.63.19-7.21.5-10.76l17.58-53.21c21.57-35.07,60.3-58.51,104.4-58.51h41.11c44.1,0,82.83,23.44,104.4,58.5l17.59,53.23c.31,3.55.5,7.13.5,10.75v85.3h-286.09v-85.3ZM572.82,337.39c0-3.63.19-7.21.5-10.75l17.59-53.23c21.57-35.07,60.3-58.51,104.4-58.51h41.11c44.5,0,83.52,23.86,104.97,59.44l16.94,51.25c.37,3.88.58,7.81.58,11.79v85.3h-286.09v-85.3ZM277.99,337.39c0-67.54,54.95-122.49,122.49-122.49h41.11c44.5,0,83.53,23.86,104.98,59.46l16.93,51.23c.37,3.89.58,7.82.58,11.81v85.3h-286.09v-85.3Z"/>
      <path class="cls-18" d="M-2085.46,337.39v94.04s294.83,0,294.83,0h8.74s286.09,0,286.09,0h8.74s286.09,0,286.09,0h8.74s286.09,0,286.09,0h8.74s286.09,0,286.09,0h8.74s286.09,0,286.09,0h8.74s286.09,0,286.09,0h8.74s294.83,0,294.83,0v-94.04c0-3.03-.14-6.02-.34-9l46.07-139.4-5.53-1.83-41.64,126.02v-119.28h13.41s0-11.65,0-11.65h-2354.23s0,11.65,0,11.65h225.64s18.04,54.6,18.04,54.6c-24-26.02-58.34-42.35-96.44-42.35h-41.11c-72.36,0-131.23,58.87-131.23,131.23ZM-1828.59,193.9h39.42v100.45c-4.15-11.9-9.96-23.03-17.16-33.1l-22.26-67.35ZM3.28,260.56c-7.43,10.25-13.41,21.62-17.65,33.79v-100.45H25.31S3.28,260.56,3.28,260.56ZM31.44,193.9h197.36s17.9,54.17,17.9,54.17c-23.98-25.76-58.14-41.92-96.03-41.92h-41.11c-37.89,0-72.05,16.16-96.03,41.92l17.9-54.17ZM-37.36,261.26l-22.26-67.35H-20.2v100.45c-4.15-11.9-9.96-23.03-17.16-33.1ZM-47.72,248.5c-24-26.01-58.34-42.34-96.43-42.34h-41.11c-38.09,0-72.44,16.33-96.43,42.34l18.04-54.6H-65.76s18.04,54.6,18.04,54.6ZM-292.04,261.25c-7.2,10.07-13.02,21.2-17.16,33.1v-100.45h39.42s-22.26,67.35-22.26,67.35ZM-332.68,260.56l-22.03-66.66h39.68v100.45c-4.24-12.18-10.22-23.54-17.65-33.79ZM-342.95,248.08c-23.98-25.76-58.14-41.92-96.03-41.92h-41.11c-38.1,0-72.44,16.33-96.43,42.34l18.04-54.6h197.63s17.9,54.17,17.9,54.17ZM-586.87,261.26c-7.2,10.07-13.01,21.19-17.16,33.1v-100.45h39.42s-22.26,67.35-22.26,67.35ZM-627.51,260.56l-22.03-66.66h39.68v100.45c-4.24-12.18-10.22-23.54-17.65-33.79ZM-637.78,248.08c-23.98-25.76-58.14-41.92-96.03-41.92h-41.11c-37.89,0-72.05,16.16-96.03,41.92l17.9-54.18h197.36s17.9,54.17,17.9,54.17ZM-881.21,260.56c-7.43,10.25-13.41,21.62-17.65,33.79v-100.45h39.68s-22.03,66.66-22.03,66.66ZM-921.85,261.25l-22.25-67.34h39.42v100.45c-4.15-11.91-9.96-23.03-17.17-33.11ZM-932.2,248.5c-24-26.01-58.34-42.34-96.43-42.34h-41.11c-38.1,0-72.44,16.33-96.44,42.35l18.04-54.6h197.89s18.04,54.6,18.04,54.6ZM-1176.53,261.26c-7.2,10.07-13.01,21.19-17.16,33.1v-100.45h39.42s-22.26,67.35-22.26,67.35ZM-1217.18,260.55l-22.03-66.65h39.68v100.45c-4.24-12.18-10.22-23.54-17.66-33.8ZM-1227.43,248.08c-23.98-25.76-58.14-41.92-96.03-41.92h-41.11c-37.89,0-72.06,16.16-96.03,41.92l17.9-54.18h197.37s17.9,54.17,17.9,54.17ZM-1470.86,260.56c-7.43,10.25-13.41,21.62-17.65,33.79v-100.45h39.68s-22.03,66.66-22.03,66.66ZM-1511.51,261.25l-22.25-67.34h39.42v100.45c-4.15-11.91-9.96-23.03-17.16-33.11ZM-1521.86,248.5c-24-26.01-58.34-42.34-96.43-42.34h-41.11c-37.89,0-72.05,16.16-96.03,41.92l17.9-54.18h197.63s18.04,54.6,18.04,54.6ZM-1765.69,260.56c-7.43,10.26-13.42,21.62-17.66,33.8v-100.45h39.68s-22.03,66.65-22.03,66.65ZM274.63,193.9v100.45c-4.24-12.18-10.22-23.54-17.65-33.79l-22.03-66.66h39.68ZM-12.92,337.39c0-3.63.19-7.21.5-10.75l17.59-53.23c21.57-35.07,60.29-58.5,104.4-58.5h41.11c44.1,0,82.83,23.44,104.4,58.5l17.59,53.23c.31,3.55.5,7.13.5,10.75v85.3H-12.92v-85.3ZM-307.75,337.39c0-3.98.21-7.91.58-11.79l16.94-51.26c21.45-35.58,60.48-59.44,104.97-59.44h41.11c44.5,0,83.52,23.86,104.97,59.44l16.94,51.25c.37,3.88.58,7.81.58,11.79v85.3h-286.09v-85.3ZM-602.58,337.39c0-3.98.21-7.91.58-11.79l16.94-51.25c21.45-35.59,60.48-59.44,104.97-59.44h41.11c44.1,0,82.83,23.44,104.4,58.51l17.59,53.22c.31,3.55.5,7.13.5,10.76v85.3h-286.09v-85.3ZM-897.4,337.39c0-3.63.19-7.21.5-10.76l17.59-53.21c21.57-35.07,60.3-58.51,104.4-58.51h41.11c44.1,0,82.83,23.44,104.4,58.5l17.59,53.23c.31,3.55.5,7.13.5,10.75v85.3h-286.09v-85.3ZM-1192.23,337.39c0-3.98.21-7.92.58-11.81l16.93-51.23c21.45-35.59,60.48-59.46,104.98-59.46h41.11c44.5,0,83.52,23.86,104.97,59.44l16.94,51.25c.37,3.88.58,7.81.58,11.79v85.3h-286.09v-85.3ZM-1487.06,337.39c0-3.63.19-7.21.5-10.76l17.58-53.21c21.57-35.07,60.3-58.51,104.4-58.51h41.11c44.1,0,82.83,23.44,104.4,58.5l17.59,53.23c.31,3.55.5,7.13.5,10.75v85.3h-286.09v-85.3ZM-1781.89,337.39c0-3.63.19-7.21.5-10.75l17.59-53.23c21.57-35.07,60.3-58.51,104.4-58.51h41.11c44.5,0,83.52,23.86,104.97,59.44l16.94,51.25c.37,3.88.58,7.81.58,11.79v85.3h-286.09v-85.3ZM-2076.72,337.39c0-67.54,54.95-122.49,122.49-122.49h41.11c44.5,0,83.53,23.86,104.98,59.46l16.93,51.23c.37,3.89.58,7.82.58,11.81v85.3h-286.09v-85.3Z"/>
    </g>
  </g>
  <rect class="cls-8" x="390" y="92.07" width="390" height="216.55"/>
</svg>