<?xml version="1.0" encoding="UTF-8"?>
<svg id="OBJECTS" xmlns="http://www.w3.org/2000/svg" xmlns:xlink="http://www.w3.org/1999/xlink" viewBox="0 0 390 279.41">
  <defs>
    <style>
      .cls-1 {
        fill: #626129;
      }

      .cls-1, .cls-2, .cls-3, .cls-4, .cls-5, .cls-6, .cls-7, .cls-8, .cls-9, .cls-10, .cls-11, .cls-12, .cls-13, .cls-14, .cls-15, .cls-16, .cls-17, .cls-18, .cls-19, .cls-20, .cls-21, .cls-22, .cls-23, .cls-24, .cls-25, .cls-26, .cls-27, .cls-28, .cls-29, .cls-30, .cls-31, .cls-32, .cls-33, .cls-34, .cls-35, .cls-36, .cls-37, .cls-38 {
        stroke-width: 0px;
      }

      .cls-2 {
        fill: url(#linear-gradient-12);
      }

      .cls-3 {
        fill: #263238;
      }

      .cls-4 {
        fill: url(#linear-gradient-17);
      }

      .cls-5 {
        fill: url(#linear-gradient-19);
      }

      .cls-6 {
        fill: url(#linear-gradient);
      }

      .cls-7 {
        fill: #7b3e19;
      }

      .cls-8 {
        fill: #000;
      }

      .cls-9 {
        fill: url(#linear-gradient-21);
      }

      .cls-10 {
        fill: url(#linear-gradient-6);
      }

      .cls-11 {
        fill: url(#linear-gradient-15);
      }

      .cls-12 {
        fill: #879b5f;
      }

      .cls-13 {
        fill: url(#linear-gradient-11);
      }

      .cls-14 {
        fill: url(#linear-gradient-5);
      }

      .cls-15 {
        fill: none;
      }

      .cls-16 {
        fill: #774639;
      }

      .cls-17 {
        fill: #a45221;
      }

      .cls-18 {
        fill: url(#linear-gradient-13);
      }

      .cls-19 {
        fill: url(#linear-gradient-23);
      }

      .cls-20 {
        fill: url(#linear-gradient-25);
      }

      .cls-21 {
        fill: url(#linear-gradient-16);
      }

      .cls-22 {
        fill: url(#linear-gradient-22);
      }

      .cls-23 {
        fill: url(#linear-gradient-20);
      }

      .cls-24 {
        fill: url(#linear-gradient-14);
      }

      .cls-25 {
        fill: #351e16;
        fill-rule: evenodd;
      }

      .cls-26 {
        fill: url(#linear-gradient-2);
      }

      .cls-27 {
        fill: url(#linear-gradient-7);
      }

      .cls-28 {
        fill: url(#linear-gradient-3);
      }

      .cls-39 {
        clip-path: url(#clippath);
      }

      .cls-29 {
        fill: url(#linear-gradient-9);
      }

      .cls-30 {
        fill: url(#linear-gradient-8);
      }

      .cls-31 {
        fill: url(#linear-gradient-24);
      }

      .cls-32 {
        fill: url(#linear-gradient-18);
      }

      .cls-33 {
        fill: #92e3a9;
      }

      .cls-34 {
        fill: #c2a131;
      }

      .cls-35 {
        fill: #043f22;
      }

      .cls-36 {
        fill: url(#linear-gradient-10);
      }

      .cls-37 {
        fill: #fff;
        opacity: .5;
      }

      .cls-38 {
        fill: url(#linear-gradient-4);
      }
    </style>
    <clipPath id="clippath">
      <rect class="cls-15" width="390" height="279.41"/>
    </clipPath>
    <linearGradient id="linear-gradient" x1="66.77" y1="148.36" x2="66.77" y2="151.53" gradientUnits="userSpaceOnUse">
      <stop offset="0" stop-color="#fff"/>
      <stop offset=".15" stop-color="#d4d4d4"/>
      <stop offset=".32" stop-color="#adadad"/>
      <stop offset=".48" stop-color="#8e8e8e"/>
      <stop offset=".64" stop-color="#777"/>
      <stop offset=".8" stop-color="#6a6a6a"/>
      <stop offset=".93" stop-color="#666"/>
      <stop offset=".93" stop-color="#000"/>
    </linearGradient>
    <linearGradient id="linear-gradient-2" x1="224.44" y1="148.68" x2="224.44" y2="152.9" gradientUnits="userSpaceOnUse">
      <stop offset="0" stop-color="#fff"/>
      <stop offset=".12" stop-color="#eee7dd"/>
      <stop offset=".29" stop-color="#dbcbb6"/>
      <stop offset=".46" stop-color="#ccb697"/>
      <stop offset=".63" stop-color="#c1a680"/>
      <stop offset=".78" stop-color="#bb9d73"/>
      <stop offset=".92" stop-color="#b99a6f"/>
      <stop offset="1" stop-color="#6b4d2b"/>
    </linearGradient>
    <linearGradient id="linear-gradient-3" x1="207.6" x2="207.6" xlink:href="#linear-gradient-2"/>
    <linearGradient id="linear-gradient-4" x1="190.12" x2="190.12" xlink:href="#linear-gradient-2"/>
    <linearGradient id="linear-gradient-5" x1="173.07" x2="173.07" xlink:href="#linear-gradient-2"/>
    <linearGradient id="linear-gradient-6" x1="155.81" x2="155.81" xlink:href="#linear-gradient-2"/>
    <linearGradient id="linear-gradient-7" x1="138.97" x2="138.97" xlink:href="#linear-gradient-2"/>
    <linearGradient id="linear-gradient-8" x1="121.29" x2="121.29" xlink:href="#linear-gradient-2"/>
    <linearGradient id="linear-gradient-9" x1="104.66" x2="104.66" xlink:href="#linear-gradient-2"/>
    <linearGradient id="linear-gradient-10" x1="87.4" x2="87.4" xlink:href="#linear-gradient-2"/>
    <linearGradient id="linear-gradient-11" x1="69.92" x2="69.92" xlink:href="#linear-gradient-2"/>
    <linearGradient id="linear-gradient-12" x1="53.08" x2="53.08" xlink:href="#linear-gradient-2"/>
    <linearGradient id="linear-gradient-13" x1="35.82" x2="35.82" xlink:href="#linear-gradient-2"/>
    <linearGradient id="linear-gradient-14" x1="18.77" x2="18.77" xlink:href="#linear-gradient-2"/>
    <linearGradient id="linear-gradient-15" x1="1.51" x2="1.51" xlink:href="#linear-gradient-2"/>
    <linearGradient id="linear-gradient-16" x1="396.32" x2="396.32" xlink:href="#linear-gradient"/>
    <linearGradient id="linear-gradient-17" x1="382.64" x2="382.64" xlink:href="#linear-gradient-2"/>
    <linearGradient id="linear-gradient-18" x1="365.38" x2="365.38" xlink:href="#linear-gradient-2"/>
    <linearGradient id="linear-gradient-19" x1="348.33" x2="348.33" xlink:href="#linear-gradient-2"/>
    <linearGradient id="linear-gradient-20" x1="331.06" x2="331.06" xlink:href="#linear-gradient-2"/>
    <linearGradient id="linear-gradient-21" x1="313.59" x2="313.59" xlink:href="#linear-gradient-2"/>
    <linearGradient id="linear-gradient-22" x1="296.75" x2="296.75" xlink:href="#linear-gradient-2"/>
    <linearGradient id="linear-gradient-23" x1="279.49" x2="279.49" xlink:href="#linear-gradient-2"/>
    <linearGradient id="linear-gradient-24" x1="262.02" x2="262.02" xlink:href="#linear-gradient-2"/>
    <linearGradient id="linear-gradient-25" x1="245.18" x2="245.18" xlink:href="#linear-gradient-2"/>
  </defs>
  <g>
    <path class="cls-33" d="M42.31,10.47c16.46,0,29.81,13.25,29.81,29.61,0,7.58-2.87,14.49-7.59,19.73-2.16-.31-6.09-.53-10.44.95-5.76,1.96-9.35,5.17-10.14,5.92h-2.67c-.79-.75-4.38-3.96-10.14-5.92-4.73-1.61-8.98-1.21-10.97-.87-4.76-5.25-7.66-12.2-7.66-19.82,0-16.35,13.35-29.61,29.81-29.61Z"/>
    <path class="cls-37" d="M42.31,10.47c16.46,0,29.81,13.25,29.81,29.61,0,7.58-2.87,14.49-7.59,19.73-2.16-.31-6.09-.53-10.44.95-5.76,1.96-9.35,5.17-10.14,5.92h-2.67c-.79-.75-4.38-3.96-10.14-5.92-4.73-1.61-8.98-1.21-10.97-.87-4.76-5.25-7.66-12.2-7.66-19.82,0-16.35,13.35-29.61,29.81-29.61Z"/>
    <path class="cls-3" d="M28.43,51.95c.92.44,1.83.9,2.72,1.38.9.49,1.78,1.02,2.6,1.61.31.22.62.44.92.66l-4.88-9.1,6.7,10.49c.68.55,1.35,1.1,2,1.67,1.08.94,2.13,1.9,3.17,2.89l.34-9.87-7.01-10.67,7.06,9.18.3-8.83.5,9.88h0s0,0,0,0l.5,9.91c.9-.85,1.81-1.68,2.74-2.49.73-.64,1.48-1.27,2.25-1.87l6.34-10.83-4.66,9.55c.27-.19.53-.39.81-.58.83-.58,1.71-1.12,2.6-1.61.9-.48,1.81-.94,2.72-1.38,1.84-.88,3.71-1.71,5.64-2.39-1.88.8-3.68,1.73-5.44,2.71-.88.49-1.74,1-2.6,1.53-.84.53-1.65,1.09-2.41,1.71-1.54,1.22-2.99,2.56-4.38,3.93-1.21,1.2-2.39,2.45-3.52,3.72l.64,77.48h-2.94s.42-76.97.42-76.97c-1.26-1.44-2.6-2.86-3.97-4.23-1.39-1.38-2.83-2.71-4.38-3.93-.77-.62-1.57-1.18-2.41-1.71-.85-.53-1.72-1.04-2.6-1.53-1.76-.98-3.56-1.92-5.44-2.71,1.93.68,3.8,1.51,5.64,2.39Z"/>
  </g>
  <g>
    <path class="cls-33" d="M68.51,43.64c11.65,0,21.1,9.38,21.1,20.95,0,5.37-2.03,10.26-5.37,13.97-1.53-.22-4.31-.37-7.39.67-4.08,1.39-6.62,3.66-7.18,4.19h-1.89c-.56-.53-3.1-2.8-7.18-4.19-3.35-1.14-6.36-.86-7.77-.61-3.37-3.71-5.42-8.63-5.42-14.03,0-11.57,9.45-20.95,21.1-20.95Z"/>
    <path class="cls-37" d="M68.51,43.64c11.65,0,21.1,9.38,21.1,20.95,0,5.37-2.03,10.26-5.37,13.97-1.53-.22-4.31-.37-7.39.67-4.08,1.39-6.62,3.66-7.18,4.19h-1.89c-.56-.53-3.1-2.8-7.18-4.19-3.35-1.14-6.36-.86-7.77-.61-3.37-3.71-5.42-8.63-5.42-14.03,0-11.57,9.45-20.95,21.1-20.95Z"/>
    <path class="cls-3" d="M58.69,73c.65.31,1.29.64,1.93.98.64.35,1.26.72,1.84,1.14.22.15.44.31.65.47l-3.46-6.44,4.74,7.43c.48.39.95.78,1.42,1.18.77.67,1.51,1.35,2.24,2.05l.24-6.98-4.96-7.55,5,6.5.22-6.25.36,7h0s0,0,0,0l.36,7.01c.63-.6,1.28-1.19,1.94-1.76.52-.45,1.05-.9,1.59-1.33l4.49-7.66-3.3,6.76c.19-.14.38-.28.57-.41.58-.41,1.21-.79,1.84-1.14.63-.34,1.28-.66,1.93-.98,1.3-.62,2.62-1.21,3.99-1.69-1.33.56-2.6,1.22-3.85,1.92-.62.35-1.24.71-1.84,1.08-.59.38-1.17.77-1.71,1.21-1.09.87-2.11,1.81-3.1,2.79-.86.85-1.69,1.74-2.49,2.63l.45,54.84h-2.08s.29-54.48.29-54.48c-.89-1.02-1.84-2.02-2.81-2.99-.98-.98-2-1.92-3.1-2.79-.54-.44-1.11-.84-1.71-1.21-.6-.37-1.22-.73-1.84-1.08-1.24-.7-2.52-1.36-3.85-1.92,1.37.48,2.69,1.07,3.99,1.69Z"/>
  </g>
  <g class="cls-39">
    <g>
      <g>
        <g>
          <path class="cls-1" d="M107.32,136.28s-54.69-12.36-150.71-32.61c-96.01-20.26-199.32-22.48-296.54,16.31-97.23,38.79-147.06,64.31-209.04,65.53H121.9s-14.58-49.22-14.58-49.22Z"/>
          <g>
            <path class="cls-34" d="M29.54,174.16s-113.43-77.37-236.59-17.22l118.29,65.63,118.29-48.41Z"/>
            <g>
              <rect class="cls-17" x="-36.5" y="144.93" width="51.85" height="31.76" transform="translate(-21.14 321.62) rotate(-180)"/>
              <rect class="cls-7" x="15.36" y="153.9" width="20.26" height="20.26" transform="translate(50.97 328.06) rotate(-180)"/>
            </g>
          </g>
        </g>
        <path class="cls-35" d="M75.88,226.82s-438.3-68.76-631.85-58.69c-193.55,10.07-517.64,131.71-517.64,131.71l187.03,16.91,975.26-41.32-12.8-48.61Z"/>
        <path class="cls-12" d="M64.38,176.69s-164.7-36.09-319.23-32.27c-154.53,3.81-375.74,121.3-375.74,121.3H67.62s-3.24-89.02-3.24-89.02Z"/>
      </g>
      <g>
        <g>
          <path class="cls-1" d="M17.82,136.28s54.69-12.36,150.71-32.61c96.01-20.26,199.32-22.48,296.54,16.31,97.23,38.79,147.06,64.31,209.04,65.53H3.24s14.58-49.22,14.58-49.22Z"/>
          <g>
            <path class="cls-34" d="M95.61,174.16s113.43-77.37,236.59-17.22l-118.29,65.63-118.29-48.41Z"/>
            <g>
              <path class="cls-35" d="M163.9,120.39s-12.06,49.09,0,49.09,0-49.09,0-49.09Z"/>
              <path class="cls-35" d="M174.62,125.77s-10.41,42.37,0,42.37,0-42.37,0-42.37Z"/>
              <path class="cls-35" d="M184.09,132.27s-8.99,36.59,0,36.59c8.99,0,0-36.59,0-36.59Z"/>
            </g>
            <g>
              <rect class="cls-17" x="109.79" y="144.93" width="51.85" height="31.76"/>
              <rect class="cls-7" x="89.53" y="153.9" width="20.26" height="20.26"/>
            </g>
          </g>
        </g>
        <path class="cls-35" d="M49.26,226.82s438.3-68.76,631.85-58.69c193.55,10.07,330.61,77.32,330.61,77.32v71.3S36.46,275.44,36.46,275.44l12.8-48.61Z"/>
        <path class="cls-12" d="M60.77,176.69s164.7-36.09,319.23-32.27c154.53,3.81,375.74,121.3,375.74,121.3H57.53l3.24-89.02Z"/>
      </g>
    </g>
    <g>
      <path class="cls-25" d="M272.02,73.37c-.47-1.65-2.66-2.87-4.21-1.81-1.13.77-2.07,1.84-2.82,3.07-.33-1.73-.28-3.61.09-5.24.28-1.25,1.4-2.79,2.74-3.91.45.72,1.09,1.35,1.88,1.83,1.52.92,3.61.72,3.74-1.21.05.17.09.34.13.53.03.17.31.12.3-.05-.29-4.38-3.19-3.59-5.71-1.58-1.21-2.07.04-4.69,1.45-6.48,2.63-3.33,2.75,1.61,5.02,2.21,3.03.8,4.26-4.32,2.77-7.13,1.38-.34,2.56-2.12,3.23-3.82.44.09.92.09,1.39-.03.21-.05.11-.36-.09-.31-1.45.29-2.6-.74-2.32-2.22.28-1.46,1.87-1.85,3.11-1.49.61.18,1.43.78,2.06,1.5-.77,1.03-1.08,2.4-.54,3.62.05.12.16.2.3.16,2.17-.63,2.02-2.27,1.02-3.68.33-.39.72-.77,1.14-1.19.1-.1,0-.3-.15-.24-.53.19-1,.52-1.4.92-.84-.93-2-1.67-3.01-1.77-1.68-.18-3.14.98-3.18,2.7-.02,1.01.53,1.64,1.28,1.93-.3.4-.59.81-.86,1.23-.32.43-.63.85-.95,1.28-1.1-.08-1.88-.08-2.35.02-.26-.14-.55-.25-.88-.31-.25-.04-.57.25-.37.5.64.79,1.27,1.17,1.88,1.24.05.03.09.06.15.09.81,1.21.64,3,.32,4.31-.51,2.07-2.7,2.76-3.8.84-.31-.53-.54-1.11-.87-1.63-1.49-2.4-4.2,2.01-4.78,3.05-.97,1.71-.86,3.55.02,5.04-1.4,1.21-2.62,2.73-3.14,3.85-.52,1.15-.59,3.84-.07,6.22-2.47,4.81-2.09,11.6,2.65,14.3.33.19.6-.31.28-.51-3.99-2.46-4.2-6.64-3.22-10.76.17-.62.38-1.23.61-1.82.77,2.35,2.22,3.97,4.53,2.65,2.3-1.32,3.38-3.3,2.64-5.91ZM284.66,50.47c-.23-1.13.02-1.95.54-2.68.73,1.08.91,2.25-.54,2.68ZM273.29,65.64c-.16-.05-.36.02-.34.23.26,2.67-3.11.89-3.99.1-.29-.26-.52-.53-.7-.82,1.9-1.4,4.1-1.86,5.04.48ZM265.48,76.34c-.08-.22-.16-.44-.22-.67.01-.03.02-.06.04-.09.82-2.35,2.8-3.23,5.93-2.63,2.83,3.77-3.96,7.97-5.74,3.39Z"/>
      <path class="cls-25" d="M259.04,66.76c.58-3.9-3.35-8.23-6.92-9.75h0c-.3-2.88-3.18-5.51-6.07-5.59-.29-4.69-4.92-7.08-9.08-7.78-.43-.07-.59.54-.17.66,2.8.72,6.07,1.75,7.68,4.36.5.82.71,1.84.81,2.8-.77.11-1.53.39-2.22.95-.2.16-.22.38-.06.58,1.76,2.16,3,1.26,3.05-.98.35-.05.63-.08.73-.06,2,.31,3.44,2.43,4.16,4.14.1.24.18.49.24.74-1.84-.31-4.11.29-3.65,2.66.33,1.67,3.47,1.31,4.11.07.34-.65.48-1.33.49-2,2.92,1.68,6.59,5.12,6.19,8.75-1.98-1.13-4.37-1.62-4.76.76-.3,1.81,1.37,4.94,3.48,3.12,1.04-.89,1.63-1.89,1.89-2.93.12.11.24.21.37.34,1.17.95,1.68,2.54,2.09,3.92,1.27,4.25.4,9.27-.09,13.59-.04.31.44.45.49.12.78-5.45,1.8-11.54-.87-16.63-.28-.53-1-1.22-1.88-1.83ZM244,53.04c-.4-.38.47-.7,1.36-.9.17.93-.27,1.24-1.36.9ZM251.3,58.61c-.2.84-.76,1.27-1.69,1.28-.47-.41-.95-.83-1.42-1.24.87-1.2,1.91-1.68,3.09-1.46.08.47.1.95.02,1.42ZM257.1,69.18c-.93-.19-1.86-.38-2.78-.57,1.18-2.17,2.5-2.77,3.95-1.88-.16.81-.52,1.64-1.16,2.45Z"/>
      <path class="cls-25" d="M264.45,45.22c-.11-.35-.63-.35-.72.02-.67,2.66-3.48,4.77-5.08,1.22-1.21-2.7,1.86-4.89,4.01-5.65.5-.17,1.4-.21,1.74-.72,1.53-2.33-.13-6.84-1.3-9-.23-.43-.86-.03-.64.39,1.08,2.06,1.49,4.23,1.62,6.54.13,2.16-1.37,1.83-2.52,2.4-2.01.99-3.45,2.3-3.83,4.57-.34,1.99,1.96,5.32,4.26,4.25.79-.37,2.42-1.68,2.14-2.58.65,2.04,1.62,8.52-2.29,8.5-.57,0-1.18.33-1.73.49-3.88,1.16,2.01,8.71,3.25,9.67.29.22.68-.17.4-.42-.36-.31-6.42-8.48-3.1-8.56.83-.02,1.92-.36,2.75-.6,3.53-1.01,1.7-8.5,1.05-10.52Z"/>
      <path class="cls-25" d="M301.25,57.34c.34-.12.19-.61-.16-.54-15.59,3.43-27.22,17.06-29.83,32.5-.06.34.45.47.52.13,3.63-16.4,13.92-26.56,29.46-32.1Z"/>
      <path class="cls-25" d="M275.84,32.24c-.19.07-.2.29-.04.4.2.14.45.2.7.23-4.86,7.13-7.94,16.27-9.79,24.45-.04.18.21.24.27.07,1.76-4.81,3.28-9.69,5.24-14.42,1.46-3.52,3.36-6.78,5.16-10.12.17-.03.33-.06.48-.09.81-.19,1.46-.76,1.95-1.41.25-.33-.2-.78-.47-.45-.42.49-.89.83-1.48,1.04.21-.4.42-.79.63-1.19.09-.18-.16-.38-.29-.22-.4.51-.8,1.04-1.18,1.57-.4.01-.81,0-1.18.13Z"/>
      <path class="cls-25" d="M256.7,55.87c-.58-7.8-6.46-17.36-12.74-21.93-.27-.2-.53.23-.33.45,5.57,6.17,11.46,12.88,12.52,21.5.04.34.57.34.54-.01Z"/>
      <path class="cls-25" d="M249.19,33.17c.27-.18.52-.39.78-.59.25-.15.5-.26.76-.33.01.11.03.21.04.32-.28.5-.54,1.02-.77,1.54-.1-.14-.19-.29-.29-.43-.18-.26-.56-.02-.42.26.14.29.3.57.44.85,0,.09.04.17.12.22,2.09,3.95,4.61,7.62,5.72,12.04.05.22.36.11.32-.1-.8-4.35-3.01-8.55-5.48-12.24.26-.36.5-.72.74-1.1.21,0,.44-.18.4-.44,0-.06-.02-.11-.02-.17.15-.25.3-.5.44-.75.32.09.63.26.94.52.28.23.81,0,.65-.4-.22-.55-.5-1.06-.79-1.56.15-.28.3-.56.46-.84.2-.36-.22-.74-.57-.54-.19.11-.36.24-.54.36-.31-.46-.64-.93-.96-1.39-.19-.27-.66-.17-.64.19.04.8.06,1.59.11,2.38-.38.34-.77.67-1.17.99-.26.17-.52.36-.76.59-.33.31.12.88.5.62Z"/>
      <path class="cls-25" d="M240.56,27.83c.02-1.24.27-2.42.79-3.54.25-.54.6-1.02,1.01-1.46.31-.33.67-.47.85-.89.06-.14-.02-.27-.17-.28-1.07-.11-1.95,1.45-2.36,2.26-.61,1.2-.82,2.6-.8,3.93,0,.44.67.42.68-.02Z"/>
      <path class="cls-25" d="M241.64,26.17c-.17.36.36.67.55.3.37-.7.82-1.32,1.45-1.81.33-.26.71-.42,1.13-.45.3-.02.55.05.85-.04.11-.03.15-.15.09-.25-.42-.76-1.49-.45-2.1-.14-.92.46-1.55,1.48-1.96,2.38Z"/>
      <path class="cls-25" d="M242.63,28.81c.7-.56,1.46-.94,2.33-1.16,1-.25,1.75.2,2.58.67.14.08.32-.06.26-.21-.86-2.48-4.3-.94-5.59.19-.28.25.12.74.41.51Z"/>
      <path class="cls-25" d="M245.71,30.43c.6.32,1.05.83,1.63,1.17.18.1.44-.08.36-.29-.57-1.37-2.33-1.91-3.67-2.12-.38-.06-.54.5-.15.59.64.14,1.24.34,1.82.65Z"/>
      <path class="cls-25" d="M242.23,30.54c-.29-.27-.7.16-.42.44.41.41.82.82,1.18,1.27.29.36.53,1.04,1.01,1.15.12.03.23-.05.26-.16.16-.47-.35-.96-.62-1.3-.42-.51-.92-.96-1.41-1.4Z"/>
      <path class="cls-25" d="M240.38,38.37c1.72-1.4,1.57-3.68.74-5.54-.15-.34-.74-.08-.6.27.73,1.81.52,3.37-.51,5-.15.24.18.42.37.27Z"/>
      <path class="cls-25" d="M237.2,34.68c.55-.24.96-.66,1.22-1.19.19-.39-.39-.71-.59-.33-.24.46-.59.75-1.07.92-.38.14-.84.12-1.17.36-.12.09-.12.26,0,.34.46.3,1.15.09,1.61-.11Z"/>
      <path class="cls-25" d="M236.25,31.16c.35-.19.03-.69-.32-.52-.42.19-.83.3-1.29.29-.44,0-.81-.31-1.23-.37-.12-.02-.23.08-.19.2.35,1.29,2.22.84,3.04.4Z"/>
      <path class="cls-25" d="M234.98,28.99c.38.12.51-.46.15-.59-1.5-.54-1.8-1.78-2.15-3.18-.06-.22-.42-.22-.46.01-.28,1.74.83,3.26,2.46,3.76Z"/>
      <path class="cls-25" d="M237.01,27.27c-.53-.85-.85-1.74-1.06-2.71-.18-.87,0-1.73-.14-2.59-.03-.17-.25-.15-.33-.04-1.09,1.56.06,4.29,1.01,5.65.22.32.72.02.52-.32Z"/>
      <path class="cls-25" d="M237.98,25.09c-.13-.54-.19-1.08-.2-1.63,0-.52.08-1.02-.01-1.54-.03-.15-.23-.13-.3-.03-.61.92-.34,2.38-.08,3.38.1.38.68.2.58-.18Z"/>
      <path class="cls-25" d="M280.2,30.5c.4.15.67-.54.27-.69-.07-.03-.12-.06-.19-.09.07.05.15.08.24.08,1.16-.06,2.35-.57,2.39-1.88.03-1.1-1-1.94-2-2.11-.32-.06-.64-.05-.96.01.03-.06.04-.13.03-.2-.2-.95-.18-1.9,0-2.84.2-1.02.84-1.76,1.24-2.68.08-.19-.1-.4-.3-.29-1.93,1.1-2.06,4.11-1.53,5.98.02.08.06.12.11.16-.68.27-1.22.83-1.32,1.62-.17,1.34.83,2.49,2.01,2.93ZM280.7,27.64c.09-.39.54-.54.85-.73.29.23.52.55.57.91.1.77-.65,1.05-1.3,1.14-.12-.43-.21-.88-.12-1.32ZM280.49,26.57c-.79.55-.62,2.05-.36,2.93.03.08.08.16.15.21-1.52-.78-1.87-3.08.21-3.14Z"/>
      <path class="cls-25" d="M281.21,24.76c.25-.96.61-1.87,1.16-2.7.59-.88,1.52-1.13,2.27-1.78.1-.09.04-.28-.09-.3-1.06-.19-2.02.69-2.64,1.46-.72.91-1.07,2.05-1.31,3.17-.08.39.5.54.6.15Z"/>
      <path class="cls-25" d="M283.61,24.85c.56-.53,1.17-.88,1.95-.92.78-.04,1.29.53,1.97.76.13.04.24-.1.21-.22-.22-.81-1.18-1.28-1.98-1.3-1.04-.02-1.91.49-2.62,1.22-.29.3.17.74.47.45Z"/>
      <path class="cls-25" d="M285.14,26.11c.74.03,1.42.23,2.01.69.59.46.91,1.17,1.3,1.78.12.19.46.11.45-.13-.14-1.91-1.99-3-3.77-2.92-.38.02-.36.57.01.59Z"/>
      <path class="cls-25" d="M286.58,31.51c.03.14.25.16.32.03.69-1.41-.23-3.01-1.26-3.98-.29-.28-.7.16-.43.45.46.48.8.99,1.03,1.62.22.6.2,1.26.34,1.88Z"/>
      <path class="cls-25" d="M282.01,34.91c-.08.1-.04.31.13.29,2.31-.27,3.16-3.13,2.42-5-.15-.38-.75-.21-.61.18.29.88.29,1.7-.11,2.55-.41.85-1.26,1.28-1.82,1.99Z"/>
      <path class="cls-25" d="M281.52,31.26c-.27.79-.68,1.46-1.23,2.09-.45.51-1.2.82-1.53,1.41-.07.13.03.27.17.28.79.04,1.54-.81,2-1.36.55-.65.91-1.47,1.16-2.28.11-.36-.44-.49-.56-.14Z"/>
      <path class="cls-25" d="M276.69,30.54c.44-.09.23-.73-.2-.65-.49.09-.98,0-1.36-.32-.35-.29-.42-.77-.61-1.15-.1-.19-.34-.1-.4.06-.23.62.13,1.29.6,1.69.55.47,1.3.52,1.98.37Z"/>
      <path class="cls-25" d="M274.57,24.73c-.35.64.03,1.51.38,2.07.4.62,1.07,1.01,1.75,1.26.35.13.58-.46.24-.61-.55-.23-1.01-.55-1.37-1.04-.37-.51-.33-1.18-.67-1.69-.08-.12-.26-.12-.33,0Z"/>
      <path class="cls-25" d="M236.84,30.32c.2,1.03,1.2,1.62,2.16,1.8.4.08.55-.51.15-.61-.63-.16-1.26-.49-1.53-1.11-.25-.58.15-1.03.67-1.25.59-.25,1.63-.4,2.06.22.4.57-.4.98-.74,1.28-.17.15,0,.41.18.41.94.04,1.6-.96,1.32-1.81-.37-1.14-1.81-1.12-2.75-.9-.91.21-1.73.98-1.54,1.97Z"/>
      <path class="cls-25" d="M224.17,62.52c.15.24.31.47.46.71.23.38.91.1.72-.33-.01-.03-.03-.06-.05-.09,0,0,0,0,0,0,0,0,0-.01-.01-.02-.61-1.38-1.39-2.62-2.34-3.79-.08-.1-.16-.19-.23-.28.6-.49,1.18-1,1.71-1.57.31-.17.64-.32.99-.44.47-.16.25-.89-.22-.74,0,0-.01,0-.02,0-.05-.16-.17-.28-.38-.28-.79.01-1.57,0-2.36-.04-.05-.61-.13-1.2-.31-1.81-.02-.06-.06-.11-.1-.15-.05-.2-.08-.39-.14-.59-.09-.34-.68-.36-.73.02-.09.72-.23,1.59-.3,2.46-.91-.06-1.83-.12-2.74-.2-.38-.03-.44.44-.26.66.75.92,1.5,1.88,2.29,2.79-.11.5-.32.97-.63,1.39-.45.37-.89.76-1.3,1.17-.33.33.12.87.51.63.56-.34,1.01-.76,1.37-1.22.35-.29.71-.58,1.07-.86.91.96,1.89,1.85,3,2.57ZM222.48,56.47c.48.02.96.03,1.44.04-.03.03-.05.06-.08.09-.47.27-.92.59-1.34.95-.01-.32-.03-.63-.05-.95.02-.04.03-.08.03-.13ZM219,56.23c.33.03.66.06.99.08-.03.07-.04.16,0,.26.13.39.2.76.23,1.13-.41-.49-.82-.98-1.22-1.48Z"/>
      <path class="cls-25" d="M310.59,52.5c-.71.15-1.41.31-2.11.48.08-.63.21-1.27.37-1.9.1-.39-.43-.72-.71-.39-.75.92-1.42,1.89-2.05,2.88-.41.1-.83.19-1.24.29-1.1-.82-2.37-1.41-3.92-1.62-.51-.07-.71.71-.2.78,1.16.16,2.14.54,3.01,1.08-.63.13-1.25.26-1.89.35-.47.07-.48.81.02.76.94-.1,1.87-.26,2.8-.46.16.13.32.26.47.39-.66,1.18-1.27,2.39-1.82,3.64-.15.35.21.83.58.56,1.02-.75,2.05-1.49,3.05-2.27.61.73,1.2,1.5,1.81,2.25h0s.05.06.07.08c.31.38.86-.13.64-.52-.56-.98-.87-2.01-1.01-3.06.92-.81,1.79-1.67,2.54-2.65.26-.33,0-.77-.42-.69ZM305.05,57.47c-.1.08-.2.15-.31.23.27-.56.56-1.11.85-1.65.01.05.05.1.09.14-.22.42-.44.85-.64,1.29ZM307.05,55.94c-.05-.06-.11-.12-.17-.17.24-.23.41-.52.51-.84,0,0,0,0,0-.01,0,0,0,0,0,0,.01-.03.03-.06.04-.1.13-.48-.5-.66-.76-.3-.03.04-.05.09-.08.13-.09-.02-.18,0-.25.05.08-.13.16-.26.24-.39.32-.08.64-.16.96-.24-.02.47,0,.94.04,1.4-.18.16-.36.31-.55.46ZM308.38,54.78c0-.3,0-.61.01-.92.4-.1.79-.19,1.19-.29-.38.42-.79.82-1.21,1.2Z"/>
      <path class="cls-25" d="M266.72,41.08c.5-.57,1.02-1.14,1.55-1.72,0,.02,0,.03,0,.04.13.48.83.26.73-.22-.04-.18-.06-.37-.09-.55.17-.2.35-.4.51-.6.49.04.97.14,1.45.33.36.14.78-.19.55-.57-.27-.44-.54-.87-.81-1.31.27-.4.53-.81.75-1.24.21-.4-.35-.85-.65-.48-.22.26-.44.52-.68.76-.46-.8-.88-1.62-1.21-2.49-.14-.36-.66-.29-.67.11-.03,1.33-.2,2.67-.17,3.99-.15.08-.3.14-.45.2-.59.09-1.17.23-1.76.4-.44.13-.35.85.13.81.66-.05,1.27-.2,1.84-.42.1-.02.2-.03.3-.04,0,.05.01.11.02.16-.69.77-1.38,1.54-1.93,2.41-.22.35.31.74.59.43ZM268.84,34.86c.2.41.41.82.63,1.22-.21.19-.44.37-.67.54,0-.58.02-1.17.04-1.76Z"/>
      <path class="cls-25" d="M245.82,43.87c.34.2.77-.23.54-.56-.31-.44-.62-.88-.92-1.32.15-.36.29-.72.42-1.07.14-.38-.44-.69-.69-.38-.13.17-.29.32-.43.47-.41-.56-.82-1.11-1.27-1.64-.24-.28-.71.04-.6.37.25.77.5,1.54.72,2.31-.3.22-.61.42-.94.61-.43.13-.86.33-1.29.61-.38.25-.11.92.33.74.03-.01.06-.03.1-.04,0,0,0,0,0,0,.4-.16.78-.34,1.15-.54.32-.09.63-.14.95-.14-.21.45-.43.89-.62,1.35-.17.41.34.69.6.33.12-.17.22-.35.33-.52.15.41.8.19.71-.27-.04-.24-.1-.48-.16-.72,0-.02.02-.03.02-.05.34.1.68.25,1.04.45Z"/>
      <path class="cls-25" d="M226.1,58.25c-.34-.03-.39.52-.07.59,14.82,3.58,31.03,13.65,30.55,30.88-.01.49.73.46.75-.02.78-16.2-15.99-30.05-31.24-31.45Z"/>
      <path class="cls-25" d="M234.82,56.09c3.98,2.18,7.6,4.33,10.91,7.5,2.95,2.82,5.45,6.06,8.18,9.08.23.26.57-.13.36-.38-5.23-6.43-11.02-14.08-19.28-16.65-.27-.08-.42.32-.18.45Z"/>
      <path class="cls-25" d="M232.72,58.1c.31-.41.54-.9.72-1.42.27.36.52.73.76,1.11.23.36.79.02.57-.35-.34-.56-.71-1.08-1.11-1.59.08-.36.13-.73.16-1.1.23-.07.46-.15.7-.2.44-.09.33-.67-.02-.79-.21-.07-.42-.13-.64-.19,0-.48-.04-.94-.09-1.37-.06-.46-.65-.53-.8-.09-.13.37-.27.76-.41,1.13-.67-.14-1.36-.25-2.04-.35-.42-.06-.66.47-.28.71.53.33,1.02.74,1.48,1.17-.81.51-1.51,1.18-2.07,2.01-.26.39.25.7.58.55.96-.43,1.63-1.12,2.15-1.92.13.14.24.28.36.42-.18.69-.45,1.37-.51,2.09-.02.24.34.38.48.19Z"/>
      <path class="cls-25" d="M296.96,73.58c.43.43.98.77,1.55.95.45.14.6-.54.17-.7-.29-.1-.55-.24-.79-.41.21-.03.2-.4,0-.43-.16-.02-.32-.03-.48-.04-.06-.08-.13-.15-.19-.24-.33-.52-.35-1.18-.44-1.77-.03-.2-.37-.23-.44-.05-.3.72-.2,1.4.12,1.99-9.67-.32-21.3,7.14-22.81,16.83-.07.46.63.65.71.18,1.91-10.99,13.01-14.68,22.59-16.32Z"/>
      <path class="cls-25" d="M232.79,73.38c-.71-.49-1.56-.8-2.33-.91-.41-.06-.57.55-.16.63.68.13,1.26.4,1.83.78.61.41,1.02,1.02,1.57,1.49.2.17.53,0,.45-.28-.13-.43-.38-.8-.69-1.13,10.19-.03,17.97,6,20.44,16.16.11.45.76.23.68-.21-1.66-9.63-11.61-18.83-21.8-16.54Z"/>
      <path class="cls-25" d="M229.71,66.67c.04-.14-.08-.25-.21-.26-.7-.07-1.29.83-1.53,1.4-.3.7-.24,1.46.06,2.15.16.38.78.22.63-.19-.21-.59-.22-1.17.05-1.75.25-.52.84-.8,1-1.35Z"/>
      <path class="cls-25" d="M230.14,70.31c.02-.62.22-1.17.65-1.63.38-.4.9-.41,1.35-.66.17-.09.17-.39-.01-.47-.66-.29-1.41.15-1.88.61-.57.55-.75,1.39-.72,2.16.02.4.6.38.61-.01Z"/>
      <path class="cls-25" d="M230.77,71.58c.46-.33.95-.57,1.52-.63.56-.06.98.26,1.51.27.2,0,.27-.21.2-.37-.26-.56-.98-.66-1.54-.67-.75-.02-1.48.39-2.05.84-.33.26,0,.83.35.57Z"/>
      <path class="cls-25" d="M230.36,74.95c-.38-.23-.69.36-.33.6,1.83,1.23,1.77,3.23.91,5.05-.07.15.1.26.22.16,1.98-1.71,1.25-4.54-.8-5.81Z"/>
      <path class="cls-25" d="M228.73,77.76c-.05.74-.38,1.36-1.01,1.75-.61.38-1.3.11-1.92.34-.15.06-.2.24-.09.36.62.65,1.88.3,2.54-.11.8-.5,1.1-1.45,1.06-2.35-.02-.37-.55-.35-.58.01Z"/>
      <path class="cls-25" d="M225.06,77.54c-.44,0-.87-.01-1.31-.07-.38-.05-.72-.25-1.1-.31-.2-.03-.43.18-.28.38.59.78,1.84.65,2.71.61.39-.02.38-.61-.01-.61Z"/>
      <path class="cls-25" d="M223.01,74.59c-.56,0-1.08-.11-1.48-.52-.39-.4-.27-1.07-.66-1.44-.07-.06-.18-.07-.25,0-.46.5-.05,1.46.33,1.9.52.6,1.32.75,2.08.73.43-.01.41-.66-.02-.67Z"/>
      <path class="cls-25" d="M223.95,72.66c-.32-.45-.59-.92-.78-1.45-.2-.58-.08-1.22-.31-1.77-.06-.13-.25-.23-.36-.09-.84,1.06.25,2.89.93,3.76.1.13.24.16.37.13-.27,1.65,1.53,2.79,2.88,3.16.42.11.57-.52.16-.65-1.11-.35-2.52-1.27-2.24-2.62.19-.9,1.05-1.5,1.92-1.47.63.02,1.29.42,1.63.93.42.63-.04,1.13-.56,1.46-.21-.41-.19-.92-.5-1.3-.12-.15-.33-.09-.35.11-.07.73-.04,1.43.46,1.99.12.14.33.12.47.05.94-.46,1.74-1.32,1.3-2.42-.39-.98-1.47-1.51-2.47-1.6-1.15-.11-2.14.75-2.55,1.78Z"/>
      <path class="cls-25" d="M225.25,67.96c0-.13-.14-.19-.25-.14-1.06.53-.81,2.19-.39,3.04.2.4.76.03.58-.36-.23-.5-.27-.99-.16-1.52.07-.35.23-.66.22-1.03Z"/>
      <path class="cls-25" d="M301.34,68.34c-.12.38.47.61.65.26.29-.58.63-1.08,1.17-1.46.49-.34,1.17-.44,1.75-.56.18-.04.21-.32.04-.39-1.53-.69-3.17.71-3.61,2.15Z"/>
      <path class="cls-25" d="M308.35,68.74c.17,0,.28-.2.19-.34-.84-1.23-3.09-.87-4.25-.39-.44.18-.24.88.21.71.61-.24,1.21-.35,1.87-.35.7,0,1.31.38,1.98.37Z"/>
      <path class="cls-25" d="M307.82,70.21c-.39-.22-.7.37-.33.6.64.4,1.13.92,1.51,1.57.32.55.43,1.17.83,1.67.09.11.26.03.3-.09.43-1.47-1.16-3.09-2.31-3.75Z"/>
      <path class="cls-25" d="M307.41,72.91c.35.5.58,1.02.73,1.62.12.48.02.99.2,1.45.05.12.2.18.3.07.88-.91-.04-2.71-.65-3.5-.27-.34-.84,0-.58.36Z"/>
      <path class="cls-25" d="M306.24,75.57c.2.7.16,1.3-.16,1.95-.29.6-.82,1.01-1.16,1.57-.11.17.09.45.29.36,1.53-.66,2.14-2.56,1.62-4.07-.13-.38-.71-.21-.6.18Z"/>
      <path class="cls-25" d="M303.89,77.54c-.46.55-.97,1-1.61,1.35-.6.33-1.27.26-1.89.47-.18.06-.2.29-.04.39,1.44.89,3.21-.73,3.99-1.79.23-.31-.19-.74-.45-.43Z"/>
      <path class="cls-25" d="M300.81,77.97c-.64.21-1.26.33-1.94.32-.72-.01-1.2-.5-1.86-.6-.17-.03-.33.11-.28.29.19.66.97.91,1.58,1.04.9.19,1.86-.05,2.71-.35.44-.16.24-.84-.21-.7Z"/>
      <path class="cls-25" d="M297.18,74.24c-.07-.02-.17,0-.22.06-.35.48.18,1.09.54,1.4.5.43,1.16.65,1.79.79.47.11.65-.61.18-.72-.51-.13-1.02-.3-1.44-.63-.33-.26-.46-.78-.86-.9Z"/>
      <path class="cls-25" d="M298.87,69.29c-.5.28-.43.95-.41,1.43.01.4.62.38.61-.01,0-.41.02-.79.13-1.18.05-.19-.17-.34-.33-.24Z"/>
      <path class="cls-25" d="M302.97,72.8c.2-.22-.01-.54-.29-.47-.74.18-1.57.88-1.56,1.71,0,.67.67,1.07,1.23,1.26,1.36.46,3.37-.05,3.56-1.68.28-2.38-2.23-3.92-4.29-2.91-.96.47-1.72,1.31-1.98,2.36-.29,1.23.42,2.33,1.36,3.04.14.1.28.19.42.29.39.25.72-.37.34-.62-.8-.54-1.54-1.36-1.4-2.39.1-.78.67-1.42,1.3-1.83,1.56-1.01,3.49-.03,3.46,1.87-.01,1.15-1.5,1.33-2.35,1.15-.3-.07-.75-.21-.85-.55-.12-.42.81-.98,1.03-1.22Z"/>
      <path class="cls-25" d="M256.89,23.18c-.02.08-.05.15-.07.23-.09.35.37.58.6.36,1.01,1.13,2.12,2.23,3.29,3.23.02.14.02.29.05.43.05.24.36.17.43,0,0,0,0,0,0,0,.13.1.26.2.39.3,0,.29-.01.59,0,.88,0,.15.24.24.31.08.07-.18.13-.37.19-.56.31.23.62.45.94.65-.03.04-.06.08-.09.12-.23.33.28.66.55.4.05-.05.1-.1.15-.15.26.07.51-.2.44-.45,2.62-2.69,4.71-6.31,6.31-9.61.87-1.81,2.57-5.86.82-7.68-3-3.1-7.79,3.12-8.27,6.01-.11-.21-.25-.42-.39-.63.04-.21-.11-.35-.28-.37-2.36-3.02-7.51-5.4-8.97-.9-.79,2.41,1.47,5.05,2.84,6.75.25.31.51.62.78.94ZM261.62,26.52s-.1-.08-.15-.13c.23-1.04.32-2.15.54-3.18.05-.25.13-.49.19-.74-.28,1.35-.49,2.71-.58,4.05ZM263.53,17.76c.37-1.96,1.43-3.48,2.89-4.8.51-.46,1.09-.83,1.72-1.11-.61.76-1.1,1.6-1.77,2.32-.06.07-.08.14-.08.21-.81,2.95-1.67,5.89-2.5,8.84.33-2.1.45-4.27.65-6.3.03-.28-.45-.33-.49-.05-.07.48-.14.96-.22,1.43-.08-.15-.31-.19-.44-.07-.01-.01-.02-.03-.03-.04-.02-.06-.04-.12-.06-.18.15,0,.31-.07.34-.24ZM263.1,27.16c.29-.44.55-.9.79-1.37.08,0,.16-.02.21-.11,1.53-2.82,1.99-6.24,3.11-9.25.15-.4-.49-.55-.64-.16-.05.14-.11.29-.16.43.15-.73.3-1.45.47-2.15.75-.81,1.59-1.79,1.78-2.9,0,0,0-.02,0-.03.1-.03.19-.08.29-.11,2.2-.66,2.16,2.02,1.97,3.39-.41,3.05-2,5.81-3.85,8.4.33-.85.63-1.72.89-2.6.07,0,.15-.02.19-.09.89-1.38,1.49-2.97,2.18-4.46.15-.33-.34-.6-.5-.27-.4.83-.83,1.65-1.23,2.49.52-2,.95-4.02,1.43-5.98.09-.37-.47-.51-.57-.14-1.32,4.86-2.57,9.6-4.71,14.14-.44.58-.87,1.14-1.29,1.71-.27-.23-.54-.46-.81-.69.03-.08.06-.17.09-.26.07.11.26.13.34,0ZM262.27,17.76c.12.21.23.43.32.65-.73,2.12-1.82,4.81-1.94,7.25-.21-.19-.42-.37-.62-.56.5-.8.71-2.01.96-2.78.49-1.5.9-3.03,1.28-4.56ZM260.91,15.99c-.64,1.93-1.36,3.82-1.98,5.76-.12.38-.44,1.13-.2,1.53.22.36.57.03.63-.25,0-.04,0-.07,0-.1,0,0,.01-.02.02-.03.09-.17.13-.38.18-.57.2-.72.42-1.42.64-2.13.39-1.25.77-2.5,1.13-3.75.15.18.3.36.44.55-.43,1.57-.91,3.13-1.4,4.68-.25.79-.81,1.82-1.07,2.76-.52-.5-1.02-1.01-1.51-1.53.36-.92.66-1.87.93-2.83,0,0,0-.01,0-.02,0,0,0,0,0,0,.25-.9.49-1.81.78-2.7.11-.34-.41-.46-.53-.13-.5,1.42-.92,2.87-1.42,4.29-.13.25-.24.51-.35.78h0c1-2.37.88-5.44,1.02-7.94,0-.07-.03-.11-.06-.15,1,.37,1.95,1.02,2.74,1.81ZM255.47,14.33c-.36,1.51-.71,3.4-.47,5.04,0,0,0-.01-.01-.02-1.42-2.23-1.41-6.06,2.2-5.45.24.04.49.11.73.19-.12.03-.23.1-.24.26-.12,1.44-.26,2.87-.43,4.31-.13,1.03-.37,2.05-.48,3.07-.42-.5-.82-1.02-1.2-1.55.17-.7.14-1.41.14-2.13.01-1.2.07-2.4.28-3.59.06-.33-.43-.46-.51-.13Z"/>
      <path class="cls-25" d="M256.79,20.4c.35-.78.34-1.69.42-2.54.09-1,.1-2.01.07-3.01-.01-.4-.62-.39-.62.01,0,.88-.06,1.75-.14,2.63-.09.94-.33,1.94-.12,2.87.04.18.32.21.4.04Z"/>
      <path class="cls-25" d="M227.84,45.22c1.72-.26,4.44-.62,5.89-1.79.22-.04.4-.22.31-.49-.95-2.81-2.22-5.55-3.59-8.18-.95-1.84-2.13-4.22-4.39-4.64-3.11-.59-.45,6.61.38,8.15-.22.06-.46.13-.71.21-.13-.03-.27.03-.35.13-.63.23-1.29.51-1.91.84-.02-.03-.05-.05-.07-.08-.25-.27-.6.09-.44.37-1.85,1.15-3.02,2.8-.92,4.72,1.54,1.41,3.92,1.04,5.8.75ZM225.69,34.16c-.22-.8-.35-1.61-.34-2.44.9,1.52,1.86,3.21,2.95,4.77-.68-.79-1.37-1.58-2.05-2.37-.22-.25-.55.04-.48.31-.03-.09-.05-.18-.08-.27ZM225.78,34.45s.03.07.06.11c1.18,1.4,2.36,2.81,3.5,4.23.4.49.77,1.01,1.15,1.53-.21-.24-.43-.48-.63-.72-.77-.93-1.52-1.88-2.33-2.78-.25-.27-.62.14-.39.41.21.25.42.51.63.78-.25-.14-.62.13-.42.41,1.15,1.56,2.42,3.75,4.21,4.64.19.09.46-.13.31-.32-.13-.17-.28-.32-.42-.47.12.09.24.19.37.27.16.1.33-.08.28-.23.14.15.27.31.42.45.19.18.43-.06.34-.27-.49-1.09-1.26-2.07-2.05-3.01.22.2.43.41.66.6.2.16.48-.05.35-.28-.8-1.41-1.98-2.66-2.96-3.97-1.1-1.48-2.13-3.01-3.12-4.56-.06-.09-.14-.12-.22-.12.5-.74,2.15.66,2.52,1.12,2.35,2.96,3.91,7.02,5.13,10.6-.93.27-1.85.56-2.77.83,0-.03.01-.06,0-.09-.29-.88-.99-1.61-1.52-2.35-.61-.85-1.16-1.75-1.62-2.68,0-.04-.01-.08-.03-.12.05-.1.06-.22-.01-.35-.65-1.13-1.07-2.37-1.42-3.62ZM226.76,38.96c.45.91.96,1.78,1.53,2.62.51.76,1.03,1.64,1.79,2.19-.26.08-.52.16-.78.23-.32-.76-.89-1.45-1.33-2.14-.56-.9-1.13-1.79-1.7-2.68.16-.07.33-.14.49-.21ZM225.65,39.42c.58.93,1.13,1.88,1.7,2.81.22.37.44.76.69,1.14-.38-.47-.85-.91-1.2-1.39-.54-.74-1-1.52-1.41-2.34-.02-.04-.05-.07-.09-.1.1-.04.2-.08.3-.12ZM224.88,39.73s-.01.1.01.15c.38.86.81,1.69,1.33,2.48.03.05.07.1.1.15-.2-.18-.39-.37-.56-.55-.57-.62-1.14-1.24-1.7-1.87.27-.13.55-.25.83-.37ZM223.41,40.44s.05-.03.08-.04c.58.7,1.16,1.41,1.76,2.11.55.64,1.22,1.53,2.02,1.95-.17.03-.33.07-.5.09.03-.07.03-.15,0-.23-.34-.62-1.11-1.07-1.64-1.54-.72-.64-1.43-1.28-2.14-1.93-.03-.03-.07-.05-.1-.06.2-.14.39-.25.54-.34ZM222.41,41.12c0,.07.03.15.1.21.68.67,1.37,1.35,2.07,2,.46.43,1,1.01,1.61,1.27-.4.03-.81.04-1.22.03.04-.05.06-.13.05-.2-.14-.6-.82-1.09-1.23-1.52-.51-.55-1.05-1.08-1.59-1.6.07-.06.15-.13.22-.19ZM221.76,41.86c.45.47.89.95,1.33,1.43.37.4.81,1.04,1.34,1.31-.09,0-.17,0-.26-.02-1.05-.12-2.09-.91-2.48-1.91-.12-.29-.06-.56.07-.82Z"/>
      <path class="cls-25" d="M227.5,32.96c1.03,1.69,2.1,3.63,3.44,5.09.12.13.35-.01.29-.17-.7-1.87-2.22-3.51-3.26-5.2-.18-.3-.65-.02-.47.29Z"/>
      <path class="cls-25" d="M287.57,47.01c0,.27.4.39.52.13.04-.09.07-.19.12-.29.07.18.25.33.5.29,3.99-.74,8.19-1.24,11.9-2.98,1.54-.72,4.55-1.92,4.42-4.08-.2-3.25-6.21-2.26-8.52-1.1.76-1.76,1.82-4.07.76-5.74-1.09-1.72-2.49-2.27-4.34-1.27-1.9,1.03-2.85,3.39-3.48,5.41-.02.02-.04.04-.05.06-.04.06-.04.12-.02.18-.04.14-.09.28-.12.41-.79,2.69-1.74,6.15-1.67,8.97ZM302.49,38.97c.29.1.55.24.77.39-.73.6-1.48,1.17-2.22,1.77-.77.63-1.76,1.33-2.17,2.25-.11.25.15.59.42.4.76-.53,1.38-1.29,2.1-1.89.79-.66,1.61-1.29,2.39-1.96.23.45.15.99-.39,1.59.03-.29-.26-.6-.55-.38-1.05.81-2.24,1.46-3.1,2.49-.03.03-.04.07-.04.11-1.16.48-2.37.85-3.61,1.16.57-.4,1.11-.85,1.65-1.26,1.21-.92,2.37-1.91,3.54-2.89.2-.17.06-.47-.15-.55.42-.33.84-.66,1.25-.96.1-.07.13-.18.11-.27ZM289.6,40.49c.8-.53,1.53-1.21,2.24-1.83,1.17-1.02,2.29-2.1,3.37-3.23.26-.28-.16-.68-.43-.41-.99,1-2.03,1.93-3.09,2.84-.61.52-1.28,1.03-1.9,1.57.12-.65.25-1.29.43-1.89,0,0,0,0,0-.01.11-.07.22-.15.33-.23-.14.2-.27.41-.37.63-.08.19.11.43.31.3.84-.55,1.49-1.4,2.21-2.08.84-.8,1.7-1.59,2.5-2.44.08-.08.1-.18.08-.26.11-.07.21-.15.32-.22.31-.2.02-.67-.3-.49-1.11.64-2.14,1.38-3.12,2.19-.45.37-.96.75-1.43,1.14.74-1.79,1.98-3.61,3.91-3.89,3.26-.46,2.1,3.8,1.7,5.03-.16.5-.36,1-.54,1.5-.01,0-.02,0-.03,0-1.18.19-2.41.66-3.6,1.25.06-.05.11-.1.17-.14,1.37-1.15,2.69-2.34,3.93-3.63.32-.33-.19-.82-.51-.49-1.13,1.14-2.33,2.21-3.56,3.24-.85.71-1.83,1.39-2.67,2.17.03-.21.06-.42.09-.62ZM293.56,40.52c.12-.06.17-.16.17-.26.64-.27,1.26-.58,1.83-.95-.03.08-.06.17-.09.25-.06.19.03.32.17.38-2.06.82-4.04,2.12-5.83,3.26-.36.23-.02.79.35.57,2.43-1.49,5.09-2.5,7.54-3.93.28-.16.07-.56-.22-.5-.11.02-.21.06-.32.09,1.08-.53,2.24-.75,3.49-.76.48,0,.95.05,1.37.15-.32.2-.63.42-.94.63-.02-.03-.06-.04-.1-.03-.64.24-1.26.51-1.87.79-.03-.02-.06-.02-.09-.02-3.21.73-6.32,2.67-9.36,3.94-.41.17-.22.84.2.67.92-.38,1.91-.74,2.91-1.13-.19.11-.39.22-.58.33-.7.38-1.4.75-2.09,1.14-.4.22-.03.8.37.6,2.66-1.33,5.27-2.8,7.82-4.37-.01,0-.03.02-.04.03-1.44,1.03-3.03,1.91-4.4,3.02-.19.15-.08.51.19.42.55-.18,1.09-.43,1.62-.71-.53.36-1.05.75-1.52,1.18-1.93.38-3.86.67-5.67,1.01-.02,0-.04.02-.06.02.41-1.09.64-2.28.84-3.5,1.47-.73,2.88-1.56,4.32-2.35Z"/>
      <path class="cls-25" d="M289.91,55.98c-.8.26-.65-.87-.99-1.26-.08-.1-.24-.07-.32,0-.43.43-.23,1.32.17,1.73.37.38.87.45,1.37.32.94-.23,1.73-1.36.95-2.18-1.11-1.17-3.17-1.25-4.32-.15-.54.51-.66,1.25-.54,1.95.05.29.22.76.47,1.12-4.95,3.39-9.79,9.69-11.43,15.37-.1.35.46.58.61.24,2.58-6.23,6.85-10.36,11.27-15.18.19.09.39.11.6-.02.12-.07.2-.21.19-.35-.02-.36-.4-.57-.58-.85-.05-.07-.11-.11-.17-.13-.26-.62-.26-1.29.42-1.77.87-.62,2.07-.3,2.84.31.42.33-.24.74-.55.84Z"/>
      <path class="cls-25" d="M252,80.36c.24.37.81.02.59-.36-2.07-3.48-5.51-6.65-9.27-8.19-.24-.1-.41.2-.2.35,3.38,2.44,6.55,4.65,8.89,8.19Z"/>
      <path class="cls-25" d="M242.56,83.34c-.3-.04-.52.38-.21.53,2.88,1.31,6.41,1.03,8.44,3.87.17.24.55.01.39-.24-1.82-2.88-5.43-3.69-8.62-4.16Z"/>
      <path class="cls-25" d="M285.28,82.87c-1.65-.21-3.68.99-5.02,1.85-1.53.98-2.76,2.39-3.16,4.19-.1.44.56.61.68.17.49-1.75,1.76-2.95,3.25-3.89,1.35-.86,2.99-1.03,4.32-1.82.18-.11.16-.46-.08-.49Z"/>
      <path class="cls-25" d="M236.87,81.68c-.59,1.87,1.5,3.56,3.18,3.53.39,0,.37-.59-.01-.61-1.24-.06-2.63-1.27-2.45-2.6.15-1.15,2.16-1.7,3.01-1,.54.45.6,1.38.34,1.99-.36.86-.98-.39-1.28-.72-.13-.15-.42-.02-.4.18.13,1.09,1.35,2.36,2.23,1.13.66-.92.39-2.49-.45-3.19-1.27-1.06-3.7-.22-4.17,1.29Z"/>
      <path class="cls-25" d="M241.55,55.76c.9.83,1.8,1.67,2.66,2.54.23.23.52-.11.33-.35-.79-.95-1.6-1.87-2.48-2.73-.77-.75-1.63-1.69-2.62-2.13-.2-.09-.46.12-.32.33.62.9,1.62,1.59,2.43,2.33Z"/>
      <path class="cls-25" d="M271.87,51c-.1.29.37.47.5.2,1.72-3.93,4.57-6.88,7.18-10.2.26-.33-.15-.73-.47-.45-3.13,2.75-5.8,6.53-7.2,10.45Z"/>
      <path class="cls-25" d="M282.3,39.29c-.73.64-.99,1.87-.1,2.49.76.53,1.85-.02,2.37-.62,1.05-1.22.98-3.42-.65-4.06-1.28-.5-2.95-.06-3.89.92-1.36,1.42-.2,3.2,1.04,4.19.34.27.82-.2.48-.5-.83-.73-1.85-1.87-1.1-2.99.54-.8,1.72-1.1,2.62-1.04,1.08.07,1.58.9,1.42,1.92-.12.81-.59,1.61-1.49,1.66-1.03.05-.42-1.23-.27-1.72.07-.26-.25-.39-.43-.23Z"/>
      <path class="cls-25" d="M258.7,40.01c.34-3.26-.48-6.76-2.4-9.46-.15-.22-.54-.08-.44.2,1.1,3.15,2.33,5.85,2.5,9.26.01.22.32.2.34,0Z"/>
      <path class="cls-25" d="M269.88,31.6c.01.41.62.39.63-.01.08-2.94,1.2-5.36,1.92-8.14.06-.25-.26-.34-.39-.15-1.6,2.32-2.24,5.54-2.17,8.31Z"/>
      <path class="cls-25" d="M235.98,47.42c-1,.02-.96,1.57.04,1.54s.96-1.57-.04-1.54Z"/>
      <path class="cls-25" d="M231.76,46.83c-.92.02-.89,1.46.03,1.44s.89-1.46-.03-1.44Z"/>
      <path class="cls-25" d="M232.17,85.87c-.9.02-.87,1.42.03,1.4s.87-1.43-.03-1.4Z"/>
      <path class="cls-25" d="M226.5,86.64c-.72.02-.69,1.13.03,1.11s.69-1.13-.03-1.11Z"/>
      <path class="cls-25" d="M232.09,82.54c.22,0,.21-.34,0-.33s-.21.34,0,.33Z"/>
      <path class="cls-25" d="M228.36,49.32c.59-.01.57-.93-.02-.92s-.57.93.02.92Z"/>
      <path class="cls-25" d="M267.13,45.23c.91.49,1.65-.28,1.11-1.17-.71-1.18-2.33.51-1.11,1.17Z"/>
      <path class="cls-25" d="M269.21,42.31c-.55.01-.53.86.02.85s.53-.86-.02-.85Z"/>
      <path class="cls-25" d="M286.09,35.07c.81-.02.78-1.28-.03-1.26s-.78,1.28.03,1.26Z"/>
      <path class="cls-25" d="M294.16,53.19c-1.07.08-1.03,1.63.04,1.66.28,0,.49-.02.75-.16.51-.28.49-1.11-.03-1.37-.26-.13-.47-.15-.75-.13Z"/>
      <path class="cls-25" d="M292.16,52.24c.83-.02.8-1.3-.03-1.28s-.8,1.3.03,1.28Z"/>
      <path class="cls-25" d="M293.51,67.61c.3,0,.29-.48-.01-.47s-.29.48.01.47Z"/>
      <path class="cls-25" d="M286.85,80.05s.02-.03.03-.05c.13-.19.13-.55-.02-.73-.01-.02-.02-.03-.04-.05-.47-.63-1.55-.42-1.53.45s1.11,1.03,1.55.38Z"/>
      <path class="cls-25" d="M286.95,83.16c-.86.02-.83,1.35.03,1.33s.83-1.35-.03-1.33Z"/>
      <path class="cls-25" d="M289.12,80.9c-.85.02-.82,1.33.03,1.31s.82-1.33-.03-1.31Z"/>
      <path class="cls-25" d="M293.61,83.08c-.77.02-.74,1.2.03,1.19s.74-1.2-.03-1.19Z"/>
      <path class="cls-25" d="M250.79,25.48c1.09-.03,1.05-1.71-.04-1.69s-1.05,1.71.04,1.69Z"/>
      <path class="cls-25" d="M247.51,22.29c.7-.02.68-1.1-.02-1.09s-.68,1.1.02,1.09Z"/>
      <path class="cls-25" d="M274.18,22.01c.81-.02.78-1.28-.03-1.26s-.78,1.28.03,1.26Z"/>
      <path class="cls-25" d="M296.54,48.93c-1.07.02-1.04,1.69.04,1.67s1.04-1.69-.04-1.67Z"/>
      <path class="cls-25" d="M294.84,50.38c-.86.02-.83,1.35.03,1.33.86-.02.83-1.35-.03-1.33Z"/>
      <path class="cls-25" d="M297.9,54.52c.75-.02.73-1.18-.03-1.16s-.72,1.18.03,1.16Z"/>
      <path class="cls-25" d="M300.5,49.47c.69-.02.67-1.09-.02-1.07s-.67,1.09.02,1.07Z"/>
      <path class="cls-25" d="M294.99,67.87c1-.02.96-1.57-.04-1.55s-.97,1.57.04,1.55Z"/>
      <path class="cls-25" d="M291.82,69.39c-.96.02-.93,1.51.03,1.49s.93-1.51-.03-1.49Z"/>
      <path class="cls-25" d="M291.98,65.62c-.72.02-.7,1.14.03,1.12s.7-1.14-.03-1.12Z"/>
      <path class="cls-25" d="M235.69,67.36c-.77.02-.74,1.21.03,1.2s.74-1.21-.03-1.2Z"/>
      <path class="cls-25" d="M224.55,66.32c-.53.01-.51.84.02.83s.51-.84-.02-.83Z"/>
      <path class="cls-25" d="M222,84.04c-.7.02-.68,1.1.02,1.09s.68-1.1-.02-1.09Z"/>
      <path class="cls-25" d="M223.92,81.65c-.85.02-.82,1.34.03,1.32s.82-1.34-.03-1.32Z"/>
      <path class="cls-25" d="M250.34,48.99c-.78.02-.75,1.22.03,1.2s.75-1.22-.03-1.2Z"/>
      <path class="cls-25" d="M257.89,75.08c-.5.15-.73.75-.45,1.19.31.51,1.1.5,1.39-.03.33-.61-.23-1.37-.94-1.16Z"/>
      <path class="cls-25" d="M258.78,72.02c-.78.02-.75,1.22.03,1.2s.75-1.22-.03-1.2Z"/>
      <path class="cls-25" d="M255.87,74.63c-.36,0-.35.57.01.56s.35-.57-.01-.56Z"/>
      <path class="cls-25" d="M267.41,82.33c-.93.02-.89,1.46.03,1.44s.89-1.46-.03-1.44Z"/>
      <path class="cls-25" d="M267.73,85.4c-.78.02-.75,1.22.03,1.2s.75-1.22-.03-1.2Z"/>
      <path class="cls-25" d="M276.38,63.99c-.73.02-.7,1.14.03,1.13.73-.02.7-1.14-.03-1.13Z"/>
      <path class="cls-25" d="M264.96,61.66c.7-.02.67-1.1-.02-1.08-.7.02-.67,1.1.02,1.08Z"/>
      <path class="cls-25" d="M271.53,70.35v.21c.03,1.03,1.62.99,1.59-.04v-.21c-.03-1.02-1.62-.99-1.59.04Z"/>
      <path class="cls-25" d="M260.06,52.54c-1.01.02-.98,1.59.04,1.57s.97-1.59-.04-1.57Z"/>
      <path class="cls-25" d="M258.08,52.64c.65-.01.63-1.03-.02-1.01s-.63,1.03.02,1.01Z"/>
      <path class="cls-25" d="M251.42,52.77c.62-.01.6-.98-.02-.96s-.6.98.02.96Z"/>
      <path class="cls-25" d="M250.3,14.7c.55-.01.53-.87-.02-.86s-.53.87.02.86Z"/>
      <path class="cls-25" d="M247.13,16.67c.77-.02.74-1.21-.03-1.2s-.74,1.21.03,1.2Z"/>
      <path class="cls-25" d="M220.49,50.81c.69-.02.67-1.09-.02-1.07s-.67,1.09.02,1.07Z"/>
      <path class="cls-25" d="M218.18,47.09c.6-.01.58-.94-.02-.93s-.58.94.02.93Z"/>
      <path class="cls-25" d="M292.85,28.43c1.04-.02,1-1.64-.04-1.61-1.04.02-1,1.64.04,1.61Z"/>
      <path class="cls-25" d="M290.31,25.06c.76-.02.73-1.2-.03-1.18-.76.02-.73,1.2.03,1.18Z"/>
      <path class="cls-25" d="M289.93,19.58c.69-.02.67-1.09-.02-1.07s-.67,1.09.02,1.07Z"/>
      <path class="cls-25" d="M215.72,68.75c-.85.02-.82,1.33.03,1.31s.82-1.33-.03-1.31Z"/>
      <path class="cls-25" d="M311.44,63.36c-.83.02-.8,1.31.03,1.29s.8-1.31-.03-1.29Z"/>
      <path class="cls-25" d="M312.76,67.12c-.71.02-.69,1.12.03,1.1s.69-1.12-.03-1.1Z"/>
      <path class="cls-25" d="M316.22,66.97c-.81.02-.78,1.28.03,1.26s.78-1.28-.03-1.26Z"/>
    </g>
    <g>
      <g>
        <path class="cls-6" d="M231.17,151.33c0,.57-.42,1.13-1.08,1.13H-96.36c-.66,0-1.28-.56-1.28-1.13v-.15c0-.57.62-1.24,1.28-1.24H230.09c.66,0,1.08.67,1.08,1.24v.15Z"/>
        <path class="cls-26" d="M229.49,152.42c0,.96-.68,1.73-1.54,1.73h-7.12c-.86,0-1.44-.78-1.44-1.73v-.09c0-.96.58-1.54,1.44-1.54h7.12c.86,0,1.54.58,1.54,1.54v.09Z"/>
        <path class="cls-28" d="M212.65,152.42c0,.96-.75,1.73-1.61,1.73h-7.12c-.86,0-1.37-.78-1.37-1.73v-.09c0-.96.51-1.54,1.37-1.54h7.12c.86,0,1.61.58,1.61,1.54v.09Z"/>
        <path class="cls-38" d="M195.39,152.42c0,.96-.84,1.73-1.7,1.73h-7.12c-.86,0-1.7-.78-1.7-1.73v-.09c0-.96.84-1.54,1.7-1.54h7.12c.86,0,1.7.58,1.7,1.54v.09Z"/>
        <path class="cls-14" d="M178.12,152.42c0,.96-.49,1.73-1.35,1.73h-7.12c-.86,0-1.63-.78-1.63-1.73v-.09c0-.96.77-1.54,1.63-1.54h7.12c.86,0,1.35.58,1.35,1.54v.09Z"/>
        <path class="cls-10" d="M160.86,152.42c0,.96-.58,1.73-1.44,1.73h-7.12c-.86,0-1.54-.78-1.54-1.73v-.09c0-.96.68-1.54,1.54-1.54h7.12c.86,0,1.44.58,1.44,1.54v.09Z"/>
        <path class="cls-27" d="M144.02,152.42c0,.96-.65,1.73-1.51,1.73h-7.12c-.86,0-1.47-.78-1.47-1.73v-.09c0-.96.61-1.54,1.47-1.54h7.12c.86,0,1.51.58,1.51,1.54v.09Z"/>
        <path class="cls-30" d="M126.34,152.42c0,.96-.77,1.73-1.63,1.73h-7.12c-.86,0-1.35-.78-1.35-1.73v-.09c0-.96.49-1.54,1.35-1.54h7.12c.86,0,1.63.58,1.63,1.54v.09Z"/>
        <path class="cls-29" d="M109.92,152.42c0,.96-.81,1.73-1.67,1.73h-7.12c-.86,0-1.73-.78-1.73-1.73v-.09c0-.96.87-1.54,1.73-1.54h7.12c.86,0,1.67.58,1.67,1.54v.09Z"/>
        <path class="cls-36" d="M92.66,152.42c0,.96-.91,1.73-1.77,1.73h-7.12c-.86,0-1.64-.78-1.64-1.73v-.09c0-.96.78-1.54,1.64-1.54h7.12c.86,0,1.77.58,1.77,1.54v.09Z"/>
        <path class="cls-13" d="M74.98,152.42c0,.96-.58,1.73-1.44,1.73h-7.12c-.86,0-1.54-.78-1.54-1.73v-.09c0-.96.69-1.54,1.54-1.54h7.12c.86,0,1.44.58,1.44,1.54v.09Z"/>
        <path class="cls-2" d="M58.14,152.42c0,.96-.65,1.73-1.51,1.73h-7.12c-.86,0-1.48-.78-1.48-1.73v-.09c0-.96.62-1.54,1.48-1.54h7.12c.86,0,1.51.58,1.51,1.54v.09Z"/>
        <path class="cls-18" d="M40.87,152.42c0,.96-.74,1.73-1.6,1.73h-7.12c-.86,0-1.38-.78-1.38-1.73v-.09c0-.96.52-1.54,1.38-1.54h7.12c.86,0,1.6.58,1.6,1.54v.09Z"/>
        <path class="cls-24" d="M24.03,152.42c0,.96-.81,1.73-1.67,1.73h-7.12c-.86,0-1.73-.78-1.73-1.73v-.09c0-.96.88-1.54,1.73-1.54h7.12c.86,0,1.67.58,1.67,1.54v.09Z"/>
        <path class="cls-11" d="M6.77,152.42c0,.96-.9,1.73-1.76,1.73H-2.11c-.86,0-1.64-.78-1.64-1.73v-.09c0-.96.78-1.54,1.64-1.54h7.12c.86,0,1.76.58,1.76,1.54v.09Z"/>
      </g>
      <g>
        <path class="cls-21" d="M560.73,151.33c0,.57-.42,1.13-1.08,1.13H233.19c-.66,0-1.28-.56-1.28-1.13v-.15c0-.57.62-1.24,1.28-1.24h326.45c.66,0,1.08.67,1.08,1.24v.15Z"/>
        <path class="cls-4" d="M387.69,152.42c0,.96-.65,1.73-1.51,1.73h-7.12c-.86,0-1.48-.78-1.48-1.73v-.09c0-.96.62-1.54,1.48-1.54h7.12c.86,0,1.51.58,1.51,1.54v.09Z"/>
        <path class="cls-32" d="M370.43,152.42c0,.96-.74,1.73-1.6,1.73h-7.12c-.86,0-1.38-.78-1.38-1.73v-.09c0-.96.52-1.54,1.38-1.54h7.12c.86,0,1.6.58,1.6,1.54v.09Z"/>
        <path class="cls-5" d="M353.59,152.42c0,.96-.81,1.73-1.67,1.73h-7.12c-.86,0-1.73-.78-1.73-1.73v-.09c0-.96.88-1.54,1.73-1.54h7.12c.86,0,1.67.58,1.67,1.54v.09Z"/>
        <path class="cls-23" d="M336.33,152.42c0,.96-.9,1.73-1.76,1.73h-7.12c-.86,0-1.64-.78-1.64-1.73v-.09c0-.96.78-1.54,1.64-1.54h7.12c.86,0,1.76.58,1.76,1.54v.09Z"/>
        <path class="cls-9" d="M318.64,152.42c0,.96-.57,1.73-1.43,1.73h-7.12c-.86,0-1.55-.78-1.55-1.73v-.09c0-.96.69-1.54,1.55-1.54h7.12c.86,0,1.43.58,1.43,1.54v.09Z"/>
        <path class="cls-22" d="M301.8,152.42c0,.96-.64,1.73-1.5,1.73h-7.12c-.86,0-1.48-.78-1.48-1.73v-.09c0-.96.62-1.54,1.48-1.54h7.12c.86,0,1.5.58,1.5,1.54v.09Z"/>
        <path class="cls-19" d="M284.54,152.42c0,.96-.73,1.73-1.59,1.73h-7.12c-.86,0-1.39-.78-1.39-1.73v-.09c0-.96.53-1.54,1.39-1.54h7.12c.86,0,1.59.58,1.59,1.54v.09Z"/>
        <path class="cls-31" d="M267.28,152.42c0,.96-.83,1.73-1.69,1.73h-7.12c-.86,0-1.72-.78-1.72-1.73v-.09c0-.96.86-1.54,1.72-1.54h7.12c.86,0,1.69.58,1.69,1.54v.09Z"/>
        <path class="cls-20" d="M250.44,152.42c0,.96-.9,1.73-1.76,1.73h-7.12c-.86,0-1.65-.78-1.65-1.73v-.09c0-.96.79-1.54,1.65-1.54h7.12c.86,0,1.76.58,1.76,1.54v.09Z"/>
      </g>
    </g>
    <path class="cls-16" d="M-120.75,308.17v94.04s294.83,0,294.83,0h8.74s286.09,0,286.09,0h8.74s286.09,0,286.09,0h8.74s286.09,0,286.09,0h8.74s286.09,0,286.09,0h8.74s286.09,0,286.09,0h8.74s286.09,0,286.09,0h8.74s294.83,0,294.83,0v-94.04c0-3.03-.14-6.02-.34-9l46.07-139.4-5.53-1.83-41.64,126.02v-119.28h13.41s0-11.65,0-11.65H-95.66s0,11.65,0,11.65h225.64s18.04,54.6,18.04,54.6c-24-26.02-58.34-42.35-96.44-42.35H10.48c-72.36,0-131.23,58.87-131.23,131.23ZM136.12,164.69h39.42v100.45c-4.15-11.9-9.96-23.03-17.16-33.1l-22.26-67.35ZM1967.99,231.35c-7.43,10.25-13.41,21.62-17.65,33.79v-100.45h39.68s-22.03,66.66-22.03,66.66ZM1996.15,164.69h197.36s17.9,54.17,17.9,54.17c-23.98-25.76-58.14-41.92-96.03-41.92h-41.11c-37.89,0-72.05,16.16-96.03,41.92l17.9-54.17ZM1927.35,232.04l-22.26-67.35h39.42v100.45c-4.15-11.9-9.96-23.03-17.16-33.1ZM1917,219.29c-24-26.01-58.34-42.34-96.43-42.34h-41.11c-38.09,0-72.44,16.33-96.43,42.34l18.04-54.6h197.89s18.04,54.6,18.04,54.6ZM1672.67,232.04c-7.2,10.07-13.02,21.2-17.16,33.1v-100.45h39.42s-22.26,67.35-22.26,67.35ZM1632.03,231.35l-22.03-66.66h39.68v100.45c-4.24-12.18-10.22-23.54-17.65-33.79ZM1621.76,218.86c-23.98-25.76-58.14-41.92-96.03-41.92h-41.11c-38.1,0-72.44,16.33-96.43,42.34l18.04-54.6h197.63s17.9,54.17,17.9,54.17ZM1377.84,232.04c-7.2,10.07-13.01,21.19-17.16,33.1v-100.45h39.42s-22.26,67.35-22.26,67.35ZM1337.2,231.35l-22.03-66.66h39.68v100.45c-4.24-12.18-10.22-23.54-17.65-33.79ZM1326.93,218.86c-23.98-25.76-58.14-41.92-96.03-41.92h-41.11c-37.89,0-72.05,16.16-96.03,41.92l17.9-54.18h197.36s17.9,54.17,17.9,54.17ZM1083.5,231.35c-7.43,10.25-13.41,21.62-17.65,33.79v-100.45h39.68s-22.03,66.66-22.03,66.66ZM1042.86,232.03l-22.25-67.34h39.42v100.45c-4.15-11.91-9.96-23.03-17.17-33.11ZM1032.51,219.29c-24-26.01-58.34-42.34-96.43-42.34h-41.11c-38.1,0-72.44,16.33-96.44,42.35l18.04-54.6h197.89s18.04,54.6,18.04,54.6ZM788.18,232.04c-7.2,10.07-13.01,21.19-17.16,33.1v-100.45h39.42s-22.26,67.35-22.26,67.35ZM747.54,231.34l-22.03-66.65h39.68v100.45c-4.24-12.18-10.22-23.54-17.66-33.8ZM737.28,218.86c-23.98-25.76-58.14-41.92-96.03-41.92h-41.11c-37.89,0-72.06,16.16-96.03,41.92l17.9-54.18h197.37s17.9,54.17,17.9,54.17ZM493.85,231.35c-7.43,10.25-13.41,21.62-17.65,33.79v-100.45h39.68s-22.03,66.66-22.03,66.66ZM453.2,232.03l-22.25-67.34h39.42v100.45c-4.15-11.91-9.96-23.03-17.16-33.11ZM442.85,219.29c-24-26.01-58.34-42.34-96.43-42.34h-41.11c-37.89,0-72.05,16.16-96.03,41.92l17.9-54.18h197.63s18.04,54.6,18.04,54.6ZM199.02,231.34c-7.43,10.26-13.42,21.62-17.66,33.8v-100.45h39.68s-22.03,66.65-22.03,66.65ZM2239.34,164.69v100.45c-4.24-12.18-10.22-23.54-17.65-33.79l-22.03-66.66h39.68ZM1951.79,308.17c0-3.63.19-7.21.5-10.75l17.59-53.23c21.57-35.07,60.29-58.5,104.4-58.5h41.11c44.1,0,82.83,23.44,104.4,58.5l17.59,53.23c.31,3.55.5,7.13.5,10.75v85.3h-286.09v-85.3ZM1656.96,308.17c0-3.98.21-7.91.58-11.79l16.94-51.26c21.45-35.58,60.48-59.44,104.97-59.44h41.11c44.5,0,83.52,23.86,104.97,59.44l16.94,51.25c.37,3.88.58,7.81.58,11.79v85.3h-286.09v-85.3ZM1362.14,308.17c0-3.98.21-7.91.58-11.79l16.94-51.25c21.45-35.59,60.48-59.44,104.97-59.44h41.11c44.1,0,82.83,23.44,104.4,58.51l17.59,53.22c.31,3.55.5,7.13.5,10.76v85.3h-286.09v-85.3ZM1067.31,308.17c0-3.63.19-7.21.5-10.76l17.59-53.21c21.57-35.07,60.3-58.51,104.4-58.51h41.11c44.1,0,82.83,23.44,104.4,58.5l17.59,53.23c.31,3.55.5,7.13.5,10.75v85.3h-286.09v-85.3ZM772.48,308.17c0-3.98.21-7.92.58-11.81l16.93-51.23c21.45-35.59,60.48-59.46,104.98-59.46h41.11c44.5,0,83.52,23.86,104.97,59.44l16.94,51.25c.37,3.88.58,7.81.58,11.79v85.3h-286.09v-85.3ZM477.65,308.17c0-3.63.19-7.21.5-10.76l17.58-53.21c21.57-35.07,60.3-58.51,104.4-58.51h41.11c44.1,0,82.83,23.44,104.4,58.5l17.59,53.23c.31,3.55.5,7.13.5,10.75v85.3h-286.09v-85.3ZM182.82,308.17c0-3.63.19-7.21.5-10.75l17.59-53.23c21.57-35.07,60.3-58.51,104.4-58.51h41.11c44.5,0,83.52,23.86,104.97,59.44l16.94,51.25c.37,3.88.58,7.81.58,11.79v85.3H182.82v-85.3ZM-112.01,308.17c0-67.54,54.95-122.49,122.49-122.49h41.11c44.5,0,83.53,23.86,104.98,59.46l16.93,51.23c.37,3.89.58,7.82.58,11.81v85.3H-112.01v-85.3Z"/>
  </g>
  <rect class="cls-8" x="390" y="62.86" width="390" height="216.55"/>
</svg>