<?xml version="1.0" encoding="UTF-8"?>
<svg id="OBJECTS" xmlns="http://www.w3.org/2000/svg" xmlns:xlink="http://www.w3.org/1999/xlink" viewBox="0 0 390 216.55">
  <defs>
    <style>
      .cls-1 {
        fill: #626129;
      }

      .cls-1, .cls-2, .cls-3, .cls-4, .cls-5, .cls-6, .cls-7, .cls-8, .cls-9, .cls-10 {
        stroke-width: 0px;
      }

      .cls-2 {
        fill: #7b3e19;
      }

      .cls-3 {
        fill: #000;
      }

      .cls-4 {
        fill: #879b5f;
      }

      .cls-5 {
        fill: none;
      }

      .cls-6 {
        fill: #774639;
      }

      .cls-7 {
        fill: #a45221;
      }

      .cls-11 {
        clip-path: url(#clippath);
      }

      .cls-8 {
        fill: #f0f1dd;
      }

      .cls-9 {
        fill: #c2a131;
      }

      .cls-10 {
        fill: #043f22;
      }
    </style>
    <clipPath id="clippath">
      <rect class="cls-5" width="390" height="216.55"/>
    </clipPath>
  </defs>
  <rect class="cls-3" x="-390" width="390" height="216.55"/>
  <g class="cls-11">
    <g>
      <g>
        <path class="cls-1" d="M203.84,72.91S381.2,6.04,684.09,46.69v72.12l-253.07-27.54-227.17-18.36Z"/>
        <path class="cls-9" d="M-110.93,56.67s51.04-36.46,113.02,0l-48.61,30.38-64.41-30.38Z"/>
        <g>
          <path class="cls-4" d="M-65.13,67.78S5.14,32.23,140.65,46.27s306.92,46.25,333.03,47.47l9.09,12.02v53.6S-56.6,130.81-61.28,128.38c-4.68-2.43-3.85-60.6-3.85-60.6Z"/>
          <g>
            <g>
              <rect class="cls-7" x="30.66" y="81.22" width="35.94" height="31.36"/>
              <rect class="cls-2" x="66.6" y="94.35" width="31.36" height="15.5"/>
            </g>
            <g>
              <path class="cls-10" d="M27.58,48.93s-13.96,56.84,0,56.84,0-56.84,0-56.84Z"/>
              <path class="cls-10" d="M14.79,56.67s-12.06,49.09,0,49.09,0-49.09,0-49.09Z"/>
              <path class="cls-10" d="M3.31,62.57s-10.61,43.19,0,43.19,0-43.19,0-43.19Z"/>
            </g>
          </g>
          <path class="cls-1" d="M-526.58,73.08s54.69-12.36,150.71-32.61c96.01-20.26,199.32-22.48,296.54,16.31C17.9,95.56,67.73,121.08,129.71,122.3h-670.87l14.58-49.22Z"/>
          <path class="cls-8" d="M300,139.74s244.27-67.34,383-37.92v143.14l-383-105.22Z"/>
          <g>
            <g>
              <rect class="cls-2" x="199.39" y="96.9" width="23.9" height="15.68"/>
              <rect class="cls-7" x="223.29" y="84.17" width="41.66" height="29.32"/>
            </g>
            <g>
              <path class="cls-10" d="M268.2,50.72s-16.72,68.09,0,68.09,0-68.09,0-68.09Z"/>
              <path class="cls-10" d="M283.39,65.63s-14,56.98,0,56.98,0-56.98,0-56.98Z"/>
              <path class="cls-10" d="M296.92,75.71s-12.47,50.77,0,50.77,0-50.77,0-50.77Z"/>
            </g>
          </g>
        </g>
        <path class="cls-10" d="M-838.65,174.29S-245.21,95.69,17.51,101.41c262.72,5.72,622,125.31,622,125.31l-171.05,15.87-1323.68-19.4,16.56-48.89Z"/>
        <path class="cls-4" d="M-844.48,89.83s250.22-45.68,484.98-40.85C-124.73,53.81,211.34,202.51,211.34,202.51H-849.4l4.92-112.68Z"/>
      </g>
      <path class="cls-8" d="M830.39,137.1s-233.91-64.36-372.64-34.94l-86.83,27.07,310.47,42.97,149.01-35.1Z"/>
    </g>
    <path class="cls-6" d="M-915.46,245.31v94.04s294.83,0,294.83,0h8.74s286.09,0,286.09,0h8.74s286.09,0,286.09,0h8.74s286.09,0,286.09,0h8.74s286.09,0,286.09,0h8.74s286.09,0,286.09,0h8.74s286.09,0,286.09,0h8.74s294.83,0,294.83,0v-94.04c0-3.03-.14-6.02-.34-9l46.07-139.4-5.53-1.83-41.64,126.02v-119.28h13.41s0-11.65,0-11.65H-890.37s0,11.65,0,11.65h225.64s18.04,54.6,18.04,54.6c-24-26.02-58.34-42.35-96.44-42.35h-41.11c-72.36,0-131.23,58.87-131.23,131.23ZM-658.59,101.83h39.42v100.45c-4.15-11.9-9.96-23.03-17.16-33.1l-22.26-67.35ZM1173.28,168.49c-7.43,10.25-13.41,21.62-17.65,33.79v-100.45h39.68s-22.03,66.66-22.03,66.66ZM1201.44,101.83h197.36s17.9,54.17,17.9,54.17c-23.98-25.76-58.14-41.92-96.03-41.92h-41.11c-37.89,0-72.05,16.16-96.03,41.92l17.9-54.17ZM1132.64,169.18l-22.26-67.35h39.42v100.45c-4.15-11.9-9.96-23.03-17.16-33.1ZM1122.28,156.43c-24-26.01-58.34-42.34-96.43-42.34h-41.11c-38.09,0-72.44,16.33-96.43,42.34l18.04-54.6h197.89s18.04,54.6,18.04,54.6ZM877.96,169.18c-7.2,10.07-13.02,21.2-17.16,33.1v-100.45h39.42s-22.26,67.35-22.26,67.35ZM837.32,168.49l-22.03-66.66h39.68v100.45c-4.24-12.18-10.22-23.54-17.65-33.79ZM827.05,156c-23.98-25.76-58.14-41.92-96.03-41.92h-41.11c-38.1,0-72.44,16.33-96.43,42.34l18.04-54.6h197.63s17.9,54.17,17.9,54.17ZM583.13,169.18c-7.2,10.07-13.01,21.19-17.16,33.1v-100.45h39.42s-22.26,67.35-22.26,67.35ZM542.49,168.49l-22.03-66.66h39.68v100.45c-4.24-12.18-10.22-23.54-17.65-33.79ZM532.22,156c-23.98-25.76-58.14-41.92-96.03-41.92h-41.11c-37.89,0-72.05,16.16-96.03,41.92l17.9-54.18h197.36s17.9,54.17,17.9,54.17ZM288.79,168.49c-7.43,10.25-13.41,21.62-17.65,33.79v-100.45h39.68s-22.03,66.66-22.03,66.66ZM248.15,169.17l-22.25-67.34h39.42v100.45c-4.15-11.91-9.96-23.03-17.17-33.11ZM237.8,156.43c-24-26.01-58.34-42.34-96.43-42.34h-41.11c-38.1,0-72.44,16.33-96.44,42.35l18.04-54.6h197.89s18.04,54.6,18.04,54.6ZM-6.53,169.18c-7.2,10.07-13.01,21.19-17.16,33.1v-100.45H15.73S-6.53,169.18-6.53,169.18ZM-47.18,168.48l-22.03-66.65H-29.52v100.45c-4.24-12.18-10.22-23.54-17.66-33.8ZM-57.43,156c-23.98-25.76-58.14-41.92-96.03-41.92h-41.11c-37.89,0-72.06,16.16-96.03,41.92l17.9-54.18H-75.34s17.9,54.17,17.9,54.17ZM-300.86,168.49c-7.43,10.25-13.41,21.62-17.65,33.79v-100.45h39.68s-22.03,66.66-22.03,66.66ZM-341.51,169.17l-22.25-67.34h39.42v100.45c-4.15-11.91-9.96-23.03-17.16-33.11ZM-351.86,156.43c-24-26.01-58.34-42.34-96.43-42.34h-41.11c-37.89,0-72.05,16.16-96.03,41.92l17.9-54.18h197.63s18.04,54.6,18.04,54.6ZM-595.69,168.48c-7.43,10.26-13.42,21.62-17.66,33.8v-100.45h39.68s-22.03,66.65-22.03,66.65ZM1444.63,101.83v100.45c-4.24-12.18-10.22-23.54-17.65-33.79l-22.03-66.66h39.68ZM1157.08,245.31c0-3.63.19-7.21.5-10.75l17.59-53.23c21.57-35.07,60.29-58.5,104.4-58.5h41.11c44.1,0,82.83,23.44,104.4,58.5l17.59,53.23c.31,3.55.5,7.13.5,10.75v85.3h-286.09v-85.3ZM862.25,245.31c0-3.98.21-7.91.58-11.79l16.94-51.26c21.45-35.58,60.48-59.44,104.97-59.44h41.11c44.5,0,83.52,23.86,104.97,59.44l16.94,51.25c.37,3.88.58,7.81.58,11.79v85.3h-286.09v-85.3ZM567.42,245.31c0-3.98.21-7.91.58-11.79l16.94-51.25c21.45-35.59,60.48-59.44,104.97-59.44h41.11c44.1,0,82.83,23.44,104.4,58.51l17.59,53.22c.31,3.55.5,7.13.5,10.76v85.3h-286.09v-85.3ZM272.6,245.31c0-3.63.19-7.21.5-10.76l17.59-53.21c21.57-35.07,60.3-58.51,104.4-58.51h41.11c44.1,0,82.83,23.44,104.4,58.5l17.59,53.23c.31,3.55.5,7.13.5,10.75v85.3h-286.09v-85.3ZM-22.23,245.31c0-3.98.21-7.92.58-11.81l16.93-51.23c21.45-35.59,60.48-59.46,104.98-59.46h41.11c44.5,0,83.52,23.86,104.97,59.44l16.94,51.25c.37,3.88.58,7.81.58,11.79v85.3H-22.23v-85.3ZM-317.06,245.31c0-3.63.19-7.21.5-10.76l17.58-53.21c21.57-35.07,60.3-58.51,104.4-58.51h41.11c44.1,0,82.83,23.44,104.4,58.5l17.59,53.23c.31,3.55.5,7.13.5,10.75v85.3h-286.09v-85.3ZM-611.89,245.31c0-3.63.19-7.21.5-10.75l17.59-53.23c21.57-35.07,60.3-58.51,104.4-58.51h41.11c44.5,0,83.52,23.86,104.97,59.44l16.94,51.25c.37,3.88.58,7.81.58,11.79v85.3h-286.09v-85.3ZM-906.72,245.31c0-67.54,54.95-122.49,122.49-122.49h41.11c44.5,0,83.53,23.86,104.98,59.46l16.93,51.23c.37,3.89.58,7.82.58,11.81v85.3h-286.09v-85.3Z"/>
  </g>
</svg>