<?xml version="1.0" encoding="UTF-8"?>
<svg id="OBJECTS" xmlns="http://www.w3.org/2000/svg" xmlns:xlink="http://www.w3.org/1999/xlink" viewBox="0 0 390 216.55">
  <defs>
    <style>
      .cls-1 {
        fill: #626129;
      }

      .cls-1, .cls-2, .cls-3, .cls-4, .cls-5, .cls-6, .cls-7, .cls-8, .cls-9 {
        stroke-width: 0px;
      }

      .cls-2 {
        fill: #7b3e19;
      }

      .cls-3 {
        fill: #000;
      }

      .cls-4 {
        fill: #879b5f;
      }

      .cls-5 {
        fill: none;
      }

      .cls-6 {
        fill: #774639;
      }

      .cls-7 {
        fill: #a45221;
      }

      .cls-10 {
        clip-path: url(#clippath);
      }

      .cls-8 {
        fill: #c2a131;
      }

      .cls-9 {
        fill: #043f22;
      }
    </style>
    <clipPath id="clippath">
      <rect class="cls-5" width="390" height="216.55"/>
    </clipPath>
  </defs>
  <rect class="cls-3" x="-390" width="390" height="216.55"/>
  <g class="cls-10">
    <g>
      <path class="cls-1" d="M358.25,73.26s177.35-66.87,480.24-26.22v72.12s-253.07-27.54-253.07-27.54l-227.17-18.36Z"/>
      <g>
        <path class="cls-8" d="M43.47,57.01s51.04-36.46,113.02,0l-48.61,30.38-64.41-30.38Z"/>
        <g>
          <path class="cls-9" d="M89.27,25.11s-8.67,43.01,0,43.01,0-43.01,0-43.01Z"/>
          <path class="cls-9" d="M98.92,29.55s-8.67,43.01,0,43.01,0-43.01,0-43.01Z"/>
          <path class="cls-9" d="M105.78,29.55s-8.67,43.01,0,43.01c8.67,0,0-43.01,0-43.01Z"/>
          <path class="cls-9" d="M79.07,16.91s-8.67,45.41,0,45.41,0-45.41,0-45.41Z"/>
          <path class="cls-9" d="M72.68,27.34s-9.21,35.57,0,35.57,0-35.57,0-35.57Z"/>
        </g>
      </g>
      <g>
        <path class="cls-4" d="M89.27,68.12s70.27-35.55,205.78-21.51c135.51,14.04,306.92,46.25,333.03,47.47l9.09,12.02v53.6s-539.36-28.56-544.05-30.99c-4.68-2.43-3.85-60.6-3.85-60.6Z"/>
        <g>
          <g>
            <rect class="cls-7" x="185.06" y="81.56" width="35.94" height="31.36"/>
            <rect class="cls-2" x="221" y="94.69" width="31.36" height="15.5"/>
          </g>
          <g>
            <path class="cls-9" d="M181.99,49.27s-13.96,56.84,0,56.84c13.96,0,0-56.84,0-56.84Z"/>
            <path class="cls-9" d="M169.2,57.01s-12.06,49.09,0,49.09c12.06,0,0-49.09,0-49.09Z"/>
            <path class="cls-9" d="M157.71,62.91s-10.61,43.19,0,43.19c10.61,0,0-43.19,0-43.19Z"/>
          </g>
        </g>
        <path class="cls-1" d="M-372.18,73.42s54.69-12.36,150.71-32.61C-125.46,20.55-22.15,18.33,75.07,57.12c97.23,38.79,147.06,64.31,209.04,65.53H-386.76s14.58-49.22,14.58-49.22Z"/>
        <g>
          <rect class="cls-2" x="353.79" y="97.24" width="23.9" height="15.68"/>
          <rect class="cls-7" x="377.69" y="84.51" width="41.66" height="29.32"/>
        </g>
      </g>
      <path class="cls-9" d="M-340.74,163.96S97.57,95.2,291.11,105.28c193.55,10.07,330.61,77.32,330.61,77.32v71.3s-975.26-41.32-975.26-41.32l12.8-48.61Z"/>
      <path class="cls-4" d="M-329.23,113.83S-164.53,77.75-10,81.56c154.53,3.81,375.74,121.3,375.74,121.3H-332.47l3.24-89.02Z"/>
    </g>
    <path class="cls-6" d="M-510.75,245.31v94.04s294.83,0,294.83,0h8.74s286.09,0,286.09,0h8.74s286.09,0,286.09,0h8.74s286.09,0,286.09,0h8.74s286.09,0,286.09,0h8.74s286.09,0,286.09,0h8.74s286.09,0,286.09,0h8.74s294.83,0,294.83,0v-94.04c0-3.03-.14-6.02-.34-9l46.07-139.4-5.53-1.83-41.64,126.02v-119.28h13.41s0-11.65,0-11.65H-485.66s0,11.65,0,11.65h225.64s18.04,54.6,18.04,54.6c-24-26.02-58.34-42.35-96.44-42.35h-41.11c-72.36,0-131.23,58.87-131.23,131.23ZM-253.88,101.83h39.42v100.45c-4.15-11.9-9.96-23.03-17.16-33.1l-22.26-67.35ZM1577.99,168.49c-7.43,10.25-13.41,21.62-17.65,33.79v-100.45h39.68s-22.03,66.66-22.03,66.66ZM1606.15,101.83h197.36s17.9,54.17,17.9,54.17c-23.98-25.76-58.14-41.92-96.03-41.92h-41.11c-37.89,0-72.05,16.16-96.03,41.92l17.9-54.17ZM1537.35,169.18l-22.26-67.35h39.42v100.45c-4.15-11.9-9.96-23.03-17.16-33.1ZM1527,156.43c-24-26.01-58.34-42.34-96.43-42.34h-41.11c-38.09,0-72.44,16.33-96.43,42.34l18.04-54.6h197.89s18.04,54.6,18.04,54.6ZM1282.67,169.18c-7.2,10.07-13.02,21.2-17.16,33.1v-100.45h39.42s-22.26,67.35-22.26,67.35ZM1242.03,168.49l-22.03-66.66h39.68v100.45c-4.24-12.18-10.22-23.54-17.65-33.79ZM1231.76,156c-23.98-25.76-58.14-41.92-96.03-41.92h-41.11c-38.1,0-72.44,16.33-96.43,42.34l18.04-54.6h197.63s17.9,54.17,17.9,54.17ZM987.84,169.18c-7.2,10.07-13.01,21.19-17.16,33.1v-100.45h39.42s-22.26,67.35-22.26,67.35ZM947.2,168.49l-22.03-66.66h39.68v100.45c-4.24-12.18-10.22-23.54-17.65-33.79ZM936.93,156c-23.98-25.76-58.14-41.92-96.03-41.92h-41.11c-37.89,0-72.05,16.16-96.03,41.92l17.9-54.18h197.36s17.9,54.17,17.9,54.17ZM693.5,168.49c-7.43,10.25-13.41,21.62-17.65,33.79v-100.45h39.68s-22.03,66.66-22.03,66.66ZM652.86,169.17l-22.25-67.34h39.42v100.45c-4.15-11.91-9.96-23.03-17.17-33.11ZM642.51,156.43c-24-26.01-58.34-42.34-96.43-42.34h-41.11c-38.1,0-72.44,16.33-96.44,42.35l18.04-54.6h197.89s18.04,54.6,18.04,54.6ZM398.18,169.18c-7.2,10.07-13.01,21.19-17.16,33.1v-100.45h39.42s-22.26,67.35-22.26,67.35ZM357.54,168.48l-22.03-66.65h39.68v100.45c-4.24-12.18-10.22-23.54-17.66-33.8ZM347.28,156c-23.98-25.76-58.14-41.92-96.03-41.92h-41.11c-37.89,0-72.06,16.16-96.03,41.92l17.9-54.18h197.37s17.9,54.17,17.9,54.17ZM103.85,168.49c-7.43,10.25-13.41,21.62-17.65,33.79v-100.45h39.68s-22.03,66.66-22.03,66.66ZM63.2,169.17l-22.25-67.34h39.42v100.45c-4.15-11.91-9.96-23.03-17.16-33.11ZM52.85,156.43c-24-26.01-58.34-42.34-96.43-42.34h-41.11c-37.89,0-72.05,16.16-96.03,41.92l17.9-54.18H34.81s18.04,54.6,18.04,54.6ZM-190.98,168.48c-7.43,10.26-13.42,21.62-17.66,33.8v-100.45h39.68s-22.03,66.65-22.03,66.65ZM1849.34,101.83v100.45c-4.24-12.18-10.22-23.54-17.65-33.79l-22.03-66.66h39.68ZM1561.79,245.31c0-3.63.19-7.21.5-10.75l17.59-53.23c21.57-35.07,60.29-58.5,104.4-58.5h41.11c44.1,0,82.83,23.44,104.4,58.5l17.59,53.23c.31,3.55.5,7.13.5,10.75v85.3h-286.09v-85.3ZM1266.96,245.31c0-3.98.21-7.91.58-11.79l16.94-51.26c21.45-35.58,60.48-59.44,104.97-59.44h41.11c44.5,0,83.52,23.86,104.97,59.44l16.94,51.25c.37,3.88.58,7.81.58,11.79v85.3h-286.09v-85.3ZM972.14,245.31c0-3.98.21-7.91.58-11.79l16.94-51.25c21.45-35.59,60.48-59.44,104.97-59.44h41.11c44.1,0,82.83,23.44,104.4,58.51l17.59,53.22c.31,3.55.5,7.13.5,10.76v85.3h-286.09v-85.3ZM677.31,245.31c0-3.63.19-7.21.5-10.76l17.59-53.21c21.57-35.07,60.3-58.51,104.4-58.51h41.11c44.1,0,82.83,23.44,104.4,58.5l17.59,53.23c.31,3.55.5,7.13.5,10.75v85.3h-286.09v-85.3ZM382.48,245.31c0-3.98.21-7.92.58-11.81l16.93-51.23c21.45-35.59,60.48-59.46,104.98-59.46h41.11c44.5,0,83.52,23.86,104.97,59.44l16.94,51.25c.37,3.88.58,7.81.58,11.79v85.3h-286.09v-85.3ZM87.65,245.31c0-3.63.19-7.21.5-10.76l17.58-53.21c21.57-35.07,60.3-58.51,104.4-58.51h41.11c44.1,0,82.83,23.44,104.4,58.5l17.59,53.23c.31,3.55.5,7.13.5,10.75v85.3H87.65v-85.3ZM-207.18,245.31c0-3.63.19-7.21.5-10.75l17.59-53.23c21.57-35.07,60.3-58.51,104.4-58.51h41.11c44.5,0,83.52,23.86,104.97,59.44l16.94,51.25c.37,3.88.58,7.81.58,11.79v85.3H-207.18v-85.3ZM-502.01,245.31c0-67.54,54.95-122.49,122.49-122.49h41.11c44.5,0,83.53,23.86,104.98,59.46l16.93,51.23c.37,3.89.58,7.82.58,11.81v85.3h-286.09v-85.3Z"/>
  </g>
</svg>