<?xml version="1.0" encoding="UTF-8"?>
<svg id="OBJECTS" xmlns="http://www.w3.org/2000/svg" xmlns:xlink="http://www.w3.org/1999/xlink" viewBox="0 0 390 216.55">
  <defs>
    <style>
      .cls-1 {
        fill: #626129;
      }

      .cls-1, .cls-2, .cls-3, .cls-4, .cls-5, .cls-6, .cls-7, .cls-8, .cls-9 {
        stroke-width: 0px;
      }

      .cls-2 {
        fill: #7b3e19;
      }

      .cls-3 {
        fill: #000;
      }

      .cls-4 {
        fill: #879b5f;
      }

      .cls-5 {
        fill: none;
      }

      .cls-6 {
        fill: #774639;
      }

      .cls-7 {
        fill: #a45221;
      }

      .cls-10 {
        clip-path: url(#clippath);
      }

      .cls-8 {
        fill: #c2a131;
      }

      .cls-9 {
        fill: #043f22;
      }
    </style>
    <clipPath id="clippath">
      <rect class="cls-5" width="390" height="216.55"/>
    </clipPath>
  </defs>
  <g class="cls-10">
    <g>
      <g>
        <path class="cls-1" d="M253.42,73.08s54.69-12.36,150.71-32.61c96.01-20.26,199.32-22.48,296.54,16.31,97.23,38.79,147.06,64.31,209.04,65.53H238.84l14.58-49.22Z"/>
        <g>
          <path class="cls-8" d="M331.2,110.96s113.43-77.37,236.59-17.22l-118.29,65.63-118.29-48.41Z"/>
          <g>
            <rect class="cls-7" x="345.38" y="81.73" width="51.85" height="31.76"/>
            <rect class="cls-2" x="325.13" y="90.7" width="20.26" height="20.26"/>
          </g>
        </g>
      </g>
      <path class="cls-9" d="M-58.65,174.29s593.44-78.6,856.17-72.88c262.72,5.72,622,125.31,622,125.31l-171.05,15.87L-75.22,223.19l16.56-48.89Z"/>
      <path class="cls-4" d="M-64.48,89.83s250.22-45.68,484.98-40.85c234.77,4.83,570.84,153.53,570.84,153.53H-69.4l4.92-112.68Z"/>
    </g>
    <path class="cls-6" d="M-135.46,245.31v94.04s294.83,0,294.83,0h8.74s286.09,0,286.09,0h8.74s286.09,0,286.09,0h8.74s286.09,0,286.09,0h8.74s286.09,0,286.09,0h8.74s286.09,0,286.09,0h8.74s286.09,0,286.09,0h8.74s294.83,0,294.83,0v-94.04c0-3.03-.14-6.02-.34-9l46.07-139.4-5.53-1.83-41.64,126.02v-119.28h13.41s0-11.65,0-11.65H-110.37s0,11.65,0,11.65H115.27s18.04,54.6,18.04,54.6c-24-26.02-58.34-42.35-96.44-42.35H-4.23c-72.36,0-131.23,58.87-131.23,131.23ZM121.41,101.83h39.42v100.45c-4.15-11.9-9.96-23.03-17.16-33.1l-22.26-67.35ZM1953.28,168.49c-7.43,10.25-13.41,21.62-17.65,33.79v-100.45h39.68s-22.03,66.66-22.03,66.66ZM1981.44,101.83h197.36s17.9,54.17,17.9,54.17c-23.98-25.76-58.14-41.92-96.03-41.92h-41.11c-37.89,0-72.05,16.16-96.03,41.92l17.9-54.17ZM1912.64,169.18l-22.26-67.35h39.42v100.45c-4.15-11.9-9.96-23.03-17.16-33.1ZM1902.28,156.43c-24-26.01-58.34-42.34-96.43-42.34h-41.11c-38.09,0-72.44,16.33-96.43,42.34l18.04-54.6h197.89s18.04,54.6,18.04,54.6ZM1657.96,169.18c-7.2,10.07-13.02,21.2-17.16,33.1v-100.45h39.42s-22.26,67.35-22.26,67.35ZM1617.32,168.49l-22.03-66.66h39.68v100.45c-4.24-12.18-10.22-23.54-17.65-33.79ZM1607.05,156c-23.98-25.76-58.14-41.92-96.03-41.92h-41.11c-38.1,0-72.44,16.33-96.43,42.34l18.04-54.6h197.63s17.9,54.17,17.9,54.17ZM1363.13,169.18c-7.2,10.07-13.01,21.19-17.16,33.1v-100.45h39.42s-22.26,67.35-22.26,67.35ZM1322.49,168.49l-22.03-66.66h39.68v100.45c-4.24-12.18-10.22-23.54-17.65-33.79ZM1312.22,156c-23.98-25.76-58.14-41.92-96.03-41.92h-41.11c-37.89,0-72.05,16.16-96.03,41.92l17.9-54.18h197.36s17.9,54.17,17.9,54.17ZM1068.79,168.49c-7.43,10.25-13.41,21.62-17.65,33.79v-100.45h39.68s-22.03,66.66-22.03,66.66ZM1028.15,169.17l-22.25-67.34h39.42v100.45c-4.15-11.91-9.96-23.03-17.17-33.11ZM1017.8,156.43c-24-26.01-58.34-42.34-96.43-42.34h-41.11c-38.1,0-72.44,16.33-96.44,42.35l18.04-54.6h197.89s18.04,54.6,18.04,54.6ZM773.47,169.18c-7.2,10.07-13.01,21.19-17.16,33.1v-100.45h39.42s-22.26,67.35-22.26,67.35ZM732.82,168.48l-22.03-66.65h39.68v100.45c-4.24-12.18-10.22-23.54-17.66-33.8ZM722.57,156c-23.98-25.76-58.14-41.92-96.03-41.92h-41.11c-37.89,0-72.06,16.16-96.03,41.92l17.9-54.18h197.37s17.9,54.17,17.9,54.17ZM479.14,168.49c-7.43,10.25-13.41,21.62-17.65,33.79v-100.45h39.68s-22.03,66.66-22.03,66.66ZM438.49,169.17l-22.25-67.34h39.42v100.45c-4.15-11.91-9.96-23.03-17.16-33.11ZM428.14,156.43c-24-26.01-58.34-42.34-96.43-42.34h-41.11c-37.89,0-72.05,16.16-96.03,41.92l17.9-54.18h197.63s18.04,54.6,18.04,54.6ZM184.31,168.48c-7.43,10.26-13.42,21.62-17.66,33.8v-100.45h39.68s-22.03,66.65-22.03,66.65ZM2224.63,101.83v100.45c-4.24-12.18-10.22-23.54-17.65-33.79l-22.03-66.66h39.68ZM1937.08,245.31c0-3.63.19-7.21.5-10.75l17.59-53.23c21.57-35.07,60.29-58.5,104.4-58.5h41.11c44.1,0,82.83,23.44,104.4,58.5l17.59,53.23c.31,3.55.5,7.13.5,10.75v85.3h-286.09v-85.3ZM1642.25,245.31c0-3.98.21-7.91.58-11.79l16.94-51.26c21.45-35.58,60.48-59.44,104.97-59.44h41.11c44.5,0,83.52,23.86,104.97,59.44l16.94,51.25c.37,3.88.58,7.81.58,11.79v85.3h-286.09v-85.3ZM1347.42,245.31c0-3.98.21-7.91.58-11.79l16.94-51.25c21.45-35.59,60.48-59.44,104.97-59.44h41.11c44.1,0,82.83,23.44,104.4,58.51l17.59,53.22c.31,3.55.5,7.13.5,10.76v85.3h-286.09v-85.3ZM1052.6,245.31c0-3.63.19-7.21.5-10.76l17.59-53.21c21.57-35.07,60.3-58.51,104.4-58.51h41.11c44.1,0,82.83,23.44,104.4,58.5l17.59,53.23c.31,3.55.5,7.13.5,10.75v85.3h-286.09v-85.3ZM757.77,245.31c0-3.98.21-7.92.58-11.81l16.93-51.23c21.45-35.59,60.48-59.46,104.98-59.46h41.11c44.5,0,83.52,23.86,104.97,59.44l16.94,51.25c.37,3.88.58,7.81.58,11.79v85.3h-286.09v-85.3ZM462.94,245.31c0-3.63.19-7.21.5-10.76l17.58-53.21c21.57-35.07,60.3-58.51,104.4-58.51h41.11c44.1,0,82.83,23.44,104.4,58.5l17.59,53.23c.31,3.55.5,7.13.5,10.75v85.3h-286.09v-85.3ZM168.11,245.31c0-3.63.19-7.21.5-10.75l17.59-53.23c21.57-35.07,60.3-58.51,104.4-58.51h41.11c44.5,0,83.52,23.86,104.97,59.44l16.94,51.25c.37,3.88.58,7.81.58,11.79v85.3H168.11v-85.3ZM-126.72,245.31c0-67.54,54.95-122.49,122.49-122.49h41.11c44.5,0,83.53,23.86,104.98,59.46l16.93,51.23c.37,3.89.58,7.82.58,11.81v85.3H-126.72v-85.3Z"/>
  </g>
  <rect class="cls-3" x="390" y="0" width="390" height="216.55"/>
</svg>