<?xml version="1.0" encoding="UTF-8"?>
<svg id="OBJECTS" xmlns="http://www.w3.org/2000/svg" xmlns:xlink="http://www.w3.org/1999/xlink" viewBox="0 0 390 216.55">
  <defs>
    <style>
      .cls-1 {
        fill: #626129;
      }

      .cls-1, .cls-2, .cls-3, .cls-4, .cls-5, .cls-6, .cls-7, .cls-8 {
        stroke-width: 0px;
      }

      .cls-2 {
        fill: #000;
      }

      .cls-3 {
        fill: #879b5f;
      }

      .cls-4 {
        fill: none;
      }

      .cls-5 {
        fill: #774639;
      }

      .cls-6 {
        fill: #a45221;
      }

      .cls-9 {
        clip-path: url(#clippath);
      }

      .cls-7 {
        fill: #c2a131;
      }

      .cls-8 {
        fill: #043f22;
      }
    </style>
    <clipPath id="clippath">
      <rect class="cls-4" x="0" y="0" width="390" height="216.55"/>
    </clipPath>
  </defs>
  <g class="cls-9">
    <g>
      <g>
        <path class="cls-7" d="M279.07,56.67s51.04-36.46,113.02,0l-48.61,30.38-64.41-30.38Z"/>
        <g>
          <path class="cls-8" d="M324.87,24.77s-8.67,43.01,0,43.01,0-43.01,0-43.01Z"/>
          <path class="cls-8" d="M334.52,29.21s-8.67,43.01,0,43.01,0-43.01,0-43.01Z"/>
          <path class="cls-8" d="M341.38,29.21s-8.67,43.01,0,43.01,0-43.01,0-43.01Z"/>
          <path class="cls-8" d="M314.66,16.56s-8.67,45.41,0,45.41,0-45.41,0-45.41Z"/>
          <path class="cls-8" d="M308.28,27s-9.21,35.57,0,35.57,0-35.57,0-35.57Z"/>
        </g>
      </g>
      <g>
        <path class="cls-3" d="M324.87,67.78s70.27-35.55,205.78-21.51,306.92,46.25,333.03,47.47l9.09,12.02v53.6s-539.36-28.56-544.05-30.99c-4.68-2.43-3.85-60.6-3.85-60.6Z"/>
        <path class="cls-8" d="M393.31,62.57s-10.61,43.19,0,43.19,0-43.19,0-43.19Z"/>
        <path class="cls-1" d="M-136.58,73.08S-81.89,60.72,14.13,40.47c96.01-20.26,199.32-22.48,296.54,16.31,97.23,38.79,147.06,64.31,209.04,65.53H-151.16l14.58-49.22Z"/>
        <g>
          <path class="cls-7" d="M-58.8,110.96s113.43-77.37,236.59-17.22l-118.29,65.63-118.29-48.41Z"/>
          <g>
            <path class="cls-8" d="M9.49,57.18s-12.06,49.09,0,49.09,0-49.09,0-49.09Z"/>
            <path class="cls-8" d="M20.22,62.57s-10.41,42.37,0,42.37,0-42.37,0-42.37Z"/>
            <path class="cls-8" d="M29.69,69.06s-8.99,36.59,0,36.59,0-36.59,0-36.59Z"/>
          </g>
          <rect class="cls-6" x="-44.62" y="81.73" width="51.85" height="31.76"/>
        </g>
      </g>
      <path class="cls-8" d="M-448.65,174.29S144.79,95.69,407.51,101.41c262.72,5.72,622,125.31,622,125.31l-171.05,15.87-1323.68-19.4,16.56-48.89Z"/>
      <path class="cls-3" d="M-454.48,89.83S-204.27,44.15,30.5,48.98c234.77,4.83,570.84,153.53,570.84,153.53H-459.4l4.92-112.68Z"/>
    </g>
    <path class="cls-5" d="M-525.46,245.31v94.04s294.83,0,294.83,0h8.74s286.09,0,286.09,0h8.74s286.09,0,286.09,0h8.74s286.09,0,286.09,0h8.74s286.09,0,286.09,0h8.74s286.09,0,286.09,0h8.74s286.09,0,286.09,0h8.74s294.83,0,294.83,0v-94.04c0-3.03-.14-6.02-.34-9l46.07-139.4-5.53-1.83-41.64,126.02v-119.28h13.41s0-11.65,0-11.65H-500.37s0,11.65,0,11.65h225.64s18.04,54.6,18.04,54.6c-24-26.02-58.34-42.35-96.44-42.35h-41.11c-72.36,0-131.23,58.87-131.23,131.23ZM-268.59,101.83h39.42v100.45c-4.15-11.9-9.96-23.03-17.16-33.1l-22.26-67.35ZM1563.28,168.49c-7.43,10.25-13.41,21.62-17.65,33.79v-100.45h39.68s-22.03,66.66-22.03,66.66ZM1591.44,101.83h197.36s17.9,54.17,17.9,54.17c-23.98-25.76-58.14-41.92-96.03-41.92h-41.11c-37.89,0-72.05,16.16-96.03,41.92l17.9-54.17ZM1522.64,169.18l-22.26-67.35h39.42v100.45c-4.15-11.9-9.96-23.03-17.16-33.1ZM1512.28,156.43c-24-26.01-58.34-42.34-96.43-42.34h-41.11c-38.09,0-72.44,16.33-96.43,42.34l18.04-54.6h197.89s18.04,54.6,18.04,54.6ZM1267.96,169.18c-7.2,10.07-13.02,21.2-17.16,33.1v-100.45h39.42s-22.26,67.35-22.26,67.35ZM1227.32,168.49l-22.03-66.66h39.68v100.45c-4.24-12.18-10.22-23.54-17.65-33.79ZM1217.05,156c-23.98-25.76-58.14-41.92-96.03-41.92h-41.11c-38.1,0-72.44,16.33-96.43,42.34l18.04-54.6h197.63s17.9,54.17,17.9,54.17ZM973.13,169.18c-7.2,10.07-13.01,21.19-17.16,33.1v-100.45h39.42s-22.26,67.35-22.26,67.35ZM932.49,168.49l-22.03-66.66h39.68v100.45c-4.24-12.18-10.22-23.54-17.65-33.79ZM922.22,156c-23.98-25.76-58.14-41.92-96.03-41.92h-41.11c-37.89,0-72.05,16.16-96.03,41.92l17.9-54.18h197.36s17.9,54.17,17.9,54.17ZM678.79,168.49c-7.43,10.25-13.41,21.62-17.65,33.79v-100.45h39.68s-22.03,66.66-22.03,66.66ZM638.15,169.17l-22.25-67.34h39.42v100.45c-4.15-11.91-9.96-23.03-17.17-33.11ZM627.8,156.43c-24-26.01-58.34-42.34-96.43-42.34h-41.11c-38.1,0-72.44,16.33-96.44,42.35l18.04-54.6h197.89s18.04,54.6,18.04,54.6ZM383.47,169.18c-7.2,10.07-13.01,21.19-17.16,33.1v-100.45h39.42s-22.26,67.35-22.26,67.35ZM342.82,168.48l-22.03-66.65h39.68v100.45c-4.24-12.18-10.22-23.54-17.66-33.8ZM332.57,156c-23.98-25.76-58.14-41.92-96.03-41.92h-41.11c-37.89,0-72.06,16.16-96.03,41.92l17.9-54.18h197.37s17.9,54.17,17.9,54.17ZM89.14,168.49c-7.43,10.25-13.41,21.62-17.65,33.79v-100.45h39.68s-22.03,66.66-22.03,66.66ZM48.49,169.17l-22.25-67.34h39.42v100.45c-4.15-11.91-9.96-23.03-17.16-33.11ZM38.14,156.43c-24-26.01-58.34-42.34-96.43-42.34h-41.11c-37.89,0-72.05,16.16-96.03,41.92l17.9-54.18H20.1s18.04,54.6,18.04,54.6ZM-205.69,168.48c-7.43,10.26-13.42,21.62-17.66,33.8v-100.45h39.68s-22.03,66.65-22.03,66.65ZM1834.63,101.83v100.45c-4.24-12.18-10.22-23.54-17.65-33.79l-22.03-66.66h39.68ZM1547.08,245.31c0-3.63.19-7.21.5-10.75l17.59-53.23c21.57-35.07,60.29-58.5,104.4-58.5h41.11c44.1,0,82.83,23.44,104.4,58.5l17.59,53.23c.31,3.55.5,7.13.5,10.75v85.3h-286.09v-85.3ZM1252.25,245.31c0-3.98.21-7.91.58-11.79l16.94-51.26c21.45-35.58,60.48-59.44,104.97-59.44h41.11c44.5,0,83.52,23.86,104.97,59.44l16.94,51.25c.37,3.88.58,7.81.58,11.79v85.3h-286.09v-85.3ZM957.42,245.31c0-3.98.21-7.91.58-11.79l16.94-51.25c21.45-35.59,60.48-59.44,104.97-59.44h41.11c44.1,0,82.83,23.44,104.4,58.51l17.59,53.22c.31,3.55.5,7.13.5,10.76v85.3h-286.09v-85.3ZM662.6,245.31c0-3.63.19-7.21.5-10.76l17.59-53.21c21.57-35.07,60.3-58.51,104.4-58.51h41.11c44.1,0,82.83,23.44,104.4,58.5l17.59,53.23c.31,3.55.5,7.13.5,10.75v85.3h-286.09v-85.3ZM367.77,245.31c0-3.98.21-7.92.58-11.81l16.93-51.23c21.45-35.59,60.48-59.46,104.98-59.46h41.11c44.5,0,83.52,23.86,104.97,59.44l16.94,51.25c.37,3.88.58,7.81.58,11.79v85.3h-286.09v-85.3ZM72.94,245.31c0-3.63.19-7.21.5-10.76l17.58-53.21c21.57-35.07,60.3-58.51,104.4-58.51h41.11c44.1,0,82.83,23.44,104.4,58.5l17.59,53.23c.31,3.55.5,7.13.5,10.75v85.3H72.94v-85.3ZM-221.89,245.31c0-3.63.19-7.21.5-10.75l17.59-53.23c21.57-35.07,60.3-58.51,104.4-58.51h41.11c44.5,0,83.52,23.86,104.97,59.44l16.94,51.25c.37,3.88.58,7.81.58,11.79v85.3H-221.89v-85.3ZM-516.72,245.31c0-67.54,54.95-122.49,122.49-122.49h41.11c44.5,0,83.53,23.86,104.98,59.46l16.93,51.23c.37,3.89.58,7.82.58,11.81v85.3h-286.09v-85.3Z"/>
  </g>
  <rect class="cls-2" x="390" y="0" width="390" height="216.55"/>
</svg>