<?xml version="1.0" encoding="UTF-8"?>
<svg id="OBJECTS" xmlns="http://www.w3.org/2000/svg" xmlns:xlink="http://www.w3.org/1999/xlink" viewBox="0 0 390 216.55">
  <defs>
    <style>
      .cls-1 {
        fill: #626129;
      }

      .cls-1, .cls-2, .cls-3, .cls-4, .cls-5, .cls-6, .cls-7, .cls-8, .cls-9 {
        stroke-width: 0px;
      }

      .cls-2 {
        fill: #7b3e19;
      }

      .cls-3 {
        fill: #000;
      }

      .cls-4 {
        fill: #879b5f;
      }

      .cls-5 {
        fill: none;
      }

      .cls-6 {
        fill: #774639;
      }

      .cls-7 {
        fill: #a45221;
      }

      .cls-10 {
        clip-path: url(#clippath);
      }

      .cls-8 {
        fill: #c2a131;
      }

      .cls-9 {
        fill: #043f22;
      }
    </style>
    <clipPath id="clippath">
      <rect class="cls-5" width="390" height="216.55"/>
    </clipPath>
  </defs>
  <rect class="cls-3" x="-390" width="390" height="216.55"/>
  <g class="cls-10">
    <g>
      <g>
        <g>
          <path class="cls-1" d="M107.32,73.42s-54.69-12.36-150.71-32.61c-96.01-20.26-199.32-22.48-296.54,16.31-97.23,38.79-147.06,64.31-209.04,65.53H121.9s-14.58-49.22-14.58-49.22Z"/>
          <g>
            <path class="cls-8" d="M29.54,111.3s-113.43-77.37-236.59-17.22l118.29,65.63L29.54,111.3Z"/>
            <g>
              <rect class="cls-7" x="-36.5" y="82.07" width="51.85" height="31.76" transform="translate(-21.14 195.9) rotate(-180)"/>
              <rect class="cls-2" x="15.36" y="91.04" width="20.26" height="20.26" transform="translate(50.97 202.34) rotate(-180)"/>
            </g>
          </g>
        </g>
        <path class="cls-9" d="M75.88,163.96s-438.3-68.76-631.85-58.69c-193.55,10.07-517.64,131.71-517.64,131.71l187.03,16.91L88.68,212.58l-12.8-48.61Z"/>
        <path class="cls-4" d="M64.38,113.83s-164.7-36.09-319.23-32.27c-154.53,3.81-375.74,121.3-375.74,121.3H67.62s-3.24-89.02-3.24-89.02Z"/>
      </g>
      <g>
        <g>
          <path class="cls-1" d="M17.82,73.42s54.69-12.36,150.71-32.61c96.01-20.26,199.32-22.48,296.54,16.31,97.23,38.79,147.06,64.31,209.04,65.53H3.24s14.58-49.22,14.58-49.22Z"/>
          <g>
            <path class="cls-8" d="M95.61,111.3s113.43-77.37,236.59-17.22l-118.29,65.63-118.29-48.41Z"/>
            <g>
              <path class="cls-9" d="M163.9,57.53s-12.06,49.09,0,49.09,0-49.09,0-49.09Z"/>
              <path class="cls-9" d="M174.62,62.91s-10.41,42.37,0,42.37,0-42.37,0-42.37Z"/>
              <path class="cls-9" d="M184.09,69.41s-8.99,36.59,0,36.59c8.99,0,0-36.59,0-36.59Z"/>
            </g>
            <g>
              <rect class="cls-7" x="109.79" y="82.07" width="51.85" height="31.76"/>
              <rect class="cls-2" x="89.53" y="91.04" width="20.26" height="20.26"/>
            </g>
          </g>
        </g>
        <path class="cls-9" d="M49.26,163.96s438.3-68.76,631.85-58.69c193.55,10.07,330.61,77.32,330.61,77.32v71.3S36.46,212.58,36.46,212.58l12.8-48.61Z"/>
        <path class="cls-4" d="M60.77,113.83s164.7-36.09,319.23-32.27c154.53,3.81,375.74,121.3,375.74,121.3H57.53l3.24-89.02Z"/>
      </g>
    </g>
    <path class="cls-6" d="M-120.75,245.31v94.04s294.83,0,294.83,0h8.74s286.09,0,286.09,0h8.74s286.09,0,286.09,0h8.74s286.09,0,286.09,0h8.74s286.09,0,286.09,0h8.74s286.09,0,286.09,0h8.74s286.09,0,286.09,0h8.74s294.83,0,294.83,0v-94.04c0-3.03-.14-6.02-.34-9l46.07-139.4-5.53-1.83-41.64,126.02v-119.28h13.41s0-11.65,0-11.65H-95.66s0,11.65,0,11.65h225.64s18.04,54.6,18.04,54.6c-24-26.02-58.34-42.35-96.44-42.35H10.48c-72.36,0-131.23,58.87-131.23,131.23ZM136.12,101.83h39.42v100.45c-4.15-11.9-9.96-23.03-17.16-33.1l-22.26-67.35ZM1967.99,168.49c-7.43,10.25-13.41,21.62-17.65,33.79v-100.45h39.68s-22.03,66.66-22.03,66.66ZM1996.15,101.83h197.36s17.9,54.17,17.9,54.17c-23.98-25.76-58.14-41.92-96.03-41.92h-41.11c-37.89,0-72.05,16.16-96.03,41.92l17.9-54.17ZM1927.35,169.18l-22.26-67.35h39.42v100.45c-4.15-11.9-9.96-23.03-17.16-33.1ZM1917,156.43c-24-26.01-58.34-42.34-96.43-42.34h-41.11c-38.09,0-72.44,16.33-96.43,42.34l18.04-54.6h197.89s18.04,54.6,18.04,54.6ZM1672.67,169.18c-7.2,10.07-13.02,21.2-17.16,33.1v-100.45h39.42s-22.26,67.35-22.26,67.35ZM1632.03,168.49l-22.03-66.66h39.68v100.45c-4.24-12.18-10.22-23.54-17.65-33.79ZM1621.76,156c-23.98-25.76-58.14-41.92-96.03-41.92h-41.11c-38.1,0-72.44,16.33-96.43,42.34l18.04-54.6h197.63s17.9,54.17,17.9,54.17ZM1377.84,169.18c-7.2,10.07-13.01,21.19-17.16,33.1v-100.45h39.42s-22.26,67.35-22.26,67.35ZM1337.2,168.49l-22.03-66.66h39.68v100.45c-4.24-12.18-10.22-23.54-17.65-33.79ZM1326.93,156c-23.98-25.76-58.14-41.92-96.03-41.92h-41.11c-37.89,0-72.05,16.16-96.03,41.92l17.9-54.18h197.36s17.9,54.17,17.9,54.17ZM1083.5,168.49c-7.43,10.25-13.41,21.62-17.65,33.79v-100.45h39.68s-22.03,66.66-22.03,66.66ZM1042.86,169.17l-22.25-67.34h39.42v100.45c-4.15-11.91-9.96-23.03-17.17-33.11ZM1032.51,156.43c-24-26.01-58.34-42.34-96.43-42.34h-41.11c-38.1,0-72.44,16.33-96.44,42.35l18.04-54.6h197.89s18.04,54.6,18.04,54.6ZM788.18,169.18c-7.2,10.07-13.01,21.19-17.16,33.1v-100.45h39.42s-22.26,67.35-22.26,67.35ZM747.54,168.48l-22.03-66.65h39.68v100.45c-4.24-12.18-10.22-23.54-17.66-33.8ZM737.28,156c-23.98-25.76-58.14-41.92-96.03-41.92h-41.11c-37.89,0-72.06,16.16-96.03,41.92l17.9-54.18h197.37s17.9,54.17,17.9,54.17ZM493.85,168.49c-7.43,10.25-13.41,21.62-17.65,33.79v-100.45h39.68s-22.03,66.66-22.03,66.66ZM453.2,169.17l-22.25-67.34h39.42v100.45c-4.15-11.91-9.96-23.03-17.16-33.11ZM442.85,156.43c-24-26.01-58.34-42.34-96.43-42.34h-41.11c-37.89,0-72.05,16.16-96.03,41.92l17.9-54.18h197.63s18.04,54.6,18.04,54.6ZM199.02,168.48c-7.43,10.26-13.42,21.62-17.66,33.8v-100.45h39.68s-22.03,66.65-22.03,66.65ZM2239.34,101.83v100.45c-4.24-12.18-10.22-23.54-17.65-33.79l-22.03-66.66h39.68ZM1951.79,245.31c0-3.63.19-7.21.5-10.75l17.59-53.23c21.57-35.07,60.29-58.5,104.4-58.5h41.11c44.1,0,82.83,23.44,104.4,58.5l17.59,53.23c.31,3.55.5,7.13.5,10.75v85.3h-286.09v-85.3ZM1656.96,245.31c0-3.98.21-7.91.58-11.79l16.94-51.26c21.45-35.58,60.48-59.44,104.97-59.44h41.11c44.5,0,83.52,23.86,104.97,59.44l16.94,51.25c.37,3.88.58,7.81.58,11.79v85.3h-286.09v-85.3ZM1362.14,245.31c0-3.98.21-7.91.58-11.79l16.94-51.25c21.45-35.59,60.48-59.44,104.97-59.44h41.11c44.1,0,82.83,23.44,104.4,58.51l17.59,53.22c.31,3.55.5,7.13.5,10.76v85.3h-286.09v-85.3ZM1067.31,245.31c0-3.63.19-7.21.5-10.76l17.59-53.21c21.57-35.07,60.3-58.51,104.4-58.51h41.11c44.1,0,82.83,23.44,104.4,58.5l17.59,53.23c.31,3.55.5,7.13.5,10.75v85.3h-286.09v-85.3ZM772.48,245.31c0-3.98.21-7.92.58-11.81l16.93-51.23c21.45-35.59,60.48-59.46,104.98-59.46h41.11c44.5,0,83.52,23.86,104.97,59.44l16.94,51.25c.37,3.88.58,7.81.58,11.79v85.3h-286.09v-85.3ZM477.65,245.31c0-3.63.19-7.21.5-10.76l17.58-53.21c21.57-35.07,60.3-58.51,104.4-58.51h41.11c44.1,0,82.83,23.44,104.4,58.5l17.59,53.23c.31,3.55.5,7.13.5,10.75v85.3h-286.09v-85.3ZM182.82,245.31c0-3.63.19-7.21.5-10.75l17.59-53.23c21.57-35.07,60.3-58.51,104.4-58.51h41.11c44.5,0,83.52,23.86,104.97,59.44l16.94,51.25c.37,3.88.58,7.81.58,11.79v85.3H182.82v-85.3ZM-112.01,245.31c0-67.54,54.95-122.49,122.49-122.49h41.11c44.5,0,83.53,23.86,104.98,59.46l16.93,51.23c.37,3.89.58,7.82.58,11.81v85.3H-112.01v-85.3Z"/>
  </g>
</svg>