<?xml version="1.0" encoding="UTF-8"?>
<svg id="OBJECTS" xmlns="http://www.w3.org/2000/svg" viewBox="0 0 322.08 272.41">
  <defs>
    <style>
      .cls-1 {
        letter-spacing: 0em;
      }

      .cls-2 {
        letter-spacing: 0em;
      }

      .cls-3, .cls-4 {
        font-family: Neris-Thin, Neris;
        font-size: 20.27px;
        font-weight: 200;
      }

      .cls-3, .cls-5, .cls-6 {
        fill: #383838;
      }

      .cls-7 {
        letter-spacing: 0em;
      }

      .cls-8 {
        letter-spacing: -.02em;
      }

      .cls-4 {
        fill: #fff;
        stroke: #fff;
        stroke-miterlimit: 10;
        stroke-width: .75px;
      }

      .cls-5 {
        stroke-width: 0px;
      }

      .cls-9 {
        letter-spacing: -.01em;
      }

      .cls-6 {
        font-family: MVBoli, 'MV Boli';
        font-size: 13.51px;
      }
    </style>
  </defs>
  <text id="text30889" class="cls-3" transform="translate(300.01 131.23)"><tspan x="0" y="0">2</tspan></text>
  <text id="text30903" class="cls-3" transform="translate(296.69 162.76)"><tspan x="0" y="0">9</tspan></text>
  <text id="text30917" class="cls-3" transform="translate(296.98 194.28)"><tspan x="0" y="0">16</tspan></text>
  <text id="text30931" class="cls-3" transform="translate(293.87 225.81)"><tspan x="0" y="0">23</tspan></text>
  <g id="text30441">
    <text class="cls-6" transform="translate(292.57 98.1)"><tspan x="0" y="0">SUN</tspan></text>
  </g>
  <text id="text30891" class="cls-3" transform="translate(8.52 162.76)"><tspan x="0" y="0">3</tspan></text>
  <text id="text30905" class="cls-3" transform="translate(5.71 194.28)"><tspan x="0" y="0">10</tspan></text>
  <text id="text30919" class="cls-3" transform="translate(3.24 225.81)"><tspan x="0" y="0">17</tspan></text>
  <text id="text30933" class="cls-3" transform="translate(2.93 257.31)"><tspan class="cls-8" x="0" y="0">2</tspan><tspan class="cls-1" x="11.04" y="0">4</tspan></text>
  <g id="text30443">
    <text class="cls-6" transform="translate(0 98.1)"><tspan x="0" y="0">MON</tspan></text>
  </g>
  <text id="text30893" class="cls-3" transform="translate(57.16 162.76)"><tspan x="0" y="0">4</tspan></text>
  <text id="text30907" class="cls-3" transform="translate(54.13 194.28)"><tspan x="0" y="0">11</tspan></text>
  <text id="text30921" class="cls-3" transform="translate(51.88 225.81)"><tspan x="0" y="0">18</tspan></text>
  <text id="text30935" class="cls-3" transform="translate(51.27 257.31)"><tspan class="cls-7" x="0" y="0">2</tspan><tspan class="cls-1" x="11.25" y="0">5</tspan></text>
  <g id="text30445">
    <text class="cls-6" transform="translate(50.49 98.1)"><tspan x="0" y="0">TUE</tspan></text>
  </g>
  <text id="text30895" class="cls-3" transform="translate(102.33 162.76)"><tspan x="0" y="0">5</tspan></text>
  <text id="text30909" class="cls-3" transform="translate(102.94 194.28)"><tspan x="0" y="0">12</tspan></text>
  <text id="text30923" class="cls-3" transform="translate(100.15 225.81)"><tspan x="0" y="0">19</tspan></text>
  <text id="text30937" class="cls-3" transform="translate(103.17 257.31)"><tspan class="cls-9" x="0" y="0">2</tspan><tspan class="cls-1" x="11.23" y="0">6</tspan></text>
  <g id="text30447">
    <text class="cls-6" transform="translate(96.74 98.1)"><tspan x="0" y="0">WED</tspan></text>
  </g>
  <text id="text30897" class="cls-3" transform="translate(154.14 162.76)"><tspan x="0" y="0">6</tspan></text>
  <text id="text30911" class="cls-3" transform="translate(151.03 194.28)"><tspan x="0" y="0">13</tspan></text>
  <text id="text30925" class="cls-3" transform="translate(148.65 225.81)"><tspan class="cls-2" x="0" y="0">2</tspan><tspan x="11.33" y="0">0</tspan></text>
  <g id="text30449">
    <text class="cls-6" transform="translate(146.92 98.1)"><tspan x="0" y="0">THU</tspan></text>
  </g>
  <text id="text30899" class="cls-3" transform="translate(199.96 162.76)"><tspan x="0" y="0">7</tspan></text>
  <text id="text30913" class="cls-3" transform="translate(199.66 194.28)"><tspan x="0" y="0">14</tspan></text>
  <text id="text30927" class="cls-3" transform="translate(197.08 225.81)"><tspan x="0" y="0">21</tspan></text>
  <text id="text30451" class="cls-6" transform="translate(198.84 98.1)"><tspan x="0" y="0">FRI</tspan></text>
  <text id="text30887" class="cls-3" transform="translate(251.2 131.23)"><tspan x="0" y="0">1</tspan></text>
  <text id="text30901" class="cls-3" transform="translate(248.61 162.76)"><tspan x="0" y="0">8</tspan></text>
  <text id="text30915" class="cls-3" transform="translate(245.23 194.28)"><tspan x="0" y="0">15</tspan></text>
  <text id="text30929" class="cls-3" transform="translate(245.88 225.81)"><tspan x="0" y="0">22</tspan></text>
  <text id="text30931-2" data-name="text30931" class="cls-3" transform="translate(293.87 257.52)"><tspan x="0" y="0">30</tspan></text>
  <text id="text30925-2" data-name="text30925" class="cls-3" transform="translate(148.65 257.52)"><tspan class="cls-7" x="0" y="0">2</tspan><tspan x="11.25" y="0">7</tspan></text>
  <text id="text30927-2" data-name="text30927" class="cls-3" transform="translate(197.08 257.52)"><tspan x="0" y="0">28</tspan></text>
  <text id="text30929-2" data-name="text30929" class="cls-4" transform="translate(245.88 257.52)"><tspan x="0" y="0">29</tspan></text>
  <g id="text30453">
    <text class="cls-6" transform="translate(245.29 98.1)"><tspan x="0" y="0">SAT</tspan></text>
  </g>
  <g>
    <g>
      <path class="cls-5" d="M309.03,45.29h-72.11c-.46,0-.83-.37-.83-.83s.37-.83.83-.83h72.11c.46,0,.83.37.83.83s-.37.83-.83.83Z"/>
      <path class="cls-5" d="M235.61,50.32c-.14,0-.29-.04-.41-.11l-8.72-5.03c-.26-.15-.41-.42-.41-.72s.16-.57.41-.72l8.72-5.03c.26-.15.57-.15.83,0,.26.15.41.42.41.72v10.07c0,.3-.16.57-.41.72-.13.07-.27.11-.41.11ZM228.55,44.46l6.23,3.6v-7.2l-6.23,3.6Z"/>
      <g>
        <g>
          <path class="cls-5" d="M296.76,44.9c-.24,0-.47-.1-.64-.3-.29-.35-.25-.87.1-1.17l7.02-5.88c.35-.29.87-.25,1.17.1.29.35.25.87-.1,1.17l-7.02,5.88c-.16.13-.34.19-.53.19Z"/>
          <path class="cls-5" d="M302.59,44.9c-.24,0-.47-.1-.64-.3-.29-.35-.25-.87.1-1.17l7.02-5.88c.35-.29.87-.25,1.17.1.29.35.25.87-.1,1.17l-7.02,5.88c-.16.13-.34.19-.53.19Z"/>
          <path class="cls-5" d="M308.42,44.9c-.24,0-.47-.1-.64-.3-.29-.35-.25-.87.1-1.17l7.02-5.88c.35-.29.87-.25,1.17.1.29.35.25.87-.1,1.17l-7.02,5.88c-.16.13-.34.19-.53.19Z"/>
        </g>
        <g>
          <path class="cls-5" d="M303.77,50.77c-.19,0-.38-.06-.53-.19l-7.02-5.88c-.35-.29-.4-.82-.1-1.17.3-.35.82-.39,1.17-.1l7.02,5.88c.35.29.4.82.1,1.17-.16.2-.4.3-.64.3Z"/>
          <path class="cls-5" d="M309.6,50.77c-.19,0-.38-.06-.53-.19l-7.02-5.88c-.35-.29-.4-.82-.1-1.17.3-.35.82-.39,1.17-.1l7.02,5.88c.35.29.4.82.1,1.17-.16.2-.4.3-.64.3Z"/>
          <path class="cls-5" d="M315.44,50.77c-.19,0-.38-.06-.53-.19l-7.02-5.88c-.35-.29-.4-.82-.1-1.17.3-.35.82-.39,1.17-.1l7.02,5.88c.35.29.4.82.1,1.17-.16.2-.4.3-.64.3Z"/>
        </g>
      </g>
    </g>
    <g>
      <path class="cls-5" d="M82.62,44.51H10.51c-.46,0-.83-.37-.83-.83s.37-.83.83-.83h72.11c.46,0,.83.37.83.83s-.37.83-.83.83Z"/>
      <path class="cls-5" d="M83.94,49.54c-.14,0-.29-.04-.41-.11-.26-.15-.41-.42-.41-.72v-10.07c0-.3.16-.57.41-.72.26-.15.57-.15.83,0l8.72,5.03c.26.15.41.42.41.72s-.16.57-.41.72l-8.72,5.03c-.13.07-.27.11-.41.11ZM84.77,40.08v7.2l6.23-3.6-6.23-3.6Z"/>
      <g>
        <g>
          <path class="cls-5" d="M15.78,50.77c-.24,0-.47-.1-.64-.3-.29-.35-.25-.87.1-1.17l7.02-5.88c.35-.29.87-.25,1.17.1.29.35.25.87-.1,1.17l-7.02,5.88c-.16.13-.34.19-.53.19Z"/>
          <path class="cls-5" d="M9.94,50.77c-.24,0-.47-.1-.64-.3-.29-.35-.25-.87.1-1.17l7.02-5.88c.35-.29.87-.25,1.17.1.29.35.25.87-.1,1.17l-7.02,5.88c-.16.13-.34.19-.53.19Z"/>
          <path class="cls-5" d="M4.11,50.77c-.24,0-.47-.1-.64-.3-.29-.35-.25-.87.1-1.17l7.02-5.88c.35-.29.87-.25,1.17.1.29.35.25.87-.1,1.17l-7.02,5.88c-.16.13-.34.19-.53.19Z"/>
        </g>
        <g>
          <path class="cls-5" d="M22.79,44.9c-.19,0-.38-.06-.53-.19l-7.02-5.88c-.35-.29-.4-.82-.1-1.17.3-.35.82-.4,1.17-.1l7.02,5.88c.35.29.4.82.1,1.17-.16.2-.4.3-.64.3Z"/>
          <path class="cls-5" d="M16.96,44.9c-.19,0-.38-.06-.53-.19l-7.02-5.88c-.35-.29-.4-.82-.1-1.17.3-.35.82-.4,1.17-.1l7.02,5.88c.35.29.4.82.1,1.17-.16.2-.4.3-.64.3Z"/>
          <path class="cls-5" d="M11.13,44.9c-.19,0-.38-.06-.53-.19l-7.02-5.88c-.35-.29-.4-.82-.1-1.17.3-.35.82-.4,1.17-.1l7.02,5.88c.35.29.4.82.1,1.17-.16.2-.4.3-.64.3Z"/>
        </g>
      </g>
    </g>
  </g>
</svg>