<?xml version="1.0" encoding="UTF-8"?>
<svg id="OBJECTS" xmlns="http://www.w3.org/2000/svg" viewBox="0 0 75.99 130.24">
  <defs>
    <style>
      .cls-1 {
        fill: #4c4159;
      }

      .cls-1, .cls-2, .cls-3, .cls-4, .cls-5, .cls-6 {
        stroke-width: 0px;
      }

      .cls-2 {
        fill: #433a49;
      }

      .cls-3 {
        fill: #eaa58f;
      }

      .cls-4 {
        fill: #d88f7c;
      }

      .cls-5 {
        fill: #e7d8e4;
      }

      .cls-6 {
        fill: #fcf6f9;
      }
    </style>
  </defs>
  <g>
    <path class="cls-1" d="M64.48,67.04c-.53,4.47-3.61,7.02-4.15,9.36s-.72,15.05,1.28,19.46c3.14,6.91-.64,15.24-.64,28.28h-6.49s-.32-13.82-.85-20.09c-.18-1.44-2.8-7.36-3.86-13.31-1.06-5.95-3.96-20-3.13-30.03l17.84,6.34Z"/>
    <path class="cls-2" d="M55.48,105.85c.36-4.25-.89-3.3-2.91-9.36-2.02-6.06-.11-28.49,1.59-27.87,1.7.62,7.02,1.4,9.72.89.27-.75.48-1.57.59-2.46l-17.84-6.34c-.83,10.03,2.07,24.07,3.13,30.03,1.06,5.95,3.69,11.87,3.86,13.31.53,6.27.85,20.09.85,20.09h1s-.36-14.03,0-18.29Z"/>
    <path class="cls-2" d="M60.97,124.14c1.15,1.65,2.47,5.47.23,6.11h-17.65c-.5,0-.87-.45-.78-.94.11-.56.41-1.17,1.21-1.22.86-.06,6.59-.9,9.2-3.94,1.19-1.38,1.64,0,3.35,0h4.43Z"/>
  </g>
  <g>
    <path class="cls-3" d="M19.39,76.93c-3.13-.59-8.17.26-11.4-.51-3.23-.77-6.38.09-7.57,0-1.19-.09.09-3.83,5.62-4.94,5.53-1.11,8.08-4.51,9.7-3.4,1.62,1.11,1.13,3.12,3.18,3.57l.48,5.28Z"/>
    <path class="cls-4" d="M15.11,76.71c1.57-.03,3.07-.01,4.28.22l-.48-5.28c-1.55-.34-1.65-1.57-2.31-2.63-.51.31-.77.72-.31,1.25,1.29,1.49-.04,2.21.4,3.02.37.67-.1,2-1.58,3.43Z"/>
    <path class="cls-6" d="M17.38,70.53h0c-.46-.79-.68-1.78-1.65-2.45-1.62-1.11-4.17,2.3-9.7,3.4-5.53,1.11-6.81,4.85-5.62,4.94.62.04,1.76-.16,3.17-.27.35-1.01,1.77-2.05,3.67-2.58,2.77-.77,8.05-3.64,10.14-3.05Z"/>
  </g>
  <g>
    <path class="cls-6" d="M45.35,18.36c-5.36,3.83,1.38,20.81-4.88,25.48-3.3,2.47-6.04,2.46-8.15,7.1-2.48,5.47,1.53,20.16-.61,23.79,0,0-.65-3.08-3.73-2.76-3.08.32-6.81.49-9.08-.32,0,0-4.65,10-4.51,21.73.2,16.68,7.15,36.86,25.67,36.86,0,0,1.86-.38,0-10.43-1.86-10.05-1.35-19.63,3.56-29.73,6.94-14.29.58-28.32,7.15-43.08,6.57-14.76,8.81-16.89,6.31-21.77-2.5-4.88-3.72-7.56-6.19-8.2-2.47-.64-5.55,1.32-5.55,1.32Z"/>
    <path class="cls-5" d="M42.79,86.25c-1.4,9.27-9.55,10.47-2.72,33.56-1.86-10.05-1.35-19.63,3.56-29.73,6.94-14.29.58-28.32,7.15-43.08,6.57-14.76,8.81-16.89,6.31-21.77-1.02-2-1.83-3.62-2.6-4.89l-3.33,4c1.12,4.35-5.86,13.6-9.09,17.59-.4.75-.92,1.4-1.59,1.9,0,0,3.28,1.76,4.07,7.07.79,5.31-.36,26.07-1.76,35.34Z"/>
    <path class="cls-5" d="M31.72,74.73c-1.49,1.69-2.15,10.7-2.92,12.34,0,0-.2-6.13.87-10.15,1.07-4.02,1.24-3.9.54-4.47,0,0,1.07.56,1.51,2.27Z"/>
  </g>
  <g>
    <path class="cls-3" d="M63.96,17.05c-.82,1.78-1.54,3.94-2,6.34,4.22-1.85,8.09-1.21,8.15-1.18.05-.06,1.31-5.33,1.31-5.39,0-1.1-.11-2.12-2.31-2.12-2.04,0-4.53.97-5.16,2.35Z"/>
    <path class="cls-4" d="M69.13,14.7c-2.04,0-4.53.97-5.16,2.35-.65,1.41-1.23,3.06-1.68,4.88,1.68-.59,2.89-2.46,4.17-2.46.63,0,1.28.43,1.28,1.29,0,.42-.13.88-.27,1.35,1.57-.08,2.61.09,2.65.11.05-.06,1.31-5.33,1.31-5.39,0-1.1-.11-2.12-2.31-2.12Z"/>
    <path class="cls-2" d="M62.19,9.1c-.54.46-1.2.18-1.2-.41,0-.26.24-.51.79-.64-.48-.29-.72-.72-.72-1.29,0-1,1.22-1.55,2.25-1.55,2.38,0,.73,2.28,2.71,2.28.55,0,1.14-.09,1.67-.16,2.89-.35,4.31.45,4.31,2,0,.21-.05.45-.16.71.48.23,2.08.18,2.08,2.04,0,2.46-1.45,4.5-3.23,8.29-.07.14-.27.12-.3-.04-.72-3.69-2.55-2.2-3.39-3.11-.32-.34-.43-1.91-.95-1.91,0,0,0,0,0,0-.71.02-1.32.39-1.98.39-1.52,0-2.5-2-2.5-3.73,0-.94.11-2.23.64-2.89Z"/>
    <path class="cls-3" d="M62.82,8.65c-2.6,1.7-4.15,4.74-3.95,8.08.11,1.89,1.02,3.87,2.58,3.87,1.73,0,2.77-2.62,4.17-3.95.26.96,1.81.52,2.72-1.75.24-.6.14-1.74-1.01-1.77-1.31-.04-1.7,1.57-2.86,1.57-.23,0-.75-.07-.75-.41,0-.48.74-1.2.81-1.89.07-.66-.23-1.53-1.51-1.02.42-.49,1.49-1.26,1.47-1.95-.03-1.15-.89-1.29-1.68-.78Z"/>
  </g>
  <g>
    <path class="cls-1" d="M59.34,23.8c.43-1.61,10.64-2.34,12.51-2.42,0,0,.96.63-.86,4.45,0,0,1.76,3.27-.31,11.21-2.07,7.94-8.31,15.07-8.72,16.94-.39,1.77,3.77,6.63,4.63,12.41.07.5-.26.96-.76,1.03-2.94.39-12.72,1-19.2-6.71,0,0,3.57-20.59,12.26-34.26l.45-2.64Z"/>
    <path class="cls-2" d="M71.85,21.38c-1.86.08-12.08.81-12.51,2.42l-.45,2.64c-8.69,13.66-12.26,34.26-12.26,34.26,2.49,2.96,5.46,4.69,8.34,5.68-.26-3.17-.58-7.91-.31-8.92.41-1.54,2.51.32,2.76.73.24.41-2.03-5.03-2.19-6.16-.16-1.14,1.84-7.67,3-9.65,1.8-3.08,7.71-4.78,9.46-12.1.63-2.64,3.87-1.19,3.87-1.19,0,0,.03-.1.08-.28-.16-2.05-.65-2.98-.65-2.98,1.82-3.82.86-4.45.86-4.45Z"/>
  </g>
  <path class="cls-1" d="M40.48,43.84c-.81-2.35-.32-8.99.65-10.37.97-1.39,7.95-4.41,13.38-7.64,5.43-3.23,11.1-3.34,12.36,1.21,1.26,4.55-1.52,7.88-3.21,8.45-1.69.57-4.89-.89-12.07,1.56-3.03,1.04-4.67,2.07-6.46,3.4-.99,1.58-2.5,3.03-4.65,3.4Z"/>
  <path class="cls-4" d="M46.54,12.54c-.18,2-.61,3.9-1.19,5.82,1.14-.33,2.94-1.09,4.48-1.09.66,0,1.27.14,1.76.52.77-1.33,1.51-3.6,1.51-5.6,0-2.72-1.52-4.04-2.82-4.04-1.84,0-3.56,2.45-3.73,4.39Z"/>
  <path class="cls-2" d="M48.34,3.62c.39-.6.61-1.37.61-2.04,0-.86-.36-1.47-1.18-1.56-1.91-.23-1.94,2.41-3.22,2.41-.94,0-1.34-1.26-2.92-1.26-1,0-1.82.99-1.82,2.47,0,1.74,1.45,3.61,3.98,3.61,1.59,0,3.5-2.01,4.54-3.62Z"/>
  <path class="cls-6" d="M43.38,8.05c-.44,0-1.1-.19-1.1-.55s.49-.54.87-.54c.63,0,.79-.34.79-.63,0-.4-.47-.79-.47-1.17,0-.98,1.59-.38,2.14-.73.7-.45,0-2.06.81-2.06.37,0,.72.3,1.07.3.68,0,.97-1.49,1.58-1.49.2,0,.27.23.27.41,0,1.63-5.62,6.46-5.96,6.46Z"/>
  <path class="cls-2" d="M57.01,9.48c.98-.29,1.75-1.53,1.75-2.63,0-2.53-2.77-1.37-3.9-2.34-1.05-.91-2.14-3.08-3.84-3.08s-7.41,3.98-8.19,8.36c-.32,1.81,1.54,3.02,2.53,4.21.59.71.28,1.93.66,1.87,2.97-.45,1.86-5.22,3.31-6.3.24-.18,3.58,3.61,4.33,3.29,1.39-.58,2.46-2.33,3.36-3.37Z"/>
  <path class="cls-3" d="M57.31,7.15c-1.3.79-1.81,1.06-2.68,1.06-.44,0-.98-.07-1.75-.18-.14.17.08,1.33-1.04,3.04-.47.13-.54-.43-.54-.82,0-.8-.31-1.32-.95-1.45-.67-.14-1.2.85-1.33,1.68-.2,1.24.45,2.37,1.19,2.19.14,1.56.56,4.44,2.53,4.44,3.11,0,4.64-5.28,4.64-8.5,0-.49-.02-.98-.07-1.46Z"/>
  <path class="cls-3" d="M66.03,20.6c-.06-.02-13.29-3.56-15.14-3.56-3.11,0-4.76,1.79-4.76,3.55s1.59,3.76,5.02,3.76c1.43,0,9.61-.36,11.96-.36,1.11,0,7.23,3.05,8.61,5.31l-1.04,7.73s.46.15.75-.62c.29-.77.98-1.85,1.4-2.08.42-.23,1.81-3.73,1.73-4.54-.08-.81-.42-3.34-1.73-4.96-1.31-1.61-6.8-4.25-6.8-4.25Z"/>
  <g>
    <path class="cls-4" d="M72.84,24.85c-.22-.27-.57-.58-.99-.9-.33-.08-.68-.11-1.05-.15-.26.12-.65.35-.65.63,0,.47,1.52.37,1.59.7,0,.02,0,.03,0,.05,0,.44-1.68.92-1.68,2.06,0,.09.08.29.2.53.54.45.99.89,1.3,1.31.2-.03.43-.08.61-.08.12,0,.46.08.78.08.34,0,1.06-.13,1.41-.6-.22-1.11-.67-2.57-1.53-3.64Z"/>
    <path class="cls-3" d="M71.69,23.38c-.66.04-1.25.04-1.25.78,0,.41.5.5.91.5.37,0,.99-.08,1.33-.08.17,0,.33.04.33.22,0,0,0,.01,0,.02-.04.84-2.74.58-2.74,1.96,0,.18.11.33.41.37-.04.2-.11.41-.11.59,0,.21.1.37.45.41.05.19.05.44.24.55.01,0,.03.01.06.01.18,0,.63-.14.82-.14,0,0,0,0,.01,0,.64.02,1.02.1,1.34.1.81,0,2.49-1.3,2.49-1.58,0-.19-.23-.4-.24-.58,0,0,0,0,0-.01,0-.16.11-.3.12-.46,0,0,0,0,0-.01,0-.17-.13-.29-.15-.46,0-.02,0-.04,0-.07,0-.2.1-.42.1-.63,0-1.51-1.78-1.9-2.8-1.9-.5,0-.96.04-1.15.13-.1.05-.15.2-.19.3Z"/>
  </g>
  <path class="cls-3" d="M43.09,34.35c1.13.17,1.56.45,1.56,1.02,0,.43-.4.61-.84.61-.58,0-1.52-.34-1.86-.42.28.3.41.37.4.68-.01.29-.18.5-.85.38-.6-.11-1.3-.14-1.57-.19-.57-.27-.51-1.4-.64-2.07s-.08-1.78,1.03-2.37c1.11-.59,1.97-1.09,2.49-1.42.53-.32,2.25.02,3.12-.24.87-.26.77.93-.3,1.22,0,0,.36.22,1.16.61.79.39,1.34.78,1.18,1.32-.16.54-1.14.5-1.14.5,0,0,.45.99-.36,1.05-.8.06-1.5-.42-1.94-.58-.45-.16-1.44-.09-1.44-.09Z"/>
</svg>