<?xml version="1.0" encoding="UTF-8"?>
<svg id="OBJECTS" xmlns="http://www.w3.org/2000/svg" viewBox="0 0 73.14 108.43">
  <defs>
    <style>
      .cls-1 {
        fill: #4c4159;
      }

      .cls-1, .cls-2, .cls-3, .cls-4, .cls-5, .cls-6, .cls-7, .cls-8 {
        stroke-width: 0px;
      }

      .cls-2 {
        fill: #433a49;
      }

      .cls-3 {
        fill: #eaa58f;
      }

      .cls-4 {
        fill: #c8dff6;
      }

      .cls-5 {
        fill: #d88f7c;
      }

      .cls-6 {
        fill: #e7d8e4;
      }

      .cls-7 {
        fill: #fcf6f9;
      }

      .cls-8 {
        fill: #b6d1e7;
      }
    </style>
  </defs>
  <g>
    <g>
      <g>
        <path class="cls-1" d="M46.9,58.92c-2.22,7.03-4.12,20.13-3.7,22.14.42,2.01,1.27,3.17,1.59,4.23.31,1.06,2.74,14.44,2.74,15.77,0,0,.44,1.03,1.82,1.03,1.08,0,1.77-1.03,1.77-1.03,0,0,.46-6.16.75-10.6.37-5.78-2.28-7.76-2.38-9.24-.11-1.48,4.65-12.2,4.65-12.2l1.42-11.67-8.66,1.57Z"/>
        <path class="cls-2" d="M51.91,89.09c-.08-4.73-2.32-6.51-2.41-7.87-.11-1.48,4.65-12.2,4.65-12.2l.95-7.8-1.1-3.59-7.09,1.28c-.31.99-.62,2.11-.91,3.3,2.51,1.77,4.06,4.83,4.43,6.46.41,1.8-2.2,10.4-2.6,12.1-.4,1.7,4.09,4.09,4.09,8.32Z"/>
        <path class="cls-1" d="M51.89,58.5c-1,6.56.17,8.22.58,8.88.42.66,2.91,1.99,3.4,5.15.5,3.15,1.31,8.94,2.7,11.62,1.98,3.83,1.12,17.68,1.12,17.68h3.77c0-4.57,2.87-11.62,2.29-15.77-.34-2.43-1.33-4.23-1.58-5.89-.25-1.66,1.92-15.27-.08-20.92-2-5.64-12.21-.75-12.21-.75Z"/>
        <path class="cls-2" d="M64.1,59.25c-2-5.64-12.21-.75-12.21-.75-.18,1.17-.29,2.18-.34,3.06.52-.94,2.16,1.72,10.35,2.91,2.71.39,2.25,10.18,2.29,14.45.24-3.87,1.65-14.78-.09-19.68Z"/>
      </g>
      <path class="cls-2" d="M47.53,100.72c1.82-.13,1.22,1.27,2.39.95.83-.23,1.21-.6,1.21-.6,0,0,1.4-.2,1.4,3.68,0,.47-.4.78-.56.84-.64.21-2.46.87-3.3,1.85-1.02,1.21-1.76.99-2.27.99h-5.52s-.19-1.24.74-1.66c.93-.42,2.55-.97,3.16-1.86.6-.88,1.86-2.27,2.18-2.78.32-.51.03-1.36.58-1.4Z"/>
      <path class="cls-2" d="M59.92,101.47c-.75.7-.5,2.57-.71,3.75s-1.14,2.07-.16,3.2h7.13s1.77-.97-.55-2.86c-.65-.53-.93-1.31-1.5-2.32-.43-.76-.65-1.57-.9-1.77-.87-.7-2.92-.36-3.31,0Z"/>
    </g>
    <g>
      <path class="cls-1" d="M50.62,27.95c-2.96-.4-8.57.03-10.81-1.76-1.3-1.04-7.05-8.26-7.05-8.26l-2.35,4.23s3.53,6.1,4.76,7.6c1.23,1.51,6.82,4.01,8.99,5.11,2.17,1.1,3.21,3.9,3.21,3.9l3.25-10.82Z"/>
      <path class="cls-2" d="M49.29,28.49c-1.97,2.08-2.4,5.42-3.56,5.79-.88.28-8.4-2.89-8.41-2.9,2.2,1.31,5.32,2.73,6.82,3.49,2.17,1.1,3.21,3.9,3.21,3.9l2.87-9.55-.94-.74Z"/>
    </g>
    <path class="cls-2" d="M59.47,26.19c.47,0,.25-.47,0-1.25-.25-.79,2.11-3.01,2.33-4.15.21-1.15-.59-1.58-1.17-1.83s.46-1.9-.83-3.01c-1.29-1.11-3.9-1.97-6.3-.68-2.4,1.29-3,.07-4.2.61-1.21.54-.99,2.33.8,3.37.97,1.22,1.32,2.86,3.4,4.87,2.08,2,5.98,2.08,5.98,2.08Z"/>
    <path class="cls-3" d="M53.06,26.05c.39,1.79.68,3.94.86,4.4.18.47.63.99,1.45,1.17.82.18,4.78-2.31,5.03-4.07,0,0-1-.5-1.29-3.01-.29-2.51-2.9-1.61-2.9-1.61l-3.15,3.11Z"/>
    <path class="cls-5" d="M60.4,27.55s-1-.5-1.29-3.01c-.29-2.51-2.9-1.61-2.9-1.61l-3.15,3.11c.25,1.12.45,2.38.61,3.28.5-1.41,1.57-2.55,3.06-2.6,2.05-.07.39,3.28-.48,3.74,1.42.16,3.79-1.71,4.15-2.91Z"/>
    <path class="cls-3" d="M50.09,19.25c-1.41,3.15-.87,7.79.96,8.36,1.83.57,3.73-1.24,4.3-3.53,0,0,.57,1,1.9-.36,1.32-1.36.68-2.9-.18-2.65-.86.25-2.08,2.64-2.79,2.22-1.04-.61.85-3.16.11-3.66-.95-.65-2.78.39-4.3-.39Z"/>
    <g>
      <path class="cls-1" d="M61.06,27.55c-2.06,3.01-5,8.93-6.83,14.21,0,0-1.24-6.95-.68-11.31.15-1.14-.42-2.13-.42-2.13,0,0-2.65-.88-3.83.16-1.18,1.04-3.43,6.17-1.36,12.54,2.41,7.39-3.63,16.25-3.11,18.07s5.01,2.9,6.74.45c0,0-.02,2.01,6.25,2.67,5.29.55,7.67-2,6.98-3.55-.69-1.56-2.94-4.67-1.3-9.16,1.64-4.5,8.27-14.97,4.76-18.93-2.52-2.84-7.2-3.01-7.2-3.01Z"/>
      <path class="cls-6" d="M54.22,41.76s-1.86-7.99-.67-10.88h5.8c-2.44,3.54-5.13,10.88-5.13,10.88Z"/>
      <path class="cls-7" d="M55.87,31.2c.98.21,1.59,1.86,1.9,2.16,0,0,4.11-3.88,4.1-5.72-.06-.38-.88-.06-1.36-.43-.47-.37-.59-1.12-1.05-1.01,0,0,.4.92-1.32,2.81-1.73,1.91-2.86,1.57-2.86,1.88,0,.12.13.22.58.31Z"/>
      <path class="cls-2" d="M54.22,41.76l-.34-2.23c-.32-2.41-.7-6.28-.34-9.08.15-1.14-.42-2.13-.42-2.13,0,0-1.87-.61-3.17-.2-.85,2.73-.03,5.22,1.43,7.79,1.36,2.39,2.49,4.85,2.83,5.84Z"/>
      <path class="cls-1" d="M53.16,27.88c-.24-.11-.54.09-.77.09-.95.02-1.53-.29-1.77-.02-.18.21-.46,1.62-.09,3.84l2.2.05-2.09.52c.26,1.25.72,2.72,1.5,4.37,1.58,3.33,2.08,5.02,2.08,5.02-.33-1.85-1.1-12.47-1.07-13.89Z"/>
      <path class="cls-7" d="M53.39,27.72c-.45.21-.46.56-.33,1.16.13.6.03,3.6.29,3.96,0,0,.45.09.59-.83s1.35-.91,1.35-1.12c0-.17-.25-.13-.59-.36-.42-.28-.89-.76-1.1-1.61l-.21-1.2Z"/>
      <path class="cls-2" d="M65.38,28.56c-2.17-.93-4.32-1.01-4.32-1.01-1.82,2.66-4.32,7.58-6.14,12.33l-.69,1.88c1.81-3.42,10.46-8.52,11.15-13.2Z"/>
      <path class="cls-1" d="M59.64,32.46h2.9c1.69-2.47,1.76-4.47,1.35-4.59-.46-.14-1.34-.33-2.63-.89-.91-.4-.99-.05-.99-.05.31,1.74-4.83,9.8-6.04,14.83,1.24-2.92,5.22-5.49,7.58-8.33l-2.16-.98Z"/>
      <g>
        <path class="cls-4" d="M55.02,31.14c-.51-.58-2.09-1.26-2.28-1.11-.24.19-.83,2.25-.48,3.17.11.3,2.69-.77,2.69-.77,0,0,.15-.08.2-.53.03-.26.02-.59-.12-.76Z"/>
        <path class="cls-8" d="M55.14,31.9c.03-.26.02-.59-.12-.76-.08-.09-.19-.19-.32-.28.13.12-.04.69-.53.56l-.03.21s.26-.02.32.3c.06.36-.36.73-1.1.91-.74.18-1.12.35-1.19,0,.02.13.04.25.08.36.11.3,2.69-.77,2.69-.77,0,0,.15-.08.2-.53Z"/>
        <path class="cls-8" d="M54.84,31.63c-1-.39-2.06-.43-2.11-.2-.05.23,2.11.2,2.11.2Z"/>
        <path class="cls-4" d="M55.72,31.06c-.27-.17-.8-.12-.9,0-.37.43-.27,1.26-.05,1.49.11.12.72.16.92-.04,0,0-.09-.33-.12-.57-.06-.46-.01-.79.15-.88Z"/>
        <path class="cls-4" d="M55.72,31.06c.76-.52,2.55-1.05,2.73-.86.23.24.23,2.46-.19,3.31-.14.29-2.57-1-2.57-1,0,0-.21-.11-.23-.62-.01-.3.03-.67.26-.83Z"/>
        <path class="cls-8" d="M55.47,31.74c1.19-.38,2.37-.24,2.36.1,0,.33-2.36-.1-2.36-.1Z"/>
        <path class="cls-8" d="M55.47,31.89c.02.51.23.62.23.62,0,0,2.43,1.29,2.57,1,.18-.35.28-.94.32-1.53-.06.45-.33,1.27-.56,1.28-.31.01-1.89-.66-2.17-.97-.18-.19-.13-.51.12-.47.06-.08,0-.21,0-.21-.23.03-.45-.24-.25-.55-.23.16-.27.53-.26.83Z"/>
      </g>
    </g>
    <path class="cls-2" d="M69.14,35.21l-4.1-.56c-.95,3.61-.5,7.17-.44,7.96.06.79-4.35,8.75-4.52,10.5-.17,1.75,5.15,6.89,3.07,7.82,1.51-.54,2.04-1.4,1.64-2.28-.69-1.56-2.94-4.67-1.3-9.16,1.18-3.22,4.91-9.51,5.65-14.28Z"/>
    <g>
      <path class="cls-1" d="M67.42,29.77c3.98,3.07,5.26,12.32,5.58,15.04.32,2.71,0,12.55,0,12.55h-4.16s0-2.73-.08-5.44c-.08-2.71-.32-4.95-.32-4.95,0,0-2.05-3.84-3.07-5.92-1.01-2.08-.63-10.66,2.04-11.27Z"/>
      <g>
        <path class="cls-3" d="M73,58.92v3.66c0,.41-1.19,2.09-1.45,2.21-.26.12-2.4.78-2.63.78s-.17-.72,0-.87c.17-.14.95-.61.95-.61,0,0-.11-1.53-.21-1.65-.11-.12-.9-.1-.89.14,0,.24.21,1.05-.14,1.45s-.64.55-.84.38c-.2-.17.06-.69,0-1.24-.06-.55-.06-1.54.17-1.91.23-.37,1.03-1,1.58-2.39l3.45.06Z"/>
        <path class="cls-5" d="M69.48,59.03s1.9-.03,2.64.21.89,1.96.89,2.47v-2.79l-3.45-.06-.07.17Z"/>
      </g>
      <polygon class="cls-7" points="69.14 57.35 69.14 58.85 73 58.92 73 57.35 69.14 57.35"/>
    </g>
    <polygon class="cls-7" points="30.76 21.52 29.65 19.44 31.6 16.29 32.75 17.93 30.76 21.52"/>
    <path class="cls-5" d="M31.6,16.29c-.37-.93-.76-2.85-1.2-3.27-.44-.42-3.35-.56-3.96-.63-.61-.07-.87.54-.56.89.3.35-.07.74.23,1.06s1.52,1.31,1.8,1.59.23,1.45.89,1.83c.66.38,1.27.99,1.27.99l1.52-2.46Z"/>
  </g>
  <g>
    <path class="cls-3" d="M30.79,13.77c-.81.63-1.37-.05-1.75-.45s-.87-.87-1.31-.61c-.45.26.24,1.2.94,1.52.7.33-.24,2.2,1.21,2.81l.92.52.79-1.28-.8-2.52Z"/>
    <path class="cls-5" d="M30.06,14.02c.77.06,1.09,2.12.28,3.28l.47.27.79-1.28-.8-2.52-.74.25Z"/>
  </g>
  <path class="cls-5" d="M28.01,14.06s.22-.77.53-.78l-.16.94-.36-.16Z"/>
  <g>
    <g>
      <path class="cls-3" d="M26.18,32c.6-1.56.66-2.83.51-3.78-.15-.95-1.7-8.12-1.85-10.04-.15-1.92,3.6-11.91,3.52-12.57,0,0-.48-1.75.73-2.64.67-.49,1.2-1.1,1.39-1.36.19-.26-.15-1.32,0-1.55.15-.23,1.14.3,1.14.3l1.14,1.4s-.32,2.35-.5,2.61c-.18.26-1.88,1.48-2.19,1.97-.3.49-1.06,10.03-1.27,11.02-.21.98,1.7,14.19,1.7,14.19l-4.31.46Z"/>
      <path class="cls-5" d="M26.69,28.22c.15.95.09,2.22-.51,3.78l4.31-.46s-1.91-13.2-1.7-14.19c.15-.74.62-6.27.97-9.21-1.47,7.58-4.58,7.97-3.76,5.06h0c-.68,2.2-1.23,4.21-1.17,4.97.15,1.92,1.7,9.09,1.85,10.04Z"/>
      <path class="cls-5" d="M32.74,1.76l-1.14-1.4s-.98-.53-1.14-.3.19,1.29,0,1.55c-.1.14-.31.39-.58.67h0c.55.7-.4,1.19-.54,1.82l2.01.47s.62-.6,1.16-1.3c.13-.71.23-1.5.23-1.5Z"/>
    </g>
    <path class="cls-2" d="M27.55,18.06c-1.39-.03-2.99,2.46-1.42,4.71,0,0,1.19,3.12,1.19,4.72v2.03c0,1.37,1.11,2.49,2.49,2.49h.03v-12.22l-2.3-1.73Z"/>
    <g>
      <path class="cls-7" d="M29.45,31c-2.1.07-3.91,1.41-6.1,2.53-2.2,1.12-3.16,2.51-1.43,6.61,1.73,4.1.98,9.82.5,12.94-.48,3.12-18.94,19.95-22.4,55.34h49.02s1.87-26.3-11.75-49.85c-6.34-10.97-5.95-13.87-5.29-16.04,1.06-3.52,7.01-5.95,5.37-11.53h-7.91Z"/>
      <path class="cls-6" d="M37.27,58.58c-6.34-10.97-5.95-13.87-5.29-16.04.6-1.99,2.76-3.63,4.24-5.69l-3.58.02c-.47,1.22-3.17,3.45-4.61,6.15-1.44,2.7,16.44,21.15,16.44,65.42h4.56s1.87-26.3-11.75-49.85Z"/>
    </g>
    <g>
      <path class="cls-3" d="M28.53,25.64c1.04,3.2.88,5.04.92,5.36.04.32-3.76,1.44-5.16,2.8,0,0,5-2.28,10.12-3.2,0,0-2.04-6.16-2.16-6.12-.12.04-3.72,1.16-3.72,1.16Z"/>
      <path class="cls-5" d="M32.24,24.48c-.12.04-3.72,1.16-3.72,1.16.53,1.63.75,2.9.84,3.81.62.68.99,1.44,1.13,2.09,1.24-.36,2.57-.7,3.91-.94,0,0-2.04-6.16-2.16-6.12Z"/>
    </g>
    <path class="cls-3" d="M27.29,18.52c-1.8,2-1.29,8.61.7,8.78,1.99.18,3.81-2.23,3.98-3.46.18-1.23-3.05-7.14-4.68-5.33Z"/>
    <g>
      <path class="cls-2" d="M32.55,16.72c-.5-1.13.59-2.22,1.57-2.03.98.19,1.4,1.41,1.54,2.25,0,0,.9-.41,1.51.65.42.72-.17,1.56-1.54,1.6-1.05.03-3.08-2.47-3.08-2.47Z"/>
      <path class="cls-7" d="M32.67,16.83c-.15-.18-.32-.52-.34-.86-.02-.28-.17-.71,0-.78.46-.19.78.96,1.04,1.1.18.1.47-.24.75-.24.16,0,.35.13.35.34,0,.16-.09.35-.09.52,0,.18.13.35.31.35.15,0,.32-.06.47-.09.18-.03.36.07.36.43,0,.27-.01.41.18.5.17.08.38-.05.52-.05.32.02.1.46.32.64.23.19.53.07.53.21,0,.19-.29.24-.48.24-.57,0-.24-.49-1.31-.49-.18,0-.35.02-.53.02-.06,0-.13,0-.19-.01-.99-.13-1.56-1-1.89-1.83Z"/>
    </g>
    <g>
      <path class="cls-3" d="M32.79,31.43c-2.11,1.71-1.33,5.59,1.61,6.65,0,0,.67,4.01,1.01,8.85.35,4.84,3.79,10.55,3.46,12.45-.33,1.9-.76,2.35.02,3.51.79,1.16.99,2.36,1.38,2.77.39.41.73.57.91.3s.27-.57-.09-1.11c-.36-.55-.36-.98-.36-.98,0,0,.96,1.27,1.23,1.73.86,1.47,1.31,3,1.83,3,0,0,.74.29.44-.67,0,0,.52-.29,0-1.21-.56-.99-1.27-2.39-1.63-3.29-.36-.9-1.5-2.46-1.86-4.86-.36-2.4-.66-8.46-.96-10.68-.3-2.22-.84-3.06-.84-9.3s-.97-7.34-3.13-7.84c-1.71-.4-3.02.7-3.02.7Z"/>
      <path class="cls-5" d="M34.4,38.08c-.25-1.5-.98-3.35-1.56-3.38,0,0,.24.73-.21,2.15,0,0,.76.94,1.77,1.22Z"/>
    </g>
    <path class="cls-2" d="M27.29,18.52c1.31,0,1.97,1.81,1.97,4.23v3.5c0,1.5,1.22,2.72,2.72,2.72h0s.47,4.22,5.49,4.22c0,0-.58,3.96,4.12,4.01,0,0-1.58-1.53-.32-3.54,1.27-2.01.63-4.86-2.32-5.12,0,0-2.42-1.12-2.42-4.57,0,0,1.35-1.43,1.26-2.8-.11-1.5-.63-2.13-2.67-3.25-1.23-.68-1.72-2.29-4.07-1.97-3.54.47-4.84,2.58-3.75,2.58Z"/>
  </g>
  <path class="cls-3" d="M29.26,4.67c-.15-.91,1.14-1.96,2.23-1.93,0,0,.56-2.2.92-2.42.36-.23.5.25.33,1.44-.19,1.29-.28,2.01-.5,2.61l-1.63,1.39-1.35-1.09Z"/>
</svg>