<?xml version="1.0" encoding="UTF-8"?>
<svg xmlns="http://www.w3.org/2000/svg" xmlns:xlink="http://www.w3.org/1999/xlink" viewBox="0 0 390 141.11">
  <defs>
    <style>
      .cls-1 {
        fill: #fff;
        mix-blend-mode: soft-light;
      }

      .cls-1, .cls-2, .cls-3, .cls-4, .cls-5, .cls-6, .cls-7, .cls-8, .cls-9, .cls-10 {
        stroke-width: 0px;
      }

      .cls-2 {
        fill: url(#_Áåçûìÿííûé_ãðàäèåíò_96-4);
      }

      .cls-2, .cls-4, .cls-7, .cls-10 {
        mix-blend-mode: color-dodge;
      }

      .cls-3 {
        fill: url(#_Áåçûìÿííûé_ãðàäèåíò_70-4);
      }

      .cls-3, .cls-5, .cls-8, .cls-9 {
        opacity: .8;
      }

      .cls-4 {
        fill: url(#_Áåçûìÿííûé_ãðàäèåíò_96-2);
      }

      .cls-5 {
        fill: url(#_Áåçûìÿííûé_ãðàäèåíò_70);
      }

      .cls-11 {
        isolation: isolate;
      }

      .cls-6 {
        fill: none;
      }

      .cls-7 {
        fill: url(#_Áåçûìÿííûé_ãðàäèåíò_96-3);
      }

      .cls-8 {
        fill: url(#_Áåçûìÿííûé_ãðàäèåíò_70-2);
      }

      .cls-9 {
        fill: url(#_Áåçûìÿííûé_ãðàäèåíò_70-3);
      }

      .cls-12 {
        clip-path: url(#clippath);
      }

      .cls-10 {
        fill: url(#_Áåçûìÿííûé_ãðàäèåíò_96);
      }
    </style>
    <clipPath id="clippath">
      <rect class="cls-6" x="-1.04" width="392.08" height="844.88"/>
    </clipPath>
    <linearGradient id="_Áåçûìÿííûé_ãðàäèåíò_70" data-name="Áåçûìÿííûé ãðàäèåíò 70" x1="899.6" y1="125.39" x2="899.6" y2="-44.76" gradientTransform="translate(734.17) rotate(-180) scale(1 -1)" gradientUnits="userSpaceOnUse">
      <stop offset="0" stop-color="#fcf6bf"/>
      <stop offset="1" stop-color="#e3ab84"/>
    </linearGradient>
    <linearGradient id="_Áåçûìÿííûé_ãðàäèåíò_96" data-name="Áåçûìÿííûé ãðàäèåíò 96" x1="448.16" y1="40.35" x2="1351.05" y2="40.35" gradientTransform="translate(734.17) rotate(-180) scale(1 -1)" gradientUnits="userSpaceOnUse">
      <stop offset="0" stop-color="#000"/>
      <stop offset="1" stop-color="#61685f"/>
    </linearGradient>
    <linearGradient id="_Áåçûìÿííûé_ãðàäèåíò_70-2" data-name="Áåçûìÿííûé ãðàäèåíò 70" x1="112.75" y1="138.79" x2="112.75" y2="-31.35" xlink:href="#_Áåçûìÿííûé_ãðàäèåíò_70"/>
    <linearGradient id="_Áåçûìÿííûé_ãðàäèåíò_96-2" data-name="Áåçûìÿííûé ãðàäèåíò 96" x1="-338.7" y1="53.76" x2="564.19" y2="53.76" xlink:href="#_Áåçûìÿííûé_ãðàäèåíò_96"/>
    <linearGradient id="_Áåçûìÿííûé_ãðàäèåíò_70-3" data-name="Áåçûìÿííûé ãðàäèåíò 70" x1="242.81" y1="77.08" x2="242.81" y2="-50.11" xlink:href="#_Áåçûìÿííûé_ãðàäèåíò_70"/>
    <linearGradient id="_Áåçûìÿííûé_ãðàäèåíò_96-3" data-name="Áåçûìÿííûé ãðàäèåíò 96" x1="-94.66" y1="13.51" x2="580.28" y2="13.51" xlink:href="#_Áåçûìÿííûé_ãðàäèåíò_96"/>
    <linearGradient id="_Áåçûìÿííûé_ãðàäèåíò_70-4" data-name="Áåçûìÿííûé ãðàäèåíò 70" x1="923.69" y1="59.27" x2="923.69" y2="-67.92" xlink:href="#_Áåçûìÿííûé_ãðàäèåíò_70"/>
    <linearGradient id="_Áåçûìÿííûé_ãðàäèåíò_96-4" data-name="Áåçûìÿííûé ãðàäèåíò 96" x1="586.21" y1="-4.3" x2="1261.16" y2="-4.3" xlink:href="#_Áåçûìÿííûé_ãðàäèåíò_96"/>
  </defs>
  <g class="cls-11">
    <g id="OBJECTS">
      <g class="cls-12">
        <g>
          <g>
            <path class="cls-5" d="M286.02-40.79S184.28,124.33-125.06,125.38c-336.24,1.14-491.82-170.14-491.82-170.14l13.74.76S-376.92.21-118.84.21s382.98-41,382.98-41h21.87Z"/>
            <path class="cls-1" d="M-572.02-21.47S-386.16,105.28-199.18,114.17C-12.2,123.06,137.73,60.93,137.73,60.93c0,0-154.67,53.55-310.69,49.96-156.02-3.59-288.33-80.6-288.33-80.6,0,0,15.55-1.56,29.16,2.11,50.63,13.64,146.03,49.73,283.76,49.73S123.83,38.36,123.83,38.36c0,0-137.97,41.15-272.2,40.76-221.01-.65-356.53-90.34-356.53-90.34l52.86,32.1-15.44,1.88-104.54-44.23Z"/>
            <path class="cls-1" d="M223.43-16.95S-11.68,34.17-137.11,31.58c-125.43-2.59-300.05-41.23-300.05-41.23,0,0,186.48,36.04,318.71,36.04C2.55,26.38,223.43-16.95,223.43-16.95Z"/>
            <path class="cls-1" d="M286.02-40.79S218.67-12.06,153.15,5.73C90.43,22.76-90.12,54.28-90.12,54.28c0,0,168.52-20.63,253.29-44.06,55.34-15.3,122.84-51.01,122.84-51.01Z"/>
            <path class="cls-10" d="M-603.13-44S-458.13,119.33-142.06,122.97c316.07,3.64,428.07-163.75,428.07-163.75,0,0-82.87,161.8-411.07,166.17-328.2,4.37-491.82-170.14-491.82-170.14l13.74.76Z"/>
          </g>
          <g>
            <path class="cls-8" d="M1072.87-27.38s-101.74,165.12-411.07,166.17C325.56,139.93,169.98-31.35,169.98-31.35l13.74.76S409.93,13.62,668.02,13.62s382.98-41,382.98-41h21.87Z"/>
            <path class="cls-1" d="M214.83-8.07s185.86,126.75,372.84,135.64c186.98,8.89,336.91-53.24,336.91-53.24,0,0-154.67,53.55-310.69,49.96-156.02-3.59-288.33-80.6-288.33-80.6,0,0,15.55-1.56,29.16,2.11,50.63,13.64,146.03,49.73,283.76,49.73s272.2-43.77,272.2-43.77c0,0-137.97,41.15-272.2,40.76C417.47,91.87,281.95,2.19,281.95,2.19l52.86,32.1-15.44,1.88L214.83-8.07Z"/>
            <path class="cls-1" d="M1010.28-3.54s-235.1,51.12-360.53,48.53C524.32,42.39,349.7,3.75,349.7,3.75c0,0,186.48,36.04,318.71,36.04,121,0,341.87-43.33,341.87-43.33Z"/>
            <path class="cls-4" d="M183.73-30.6s145,163.33,461.07,166.97c316.07,3.64,428.07-163.75,428.07-163.75,0,0-82.87,161.8-411.07,166.17C333.6,143.16,169.98-31.35,169.98-31.35l13.74.76Z"/>
          </g>
          <g>
            <path class="cls-9" d="M828.84-47.14s-76.05,123.43-307.29,124.22c-251.35.85-367.65-127.19-367.65-127.19l10.27.57s169.1,33.05,362.03,33.05,286.3-30.65,286.3-30.65h16.35Z"/>
            <path class="cls-1" d="M187.42-32.7s138.94,94.75,278.72,101.4c139.78,6.65,251.85-39.8,251.85-39.8,0,0-115.62,40.03-232.25,37.35-116.63-2.69-215.54-60.25-215.54-60.25,0,0,11.62-1.17,21.8,1.58,37.85,10.2,109.17,37.17,212.12,37.17s203.48-32.72,203.48-32.72c0,0-103.14,30.76-203.48,30.47-165.21-.49-266.52-67.53-266.52-67.53L277.11-1.04l-11.54,1.4-78.15-33.06Z"/>
            <path class="cls-1" d="M782.05-29.32S606.3,8.9,512.54,6.96c-93.76-1.94-224.3-30.82-224.3-30.82,0,0,139.4,26.94,238.25,26.94,90.45,0,255.57-32.39,255.57-32.39Z"/>
            <path class="cls-7" d="M164.16-49.55s108.39,122.1,344.67,124.82c236.28,2.72,320-122.41,320-122.41,0,0-61.95,120.95-307.29,124.22-245.34,3.26-367.65-127.19-367.65-127.19l10.27.57Z"/>
          </g>
          <g>
            <path class="cls-3" d="M147.96-64.95S71.91,58.48-159.33,59.26c-251.35.85-367.65-127.19-367.65-127.19l10.27.57s169.1,33.05,362.03,33.05,286.3-30.65,286.3-30.65h16.35Z"/>
            <path class="cls-1" d="M-493.46-50.52S-354.52,44.24-214.74,50.88C-74.96,57.53,37.11,11.08,37.11,11.08c0,0-115.62,40.03-232.25,37.35-116.63-2.69-215.54-60.25-215.54-60.25,0,0,11.62-1.17,21.8,1.58C-351.04-.05-279.72,26.93-176.76,26.93S26.72-5.79,26.72-5.79c0,0-103.14,30.76-203.48,30.47-165.21-.49-266.52-67.53-266.52-67.53l39.51,24-11.54,1.4-78.15-33.06Z"/>
            <path class="cls-1" d="M147.96-64.95s-50.34,21.47-99.32,34.77C1.75-17.45-133.21,6.11-133.21,6.11c0,0,125.98-15.42,189.35-32.93,41.37-11.43,91.83-38.13,91.83-38.13Z"/>
            <path class="cls-2" d="M-516.71-67.36S-408.32,54.74-172.04,57.46c236.28,2.72,320-122.41,320-122.41,0,0-61.95,120.95-307.29,124.22-245.34,3.26-367.65-127.19-367.65-127.19l10.27.57Z"/>
          </g>
        </g>
      </g>
    </g>
  </g>
</svg>