<?xml version="1.0" encoding="UTF-8"?>
<svg xmlns="http://www.w3.org/2000/svg" xmlns:xlink="http://www.w3.org/1999/xlink" viewBox="0 0 390 146.21">
  <defs>
    <style>
      .cls-1, .cls-2, .cls-3, .cls-4, .cls-5, .cls-6, .cls-7, .cls-8, .cls-9, .cls-10, .cls-11, .cls-12, .cls-13, .cls-14 {
        stroke-width: 0px;
      }

      .cls-1, .cls-7 {
        fill: #fff;
        mix-blend-mode: soft-light;
      }

      .cls-2 {
        fill: url(#linear-gradient);
      }

      .cls-3 {
        fill: url(#_Áåçûìÿííûé_ãðàäèåíò_180);
        opacity: .74;
      }

      .cls-3, .cls-4, .cls-8, .cls-13 {
        mix-blend-mode: color-dodge;
      }

      .cls-4 {
        fill: url(#_Áåçûìÿííûé_ãðàäèåíò_96-2);
      }

      .cls-5 {
        fill: url(#_Áåçûìÿííûé_ãðàäèåíò_70);
      }

      .cls-5, .cls-9, .cls-10 {
        opacity: .8;
      }

      .cls-15 {
        isolation: isolate;
      }

      .cls-6 {
        fill: none;
      }

      .cls-7 {
        opacity: .67;
      }

      .cls-8 {
        fill: url(#_Áåçûìÿííûé_ãðàäèåíò_96-3);
      }

      .cls-9 {
        fill: url(#_Áåçûìÿííûé_ãðàäèåíò_70-2);
      }

      .cls-10 {
        fill: url(#_Áåçûìÿííûé_ãðàäèåíò_70-3);
      }

      .cls-16 {
        clip-path: url(#clippath);
      }

      .cls-11 {
        fill: #bc8ea8;
        mix-blend-mode: multiply;
        opacity: .56;
      }

      .cls-12 {
        fill: url(#_Áåçûìÿííûé_ãðàäèåíò_36);
      }

      .cls-13 {
        fill: url(#_Áåçûìÿííûé_ãðàäèåíò_96);
      }

      .cls-14 {
        fill: url(#_Áåçûìÿííûé_ãðàäèåíò_30);
      }
    </style>
    <clipPath id="clippath">
      <rect class="cls-6" x="-1.04" width="392.08" height="844.88"/>
    </clipPath>
    <linearGradient id="linear-gradient" x1="-14.12" y1="-24.51" x2="1253.52" y2="47.94" gradientTransform="translate(-59.31 50.02) rotate(-3.27)" gradientUnits="userSpaceOnUse">
      <stop offset="0" stop-color="#f0f1dd"/>
      <stop offset="1" stop-color="#866a39"/>
    </linearGradient>
    <linearGradient id="_Áåçûìÿííûé_ãðàäèåíò_180" data-name="Áåçûìÿííûé ãðàäèåíò 180" x1="387.71" y1="20.15" x2="740.34" y2="20.15" gradientUnits="userSpaceOnUse">
      <stop offset="0" stop-color="#000"/>
      <stop offset="1" stop-color="#725e27"/>
    </linearGradient>
    <linearGradient id="_Áåçûìÿííûé_ãðàäèåíò_30" data-name="Áåçûìÿííûé ãðàäèåíò 30" x1="830.93" y1="-6.99" x2="328.48" y2="-6.99" gradientUnits="userSpaceOnUse">
      <stop offset="0" stop-color="#f0dc9c"/>
      <stop offset=".54" stop-color="#d66d3a"/>
      <stop offset=".98" stop-color="#efc257"/>
    </linearGradient>
    <linearGradient id="_Áåçûìÿííûé_ãðàäèåíò_36" data-name="Áåçûìÿííûé ãðàäèåíò 36" x1="315.25" y1="-16.83" x2="-70.54" y2="-16.83" gradientUnits="userSpaceOnUse">
      <stop offset="0" stop-color="#f0dc9c"/>
      <stop offset=".54" stop-color="#ebae41"/>
      <stop offset=".98" stop-color="#efc257"/>
    </linearGradient>
    <linearGradient id="_Áåçûìÿííûé_ãðàäèåíò_70" data-name="Áåçûìÿííûé ãðàäèåíò 70" x1="341.23" y1="145.15" x2="341.23" y2="-133.22" gradientUnits="userSpaceOnUse">
      <stop offset="0" stop-color="#fcf6bf"/>
      <stop offset="1" stop-color="#e3ab84"/>
    </linearGradient>
    <linearGradient id="_Áåçûìÿííûé_ãðàäèåíò_96" data-name="Áåçûìÿííûé ãðàäèåíò 96" x1="138.07" y1="6.02" x2="544.39" y2="6.02" gradientUnits="userSpaceOnUse">
      <stop offset="0" stop-color="#000"/>
      <stop offset="1" stop-color="#61685f"/>
    </linearGradient>
    <linearGradient id="_Áåçûìÿííûé_ãðàäèåíò_70-2" data-name="Áåçûìÿííûé ãðàäèåíò 70" x1="892.75" y1="138.79" x2="892.75" y2="-31.35" gradientTransform="translate(734.17) rotate(-180) scale(1 -1)" xlink:href="#_Áåçûìÿííûé_ãðàäèåíò_70"/>
    <linearGradient id="_Áåçûìÿííûé_ãðàäèåíò_96-2" data-name="Áåçûìÿííûé ãðàäèåíò 96" x1="441.3" y1="53.76" x2="1344.19" y2="53.76" gradientTransform="translate(734.17) rotate(-180) scale(1 -1)" xlink:href="#_Áåçûìÿííûé_ãðàäèåíò_96"/>
    <linearGradient id="_Áåçûìÿííûé_ãðàäèåíò_70-3" data-name="Áåçûìÿííûé ãðàäèåíò 70" x1="1022.81" y1="77.08" x2="1022.81" y2="-50.11" gradientTransform="translate(734.17) rotate(-180) scale(1 -1)" xlink:href="#_Áåçûìÿííûé_ãðàäèåíò_70"/>
    <linearGradient id="_Áåçûìÿííûé_ãðàäèåíò_96-3" data-name="Áåçûìÿííûé ãðàäèåíò 96" x1="685.34" y1="13.51" x2="1360.28" y2="13.51" gradientTransform="translate(734.17) rotate(-180) scale(1 -1)" xlink:href="#_Áåçûìÿííûé_ãðàäèåíò_96"/>
  </defs>
  <g class="cls-15">
    <g id="OBJECTS">
      <g class="cls-16">
        <g>
          <g>
            <path class="cls-2" d="M1163.65-155.08l31.3,373.27s-279.4-105.56-347.11-362.81c0,0-15.46,43.85-44.52,96.85,0,0-.06.09-.19.3-46.99,81.3-129.85,179.5-237.55,171.46-65.23-5-115.94-40.46-153.63-81.88-.3-.3-.45-.44-.45-.44-62.89-67.12-89.11-152.85-89.11-152.85,0,0-17.66,44.62-51.31,90.83-38.78,50.41-98.87,100.37-176.05,94.2C12.45,67.08-31.47,9.42-53.65-37.67c-.17-.3-.29-.54-.36-.74-16.36-34.53-20.8-64.3-20.8-64.3l34.21-5.26S-9.77-39.18,93.69-37.09c103.4,1.81,209.94-91.72,209.94-91.72l43.49-3.71s102.32,104.8,212.33,105.93c109.93.82,260.29-134.12,260.29-134.12l45.66-4.87,298.24,10.49Z"/>
            <path class="cls-11" d="M815.93-139.15S713.37-18.54,589.62,2.48c0,0,95.94-9.05,177.79-78.95,0,0-89.55,152.32-199.26,162.74-110.14,8.52-179.75-109.69-179.75-109.69,0,0,47.12,112.33,175.27,120.76,128.06,8.02,267.26-220.27,267.26-220.27l-15-16.23Z"/>
            <path class="cls-11" d="M231.92-13.87S148.72,58.31,92.57,58.37C36.34,58.09-9.65,1.44-9.65,1.44c0,0,49.01,48.52,94.43,49.86,45.39,1.19,86.08-32.84,86.08-32.84,0,0-38.1,9.09-103.74,10.53,0,0,75.05,1.34,164.8-42.86Z"/>
            <path class="cls-7" d="M271.14-20.49l-.06.14c-38.78,50.41-98.87,100.37-176.05,94.2C12.45,67.08-31.47,9.42-53.65-37.67-47.78-26.18-2.4,58.19,87.73,68.93c96.98,11.76,183.4-89.42,183.4-89.42Z"/>
            <path class="cls-3" d="M740.34-40.86s-82.37,91.05-173.21,91.05-179.42-82.37-179.42-82.37c0,0,74.13,113.33,177.2,113.33s175.43-122.01,175.43-122.01Z"/>
            <path class="cls-14" d="M330.71-104.83s85.17,213.28,241.64,208.77c156.47-4.51,253.49-230.66,253.49-230.66l5.09,3.79s-80.68,224.54-248.98,235.29c-168.3,10.75-253.47-213.82-253.47-213.82l2.23-3.37Z"/>
            <path class="cls-12" d="M310.23-103.55S234.59,64.81,99.59,64.81-65.56-94.52-65.56-94.52l-4.98,2.69S-31.87,69.88,94.13,69.9c142.58.02,221.12-170.33,221.12-170.33l-5.02-3.11Z"/>
          </g>
          <g>
            <path class="cls-5" d="M138.07-126.72s45.79,270.14,185,271.86c151.32,1.86,221.33-278.36,221.33-278.36l-6.18,1.24s-101.8,72.34-217.95,72.34-172.35-67.07-172.35-67.07h-9.84Z"/>
            <path class="cls-1" d="M524.21-95.12s-83.64,207.37-167.79,221.92c-84.15,14.55-151.62-87.1-151.62-87.1,0,0,69.61,87.62,139.82,81.73,70.21-5.88,129.76-131.87,129.76-131.87,0,0-7-2.55-13.12,3.45-22.79,22.32-65.72,81.36-127.7,81.36S211.05,2.76,211.05,2.76c0,0,62.09,67.33,122.5,66.68,99.46-1.07,160.45-147.79,160.45-147.79l-23.79,52.52,6.95,3.07,47.05-72.36Z"/>
            <path class="cls-1" d="M138.07-126.72s30.31,47,59.79,76.1c28.23,27.86,109.48,79.43,109.48,79.43,0,0-75.84-33.75-113.99-72.08-24.91-25.03-55.28-83.45-55.28-83.45Z"/>
            <path class="cls-13" d="M538.21-131.98s-65.25,267.22-207.5,273.17c-142.24,5.95-192.65-267.91-192.65-267.91,0,0,37.3,264.71,185,271.86,147.7,7.15,221.33-278.36,221.33-278.36l-6.18,1.24Z"/>
          </g>
          <g>
            <path class="cls-9" d="M292.87-27.38S191.13,137.74-118.2,138.79c-336.24,1.14-491.82-170.14-491.82-170.14l13.74.76S-370.07,13.62-111.98,13.62,271-27.38,271-27.38h21.87Z"/>
            <path class="cls-1" d="M-565.17-8.07S-379.31,118.69-192.32,127.58C-5.34,136.47,144.58,74.34,144.58,74.34c0,0-154.67,53.55-310.69,49.96-156.02-3.59-288.33-80.6-288.33-80.6,0,0,15.55-1.56,29.16,2.11,50.63,13.64,146.03,49.73,283.76,49.73S130.68,51.76,130.68,51.76c0,0-137.97,41.15-272.2,40.76C-362.53,91.87-498.05,2.19-498.05,2.19l52.86,32.1-15.44,1.88-104.54-44.23Z"/>
            <path class="cls-1" d="M230.28-3.54S-4.82,47.58-130.25,44.99C-255.68,42.39-430.3,3.75-430.3,3.75c0,0,186.48,36.04,318.71,36.04C9.41,39.79,230.28-3.54,230.28-3.54Z"/>
            <path class="cls-1" d="M292.87-27.38S225.52,1.35,160.01,19.13c-62.73,17.03-243.27,48.55-243.27,48.55,0,0,168.52-20.63,253.29-44.06,55.34-15.3,122.84-51.01,122.84-51.01Z"/>
            <path class="cls-4" d="M-596.27-30.6s145,163.33,461.07,166.97C180.87,140.02,292.87-27.38,292.87-27.38c0,0-82.87,161.8-411.07,166.17-328.2,4.37-491.82-170.14-491.82-170.14l13.74.76Z"/>
          </g>
          <g>
            <path class="cls-10" d="M48.84-47.14S-27.22,76.29-258.46,77.08c-251.35.85-367.65-127.19-367.65-127.19l10.27.57S-446.74-16.49-253.81-16.49,32.49-47.14,32.49-47.14h16.35Z"/>
            <path class="cls-1" d="M2.05-29.32S-173.7,8.9-267.46,6.96c-93.76-1.94-224.3-30.82-224.3-30.82,0,0,139.4,26.94,238.25,26.94C-163.06,3.07,2.05-29.32,2.05-29.32Z"/>
            <path class="cls-1" d="M48.84-47.14S-1.51-25.66-50.48-12.37C-97.38.36-232.34,23.92-232.34,23.92c0,0,125.98-15.42,189.35-32.93C-1.62-20.44,48.84-47.14,48.84-47.14Z"/>
            <path class="cls-8" d="M-615.84-49.55s108.39,122.1,344.67,124.82C-34.89,77.99,48.84-47.14,48.84-47.14c0,0-61.95,120.95-307.29,124.22-245.34,3.26-367.65-127.19-367.65-127.19l10.27.57Z"/>
          </g>
        </g>
      </g>
    </g>
  </g>
</svg>