<?xml version="1.0" encoding="UTF-8"?>
<svg xmlns="http://www.w3.org/2000/svg" xmlns:xlink="http://www.w3.org/1999/xlink" viewBox="0 0 390 201.05">
  <defs>
    <style>
      .cls-1 {
        fill: #fff;
        mix-blend-mode: soft-light;
      }

      .cls-1, .cls-2, .cls-3, .cls-4, .cls-5, .cls-6, .cls-7, .cls-8, .cls-9, .cls-10, .cls-11, .cls-12, .cls-13 {
        stroke-width: 0px;
      }

      .cls-2 {
        fill: url(#linear-gradient);
      }

      .cls-3 {
        fill: url(#_Áåçûìÿííûé_ãðàäèåíò_181);
      }

      .cls-4 {
        fill: url(#_Áåçûìÿííûé_ãðàäèåíò_180);
      }

      .cls-4, .cls-6, .cls-11, .cls-13 {
        mix-blend-mode: color-dodge;
      }

      .cls-4, .cls-13 {
        opacity: .74;
      }

      .cls-5 {
        opacity: .2;
      }

      .cls-5, .cls-10 {
        fill: #bc8ea8;
        mix-blend-mode: multiply;
      }

      .cls-6 {
        fill: url(#_Áåçûìÿííûé_ãðàäèåíò_96-2);
      }

      .cls-7 {
        fill: url(#_Áåçûìÿííûé_ãðàäèåíò_70);
      }

      .cls-7, .cls-9 {
        opacity: .8;
      }

      .cls-14 {
        isolation: isolate;
      }

      .cls-8 {
        fill: none;
      }

      .cls-9 {
        fill: url(#_Áåçûìÿííûé_ãðàäèåíò_70-2);
      }

      .cls-15 {
        clip-path: url(#clippath);
      }

      .cls-10 {
        opacity: .56;
      }

      .cls-11 {
        fill: url(#_Áåçûìÿííûé_ãðàäèåíò_96);
      }

      .cls-12 {
        fill: url(#_Áåçûìÿííûé_ãðàäèåíò_30);
      }

      .cls-13 {
        fill: url(#_Áåçûìÿííûé_ãðàäèåíò_180-2);
      }
    </style>
    <clipPath id="clippath">
      <rect class="cls-8" x="-1.04" width="392.08" height="844.88"/>
    </clipPath>
    <linearGradient id="_Áåçûìÿííûé_ãðàäèåíò_181" data-name="Áåçûìÿííûé ãðàäèåíò 181" x1="350.71" y1="112.74" x2="350.71" y2="-122.93" gradientUnits="userSpaceOnUse">
      <stop offset="0" stop-color="#703327"/>
      <stop offset="1" stop-color="#5a1e1c"/>
    </linearGradient>
    <linearGradient id="linear-gradient" x1="-403.48" y1="-46.78" x2="864.16" y2="25.67" gradientTransform="translate(-59.31 50.02) rotate(-3.27)" gradientUnits="userSpaceOnUse">
      <stop offset="0" stop-color="#f0f1dd"/>
      <stop offset="1" stop-color="#866a39"/>
    </linearGradient>
    <linearGradient id="_Áåçûìÿííûé_ãðàäèåíò_180" data-name="Áåçûìÿííûé ãðàäèåíò 180" x1="21.95" y1="38.49" x2="413.13" y2="38.49" gradientUnits="userSpaceOnUse">
      <stop offset="0" stop-color="#000"/>
      <stop offset="1" stop-color="#725e27"/>
    </linearGradient>
    <linearGradient id="_Áåçûìÿííûé_ãðàäèåíò_180-2" data-name="Áåçûìÿííûé ãðàäèåíò 180" x1="-2.29" y1="20.15" x2="350.34" y2="20.15" xlink:href="#_Áåçûìÿííûé_ãðàäèåíò_180"/>
    <linearGradient id="_Áåçûìÿííûé_ãðàäèåíò_30" data-name="Áåçûìÿííûé ãðàäèåíò 30" x1="440.93" y1="-6.99" x2="-61.52" y2="-6.99" gradientUnits="userSpaceOnUse">
      <stop offset="0" stop-color="#f0dc9c"/>
      <stop offset=".54" stop-color="#d66d3a"/>
      <stop offset=".98" stop-color="#efc257"/>
    </linearGradient>
    <linearGradient id="_Áåçûìÿííûé_ãðàäèåíò_70" data-name="Áåçûìÿííûé ãðàäèåíò 70" x1="-48.77" y1="145.15" x2="-48.77" y2="-133.22" gradientUnits="userSpaceOnUse">
      <stop offset="0" stop-color="#fcf6bf"/>
      <stop offset="1" stop-color="#e3ab84"/>
    </linearGradient>
    <linearGradient id="_Áåçûìÿííûé_ãðàäèåíò_96" data-name="Áåçûìÿííûé ãðàäèåíò 96" x1="-251.93" y1="6.02" x2="154.39" y2="6.02" gradientUnits="userSpaceOnUse">
      <stop offset="0" stop-color="#000"/>
      <stop offset="1" stop-color="#61685f"/>
    </linearGradient>
    <linearGradient id="_Áåçûìÿííûé_ãðàäèåíò_70-2" data-name="Áåçûìÿííûé ãðàäèåíò 70" x1="450.18" y1="209.06" x2="450.18" y2="-151.6" xlink:href="#_Áåçûìÿííûé_ãðàäèåíò_70"/>
    <linearGradient id="_Áåçûìÿííûé_ãðàäèåíò_96-2" data-name="Áåçûìÿííûé ãðàäèåíò 96" x1="186.96" y1="28.81" x2="713.41" y2="28.81" xlink:href="#_Áåçûìÿííûé_ãðàäèåíò_96"/>
  </defs>
  <g class="cls-14">
    <g id="OBJECTS">
      <g class="cls-15">
        <g>
          <g>
            <path class="cls-3" d="M451.77-117.57S386.45,63.89,249.66,112.74l191.28-235.66,10.84,5.36Z"/>
            <path class="cls-2" d="M773.65-155.08l31.3,373.27s-279.4-105.56-347.11-362.81c0,0-15.46,43.85-44.52,96.85,0,0-.06.09-.19.3-46.99,81.3-129.85,179.5-237.55,171.46-65.23-5-115.94-40.46-153.63-81.88-.3-.3-.45-.44-.45-.44C-41.38-25.46-67.61-111.18-67.61-111.18c0,0-17.66,44.62-51.31,90.83-38.78,50.41-98.87,100.37-176.05,94.2-82.57-6.77-126.5-64.43-148.67-111.51-.17-.3-.29-.54-.36-.74-16.36-34.53-20.8-64.3-20.8-64.3l34.21-5.26s30.84,68.79,134.3,70.88c103.4,1.81,209.94-91.72,209.94-91.72l43.49-3.71S59.45-27.72,169.45-26.58c109.93.82,260.29-134.12,260.29-134.12l45.66-4.87,298.24,10.49Z"/>
            <path class="cls-10" d="M425.93-139.15S323.37-18.54,199.62,2.48c0,0,95.94-9.05,177.79-78.95,0,0-89.55,152.32-199.26,162.74C68.02,94.79-1.6-23.42-1.6-23.42c0,0,47.12,112.33,175.27,120.76,128.06,8.02,267.26-220.27,267.26-220.27l-15-16.23Z"/>
            <path class="cls-4" d="M413.13-47.47c-46.99,81.3-129.85,179.5-237.55,171.46-65.23-5-115.94-40.46-153.63-81.88,6.09,6.01,75.75,74.72,163.08,76.08,107.39.84,222.82-157.81,228.09-165.66Z"/>
            <path class="cls-10" d="M38.64-18.23s54.23,50.76,172.09,61.1c0,0-111.07,6.93-172.09-61.1Z"/>
            <path class="cls-13" d="M350.34-40.86s-82.37,91.05-173.21,91.05S-2.29-32.18-2.29-32.18c0,0,74.13,113.33,177.2,113.33s175.43-122.01,175.43-122.01Z"/>
            <path class="cls-12" d="M-59.29-104.83S25.88,108.45,182.35,103.94c156.47-4.51,253.49-230.66,253.49-230.66l5.09,3.79s-80.68,224.54-248.98,235.29C23.66,123.11-61.52-101.46-61.52-101.46l2.23-3.37Z"/>
          </g>
          <g>
            <path class="cls-7" d="M-251.93-126.72S-206.15,143.42-66.94,145.14c151.32,1.86,221.33-278.36,221.33-278.36l-6.18,1.24S46.41-59.65-69.74-59.65s-172.35-67.07-172.35-67.07h-9.84Z"/>
            <path class="cls-1" d="M134.21-95.12S50.57,112.25-33.58,126.79c-84.15,14.55-151.62-87.1-151.62-87.1,0,0,69.61,87.62,139.82,81.73C24.83,115.54,84.38-10.44,84.38-10.44c0,0-7-2.55-13.12,3.45C48.47,15.33,5.54,74.37-56.45,74.37S-178.95,2.76-178.95,2.76c0,0,62.09,67.33,122.5,66.68,99.46-1.07,160.45-147.79,160.45-147.79l-23.79,52.52,6.95,3.07,47.05-72.36Z"/>
            <path class="cls-11" d="M148.21-131.98S82.95,135.24-59.29,141.19c-142.24,5.95-192.65-267.91-192.65-267.91,0,0,37.3,264.71,185,271.86,147.7,7.15,221.33-278.36,221.33-278.36l-6.18,1.24Z"/>
          </g>
          <g>
            <path class="cls-9" d="M186.96-143.18s59.32,350.01,239.69,352.23c196.05,2.41,286.77-360.65,286.77-360.65l-8.01,1.6s-131.9,93.72-282.38,93.72-223.31-86.9-223.31-86.9h-12.75Z"/>
            <path class="cls-1" d="M687.26-102.24s-108.37,268.68-217.4,287.52c-109.03,18.85-196.44-112.85-196.44-112.85,0,0,90.18,113.52,181.16,105.9,90.97-7.62,168.12-170.85,168.12-170.85,0,0-9.06-3.3-17,4.47-29.52,28.92-85.15,105.41-165.45,105.41S281.52,24.58,281.52,24.58c0,0,80.45,87.23,158.71,86.39,128.86-1.38,207.88-191.49,207.88-191.49l-30.82,68.04,9,3.98,60.96-93.75Z"/>
            <path class="cls-1" d="M223.45-92.65S360.53,15.71,433.67,10.21c73.14-5.5,174.95-87.4,174.95-87.4,0,0-108.73,76.4-185.83,76.4-70.55,0-199.34-91.85-199.34-91.85Z"/>
            <path class="cls-1" d="M186.96-143.18s39.27,60.89,77.47,98.59c36.58,36.1,141.84,102.91,141.84,102.91,0,0-98.26-43.73-147.69-93.39-32.27-32.42-71.63-108.12-71.63-108.12Z"/>
            <path class="cls-6" d="M705.4-150s-84.55,346.22-268.84,353.93c-184.29,7.71-249.6-347.11-249.6-347.11,0,0,48.32,342.97,239.69,352.23,191.36,9.26,286.77-360.65,286.77-360.65l-8.01,1.6Z"/>
            <path class="cls-5" d="M288.7-33.67s73.02,60.28,127.34,82.14c39.19,15.77,111.6-13.76,111.6-13.76,0,0-37.55,43.42-83.45,46.43-45.9,3.01-163.94-76.76-163.94-76.76,0,0,96.22,80.26,163.94,84.07,67.72,3.81,226.02-196.07,226.02-196.07,0,0-133.39,134.53-211.96,150.68-51.97,10.68-169.54-76.74-169.54-76.74Z"/>
            <path class="cls-5" d="M287.35,60.43s89.13,84.71,153.58,84.71,132.6-76.69,132.6-76.69c0,0-76.08,91.23-132.6,86.69-64.9-5.21-153.58-94.72-153.58-94.72Z"/>
          </g>
        </g>
      </g>
    </g>
  </g>
</svg>