<?xml version="1.0" encoding="UTF-8"?>
<svg xmlns="http://www.w3.org/2000/svg" xmlns:xlink="http://www.w3.org/1999/xlink" viewBox="0 0 390 141.11">
  <defs>
    <style>
      .cls-1, .cls-2, .cls-3, .cls-4, .cls-5, .cls-6, .cls-7, .cls-8, .cls-9, .cls-10, .cls-11, .cls-12, .cls-13, .cls-14 {
        stroke-width: 0px;
      }

      .cls-1, .cls-7 {
        fill: #fff;
        mix-blend-mode: soft-light;
      }

      .cls-2 {
        fill: url(#linear-gradient);
      }

      .cls-3 {
        fill: url(#_Áåçûìÿííûé_ãðàäèåíò_180);
        opacity: .74;
      }

      .cls-3, .cls-4, .cls-8, .cls-13 {
        mix-blend-mode: color-dodge;
      }

      .cls-4 {
        fill: url(#_Áåçûìÿííûé_ãðàäèåíò_96-2);
      }

      .cls-5 {
        fill: url(#_Áåçûìÿííûé_ãðàäèåíò_70);
      }

      .cls-5, .cls-9, .cls-10 {
        opacity: .8;
      }

      .cls-15 {
        isolation: isolate;
      }

      .cls-6 {
        fill: none;
      }

      .cls-7 {
        opacity: .67;
      }

      .cls-8 {
        fill: url(#_Áåçûìÿííûé_ãðàäèåíò_96-3);
      }

      .cls-9 {
        fill: url(#_Áåçûìÿííûé_ãðàäèåíò_70-2);
      }

      .cls-10 {
        fill: url(#_Áåçûìÿííûé_ãðàäèåíò_70-3);
      }

      .cls-16 {
        clip-path: url(#clippath);
      }

      .cls-11 {
        fill: #bc8ea8;
        mix-blend-mode: multiply;
        opacity: .56;
      }

      .cls-12 {
        fill: url(#_Áåçûìÿííûé_ãðàäèåíò_36);
      }

      .cls-13 {
        fill: url(#_Áåçûìÿííûé_ãðàäèåíò_96);
      }

      .cls-14 {
        fill: url(#_Áåçûìÿííûé_ãðàäèåíò_30);
      }
    </style>
    <clipPath id="clippath">
      <rect class="cls-6" x="-1.04" width="392.08" height="844.88"/>
    </clipPath>
    <linearGradient id="linear-gradient" x1="368.36" y1="-11.84" x2="1663.96" y2="62.21" gradientTransform="translate(849.42 50.02) rotate(-176.73) scale(1 -1)" gradientUnits="userSpaceOnUse">
      <stop offset="0" stop-color="#f0f1dd"/>
      <stop offset="1" stop-color="#866a39"/>
    </linearGradient>
    <linearGradient id="_Áåçûìÿííûé_ãðàäèåíò_180" data-name="Áåçûìÿííûé ãðàäèåíò 180" x1="770.31" y1="10.96" x2="1122.94" y2="10.96" gradientTransform="translate(790.11) rotate(-180) scale(1 -1)" gradientUnits="userSpaceOnUse">
      <stop offset="0" stop-color="#000"/>
      <stop offset="1" stop-color="#725e27"/>
    </linearGradient>
    <linearGradient id="_Áåçûìÿííûé_ãðàäèåíò_30" data-name="Áåçûìÿííûé ãðàäèåíò 30" x1="1213.53" y1="-16.18" x2="711.08" y2="-16.18" gradientTransform="translate(790.11) rotate(-180) scale(1 -1)" gradientUnits="userSpaceOnUse">
      <stop offset="0" stop-color="#f0dc9c"/>
      <stop offset=".54" stop-color="#d66d3a"/>
      <stop offset=".98" stop-color="#efc257"/>
    </linearGradient>
    <linearGradient id="_Áåçûìÿííûé_ãðàäèåíò_36" data-name="Áåçûìÿííûé ãðàäèåíò 36" x1="697.85" y1="-26.01" x2="312.06" y2="-26.01" gradientTransform="translate(790.11) rotate(-180) scale(1 -1)" gradientUnits="userSpaceOnUse">
      <stop offset="0" stop-color="#f0dc9c"/>
      <stop offset=".54" stop-color="#ebae41"/>
      <stop offset=".98" stop-color="#efc257"/>
    </linearGradient>
    <linearGradient id="_Áåçûìÿííûé_ãðàäèåíò_70" data-name="Áåçûìÿííûé ãðàäèåíò 70" x1="637.51" y1="135.96" x2="637.51" y2="-142.41" gradientTransform="translate(734.17) rotate(-180) scale(1 -1)" gradientUnits="userSpaceOnUse">
      <stop offset="0" stop-color="#fcf6bf"/>
      <stop offset="1" stop-color="#e3ab84"/>
    </linearGradient>
    <linearGradient id="_Áåçûìÿííûé_ãðàäèåíò_96" data-name="Áåçûìÿííûé ãðàäèåíò 96" x1="434.35" y1="-3.16" x2="840.68" y2="-3.16" gradientTransform="translate(734.17) rotate(-180) scale(1 -1)" gradientUnits="userSpaceOnUse">
      <stop offset="0" stop-color="#000"/>
      <stop offset="1" stop-color="#61685f"/>
    </linearGradient>
    <linearGradient id="_Áåçûìÿííûé_ãðàäèåíò_70-2" data-name="Áåçûìÿííûé ãðàäèåíò 70" x1="119.6" y1="125.39" x2="119.6" y2="-44.76" xlink:href="#_Áåçûìÿííûé_ãðàäèåíò_70"/>
    <linearGradient id="_Áåçûìÿííûé_ãðàäèåíò_96-2" data-name="Áåçûìÿííûé ãðàäèåíò 96" x1="-331.84" y1="40.35" x2="571.05" y2="40.35" xlink:href="#_Áåçûìÿííûé_ãðàäèåíò_96"/>
    <linearGradient id="_Áåçûìÿííûé_ãðàäèåíò_70-3" data-name="Áåçûìÿííûé ãðàäèåíò 70" x1="143.69" y1="59.27" x2="143.69" y2="-67.92" xlink:href="#_Áåçûìÿííûé_ãðàäèåíò_70"/>
    <linearGradient id="_Áåçûìÿííûé_ãðàäèåíò_96-3" data-name="Áåçûìÿííûé ãðàäèåíò 96" x1="-193.79" y1="-4.3" x2="481.16" y2="-4.3" xlink:href="#_Áåçûìÿííûé_ãðàäèåíò_96"/>
  </defs>
  <g class="cls-15">
    <g id="OBJECTS">
      <g class="cls-16">
        <g>
          <g>
            <path class="cls-2" d="M-815.43-164.27l27.99,373.27S-508.04,103.44-440.32-153.81c0,0,15.46,43.85,44.52,96.85,0,0,.06.09.19.3,46.99,81.3,129.85,179.5,237.55,171.46C-92.84,109.8-42.13,74.35-4.44,32.92c.3-.3.45-.44.45-.44C58.89-34.64,85.12-120.37,85.12-120.37c0,0,17.66,44.62,51.31,90.83,38.78,50.41,98.87,100.37,176.05,94.2C395.06,57.89,438.98.23,461.16-46.85c.17-.3.29-.54.36-.74,16.36-34.53,20.8-64.3,20.8-64.3l-34.21-5.26s-30.84,68.79-134.3,70.88c-103.4,1.81-209.94-91.72-209.94-91.72l-43.49-3.71S-41.94-36.91-151.94-35.77c-109.93.82-260.29-134.12-260.29-134.12l-45.66-4.87-357.54,10.49Z"/>
            <path class="cls-11" d="M-408.42-148.34S-305.86-27.73-182.11-6.7c0,0-95.94-9.05-177.79-78.95,0,0,89.55,152.32,199.26,162.74C-50.51,85.6,19.11-32.6,19.11-32.6c0,0-47.12,112.33-175.27,120.76-128.06,8.02-267.26-220.27-267.26-220.27l15-16.23Z"/>
            <path class="cls-11" d="M175.59-23.06s83.2,72.18,139.35,72.24c56.23-.27,102.22-56.93,102.22-56.93,0,0-49.01,48.52-94.43,49.86-45.39,1.19-86.08-32.84-86.08-32.84,0,0,38.1,9.09,103.74,10.53,0,0-75.05,1.34-164.8-42.86Z"/>
            <path class="cls-7" d="M136.37-29.68l.06.14c38.78,50.41,98.87,100.37,176.05,94.2C395.06,57.89,438.98.23,461.16-46.85c-5.87,11.48-51.25,95.85-141.38,106.6-96.98,11.76-183.4-89.42-183.4-89.42Z"/>
            <path class="cls-3" d="M-332.83-50.05S-250.46,41.01-159.63,41.01,19.8-41.36,19.8-41.36c0,0-74.13,113.33-177.2,113.33s-175.43-122.01-175.43-122.01Z"/>
            <path class="cls-14" d="M76.8-114.02S-8.37,99.26-164.84,94.75c-156.47-4.51-253.49-230.66-253.49-230.66l-5.09,3.79s80.68,224.54,248.98,235.29C-6.15,113.92,79.03-110.65,79.03-110.65l-2.23-3.37Z"/>
            <path class="cls-12" d="M97.28-112.73S172.92,55.63,307.92,55.63s165.87-158.94,165.87-158.94l4.25,2.29s-38.66,161.72-164.66,161.73c-142.58.02-221.12-170.33-221.12-170.33l5.02-3.11Z"/>
          </g>
          <g>
            <path class="cls-5" d="M299.82-135.91S254.04,134.24,114.83,135.95c-151.32,1.86-221.33-278.36-221.33-278.36l6.19,1.24S1.48-68.83,117.63-68.83s172.35-67.07,172.35-67.07h9.84Z"/>
            <path class="cls-1" d="M-86.32-104.31S-2.68,103.06,81.47,117.61c84.15,14.55,151.62-87.1,151.62-87.1,0,0-69.61,87.62-139.82,81.73C23.05,106.36-36.49-19.63-36.49-19.63c0,0,7-2.55,13.12,3.45C-.58,6.14,42.35,65.18,104.33,65.18S226.83-6.43,226.83-6.43c0,0-62.09,67.33-122.5,66.68C4.87,59.19-56.11-87.54-56.11-87.54l23.79,52.52-6.95,3.07-47.05-72.36Z"/>
            <path class="cls-1" d="M299.82-135.91s-30.31,47-59.79,76.1c-28.23,27.86-109.48,79.43-109.48,79.43,0,0,75.84-33.75,113.99-72.08,24.91-25.03,55.28-83.45,55.28-83.45Z"/>
            <path class="cls-13" d="M-100.32-141.17S-35.07,126.05,107.18,132c142.24,5.95,192.65-267.91,192.65-267.91,0,0-37.3,264.71-185,271.86C-32.87,143.1-106.51-142.41-106.51-142.41l6.19,1.24Z"/>
          </g>
          <g>
            <path class="cls-9" d="M1066.02-40.79s-101.74,165.12-411.07,166.17c-336.24,1.14-491.82-170.14-491.82-170.14l13.74.76S403.08.21,661.16.21s382.98-41,382.98-41h21.87Z"/>
            <path class="cls-1" d="M207.98-21.47s185.86,126.75,372.84,135.64c186.98,8.89,336.91-53.24,336.91-53.24,0,0-154.67,53.55-310.69,49.96-156.02-3.59-288.33-80.6-288.33-80.6,0,0,15.55-1.56,29.16,2.11,50.63,13.64,146.03,49.73,283.76,49.73s272.2-43.77,272.2-43.77c0,0-137.97,41.15-272.2,40.76-221.01-.65-356.53-90.34-356.53-90.34l52.86,32.1-15.44,1.88-104.54-44.23Z"/>
            <path class="cls-1" d="M1003.43-16.95s-235.1,51.12-360.53,48.53c-125.43-2.59-300.05-41.23-300.05-41.23,0,0,186.48,36.04,318.71,36.04,121,0,341.87-43.33,341.87-43.33Z"/>
            <path class="cls-4" d="M176.87-44s145,163.33,461.07,166.97c316.07,3.64,428.07-163.75,428.07-163.75,0,0-82.87,161.8-411.07,166.17C326.75,129.75,163.13-44.76,163.13-44.76l13.74.76Z"/>
          </g>
          <g>
            <path class="cls-10" d="M927.96-64.95s-76.05,123.43-307.29,124.22c-251.35.85-367.65-127.19-367.65-127.19l10.27.57s169.1,33.05,362.03,33.05,286.3-30.65,286.3-30.65h16.35Z"/>
            <path class="cls-1" d="M286.54-50.52s138.94,94.75,278.72,101.4c139.78,6.65,251.85-39.8,251.85-39.8,0,0-115.62,40.03-232.25,37.35-116.63-2.69-215.54-60.25-215.54-60.25,0,0,11.62-1.17,21.8,1.58C428.96-.05,500.28,26.93,603.24,26.93S806.72-5.79,806.72-5.79c0,0-103.14,30.76-203.48,30.47-165.21-.49-266.52-67.53-266.52-67.53l39.51,24-11.54,1.4-78.15-33.06Z"/>
            <path class="cls-8" d="M263.29-67.36s108.39,122.1,344.67,124.82c236.28,2.72,320-122.41,320-122.41,0,0-61.95,120.95-307.29,124.22-245.34,3.26-367.65-127.19-367.65-127.19l10.27.57Z"/>
          </g>
        </g>
      </g>
    </g>
  </g>
</svg>