<?xml version="1.0" encoding="UTF-8"?>
<svg xmlns="http://www.w3.org/2000/svg" xmlns:xlink="http://www.w3.org/1999/xlink" viewBox="0 0 390 201.62">
  <defs>
    <style>
      .cls-1 {
        fill: #fff;
        mix-blend-mode: soft-light;
      }

      .cls-1, .cls-2, .cls-3, .cls-4, .cls-5, .cls-6, .cls-7, .cls-8, .cls-9, .cls-10, .cls-11, .cls-12, .cls-13 {
        stroke-width: 0px;
      }

      .cls-2 {
        fill: url(#linear-gradient);
      }

      .cls-3 {
        fill: url(#_Áåçûìÿííûé_ãðàäèåíò_181);
      }

      .cls-4 {
        fill: url(#_Áåçûìÿííûé_ãðàäèåíò_180);
      }

      .cls-4, .cls-6, .cls-11, .cls-13 {
        mix-blend-mode: color-dodge;
      }

      .cls-4, .cls-13 {
        opacity: .74;
      }

      .cls-5 {
        opacity: .2;
      }

      .cls-5, .cls-10 {
        fill: #bc8ea8;
        mix-blend-mode: multiply;
      }

      .cls-6 {
        fill: url(#_Áåçûìÿííûé_ãðàäèåíò_96-2);
      }

      .cls-7 {
        fill: url(#_Áåçûìÿííûé_ãðàäèåíò_70);
      }

      .cls-7, .cls-9 {
        opacity: .8;
      }

      .cls-14 {
        isolation: isolate;
      }

      .cls-8 {
        fill: none;
      }

      .cls-9 {
        fill: url(#_Áåçûìÿííûé_ãðàäèåíò_70-2);
      }

      .cls-15 {
        clip-path: url(#clippath);
      }

      .cls-10 {
        opacity: .56;
      }

      .cls-11 {
        fill: url(#_Áåçûìÿííûé_ãðàäèåíò_96);
      }

      .cls-12 {
        fill: url(#_Áåçûìÿííûé_ãðàäèåíò_30);
      }

      .cls-13 {
        fill: url(#_Áåçûìÿííûé_ãðàäèåíò_180-2);
      }
    </style>
    <clipPath id="clippath">
      <rect class="cls-8" x="-1.04" width="392.08" height="844.88"/>
    </clipPath>
    <linearGradient id="_Áåçûìÿííûé_ãðàäèåíò_181" data-name="Áåçûìÿííûé ãðàäèåíò 181" x1="733.31" y1="103.55" x2="733.31" y2="-132.11" gradientTransform="translate(790.11) rotate(-180) scale(1 -1)" gradientUnits="userSpaceOnUse">
      <stop offset="0" stop-color="#703327"/>
      <stop offset="1" stop-color="#5a1e1c"/>
    </linearGradient>
    <linearGradient id="linear-gradient" x1="-20.99" y1="-34.1" x2="1274.61" y2="39.94" gradientTransform="translate(849.42 50.02) rotate(-176.73) scale(1 -1)" gradientUnits="userSpaceOnUse">
      <stop offset="0" stop-color="#f0f1dd"/>
      <stop offset="1" stop-color="#866a39"/>
    </linearGradient>
    <linearGradient id="_Áåçûìÿííûé_ãðàäèåíò_180" data-name="Áåçûìÿííûé ãðàäèåíò 180" x1="404.55" y1="29.31" x2="795.73" y2="29.31" gradientTransform="translate(790.11) rotate(-180) scale(1 -1)" gradientUnits="userSpaceOnUse">
      <stop offset="0" stop-color="#000"/>
      <stop offset="1" stop-color="#725e27"/>
    </linearGradient>
    <linearGradient id="_Áåçûìÿííûé_ãðàäèåíò_180-2" data-name="Áåçûìÿííûé ãðàäèåíò 180" x1="380.31" y1="10.96" x2="732.94" y2="10.96" xlink:href="#_Áåçûìÿííûé_ãðàäèåíò_180"/>
    <linearGradient id="_Áåçûìÿííûé_ãðàäèåíò_30" data-name="Áåçûìÿííûé ãðàäèåíò 30" x1="823.53" y1="-16.18" x2="321.08" y2="-16.18" gradientTransform="translate(790.11) rotate(-180) scale(1 -1)" gradientUnits="userSpaceOnUse">
      <stop offset="0" stop-color="#f0dc9c"/>
      <stop offset=".54" stop-color="#d66d3a"/>
      <stop offset=".98" stop-color="#efc257"/>
    </linearGradient>
    <linearGradient id="_Áåçûìÿííûé_ãðàäèåíò_70" data-name="Áåçûìÿííûé ãðàäèåíò 70" x1="247.51" y1="135.96" x2="247.51" y2="-142.41" gradientTransform="translate(734.17) rotate(-180) scale(1 -1)" gradientUnits="userSpaceOnUse">
      <stop offset="0" stop-color="#fcf6bf"/>
      <stop offset="1" stop-color="#e3ab84"/>
    </linearGradient>
    <linearGradient id="_Áåçûìÿííûé_ãðàäèåíò_96" data-name="Áåçûìÿííûé ãðàäèåíò 96" x1="44.35" y1="-3.16" x2="450.68" y2="-3.16" gradientTransform="translate(734.17) rotate(-180) scale(1 -1)" gradientUnits="userSpaceOnUse">
      <stop offset="0" stop-color="#000"/>
      <stop offset="1" stop-color="#61685f"/>
    </linearGradient>
    <linearGradient id="_Áåçûìÿííûé_ãðàäèåíò_70-2" data-name="Áåçûìÿííûé ãðàäèåíò 70" x1="746.47" y1="199.87" x2="746.47" y2="-160.79" xlink:href="#_Áåçûìÿííûé_ãðàäèåíò_70"/>
    <linearGradient id="_Áåçûìÿííûé_ãðàäèåíò_96-2" data-name="Áåçûìÿííûé ãðàäèåíò 96" x1="483.24" y1="19.62" x2="1009.69" y2="19.62" xlink:href="#_Áåçûìÿííûé_ãðàäèåíò_96"/>
  </defs>
  <g class="cls-14">
    <g id="OBJECTS">
      <g class="cls-15">
        <g>
          <g>
            <path class="cls-3" d="M-44.26-126.76S21.06,54.7,157.85,103.55L-33.42-132.11l-10.84,5.36Z"/>
            <path class="cls-2" d="M-425.43-164.27l27.99,373.27S-118.04,103.44-50.32-153.81c0,0,15.46,43.85,44.52,96.85,0,0,.06.09.19.3C41.37,24.64,124.23,122.84,231.93,114.81c65.23-5,115.94-40.46,153.63-81.88.3-.3.45-.44.45-.44,62.89-67.12,89.11-152.85,89.11-152.85,0,0,17.66,44.62,51.31,90.83,38.78,50.41,98.87,100.37,176.05,94.2,82.57-6.77,126.5-64.43,148.67-111.51.17-.3.29-.54.36-.74,16.36-34.53,20.8-64.3,20.8-64.3l-34.21-5.26s-30.84,68.79-134.3,70.88c-103.4,1.81-209.94-91.72-209.94-91.72l-43.49-3.71s-102.32,104.8-212.33,105.93C128.12-34.95-22.23-169.89-22.23-169.89l-45.66-4.87-357.54,10.49Z"/>
            <path class="cls-10" d="M-18.42-148.34S84.14-27.73,207.89-6.7c0,0-95.94-9.05-177.79-78.95,0,0,89.55,152.32,199.26,162.74,110.14,8.52,179.75-109.69,179.75-109.69,0,0-47.12,112.33-175.27,120.76C105.78,96.18-33.42-132.11-33.42-132.11l15-16.23Z"/>
            <path class="cls-4" d="M-5.62-56.66C41.37,24.64,124.23,122.84,231.93,114.81c65.23-5,115.94-40.46,153.63-81.88-6.09,6.01-75.75,74.72-163.08,76.08C115.08,109.84-.35-48.8-5.62-56.66Z"/>
            <path class="cls-10" d="M368.87-27.41s-54.23,50.76-172.09,61.1c0,0,111.07,6.93,172.09-61.1Z"/>
            <path class="cls-13" d="M57.17-50.05S139.54,41.01,230.37,41.01s179.42-82.37,179.42-82.37c0,0-74.13,113.33-177.2,113.33S57.17-50.05,57.17-50.05Z"/>
            <path class="cls-12" d="M466.8-114.02s-85.17,213.28-241.64,208.77C68.68,90.24-28.33-135.91-28.33-135.91l-5.09,3.79S47.26,92.43,215.55,103.17c168.3,10.75,253.47-213.82,253.47-213.82l-2.23-3.37Z"/>
          </g>
          <g>
            <path class="cls-7" d="M689.82-135.91s-45.79,270.14-185,271.86c-151.32,1.86-221.33-278.36-221.33-278.36l6.19,1.24s101.8,72.34,217.95,72.34,172.35-67.07,172.35-67.07h9.84Z"/>
            <path class="cls-1" d="M303.68-104.31s83.64,207.37,167.79,221.92c84.15,14.55,151.62-87.1,151.62-87.1,0,0-69.61,87.62-139.82,81.73-70.21-5.88-129.76-131.87-129.76-131.87,0,0,7-2.55,13.12,3.45,22.79,22.32,65.72,81.36,127.7,81.36S616.83-6.43,616.83-6.43c0,0-62.09,67.33-122.5,66.68-99.46-1.07-160.45-147.79-160.45-147.79l23.79,52.52-6.95,3.07-47.05-72.36Z"/>
            <path class="cls-11" d="M289.68-141.17s65.25,267.22,207.5,273.17c142.24,5.95,192.65-267.91,192.65-267.91,0,0-37.3,264.71-185,271.86-147.7,7.15-221.33-278.36-221.33-278.36l6.19,1.24Z"/>
          </g>
          <g>
            <path class="cls-9" d="M250.93-152.37S191.61,197.64,11.25,199.86c-196.05,2.41-286.77-360.65-286.77-360.65l8.01,1.6S-135.61-65.46,14.87-65.46s223.31-86.9,223.31-86.9h12.75Z"/>
            <path class="cls-1" d="M-249.37-111.43S-141,157.25-31.97,176.09c109.03,18.85,196.44-112.85,196.44-112.85,0,0-90.18,113.52-181.16,105.9C-107.66,161.52-184.8-1.71-184.8-1.71c0,0,9.06-3.3,17,4.47C-138.28,31.68-82.66,108.17-2.35,108.17S156.36,15.39,156.36,15.39c0,0-80.45,87.23-158.71,86.39-128.86-1.38-207.88-191.49-207.88-191.49l30.82,68.04-9,3.98-60.96-93.75Z"/>
            <path class="cls-1" d="M214.44-101.84S77.36,6.52,4.22,1.02c-73.14-5.5-174.95-87.4-174.95-87.4,0,0,108.73,76.4,185.83,76.4,70.55,0,199.34-91.85,199.34-91.85Z"/>
            <path class="cls-1" d="M250.93-152.37s-39.27,60.89-77.47,98.59C136.89-17.68,31.62,49.14,31.62,49.14c0,0,98.26-43.73,147.69-93.39,32.27-32.42,71.62-108.12,71.62-108.12Z"/>
            <path class="cls-6" d="M-267.51-159.19S-182.96,187.03,1.33,194.75c184.29,7.71,249.6-347.11,249.6-347.11,0,0-48.32,342.97-239.69,352.23-191.36,9.26-286.77-360.65-286.77-360.65l8.01,1.6Z"/>
            <path class="cls-5" d="M149.19-42.85S76.17,17.43,21.85,39.29c-39.19,15.77-111.6-13.76-111.6-13.76,0,0,37.55,43.42,83.45,46.43C39.6,74.97,157.64-4.8,157.64-4.8c0,0-96.22,80.26-163.94,84.07-67.72,3.81-226.02-196.07-226.02-196.07,0,0,133.39,134.53,211.96,150.68C31.62,44.57,149.19-42.85,149.19-42.85Z"/>
            <path class="cls-5" d="M150.54,51.25S61.41,135.96-3.05,135.96-135.65,59.27-135.65,59.27c0,0,76.08,91.23,132.6,86.69,64.9-5.21,153.58-94.72,153.58-94.72Z"/>
          </g>
        </g>
      </g>
    </g>
  </g>
</svg>