<?xml version="1.0" encoding="UTF-8"?>
<svg xmlns="http://www.w3.org/2000/svg" xmlns:xlink="http://www.w3.org/1999/xlink" viewBox="0 0 390 141.11">
  <defs>
    <style>
      .cls-1, .cls-2, .cls-3, .cls-4, .cls-5, .cls-6, .cls-7, .cls-8, .cls-9, .cls-10 {
        stroke-width: 0px;
      }

      .cls-1, .cls-6 {
        fill: #fff;
        mix-blend-mode: soft-light;
      }

      .cls-2 {
        fill: url(#linear-gradient);
      }

      .cls-3 {
        fill: url(#_Áåçûìÿííûé_ãðàäèåíò_96-2);
      }

      .cls-3, .cls-10 {
        mix-blend-mode: color-dodge;
      }

      .cls-4 {
        fill: url(#_Áåçûìÿííûé_ãðàäèåíò_70);
      }

      .cls-4, .cls-7 {
        opacity: .8;
      }

      .cls-11 {
        isolation: isolate;
      }

      .cls-5 {
        fill: none;
      }

      .cls-6 {
        opacity: .67;
      }

      .cls-7 {
        fill: url(#_Áåçûìÿííûé_ãðàäèåíò_70-2);
      }

      .cls-12 {
        clip-path: url(#clippath);
      }

      .cls-8 {
        fill: #bc8ea8;
        mix-blend-mode: multiply;
        opacity: .56;
      }

      .cls-9 {
        fill: url(#_Áåçûìÿííûé_ãðàäèåíò_36);
      }

      .cls-10 {
        fill: url(#_Áåçûìÿííûé_ãðàäèåíò_96);
      }
    </style>
    <clipPath id="clippath">
      <rect class="cls-5" x="-1.04" width="392.08" height="844.88"/>
    </clipPath>
    <linearGradient id="linear-gradient" x1="375.23" y1="-2.24" x2="1642.87" y2="70.21" gradientTransform="translate(-59.31 50.02) rotate(-3.27)" gradientUnits="userSpaceOnUse">
      <stop offset="0" stop-color="#f0f1dd"/>
      <stop offset="1" stop-color="#866a39"/>
    </linearGradient>
    <linearGradient id="_Áåçûìÿííûé_ãðàäèåíò_36" data-name="Áåçûìÿííûé ãðàäèåíò 36" x1="705.25" y1="-16.83" x2="319.46" y2="-16.83" gradientUnits="userSpaceOnUse">
      <stop offset="0" stop-color="#f0dc9c"/>
      <stop offset=".54" stop-color="#ebae41"/>
      <stop offset=".98" stop-color="#efc257"/>
    </linearGradient>
    <linearGradient id="_Áåçûìÿííûé_ãðàäèåíò_70" data-name="Áåçûìÿííûé ãðàäèåíò 70" x1="502.75" y1="138.79" x2="502.75" y2="-31.35" gradientTransform="translate(734.17) rotate(-180) scale(1 -1)" gradientUnits="userSpaceOnUse">
      <stop offset="0" stop-color="#fcf6bf"/>
      <stop offset="1" stop-color="#e3ab84"/>
    </linearGradient>
    <linearGradient id="_Áåçûìÿííûé_ãðàäèåíò_96" data-name="Áåçûìÿííûé ãðàäèåíò 96" x1="51.3" y1="53.76" x2="954.19" y2="53.76" gradientTransform="translate(734.17) rotate(-180) scale(1 -1)" gradientUnits="userSpaceOnUse">
      <stop offset="0" stop-color="#000"/>
      <stop offset="1" stop-color="#61685f"/>
    </linearGradient>
    <linearGradient id="_Áåçûìÿííûé_ãðàäèåíò_70-2" data-name="Áåçûìÿííûé ãðàäèåíò 70" x1="632.81" y1="77.08" x2="632.81" y2="-50.11" xlink:href="#_Áåçûìÿííûé_ãðàäèåíò_70"/>
    <linearGradient id="_Áåçûìÿííûé_ãðàäèåíò_96-2" data-name="Áåçûìÿííûé ãðàäèåíò 96" x1="295.34" y1="13.51" x2="970.28" y2="13.51" xlink:href="#_Áåçûìÿííûé_ãðàäèåíò_96"/>
  </defs>
  <g class="cls-11">
    <g id="OBJECTS">
      <g class="cls-12">
        <g>
          <g>
            <path class="cls-2" d="M1553.65-155.08l31.3,373.27s-279.4-105.56-347.11-362.81c0,0-15.46,43.85-44.52,96.85,0,0-.06.09-.19.3-46.99,81.3-129.85,179.5-237.55,171.46-65.23-5-115.94-40.46-153.63-81.88-.3-.3-.45-.44-.45-.44-62.89-67.12-89.11-152.85-89.11-152.85,0,0-17.66,44.62-51.31,90.83-38.78,50.41-98.87,100.37-176.05,94.2-82.57-6.77-126.5-64.43-148.67-111.51-.17-.3-.29-.54-.36-.74-16.36-34.53-20.8-64.3-20.8-64.3l34.21-5.26s30.84,68.79,134.3,70.88c103.4,1.81,209.94-91.72,209.94-91.72l43.49-3.71s102.32,104.8,212.33,105.93c109.93.82,260.29-134.12,260.29-134.12l45.66-4.87,298.24,10.49Z"/>
            <path class="cls-8" d="M621.92-13.87s-83.2,72.18-139.35,72.24c-56.23-.27-102.22-56.93-102.22-56.93,0,0,49.01,48.52,94.43,49.86,45.39,1.19,86.08-32.84,86.08-32.84,0,0-38.1,9.09-103.74,10.53,0,0,75.05,1.34,164.8-42.86Z"/>
            <path class="cls-6" d="M661.14-20.49l-.06.14c-38.78,50.41-98.87,100.37-176.05,94.2-82.57-6.77-126.5-64.43-148.67-111.51,5.87,11.48,51.25,95.85,141.38,106.6,96.98,11.76,183.4-89.42,183.4-89.42Z"/>
            <path class="cls-9" d="M700.23-103.55s-75.64,168.36-210.64,168.36-165.14-159.34-165.14-159.34l-4.98,2.69s38.66,161.72,164.66,161.73c142.58.02,221.12-170.33,221.12-170.33l-5.02-3.11Z"/>
          </g>
          <g>
            <path class="cls-4" d="M682.87-27.38s-101.74,165.12-411.07,166.17C-64.44,139.93-220.02-31.35-220.02-31.35l13.74.76S19.93,13.62,278.02,13.62s382.98-41,382.98-41h21.87Z"/>
            <path class="cls-1" d="M-175.17-8.07S10.69,118.69,197.68,127.58c186.98,8.89,336.91-53.24,336.91-53.24,0,0-154.67,53.55-310.69,49.96C67.87,120.7-64.44,43.69-64.44,43.69c0,0,15.55-1.56,29.16,2.11,50.63,13.64,146.03,49.73,283.76,49.73s272.2-43.77,272.2-43.77c0,0-137.97,41.15-272.2,40.76C27.47,91.87-108.05,2.19-108.05,2.19l52.86,32.1-15.44,1.88L-175.17-8.07Z"/>
            <path class="cls-1" d="M620.28-3.54s-235.1,51.12-360.53,48.53C134.32,42.39-40.3,3.75-40.3,3.75c0,0,186.48,36.04,318.71,36.04,121,0,341.87-43.33,341.87-43.33Z"/>
            <path class="cls-1" d="M682.87-27.38s-67.35,28.73-132.86,46.51c-62.73,17.03-243.27,48.55-243.27,48.55,0,0,168.52-20.63,253.29-44.06,55.34-15.3,122.84-51.01,122.84-51.01Z"/>
            <path class="cls-10" d="M-206.27-30.6S-61.28,132.74,254.8,136.38c316.07,3.64,428.07-163.75,428.07-163.75,0,0-82.87,161.8-411.07,166.17C-56.4,143.16-220.02-31.35-220.02-31.35l13.74.76Z"/>
          </g>
          <g>
            <path class="cls-7" d="M438.84-47.14s-76.05,123.43-307.29,124.22c-251.35.85-367.65-127.19-367.65-127.19l10.27.57S-56.74-16.49,136.19-16.49s286.3-30.65,286.3-30.65h16.35Z"/>
            <path class="cls-1" d="M-202.58-32.7S-63.65,62.05,76.13,68.7c139.78,6.65,251.85-39.8,251.85-39.8,0,0-115.62,40.03-232.25,37.35C-20.9,63.56-119.81,5.99-119.81,5.99c0,0,11.62-1.17,21.8,1.58C-60.16,17.77,11.15,44.74,114.11,44.74S317.59,12.02,317.59,12.02c0,0-103.14,30.76-203.48,30.47C-51.1,42-152.41-25.04-152.41-25.04L-112.89-1.04l-11.54,1.4-78.15-33.06Z"/>
            <path class="cls-1" d="M392.05-29.32S216.3,8.9,122.54,6.96C28.77,5.02-101.76-23.87-101.76-23.87c0,0,139.4,26.94,238.25,26.94,90.45,0,255.57-32.39,255.57-32.39Z"/>
            <path class="cls-1" d="M438.84-47.14s-50.34,21.47-99.32,34.77C292.62.36,157.66,23.92,157.66,23.92c0,0,125.98-15.42,189.35-32.93,41.37-11.43,91.83-38.13,91.83-38.13Z"/>
            <path class="cls-3" d="M-225.84-49.55S-117.44,72.55,118.83,75.27c236.28,2.72,320-122.41,320-122.41,0,0-61.95,120.95-307.29,124.22-245.34,3.26-367.65-127.19-367.65-127.19l10.27.57Z"/>
          </g>
        </g>
      </g>
    </g>
  </g>
</svg>