<?xml version="1.0" encoding="UTF-8"?>
<svg xmlns="http://www.w3.org/2000/svg" xmlns:xlink="http://www.w3.org/1999/xlink" viewBox="0 0 390 209.97">
  <defs>
    <style>
      .cls-1 {
        fill: #fff;
        mix-blend-mode: soft-light;
      }

      .cls-1, .cls-2, .cls-3, .cls-4, .cls-5, .cls-6, .cls-7, .cls-8, .cls-9, .cls-10, .cls-11, .cls-12 {
        stroke-width: 0px;
      }

      .cls-2 {
        fill: url(#linear-gradient);
      }

      .cls-3 {
        fill: url(#_Áåçûìÿííûé_ãðàäèåíò_181);
      }

      .cls-4 {
        fill: url(#_Áåçûìÿííûé_ãðàäèåíò_180);
      }

      .cls-4, .cls-9, .cls-11 {
        mix-blend-mode: color-dodge;
      }

      .cls-4, .cls-11 {
        opacity: .74;
      }

      .cls-5 {
        opacity: .2;
      }

      .cls-5, .cls-8 {
        fill: #bc8ea8;
        mix-blend-mode: multiply;
      }

      .cls-6 {
        fill: url(#_Áåçûìÿííûé_ãðàäèåíò_70);
        opacity: .8;
      }

      .cls-13 {
        isolation: isolate;
      }

      .cls-7 {
        fill: none;
      }

      .cls-14 {
        clip-path: url(#clippath);
      }

      .cls-8 {
        opacity: .56;
      }

      .cls-9 {
        fill: url(#_Áåçûìÿííûé_ãðàäèåíò_96);
      }

      .cls-10 {
        fill: url(#_Áåçûìÿííûé_ãðàäèåíò_30);
      }

      .cls-11 {
        fill: url(#_Áåçûìÿííûé_ãðàäèåíò_180-2);
      }

      .cls-12 {
        fill: url(#_Áåçûìÿííûé_ãðàäèåíò_30-2);
      }
    </style>
    <clipPath id="clippath">
      <rect class="cls-7" x="-1.04" width="392.08" height="844.88"/>
    </clipPath>
    <linearGradient id="_Áåçûìÿííûé_ãðàäèåíò_181" data-name="Áåçûìÿííûé ãðàäèåíò 181" x1="-39.29" y1="112.74" x2="-39.29" y2="-122.93" gradientUnits="userSpaceOnUse">
      <stop offset="0" stop-color="#703327"/>
      <stop offset="1" stop-color="#5a1e1c"/>
    </linearGradient>
    <linearGradient id="linear-gradient" x1="-792.83" y1="-69.05" x2="474.81" y2="3.41" gradientTransform="translate(-59.31 50.02) rotate(-3.27)" gradientUnits="userSpaceOnUse">
      <stop offset="0" stop-color="#f0f1dd"/>
      <stop offset="1" stop-color="#866a39"/>
    </linearGradient>
    <linearGradient id="_Áåçûìÿííûé_ãðàäèåíò_180" data-name="Áåçûìÿííûé ãðàäèåíò 180" x1="-368.05" y1="38.49" x2="23.13" y2="38.49" gradientUnits="userSpaceOnUse">
      <stop offset="0" stop-color="#000"/>
      <stop offset="1" stop-color="#725e27"/>
    </linearGradient>
    <linearGradient id="_Áåçûìÿííûé_ãðàäèåíò_180-2" data-name="Áåçûìÿííûé ãðàäèåíò 180" x1="85.41" y1="41.92" x2="413.39" y2="41.92" xlink:href="#_Áåçûìÿííûé_ãðàäèåíò_180"/>
    <linearGradient id="_Áåçûìÿííûé_ãðàäèåíò_30" data-name="Áåçûìÿííûé ãðàäèåíò 30" x1="50.93" y1="-6.99" x2="-451.52" y2="-6.99" gradientUnits="userSpaceOnUse">
      <stop offset="0" stop-color="#f0dc9c"/>
      <stop offset=".54" stop-color="#d66d3a"/>
      <stop offset=".98" stop-color="#efc257"/>
    </linearGradient>
    <linearGradient id="_Áåçûìÿííûé_ãðàäèåíò_30-2" data-name="Áåçûìÿííûé ãðàäèåíò 30" x1="411.96" y1="26.61" x2="74.89" y2="26.61" xlink:href="#_Áåçûìÿííûé_ãðàäèåíò_30"/>
    <linearGradient id="_Áåçûìÿííûé_ãðàäèåíò_70" data-name="Áåçûìÿííûé ãðàäèåíò 70" x1="60.18" y1="209.06" x2="60.18" y2="-151.6" gradientUnits="userSpaceOnUse">
      <stop offset="0" stop-color="#fcf6bf"/>
      <stop offset="1" stop-color="#e3ab84"/>
    </linearGradient>
    <linearGradient id="_Áåçûìÿííûé_ãðàäèåíò_96" data-name="Áåçûìÿííûé ãðàäèåíò 96" x1="-203.04" y1="28.81" x2="323.41" y2="28.81" gradientUnits="userSpaceOnUse">
      <stop offset="0" stop-color="#000"/>
      <stop offset="1" stop-color="#61685f"/>
    </linearGradient>
  </defs>
  <g class="cls-13">
    <g id="OBJECTS">
      <g class="cls-14">
        <g>
          <g>
            <path class="cls-3" d="M61.77-117.57S-3.55,63.89-140.34,112.74L50.93-122.93l10.84,5.36Z"/>
            <path class="cls-2" d="M383.65-155.08l31.3,373.27S135.55,112.63,67.83-144.62c0,0-15.46,43.85-44.52,96.85,0,0-.06.09-.19.3C-23.86,33.83-106.72,132.03-214.42,123.99c-65.23-5-115.94-40.46-153.63-81.88-.3-.3-.45-.44-.45-.44-62.89-67.12-89.11-152.85-89.11-152.85,0,0-17.66,44.62-51.31,90.83-38.78,50.41-98.87,100.37-176.05,94.2-82.57-6.77-126.5-64.43-148.67-111.51-.17-.3-.29-.54-.36-.74-16.36-34.53-20.8-64.3-20.8-64.3l34.21-5.26s30.84,68.79,134.3,70.88c103.4,1.81,209.94-91.72,209.94-91.72l43.49-3.71S-330.55-27.72-220.55-26.58C-110.61-25.76,39.74-160.7,39.74-160.7l45.66-4.87,298.24,10.49Z"/>
            <path class="cls-8" d="M35.93-139.15S-66.63-18.54-190.38,2.48c0,0,95.94-9.05,177.79-78.95,0,0-89.55,152.32-199.26,162.74-110.14,8.52-179.75-109.69-179.75-109.69,0,0,47.12,112.33,175.27,120.76C-88.27,105.37,50.93-122.93,50.93-122.93l-15-16.23Z"/>
            <path class="cls-8" d="M77.7-133.72S228.3,55.58,375.74,133.45c0,0-88.51-56.37-132.98-124.79,0,0,68.31,39.62,132.98,63.64,0,0-234.45-143.5-296.05-214.19l-1.99,8.17Z"/>
            <path class="cls-4" d="M23.13-47.47C-23.86,33.83-106.72,132.03-214.42,123.99c-65.23-5-115.94-40.46-153.63-81.88,6.09,6.01,75.75,74.72,163.08,76.08C-97.57,119.03,17.86-39.62,23.13-47.47Z"/>
            <path class="cls-11" d="M85.41-115.74S158.17,88.85,413.39,199.58l-3.47-41.4S163.93,39.06,85.41-115.74Z"/>
            <path class="cls-10" d="M-449.29-104.83s85.17,213.28,241.64,208.77C-51.17,99.42,45.84-126.72,45.84-126.72l5.09,3.79S-29.75,101.61-198.04,112.36c-168.3,10.75-253.47-213.82-253.47-213.82l2.23-3.37Z"/>
            <path class="cls-12" d="M409.91,158.18C188.4,54.11,76.62-129.39,76.62-129.39l-1.73,2.67C193.66,98.99,411.96,182.61,411.96,182.61l-2.05-24.43Z"/>
          </g>
          <g>
            <path class="cls-6" d="M-203.04-143.18S-143.72,206.83,36.64,209.05c196.05,2.41,286.77-360.65,286.77-360.65l-8.01,1.6S183.5-56.28,33.02-56.28s-223.31-86.9-223.31-86.9h-12.75Z"/>
            <path class="cls-1" d="M297.26-102.24S188.89,166.43,79.86,185.28C-29.16,204.13-116.58,72.43-116.58,72.43c0,0,90.18,113.52,181.16,105.9C155.55,170.71,232.69,7.47,232.69,7.47c0,0-9.06-3.3-17,4.47-29.52,28.92-85.15,105.41-165.45,105.41S-108.48,24.58-108.48,24.58c0,0,80.45,87.23,158.71,86.39,128.86-1.38,207.88-191.49,207.88-191.49l-30.82,68.04,9,3.98,60.96-93.75Z"/>
            <path class="cls-1" d="M-166.55-92.65S-29.47,15.71,43.67,10.21c73.14-5.5,174.95-87.4,174.95-87.4C218.62-77.19,109.89-.8,32.79-.8-37.76-.8-166.55-92.65-166.55-92.65Z"/>
            <path class="cls-1" d="M-203.04-143.18s39.27,60.89,77.47,98.59C-89-8.49,16.27,58.33,16.27,58.33c0,0-98.26-43.73-147.69-93.39-32.27-32.42-71.63-108.12-71.63-108.12Z"/>
            <path class="cls-9" d="M315.4-150S230.85,196.22,46.56,203.93c-184.29,7.71-249.6-347.11-249.6-347.11,0,0,48.32,342.97,239.69,352.23,191.36,9.26,286.77-360.65,286.77-360.65l-8.01,1.6Z"/>
            <path class="cls-5" d="M-101.3-33.67S-28.28,26.61,26.04,48.48c39.19,15.77,111.6-13.76,111.6-13.76,0,0-37.55,43.42-83.45,46.43C8.29,84.16-109.75,4.39-109.75,4.39c0,0,96.22,80.26,163.94,84.07,67.72,3.81,226.02-196.07,226.02-196.07,0,0-133.39,134.53-211.96,150.68C16.27,53.76-101.3-33.67-101.3-33.67Z"/>
            <path class="cls-5" d="M-102.65,60.43S-13.52,145.15,50.93,145.15s132.6-76.69,132.6-76.69c0,0-76.08,91.23-132.6,86.69C-13.97,149.94-102.65,60.43-102.65,60.43Z"/>
          </g>
        </g>
      </g>
    </g>
  </g>
</svg>