<?xml version="1.0" encoding="UTF-8"?>
<svg xmlns="http://www.w3.org/2000/svg" xmlns:xlink="http://www.w3.org/1999/xlink" viewBox="0 0 390 141.11">
  <defs>
    <style>
      .cls-1, .cls-2, .cls-3, .cls-4, .cls-5, .cls-6, .cls-7, .cls-8, .cls-9, .cls-10 {
        stroke-width: 0px;
      }

      .cls-1, .cls-6 {
        fill: #fff;
        mix-blend-mode: soft-light;
      }

      .cls-2 {
        fill: url(#linear-gradient);
      }

      .cls-3 {
        fill: url(#_Áåçûìÿííûé_ãðàäèåíò_96-2);
      }

      .cls-3, .cls-10 {
        mix-blend-mode: color-dodge;
      }

      .cls-4 {
        fill: url(#_Áåçûìÿííûé_ãðàäèåíò_70);
      }

      .cls-4, .cls-7 {
        opacity: .8;
      }

      .cls-11 {
        isolation: isolate;
      }

      .cls-5 {
        fill: none;
      }

      .cls-6 {
        opacity: .67;
      }

      .cls-7 {
        fill: url(#_Áåçûìÿííûé_ãðàäèåíò_70-2);
      }

      .cls-12 {
        clip-path: url(#clippath);
      }

      .cls-8 {
        fill: #bc8ea8;
        mix-blend-mode: multiply;
        opacity: .56;
      }

      .cls-9 {
        fill: url(#_Áåçûìÿííûé_ãðàäèåíò_36);
      }

      .cls-10 {
        fill: url(#_Áåçûìÿííûé_ãðàäèåíò_96);
      }
    </style>
    <clipPath id="clippath">
      <rect class="cls-5" x="-1.04" width="392.08" height="844.88"/>
    </clipPath>
    <linearGradient id="linear-gradient" x1="757.72" y1="10.43" x2="2053.32" y2="84.48" gradientTransform="translate(849.42 50.02) rotate(-176.73) scale(1 -1)" gradientUnits="userSpaceOnUse">
      <stop offset="0" stop-color="#f0f1dd"/>
      <stop offset="1" stop-color="#866a39"/>
    </linearGradient>
    <linearGradient id="_Áåçûìÿííûé_ãðàäèåíò_36" data-name="Áåçûìÿííûé ãðàäèåíò 36" x1="1087.85" y1="-26.01" x2="702.06" y2="-26.01" gradientTransform="translate(790.11) rotate(-180) scale(1 -1)" gradientUnits="userSpaceOnUse">
      <stop offset="0" stop-color="#f0dc9c"/>
      <stop offset=".54" stop-color="#ebae41"/>
      <stop offset=".98" stop-color="#efc257"/>
    </linearGradient>
    <linearGradient id="_Áåçûìÿííûé_ãðàäèåíò_70" data-name="Áåçûìÿííûé ãðàäèåíò 70" x1="509.6" y1="125.39" x2="509.6" y2="-44.76" gradientTransform="translate(734.17) rotate(-180) scale(1 -1)" gradientUnits="userSpaceOnUse">
      <stop offset="0" stop-color="#fcf6bf"/>
      <stop offset="1" stop-color="#e3ab84"/>
    </linearGradient>
    <linearGradient id="_Áåçûìÿííûé_ãðàäèåíò_96" data-name="Áåçûìÿííûé ãðàäèåíò 96" x1="58.16" y1="40.35" x2="961.05" y2="40.35" gradientTransform="translate(734.17) rotate(-180) scale(1 -1)" gradientUnits="userSpaceOnUse">
      <stop offset="0" stop-color="#000"/>
      <stop offset="1" stop-color="#61685f"/>
    </linearGradient>
    <linearGradient id="_Áåçûìÿííûé_ãðàäèåíò_70-2" data-name="Áåçûìÿííûé ãðàäèåíò 70" x1="533.69" y1="59.27" x2="533.69" y2="-67.92" xlink:href="#_Áåçûìÿííûé_ãðàäèåíò_70"/>
    <linearGradient id="_Áåçûìÿííûé_ãðàäèåíò_96-2" data-name="Áåçûìÿííûé ãðàäèåíò 96" x1="196.21" y1="-4.3" x2="871.16" y2="-4.3" xlink:href="#_Áåçûìÿííûé_ãðàäèåíò_96"/>
  </defs>
  <g class="cls-11">
    <g id="OBJECTS">
      <g class="cls-12">
        <g>
          <g>
            <path class="cls-2" d="M-1205.43-164.27l27.99,373.27s279.4-105.56,347.11-362.81c0,0,15.46,43.85,44.52,96.85,0,0,.06.09.19.3,46.99,81.3,129.85,179.5,237.55,171.46,65.23-5,115.94-40.46,153.63-81.88.3-.3.45-.44.45-.44,62.89-67.12,89.11-152.85,89.11-152.85,0,0,17.66,44.62,51.31,90.83,38.78,50.41,98.87,100.37,176.05,94.2C5.06,57.89,48.98.23,71.16-46.85c.17-.3.29-.54.36-.74,16.36-34.53,20.8-64.3,20.8-64.3l-34.21-5.26S27.28-48.36-76.18-46.28c-103.4,1.81-209.94-91.72-209.94-91.72l-43.49-3.71s-102.32,104.8-212.33,105.93c-109.93.82-260.29-134.12-260.29-134.12l-45.66-4.87-357.54,10.49Z"/>
            <path class="cls-8" d="M-214.41-23.06S-131.21,49.12-75.06,49.18C-18.83,48.91,27.16-7.75,27.16-7.75c0,0-49.01,48.52-94.43,49.86-45.39,1.19-86.08-32.84-86.08-32.84,0,0,38.1,9.09,103.74,10.53,0,0-75.05,1.34-164.8-42.86Z"/>
            <path class="cls-6" d="M-253.63-29.68l.06.14c38.78,50.41,98.87,100.37,176.05,94.2C5.06,57.89,48.98.23,71.16-46.85c-5.87,11.48-51.25,95.85-141.38,106.6-96.98,11.76-183.4-89.42-183.4-89.42Z"/>
            <path class="cls-9" d="M-292.72-112.73S-217.08,55.63-82.08,55.63,83.8-103.32,83.8-103.32l4.25,2.29S49.38,60.69-76.62,60.71c-142.58.02-221.12-170.33-221.12-170.33l5.02-3.11Z"/>
          </g>
          <g>
            <path class="cls-4" d="M676.02-40.79s-101.74,165.12-411.07,166.17C-71.29,126.52-226.87-44.76-226.87-44.76l13.74.76S13.08.21,271.16.21s382.98-41,382.98-41h21.87Z"/>
            <path class="cls-1" d="M-182.02-21.47S3.84,105.28,190.82,114.17c186.98,8.89,336.91-53.24,336.91-53.24,0,0-154.67,53.55-310.69,49.96C61.01,107.29-71.29,30.29-71.29,30.29c0,0,15.55-1.56,29.16,2.11,50.63,13.64,146.03,49.73,283.76,49.73s272.2-43.77,272.2-43.77c0,0-137.97,41.15-272.2,40.76C20.62,78.46-114.9-11.22-114.9-11.22L-62.04,20.88l-15.44,1.88-104.54-44.23Z"/>
            <path class="cls-1" d="M613.43-16.95S378.32,34.17,252.89,31.58C127.46,28.98-47.16-9.66-47.16-9.66c0,0,186.48,36.04,318.71,36.04,121,0,341.87-43.33,341.87-43.33Z"/>
            <path class="cls-1" d="M676.02-40.79s-67.35,28.73-132.86,46.51c-62.73,17.03-243.27,48.55-243.27,48.55,0,0,168.52-20.63,253.29-44.06,55.34-15.3,122.84-51.01,122.84-51.01Z"/>
            <path class="cls-10" d="M-213.13-44S-68.13,119.33,247.94,122.97c316.07,3.64,428.07-163.75,428.07-163.75,0,0-82.87,161.8-411.07,166.17C-63.25,129.75-226.87-44.76-226.87-44.76l13.74.76Z"/>
          </g>
          <g>
            <path class="cls-7" d="M537.96-64.95S461.91,58.48,230.67,59.26c-251.35.85-367.65-127.19-367.65-127.19l10.27.57S42.39-34.31,235.32-34.31s286.3-30.65,286.3-30.65h16.35Z"/>
            <path class="cls-1" d="M-103.46-50.52S35.48,44.24,175.26,50.88c139.78,6.65,251.85-39.8,251.85-39.8,0,0-115.62,40.03-232.25,37.35C78.22,45.74-20.68-11.82-20.68-11.82c0,0,11.62-1.17,21.8,1.58C38.96-.05,110.28,26.93,213.24,26.93S416.72-5.79,416.72-5.79c0,0-103.14,30.76-203.48,30.47C48.02,24.19-53.28-42.85-53.28-42.85L-13.77-18.86l-11.54,1.4-78.15-33.06Z"/>
            <path class="cls-1" d="M537.96-64.95s-50.34,21.47-99.32,34.77c-46.89,12.73-181.85,36.29-181.85,36.29,0,0,125.98-15.42,189.35-32.93,41.37-11.43,91.83-38.13,91.83-38.13Z"/>
            <path class="cls-3" d="M-126.71-67.36S-18.32,54.74,217.96,57.46c236.28,2.72,320-122.41,320-122.41,0,0-61.95,120.95-307.29,124.22C-14.67,62.53-136.99-67.92-136.99-67.92l10.27.57Z"/>
          </g>
        </g>
      </g>
    </g>
  </g>
</svg>