<?xml version="1.0" encoding="UTF-8"?>
<svg id="OBJECTS" xmlns="http://www.w3.org/2000/svg" viewBox="0 0 101.75 79.83">
  <defs>
    <style>
      .cls-1 {
        fill: #351e16;
        fill-rule: evenodd;
        stroke-width: 0px;
      }
    </style>
  </defs>
  <path class="cls-1" d="M56.93,62.83c-.47-1.65-2.66-2.87-4.21-1.81-1.13.77-2.07,1.84-2.82,3.07-.33-1.73-.28-3.61.09-5.24.28-1.25,1.4-2.79,2.74-3.91.45.72,1.09,1.35,1.88,1.83,1.52.92,3.61.72,3.74-1.21.05.17.09.34.13.53.03.17.31.12.3-.05-.29-4.38-3.19-3.59-5.71-1.58-1.21-2.07.04-4.69,1.45-6.48,2.63-3.33,2.75,1.61,5.02,2.21,3.03.8,4.26-4.32,2.77-7.13,1.38-.34,2.56-2.12,3.23-3.82.44.09.92.09,1.39-.03.21-.05.11-.36-.09-.31-1.45.29-2.6-.74-2.32-2.22.28-1.46,1.87-1.85,3.11-1.49.61.18,1.43.78,2.06,1.5-.77,1.03-1.08,2.4-.54,3.62.05.12.16.2.3.16,2.17-.63,2.02-2.27,1.02-3.68.33-.39.72-.77,1.14-1.19.1-.1,0-.3-.15-.24-.53.19-1,.52-1.4.92-.84-.93-2-1.67-3.01-1.77-1.68-.18-3.14.98-3.18,2.7-.02,1.01.53,1.64,1.28,1.93-.3.4-.59.81-.86,1.23-.32.43-.63.85-.95,1.28-1.1-.08-1.88-.08-2.35.02-.26-.14-.55-.25-.88-.31-.25-.04-.57.25-.37.5.64.79,1.27,1.17,1.88,1.24.05.03.09.06.15.09.81,1.21.64,3,.32,4.31-.51,2.07-2.7,2.76-3.8.84-.31-.53-.54-1.11-.87-1.63-1.49-2.4-4.2,2.01-4.78,3.05-.97,1.71-.86,3.55.02,5.04-1.4,1.21-2.62,2.73-3.14,3.85-.52,1.15-.59,3.84-.07,6.22-2.47,4.81-2.09,11.6,2.65,14.3.33.19.6-.31.28-.51-3.99-2.46-4.2-6.64-3.22-10.76.17-.62.38-1.23.61-1.82.77,2.35,2.22,3.97,4.53,2.65,2.3-1.32,3.38-3.3,2.64-5.91ZM69.57,39.93c-.23-1.13.02-1.95.54-2.68.73,1.08.91,2.25-.54,2.68ZM58.19,55.1c-.16-.05-.36.02-.34.23.26,2.67-3.11.89-3.99.1-.29-.26-.52-.53-.7-.82,1.9-1.4,4.1-1.86,5.04.48ZM50.38,65.8c-.08-.22-.16-.44-.22-.67.01-.03.02-.06.04-.09.82-2.35,2.8-3.23,5.93-2.63,2.83,3.77-3.96,7.97-5.74,3.39Z"/>
  <path class="cls-1" d="M43.94,56.21c.58-3.9-3.35-8.23-6.92-9.75h0c-.3-2.88-3.18-5.51-6.07-5.59-.29-4.69-4.92-7.08-9.08-7.78-.43-.07-.59.54-.17.66,2.8.72,6.07,1.75,7.68,4.36.5.82.71,1.84.81,2.8-.77.11-1.53.39-2.22.95-.2.16-.22.38-.06.58,1.76,2.16,3,1.26,3.05-.98.35-.05.63-.08.73-.06,2,.31,3.44,2.43,4.16,4.14.1.24.18.49.24.74-1.84-.31-4.11.29-3.65,2.66.33,1.67,3.47,1.31,4.11.07.34-.65.48-1.33.49-2,2.92,1.68,6.59,5.12,6.19,8.75-1.98-1.13-4.37-1.62-4.76.76-.3,1.81,1.37,4.94,3.48,3.12,1.04-.89,1.63-1.89,1.89-2.93.12.11.24.21.37.34,1.17.95,1.68,2.54,2.09,3.92,1.27,4.25.4,9.27-.09,13.59-.04.31.44.45.49.12.78-5.45,1.8-11.54-.87-16.63-.28-.53-1-1.22-1.88-1.83ZM28.9,42.5c-.4-.38.47-.7,1.36-.9.17.93-.27,1.24-1.36.9ZM36.2,48.07c-.2.84-.76,1.27-1.69,1.28-.47-.41-.95-.83-1.42-1.24.87-1.2,1.91-1.68,3.09-1.46.08.47.1.95.02,1.42ZM42.01,58.64c-.93-.19-1.86-.38-2.78-.57,1.18-2.17,2.5-2.77,3.95-1.88-.16.81-.52,1.64-1.16,2.45Z"/>
  <path class="cls-1" d="M49.35,34.68c-.11-.35-.63-.35-.72.02-.67,2.66-3.48,4.77-5.08,1.22-1.21-2.7,1.86-4.89,4.01-5.65.5-.17,1.4-.21,1.74-.72,1.53-2.33-.13-6.84-1.3-9-.23-.43-.86-.03-.64.39,1.08,2.06,1.49,4.23,1.62,6.54.13,2.16-1.37,1.83-2.52,2.4-2.01.99-3.45,2.3-3.83,4.57-.34,1.99,1.96,5.32,4.26,4.25.79-.37,2.42-1.68,2.14-2.58.65,2.04,1.62,8.52-2.29,8.5-.57,0-1.18.33-1.73.49-3.88,1.16,2.01,8.71,3.25,9.67.29.22.68-.17.4-.42-.36-.31-6.42-8.48-3.1-8.56.83-.02,1.92-.36,2.75-.6,3.53-1.01,1.7-8.5,1.05-10.52Z"/>
  <path class="cls-1" d="M86.15,46.8c.34-.12.19-.61-.16-.54-15.59,3.43-27.22,17.06-29.83,32.5-.06.34.45.47.52.13,3.63-16.4,13.92-26.56,29.46-32.1Z"/>
  <path class="cls-1" d="M60.74,21.7c-.19.07-.2.29-.04.4.2.14.45.2.7.23-4.86,7.13-7.94,16.27-9.79,24.45-.04.18.21.24.27.07,1.76-4.81,3.28-9.69,5.24-14.42,1.46-3.52,3.36-6.78,5.16-10.12.17-.03.33-.06.48-.09.81-.19,1.46-.76,1.95-1.41.25-.33-.2-.78-.47-.45-.42.49-.89.83-1.48,1.04.21-.4.42-.79.63-1.19.09-.18-.16-.38-.29-.22-.4.51-.8,1.04-1.18,1.57-.4.01-.81,0-1.18.13Z"/>
  <path class="cls-1" d="M41.6,45.33c-.58-7.8-6.46-17.36-12.74-21.93-.27-.2-.53.23-.33.45,5.57,6.17,11.46,12.88,12.52,21.5.04.34.57.34.54-.01Z"/>
  <path class="cls-1" d="M34.1,22.63c.27-.18.52-.39.78-.59.25-.15.5-.26.76-.33.01.11.03.21.04.32-.28.5-.54,1.02-.77,1.54-.1-.14-.19-.29-.29-.43-.18-.26-.56-.02-.42.26.14.29.3.57.44.85,0,.09.04.17.12.22,2.09,3.95,4.61,7.62,5.72,12.04.05.22.36.11.32-.1-.8-4.35-3.01-8.55-5.48-12.24.26-.36.5-.72.74-1.1.21,0,.44-.18.4-.44,0-.06-.02-.11-.02-.17.15-.25.3-.5.44-.75.32.09.63.26.94.52.28.23.81,0,.65-.4-.22-.55-.5-1.06-.79-1.56.15-.28.3-.56.46-.84.2-.36-.22-.74-.57-.54-.19.11-.36.24-.54.36-.31-.46-.64-.93-.96-1.39-.19-.27-.66-.17-.64.19.04.8.06,1.59.11,2.38-.38.34-.77.67-1.17.99-.26.17-.52.36-.76.59-.33.31.12.88.5.62Z"/>
  <path class="cls-1" d="M25.46,17.29c.02-1.24.27-2.42.79-3.54.25-.54.6-1.02,1.01-1.46.31-.33.67-.47.85-.89.06-.14-.02-.27-.17-.28-1.07-.11-1.95,1.45-2.36,2.26-.61,1.2-.82,2.6-.8,3.93,0,.44.67.42.68-.02Z"/>
  <path class="cls-1" d="M26.54,15.62c-.17.36.36.67.55.3.37-.7.82-1.32,1.45-1.81.33-.26.71-.42,1.13-.45.3-.02.55.05.85-.04.11-.03.15-.15.09-.25-.42-.76-1.49-.45-2.1-.14-.92.46-1.55,1.48-1.96,2.38Z"/>
  <path class="cls-1" d="M27.54,18.27c.7-.56,1.46-.94,2.33-1.16,1-.25,1.75.2,2.58.67.14.08.32-.06.26-.21-.86-2.48-4.3-.94-5.59.19-.28.25.12.74.41.51Z"/>
  <path class="cls-1" d="M30.62,19.89c.6.32,1.05.83,1.63,1.17.18.1.44-.08.36-.29-.57-1.37-2.33-1.91-3.67-2.12-.38-.06-.54.5-.15.59.64.14,1.24.34,1.82.65Z"/>
  <path class="cls-1" d="M27.13,20c-.29-.27-.7.16-.42.44.41.41.82.82,1.18,1.27.29.36.53,1.04,1.01,1.15.12.03.23-.05.26-.16.16-.47-.35-.96-.62-1.3-.42-.51-.92-.96-1.41-1.4Z"/>
  <path class="cls-1" d="M25.28,27.83c1.72-1.4,1.57-3.68.74-5.54-.15-.34-.74-.08-.6.27.73,1.81.52,3.37-.51,5-.15.24.18.42.37.27Z"/>
  <path class="cls-1" d="M22.1,24.14c.55-.24.96-.66,1.22-1.19.19-.39-.39-.71-.59-.33-.24.46-.59.75-1.07.92-.38.14-.84.12-1.17.36-.12.09-.12.26,0,.34.46.3,1.15.09,1.61-.11Z"/>
  <path class="cls-1" d="M21.16,20.62c.35-.19.03-.69-.32-.52-.42.19-.83.3-1.29.29-.44,0-.81-.31-1.23-.37-.12-.02-.23.08-.19.2.35,1.29,2.22.84,3.04.4Z"/>
  <path class="cls-1" d="M19.88,18.45c.38.12.51-.46.15-.59-1.5-.54-1.8-1.78-2.15-3.18-.06-.22-.42-.22-.46.01-.28,1.74.83,3.26,2.46,3.76Z"/>
  <path class="cls-1" d="M21.91,16.73c-.53-.85-.85-1.74-1.06-2.71-.18-.87,0-1.73-.14-2.59-.03-.17-.25-.15-.33-.04-1.09,1.56.06,4.29,1.01,5.65.22.32.72.02.52-.32Z"/>
  <path class="cls-1" d="M22.89,14.55c-.13-.54-.19-1.08-.2-1.63,0-.52.08-1.02-.01-1.54-.03-.15-.23-.13-.3-.03-.61.92-.34,2.38-.08,3.38.1.38.68.2.58-.18Z"/>
  <path class="cls-1" d="M65.11,19.95c.4.15.67-.54.27-.69-.07-.03-.12-.06-.19-.09.07.05.15.08.24.08,1.16-.06,2.35-.57,2.39-1.88.03-1.1-1-1.94-2-2.11-.32-.06-.64-.05-.96.01.03-.06.04-.13.03-.2-.2-.95-.18-1.9,0-2.84.2-1.02.84-1.76,1.24-2.68.08-.19-.1-.4-.3-.29-1.93,1.1-2.06,4.11-1.53,5.98.02.08.06.12.11.16-.68.27-1.22.83-1.32,1.62-.17,1.34.83,2.49,2.01,2.93ZM65.6,17.1c.09-.39.54-.54.85-.73.29.23.52.55.57.91.1.77-.65,1.05-1.3,1.14-.12-.43-.21-.88-.12-1.32ZM65.4,16.03c-.79.55-.62,2.05-.36,2.93.03.08.08.16.15.21-1.52-.78-1.87-3.08.21-3.14Z"/>
  <path class="cls-1" d="M66.11,14.22c.25-.96.61-1.87,1.16-2.7.59-.88,1.52-1.13,2.27-1.78.1-.09.04-.28-.09-.3-1.06-.19-2.02.69-2.64,1.46-.72.91-1.07,2.05-1.31,3.17-.08.39.5.54.6.15Z"/>
  <path class="cls-1" d="M68.52,14.31c.56-.53,1.17-.88,1.95-.92.78-.04,1.29.53,1.97.76.13.04.24-.1.21-.22-.22-.81-1.18-1.28-1.98-1.3-1.04-.02-1.91.49-2.62,1.22-.29.3.17.74.47.45Z"/>
  <path class="cls-1" d="M70.05,15.57c.74.03,1.42.23,2.01.69.59.46.91,1.17,1.3,1.78.12.19.46.11.45-.13-.14-1.91-1.99-3-3.77-2.92-.38.02-.36.57.01.59Z"/>
  <path class="cls-1" d="M71.49,20.97c.03.14.25.16.32.03.69-1.41-.23-3.01-1.26-3.98-.29-.28-.7.16-.43.45.46.48.8.99,1.03,1.62.22.6.2,1.26.34,1.88Z"/>
  <path class="cls-1" d="M66.92,24.37c-.08.1-.04.31.13.29,2.31-.27,3.16-3.13,2.42-5-.15-.38-.75-.21-.61.18.29.88.29,1.7-.11,2.55-.41.85-1.26,1.28-1.82,1.99Z"/>
  <path class="cls-1" d="M66.43,20.72c-.27.79-.68,1.46-1.23,2.09-.45.51-1.2.82-1.53,1.41-.07.13.03.27.17.28.79.04,1.54-.81,2-1.36.55-.65.91-1.47,1.16-2.28.11-.36-.44-.49-.56-.14Z"/>
  <path class="cls-1" d="M61.59,20c.44-.09.23-.73-.2-.65-.49.09-.98,0-1.36-.32-.35-.29-.42-.77-.61-1.15-.1-.19-.34-.1-.4.06-.23.62.13,1.29.6,1.69.55.47,1.3.52,1.98.37Z"/>
  <path class="cls-1" d="M59.47,14.19c-.35.64.03,1.51.38,2.07.4.62,1.07,1.01,1.75,1.26.35.13.58-.46.24-.61-.55-.23-1.01-.55-1.37-1.04-.37-.51-.33-1.18-.67-1.69-.08-.12-.26-.12-.33,0Z"/>
  <path class="cls-1" d="M21.74,19.78c.2,1.03,1.2,1.62,2.16,1.8.4.08.55-.51.15-.61-.63-.16-1.26-.49-1.53-1.11-.25-.58.15-1.03.67-1.25.59-.25,1.63-.4,2.06.22.4.57-.4.98-.74,1.28-.17.15,0,.41.18.41.94.04,1.6-.96,1.32-1.81-.37-1.14-1.81-1.12-2.75-.9-.91.21-1.73.98-1.54,1.97Z"/>
  <path class="cls-1" d="M9.08,51.98c.15.24.31.47.46.71.23.38.91.1.72-.33-.01-.03-.03-.06-.05-.09,0,0,0,0,0,0,0,0,0-.01-.01-.02-.61-1.38-1.39-2.62-2.34-3.79-.08-.1-.16-.19-.23-.28.6-.49,1.18-1,1.71-1.57.31-.17.64-.32.99-.44.47-.16.25-.89-.22-.74,0,0-.01,0-.02,0-.05-.16-.17-.28-.38-.28-.79.01-1.57,0-2.36-.04-.05-.61-.13-1.2-.31-1.81-.02-.06-.06-.11-.1-.15-.05-.2-.08-.39-.14-.59-.09-.34-.68-.36-.73.02-.09.72-.23,1.59-.3,2.46-.91-.06-1.83-.12-2.74-.2-.38-.03-.44.44-.26.66.75.92,1.5,1.88,2.29,2.79-.11.5-.32.97-.63,1.39-.45.37-.89.76-1.3,1.17-.33.33.12.87.51.63.56-.34,1.01-.76,1.37-1.22.35-.29.71-.58,1.07-.86.91.96,1.89,1.85,3,2.57ZM7.39,45.92c.48.02.96.03,1.44.04-.03.03-.05.06-.08.09-.47.27-.92.59-1.34.95-.01-.32-.03-.63-.05-.95.02-.04.03-.08.03-.13ZM3.91,45.69c.33.03.66.06.99.08-.03.07-.04.16,0,.26.13.39.2.76.23,1.13-.41-.49-.82-.98-1.22-1.48Z"/>
  <path class="cls-1" d="M95.49,41.96c-.71.15-1.41.31-2.11.48.08-.63.21-1.27.37-1.9.1-.39-.43-.72-.71-.39-.75.92-1.42,1.89-2.05,2.88-.41.1-.83.19-1.24.29-1.1-.82-2.37-1.41-3.92-1.62-.51-.07-.71.71-.2.78,1.16.16,2.14.54,3.01,1.08-.63.13-1.25.26-1.89.35-.47.07-.48.81.02.76.94-.1,1.87-.26,2.8-.46.16.13.32.26.47.39-.66,1.18-1.27,2.39-1.82,3.64-.15.35.21.83.58.56,1.02-.75,2.05-1.49,3.05-2.27.61.73,1.2,1.5,1.81,2.25h0s.05.06.07.08c.31.38.86-.13.64-.52-.56-.98-.87-2.01-1.01-3.06.92-.81,1.79-1.67,2.54-2.65.26-.33,0-.77-.42-.69ZM89.96,46.92c-.1.08-.2.15-.31.23.27-.56.56-1.11.85-1.65.01.05.05.1.09.14-.22.42-.44.85-.64,1.29ZM91.95,45.4c-.05-.06-.11-.12-.17-.17.24-.23.41-.52.51-.84,0,0,0,0,0-.01,0,0,0,0,0,0,.01-.03.03-.06.04-.1.13-.48-.5-.66-.76-.3-.03.04-.05.09-.08.13-.09-.02-.18,0-.25.05.08-.13.16-.26.24-.39.32-.08.64-.16.96-.24-.02.47,0,.94.04,1.4-.18.16-.36.31-.55.46ZM93.29,44.24c0-.3,0-.61.01-.92.4-.1.79-.19,1.19-.29-.38.42-.79.82-1.21,1.2Z"/>
  <path class="cls-1" d="M51.63,30.54c.5-.57,1.02-1.14,1.55-1.72,0,.02,0,.03,0,.04.13.48.83.26.73-.22-.04-.18-.06-.37-.09-.55.17-.2.35-.4.51-.6.49.04.97.14,1.45.33.36.14.78-.19.55-.57-.27-.44-.54-.87-.81-1.31.27-.4.53-.81.75-1.24.21-.4-.35-.85-.65-.48-.22.26-.44.52-.68.76-.46-.8-.88-1.62-1.21-2.49-.14-.36-.66-.29-.67.11-.03,1.33-.2,2.67-.17,3.99-.15.08-.3.14-.45.2-.59.09-1.17.23-1.76.4-.44.13-.35.85.13.81.66-.05,1.27-.2,1.84-.42.1-.02.2-.03.3-.04,0,.05.01.11.02.16-.69.77-1.38,1.54-1.93,2.41-.22.35.31.74.59.43ZM53.74,24.32c.2.41.41.82.63,1.22-.21.19-.44.37-.67.54,0-.58.02-1.17.04-1.76Z"/>
  <path class="cls-1" d="M30.72,33.33c.34.2.77-.23.54-.56-.31-.44-.62-.88-.92-1.32.15-.36.29-.72.42-1.07.14-.38-.44-.69-.69-.38-.13.17-.29.32-.43.47-.41-.56-.82-1.11-1.27-1.64-.24-.28-.71.04-.6.37.25.77.5,1.54.72,2.31-.3.22-.61.42-.94.61-.43.13-.86.33-1.29.61-.38.25-.11.92.33.74.03-.01.06-.03.1-.04,0,0,0,0,0,0,.4-.16.78-.34,1.15-.54.32-.09.63-.14.95-.14-.21.45-.43.89-.62,1.35-.17.41.34.69.6.33.12-.17.22-.35.33-.52.15.41.8.19.71-.27-.04-.24-.1-.48-.16-.72,0-.02.02-.03.02-.05.34.1.68.25,1.04.45Z"/>
  <path class="cls-1" d="M11,47.71c-.34-.03-.39.52-.07.59,14.82,3.58,31.03,13.65,30.55,30.88-.01.49.73.46.75-.02.78-16.2-15.99-30.05-31.24-31.45Z"/>
  <path class="cls-1" d="M19.72,45.55c3.98,2.18,7.6,4.33,10.91,7.5,2.95,2.82,5.45,6.06,8.18,9.08.23.26.57-.13.36-.38-5.23-6.43-11.02-14.08-19.28-16.65-.27-.08-.42.32-.18.45Z"/>
  <path class="cls-1" d="M17.62,47.56c.31-.41.54-.9.72-1.42.27.36.52.73.76,1.11.23.36.79.02.57-.35-.34-.56-.71-1.08-1.11-1.59.08-.36.13-.73.16-1.1.23-.07.46-.15.7-.2.44-.09.33-.67-.02-.79-.21-.07-.42-.13-.64-.19,0-.48-.04-.94-.09-1.37-.06-.46-.65-.53-.8-.09-.13.37-.27.76-.41,1.13-.67-.14-1.36-.25-2.04-.35-.42-.06-.66.47-.28.71.53.33,1.02.74,1.48,1.17-.81.51-1.51,1.18-2.07,2.01-.26.39.25.7.58.55.96-.43,1.63-1.12,2.15-1.92.13.14.24.28.36.42-.18.69-.45,1.37-.51,2.09-.02.24.34.38.48.19Z"/>
  <path class="cls-1" d="M81.86,63.03c.43.43.98.77,1.55.95.45.14.6-.54.17-.7-.29-.1-.55-.24-.79-.41.21-.03.2-.4,0-.43-.16-.02-.32-.03-.48-.04-.06-.08-.13-.15-.19-.24-.33-.52-.35-1.18-.44-1.77-.03-.2-.37-.23-.44-.05-.3.72-.2,1.4.12,1.99-9.67-.32-21.3,7.14-22.81,16.83-.07.46.63.65.71.18,1.91-10.99,13.01-14.68,22.59-16.32Z"/>
  <path class="cls-1" d="M17.69,62.84c-.71-.49-1.56-.8-2.33-.91-.41-.06-.57.55-.16.63.68.13,1.26.4,1.83.78.61.41,1.02,1.02,1.57,1.49.2.17.53,0,.45-.28-.13-.43-.38-.8-.69-1.13,10.19-.03,17.97,6,20.44,16.16.11.45.76.23.68-.21-1.66-9.63-11.61-18.83-21.8-16.54Z"/>
  <path class="cls-1" d="M14.61,56.13c.04-.14-.08-.25-.21-.26-.7-.07-1.29.83-1.53,1.4-.3.7-.24,1.46.06,2.15.16.38.78.22.63-.19-.21-.59-.22-1.17.05-1.75.25-.52.84-.8,1-1.35Z"/>
  <path class="cls-1" d="M15.04,59.77c.02-.62.22-1.17.65-1.63.38-.4.9-.41,1.35-.66.17-.09.17-.39-.01-.47-.66-.29-1.41.15-1.88.61-.57.55-.75,1.39-.72,2.16.02.4.6.38.61-.01Z"/>
  <path class="cls-1" d="M15.68,61.04c.46-.33.95-.57,1.52-.63.56-.06.98.26,1.51.27.2,0,.27-.21.2-.37-.26-.56-.98-.66-1.54-.67-.75-.02-1.48.39-2.05.84-.33.26,0,.83.35.57Z"/>
  <path class="cls-1" d="M15.26,64.41c-.38-.23-.69.36-.33.6,1.83,1.23,1.77,3.23.91,5.05-.07.15.1.26.22.16,1.98-1.71,1.25-4.54-.8-5.81Z"/>
  <path class="cls-1" d="M13.63,67.22c-.05.74-.38,1.36-1.01,1.75-.61.38-1.3.11-1.92.34-.15.06-.2.24-.09.36.62.65,1.88.3,2.54-.11.8-.5,1.1-1.45,1.06-2.35-.02-.37-.55-.35-.58.01Z"/>
  <path class="cls-1" d="M9.96,67c-.44,0-.87-.01-1.31-.07-.38-.05-.72-.25-1.1-.31-.2-.03-.43.18-.28.38.59.78,1.84.65,2.71.61.39-.02.38-.61-.01-.61Z"/>
  <path class="cls-1" d="M7.92,64.05c-.56,0-1.08-.11-1.48-.52-.39-.4-.27-1.07-.66-1.44-.07-.06-.18-.07-.25,0-.46.5-.05,1.46.33,1.9.52.6,1.32.75,2.08.73.43-.01.41-.66-.02-.67Z"/>
  <path class="cls-1" d="M8.85,62.12c-.32-.45-.59-.92-.78-1.45-.2-.58-.08-1.22-.31-1.77-.06-.13-.25-.23-.36-.09-.84,1.06.25,2.89.93,3.76.1.13.24.16.37.13-.27,1.65,1.53,2.79,2.88,3.16.42.11.57-.52.16-.65-1.11-.35-2.52-1.27-2.24-2.62.19-.9,1.05-1.5,1.92-1.47.63.02,1.29.42,1.63.93.42.63-.04,1.13-.56,1.46-.21-.41-.19-.92-.5-1.3-.12-.15-.33-.09-.35.11-.07.73-.04,1.43.46,1.99.12.14.33.12.47.05.94-.46,1.74-1.32,1.3-2.42-.39-.98-1.47-1.51-2.47-1.6-1.15-.11-2.14.75-2.55,1.78Z"/>
  <path class="cls-1" d="M10.15,57.41c0-.13-.14-.19-.25-.14-1.06.53-.81,2.19-.39,3.04.2.4.76.03.58-.36-.23-.5-.27-.99-.16-1.52.07-.35.23-.66.22-1.03Z"/>
  <path class="cls-1" d="M86.24,57.8c-.12.38.47.61.65.26.29-.58.63-1.08,1.17-1.46.49-.34,1.17-.44,1.75-.56.18-.04.21-.32.04-.39-1.53-.69-3.17.71-3.61,2.15Z"/>
  <path class="cls-1" d="M93.26,58.2c.17,0,.28-.2.19-.34-.84-1.23-3.09-.87-4.25-.39-.44.18-.24.88.21.71.61-.24,1.21-.35,1.87-.35.7,0,1.31.38,1.98.37Z"/>
  <path class="cls-1" d="M92.72,59.67c-.39-.22-.7.37-.33.6.64.4,1.13.92,1.51,1.57.32.55.43,1.17.83,1.67.09.11.26.03.3-.09.43-1.47-1.16-3.09-2.31-3.75Z"/>
  <path class="cls-1" d="M92.32,62.37c.35.5.58,1.02.73,1.62.12.48.02.99.2,1.45.05.12.2.18.3.07.88-.91-.04-2.71-.65-3.5-.27-.34-.84,0-.58.36Z"/>
  <path class="cls-1" d="M91.14,65.03c.2.7.16,1.3-.16,1.95-.29.6-.82,1.01-1.16,1.57-.11.17.09.45.29.36,1.53-.66,2.14-2.56,1.62-4.07-.13-.38-.71-.21-.6.18Z"/>
  <path class="cls-1" d="M88.79,67c-.46.55-.97,1-1.61,1.35-.6.33-1.27.26-1.89.47-.18.06-.2.29-.04.39,1.44.89,3.21-.73,3.99-1.79.23-.31-.19-.74-.45-.43Z"/>
  <path class="cls-1" d="M85.71,67.43c-.64.21-1.26.33-1.94.32-.72-.01-1.2-.5-1.86-.6-.17-.03-.33.11-.28.29.19.66.97.91,1.58,1.04.9.19,1.86-.05,2.71-.35.44-.16.24-.84-.21-.7Z"/>
  <path class="cls-1" d="M82.08,63.7c-.07-.02-.17,0-.22.06-.35.48.18,1.09.54,1.4.5.43,1.16.65,1.79.79.47.11.65-.61.18-.72-.51-.13-1.02-.3-1.44-.63-.33-.26-.46-.78-.86-.9Z"/>
  <path class="cls-1" d="M83.77,58.75c-.5.28-.43.95-.41,1.43.01.4.62.38.61-.01,0-.41.02-.79.13-1.18.05-.19-.17-.34-.33-.24Z"/>
  <path class="cls-1" d="M87.87,62.26c.2-.22-.01-.54-.29-.47-.74.18-1.57.88-1.56,1.71,0,.67.67,1.07,1.23,1.26,1.36.46,3.37-.05,3.56-1.68.28-2.38-2.23-3.92-4.29-2.91-.96.47-1.72,1.31-1.98,2.36-.29,1.23.42,2.33,1.36,3.04.14.1.28.19.42.29.39.25.72-.37.34-.62-.8-.54-1.54-1.36-1.4-2.39.1-.78.67-1.42,1.3-1.83,1.56-1.01,3.49-.03,3.46,1.87-.01,1.15-1.5,1.33-2.35,1.15-.3-.07-.75-.21-.85-.55-.12-.42.81-.98,1.03-1.22Z"/>
  <path class="cls-1" d="M41.79,12.64c-.02.08-.05.15-.07.23-.09.35.37.58.6.36,1.01,1.13,2.12,2.23,3.29,3.23.02.14.02.29.05.43.05.24.36.17.43,0,0,0,0,0,0,0,.13.1.26.2.39.3,0,.29-.01.59,0,.88,0,.15.24.24.31.08.07-.18.13-.37.19-.56.31.23.62.45.94.65-.03.04-.06.08-.09.12-.23.33.28.66.55.4.05-.05.1-.1.15-.15.26.07.51-.2.44-.45,2.62-2.69,4.71-6.31,6.31-9.61.87-1.81,2.57-5.86.82-7.68-3-3.1-7.79,3.12-8.27,6.01-.11-.21-.25-.42-.39-.63.04-.21-.11-.35-.28-.37-2.36-3.02-7.51-5.4-8.97-.9-.79,2.41,1.47,5.05,2.84,6.75.25.31.51.62.78.94ZM46.52,15.98s-.1-.08-.15-.13c.23-1.04.32-2.15.54-3.18.05-.25.13-.49.19-.74-.28,1.35-.49,2.71-.58,4.05ZM48.43,7.22c.37-1.96,1.43-3.48,2.89-4.8.51-.46,1.09-.83,1.72-1.11-.61.76-1.1,1.6-1.77,2.32-.06.07-.08.14-.08.21-.81,2.95-1.67,5.89-2.5,8.84.33-2.1.45-4.27.65-6.3.03-.28-.45-.33-.49-.05-.07.48-.14.96-.22,1.43-.08-.15-.31-.19-.44-.07-.01-.01-.02-.03-.03-.04-.02-.06-.04-.12-.06-.18.15,0,.31-.07.34-.24ZM48,16.62c.29-.44.55-.9.79-1.37.08,0,.16-.02.21-.11,1.53-2.82,1.99-6.24,3.11-9.25.15-.4-.49-.55-.64-.16-.05.14-.11.29-.16.43.15-.73.3-1.45.47-2.15.75-.81,1.59-1.79,1.78-2.9,0,0,0-.02,0-.03.1-.03.19-.08.29-.11,2.2-.66,2.16,2.02,1.97,3.39-.41,3.05-2,5.81-3.85,8.4.33-.85.63-1.72.89-2.6.07,0,.15-.02.19-.09.89-1.38,1.49-2.97,2.18-4.46.15-.33-.34-.6-.5-.27-.4.83-.83,1.65-1.23,2.49.52-2,.95-4.02,1.43-5.98.09-.37-.47-.51-.57-.14-1.32,4.86-2.57,9.6-4.71,14.14-.44.58-.87,1.14-1.29,1.71-.27-.23-.54-.46-.81-.69.03-.08.06-.17.09-.26.07.11.26.13.34,0ZM47.18,7.22c.12.21.23.43.32.65-.73,2.12-1.82,4.81-1.94,7.25-.21-.19-.42-.37-.62-.56.5-.8.71-2.01.96-2.78.49-1.5.9-3.03,1.28-4.56ZM45.82,5.44c-.64,1.93-1.36,3.82-1.98,5.76-.12.38-.44,1.13-.2,1.53.22.36.57.03.63-.25,0-.04,0-.07,0-.1,0,0,.01-.02.02-.03.09-.17.13-.38.18-.57.2-.72.42-1.42.64-2.13.39-1.25.77-2.5,1.13-3.75.15.18.3.36.44.55-.43,1.57-.91,3.13-1.4,4.68-.25.79-.81,1.82-1.07,2.76-.52-.5-1.02-1.01-1.51-1.53.36-.92.66-1.87.93-2.83,0,0,0-.01,0-.02,0,0,0,0,0,0,.25-.9.49-1.81.78-2.7.11-.34-.41-.46-.53-.13-.5,1.42-.92,2.87-1.42,4.29-.13.25-.24.51-.35.78h0c1-2.37.88-5.44,1.02-7.94,0-.07-.03-.11-.06-.15,1,.37,1.95,1.02,2.74,1.81ZM40.37,3.79c-.36,1.51-.71,3.4-.47,5.04,0,0,0-.01-.01-.02-1.42-2.23-1.41-6.06,2.2-5.45.24.04.49.11.73.19-.12.03-.23.1-.24.26-.12,1.44-.26,2.87-.43,4.31-.13,1.03-.37,2.05-.48,3.07-.42-.5-.82-1.02-1.2-1.55.17-.7.14-1.41.14-2.13.01-1.2.07-2.4.28-3.59.06-.33-.43-.46-.51-.13Z"/>
  <path class="cls-1" d="M41.69,9.86c.35-.78.34-1.69.42-2.54.09-1,.1-2.01.07-3.01-.01-.4-.62-.39-.62.01,0,.88-.06,1.75-.14,2.63-.09.94-.33,1.94-.12,2.87.04.18.32.21.4.04Z"/>
  <path class="cls-1" d="M12.74,34.68c1.72-.26,4.44-.62,5.89-1.79.22-.04.4-.22.31-.49-.95-2.81-2.22-5.55-3.59-8.18-.95-1.84-2.13-4.22-4.39-4.64-3.11-.59-.45,6.61.38,8.15-.22.06-.46.13-.71.21-.13-.03-.27.03-.35.13-.63.23-1.29.51-1.91.84-.02-.03-.05-.05-.07-.08-.25-.27-.6.09-.44.37-1.85,1.15-3.02,2.8-.92,4.72,1.54,1.41,3.92,1.04,5.8.75ZM10.6,23.62c-.22-.8-.35-1.61-.34-2.44.9,1.52,1.86,3.21,2.95,4.77-.68-.79-1.37-1.58-2.05-2.37-.22-.25-.55.04-.48.31-.03-.09-.05-.18-.08-.27ZM10.68,23.91s.03.07.06.11c1.18,1.4,2.36,2.81,3.5,4.23.4.49.77,1.01,1.15,1.53-.21-.24-.43-.48-.63-.72-.77-.93-1.52-1.88-2.33-2.78-.25-.27-.62.14-.39.41.21.25.42.51.63.78-.25-.14-.62.13-.42.41,1.15,1.56,2.42,3.75,4.21,4.64.19.09.46-.13.31-.32-.13-.17-.28-.32-.42-.47.12.09.24.19.37.27.16.1.33-.08.28-.23.14.15.27.31.42.45.19.18.43-.06.34-.27-.49-1.09-1.26-2.07-2.05-3.01.22.2.43.41.66.6.2.16.48-.05.35-.28-.8-1.41-1.98-2.66-2.96-3.97-1.1-1.48-2.13-3.01-3.12-4.56-.06-.09-.14-.12-.22-.12.5-.74,2.15.66,2.52,1.12,2.35,2.96,3.91,7.02,5.13,10.6-.93.27-1.85.56-2.77.83,0-.03.01-.06,0-.09-.29-.88-.99-1.61-1.52-2.35-.61-.85-1.16-1.75-1.62-2.68,0-.04-.01-.08-.03-.12.05-.1.06-.22-.01-.35-.65-1.13-1.07-2.37-1.42-3.62ZM11.67,28.41c.45.91.96,1.78,1.53,2.62.51.76,1.03,1.64,1.79,2.19-.26.08-.52.16-.78.23-.32-.76-.89-1.45-1.33-2.14-.56-.9-1.13-1.79-1.7-2.68.16-.07.33-.14.49-.21ZM10.55,28.88c.58.93,1.13,1.88,1.7,2.81.22.37.44.76.69,1.14-.38-.47-.85-.91-1.2-1.39-.54-.74-1-1.52-1.41-2.34-.02-.04-.05-.07-.09-.1.1-.04.2-.08.3-.12ZM9.79,29.19s-.01.1.01.15c.38.86.81,1.69,1.33,2.48.03.05.07.1.1.15-.2-.18-.39-.37-.56-.55-.57-.62-1.14-1.24-1.7-1.87.27-.13.55-.25.83-.37ZM8.31,29.9s.05-.03.08-.04c.58.7,1.16,1.41,1.76,2.11.55.64,1.22,1.53,2.02,1.95-.17.03-.33.07-.5.09.03-.07.03-.15,0-.23-.34-.62-1.11-1.07-1.64-1.54-.72-.64-1.43-1.28-2.14-1.93-.03-.03-.07-.05-.1-.06.2-.14.39-.25.54-.34ZM7.31,30.58c0,.07.03.15.1.21.68.67,1.37,1.35,2.07,2,.46.43,1,1.01,1.61,1.27-.4.03-.81.04-1.22.03.04-.05.06-.13.05-.2-.14-.6-.82-1.09-1.23-1.52-.51-.55-1.05-1.08-1.59-1.6.07-.06.15-.13.22-.19ZM6.66,31.32c.45.47.89.95,1.33,1.43.37.4.81,1.04,1.34,1.31-.09,0-.17,0-.26-.02-1.05-.12-2.09-.91-2.48-1.91-.12-.29-.06-.56.07-.82Z"/>
  <path class="cls-1" d="M12.41,22.42c1.03,1.69,2.1,3.63,3.44,5.09.12.13.35-.01.29-.17-.7-1.87-2.22-3.51-3.26-5.2-.18-.3-.65-.02-.47.29Z"/>
  <path class="cls-1" d="M72.47,36.47c0,.27.4.39.52.13.04-.09.07-.19.12-.29.07.18.25.33.5.29,3.99-.74,8.19-1.24,11.9-2.98,1.54-.72,4.55-1.92,4.42-4.08-.2-3.25-6.21-2.26-8.52-1.1.76-1.76,1.82-4.07.76-5.74-1.09-1.72-2.49-2.27-4.34-1.27-1.9,1.03-2.85,3.39-3.48,5.41-.02.02-.04.04-.05.06-.04.06-.04.12-.02.18-.04.14-.09.28-.12.41-.79,2.69-1.74,6.15-1.67,8.97ZM87.39,28.43c.29.1.55.24.77.39-.73.6-1.48,1.17-2.22,1.77-.77.63-1.76,1.33-2.17,2.25-.11.25.15.59.42.4.76-.53,1.38-1.29,2.1-1.89.79-.66,1.61-1.29,2.39-1.96.23.45.15.99-.39,1.59.03-.29-.26-.6-.55-.38-1.05.81-2.24,1.46-3.1,2.49-.03.03-.04.07-.04.11-1.16.48-2.37.85-3.61,1.16.57-.4,1.11-.85,1.65-1.26,1.21-.92,2.37-1.91,3.54-2.89.2-.17.06-.47-.15-.55.42-.33.84-.66,1.25-.96.1-.07.13-.18.11-.27ZM74.5,29.95c.8-.53,1.53-1.21,2.24-1.83,1.17-1.02,2.29-2.1,3.37-3.23.26-.28-.16-.68-.43-.41-.99,1-2.03,1.93-3.09,2.84-.61.52-1.28,1.03-1.9,1.57.12-.65.25-1.29.43-1.89,0,0,0,0,0-.01.11-.07.22-.15.33-.23-.14.2-.27.41-.37.63-.08.19.11.43.31.3.84-.55,1.49-1.4,2.21-2.08.84-.8,1.7-1.59,2.5-2.44.08-.08.1-.18.08-.26.11-.07.21-.15.32-.22.31-.2.02-.67-.3-.49-1.11.64-2.14,1.38-3.12,2.19-.45.37-.96.75-1.43,1.14.74-1.79,1.98-3.61,3.91-3.89,3.26-.46,2.1,3.8,1.7,5.03-.16.5-.36,1-.54,1.5-.01,0-.02,0-.03,0-1.18.19-2.41.66-3.6,1.25.06-.05.11-.1.17-.14,1.37-1.15,2.69-2.34,3.93-3.63.32-.33-.19-.82-.51-.49-1.13,1.14-2.33,2.21-3.56,3.24-.85.71-1.83,1.39-2.67,2.17.03-.21.06-.42.09-.62ZM78.47,29.98c.12-.06.17-.16.17-.26.64-.27,1.26-.58,1.83-.95-.03.08-.06.17-.09.25-.06.19.03.32.17.38-2.06.82-4.04,2.12-5.83,3.26-.36.23-.02.79.35.57,2.43-1.49,5.09-2.5,7.54-3.93.28-.16.07-.56-.22-.5-.11.02-.21.06-.32.09,1.08-.53,2.24-.75,3.49-.76.48,0,.95.05,1.37.15-.32.2-.63.42-.94.63-.02-.03-.06-.04-.1-.03-.64.24-1.26.51-1.87.79-.03-.02-.06-.02-.09-.02-3.21.73-6.32,2.67-9.36,3.94-.41.17-.22.84.2.67.92-.38,1.91-.74,2.91-1.13-.19.11-.39.22-.58.33-.7.38-1.4.75-2.09,1.14-.4.22-.03.8.37.6,2.66-1.33,5.27-2.8,7.82-4.37-.01,0-.03.02-.04.03-1.44,1.03-3.03,1.91-4.4,3.02-.19.15-.08.51.19.42.55-.18,1.09-.43,1.62-.71-.53.36-1.05.75-1.52,1.18-1.93.38-3.86.67-5.67,1.01-.02,0-.04.02-.06.02.41-1.09.64-2.28.84-3.5,1.47-.73,2.88-1.56,4.32-2.35Z"/>
  <path class="cls-1" d="M74.81,45.44c-.8.26-.65-.87-.99-1.26-.08-.1-.24-.07-.32,0-.43.43-.23,1.32.17,1.73.37.38.87.45,1.37.32.94-.23,1.73-1.36.95-2.18-1.11-1.17-3.17-1.25-4.32-.15-.54.51-.66,1.25-.54,1.95.05.29.22.76.47,1.12-4.95,3.39-9.79,9.69-11.43,15.37-.1.35.46.58.61.24,2.58-6.23,6.85-10.36,11.27-15.18.19.09.39.11.6-.02.12-.07.2-.21.19-.35-.02-.36-.4-.57-.58-.85-.05-.07-.11-.11-.17-.13-.26-.62-.26-1.29.42-1.77.87-.62,2.07-.3,2.84.31.42.33-.24.74-.55.84Z"/>
  <path class="cls-1" d="M36.9,69.82c.24.37.81.02.59-.36-2.07-3.48-5.51-6.65-9.27-8.19-.24-.1-.41.2-.2.35,3.38,2.44,6.55,4.65,8.89,8.19Z"/>
  <path class="cls-1" d="M27.46,72.8c-.3-.04-.52.38-.21.53,2.88,1.31,6.41,1.03,8.44,3.87.17.24.55.01.39-.24-1.82-2.88-5.43-3.69-8.62-4.16Z"/>
  <path class="cls-1" d="M70.19,72.33c-1.65-.21-3.68.99-5.02,1.85-1.53.98-2.76,2.39-3.16,4.19-.1.44.56.61.68.17.49-1.75,1.76-2.95,3.25-3.89,1.35-.86,2.99-1.03,4.32-1.82.18-.11.16-.46-.08-.49Z"/>
  <path class="cls-1" d="M21.78,71.14c-.59,1.87,1.5,3.56,3.18,3.53.39,0,.37-.59-.01-.61-1.24-.06-2.63-1.27-2.45-2.6.15-1.15,2.16-1.7,3.01-1,.54.45.6,1.38.34,1.99-.36.86-.98-.39-1.28-.72-.13-.15-.42-.02-.4.18.13,1.09,1.35,2.36,2.23,1.13.66-.92.39-2.49-.45-3.19-1.27-1.06-3.7-.22-4.17,1.29Z"/>
  <path class="cls-1" d="M26.45,45.22c.9.83,1.8,1.67,2.66,2.54.23.23.52-.11.33-.35-.79-.95-1.6-1.87-2.48-2.73-.77-.75-1.63-1.69-2.62-2.13-.2-.09-.46.12-.32.33.62.9,1.62,1.59,2.43,2.33Z"/>
  <path class="cls-1" d="M56.77,40.46c-.1.29.37.47.5.2,1.72-3.93,4.57-6.88,7.18-10.2.26-.33-.15-.73-.47-.45-3.13,2.75-5.8,6.53-7.2,10.45Z"/>
  <path class="cls-1" d="M67.21,28.75c-.73.64-.99,1.87-.1,2.49.76.53,1.85-.02,2.37-.62,1.05-1.22.98-3.42-.65-4.06-1.28-.5-2.95-.06-3.89.92-1.36,1.42-.2,3.2,1.04,4.19.34.27.82-.2.48-.5-.83-.73-1.85-1.87-1.1-2.99.54-.8,1.72-1.1,2.62-1.04,1.08.07,1.58.9,1.42,1.92-.12.81-.59,1.61-1.49,1.66-1.03.05-.42-1.23-.27-1.72.07-.26-.25-.39-.43-.23Z"/>
  <path class="cls-1" d="M43.61,29.47c.34-3.26-.48-6.76-2.4-9.46-.15-.22-.54-.08-.44.2,1.1,3.15,2.33,5.85,2.5,9.26.01.22.32.2.34,0Z"/>
  <path class="cls-1" d="M54.79,21.06c.01.41.62.39.63-.01.08-2.94,1.2-5.36,1.92-8.14.06-.25-.26-.34-.39-.15-1.6,2.32-2.24,5.54-2.17,8.31Z"/>
  <path class="cls-1" d="M20.88,36.88c-1,.02-.96,1.57.04,1.54s.96-1.57-.04-1.54Z"/>
  <path class="cls-1" d="M16.67,36.29c-.92.02-.89,1.46.03,1.44s.89-1.46-.03-1.44Z"/>
  <path class="cls-1" d="M17.07,75.33c-.9.02-.87,1.42.03,1.4s.87-1.43-.03-1.4Z"/>
  <path class="cls-1" d="M11.41,76.1c-.72.02-.69,1.13.03,1.11s.69-1.13-.03-1.11Z"/>
  <path class="cls-1" d="M16.99,72c.22,0,.21-.34,0-.33s-.21.34,0,.33Z"/>
  <path class="cls-1" d="M13.27,38.78c.59-.01.57-.93-.02-.92s-.57.93.02.92Z"/>
  <path class="cls-1" d="M52.03,34.69c.91.49,1.65-.28,1.11-1.17-.71-1.18-2.33.51-1.11,1.17Z"/>
  <path class="cls-1" d="M54.11,31.77c-.55.01-.53.86.02.85s.53-.86-.02-.85Z"/>
  <path class="cls-1" d="M70.99,24.53c.81-.02.78-1.28-.03-1.26s-.78,1.28.03,1.26Z"/>
  <path class="cls-1" d="M79.07,42.65c-1.07.08-1.03,1.63.04,1.66.28,0,.49-.02.75-.16.51-.28.49-1.11-.03-1.37-.26-.13-.47-.15-.75-.13Z"/>
  <path class="cls-1" d="M77.07,41.7c.83-.02.8-1.3-.03-1.28s-.8,1.3.03,1.28Z"/>
  <path class="cls-1" d="M78.41,57.07c.3,0,.29-.48-.01-.47s-.29.48.01.47Z"/>
  <path class="cls-1" d="M71.75,69.51s.02-.03.03-.05c.13-.19.13-.55-.02-.73-.01-.02-.02-.03-.04-.05-.47-.63-1.55-.42-1.53.45s1.11,1.03,1.55.38Z"/>
  <path class="cls-1" d="M71.85,72.62c-.86.02-.83,1.35.03,1.33s.83-1.35-.03-1.33Z"/>
  <path class="cls-1" d="M74.02,70.36c-.85.02-.82,1.33.03,1.31s.82-1.33-.03-1.31Z"/>
  <path class="cls-1" d="M78.52,72.54c-.77.02-.74,1.2.03,1.19s.74-1.2-.03-1.19Z"/>
  <path class="cls-1" d="M35.69,14.94c1.09-.03,1.05-1.71-.04-1.69s-1.05,1.71.04,1.69Z"/>
  <path class="cls-1" d="M32.41,11.75c.7-.02.68-1.1-.02-1.09s-.68,1.1.02,1.09Z"/>
  <path class="cls-1" d="M59.08,11.47c.81-.02.78-1.28-.03-1.26s-.78,1.28.03,1.26Z"/>
  <path class="cls-1" d="M81.44,38.39c-1.07.02-1.04,1.69.04,1.67s1.04-1.69-.04-1.67Z"/>
  <path class="cls-1" d="M79.74,39.84c-.86.02-.83,1.35.03,1.33.86-.02.83-1.35-.03-1.33Z"/>
  <path class="cls-1" d="M82.8,43.98c.75-.02.73-1.18-.03-1.16s-.72,1.18.03,1.16Z"/>
  <path class="cls-1" d="M85.4,38.93c.69-.02.67-1.09-.02-1.07s-.67,1.09.02,1.07Z"/>
  <path class="cls-1" d="M79.9,57.33c1-.02.96-1.57-.04-1.55s-.97,1.57.04,1.55Z"/>
  <path class="cls-1" d="M76.72,58.85c-.96.02-.93,1.51.03,1.49s.93-1.51-.03-1.49Z"/>
  <path class="cls-1" d="M76.88,55.08c-.72.02-.7,1.14.03,1.12s.7-1.14-.03-1.12Z"/>
  <path class="cls-1" d="M20.6,56.82c-.77.02-.74,1.21.03,1.2s.74-1.21-.03-1.2Z"/>
  <path class="cls-1" d="M9.46,55.78c-.53.01-.51.84.02.83s.51-.84-.02-.83Z"/>
  <path class="cls-1" d="M6.9,73.5c-.7.02-.68,1.1.02,1.09s.68-1.1-.02-1.09Z"/>
  <path class="cls-1" d="M8.82,71.11c-.85.02-.82,1.34.03,1.32s.82-1.34-.03-1.32Z"/>
  <path class="cls-1" d="M35.24,38.45c-.78.02-.75,1.22.03,1.2s.75-1.22-.03-1.2Z"/>
  <path class="cls-1" d="M42.79,64.53c-.5.15-.73.75-.45,1.19.31.51,1.1.5,1.39-.03.33-.61-.23-1.37-.94-1.16Z"/>
  <path class="cls-1" d="M43.68,61.48c-.78.02-.75,1.22.03,1.2s.75-1.22-.03-1.2Z"/>
  <path class="cls-1" d="M40.77,64.09c-.36,0-.35.57.01.56s.35-.57-.01-.56Z"/>
  <path class="cls-1" d="M52.31,71.79c-.93.02-.89,1.46.03,1.44s.89-1.46-.03-1.44Z"/>
  <path class="cls-1" d="M52.63,74.86c-.78.02-.75,1.22.03,1.2s.75-1.22-.03-1.2Z"/>
  <path class="cls-1" d="M61.28,53.45c-.73.02-.7,1.14.03,1.13.73-.02.7-1.14-.03-1.13Z"/>
  <path class="cls-1" d="M49.86,51.11c.7-.02.67-1.1-.02-1.08-.7.02-.67,1.1.02,1.08Z"/>
  <path class="cls-1" d="M56.43,59.81v.21c.03,1.03,1.62.99,1.59-.04v-.21c-.03-1.02-1.62-.99-1.59.04Z"/>
  <path class="cls-1" d="M44.96,42c-1.01.02-.98,1.59.04,1.57s.97-1.59-.04-1.57Z"/>
  <path class="cls-1" d="M42.99,42.1c.65-.01.63-1.03-.02-1.01s-.63,1.03.02,1.01Z"/>
  <path class="cls-1" d="M36.32,42.23c.62-.01.6-.98-.02-.96s-.6.98.02.96Z"/>
  <path class="cls-1" d="M35.2,4.16c.55-.01.53-.87-.02-.86s-.53.87.02.86Z"/>
  <path class="cls-1" d="M32.03,6.13c.77-.02.74-1.21-.03-1.2s-.74,1.21.03,1.2Z"/>
  <path class="cls-1" d="M5.4,40.27c.69-.02.67-1.09-.02-1.07s-.67,1.09.02,1.07Z"/>
  <path class="cls-1" d="M3.09,36.55c.6-.01.58-.94-.02-.93s-.58.94.02.93Z"/>
  <path class="cls-1" d="M77.76,17.89c1.04-.02,1-1.64-.04-1.61-1.04.02-1,1.64.04,1.61Z"/>
  <path class="cls-1" d="M75.21,14.52c.76-.02.73-1.2-.03-1.18s-.73,1.2.03,1.18Z"/>
  <path class="cls-1" d="M74.84,9.04c.69-.02.67-1.09-.02-1.07s-.67,1.09.02,1.07Z"/>
  <path class="cls-1" d="M.62,58.21c-.85.02-.82,1.33.03,1.31s.82-1.33-.03-1.31Z"/>
  <path class="cls-1" d="M96.35,52.81c-.83.02-.8,1.31.03,1.29s.8-1.31-.03-1.29Z"/>
  <path class="cls-1" d="M97.67,56.58c-.71.02-.69,1.12.03,1.1s.69-1.12-.03-1.1Z"/>
  <path class="cls-1" d="M101.12,56.43c-.81.02-.78,1.28.03,1.26s.78-1.28-.03-1.26Z"/>
</svg>