<svg xmlns="http://www.w3.org/2000/svg" width="60" height="60" viewBox="0 0 60 60">
  <g id="seven-oclock-svgrepo-com" transform="translate(-2 -2)">
    <path id="Path_11750" data-name="Path 11750" d="M32,2A30,30,0,1,0,62,32,30,30,0,0,0,32,2Zm4,30a3.984,3.984,0,0,1-2,3.445V38H30.771L24.584,48,21,46.068l7.514-12.146A3.937,3.937,0,0,1,28,32a3.984,3.984,0,0,1,2-3.445V6h4V26.315l3,1.614-1.427,2.306A3.96,3.96,0,0,1,36,32Z" fill="#9e2b32"/>
    <circle id="Ellipse_10" data-name="Ellipse 10" cx="3" cy="3" r="3" transform="translate(29 29)" fill="#9e2b32"/>
  </g>
</svg>
