<svg xmlns="http://www.w3.org/2000/svg" xmlns:xlink="http://www.w3.org/1999/xlink" width="390" height="377.23" viewBox="0 0 390 377.23">
  <defs>
    <clipPath id="clip-path">
      <rect id="Rectangle_2236" data-name="Rectangle 2236" width="390" height="377.23" fill="none"/>
    </clipPath>
    <clipPath id="clip-path-2">
      <rect id="Rectangle_2233" data-name="Rectangle 2233" width="390.32" height="377.23" fill="none"/>
    </clipPath>
    <clipPath id="clip-path-3">
      <path id="SVGID" d="M302.9,327.96l4.51-.55s-11.41-1.86-11.68-1.86c-.23,0,15.6-.28,21.34-.34V302.28l-15.68-.92,15.68-.55v-.21l-12.99-.96,12.99-.69V291.8H260.26v3.64c2.9.18,7.52.52,7.52.52l-4.19,1.14,15.67,1.14s-12.92.78-18.99,1.04v36.55h16.1l-4.55,1.34,11.79.96h33.47V327.97H302.91Z" fill="none"/>
    </clipPath>
  </defs>
  <g id="Group_5981" data-name="Group 5981" clip-path="url(#clip-path)">
    <g id="Group_5980" data-name="Group 5980">
      <g id="Group_5950" data-name="Group 5950" clip-path="url(#clip-path-2)">
        <g id="Group_5949" data-name="Group 5949">
          <g id="Group_5933" data-name="Group 5933">
            <path id="Path_11411" data-name="Path 11411" d="M291.89,39.31q-6.87-4.74-14.29-8.96a184.987,184.987,0,0,0-40.47-17.1C184.95-1.68,127.53,4.6,74.66,12.34,38.01,17.71-2.23,24.77-33.78,45.69c-35.54,23.57-70.67,48.61-101.57,78.38-34.28,33.02-64.38,73.61-77.84,120.34-7.96,27.63-9.59,58.28.46,85.59,26.49,72,119.93,79.4,183.5,75.85,46.88-2.62,93.11-11.17,139.97-14.03A822.411,822.411,0,0,1,245,394.57c35.48,3.65,76.06-4.09,103.35-29.03,24.48-22.38,31.65-52.69,35.17-84.81,9.97-90.99-15.46-188.93-91.63-241.42Z" fill="#e7e4d0"/>
            <path id="Path_11412" data-name="Path 11412" d="M291.89,39.31q-6.87-4.74-14.29-8.96a184.987,184.987,0,0,0-40.47-17.1C184.95-1.68,127.53,4.6,74.66,12.34,38.01,17.71-2.23,24.77-33.78,45.69c-35.54,23.57-70.67,48.61-101.57,78.38-34.28,33.02-64.38,73.61-77.84,120.34-7.96,27.63-9.59,58.28.46,85.59,26.49,72,119.93,79.4,183.5,75.85,46.88-2.62,93.11-11.17,139.97-14.03A822.411,822.411,0,0,1,245,394.57c35.48,3.65,76.06-4.09,103.35-29.03,24.48-22.38,31.65-52.69,35.17-84.81,9.97-90.99-15.46-188.93-91.63-241.42Z" fill="#e7e4d0" opacity="0.8"/>
          </g>
          <g id="Group_5934" data-name="Group 5934">
            <line id="Line_46" data-name="Line 46" x1="635.47" transform="translate(-231.15 364.65)" fill="#fff" stroke="#263238" stroke-miterlimit="10" stroke-width="1"/>
            <rect id="Rectangle_2195" data-name="Rectangle 2195" width="635.47" height="7.07" transform="translate(-231.15 377.23)" fill="#263238" stroke="#263238" stroke-miterlimit="10" stroke-width="1"/>
          </g>
          <g id="Group_5935" data-name="Group 5935">
            <path id="Path_11413" data-name="Path 11413" d="M285.56,11.96c-44.6,0-80.76,35.91-80.76,80.21a79.612,79.612,0,0,0,20.56,53.46,61.634,61.634,0,0,1,28.29,2.58,77.619,77.619,0,0,1,27.47,16.04h7.24a77.619,77.619,0,0,1,27.47-16.04,61.739,61.739,0,0,1,29.73-2.35,79.635,79.635,0,0,0,20.76-53.69c0-44.3-36.16-80.21-80.76-80.21Z" fill="#92e3a9"/>
            <path id="Path_11414" data-name="Path 11414" d="M285.56,11.96c-44.6,0-80.76,35.91-80.76,80.21a79.612,79.612,0,0,0,20.56,53.46,61.634,61.634,0,0,1,28.29,2.58,77.619,77.619,0,0,1,27.47,16.04h7.24a77.619,77.619,0,0,1,27.47-16.04,61.739,61.739,0,0,1,29.73-2.35,79.635,79.635,0,0,0,20.76-53.69c0-44.3-36.16-80.21-80.76-80.21Z" fill="#fff" opacity="0.5"/>
            <path id="Path_11415" data-name="Path 11415" d="M323.15,124.34c-2.48,1.2-4.95,2.44-7.38,3.74a72.041,72.041,0,0,0-7.05,4.35c-.84.58-1.67,1.19-2.5,1.79l13.23-24.64L301.3,138.01q-2.76,2.22-5.42,4.53c-2.93,2.55-5.78,5.15-8.58,7.83l-.92-26.74,18.99-28.92-19.13,24.87-.83-23.93-1.36,26.77h0l-1.37,26.84c-2.43-2.3-4.89-4.54-7.42-6.74-1.99-1.73-4.02-3.43-6.09-5.08L252,108.11l12.61,25.87c-.72-.53-1.44-1.06-2.18-1.57a73.249,73.249,0,0,0-7.05-4.35c-2.43-1.3-4.89-2.54-7.38-3.74a154.431,154.431,0,0,0-15.28-6.47,148.644,148.644,0,0,1,14.73,7.35q3.57,2.01,7.04,4.15a70.174,70.174,0,0,1,6.54,4.64,142.887,142.887,0,0,1,11.85,10.66c3.29,3.26,6.49,6.64,9.54,10.07l-1.74,209.91h7.96L287.51,156.1c3.41-3.9,7.04-7.75,10.77-11.45a142.89,142.89,0,0,1,11.85-10.66,70.173,70.173,0,0,1,6.54-4.64q3.465-2.145,7.04-4.15a149.747,149.747,0,0,1,14.73-7.35,151.107,151.107,0,0,0-15.28,6.47Z" fill="#263238"/>
          </g>
          <g id="Group_5936" data-name="Group 5936">
            <path id="Path_11416" data-name="Path 11416" d="M355.56,166.9a45.122,45.122,0,0,0-45.28,44.97,44.607,44.607,0,0,0,11.53,29.97,34.6,34.6,0,0,1,15.86,1.44,43.47,43.47,0,0,1,15.4,9h4.06a43.47,43.47,0,0,1,15.4-9,34.575,34.575,0,0,1,16.67-1.32,44.6,44.6,0,0,0,11.64-30.1,45.122,45.122,0,0,0-45.28-44.97Z" fill="#92e3a9"/>
            <path id="Path_11417" data-name="Path 11417" d="M355.56,166.9a45.122,45.122,0,0,0-45.28,44.97,44.607,44.607,0,0,0,11.53,29.97,34.6,34.6,0,0,1,15.86,1.44,43.47,43.47,0,0,1,15.4,9h4.06a43.47,43.47,0,0,1,15.4-9,34.575,34.575,0,0,1,16.67-1.32,44.6,44.6,0,0,0,11.64-30.1,45.122,45.122,0,0,0-45.28-44.97Z" fill="#fff" opacity="0.5"/>
            <path id="Path_11418" data-name="Path 11418" d="M376.64,229.91q-2.085,1-4.14,2.1a44.235,44.235,0,0,0-3.96,2.44c-.47.33-.94.67-1.4,1.01l7.42-13.82-10.18,15.94c-1.03.83-2.04,1.68-3.04,2.54q-2.46,2.145-4.81,4.39l-.52-14.99,10.65-16.21-10.73,13.94-.46-13.42-.76,15.01h0l-.77,15.05c-1.36-1.29-2.74-2.54-4.16-3.78-1.12-.97-2.25-1.92-3.42-2.85l-9.63-16.44,7.07,14.51c-.41-.3-.81-.59-1.22-.88a37.863,37.863,0,0,0-3.96-2.44c-1.36-.73-2.74-1.42-4.14-2.1a83.947,83.947,0,0,0-8.57-3.62,83.633,83.633,0,0,1,8.26,4.12c1.33.75,2.65,1.52,3.95,2.33a39.775,39.775,0,0,1,3.67,2.6,78.723,78.723,0,0,1,6.65,5.98c1.84,1.83,3.64,3.72,5.35,5.64l-.97,117.69h4.46l-.63-116.92c1.91-2.19,3.95-4.34,6.04-6.42a80.485,80.485,0,0,1,6.65-5.98,37.954,37.954,0,0,1,3.67-2.6c1.3-.8,2.61-1.57,3.95-2.33a84.744,84.744,0,0,1,8.26-4.12,86.252,86.252,0,0,0-8.57,3.62Z" fill="#263238"/>
          </g>
          <path id="Path_11419" data-name="Path 11419" d="M-4.01,62.07S-26.77,35.52-59.96,35.52s-38.88,23.71-45.52,28.45-18.02-3.79-29.4,0S-149.11,76.3-153.85,78.2s-11.38-6.64-22.76-3.79-26.55,12.33-26.55,12.33H50.04s-1.9-17.07-18.97-18.97S1.67,77.25-4.02,62.08Z" fill="none" stroke="#263238" stroke-miterlimit="10" stroke-width="1"/>
          <path id="Path_11420" data-name="Path 11420" d="M125.03,110.48s-9.02-10.53-22.18-10.53-15.42,9.4-18.05,11.28-7.14-1.5-11.66,0-5.64,4.89-7.52,5.64-4.51-2.63-9.02-1.5-10.53,4.89-10.53,4.89h100.4s-.75-6.77-7.52-7.52-11.66,3.76-13.91-2.26Z" fill="none" stroke="#263238" stroke-miterlimit="10" stroke-width="1"/>
          <g id="Group_5948" data-name="Group 5948">
            <rect id="Rectangle_2196" data-name="Rectangle 2196" width="473.53" height="108.39" transform="translate(-141.63 162.44)" fill="#c2c2c2" stroke="#263238" stroke-miterlimit="10" stroke-width="1"/>
            <line id="Line_47" data-name="Line 47" x2="472.62" transform="translate(-140.93 169.51)" fill="none" stroke="#263238" stroke-miterlimit="10" stroke-width="1"/>
            <line id="Line_48" data-name="Line 48" x2="472.62" transform="translate(-140.93 175.53)" fill="none" stroke="#263238" stroke-miterlimit="10" stroke-width="1"/>
            <rect id="Rectangle_2197" data-name="Rectangle 2197" width="473.53" height="108.39" transform="translate(-141.63 255.01)" fill="#eb9486" stroke="#263238" stroke-miterlimit="10" stroke-width="1"/>
            <path id="Path_11421" data-name="Path 11421" d="M331.9,255.01H-141.06l-22.25-63.68H354.15Z" fill="#e7e4d0" opacity="0.8"/>
            <rect id="Rectangle_2198" data-name="Rectangle 2198" width="517.46" height="8.81" transform="translate(-163.31 182.52)" fill="#eb9486" stroke="#263238" stroke-miterlimit="10" stroke-width="1"/>
            <rect id="Rectangle_2199" data-name="Rectangle 2199" width="493.85" height="6.1" transform="translate(-151.79 224.53)" fill="#eb9486" stroke="#263238" stroke-miterlimit="10" stroke-width="1"/>
            <g id="Group_5937" data-name="Group 5937">
              <path id="Path_11422" data-name="Path 11422" d="M310.97,230.3l11.47,12.18h3.59l11.68-12.18Z" fill="#fff" stroke="#263238" stroke-miterlimit="10" stroke-width="1"/>
              <rect id="Rectangle_2200" data-name="Rectangle 2200" width="8.13" height="139.55" transform="translate(321.06 230.62)" fill="#fff" stroke="#263238" stroke-miterlimit="10" stroke-width="1"/>
            </g>
            <g id="Group_5938" data-name="Group 5938">
              <path id="Path_11423" data-name="Path 11423" d="M158.35,230.3l11.47,12.18h3.58l11.69-12.18Z" fill="#fff" stroke="#263238" stroke-miterlimit="10" stroke-width="1"/>
              <rect id="Rectangle_2201" data-name="Rectangle 2201" width="8.13" height="139.55" transform="translate(167.73 230.62)" fill="#fff" stroke="#263238" stroke-miterlimit="10" stroke-width="1"/>
            </g>
            <g id="Group_5939" data-name="Group 5939">
              <path id="Path_11424" data-name="Path 11424" d="M4.65,230.3l11.47,12.18h3.59L31.39,230.3Z" fill="#fff" stroke="#263238" stroke-miterlimit="10" stroke-width="1"/>
              <rect id="Rectangle_2202" data-name="Rectangle 2202" width="8.13" height="139.55" transform="translate(14.41 230.62)" fill="#fff" stroke="#263238" stroke-miterlimit="10" stroke-width="1"/>
            </g>
            <g id="Group_5941" data-name="Group 5941">
              <rect id="Rectangle_2203" data-name="Rectangle 2203" width="1.16" height="33.87" transform="translate(210.25 329.94)" fill="#fff" stroke="#263238" stroke-miterlimit="10" stroke-width="1"/>
              <rect id="Rectangle_2204" data-name="Rectangle 2204" width="1.16" height="14.87" transform="translate(205.12 351.74)" fill="#fff" stroke="#263238" stroke-miterlimit="10" stroke-width="1"/>
              <rect id="Rectangle_2205" data-name="Rectangle 2205" width="1.16" height="14.87" transform="translate(288.39 351.74)" fill="#fff" stroke="#263238" stroke-miterlimit="10" stroke-width="1"/>
              <rect id="Rectangle_2206" data-name="Rectangle 2206" width="1.16" height="33.87" transform="translate(284.1 329.94)" fill="#fff" stroke="#263238" stroke-miterlimit="10" stroke-width="1"/>
              <path id="Path_11425" data-name="Path 11425" d="M292.33,353.17H202.52l4.08-6.63h81.65Z" fill="#c2c2c2" stroke="#263238" stroke-miterlimit="10" stroke-width="1"/>
              <g id="Group_5940" data-name="Group 5940">
                <rect id="Rectangle_2207" data-name="Rectangle 2207" width="81.64" height="5.63" transform="translate(206.6 326.95)" fill="#c2c2c2" stroke="#263238" stroke-miterlimit="10" stroke-width="1"/>
                <rect id="Rectangle_2208" data-name="Rectangle 2208" width="81.64" height="4.33" transform="translate(206.6 342.66)" fill="#c2c2c2" stroke="#263238" stroke-miterlimit="10" stroke-width="1"/>
                <rect id="Rectangle_2209" data-name="Rectangle 2209" width="81.64" height="6.44" transform="translate(206.6 334.4)" fill="#c2c2c2" stroke="#263238" stroke-miterlimit="10" stroke-width="1"/>
              </g>
            </g>
            <g id="Group_5943" data-name="Group 5943">
              <rect id="Rectangle_2210" data-name="Rectangle 2210" width="1.16" height="33.87" transform="translate(59.33 329.94)" fill="#fff" stroke="#263238" stroke-miterlimit="10" stroke-width="1"/>
              <rect id="Rectangle_2211" data-name="Rectangle 2211" width="1.16" height="14.87" transform="translate(54.21 351.74)" fill="#fff" stroke="#263238" stroke-miterlimit="10" stroke-width="1"/>
              <rect id="Rectangle_2212" data-name="Rectangle 2212" width="1.16" height="14.87" transform="translate(137.48 351.74)" fill="#fff" stroke="#263238" stroke-miterlimit="10" stroke-width="1"/>
              <rect id="Rectangle_2213" data-name="Rectangle 2213" width="1.16" height="33.87" transform="translate(133.18 329.94)" fill="#fff" stroke="#263238" stroke-miterlimit="10" stroke-width="1"/>
              <path id="Path_11426" data-name="Path 11426" d="M141.42,353.17H51.61l4.08-6.63h81.64Z" fill="#c2c2c2" stroke="#263238" stroke-miterlimit="10" stroke-width="1"/>
              <g id="Group_5942" data-name="Group 5942">
                <rect id="Rectangle_2214" data-name="Rectangle 2214" width="81.64" height="5.63" transform="translate(55.69 326.95)" fill="#c2c2c2" stroke="#263238" stroke-miterlimit="10" stroke-width="1"/>
                <rect id="Rectangle_2215" data-name="Rectangle 2215" width="81.64" height="4.33" transform="translate(55.69 342.66)" fill="#c2c2c2" stroke="#263238" stroke-miterlimit="10" stroke-width="1"/>
                <rect id="Rectangle_2216" data-name="Rectangle 2216" width="81.64" height="6.44" transform="translate(55.69 334.4)" fill="#c2c2c2" stroke="#263238" stroke-miterlimit="10" stroke-width="1"/>
              </g>
            </g>
            <g id="Group_5945" data-name="Group 5945">
              <rect id="Rectangle_2217" data-name="Rectangle 2217" width="1.16" height="14.87" transform="translate(0.85 351.74)" fill="#fff" stroke="#263238" stroke-miterlimit="10" stroke-width="1"/>
              <path id="Path_11427" data-name="Path 11427" d="M4.79,353.17H-85.02l4.08-6.63H.71Z" fill="#c2c2c2" stroke="#263238" stroke-miterlimit="10" stroke-width="1"/>
              <g id="Group_5944" data-name="Group 5944">
                <rect id="Rectangle_2218" data-name="Rectangle 2218" width="81.64" height="5.63" transform="translate(-80.94 326.95)" fill="#c2c2c2" stroke="#263238" stroke-miterlimit="10" stroke-width="1"/>
                <rect id="Rectangle_2219" data-name="Rectangle 2219" width="81.64" height="4.33" transform="translate(-80.94 342.66)" fill="#c2c2c2" stroke="#263238" stroke-miterlimit="10" stroke-width="1"/>
                <rect id="Rectangle_2220" data-name="Rectangle 2220" width="81.64" height="6.44" transform="translate(-80.94 334.4)" fill="#c2c2c2" stroke="#263238" stroke-miterlimit="10" stroke-width="1"/>
              </g>
            </g>
            <rect id="Rectangle_2221" data-name="Rectangle 2221" width="40.17" height="52.57" transform="translate(58.93 261.24)" fill="#fff" opacity="0.8"/>
            <rect id="Rectangle_2222" data-name="Rectangle 2222" width="40.17" height="52.57" transform="translate(-33.07 261.24)" fill="#fff" opacity="0.8"/>
            <rect id="Rectangle_2223" data-name="Rectangle 2223" width="37.69" height="28.27" transform="translate(111.01 262.73)" fill="#fff" opacity="0.8"/>
            <rect id="Rectangle_2224" data-name="Rectangle 2224" width="37.69" height="28.27" transform="translate(249.39 262.73)" fill="#fff" opacity="0.8"/>
            <rect id="Rectangle_2225" data-name="Rectangle 2225" width="21.9" height="16.43" transform="translate(272.2 300.86)" fill="#fff" opacity="0.8"/>
            <rect id="Rectangle_2226" data-name="Rectangle 2226" width="33.23" height="42.65" transform="translate(205.74 268.19)" fill="#fff" opacity="0.8"/>
            <g id="Group_5946" data-name="Group 5946">
              <rect id="Rectangle_2227" data-name="Rectangle 2227" width="58.71" height="15.73" transform="translate(-35.53 162.44)" fill="#eb9486" stroke="#263238" stroke-miterlimit="10" stroke-width="1"/>
              <rect id="Rectangle_2228" data-name="Rectangle 2228" width="44.4" height="52.61" transform="translate(-28.37 119.84)" fill="#eb9486" stroke="#263238" stroke-miterlimit="10" stroke-width="1"/>
              <rect id="Rectangle_2229" data-name="Rectangle 2229" width="51.79" height="11.87" transform="translate(-32.07 114.66)" fill="#eb9486" stroke="#263238" stroke-miterlimit="10" stroke-width="1"/>
            </g>
            <g id="Group_5947" data-name="Group 5947">
              <rect id="Rectangle_2230" data-name="Rectangle 2230" width="58.71" height="15.73" transform="translate(155.63 162.44)" fill="#eb9486" stroke="#263238" stroke-miterlimit="10" stroke-width="1"/>
              <rect id="Rectangle_2231" data-name="Rectangle 2231" width="44.4" height="52.61" transform="translate(162.78 119.84)" fill="#eb9486" stroke="#263238" stroke-miterlimit="10" stroke-width="1"/>
              <rect id="Rectangle_2232" data-name="Rectangle 2232" width="51.79" height="11.87" transform="translate(159.09 114.66)" fill="#eb9486" stroke="#263238" stroke-miterlimit="10" stroke-width="1"/>
            </g>
          </g>
        </g>
      </g>
      <g id="Group_5967" data-name="Group 5967">
        <g id="Group_5951" data-name="Group 5951">
          <path id="Path_11428" data-name="Path 11428" d="M122.21,276.12c-1.78,1.82-3.4,17.39-6.17,20.35a5.6,5.6,0,0,0,4.54,2.35c2.82-.18,5.35-13.57,5.35-13.57Z" fill="#4c4159"/>
          <path id="Path_11429" data-name="Path 11429" d="M119.19,287.24c-.9,4.03-1.91,7.9-3.15,9.23a5.6,5.6,0,0,0,4.54,2.35c2.82-.18,5.35-13.57,5.35-13.57l-1.39-3.4-1.94-.59c.49,1.48-1.28,3.82-3.42,5.98Z" fill="#433a49"/>
        </g>
        <path id="Path_11430" data-name="Path 11430" d="M122.01,280.11c1.85-.08,2.94.65,3.23,5.39a48.249,48.249,0,0,0,1.09,7.94l-1.09,6.71a10.635,10.635,0,0,1-2.12-4.73c-.17-2.29-.51-8.54-.51-8.54l-.61-6.77Z" fill="#d88f7c"/>
        <g id="Group_5956" data-name="Group 5956">
          <g id="Group_5952" data-name="Group 5952">
            <path id="Path_11431" data-name="Path 11431" d="M103.11,279.8c-1.86.81-1.59,14.68-2.2,17.38s-1.17,3.43-2.74,14.98a13.08,13.08,0,0,0-.49,5.75s7.33-12.07,7.17-13.26,0-4.23,0-5.31,1.57-10.58,1.57-10.58-1.03-9.95-3.31-8.96Z" fill="#eaa58f"/>
            <path id="Path_11432" data-name="Path 11432" d="M104.85,299.33c0-1.08,1.57-10.58,1.57-10.58s-.66-6.4-2.1-8.42l-.28.05c1.3,1.63-.57,15.66-.95,18.43s1.75,3.58,1.63,6.34v.06a1.368,1.368,0,0,0,.13-.57c-.15-1.19,0-4.23,0-5.31Z" fill="#d88f7c"/>
          </g>
          <g id="Group_5953" data-name="Group 5953">
            <path id="Path_11433" data-name="Path 11433" d="M105.91,278.62c-.86.19-1.45.41-2.26.62-.46.12-.63.22-.54.55,0,0,1.37-.41,1.89,4.07s.11,5.81,1.85,8.88,1.38,4.43-.93,8.78-14.89,16.54-17.64,61.5h46.25s5.23-14.96-12.45-62.91c0,0-1.7-3.67-.78-6.68s5.11-2.67,1.44-17.65l-2.77.08c.35,0-14.05,2.75-14.05,2.75Z" fill="#fcf6f9"/>
            <path id="Path_11434" data-name="Path 11434" d="M122.07,300.12s-1.7-3.67-.78-6.68a3.5,3.5,0,0,1,.36-.81h0a38.064,38.064,0,0,0-5.31,7.47c-1.35,2.62,9.24-5.88,9.24,62.93h8.95s3.17-38.15-12.45-62.91Z" fill="#e7d8e4"/>
          </g>
          <path id="Path_11435" data-name="Path 11435" d="M113.83,260.82c1.91.14,2.71,1.81,2.09,2.74a1.079,1.079,0,0,1,.75,1.57h-2.64Z" fill="#433a49"/>
          <g id="Group_5955" data-name="Group 5955">
            <g id="Group_5954" data-name="Group 5954">
              <path id="Path_11436" data-name="Path 11436" d="M109.79,270.03a21.3,21.3,0,0,1,.47,6.66s-.62,1.03-4.34,1.93c0,0,4.24,7.72,9.39,10.13,0,0,5.7-5.93,5.01-12.89h-2.96c-1.1,0-1.1-6.13-1.1-6.13l-6.46.29Z" fill="#eaa58f"/>
              <path id="Path_11437" data-name="Path 11437" d="M117.35,275.87c-1.1,0-1.1-6.13-1.1-6.13l-6.46.29a21.3,21.3,0,0,1,.47,6.66s-.4.65-2.4,1.36h0c3.5-1.16,5.82-3.91,7.45-1.71,1.6,2.17,1.75,6.86-1.97,11.21a12.366,12.366,0,0,0,1.97,1.2s5.7-5.93,5.01-12.89h-2.96Z" fill="#d88f7c"/>
            </g>
            <path id="Path_11438" data-name="Path 11438" d="M105.59,269.74c-.05.98-2.5,2.8-1.57,5.54s4.85,2.7,6.08.78.3-4.32-.32-6.03a5.338,5.338,0,0,1-.42-2.65s-3.68.54-3.78,2.35Z" fill="#433a49"/>
            <path id="Path_11439" data-name="Path 11439" d="M113.93,261.39c1.57.15,4.49,6.66,3.6,9.3s-5.17.79-6.63-.51a1.74,1.74,0,0,1-2.81-.84c-.95-2.25,1.18-2.25,2.02-1.18,0,0,2.92.9,2.66-3.65-.14-2.36,1.16-3.13,1.16-3.13Z" fill="#eaa58f"/>
            <path id="Path_11440" data-name="Path 11440" d="M114.68,261.82c-.63.93.08,2.51-1.34,3.07.83,5.82-6.52,2.64-7.75,4.84a1.777,1.777,0,0,1,.29-3.02s-2.06-3.4,1.27-5.61,8.29-.43,7.52.72Z" fill="#433a49"/>
          </g>
        </g>
        <g id="Group_5966" data-name="Group 5966">
          <g id="Group_5960" data-name="Group 5960">
            <g id="Group_5958" data-name="Group 5958">
              <path id="Path_11441" data-name="Path 11441" d="M132.87,357.53c-.17,1.29-.43,2.78-1.28,3.37s-1.89,1.1-1.56,2.18h7.56v-5.56l-4.71.02Z" fill="#433a49"/>
              <g id="Group_5957" data-name="Group 5957">
                <path id="Path_11442" data-name="Path 11442" d="M125.31,313.16c.6,7.84,3.88,17.65,4.03,20.1.29,4.8-1.47,5.69,1.86,17.55,1.68,5.98,1.67,6.73,1.67,6.73h2.78s1.02-15.48,0-18.9.35-9.49.89-13.12.18-12.39.18-12.39l-4.15-2.4-7.27,2.44Z" fill="#4c4159"/>
                <path id="Path_11443" data-name="Path 11443" d="M132.87,357.53h2.78s1.02-15.48,0-18.9.35-9.5.89-13.12.18-12.39.18-12.39l-4.15-2.4-7.27,2.44q.075.99.21,2.01c3.6,2.36,7.26,7.67,8.45,14.66,1.08,6.34-.57,20.99-1.29,26.65a7.222,7.222,0,0,1,.19,1.05Z" fill="#433a49"/>
              </g>
            </g>
            <g id="Group_5959" data-name="Group 5959">
              <path id="Path_11444" data-name="Path 11444" d="M135.66,357.49s-1.02,1.42-.6,2.43,3.09-2.46,3.09-2.46l-2.48.03Z" fill="#eaa58f"/>
              <path id="Path_11445" data-name="Path 11445" d="M136.72,313.12c-.78,2.76-1.2,13.16-1.03,17.14s.6,5.41-.04,8.37,0,16.32,0,18.86c0,0,3.17.08,3.17,0s4.74-14.12,4.48-18.35-.51-5.92-.51-8.46,5.49-13.39,4.6-20.99l-.5-1.77-10.18,5.19Z" fill="#4c4159"/>
              <path id="Path_11446" data-name="Path 11446" d="M136.11,317.45c2.47-2.58,8.94-5.96,11.34-7.16-.01-.2-.03-.4-.05-.59l-.5-1.77-10.18,5.19A27.593,27.593,0,0,0,136.11,317.45Z" fill="#433a49"/>
              <path id="Path_11447" data-name="Path 11447" d="M135.66,357.49a6.824,6.824,0,0,0-1.56,2.99c-.15.75-.38,2.6.84,2.6h7.27c1.18,0,.76-1.78.42-2.29s-1.27-.65-2.03-1.13-.7-1.93-1.78-2.17c-1.56-.34-2.31,1.23-3.01,1.2-.64-.02-.16-1.2-.16-1.2Z" fill="#433a49"/>
            </g>
          </g>
          <g id="Group_5964" data-name="Group 5964">
            <path id="Path_11448" data-name="Path 11448" d="M122.21,276.12c-.69,3.57,2.21,11.93,3.04,15.29,1.84,7.42-1.22,10.32-1.43,21.18,0,0,4.57,1.93,6.76,1.78a2.868,2.868,0,0,0,2.66-2.01,2.457,2.457,0,0,0,3.49.77,29.013,29.013,0,0,1,10.68-3.43,1.034,1.034,0,0,0,.94-1.26,55.356,55.356,0,0,0-3.83-11.21s4.86-20.65,3.09-21.79a17.875,17.875,0,0,0-6.28-2.44c-2.36-.46-12.83.76-12.83.76s-2.07.73-3.92,1.21a4.717,4.717,0,0,0-2.37,1.16Z" fill="#4c4159"/>
            <path id="Path_11449" data-name="Path 11449" d="M143.97,273.69a20.34,20.34,0,0,0-2.66-.71,20.927,20.927,0,0,0-3.93-.03l-3.26,17.76c1.56-3.03,10.89-10.63,9.85-17.02Z" fill="#433a49"/>
            <path id="Path_11450" data-name="Path 11450" d="M129.94,272.98a6.34,6.34,0,0,1-1.45.76c-.57.15,1.15,9.89,5.63,16.97,0,0,7-11.38,7.19-17.73a10.737,10.737,0,0,1-2.36-.46l-9.02.46Z" fill="#e7d8e4"/>
            <g id="Group_5961" data-name="Group 5961">
              <path id="Path_11451" data-name="Path 11451" d="M136.01,276.7a8.293,8.293,0,0,0,2.37-4.08,33.144,33.144,0,0,1,0-5.69l-7.64,2.88v4.08c0,.73.83,1.86,1.67,2.81h3.61Z" fill="#eaa58f"/>
              <path id="Path_11452" data-name="Path 11452" d="M130.73,269.82v2.72c.64,1.74,3.13,1.71,5.12.15,1.46-1.14,1.87,2.02.86,3.21a7.085,7.085,0,0,0,1.66-3.27,33.144,33.144,0,0,1,0-5.69Z" fill="#d88f7c"/>
              <path id="Path_11453" data-name="Path 11453" d="M129.52,264.88c-.41-.57-1.07-.89-.32-1.6,0,0-1.44-1.69-.9-2.95.72-1.68,2.79-.46,4.05-1.71,1.87-1.85,5.23-2.21,5.65,1.41,0,0,2.21-.09,2.02,2.97s-.93,2.43-1.17,3.95l-2.45-.23-6.88-1.82Z" fill="#433a49"/>
              <path id="Path_11454" data-name="Path 11454" d="M129.6,262.05c-.51,5.26,1,9.88,3.45,9.88,2.05,0,3.35-2.35,3.86-3.59.36-.87.63-1.14.75-1.02.28.27.71.55,1.19-.39s.56-2.44.12-2.58-1.1.78-1.57,1.6-.47.23-.74.06.46-1.15.25-1.38a2.2,2.2,0,0,1-.16-2.17,1.2,1.2,0,0,1-1.13-1,19.6,19.6,0,0,1-4.3,1.27,2.118,2.118,0,0,1-1.72-.69Z" fill="#eaa58f"/>
            </g>
            <path id="Path_11455" data-name="Path 11455" d="M133.94,276.86c.65-.46,3.65-1.04,4.37-5.2l-.03-.59s.27.06.51.66a3.67,3.67,0,0,0,.47.65c.77,1.18-.28,6.2-2.68,7.31a3.075,3.075,0,0,0-1.28-1.7c-1.16-.58-1.37-.52-1.37-.52v-.61Z" fill="#fcf6f9"/>
            <path id="Path_11456" data-name="Path 11456" d="M133.94,276.86c-.54-.46-2.62-1.1-3.21-5.26v-.45s-.22-.02-.43.58a3.442,3.442,0,0,1-.39.65c-.64,1.18-.16,6.2,1.83,7.31a3.162,3.162,0,0,1,1.06-1.7c.96-.58,1.14-.52,1.14-.52v-.61Z" fill="#fcf6f9"/>
            <g id="Group_5963" data-name="Group 5963">
              <path id="Path_11457" data-name="Path 11457" d="M134.61,276.39c.19-.04,2.41-1.75,2.71-1.38a8.518,8.518,0,0,1,0,3.66c-.22.24-1.02.11-2.69-.73,0,0-.32,0-.32-.78s.29-.78.29-.78Z" fill="#c8dff6"/>
              <path id="Path_11458" data-name="Path 11458" d="M137.32,278.67a1.977,1.977,0,0,0,.09-.3c-.05.3-.71.27-1.56-.04s-.98-1.09-.71-1.09,1.91.37,1.91-.13-1.43,0-1.88,0-.57-.73-.31-.88h0a1.789,1.789,0,0,1-.26.16s-.29,0-.29.78.32.78.32.78c1.66.84,2.47.97,2.69.73Z" fill="#b6d1e7"/>
              <path id="Path_11459" data-name="Path 11459" d="M137.32,278.67a1.977,1.977,0,0,0,.09-.3c-.05.3-.71.27-1.56-.04s-.98-1.09-.71-1.09,1.91.37,1.91-.13-1.43,0-1.88,0-.57-.73-.31-.88h0a1.789,1.789,0,0,1-.26.16s-.29,0-.29.78.32.78.32.78c1.66.84,2.47.97,2.69.73Z" fill="#b6d1e7"/>
              <g id="Group_5962" data-name="Group 5962">
                <path id="Path_11460" data-name="Path 11460" d="M133.47,276.39c-.19-.04-2.49-1.75-2.8-1.38a8.518,8.518,0,0,0,0,3.66c.22.24,1.11.11,2.77-.73,0,0,.32,0,.32-.78s-.29-.78-.29-.78Z" fill="#c8dff6"/>
                <path id="Path_11461" data-name="Path 11461" d="M130.67,278.67a1.977,1.977,0,0,1-.09-.3c.05.3.71.27,1.56-.04s.98-1.09.71-1.09-1.91.37-1.91-.13,1.43,0,1.88,0,.57-.78.3-.94l.1.06a1.4,1.4,0,0,0,.26.15s.29,0,.29.78-.32.78-.32.78c-1.66.84-2.55.97-2.77.73Z" fill="#b6d1e7"/>
              </g>
              <path id="Path_11462" data-name="Path 11462" d="M134.64,277.94c-.09.14-.41-.07-1.01.05-.53.11-.53-1.82.08-1.66s.84-.14.9.06c-.34.34-.16,1.53.02,1.55Z" fill="#c8dff6"/>
            </g>
            <path id="Path_11463" data-name="Path 11463" d="M141.9,276.86s.68-.19,1.25-.34a6.352,6.352,0,0,0,.21-3.03c-.48-.97-3.66-.86-4.01-1.35s-.52-.32-.52-.32a2.861,2.861,0,0,0,.43.56c.25,3.52-1.74,9.89-5.14,18.33,2.6-4.04,5.64-7.24,7.15-9.71a16.28,16.28,0,0,0,1.68-3.73l-1.05-.41Z" fill="#4c4159"/>
            <path id="Path_11464" data-name="Path 11464" d="M128.01,273.91c-.59.2-1.67.56-2.77.87,0,5.25,6.35,12.9,8.52,15.36l-5.75-16.23Z" fill="#433a49"/>
            <path id="Path_11465" data-name="Path 11465" d="M127.32,277.52s-.59-.16-1.08-.3a7.239,7.239,0,0,1-.24-3c.39-.99,3.17-1,3.47-1.51s.58-.54.58-.54a1.366,1.366,0,0,0-.29.62c-.18,3.54,1.4,9.91,4.36,17.92a108.387,108.387,0,0,1-6.2-9.17,16.318,16.318,0,0,1-1.49-3.6l.89-.43Z" fill="#4c4159"/>
          </g>
          <path id="Path_11466" data-name="Path 11466" d="M145.21,279.69c-.03.18-.06.37-.08.55a63.69,63.69,0,0,0-.57,9.89c0,2.03-1.63,8.19-2.48,10.34a12.642,12.642,0,0,0,1.98-2.48s2.9,7.59,3.04,11.72h0c.1,0,.2-.02.3-.02a1.034,1.034,0,0,0,.94-1.26,55.605,55.605,0,0,0-3.83-11.22s2.21-9.37,3.1-15.84Z" fill="#433a49"/>
          <g id="Group_5965" data-name="Group 5965">
            <path id="Path_11467" data-name="Path 11467" d="M147.6,275.42c3.57,2.57,5.02,16.2,5.77,18.2,2.26,6.05,2.22,7.05,1.75,15.34h-4.49a33.32,33.32,0,0,1-1.44-7.4,26.925,26.925,0,0,0-1.5-8.2,49.792,49.792,0,0,1-2.53-8.51c-.52-3.24.41-10.88,2.44-9.42Z" fill="#4c4159"/>
            <path id="Path_11468" data-name="Path 11468" d="M151.31,310.72c0,.48-.77,1.63-.69,2.83s.55,1.42.55,2.26a8.2,8.2,0,0,0,.14,1.83s-.62-.03-.69.3.35.52.35.52-.51.35-.35.68,1.16.22,1.79.16a4.954,4.954,0,0,0,1.96-1.09,16.509,16.509,0,0,0,.87-2.51c.27-.68-.76-3.23-.76-4.98h-3.16Z" fill="#eaa58f"/>
            <path id="Path_11469" data-name="Path 11469" d="M150.62,308.96l.33,1.76h3.52v-1.76Z" fill="#fcf6f9"/>
          </g>
        </g>
        <path id="Path_11470" data-name="Path 11470" d="M107.8,299.13l.04-.27c.75-.07.58-.73.33-.72-.27,0-.38-.16-.65-.36s-1.01-.32-1.11.36c-.05.34.33.61-.36,1.19-.36.3-.78.45-.62,1.73a9.937,9.937,0,0,0,.31,1.97c.18.44,1.71.05,2.22-.53,0,0,.26-.34-.33-.51,0,0,.74.04.57-.88-.12-.62.61-1.45.35-1.78a.754.754,0,0,0-.74-.2Z" fill="#eaa58f"/>
      </g>
      <g id="Group_5979" data-name="Group 5979">
        <g id="Group_5977" data-name="Group 5977">
          <g id="Group_5968" data-name="Group 5968">
            <path id="Path_11471" data-name="Path 11471" d="M291.22,283.36v2.41l-.3-1.45-.43,4.38s-.34-3.48-.52-5.34h-2.92l-.08.94-.09-.94h-.04c-.04.75-.16,2.99-.19,3.1-.02.07-.19-1.48-.36-3.1h-.92v96.57h6.55V283.36h-.72Z" fill="#6e472b"/>
            <path id="Path_11472" data-name="Path 11472" d="M287.91,283.36v2.41l-.13-1.45-.19,4.38s-.15-3.48-.22-5.34h-1.26l-.03.94-.04-.94h-.02c-.02.75-.07,2.99-.08,3.1,0,.07-.08-1.48-.16-3.1h-.4v96.57h2.83V283.36h-.31Z" fill="#573720"/>
            <path id="Path_11473" data-name="Path 11473" d="M285.39,338.13v1.86l6.62-1.86Z" fill="#573720"/>
          </g>
          <g id="Group_5976" data-name="Group 5976">
            <path id="Path_11474" data-name="Path 11474" d="M302.9,327.96l4.51-.55s-11.58-2.12-11.68-1.86c-1.3,3.05,15.6,1.73,21.34,1.67V302.28l-15.68-.92,15.68-.55v-.21l-12.99-.96,12.99-.69V291.8H260.26v3.64c2.9.18,7.52.52,7.52.52l-4.19,1.14,15.67,1.14s-12.92.78-18.99,1.04v36.55h16.1l-4.55,1.34,11.79.96h33.47V327.97H302.91Z" fill="#7f532c"/>
            <path id="Path_11475" data-name="Path 11475" d="M302.9,327.96l4.51-.55s-11.58-2.12-11.68-1.86c-1.3,3.05,15.6,1.73,21.34,1.67V302.28l-15.68-.92,15.68-.55v-.21l-12.99-.96,12.99-.69V291.8H260.26v3.64c2.9.18,7.52.52,7.52.52l-4.19,1.14,15.67,1.14s-12.92.78-18.99,1.04v36.55h16.1l-4.55,1.34,11.79.96h33.47V327.97H302.91Z" fill="#7f532c"/>
            <g id="Group_5975" data-name="Group 5975" opacity="0.5">
              <g id="Group_5974" data-name="Group 5974" clip-path="url(#clip-path-3)">
                <g id="Group_5973" data-name="Group 5973">
                  <g id="Group_5969" data-name="Group 5969">
                    <path id="Path_11476" data-name="Path 11476" d="M270.07,295.8a.72.72,0,1,0-.71.73A.717.717,0,0,0,270.07,295.8Z" fill="#573720"/>
                    <path id="Path_11477" data-name="Path 11477" d="M269.39,293.19a.3.3,0,1,0-.3-.29A.3.3,0,0,0,269.39,293.19Z" fill="#573720"/>
                    <path id="Path_11478" data-name="Path 11478" d="M271.5,291.5a.681.681,0,0,0,.07.28.475.475,0,0,0-.06.24.517.517,0,0,0,.53.51.508.508,0,0,0,.5-.46.668.668,0,0,0,.33-.6.685.685,0,1,0-1.37.03Z" fill="#573720"/>
                    <path id="Path_11479" data-name="Path 11479" d="M273.81,293.71h0a.453.453,0,0,0-.46-.43.442.442,0,0,0-.44.46.466.466,0,0,0,.3.42.781.781,0,0,0-.04.22.655.655,0,1,0,.64-.67Z" fill="#573720"/>
                    <path id="Path_11480" data-name="Path 11480" d="M273.22,298.15a.53.53,0,1,0,.54.52A.533.533,0,0,0,273.22,298.15Z" fill="#573720"/>
                    <path id="Path_11481" data-name="Path 11481" d="M271.51,292.54a.63.63,0,1,0-.62.64A.621.621,0,0,0,271.51,292.54Z" fill="#573720"/>
                    <path id="Path_11482" data-name="Path 11482" d="M277.87,289.77a1.09,1.09,0,1,0-1.11-1.07A1.093,1.093,0,0,0,277.87,289.77Z" fill="#573720"/>
                    <path id="Path_11483" data-name="Path 11483" d="M282.74,289.93a.345.345,0,1,0,.35.34A.346.346,0,0,0,282.74,289.93Z" fill="#573720"/>
                    <path id="Path_11484" data-name="Path 11484" d="M277.2,293.4a.8.8,0,1,0-.81-.78A.788.788,0,0,0,277.2,293.4Z" fill="#573720"/>
                    <path id="Path_11485" data-name="Path 11485" d="M278.63,295.81a.875.875,0,1,0-.86.89A.873.873,0,0,0,278.63,295.81Z" fill="#573720"/>
                    <path id="Path_11486" data-name="Path 11486" d="M270.94,300.13a.485.485,0,1,0,.49.48A.482.482,0,0,0,270.94,300.13Z" fill="#573720"/>
                    <path id="Path_11487" data-name="Path 11487" d="M275.22,297.57a.315.315,0,1,0,.32.31A.32.32,0,0,0,275.22,297.57Z" fill="#573720"/>
                    <path id="Path_11488" data-name="Path 11488" d="M278.61,299.12a.515.515,0,1,0,.52.51A.521.521,0,0,0,278.61,299.12Z" fill="#573720"/>
                    <path id="Path_11489" data-name="Path 11489" d="M281.92,296.91a.275.275,0,1,0,.28.27A.278.278,0,0,0,281.92,296.91Z" fill="#573720"/>
                    <path id="Path_11490" data-name="Path 11490" d="M282.05,294.88a.435.435,0,1,0,.44.43A.435.435,0,0,0,282.05,294.88Z" fill="#573720"/>
                    <path id="Path_11491" data-name="Path 11491" d="M282.11,292.43a.43.43,0,1,0-.42.44A.421.421,0,0,0,282.11,292.43Z" fill="#573720"/>
                    <path id="Path_11492" data-name="Path 11492" d="M261.74,286.36a.205.205,0,1,0-.21-.2A.2.2,0,0,0,261.74,286.36Z" fill="#573720"/>
                    <path id="Path_11493" data-name="Path 11493" d="M259.46,289.49a.275.275,0,1,0-.27.28A.278.278,0,0,0,259.46,289.49Z" fill="#573720"/>
                    <path id="Path_11494" data-name="Path 11494" d="M268.48,299.76a.687.687,0,0,0-.24.05,1.007,1.007,0,0,0,.1-.43.41.41,0,0,0-.01-.11.771.771,0,0,0,.15.02.53.53,0,0,0-.02-1.06.534.534,0,0,0-.51.41.983.983,0,0,0-.56-.18.9.9,0,0,0-.5.16,1.3,1.3,0,0,0,.16-.62,1.008,1.008,0,0,0-.03-.25.775.775,0,0,0,.62-.77.275.275,0,0,0-.02-.13.947.947,0,0,0,.71-.94.963.963,0,0,0-.98-.95h-.08a.606.606,0,0,0,.2-.48.63.63,0,0,0-.41-.59,1.088,1.088,0,0,0,.04-.26v-.08a.545.545,0,0,0,.05-1.02,1.061,1.061,0,0,0,.11-.09.834.834,0,0,0,.35.06.891.891,0,0,0,.51-.17.676.676,0,0,0,.4.12.7.7,0,1,0-.03-1.39.389.389,0,0,0-.15.02.942.942,0,0,0-.77-.4.468.468,0,0,0-.17.02v-.02a.724.724,0,0,0-.75-.72.74.74,0,0,0-.62.36.868.868,0,0,0-.39-.1.415.415,0,0,0-.16.02,1.867,1.867,0,0,0,.15-.32.557.557,0,0,0,.29.05.715.715,0,1,0-.03-1.43.7.7,0,0,0-.37.11,1.5,1.5,0,0,0-.37-.46.874.874,0,0,0,.08-.1.737.737,0,0,0,.7.44.755.755,0,1,0-.03-1.51h-.08a1.143,1.143,0,0,0,.07-.32,1.046,1.046,0,0,0,.2-.65,1.1,1.1,0,0,0-1.12-1.08,1.072,1.072,0,0,0-1.04.83,1.153,1.153,0,0,0-.35.76,1.118,1.118,0,0,0-.4.89,1.049,1.049,0,0,0,.16.56,1.572,1.572,0,0,0-.6.6,1.376,1.376,0,0,0-.97-1.2.914.914,0,0,0-.69-.31.9.9,0,0,0-.89.91,1.4,1.4,0,0,0-.2.73,1.323,1.323,0,0,0,.64,1.13,1.217,1.217,0,0,0-.31.43h-.09a.885.885,0,0,0,.03,1.77.868.868,0,0,0,.28-.05,1.041,1.041,0,0,0,.76.32,1,1,0,0,0,.38-.08,1.088,1.088,0,0,0-.05.26,1.088,1.088,0,0,0-1.65,1.2.923.923,0,0,0-.03.29.554.554,0,0,0,.02.18,1.181,1.181,0,0,0,.67,2.09.943.943,0,0,0-.05.3.913.913,0,0,0,.15.49,1.242,1.242,0,0,0-.27-.03,1.07,1.07,0,0,0-.41.08.683.683,0,0,0,.07-.32.715.715,0,1,0-.7.73.486.486,0,0,0,.12-.01h0a1.18,1.18,0,0,0,.97,1.88,1.147,1.147,0,0,0,.98-.56,1.071,1.071,0,0,0,.16.14.779.779,0,0,0-.34.66.736.736,0,0,0,.14.43,1.171,1.171,0,0,0-.09.24,1.153,1.153,0,0,0-.88-.41,1.12,1.12,0,1,0,1.06,1.55,1.418,1.418,0,0,0,2.61-.79,1.756,1.756,0,0,0-.06-.4h.06a.47.47,0,0,0,.46-.48v-.02a.867.867,0,0,0,.61-.55.538.538,0,0,0,.28.08.455.455,0,0,0,.28-.1h.06a1.26,1.26,0,0,0,.73-.25.95.95,0,0,0-.09.34,1.038,1.038,0,0,0-.96,1,1.052,1.052,0,1,0-.28,2.06,1.03,1.03,0,0,0,.96-.68.878.878,0,0,0,.73.35.905.905,0,0,0,.62-1.55c0-.06.02-.12.02-.18v-.01a.848.848,0,0,0,.28-.1.605.605,0,0,0-.04.24.685.685,0,1,0,1.37-.03.692.692,0,0,0-.7-.68Zm-6.91-2.02a1.023,1.023,0,0,0-.14-.22c.04,0,.08.01.13.01a.9.9,0,0,0,.76-.42.767.767,0,0,0,.35.56.218.218,0,0,0-.05.03.839.839,0,0,0-.52-.18.774.774,0,0,0-.53.22Zm.91-1.17a.93.93,0,0,0-.69-.87,1.66,1.66,0,0,0,.12-.31,1.438,1.438,0,0,0,.55.49v.02a1.238,1.238,0,0,0,.13.55,1.139,1.139,0,0,0-.11.11Zm.65-3.32a.474.474,0,0,0,.02.05h-.08A.266.266,0,0,0,263.13,293.25Zm1.03.63h-.01v-.01Zm2.27-1.07a1.23,1.23,0,0,0-.2-.02h0a1.092,1.092,0,0,0,.14-.31.59.59,0,0,0,.22.12A.56.56,0,0,0,266.43,292.81Zm-.11-1.28v-.04a1.093,1.093,0,0,0,.06-.11l.09.03a.611.611,0,0,0-.16.12Zm-1.69-.09a.781.781,0,0,0-.24-.27,1.027,1.027,0,0,0,.42-.32c.03-.01.06-.03.09-.04a.583.583,0,0,0-.03.23.711.711,0,0,0,.04.21,1.014,1.014,0,0,0-.27.19Zm-2.45,2.17s-.03-.07-.04-.1v-.15a.709.709,0,0,0,.28.09c-.08.04-.16.1-.24.15Zm4.22,2.32a.611.611,0,0,1-.29.89,1.648,1.648,0,0,0-.32-.04,1.205,1.205,0,0,0-.92.43,1.01,1.01,0,0,0-.16-.13.283.283,0,0,0-.04-.13c.05,0,.09.01.14.01a.98.98,0,0,0,.97-1.01.961.961,0,0,0-.33-.72,1.278,1.278,0,0,0,.01-.2h0a1.105,1.105,0,0,0,.75-.37.643.643,0,0,0,.59.46.972.972,0,0,0-.4.8Zm-3.24-5.26a.506.506,0,0,0-.14.36.524.524,0,0,0,.16.36.838.838,0,0,0-.14.41.9.9,0,0,0-.78-.09.815.815,0,0,0,.06-.31,1.144,1.144,0,0,0,.2-.66,1.506,1.506,0,0,0-.06-.36.849.849,0,0,0,.24-.29,1.646,1.646,0,0,0,.46.58Z" fill="#573720"/>
                    <path id="Path_11495" data-name="Path 11495" d="M268.7,297.73a.52.52,0,1,0-.53-.51A.517.517,0,0,0,268.7,297.73Z" fill="#573720"/>
                    <path id="Path_11496" data-name="Path 11496" d="M268.12,294.1a.55.55,0,1,0,.54-.56A.549.549,0,0,0,268.12,294.1Z" fill="#573720"/>
                    <path id="Path_11497" data-name="Path 11497" d="M267.11,289.52a.435.435,0,1,0,.43-.44A.435.435,0,0,0,267.11,289.52Z" fill="#573720"/>
                    <path id="Path_11498" data-name="Path 11498" d="M268.25,287.25a.6.6,0,0,0,.24-.05v.02a.965.965,0,1,0,1.56-.77,1.04,1.04,0,0,0,.16-.55.985.985,0,0,0-1.97.03h-.02a.66.66,0,0,0,.02,1.32Z" fill="#573720"/>
                    <path id="Path_11499" data-name="Path 11499" d="M271,289.45a.8.8,0,1,0-.81-.79A.8.8,0,0,0,271,289.45Z" fill="#573720"/>
                    <path id="Path_11500" data-name="Path 11500" d="M271.31,297.94a.775.775,0,1,0-.76.79A.766.766,0,0,0,271.31,297.94Z" fill="#573720"/>
                    <path id="Path_11501" data-name="Path 11501" d="M272.48,300.16a1.055,1.055,0,1,0,1.07,1.04A1.059,1.059,0,0,0,272.48,300.16Z" fill="#573720"/>
                    <path id="Path_11502" data-name="Path 11502" d="M272.63,295.72a.88.88,0,0,0,.02-.14.54.54,0,1,0-1.08.02.489.489,0,0,0,.11.31.592.592,0,0,0-.09.35.655.655,0,1,0,1.31-.03.658.658,0,0,0-.26-.51Z" fill="#573720"/>
                    <path id="Path_11503" data-name="Path 11503" d="M271.07,293.87a.69.69,0,1,0-.68.7A.692.692,0,0,0,271.07,293.87Z" fill="#573720"/>
                    <path id="Path_11504" data-name="Path 11504" d="M269.35,290.5a.441.441,0,0,0,.16-.02.732.732,0,1,0,.6-.34.389.389,0,0,0-.15.02.74.74,0,0,0,.12-.42.834.834,0,1,0-1.55-.41.731.731,0,0,0,.08.33v.1a.732.732,0,0,0,.75.73Z" fill="#573720"/>
                    <path id="Path_11505" data-name="Path 11505" d="M271.73,287.04a.53.53,0,1,0-.54-.52A.527.527,0,0,0,271.73,287.04Z" fill="#573720"/>
                    <path id="Path_11506" data-name="Path 11506" d="M273.24,290.59a.674.674,0,0,0,.67-.69.652.652,0,0,0-.13-.39.549.549,0,1,0-.69-.52.594.594,0,0,0,.07.26.677.677,0,0,0,.09,1.35Z" fill="#573720"/>
                    <path id="Path_11507" data-name="Path 11507" d="M274.94,292.3a.5.5,0,1,0-.51-.49A.5.5,0,0,0,274.94,292.3Z" fill="#573720"/>
                    <path id="Path_11508" data-name="Path 11508" d="M276.16,290.54a.245.245,0,1,0-.25-.24A.239.239,0,0,0,276.16,290.54Z" fill="#573720"/>
                    <path id="Path_11509" data-name="Path 11509" d="M279.68,289.74a.215.215,0,0,0-.01-.43.213.213,0,0,0-.21.22A.207.207,0,0,0,279.68,289.74Z" fill="#573720"/>
                    <path id="Path_11510" data-name="Path 11510" d="M283.82,292.15a.7.7,0,1,0,.71.68A.688.688,0,0,0,283.82,292.15Z" fill="#573720"/>
                    <path id="Path_11511" data-name="Path 11511" d="M288.91,292.1a.225.225,0,0,0,.01.45.225.225,0,1,0-.01-.45Z" fill="#573720"/>
                    <path id="Path_11512" data-name="Path 11512" d="M287.46,296.63a.385.385,0,1,0,.39.38A.388.388,0,0,0,287.46,296.63Z" fill="#573720"/>
                    <path id="Path_11513" data-name="Path 11513" d="M285.56,299.87a.245.245,0,1,0,.25.24A.246.246,0,0,0,285.56,299.87Z" fill="#573720"/>
                    <path id="Path_11514" data-name="Path 11514" d="M286.1,294.81a.385.385,0,1,0,.39.38A.388.388,0,0,0,286.1,294.81Z" fill="#573720"/>
                    <path id="Path_11515" data-name="Path 11515" d="M291.59,292.96a.275.275,0,1,0,.28.27A.278.278,0,0,0,291.59,292.96Z" fill="#573720"/>
                    <path id="Path_11516" data-name="Path 11516" d="M290.76,287.79a.66.66,0,1,0,.67.65A.666.666,0,0,0,290.76,287.79Z" fill="#573720"/>
                    <path id="Path_11517" data-name="Path 11517" d="M285.72,287.45a.375.375,0,1,1,0,.01Z" fill="#573720"/>
                    <path id="Path_11518" data-name="Path 11518" d="M282.77,286.85a.425.425,0,1,0-.43-.42A.431.431,0,0,0,282.77,286.85Z" fill="#573720"/>
                    <path id="Path_11519" data-name="Path 11519" d="M279.83,291.71a.34.34,0,1,0,.35.33A.331.331,0,0,0,279.83,291.71Z" fill="#573720"/>
                    <path id="Path_11520" data-name="Path 11520" d="M280.37,286.46a.285.285,0,1,0,.29.28A.282.282,0,0,0,280.37,286.46Z" fill="#573720"/>
                    <path id="Path_11521" data-name="Path 11521" d="M270.68,296.15a.47.47,0,1,0-.48-.46A.463.463,0,0,0,270.68,296.15Z" fill="#573720"/>
                    <path id="Path_11522" data-name="Path 11522" d="M272.09,294.5a.1.1,0,1,0-.1.1A.108.108,0,0,0,272.09,294.5Z" fill="#573720"/>
                    <path id="Path_11523" data-name="Path 11523" d="M274.01,292.17a.224.224,0,0,0-.22.23.231.231,0,0,0,.23.22.225.225,0,0,0-.01-.45Z" fill="#573720"/>
                    <path id="Path_11524" data-name="Path 11524" d="M276.38,293.87a.455.455,0,1,0-.45.46A.457.457,0,0,0,276.38,293.87Z" fill="#573720"/>
                    <path id="Path_11525" data-name="Path 11525" d="M275,295.58a.2.2,0,1,0,.2-.2A.2.2,0,0,0,275,295.58Z" fill="#573720"/>
                    <path id="Path_11526" data-name="Path 11526" d="M273.79,296.61a.155.155,0,1,0-.15.16A.15.15,0,0,0,273.79,296.61Z" fill="#573720"/>
                    <path id="Path_11527" data-name="Path 11527" d="M276.02,296.91a.18.18,0,1,0,.18-.18A.179.179,0,0,0,276.02,296.91Z" fill="#573720"/>
                    <path id="Path_11528" data-name="Path 11528" d="M276.22,298.18a.17.17,0,1,0,.17.17A.175.175,0,0,0,276.22,298.18Z" fill="#573720"/>
                    <path id="Path_11529" data-name="Path 11529" d="M274.67,299.44a.21.21,0,1,0,.21.21A.211.211,0,0,0,274.67,299.44Z" fill="#573720"/>
                    <path id="Path_11530" data-name="Path 11530" d="M271.74,299.34a.482.482,0,0,0,.49.48.489.489,0,0,0,.48-.49.485.485,0,1,0-.97.01Z" fill="#573720"/>
                    <path id="Path_11531" data-name="Path 11531" d="M275.95,299.75a.175.175,0,1,0,.18.17A.171.171,0,0,0,275.95,299.75Z" fill="#573720"/>
                    <path id="Path_11532" data-name="Path 11532" d="M277.85,297.57a.215.215,0,1,0,.22.21A.214.214,0,0,0,277.85,297.57Z" fill="#573720"/>
                    <path id="Path_11533" data-name="Path 11533" d="M279.69,296.54a.11.11,0,1,0,.11.11A.111.111,0,0,0,279.69,296.54Z" fill="#573720"/>
                    <path id="Path_11534" data-name="Path 11534" d="M279.44,293.91a.275.275,0,1,0,.28.27A.278.278,0,0,0,279.44,293.91Z" fill="#573720"/>
                    <path id="Path_11535" data-name="Path 11535" d="M278.2,290.97a.275.275,0,1,0,.27-.28A.278.278,0,0,0,278.2,290.97Z" fill="#573720"/>
                    <path id="Path_11536" data-name="Path 11536" d="M275.55,288.91a.265.265,0,1,0-.27-.26A.261.261,0,0,0,275.55,288.91Z" fill="#573720"/>
                    <path id="Path_11537" data-name="Path 11537" d="M276.62,287.23a.405.405,0,1,0-.41-.4A.41.41,0,0,0,276.62,287.23Z" fill="#573720"/>
                    <path id="Path_11538" data-name="Path 11538" d="M278.28,286.4a.16.16,0,1,0-.16-.16A.164.164,0,0,0,278.28,286.4Z" fill="#573720"/>
                    <path id="Path_11539" data-name="Path 11539" d="M281.67,288.14a.239.239,0,0,0-.25-.24.246.246,0,0,0-.24.25.239.239,0,0,0,.25.24A.246.246,0,0,0,281.67,288.14Z" fill="#573720"/>
                    <path id="Path_11540" data-name="Path 11540" d="M281.7,290.2a.355.355,0,1,0-.36-.35A.35.35,0,0,0,281.7,290.2Z" fill="#573720"/>
                    <path id="Path_11541" data-name="Path 11541" d="M272.6,287.58a.135.135,0,0,0-.01-.27c-.08.01-.14.06-.13.14A.124.124,0,0,0,272.6,287.58Z" fill="#573720"/>
                    <path id="Path_11542" data-name="Path 11542" d="M273.67,286.31a.682.682,0,0,0,.12-.01.455.455,0,0,0-.1.28.425.425,0,1,0,.42-.43h-.02a.621.621,0,0,0,.21-.49.64.64,0,1,0-.63.65Z" fill="#573720"/>
                    <path id="Path_11543" data-name="Path 11543" d="M267.42,288.2a.335.335,0,1,0-.34-.33A.342.342,0,0,0,267.42,288.2Z" fill="#573720"/>
                  </g>
                  <g id="Group_5970" data-name="Group 5970">
                    <path id="Path_11544" data-name="Path 11544" d="M270.07,310a.72.72,0,1,0-.71.73A.717.717,0,0,0,270.07,310Z" fill="#573720"/>
                    <path id="Path_11545" data-name="Path 11545" d="M269.39,307.39a.3.3,0,1,0-.3-.29A.3.3,0,0,0,269.39,307.39Z" fill="#573720"/>
                    <path id="Path_11546" data-name="Path 11546" d="M271.5,305.7a.681.681,0,0,0,.07.28.475.475,0,0,0-.06.24.517.517,0,0,0,.53.51.508.508,0,0,0,.5-.46.668.668,0,0,0,.33-.6.685.685,0,0,0-1.37.03Z" fill="#573720"/>
                    <path id="Path_11547" data-name="Path 11547" d="M273.81,307.91h0a.453.453,0,0,0-.46-.43.442.442,0,0,0-.44.46.466.466,0,0,0,.3.42.781.781,0,0,0-.04.22.655.655,0,1,0,.64-.67Z" fill="#573720"/>
                    <path id="Path_11548" data-name="Path 11548" d="M273.22,312.35a.53.53,0,1,0,.54.52A.533.533,0,0,0,273.22,312.35Z" fill="#573720"/>
                    <path id="Path_11549" data-name="Path 11549" d="M271.51,306.74a.63.63,0,1,0-.62.64A.621.621,0,0,0,271.51,306.74Z" fill="#573720"/>
                    <path id="Path_11550" data-name="Path 11550" d="M277.87,303.98a1.09,1.09,0,1,0-1.11-1.07A1.093,1.093,0,0,0,277.87,303.98Z" fill="#573720"/>
                    <path id="Path_11551" data-name="Path 11551" d="M282.74,304.13a.345.345,0,1,0,.35.34A.346.346,0,0,0,282.74,304.13Z" fill="#573720"/>
                    <path id="Path_11552" data-name="Path 11552" d="M277.2,307.6a.8.8,0,1,0-.81-.78A.788.788,0,0,0,277.2,307.6Z" fill="#573720"/>
                    <path id="Path_11553" data-name="Path 11553" d="M278.63,310.01a.875.875,0,1,0-.86.89A.873.873,0,0,0,278.63,310.01Z" fill="#573720"/>
                    <path id="Path_11554" data-name="Path 11554" d="M270.94,314.33a.485.485,0,1,0,.49.48A.482.482,0,0,0,270.94,314.33Z" fill="#573720"/>
                    <path id="Path_11555" data-name="Path 11555" d="M275.22,311.77a.315.315,0,1,0,.32.31A.32.32,0,0,0,275.22,311.77Z" fill="#573720"/>
                    <path id="Path_11556" data-name="Path 11556" d="M278.61,313.32a.515.515,0,1,0,.52.51A.521.521,0,0,0,278.61,313.32Z" fill="#573720"/>
                    <path id="Path_11557" data-name="Path 11557" d="M281.92,311.11a.275.275,0,1,0,.28.27A.278.278,0,0,0,281.92,311.11Z" fill="#573720"/>
                    <path id="Path_11558" data-name="Path 11558" d="M282.05,309.08a.435.435,0,1,0,.44.43A.435.435,0,0,0,282.05,309.08Z" fill="#573720"/>
                    <path id="Path_11559" data-name="Path 11559" d="M282.11,306.63a.43.43,0,1,0-.42.44A.421.421,0,0,0,282.11,306.63Z" fill="#573720"/>
                    <path id="Path_11560" data-name="Path 11560" d="M261.74,300.56a.205.205,0,1,0-.21-.2A.2.2,0,0,0,261.74,300.56Z" fill="#573720"/>
                    <path id="Path_11561" data-name="Path 11561" d="M259.46,303.69a.275.275,0,1,0-.27.28A.278.278,0,0,0,259.46,303.69Z" fill="#573720"/>
                    <path id="Path_11562" data-name="Path 11562" d="M268.48,313.96a.687.687,0,0,0-.24.05,1.007,1.007,0,0,0,.1-.43.41.41,0,0,0-.01-.11.771.771,0,0,0,.15.02.53.53,0,0,0-.02-1.06.534.534,0,0,0-.51.41.983.983,0,0,0-.56-.18.9.9,0,0,0-.5.16,1.3,1.3,0,0,0,.16-.62,1.008,1.008,0,0,0-.03-.25.775.775,0,0,0,.62-.77.275.275,0,0,0-.02-.13.947.947,0,0,0,.71-.94.963.963,0,0,0-.98-.95.2.2,0,0,0-.08.01.606.606,0,0,0,.2-.48.63.63,0,0,0-.41-.59,1.088,1.088,0,0,0,.04-.26v-.08a.545.545,0,0,0,.05-1.02,1.061,1.061,0,0,0,.11-.09.834.834,0,0,0,.35.06.891.891,0,0,0,.51-.17.676.676,0,0,0,.4.12.7.7,0,1,0-.03-1.39.389.389,0,0,0-.15.02.942.942,0,0,0-.77-.4.468.468,0,0,0-.17.02v-.02a.724.724,0,0,0-.75-.72.74.74,0,0,0-.62.36.868.868,0,0,0-.39-.1.415.415,0,0,0-.16.02,1.867,1.867,0,0,0,.15-.32.557.557,0,0,0,.29.05.715.715,0,0,0-.03-1.43.7.7,0,0,0-.37.11,1.5,1.5,0,0,0-.37-.46.874.874,0,0,0,.08-.1.737.737,0,0,0,.7.44.755.755,0,1,0-.03-1.51h-.08a1.143,1.143,0,0,0,.07-.32,1.046,1.046,0,0,0,.2-.65,1.1,1.1,0,0,0-1.12-1.08,1.072,1.072,0,0,0-1.04.83,1.153,1.153,0,0,0-.35.76,1.118,1.118,0,0,0-.4.89,1.049,1.049,0,0,0,.16.56,1.572,1.572,0,0,0-.6.6,1.376,1.376,0,0,0-.97-1.2.914.914,0,0,0-.69-.31.9.9,0,0,0-.89.91,1.4,1.4,0,0,0-.2.73,1.353,1.353,0,0,0,.64,1.14,1.217,1.217,0,0,0-.31.43h-.09a.885.885,0,1,0,.03,1.77.868.868,0,0,0,.28-.05,1.041,1.041,0,0,0,.76.32,1,1,0,0,0,.38-.08,1.088,1.088,0,0,0-.05.26,1.088,1.088,0,0,0-1.65,1.2.923.923,0,0,0-.03.29.554.554,0,0,0,.02.18,1.181,1.181,0,0,0,.67,2.09.943.943,0,0,0-.05.3.913.913,0,0,0,.15.49,1.242,1.242,0,0,0-.27-.03,1.07,1.07,0,0,0-.41.08.683.683,0,0,0,.07-.32.715.715,0,1,0-.7.73.486.486,0,0,0,.12-.01h0a1.18,1.18,0,0,0,.97,1.88,1.147,1.147,0,0,0,.98-.56,1.071,1.071,0,0,0,.16.14.779.779,0,0,0-.34.66.736.736,0,0,0,.14.43,1.171,1.171,0,0,0-.09.24,1.153,1.153,0,0,0-.88-.41,1.12,1.12,0,1,0,1.06,1.55,1.418,1.418,0,0,0,2.61-.79,1.756,1.756,0,0,0-.06-.4h.06a.47.47,0,0,0,.46-.48v-.02a.867.867,0,0,0,.61-.55.538.538,0,0,0,.28.08.455.455,0,0,0,.28-.1h.06a1.26,1.26,0,0,0,.73-.25.95.95,0,0,0-.09.34,1.038,1.038,0,0,0-.96,1,1.052,1.052,0,1,0-.28,2.06,1.03,1.03,0,0,0,.96-.68.878.878,0,0,0,.73.35.905.905,0,0,0,.62-1.55c0-.06.02-.12.02-.18v-.01a.848.848,0,0,0,.28-.1.605.605,0,0,0-.04.24.685.685,0,1,0,.67-.7Zm-6.91-2.02a1.023,1.023,0,0,0-.14-.22c.04,0,.08.01.13.01a.9.9,0,0,0,.76-.42.767.767,0,0,0,.35.56.218.218,0,0,0-.05.03.839.839,0,0,0-.52-.18.774.774,0,0,0-.53.22Zm.91-1.17a.93.93,0,0,0-.69-.87,1.66,1.66,0,0,0,.12-.31,1.438,1.438,0,0,0,.55.49v.02a1.238,1.238,0,0,0,.13.55,1.139,1.139,0,0,0-.11.11Zm.65-3.31a.474.474,0,0,0,.02.05h-.08A.266.266,0,0,0,263.13,307.46Zm1.03.62h-.01v-.01Zm2.27-1.07a1.23,1.23,0,0,0-.2-.02h0a1.092,1.092,0,0,0,.14-.31.59.59,0,0,0,.22.12A.491.491,0,0,0,266.43,307.01Zm-.11-1.28v-.04c.02-.03.04-.07.06-.1l.09.03a.611.611,0,0,0-.16.12Zm-1.69-.08a.781.781,0,0,0-.24-.27,1.027,1.027,0,0,0,.42-.32c.03-.01.06-.03.09-.04a.583.583,0,0,0-.03.23.711.711,0,0,0,.04.21,1.014,1.014,0,0,0-.27.19Zm-2.45,2.16s-.03-.07-.04-.1v-.15a.709.709,0,0,0,.28.09c-.08.04-.16.1-.24.15Zm4.22,2.32a.611.611,0,0,1-.29.89,1.648,1.648,0,0,0-.32-.04,1.205,1.205,0,0,0-.92.43,1.01,1.01,0,0,0-.16-.13.283.283,0,0,0-.04-.13c.05,0,.09.01.14.01a.98.98,0,0,0,.97-1.01.961.961,0,0,0-.33-.72,1.278,1.278,0,0,0,.01-.2h0a1.105,1.105,0,0,0,.75-.37.643.643,0,0,0,.59.46.972.972,0,0,0-.4.8Zm-3.24-5.26a.506.506,0,0,0-.14.36.524.524,0,0,0,.16.36.838.838,0,0,0-.14.41.9.9,0,0,0-.78-.09.815.815,0,0,0,.06-.31,1.144,1.144,0,0,0,.2-.66,1.506,1.506,0,0,0-.06-.36.849.849,0,0,0,.24-.29,1.646,1.646,0,0,0,.46.58Z" fill="#573720"/>
                    <path id="Path_11563" data-name="Path 11563" d="M268.7,311.93a.52.52,0,1,0-.53-.51A.517.517,0,0,0,268.7,311.93Z" fill="#573720"/>
                    <path id="Path_11564" data-name="Path 11564" d="M268.12,308.3a.55.55,0,1,0,.54-.56A.549.549,0,0,0,268.12,308.3Z" fill="#573720"/>
                    <path id="Path_11565" data-name="Path 11565" d="M267.11,303.72a.435.435,0,1,0,.43-.44A.435.435,0,0,0,267.11,303.72Z" fill="#573720"/>
                    <path id="Path_11566" data-name="Path 11566" d="M268.25,301.45a.6.6,0,0,0,.24-.05v.02a.965.965,0,1,0,1.56-.77,1.04,1.04,0,0,0,.16-.55.985.985,0,1,0-1.97.03h-.02a.66.66,0,0,0,.02,1.32Z" fill="#573720"/>
                    <path id="Path_11567" data-name="Path 11567" d="M271,303.66a.8.8,0,1,0-.81-.79A.8.8,0,0,0,271,303.66Z" fill="#573720"/>
                    <path id="Path_11568" data-name="Path 11568" d="M271.31,312.14a.775.775,0,1,0-.76.79A.766.766,0,0,0,271.31,312.14Z" fill="#573720"/>
                    <path id="Path_11569" data-name="Path 11569" d="M272.48,314.36a1.055,1.055,0,1,0,1.07,1.04A1.059,1.059,0,0,0,272.48,314.36Z" fill="#573720"/>
                    <path id="Path_11570" data-name="Path 11570" d="M272.63,309.92a.88.88,0,0,0,.02-.14.54.54,0,1,0-1.08.02.489.489,0,0,0,.11.31.592.592,0,0,0-.09.35.655.655,0,0,0,1.31-.03.658.658,0,0,0-.26-.51Z" fill="#573720"/>
                    <path id="Path_11571" data-name="Path 11571" d="M271.07,308.07a.69.69,0,1,0-.68.7A.692.692,0,0,0,271.07,308.07Z" fill="#573720"/>
                    <path id="Path_11572" data-name="Path 11572" d="M269.35,304.71a.441.441,0,0,0,.16-.02.732.732,0,1,0,.6-.34.389.389,0,0,0-.15.02.74.74,0,0,0,.12-.42.834.834,0,1,0-1.55-.41.731.731,0,0,0,.08.33v.1a.732.732,0,0,0,.75.73Z" fill="#573720"/>
                    <path id="Path_11573" data-name="Path 11573" d="M271.73,301.24a.53.53,0,0,0-.02-1.06.521.521,0,0,0-.52.54A.527.527,0,0,0,271.73,301.24Z" fill="#573720"/>
                    <path id="Path_11574" data-name="Path 11574" d="M273.24,304.79a.674.674,0,0,0,.67-.69.652.652,0,0,0-.13-.39.549.549,0,1,0-.69-.52.594.594,0,0,0,.07.26.677.677,0,0,0,.09,1.35Z" fill="#573720"/>
                    <path id="Path_11575" data-name="Path 11575" d="M274.94,306.5a.5.5,0,1,0-.51-.49A.5.5,0,0,0,274.94,306.5Z" fill="#573720"/>
                    <path id="Path_11576" data-name="Path 11576" d="M276.16,304.74a.239.239,0,0,0,.24-.25.252.252,0,0,0-.25-.24.245.245,0,1,0,.01.49Z" fill="#573720"/>
                    <path id="Path_11577" data-name="Path 11577" d="M279.68,303.94a.215.215,0,1,0-.22-.21A.207.207,0,0,0,279.68,303.94Z" fill="#573720"/>
                    <path id="Path_11578" data-name="Path 11578" d="M283.82,306.35a.7.7,0,1,0,.71.68A.688.688,0,0,0,283.82,306.35Z" fill="#573720"/>
                    <path id="Path_11579" data-name="Path 11579" d="M288.91,306.31a.225.225,0,0,0,.01.45.231.231,0,0,0,.22-.23A.224.224,0,0,0,288.91,306.31Z" fill="#573720"/>
                    <path id="Path_11580" data-name="Path 11580" d="M287.46,310.84a.385.385,0,1,0,.39.38A.388.388,0,0,0,287.46,310.84Z" fill="#573720"/>
                    <path id="Path_11581" data-name="Path 11581" d="M285.56,314.08a.245.245,0,1,0,.25.24A.246.246,0,0,0,285.56,314.08Z" fill="#573720"/>
                    <path id="Path_11582" data-name="Path 11582" d="M286.1,309.01a.385.385,0,1,0,.39.38A.388.388,0,0,0,286.1,309.01Z" fill="#573720"/>
                    <path id="Path_11583" data-name="Path 11583" d="M291.59,307.17a.275.275,0,1,0,.28.27A.278.278,0,0,0,291.59,307.17Z" fill="#573720"/>
                    <path id="Path_11584" data-name="Path 11584" d="M290.76,302a.66.66,0,1,0,.67.65A.666.666,0,0,0,290.76,302Z" fill="#573720"/>
                    <path id="Path_11585" data-name="Path 11585" d="M285.72,301.65a.38.38,0,1,0,.39.37A.374.374,0,0,0,285.72,301.65Z" fill="#573720"/>
                    <path id="Path_11586" data-name="Path 11586" d="M282.77,301.05a.425.425,0,1,0-.43-.42A.431.431,0,0,0,282.77,301.05Z" fill="#573720"/>
                    <path id="Path_11587" data-name="Path 11587" d="M279.83,305.92a.34.34,0,1,0,.35.33A.331.331,0,0,0,279.83,305.92Z" fill="#573720"/>
                    <path id="Path_11588" data-name="Path 11588" d="M280.37,300.67a.285.285,0,1,0,.29.28A.282.282,0,0,0,280.37,300.67Z" fill="#573720"/>
                    <path id="Path_11589" data-name="Path 11589" d="M270.68,310.35a.47.47,0,1,0-.48-.46A.463.463,0,0,0,270.68,310.35Z" fill="#573720"/>
                    <path id="Path_11590" data-name="Path 11590" d="M272.09,308.7a.1.1,0,1,0-.1.1A.1.1,0,0,0,272.09,308.7Z" fill="#573720"/>
                    <path id="Path_11591" data-name="Path 11591" d="M274.01,306.37a.224.224,0,0,0-.22.23.231.231,0,0,0,.23.22.224.224,0,0,0,.22-.23A.231.231,0,0,0,274.01,306.37Z" fill="#573720"/>
                    <path id="Path_11592" data-name="Path 11592" d="M276.38,308.07a.455.455,0,1,0-.45.46A.457.457,0,0,0,276.38,308.07Z" fill="#573720"/>
                    <path id="Path_11593" data-name="Path 11593" d="M275,309.78a.2.2,0,1,0,.2-.2A.2.2,0,0,0,275,309.78Z" fill="#573720"/>
                    <path id="Path_11594" data-name="Path 11594" d="M273.79,310.81a.155.155,0,1,0-.15.16A.15.15,0,0,0,273.79,310.81Z" fill="#573720"/>
                    <path id="Path_11595" data-name="Path 11595" d="M276.02,311.11a.18.18,0,1,0,.18-.18A.179.179,0,0,0,276.02,311.11Z" fill="#573720"/>
                    <path id="Path_11596" data-name="Path 11596" d="M276.22,312.38a.17.17,0,1,0,.17.17A.175.175,0,0,0,276.22,312.38Z" fill="#573720"/>
                    <path id="Path_11597" data-name="Path 11597" d="M274.67,313.64a.21.21,0,1,0,.21.21A.211.211,0,0,0,274.67,313.64Z" fill="#573720"/>
                    <path id="Path_11598" data-name="Path 11598" d="M271.74,313.54a.485.485,0,1,0,.48-.49A.482.482,0,0,0,271.74,313.54Z" fill="#573720"/>
                    <path id="Path_11599" data-name="Path 11599" d="M275.95,313.96a.175.175,0,1,0,.18.17A.171.171,0,0,0,275.95,313.96Z" fill="#573720"/>
                    <path id="Path_11600" data-name="Path 11600" d="M277.85,311.77a.215.215,0,1,0,.22.21A.214.214,0,0,0,277.85,311.77Z" fill="#573720"/>
                    <path id="Path_11601" data-name="Path 11601" d="M279.69,310.75a.11.11,0,1,0,.11.11A.111.111,0,0,0,279.69,310.75Z" fill="#573720"/>
                    <path id="Path_11602" data-name="Path 11602" d="M279.44,308.11a.275.275,0,1,0,.28.27A.278.278,0,0,0,279.44,308.11Z" fill="#573720"/>
                    <path id="Path_11603" data-name="Path 11603" d="M278.2,305.17a.275.275,0,1,0,.27-.28A.278.278,0,0,0,278.2,305.17Z" fill="#573720"/>
                    <path id="Path_11604" data-name="Path 11604" d="M275.55,303.12a.265.265,0,1,0-.27-.26A.261.261,0,0,0,275.55,303.12Z" fill="#573720"/>
                    <path id="Path_11605" data-name="Path 11605" d="M276.62,301.44a.405.405,0,1,0-.41-.4A.41.41,0,0,0,276.62,301.44Z" fill="#573720"/>
                    <path id="Path_11606" data-name="Path 11606" d="M278.28,300.6a.16.16,0,1,0-.16-.16A.164.164,0,0,0,278.28,300.6Z" fill="#573720"/>
                    <path id="Path_11607" data-name="Path 11607" d="M281.67,302.35a.239.239,0,0,0-.25-.24.246.246,0,0,0-.24.25.239.239,0,0,0,.25.24A.246.246,0,0,0,281.67,302.35Z" fill="#573720"/>
                    <path id="Path_11608" data-name="Path 11608" d="M281.7,304.4a.355.355,0,1,0-.36-.35A.35.35,0,0,0,281.7,304.4Z" fill="#573720"/>
                    <path id="Path_11609" data-name="Path 11609" d="M272.6,301.78a.135.135,0,1,0-.14-.13A.124.124,0,0,0,272.6,301.78Z" fill="#573720"/>
                    <path id="Path_11610" data-name="Path 11610" d="M273.67,300.52a.682.682,0,0,0,.12-.01.455.455,0,0,0-.1.28.425.425,0,1,0,.42-.43h-.02a.621.621,0,0,0,.21-.49.64.64,0,1,0-.63.65Z" fill="#573720"/>
                    <path id="Path_11611" data-name="Path 11611" d="M267.42,302.4a.335.335,0,0,0,.33-.34.335.335,0,1,0-.33.34Z" fill="#573720"/>
                  </g>
                  <g id="Group_5971" data-name="Group 5971">
                    <path id="Path_11612" data-name="Path 11612" d="M270.07,324.21a.72.72,0,1,0-.71.73A.717.717,0,0,0,270.07,324.21Z" fill="#573720"/>
                    <path id="Path_11613" data-name="Path 11613" d="M269.39,321.59a.3.3,0,1,0-.3-.29A.3.3,0,0,0,269.39,321.59Z" fill="#573720"/>
                    <path id="Path_11614" data-name="Path 11614" d="M271.5,319.9a.681.681,0,0,0,.07.28.475.475,0,0,0-.06.24.517.517,0,0,0,.53.51.508.508,0,0,0,.5-.46.668.668,0,0,0,.33-.6.685.685,0,0,0-1.37.03Z" fill="#573720"/>
                    <path id="Path_11615" data-name="Path 11615" d="M273.81,322.11h0a.453.453,0,0,0-.46-.43.442.442,0,0,0-.44.46.466.466,0,0,0,.3.42.781.781,0,0,0-.04.22.655.655,0,1,0,.64-.67Z" fill="#573720"/>
                    <path id="Path_11616" data-name="Path 11616" d="M273.22,326.56a.53.53,0,1,0,.54.52A.533.533,0,0,0,273.22,326.56Z" fill="#573720"/>
                    <path id="Path_11617" data-name="Path 11617" d="M271.51,320.94a.63.63,0,1,0-.62.64A.621.621,0,0,0,271.51,320.94Z" fill="#573720"/>
                    <path id="Path_11618" data-name="Path 11618" d="M277.87,318.18a1.09,1.09,0,1,0-1.11-1.07A1.093,1.093,0,0,0,277.87,318.18Z" fill="#573720"/>
                    <path id="Path_11619" data-name="Path 11619" d="M282.74,318.34a.345.345,0,1,0,.35.34A.346.346,0,0,0,282.74,318.34Z" fill="#573720"/>
                    <path id="Path_11620" data-name="Path 11620" d="M277.2,321.8a.8.8,0,1,0-.81-.78A.788.788,0,0,0,277.2,321.8Z" fill="#573720"/>
                    <path id="Path_11621" data-name="Path 11621" d="M278.63,324.21a.875.875,0,1,0-.86.89A.873.873,0,0,0,278.63,324.21Z" fill="#573720"/>
                    <path id="Path_11622" data-name="Path 11622" d="M270.94,328.53a.485.485,0,1,0,.49.48A.482.482,0,0,0,270.94,328.53Z" fill="#573720"/>
                    <path id="Path_11623" data-name="Path 11623" d="M275.22,325.97a.315.315,0,1,0,.32.31A.32.32,0,0,0,275.22,325.97Z" fill="#573720"/>
                    <path id="Path_11624" data-name="Path 11624" d="M278.61,327.52a.515.515,0,1,0,.52.51A.521.521,0,0,0,278.61,327.52Z" fill="#573720"/>
                    <path id="Path_11625" data-name="Path 11625" d="M281.92,325.31a.275.275,0,1,0,.28.27A.278.278,0,0,0,281.92,325.31Z" fill="#573720"/>
                    <path id="Path_11626" data-name="Path 11626" d="M282.05,323.28a.435.435,0,1,0,.44.43A.435.435,0,0,0,282.05,323.28Z" fill="#573720"/>
                    <path id="Path_11627" data-name="Path 11627" d="M282.11,320.84a.43.43,0,1,0-.42.44A.421.421,0,0,0,282.11,320.84Z" fill="#573720"/>
                    <path id="Path_11628" data-name="Path 11628" d="M261.74,314.76a.205.205,0,1,0-.21-.2A.2.2,0,0,0,261.74,314.76Z" fill="#573720"/>
                    <path id="Path_11629" data-name="Path 11629" d="M259.46,317.9a.275.275,0,1,0-.27.28A.278.278,0,0,0,259.46,317.9Z" fill="#573720"/>
                    <path id="Path_11630" data-name="Path 11630" d="M268.48,328.17a.687.687,0,0,0-.24.05,1.007,1.007,0,0,0,.1-.43.41.41,0,0,0-.01-.11.771.771,0,0,0,.15.02.53.53,0,0,0-.02-1.06.534.534,0,0,0-.51.41.983.983,0,0,0-.56-.18.9.9,0,0,0-.5.16,1.3,1.3,0,0,0,.16-.62,1.008,1.008,0,0,0-.03-.25.775.775,0,0,0,.62-.77.275.275,0,0,0-.02-.13.947.947,0,0,0,.71-.94.963.963,0,0,0-.98-.95h-.08a.606.606,0,0,0,.2-.48.63.63,0,0,0-.41-.59,1.088,1.088,0,0,0,.04-.26v-.08a.545.545,0,0,0,.05-1.02,1.061,1.061,0,0,0,.11-.09.834.834,0,0,0,.35.06.891.891,0,0,0,.51-.17.676.676,0,0,0,.4.12.7.7,0,0,0-.03-1.39.389.389,0,0,0-.15.02.942.942,0,0,0-.77-.4.468.468,0,0,0-.17.02v-.02a.724.724,0,0,0-.75-.72.74.74,0,0,0-.62.36.868.868,0,0,0-.39-.1.415.415,0,0,0-.16.02,1.867,1.867,0,0,0,.15-.32.557.557,0,0,0,.29.05.715.715,0,0,0-.03-1.43.7.7,0,0,0-.37.11,1.5,1.5,0,0,0-.37-.46.874.874,0,0,0,.08-.1.737.737,0,0,0,.7.44.755.755,0,1,0-.03-1.51h-.08a1.143,1.143,0,0,0,.07-.32,1.046,1.046,0,0,0,.2-.65,1.1,1.1,0,0,0-1.12-1.08,1.072,1.072,0,0,0-1.04.83,1.153,1.153,0,0,0-.35.76,1.118,1.118,0,0,0-.4.89,1.049,1.049,0,0,0,.16.56,1.572,1.572,0,0,0-.6.6,1.376,1.376,0,0,0-.97-1.2.914.914,0,0,0-.69-.31.9.9,0,0,0-.89.91,1.4,1.4,0,0,0-.2.73,1.353,1.353,0,0,0,.64,1.14,1.217,1.217,0,0,0-.31.43h-.09a.885.885,0,0,0,.03,1.77.868.868,0,0,0,.28-.05,1.041,1.041,0,0,0,.76.32,1,1,0,0,0,.38-.08,1.088,1.088,0,0,0-.05.26,1.088,1.088,0,0,0-1.65,1.2.923.923,0,0,0-.03.29.554.554,0,0,0,.02.18,1.181,1.181,0,0,0,.67,2.09.943.943,0,0,0-.05.3.913.913,0,0,0,.15.49,1.242,1.242,0,0,0-.27-.03,1.07,1.07,0,0,0-.41.08.683.683,0,0,0,.07-.32.715.715,0,1,0-.7.73.486.486,0,0,0,.12-.01h0a1.18,1.18,0,0,0,.97,1.88,1.147,1.147,0,0,0,.98-.56,1.071,1.071,0,0,0,.16.14.779.779,0,0,0-.34.66.736.736,0,0,0,.14.43,1.171,1.171,0,0,0-.09.24,1.153,1.153,0,0,0-.88-.41,1.12,1.12,0,1,0,1.06,1.55,1.418,1.418,0,0,0,2.61-.79,1.756,1.756,0,0,0-.06-.4h.06a.47.47,0,0,0,.46-.48v-.02a.867.867,0,0,0,.61-.55.538.538,0,0,0,.28.08.455.455,0,0,0,.28-.1h.06a1.26,1.26,0,0,0,.73-.25.95.95,0,0,0-.09.34,1.038,1.038,0,0,0-.96,1,1.052,1.052,0,1,0-.28,2.06,1.03,1.03,0,0,0,.96-.68.878.878,0,0,0,.73.35.905.905,0,0,0,.62-1.55c0-.06.02-.12.02-.18v-.01a.848.848,0,0,0,.28-.1.605.605,0,0,0-.04.24.685.685,0,1,0,.67-.7Zm-6.91-2.03a1.023,1.023,0,0,0-.14-.22c.04,0,.08.01.13.01a.9.9,0,0,0,.76-.42.767.767,0,0,0,.35.56.218.218,0,0,0-.05.03.839.839,0,0,0-.52-.18.774.774,0,0,0-.53.22Zm.91-1.17a.93.93,0,0,0-.69-.87,1.66,1.66,0,0,0,.12-.31,1.438,1.438,0,0,0,.55.49v.02a1.238,1.238,0,0,0,.13.55,1.139,1.139,0,0,0-.11.11Zm.65-3.31a.474.474,0,0,0,.02.05h-.08A.266.266,0,0,0,263.13,321.66Zm1.03.63h-.01v-.01Zm2.27-1.07a1.23,1.23,0,0,0-.2-.02h0a1.092,1.092,0,0,0,.14-.31.59.59,0,0,0,.22.12A.491.491,0,0,0,266.43,321.22Zm-.11-1.29v-.04c.02-.03.04-.07.06-.1l.09.03a.611.611,0,0,0-.16.12Zm-1.69-.08a.781.781,0,0,0-.24-.27,1.027,1.027,0,0,0,.42-.32c.03-.01.06-.03.09-.04a.583.583,0,0,0-.03.23.711.711,0,0,0,.04.21,1.014,1.014,0,0,0-.27.19Zm-2.45,2.16s-.03-.07-.04-.1v-.15a.709.709,0,0,0,.28.09c-.08.04-.16.1-.24.15Zm4.22,2.32a.611.611,0,0,1-.29.89,1.648,1.648,0,0,0-.32-.04,1.205,1.205,0,0,0-.92.43,1.01,1.01,0,0,0-.16-.13.283.283,0,0,0-.04-.13c.05,0,.09.01.14.01a.98.98,0,0,0,.97-1.01.961.961,0,0,0-.33-.72,1.278,1.278,0,0,0,.01-.2h0a1.105,1.105,0,0,0,.75-.37.643.643,0,0,0,.59.46.972.972,0,0,0-.4.8Zm-3.24-5.26a.506.506,0,0,0-.14.36.524.524,0,0,0,.16.36.838.838,0,0,0-.14.41.9.9,0,0,0-.78-.09.815.815,0,0,0,.06-.31,1.144,1.144,0,0,0,.2-.66,1.506,1.506,0,0,0-.06-.36.849.849,0,0,0,.24-.29,1.646,1.646,0,0,0,.46.58Z" fill="#573720"/>
                    <path id="Path_11631" data-name="Path 11631" d="M268.7,326.13a.52.52,0,1,0-.53-.51A.517.517,0,0,0,268.7,326.13Z" fill="#573720"/>
                    <path id="Path_11632" data-name="Path 11632" d="M268.12,322.51a.55.55,0,1,0,.54-.56A.549.549,0,0,0,268.12,322.51Z" fill="#573720"/>
                    <path id="Path_11633" data-name="Path 11633" d="M267.11,317.93a.435.435,0,1,0,.43-.44A.435.435,0,0,0,267.11,317.93Z" fill="#573720"/>
                    <path id="Path_11634" data-name="Path 11634" d="M268.25,315.65a.6.6,0,0,0,.24-.05v.02a.965.965,0,1,0,1.56-.77,1.04,1.04,0,0,0,.16-.55.985.985,0,1,0-1.97.03h-.02a.66.66,0,0,0,.02,1.32Z" fill="#573720"/>
                    <path id="Path_11635" data-name="Path 11635" d="M271,317.86a.8.8,0,1,0-.81-.79A.8.8,0,0,0,271,317.86Z" fill="#573720"/>
                    <path id="Path_11636" data-name="Path 11636" d="M271.31,326.35a.775.775,0,1,0-.76.79A.766.766,0,0,0,271.31,326.35Z" fill="#573720"/>
                    <path id="Path_11637" data-name="Path 11637" d="M272.48,328.57a1.055,1.055,0,1,0,1.07,1.04A1.059,1.059,0,0,0,272.48,328.57Z" fill="#573720"/>
                    <path id="Path_11638" data-name="Path 11638" d="M272.63,324.12a.88.88,0,0,0,.02-.14.54.54,0,1,0-1.08.02.489.489,0,0,0,.11.31.592.592,0,0,0-.09.35.655.655,0,1,0,1.31-.03.658.658,0,0,0-.26-.51Z" fill="#573720"/>
                    <path id="Path_11639" data-name="Path 11639" d="M271.07,322.27a.69.69,0,1,0-.68.7A.692.692,0,0,0,271.07,322.27Z" fill="#573720"/>
                    <path id="Path_11640" data-name="Path 11640" d="M269.35,318.91a.441.441,0,0,0,.16-.02.732.732,0,1,0,.6-.34.389.389,0,0,0-.15.02.74.74,0,0,0,.12-.42.834.834,0,1,0-1.55-.41.731.731,0,0,0,.08.33v.1a.732.732,0,0,0,.75.73Z" fill="#573720"/>
                    <path id="Path_11641" data-name="Path 11641" d="M271.73,315.44a.53.53,0,1,0-.54-.52A.527.527,0,0,0,271.73,315.44Z" fill="#573720"/>
                    <path id="Path_11642" data-name="Path 11642" d="M273.24,318.99a.674.674,0,0,0,.67-.69.652.652,0,0,0-.13-.39.549.549,0,1,0-.69-.52.594.594,0,0,0,.07.26.677.677,0,0,0,.09,1.35Z" fill="#573720"/>
                    <path id="Path_11643" data-name="Path 11643" d="M274.94,320.7a.5.5,0,1,0-.51-.49A.5.5,0,0,0,274.94,320.7Z" fill="#573720"/>
                    <path id="Path_11644" data-name="Path 11644" d="M276.16,318.94a.245.245,0,1,0-.25-.24A.239.239,0,0,0,276.16,318.94Z" fill="#573720"/>
                    <path id="Path_11645" data-name="Path 11645" d="M279.68,318.15a.215.215,0,1,0-.22-.21A.207.207,0,0,0,279.68,318.15Z" fill="#573720"/>
                    <path id="Path_11646" data-name="Path 11646" d="M283.82,320.55a.7.7,0,1,0,.71.68A.688.688,0,0,0,283.82,320.55Z" fill="#573720"/>
                    <path id="Path_11647" data-name="Path 11647" d="M288.91,320.51a.225.225,0,0,0,.01.45.231.231,0,0,0,.22-.23A.224.224,0,0,0,288.91,320.51Z" fill="#573720"/>
                    <path id="Path_11648" data-name="Path 11648" d="M287.46,325.04a.385.385,0,1,0,.39.38A.388.388,0,0,0,287.46,325.04Z" fill="#573720"/>
                    <path id="Path_11649" data-name="Path 11649" d="M285.56,328.28a.245.245,0,1,0,.25.24A.246.246,0,0,0,285.56,328.28Z" fill="#573720"/>
                    <path id="Path_11650" data-name="Path 11650" d="M286.1,323.21a.385.385,0,1,0,.39.38A.388.388,0,0,0,286.1,323.21Z" fill="#573720"/>
                    <path id="Path_11651" data-name="Path 11651" d="M291.59,321.37a.275.275,0,1,0,.28.27A.278.278,0,0,0,291.59,321.37Z" fill="#573720"/>
                    <path id="Path_11652" data-name="Path 11652" d="M290.76,316.2a.66.66,0,1,0,.67.65A.666.666,0,0,0,290.76,316.2Z" fill="#573720"/>
                    <path id="Path_11653" data-name="Path 11653" d="M285.72,315.86a.38.38,0,1,0,.39.37A.374.374,0,0,0,285.72,315.86Z" fill="#573720"/>
                    <path id="Path_11654" data-name="Path 11654" d="M282.77,315.25a.425.425,0,1,0-.43-.42A.431.431,0,0,0,282.77,315.25Z" fill="#573720"/>
                    <path id="Path_11655" data-name="Path 11655" d="M279.83,320.12a.34.34,0,1,0,.35.33A.331.331,0,0,0,279.83,320.12Z" fill="#573720"/>
                    <path id="Path_11656" data-name="Path 11656" d="M280.37,314.87a.285.285,0,1,0,.29.28A.282.282,0,0,0,280.37,314.87Z" fill="#573720"/>
                    <path id="Path_11657" data-name="Path 11657" d="M270.68,324.55a.47.47,0,1,0-.48-.46A.463.463,0,0,0,270.68,324.55Z" fill="#573720"/>
                    <path id="Path_11658" data-name="Path 11658" d="M272.09,322.91a.1.1,0,1,0-.1.1A.1.1,0,0,0,272.09,322.91Z" fill="#573720"/>
                    <path id="Path_11659" data-name="Path 11659" d="M274.01,320.57a.224.224,0,0,0-.22.23.231.231,0,0,0,.23.22.224.224,0,0,0,.22-.23A.231.231,0,0,0,274.01,320.57Z" fill="#573720"/>
                    <path id="Path_11660" data-name="Path 11660" d="M276.38,322.27a.455.455,0,1,0-.45.46A.457.457,0,0,0,276.38,322.27Z" fill="#573720"/>
                    <path id="Path_11661" data-name="Path 11661" d="M275,323.99a.2.2,0,1,0,.2-.2A.2.2,0,0,0,275,323.99Z" fill="#573720"/>
                    <path id="Path_11662" data-name="Path 11662" d="M273.79,325.02a.155.155,0,1,0-.15.16A.15.15,0,0,0,273.79,325.02Z" fill="#573720"/>
                    <path id="Path_11663" data-name="Path 11663" d="M276.02,325.31a.18.18,0,1,0,.18-.18A.179.179,0,0,0,276.02,325.31Z" fill="#573720"/>
                    <path id="Path_11664" data-name="Path 11664" d="M276.22,326.58a.17.17,0,1,0,.17.17A.175.175,0,0,0,276.22,326.58Z" fill="#573720"/>
                    <path id="Path_11665" data-name="Path 11665" d="M274.67,327.84a.21.21,0,1,0,.21.21A.211.211,0,0,0,274.67,327.84Z" fill="#573720"/>
                    <path id="Path_11666" data-name="Path 11666" d="M271.74,327.75a.485.485,0,1,0,.48-.49A.482.482,0,0,0,271.74,327.75Z" fill="#573720"/>
                    <path id="Path_11667" data-name="Path 11667" d="M275.95,328.16a.175.175,0,1,0,.18.17A.171.171,0,0,0,275.95,328.16Z" fill="#573720"/>
                    <path id="Path_11668" data-name="Path 11668" d="M277.85,325.98a.215.215,0,1,0,.22.21A.214.214,0,0,0,277.85,325.98Z" fill="#573720"/>
                    <path id="Path_11669" data-name="Path 11669" d="M279.69,324.95a.11.11,0,1,0,.11.11A.111.111,0,0,0,279.69,324.95Z" fill="#573720"/>
                    <path id="Path_11670" data-name="Path 11670" d="M279.44,322.31a.275.275,0,1,0,.28.27A.278.278,0,0,0,279.44,322.31Z" fill="#573720"/>
                    <path id="Path_11671" data-name="Path 11671" d="M278.2,319.37a.275.275,0,1,0,.27-.28A.278.278,0,0,0,278.2,319.37Z" fill="#573720"/>
                    <path id="Path_11672" data-name="Path 11672" d="M275.55,317.32a.265.265,0,1,0-.27-.26A.261.261,0,0,0,275.55,317.32Z" fill="#573720"/>
                    <path id="Path_11673" data-name="Path 11673" d="M276.62,315.64a.405.405,0,1,0-.41-.4A.41.41,0,0,0,276.62,315.64Z" fill="#573720"/>
                    <path id="Path_11674" data-name="Path 11674" d="M278.28,314.8a.16.16,0,0,0,0-.32.172.172,0,0,0-.16.16A.164.164,0,0,0,278.28,314.8Z" fill="#573720"/>
                    <path id="Path_11675" data-name="Path 11675" d="M281.67,316.55a.245.245,0,1,0-.24.25A.246.246,0,0,0,281.67,316.55Z" fill="#573720"/>
                    <path id="Path_11676" data-name="Path 11676" d="M281.7,318.6a.355.355,0,1,0-.36-.35A.35.35,0,0,0,281.7,318.6Z" fill="#573720"/>
                    <path id="Path_11677" data-name="Path 11677" d="M272.6,315.98a.135.135,0,1,0-.14-.13A.124.124,0,0,0,272.6,315.98Z" fill="#573720"/>
                    <path id="Path_11678" data-name="Path 11678" d="M273.67,314.72a.682.682,0,0,0,.12-.01.455.455,0,0,0-.1.28.425.425,0,1,0,.42-.43h-.02a.621.621,0,0,0,.21-.49.64.64,0,1,0-.63.65Z" fill="#573720"/>
                    <path id="Path_11679" data-name="Path 11679" d="M267.42,316.6a.335.335,0,0,0,.33-.34.335.335,0,1,0-.33.34Z" fill="#573720"/>
                  </g>
                  <g id="Group_5972" data-name="Group 5972">
                    <path id="Path_11680" data-name="Path 11680" d="M270.07,338.41a.72.72,0,1,0-.71.73A.717.717,0,0,0,270.07,338.41Z" fill="#573720"/>
                    <path id="Path_11681" data-name="Path 11681" d="M269.39,335.8a.3.3,0,1,0-.3-.29A.3.3,0,0,0,269.39,335.8Z" fill="#573720"/>
                    <path id="Path_11682" data-name="Path 11682" d="M271.5,334.1a.681.681,0,0,0,.07.28.475.475,0,0,0-.06.24.517.517,0,0,0,1.03.05.668.668,0,0,0,.33-.6.685.685,0,0,0-1.37.03Z" fill="#573720"/>
                    <path id="Path_11683" data-name="Path 11683" d="M273.81,336.31h0a.453.453,0,0,0-.46-.43.442.442,0,0,0-.44.46.466.466,0,0,0,.3.42.781.781,0,0,0-.04.22.655.655,0,1,0,.64-.67Z" fill="#573720"/>
                    <path id="Path_11684" data-name="Path 11684" d="M273.22,340.76a.53.53,0,1,0,.54.52A.527.527,0,0,0,273.22,340.76Z" fill="#573720"/>
                    <path id="Path_11685" data-name="Path 11685" d="M271.51,335.14a.63.63,0,1,0-.62.64A.621.621,0,0,0,271.51,335.14Z" fill="#573720"/>
                    <path id="Path_11686" data-name="Path 11686" d="M277.87,332.38a1.09,1.09,0,1,0-1.11-1.07A1.093,1.093,0,0,0,277.87,332.38Z" fill="#573720"/>
                    <path id="Path_11687" data-name="Path 11687" d="M282.74,332.54a.345.345,0,1,0,.35.34A.346.346,0,0,0,282.74,332.54Z" fill="#573720"/>
                    <path id="Path_11688" data-name="Path 11688" d="M277.2,336.01a.8.8,0,1,0-.81-.78A.788.788,0,0,0,277.2,336.01Z" fill="#573720"/>
                    <path id="Path_11689" data-name="Path 11689" d="M278.63,338.42a.875.875,0,1,0-.86.89A.873.873,0,0,0,278.63,338.42Z" fill="#573720"/>
                    <path id="Path_11690" data-name="Path 11690" d="M270.94,342.73a.485.485,0,1,0,.49.48A.482.482,0,0,0,270.94,342.73Z" fill="#573720"/>
                    <path id="Path_11691" data-name="Path 11691" d="M275.22,340.18a.315.315,0,1,0,.32.31A.32.32,0,0,0,275.22,340.18Z" fill="#573720"/>
                    <path id="Path_11692" data-name="Path 11692" d="M278.61,341.73a.515.515,0,1,0,.52.51A.521.521,0,0,0,278.61,341.73Z" fill="#573720"/>
                    <path id="Path_11693" data-name="Path 11693" d="M281.92,339.51a.275.275,0,1,0,.28.27A.278.278,0,0,0,281.92,339.51Z" fill="#573720"/>
                    <path id="Path_11694" data-name="Path 11694" d="M282.05,337.48a.435.435,0,1,0,.44.43A.435.435,0,0,0,282.05,337.48Z" fill="#573720"/>
                    <path id="Path_11695" data-name="Path 11695" d="M282.11,335.04a.43.43,0,1,0-.42.44A.421.421,0,0,0,282.11,335.04Z" fill="#573720"/>
                    <path id="Path_11696" data-name="Path 11696" d="M261.74,328.96a.205.205,0,1,0-.21-.2A.2.2,0,0,0,261.74,328.96Z" fill="#573720"/>
                    <path id="Path_11697" data-name="Path 11697" d="M259.46,332.1a.275.275,0,1,0-.27.28A.278.278,0,0,0,259.46,332.1Z" fill="#573720"/>
                    <path id="Path_11698" data-name="Path 11698" d="M268.48,342.37a.687.687,0,0,0-.24.05,1.007,1.007,0,0,0,.1-.43.41.41,0,0,0-.01-.11.771.771,0,0,0,.15.02.53.53,0,0,0-.02-1.06.534.534,0,0,0-.51.41.914.914,0,0,0-.56-.18.9.9,0,0,0-.5.16,1.3,1.3,0,0,0,.16-.62,1.008,1.008,0,0,0-.03-.25.775.775,0,0,0,.62-.77.275.275,0,0,0-.02-.13.947.947,0,0,0,.71-.94.963.963,0,0,0-.98-.95h-.08a.606.606,0,0,0,.2-.48.63.63,0,0,0-.41-.59,1.088,1.088,0,0,0,.04-.26v-.08a.545.545,0,0,0,.05-1.02,1.061,1.061,0,0,0,.11-.09.834.834,0,0,0,.35.06.891.891,0,0,0,.51-.17.676.676,0,0,0,.4.12.7.7,0,1,0-.03-1.39.389.389,0,0,0-.15.02.942.942,0,0,0-.77-.4.468.468,0,0,0-.17.02v-.02a.724.724,0,0,0-.75-.72.74.74,0,0,0-.62.36.868.868,0,0,0-.39-.1.415.415,0,0,0-.16.02,1.867,1.867,0,0,0,.15-.32.557.557,0,0,0,.29.05.715.715,0,1,0-.03-1.43.7.7,0,0,0-.37.11,1.5,1.5,0,0,0-.37-.46.874.874,0,0,0,.08-.1.737.737,0,0,0,.7.44.755.755,0,1,0-.03-1.51h-.08a1.143,1.143,0,0,0,.07-.32,1.046,1.046,0,0,0,.2-.65,1.1,1.1,0,0,0-1.12-1.08,1.072,1.072,0,0,0-1.04.83,1.153,1.153,0,0,0-.35.76,1.118,1.118,0,0,0-.4.89,1.049,1.049,0,0,0,.16.56,1.572,1.572,0,0,0-.6.6,1.376,1.376,0,0,0-.97-1.2.914.914,0,0,0-.69-.31.9.9,0,0,0-.89.91,1.4,1.4,0,0,0-.2.73,1.323,1.323,0,0,0,.64,1.13,1.217,1.217,0,0,0-.31.43h-.09a.885.885,0,0,0,.03,1.77.868.868,0,0,0,.28-.05,1.041,1.041,0,0,0,.76.32,1,1,0,0,0,.38-.08,1.088,1.088,0,0,0-.05.26,1.088,1.088,0,0,0-1.65,1.2.923.923,0,0,0-.03.29.554.554,0,0,0,.02.18,1.181,1.181,0,0,0,.67,2.09.943.943,0,0,0-.05.3.913.913,0,0,0,.15.49,1.242,1.242,0,0,0-.27-.03,1.07,1.07,0,0,0-.41.08.683.683,0,0,0,.07-.32.715.715,0,1,0-.7.73.486.486,0,0,0,.12-.01h0a1.18,1.18,0,0,0,.97,1.88,1.147,1.147,0,0,0,.98-.56,1.071,1.071,0,0,0,.16.14.779.779,0,0,0-.34.66.736.736,0,0,0,.14.43,1.171,1.171,0,0,0-.09.24,1.153,1.153,0,0,0-.88-.41,1.12,1.12,0,1,0,1.06,1.55,1.418,1.418,0,0,0,2.61-.79,1.756,1.756,0,0,0-.06-.4h.06a.47.47,0,0,0,.46-.48v-.02a.847.847,0,0,0,.61-.55.538.538,0,0,0,.28.08.455.455,0,0,0,.28-.1h.06a1.26,1.26,0,0,0,.73-.25.95.95,0,0,0-.09.34,1.038,1.038,0,0,0-.96,1,1.052,1.052,0,1,0-.28,2.06,1.03,1.03,0,0,0,.96-.68.878.878,0,0,0,.73.35.905.905,0,0,0,.62-1.55c0-.06.02-.12.02-.18v-.01a.848.848,0,0,0,.28-.1.605.605,0,0,0-.04.24.685.685,0,1,0,.67-.7Zm-6.91-2.03a1.023,1.023,0,0,0-.14-.22c.04,0,.08.01.13.01a.9.9,0,0,0,.76-.42.767.767,0,0,0,.35.56.218.218,0,0,0-.05.03.839.839,0,0,0-.52-.18.774.774,0,0,0-.53.22Zm.91-1.16a.93.93,0,0,0-.69-.87,1.66,1.66,0,0,0,.12-.31,1.438,1.438,0,0,0,.55.49v.02a1.238,1.238,0,0,0,.13.55,1.139,1.139,0,0,0-.11.11Zm.65-3.32a.474.474,0,0,0,.02.05h-.08A.266.266,0,0,0,263.13,335.86Zm1.03.63h-.01v-.01Zm2.27-1.07a1.23,1.23,0,0,0-.2-.02h0a1.092,1.092,0,0,0,.14-.31.59.59,0,0,0,.22.12A.491.491,0,0,0,266.43,335.42Zm-.11-1.29v-.04a1.093,1.093,0,0,0,.06-.11l.09.03a.611.611,0,0,0-.16.12Zm-1.69-.08a.781.781,0,0,0-.24-.27,1.027,1.027,0,0,0,.42-.32c.03-.01.06-.03.09-.04a.583.583,0,0,0-.03.23.711.711,0,0,0,.04.21,1.014,1.014,0,0,0-.27.19Zm-2.45,2.16a.64.64,0,0,1-.04-.1v-.15a.709.709,0,0,0,.28.09c-.08.04-.16.1-.24.15Zm4.22,2.33a.611.611,0,0,1-.29.89,1.648,1.648,0,0,0-.32-.04,1.205,1.205,0,0,0-.92.43,1.01,1.01,0,0,0-.16-.13.283.283,0,0,0-.04-.13c.05,0,.09.01.14.01a.98.98,0,0,0,.97-1.01.961.961,0,0,0-.33-.72,1.278,1.278,0,0,0,.01-.2h0a1.105,1.105,0,0,0,.75-.37.643.643,0,0,0,.59.46.972.972,0,0,0-.4.8Zm-3.24-5.27a.506.506,0,0,0-.14.36.524.524,0,0,0,.16.36.838.838,0,0,0-.14.41.9.9,0,0,0-.78-.09.815.815,0,0,0,.06-.31,1.144,1.144,0,0,0,.2-.66,1.506,1.506,0,0,0-.06-.36.849.849,0,0,0,.24-.29,1.646,1.646,0,0,0,.46.58Z" fill="#573720"/>
                    <path id="Path_11699" data-name="Path 11699" d="M268.7,340.34a.52.52,0,1,0-.53-.51A.517.517,0,0,0,268.7,340.34Z" fill="#573720"/>
                    <path id="Path_11700" data-name="Path 11700" d="M268.12,336.71a.55.55,0,1,0,.54-.56A.549.549,0,0,0,268.12,336.71Z" fill="#573720"/>
                    <path id="Path_11701" data-name="Path 11701" d="M267.11,332.13a.435.435,0,1,0,.43-.44A.435.435,0,0,0,267.11,332.13Z" fill="#573720"/>
                    <path id="Path_11702" data-name="Path 11702" d="M268.25,329.85a.6.6,0,0,0,.24-.05v.02a.965.965,0,1,0,1.56-.77,1.04,1.04,0,0,0,.16-.55.985.985,0,0,0-1.97.03h-.02a.66.66,0,1,0,.02,1.32Z" fill="#573720"/>
                    <path id="Path_11703" data-name="Path 11703" d="M271,332.06a.8.8,0,1,0-.81-.79A.8.8,0,0,0,271,332.06Z" fill="#573720"/>
                    <path id="Path_11704" data-name="Path 11704" d="M271.31,340.55a.775.775,0,1,0-.76.79A.766.766,0,0,0,271.31,340.55Z" fill="#573720"/>
                    <path id="Path_11705" data-name="Path 11705" d="M272.48,342.77a1.055,1.055,0,1,0,1.07,1.04A1.059,1.059,0,0,0,272.48,342.77Z" fill="#573720"/>
                    <path id="Path_11706" data-name="Path 11706" d="M272.63,338.32a.88.88,0,0,0,.02-.14.54.54,0,1,0-1.08.02.489.489,0,0,0,.11.31.592.592,0,0,0-.09.35.655.655,0,0,0,1.31-.03.658.658,0,0,0-.26-.51Z" fill="#573720"/>
                    <path id="Path_11707" data-name="Path 11707" d="M271.07,336.47a.69.69,0,1,0-.68.7A.692.692,0,0,0,271.07,336.47Z" fill="#573720"/>
                    <path id="Path_11708" data-name="Path 11708" d="M269.35,333.11a.441.441,0,0,0,.16-.02.732.732,0,1,0,.6-.34.389.389,0,0,0-.15.02.74.74,0,0,0,.12-.42.834.834,0,1,0-1.55-.41.731.731,0,0,0,.08.33v.1a.732.732,0,0,0,.75.73Z" fill="#573720"/>
                    <path id="Path_11709" data-name="Path 11709" d="M271.73,329.64a.53.53,0,1,0-.54-.52A.527.527,0,0,0,271.73,329.64Z" fill="#573720"/>
                    <path id="Path_11710" data-name="Path 11710" d="M273.24,333.2a.674.674,0,0,0,.67-.69.652.652,0,0,0-.13-.39.549.549,0,1,0-.69-.52.594.594,0,0,0,.07.26.677.677,0,0,0,.09,1.35Z" fill="#573720"/>
                    <path id="Path_11711" data-name="Path 11711" d="M274.94,334.9a.5.5,0,1,0-.51-.49A.489.489,0,0,0,274.94,334.9Z" fill="#573720"/>
                    <path id="Path_11712" data-name="Path 11712" d="M276.16,333.15a.245.245,0,1,0-.25-.24A.239.239,0,0,0,276.16,333.15Z" fill="#573720"/>
                    <path id="Path_11713" data-name="Path 11713" d="M279.68,332.35a.215.215,0,1,0-.01-.43.213.213,0,0,0-.21.22A.207.207,0,0,0,279.68,332.35Z" fill="#573720"/>
                    <path id="Path_11714" data-name="Path 11714" d="M283.82,334.75a.7.7,0,1,0,.71.68A.688.688,0,0,0,283.82,334.75Z" fill="#573720"/>
                    <path id="Path_11715" data-name="Path 11715" d="M288.91,334.71a.224.224,0,0,0-.22.23.225.225,0,0,0,.45-.01A.224.224,0,0,0,288.91,334.71Z" fill="#573720"/>
                    <path id="Path_11716" data-name="Path 11716" d="M287.46,339.24a.385.385,0,1,0,.39.38A.388.388,0,0,0,287.46,339.24Z" fill="#573720"/>
                    <path id="Path_11717" data-name="Path 11717" d="M285.56,342.48a.245.245,0,1,0,.25.24A.246.246,0,0,0,285.56,342.48Z" fill="#573720"/>
                    <path id="Path_11718" data-name="Path 11718" d="M286.1,337.41a.385.385,0,1,0,.39.38A.388.388,0,0,0,286.1,337.41Z" fill="#573720"/>
                    <path id="Path_11719" data-name="Path 11719" d="M291.59,335.57a.275.275,0,1,0,.28.27A.278.278,0,0,0,291.59,335.57Z" fill="#573720"/>
                    <path id="Path_11720" data-name="Path 11720" d="M290.76,330.4a.66.66,0,1,0,.67.65A.666.666,0,0,0,290.76,330.4Z" fill="#573720"/>
                    <path id="Path_11721" data-name="Path 11721" d="M285.72,330.06a.375.375,0,1,0,.39.37A.371.371,0,0,0,285.72,330.06Z" fill="#573720"/>
                    <path id="Path_11722" data-name="Path 11722" d="M282.77,329.45a.425.425,0,1,0-.43-.42A.431.431,0,0,0,282.77,329.45Z" fill="#573720"/>
                    <path id="Path_11723" data-name="Path 11723" d="M279.83,334.32a.34.34,0,1,0,.35.33A.331.331,0,0,0,279.83,334.32Z" fill="#573720"/>
                    <path id="Path_11724" data-name="Path 11724" d="M280.37,329.07a.285.285,0,1,0,.29.28A.282.282,0,0,0,280.37,329.07Z" fill="#573720"/>
                    <path id="Path_11725" data-name="Path 11725" d="M270.68,338.76a.47.47,0,1,0-.48-.46A.463.463,0,0,0,270.68,338.76Z" fill="#573720"/>
                    <path id="Path_11726" data-name="Path 11726" d="M272.09,337.11a.1.1,0,1,0-.1.1A.1.1,0,0,0,272.09,337.11Z" fill="#573720"/>
                    <path id="Path_11727" data-name="Path 11727" d="M274.01,334.77a.225.225,0,1,0,.23.22A.224.224,0,0,0,274.01,334.77Z" fill="#573720"/>
                    <path id="Path_11728" data-name="Path 11728" d="M276.38,336.48a.455.455,0,1,0-.45.46A.457.457,0,0,0,276.38,336.48Z" fill="#573720"/>
                    <path id="Path_11729" data-name="Path 11729" d="M275,338.19a.2.2,0,1,0,.2-.2A.2.2,0,0,0,275,338.19Z" fill="#573720"/>
                    <path id="Path_11730" data-name="Path 11730" d="M273.79,339.22a.155.155,0,1,0-.15.16A.15.15,0,0,0,273.79,339.22Z" fill="#573720"/>
                    <path id="Path_11731" data-name="Path 11731" d="M276.02,339.51a.18.18,0,1,0,.18-.18A.179.179,0,0,0,276.02,339.51Z" fill="#573720"/>
                    <path id="Path_11732" data-name="Path 11732" d="M276.22,340.78a.17.17,0,1,0,.17.17A.175.175,0,0,0,276.22,340.78Z" fill="#573720"/>
                    <path id="Path_11733" data-name="Path 11733" d="M274.67,342.04a.21.21,0,1,0,.21.21A.211.211,0,0,0,274.67,342.04Z" fill="#573720"/>
                    <path id="Path_11734" data-name="Path 11734" d="M271.74,341.95a.485.485,0,1,0,.48-.49A.482.482,0,0,0,271.74,341.95Z" fill="#573720"/>
                    <path id="Path_11735" data-name="Path 11735" d="M275.95,342.36a.175.175,0,1,0,.18.17A.171.171,0,0,0,275.95,342.36Z" fill="#573720"/>
                    <path id="Path_11736" data-name="Path 11736" d="M277.85,340.18a.215.215,0,1,0,.22.21A.214.214,0,0,0,277.85,340.18Z" fill="#573720"/>
                    <path id="Path_11737" data-name="Path 11737" d="M279.69,339.15a.11.11,0,1,0,.11.11A.111.111,0,0,0,279.69,339.15Z" fill="#573720"/>
                    <path id="Path_11738" data-name="Path 11738" d="M279.44,336.51a.275.275,0,1,0,.28.27A.278.278,0,0,0,279.44,336.51Z" fill="#573720"/>
                    <path id="Path_11739" data-name="Path 11739" d="M278.2,333.58a.275.275,0,1,0,.27-.28A.278.278,0,0,0,278.2,333.58Z" fill="#573720"/>
                    <path id="Path_11740" data-name="Path 11740" d="M275.55,331.52a.265.265,0,1,0-.27-.26A.261.261,0,0,0,275.55,331.52Z" fill="#573720"/>
                    <path id="Path_11741" data-name="Path 11741" d="M276.62,329.84a.405.405,0,1,0-.41-.4A.41.41,0,0,0,276.62,329.84Z" fill="#573720"/>
                    <path id="Path_11742" data-name="Path 11742" d="M278.28,329a.16.16,0,1,0-.16-.16A.164.164,0,0,0,278.28,329Z" fill="#573720"/>
                    <path id="Path_11743" data-name="Path 11743" d="M281.67,330.75a.245.245,0,1,0-.24.25A.246.246,0,0,0,281.67,330.75Z" fill="#573720"/>
                    <path id="Path_11744" data-name="Path 11744" d="M281.7,332.8a.355.355,0,1,0-.36-.35A.35.35,0,0,0,281.7,332.8Z" fill="#573720"/>
                    <path id="Path_11745" data-name="Path 11745" d="M272.6,330.18a.135.135,0,1,0-.14-.13A.124.124,0,0,0,272.6,330.18Z" fill="#573720"/>
                    <path id="Path_11746" data-name="Path 11746" d="M273.67,328.92a.682.682,0,0,0,.12-.01.455.455,0,0,0-.1.28.425.425,0,1,0,.42-.43h-.02a.621.621,0,0,0,.21-.49.64.64,0,1,0-.63.65Z" fill="#573720"/>
                    <path id="Path_11747" data-name="Path 11747" d="M267.42,330.8a.335.335,0,0,0,.33-.34.342.342,0,0,0-.34-.33.335.335,0,1,0,.01.67Z" fill="#573720"/>
                  </g>
                </g>
              </g>
            </g>
            <circle id="Ellipse_9" data-name="Ellipse 9" cx="1.15" cy="1.15" r="1.15" transform="translate(287.52 295.09)" fill="#573720"/>
            <path id="Path_11748" data-name="Path 11748" d="M289.81,335.12a1.15,1.15,0,1,1-1.15-1.15A1.15,1.15,0,0,1,289.81,335.12Z" fill="#573720"/>
          </g>
        </g>
        <text id="Forever" transform="translate(264.46 314.43)" fill="#fff" font-size="13.07" font-family="Rockwell-Bold, Rockwell" font-weight="700"><tspan x="0" y="0">Forever</tspan></text>
        <g id="Group_5978" data-name="Group 5978">
          <rect id="Rectangle_2234" data-name="Rectangle 2234" width="35.76" height="0.98" transform="translate(271.82 322.16)" fill="#fff"/>
          <path id="Path_11749" data-name="Path 11749" d="M304.46,326a.507.507,0,0,1-.4-.2.5.5,0,0,1,.11-.69l3.13-2.27c.08-.06.13-.12.13-.18s-.05-.12-.13-.18l-3.13-2.29a.494.494,0,0,1,.58-.8l3.13,2.29a1.213,1.213,0,0,1,.53.98,1.2,1.2,0,0,1-.53.97l-3.13,2.27a.521.521,0,0,1-.29.09Z" fill="#fff"/>
        </g>
      </g>
    </g>
    <rect id="Rectangle_2235" data-name="Rectangle 2235" width="390" height="377.23" fill="none"/>
  </g>
</svg>
