<?xml version="1.0" encoding="UTF-8"?>
<svg id="OBJECTS" xmlns="http://www.w3.org/2000/svg" xmlns:xlink="http://www.w3.org/1999/xlink" viewBox="0 0 354.64 223.93">
  <defs>
    <style>
      .cls-1 {
        fill: #4c4159;
      }

      .cls-1, .cls-2, .cls-3, .cls-4, .cls-5, .cls-6, .cls-7, .cls-8, .cls-9, .cls-10, .cls-11, .cls-12, .cls-13, .cls-14, .cls-15, .cls-16, .cls-17, .cls-18, .cls-19 {
        stroke-width: 0px;
      }

      .cls-2, .cls-20 {
        fill: #263238;
      }

      .cls-3, .cls-21, .cls-22, .cls-15, .cls-17 {
        fill: #fff;
      }

      .cls-3, .cls-19 {
        opacity: .8;
      }

      .cls-23, .cls-17 {
        opacity: .5;
      }

      .cls-21, .cls-20, .cls-24, .cls-25, .cls-26 {
        stroke: #263238;
        stroke-miterlimit: 10;
      }

      .cls-4 {
        fill: #433a49;
      }

      .cls-24, .cls-7 {
        fill: none;
      }

      .cls-5 {
        fill: #eaa58f;
      }

      .cls-25 {
        fill: #c2c2c2;
      }

      .cls-6 {
        fill: #7f532c;
      }

      .cls-8 {
        fill: #6e472b;
      }

      .cls-22 {
        font-family: Rockwell-Bold, Rockwell;
        font-size: 7.27px;
        font-weight: 700;
      }

      .cls-9 {
        fill: #c8dff6;
      }

      .cls-10 {
        fill: #d88f7c;
      }

      .cls-11 {
        fill: #e7d8e4;
      }

      .cls-26 {
        fill: #eb9486;
      }

      .cls-27 {
        clip-path: url(#clippath);
      }

      .cls-12 {
        fill: #573720;
      }

      .cls-13, .cls-19 {
        fill: #e7e4d0;
      }

      .cls-14 {
        fill: #92e3a9;
      }

      .cls-16 {
        fill: #fcf6f9;
      }

      .cls-18 {
        fill: #b6d1e7;
      }
    </style>
    <clipPath id="clippath">
      <path id="SVGID" class="cls-7" d="M342.47,172.22l2.51-.31s-6.35-1.04-6.5-1.04c-.13,0,8.68-.16,11.87-.19v-12.76l-8.73-.51,8.73-.31v-.12l-7.23-.54,7.23-.38v-3.98h-31.61v2.03c1.62.1,4.18.29,4.18.29l-2.33.63,8.72.63s-7.19.43-10.57.58v20.34h8.96l-2.53.75,6.56.53h18.63v-5.66h-7.88Z"/>
    </clipPath>
  </defs>
  <g>
    <g>
      <path class="cls-13" d="M291.58,19.55c-2.55-1.76-5.2-3.42-7.95-4.99-7.12-4.05-14.68-7.27-22.52-9.52-29.04-8.31-60.99-4.81-90.42-.51-20.4,2.98-42.79,6.92-60.35,18.56-19.78,13.12-39.33,27.05-56.53,43.62-19.08,18.37-35.83,40.96-43.32,66.97-4.43,15.38-5.34,32.43.26,47.63,14.74,40.07,66.74,44.19,102.12,42.21,26.09-1.46,51.82-6.22,77.89-7.8,24.89-1.52,49.91-1.03,74.72,1.53,19.74,2.03,42.33-2.28,57.51-16.16,13.62-12.45,17.61-29.32,19.57-47.2,5.55-50.64-8.6-105.14-50.99-134.35Z"/>
      <path class="cls-19" d="M291.58,19.55c-2.55-1.76-5.2-3.42-7.95-4.99-7.12-4.05-14.68-7.27-22.52-9.52-29.04-8.31-60.99-4.81-90.42-.51-20.4,2.98-42.79,6.92-60.35,18.56-19.78,13.12-39.33,27.05-56.53,43.62-19.08,18.37-35.83,40.96-43.32,66.97-4.43,15.38-5.34,32.43.26,47.63,14.74,40.07,66.74,44.19,102.12,42.21,26.09-1.46,51.82-6.22,77.89-7.8,24.89-1.52,49.91-1.03,74.72,1.53,19.74,2.03,42.33-2.28,57.51-16.16,13.62-12.45,17.61-29.32,19.57-47.2,5.55-50.64-8.6-105.14-50.99-134.35Z"/>
    </g>
    <g>
      <line class="cls-21" x1="354.14" y1="200.6" x2=".5" y2="200.6"/>
      <g>
        <g>
          <line class="cls-21" x1="354.14" y1="215.58" x2=".5" y2="215.58"/>
          <line class="cls-21" x1="354.14" y1="217.32" x2=".5" y2="217.32"/>
          <line class="cls-21" x1="354.14" y1="218.72" x2=".5" y2="218.72"/>
        </g>
        <g>
          <line class="cls-21" x1="354.14" y1="219.07" x2=".5" y2="219.07"/>
          <line class="cls-21" x1="354.14" y1="220.81" x2=".5" y2="220.81"/>
          <line class="cls-21" x1="354.14" y1="222.2" x2=".5" y2="222.2"/>
        </g>
      </g>
      <rect class="cls-20" x=".5" y="207.6" width="353.64" height="3.93"/>
    </g>
    <g>
      <path class="cls-14" d="M288.06,4.33c-24.82,0-44.94,19.98-44.94,44.64,0,11.43,4.33,21.85,11.44,29.75,3.25-.47,9.19-.8,15.74,1.43,8.69,2.96,14.1,7.8,15.29,8.93h4.03c1.19-1.13,6.6-5.97,15.29-8.93,7.14-2.43,13.54-1.83,16.55-1.31,7.18-7.91,11.55-18.39,11.55-29.88,0-24.65-20.12-44.64-44.94-44.64Z"/>
      <path class="cls-17" d="M288.06,4.33c-24.82,0-44.94,19.98-44.94,44.64,0,11.43,4.33,21.85,11.44,29.75,3.25-.47,9.19-.8,15.74,1.43,8.69,2.96,14.1,7.8,15.29,8.93h4.03c1.19-1.13,6.6-5.97,15.29-8.93,7.14-2.43,13.54-1.83,16.55-1.31,7.18-7.91,11.55-18.39,11.55-29.88,0-24.65-20.12-44.64-44.94-44.64Z"/>
      <path class="cls-2" d="M308.97,66.87c-1.38.67-2.75,1.36-4.11,2.08-1.35.74-2.68,1.54-3.93,2.42-.47.33-.93.66-1.39,1l7.36-13.71-10.1,15.82c-1.02.82-2.03,1.66-3.02,2.52-1.63,1.42-3.22,2.87-4.77,4.36l-.51-14.88,10.57-16.09-10.65,13.84-.46-13.32-.76,14.9h0s0,0,0,0l-.76,14.93c-1.35-1.28-2.72-2.53-4.13-3.75-1.11-.96-2.24-1.91-3.39-2.83l-9.56-16.32,7.02,14.4c-.4-.29-.8-.59-1.22-.87-1.24-.88-2.57-1.68-3.93-2.42-1.35-.72-2.72-1.41-4.11-2.08-2.77-1.33-5.59-2.57-8.5-3.6,2.83,1.2,5.54,2.6,8.2,4.09,1.32.75,2.63,1.51,3.92,2.31,1.27.8,2.48,1.65,3.64,2.58,2.33,1.84,4.5,3.86,6.6,5.93,1.83,1.82,3.61,3.7,5.31,5.6l-.97,116.82h4.43l-.63-116.05c1.9-2.17,3.92-4.31,5.99-6.37,2.09-2.08,4.27-4.09,6.6-5.93,1.16-.93,2.37-1.78,3.64-2.58,1.29-.79,2.59-1.56,3.92-2.31,2.65-1.48,5.36-2.89,8.2-4.09-2.91,1.03-5.73,2.27-8.5,3.6Z"/>
    </g>
    <g>
      <path class="cls-14" d="M327.01,90.56c-13.92,0-25.2,11.2-25.2,25.03,0,6.41,2.43,12.25,6.41,16.68,1.82-.26,5.15-.45,8.83.8,4.87,1.66,7.91,4.37,8.57,5.01h2.26c.66-.63,3.7-3.35,8.57-5.01,4-1.36,7.59-1.02,9.28-.73,4.03-4.44,6.48-10.31,6.48-16.75,0-13.82-11.28-25.03-25.2-25.03Z"/>
      <path class="cls-17" d="M327.01,90.56c-13.92,0-25.2,11.2-25.2,25.03,0,6.41,2.43,12.25,6.41,16.68,1.82-.26,5.15-.45,8.83.8,4.87,1.66,7.91,4.37,8.57,5.01h2.26c.66-.63,3.7-3.35,8.57-5.01,4-1.36,7.59-1.02,9.28-.73,4.03-4.44,6.48-10.31,6.48-16.75,0-13.82-11.28-25.03-25.2-25.03Z"/>
      <path class="cls-2" d="M338.74,125.62c-.78.37-1.54.76-2.3,1.17-.76.41-1.5.87-2.2,1.36-.26.18-.52.37-.78.56l4.13-7.69-5.66,8.87c-.57.46-1.14.93-1.69,1.41-.91.8-1.8,1.61-2.68,2.44l-.29-8.34,5.93-9.02-5.97,7.76-.26-7.47-.43,8.35h0s0,0,0,0l-.43,8.37c-.76-.72-1.53-1.42-2.32-2.1-.62-.54-1.25-1.07-1.9-1.58l-5.36-9.15,3.94,8.07c-.23-.16-.45-.33-.68-.49-.7-.49-1.44-.94-2.2-1.36-.76-.4-1.53-.79-2.3-1.17-1.55-.74-3.13-1.44-4.77-2.02,1.59.67,3.11,1.46,4.59,2.29.74.42,1.47.85,2.2,1.29.71.45,1.39.92,2.04,1.45,1.31,1.03,2.52,2.16,3.7,3.33,1.03,1.02,2.02,2.07,2.98,3.14l-.54,65.5h2.48l-.35-65.06c1.06-1.22,2.2-2.42,3.36-3.57,1.17-1.16,2.39-2.29,3.7-3.33.65-.52,1.33-1,2.04-1.45.72-.45,1.45-.88,2.2-1.29,1.49-.83,3.01-1.62,4.59-2.29-1.63.58-3.22,1.27-4.77,2.02Z"/>
    </g>
    <g>
      <path class="cls-14" d="M28.36,90.56c-13.92,0-25.2,11.2-25.2,25.03,0,6.41,2.43,12.25,6.41,16.68,1.82-.26,5.15-.45,8.83.8,4.87,1.66,7.91,4.37,8.57,5.01h2.26c.66-.63,3.7-3.35,8.57-5.01,4-1.36,7.59-1.02,9.28-.73,4.03-4.44,6.48-10.31,6.48-16.75,0-13.82-11.28-25.03-25.2-25.03Z"/>
      <path class="cls-17" d="M28.36,90.56c-13.92,0-25.2,11.2-25.2,25.03,0,6.41,2.43,12.25,6.41,16.68,1.82-.26,5.15-.45,8.83.8,4.87,1.66,7.91,4.37,8.57,5.01h2.26c.66-.63,3.7-3.35,8.57-5.01,4-1.36,7.59-1.02,9.28-.73,4.03-4.44,6.48-10.31,6.48-16.75,0-13.82-11.28-25.03-25.2-25.03Z"/>
      <path class="cls-2" d="M40.09,125.62c-.78.37-1.54.76-2.3,1.17-.76.41-1.5.87-2.2,1.36-.26.18-.52.37-.78.56l4.13-7.69-5.66,8.87c-.57.46-1.14.93-1.69,1.41-.91.8-1.8,1.61-2.68,2.44l-.29-8.34,5.93-9.02-5.97,7.76-.26-7.47-.43,8.35h0s0,0,0,0l-.43,8.37c-.76-.72-1.53-1.42-2.32-2.1-.62-.54-1.25-1.07-1.9-1.58l-5.36-9.15,3.94,8.07c-.23-.16-.45-.33-.68-.49-.7-.49-1.44-.94-2.2-1.36-.76-.4-1.53-.79-2.3-1.17-1.55-.74-3.13-1.44-4.77-2.02,1.59.67,3.11,1.46,4.59,2.29.74.42,1.47.85,2.2,1.29.71.45,1.39.92,2.04,1.45,1.31,1.03,2.52,2.16,3.7,3.33,1.03,1.02,2.02,2.07,2.98,3.14l-.54,65.5h2.48l-.35-65.06c1.06-1.22,2.2-2.42,3.36-3.57,1.17-1.16,2.39-2.29,3.7-3.33.65-.52,1.33-1,2.04-1.45.72-.45,1.45-.88,2.2-1.29,1.49-.83,3.01-1.62,4.59-2.29-1.63.58-3.22,1.27-4.77,2.02Z"/>
    </g>
    <path class="cls-24" d="M126.9,32.22s-12.67-14.78-31.14-14.78-21.64,13.19-25.33,15.83c-3.69,2.64-10.03-2.11-16.36,0-6.33,2.11-7.92,6.86-10.56,7.92-2.64,1.06-6.33-3.69-12.67-2.11-6.33,1.58-14.78,6.86-14.78,6.86h140.91s-1.06-9.5-10.56-10.56c-9.5-1.06-16.36,5.28-19.53-3.17Z"/>
    <path class="cls-24" d="M83.83,63.46s-6.44-7.52-15.84-7.52-11.01,6.71-12.89,8.05c-1.88,1.34-5.1-1.07-8.32,0-3.22,1.07-4.03,3.49-5.37,4.03s-3.22-1.88-6.44-1.07-7.52,3.49-7.52,3.49h71.68s-.54-4.83-5.37-5.37c-4.83-.54-8.32,2.68-9.93-1.61Z"/>
    <path class="cls-24" d="M198.72,59.15s-5.02-5.86-12.35-5.86-8.58,5.23-10.04,6.28c-1.46,1.05-3.98-.84-6.49,0-2.51.84-3.14,2.72-4.19,3.14-1.05.42-2.51-1.46-5.02-.84-2.51.63-5.86,2.72-5.86,2.72h55.87s-.42-3.77-4.19-4.19c-3.77-.42-6.49,2.09-7.74-1.26Z"/>
    <g>
      <rect class="cls-25" x="50.32" y="88.07" width="263.52" height="60.32"/>
      <line class="cls-24" x1="50.71" y1="92" x2="313.73" y2="92"/>
      <line class="cls-24" x1="50.71" y1="95.36" x2="313.73" y2="95.36"/>
      <rect class="cls-26" x="50.32" y="139.59" width="263.52" height="60.32"/>
      <polygon class="cls-19" points="313.84 139.59 50.64 139.59 38.26 104.15 326.23 104.15 313.84 139.59"/>
      <rect class="cls-26" x="38.26" y="99.25" width="287.97" height="4.9"/>
      <rect class="cls-26" x="44.67" y="122.62" width="274.83" height="3.39"/>
      <g>
        <polygon class="cls-21" points="302.2 125.83 308.58 132.61 310.57 132.61 317.08 125.83 302.2 125.83"/>
        <rect class="cls-21" x="307.81" y="126.01" width="4.52" height="77.66"/>
      </g>
      <g>
        <polygon class="cls-21" points="217.26 125.83 223.65 132.61 225.64 132.61 232.14 125.83 217.26 125.83"/>
        <rect class="cls-21" x="222.48" y="126.01" width="4.52" height="77.66"/>
      </g>
      <g>
        <polygon class="cls-21" points="131.73 125.83 138.11 132.61 140.11 132.61 146.61 125.83 131.73 125.83"/>
        <rect class="cls-21" x="137.16" y="126.01" width="4.52" height="77.66"/>
      </g>
      <g>
        <rect class="cls-21" x="59.95" y="158.01" width="19.78" height="43.14"/>
        <rect class="cls-21" x="62.03" y="160.63" width="15.63" height="15.47"/>
      </g>
      <g>
        <polygon class="cls-21" points="46.59 125.83 52.98 132.61 54.97 132.61 61.47 125.83 46.59 125.83"/>
        <rect class="cls-21" x="51.83" y="126.01" width="4.52" height="77.66"/>
      </g>
      <g>
        <rect class="cls-21" x="246.14" y="181.28" width=".64" height="18.85"/>
        <rect class="cls-21" x="243.29" y="193.42" width=".64" height="8.27"/>
        <rect class="cls-21" x="289.63" y="193.42" width=".64" height="8.27"/>
        <rect class="cls-21" x="287.24" y="181.28" width=".64" height="18.85"/>
        <polygon class="cls-25" points="291.82 194.22 241.84 194.22 244.12 190.52 289.55 190.52 291.82 194.22"/>
        <g>
          <rect class="cls-25" x="244.12" y="179.62" width="45.43" height="3.13"/>
          <rect class="cls-25" x="244.12" y="188.36" width="45.43" height="2.41"/>
          <rect class="cls-25" x="244.12" y="183.77" width="45.43" height="3.59"/>
        </g>
      </g>
      <g>
        <rect class="cls-21" x="162.16" y="181.28" width=".64" height="18.85"/>
        <rect class="cls-21" x="159.31" y="193.42" width=".64" height="8.27"/>
        <rect class="cls-21" x="205.65" y="193.42" width=".64" height="8.27"/>
        <rect class="cls-21" x="203.26" y="181.28" width=".64" height="18.85"/>
        <polygon class="cls-25" points="207.84 194.22 157.86 194.22 160.13 190.52 205.57 190.52 207.84 194.22"/>
        <g>
          <rect class="cls-25" x="160.13" y="179.62" width="45.43" height="3.13"/>
          <rect class="cls-25" x="160.13" y="188.36" width="45.43" height="2.41"/>
          <rect class="cls-25" x="160.13" y="183.77" width="45.43" height="3.59"/>
        </g>
      </g>
      <g>
        <rect class="cls-21" x="86.12" y="181.28" width=".64" height="18.85"/>
        <rect class="cls-21" x="83.27" y="193.42" width=".64" height="8.27"/>
        <rect class="cls-21" x="129.61" y="193.42" width=".64" height="8.27"/>
        <rect class="cls-21" x="127.22" y="181.28" width=".64" height="18.85"/>
        <polygon class="cls-25" points="131.8 194.22 81.83 194.22 84.1 190.52 129.53 190.52 131.8 194.22"/>
        <g>
          <rect class="cls-25" x="84.1" y="179.62" width="45.43" height="3.13"/>
          <rect class="cls-25" x="84.1" y="188.36" width="45.43" height="2.41"/>
          <rect class="cls-25" x="84.1" y="183.77" width="45.43" height="3.59"/>
        </g>
      </g>
      <rect class="cls-3" x="161.94" y="143.06" width="22.36" height="29.26"/>
      <rect class="cls-3" x="110.74" y="143.06" width="22.36" height="29.26"/>
      <rect class="cls-3" x="190.92" y="143.88" width="20.98" height="15.73"/>
      <rect class="cls-3" x="267.92" y="143.88" width="20.98" height="15.73"/>
      <rect class="cls-3" x="280.62" y="165.1" width="12.19" height="9.14"/>
      <rect class="cls-3" x="86.03" y="143.88" width="20.98" height="15.73"/>
      <rect class="cls-3" x="243.63" y="146.92" width="18.49" height="23.74"/>
      <g>
        <rect class="cls-26" x="109.37" y="88.07" width="32.67" height="8.75"/>
        <rect class="cls-26" x="113.35" y="64.36" width="24.71" height="29.28"/>
        <rect class="cls-26" x="111.29" y="61.48" width="28.82" height="6.6"/>
      </g>
      <g>
        <rect class="cls-26" x="215.75" y="88.07" width="32.67" height="8.75"/>
        <rect class="cls-26" x="219.73" y="64.36" width="24.71" height="29.28"/>
        <rect class="cls-26" x="217.67" y="61.48" width="28.82" height="6.6"/>
      </g>
    </g>
  </g>
  <g>
    <g>
      <path class="cls-1" d="M197.15,151.33c-.99,1.01-1.89,9.68-3.43,11.33,0,0,.96,1.4,2.53,1.31,1.57-.1,2.98-7.55,2.98-7.55l-2.07-5.08Z"/>
      <path class="cls-4" d="M195.47,157.52c-.5,2.24-1.06,4.4-1.76,5.14,0,0,.96,1.4,2.53,1.31,1.57-.1,2.98-7.55,2.98-7.55l-.77-1.89-1.08-.33c.27.82-.71,2.13-1.9,3.33Z"/>
    </g>
    <path class="cls-10" d="M197.04,153.56c1.03-.04,1.64.36,1.8,3,.16,2.64.61,4.42.61,4.42l-.61,3.73s-1.08-1.36-1.18-2.63c-.1-1.27-.28-4.75-.28-4.75l-.34-3.77Z"/>
    <g>
      <g>
        <path class="cls-5" d="M186.52,153.38c-1.04.45-.89,8.17-1.22,9.67-.34,1.5-.65,1.91-1.53,8.34,0,0-.55,1.56-.27,3.2,0,0,4.08-6.72,3.99-7.38s0-2.35,0-2.96.87-5.89.87-5.89c0,0-.57-5.53-1.84-4.98Z"/>
        <path class="cls-10" d="M187.49,164.25c0-.6.87-5.89.87-5.89,0,0-.37-3.56-1.17-4.69l-.16.03c.72.91-.32,8.71-.53,10.26s.97,1.99.9,3.53c0,.02,0,.02,0,.04.05-.15.08-.26.07-.32-.09-.66,0-2.35,0-2.96Z"/>
      </g>
      <g>
        <path class="cls-16" d="M188.08,152.73c-.48.11-.81.23-1.26.35-.26.07-.35.12-.3.31,0,0,.76-.23,1.05,2.26.29,2.49.06,3.23,1.03,4.94.97,1.71.77,2.47-.52,4.89-1.29,2.42-8.29,9.2-9.82,34.22h25.74s2.91-8.32-6.93-35.01c0,0-.94-2.04-.43-3.72.51-1.68,2.84-1.48.8-9.82,0,0-1.73.05-1.54.05.19,0-7.82,1.53-7.82,1.53Z"/>
        <path class="cls-11" d="M197.07,164.69s-.94-2.04-.43-3.72c.05-.17.12-.31.2-.45h0c-1.4,1.67-2.2,2.7-2.95,4.16-.75,1.46,5.14-3.27,5.14,35.02h4.98s1.77-21.23-6.93-35.01Z"/>
      </g>
      <path class="cls-4" d="M192.49,142.82c1.06.08,1.51,1.01,1.16,1.52,0,0,.68.14.42.87h-1.47l-.11-2.4Z"/>
      <g>
        <g>
          <path class="cls-5" d="M190.24,147.95c.46,1.57.26,3.71.26,3.71,0,0-.35.58-2.42,1.07,0,0,2.36,4.29,5.23,5.64,0,0,3.17-3.3,2.79-7.17h-1.65c-.61,0-.61-3.41-.61-3.41l-3.6.16Z"/>
          <path class="cls-10" d="M194.45,151.19c-.61,0-.61-3.41-.61-3.41l-3.6.16c.46,1.57.26,3.71.26,3.71,0,0-.22.36-1.34.76h0c1.95-.64,3.24-2.18,4.15-.95.89,1.21.97,3.82-1.1,6.24.35.26.72.49,1.1.67,0,0,3.17-3.3,2.79-7.17h-1.65Z"/>
        </g>
        <path class="cls-4" d="M187.9,147.78c-.03.54-1.39,1.56-.87,3.08.52,1.53,2.7,1.5,3.38.44.68-1.06.17-2.4-.18-3.36-.34-.96-.23-1.47-.23-1.47,0,0-2.05.3-2.1,1.31Z"/>
        <path class="cls-5" d="M192.54,143.14c.88.08,2.5,3.71,2,5.18-.5,1.47-2.88.44-3.69-.28,0,0-1.03.78-1.56-.47-.53-1.25.66-1.25,1.13-.66,0,0,1.63.5,1.48-2.03-.08-1.31.65-1.74.65-1.74Z"/>
        <path class="cls-4" d="M192.96,143.38c-.35.52.04,1.4-.74,1.71.46,3.24-3.63,1.47-4.31,2.69,0,0-1.04-.93.16-1.68,0,0-1.15-1.89.71-3.12,1.86-1.23,4.61-.24,4.18.4Z"/>
      </g>
    </g>
    <g>
      <g>
        <g>
          <path class="cls-4" d="M203.08,196.64c-.09.72-.24,1.55-.71,1.88-.47.33-1.05.61-.87,1.21h4.2v-3.1h-2.62Z"/>
          <g>
            <path class="cls-1" d="M198.87,171.95c.34,4.36,2.16,9.82,2.24,11.18.16,2.67-.82,3.16,1.04,9.77.93,3.33.93,3.74.93,3.74h1.55s.57-8.61,0-10.52c-.57-1.9.19-5.28.5-7.3.3-2.02.1-6.89.1-6.89l-2.31-1.34-4.05,1.36Z"/>
            <path class="cls-4" d="M203.08,196.64h1.55s.57-8.61,0-10.52c-.57-1.9.19-5.28.5-7.3.3-2.02.1-6.89.1-6.89l-2.31-1.34-4.05,1.36c.03.37.07.74.11,1.12,2,1.31,4.04,4.27,4.71,8.16.6,3.53-.32,11.68-.72,14.83.11.48.1.59.1.59Z"/>
          </g>
        </g>
        <g>
          <path class="cls-5" d="M204.63,196.62s-.57.79-.33,1.35c.23.56,1.72-1.37,1.72-1.37l-1.38.02Z"/>
          <path class="cls-1" d="M205.23,171.92c-.43,1.54-.67,7.33-.57,9.54s.34,3.01-.02,4.66c-.36,1.65,0,9.08,0,10.5,0,0,1.76.05,1.76,0s2.64-7.86,2.49-10.21c-.14-2.35-.28-3.29-.28-4.71s3.05-7.45,2.56-11.68l-.28-.98-5.66,2.89Z"/>
          <path class="cls-4" d="M204.89,174.34c1.37-1.43,4.98-3.32,6.31-3.99,0-.11-.02-.22-.03-.33l-.28-.98-5.66,2.89c-.13.47-.25,1.36-.34,2.41Z"/>
          <path class="cls-4" d="M204.63,196.62c-.28.34-.72.9-.87,1.66-.08.42-.21,1.45.47,1.45h4.05c.66,0,.42-.99.24-1.27s-.71-.36-1.13-.63c-.42-.26-.39-1.07-.99-1.21-.87-.19-1.29.68-1.67.67-.35-.01-.09-.67-.09-.67Z"/>
        </g>
      </g>
      <g>
        <path class="cls-1" d="M197.15,151.33c-.38,1.99,1.23,6.64,1.69,8.51,1.02,4.13-.68,5.75-.79,11.78,0,0,2.54,1.07,3.76.99,1.22-.09,1.48-1.12,1.48-1.12,0,0,.62,1.12,1.94.43,1.21-.63,3.52-1.73,5.94-1.91.35-.03.6-.36.52-.7-.28-1.21-.96-3.83-2.13-6.24,0,0,2.71-11.49,1.72-12.13-.99-.63-2.18-1.11-3.5-1.36-1.31-.25-7.14.42-7.14.42,0,0-1.15.4-2.18.67-1,.26-1.32.65-1.32.65Z"/>
        <path class="cls-4" d="M209.26,149.98c-.47-.16-.97-.3-1.48-.4-.4-.08-1.23-.07-2.19-.02l-1.82,9.89c.87-1.68,6.06-5.92,5.48-9.47Z"/>
        <path class="cls-11" d="M201.45,149.59s-.49.34-.8.42c-.32.08.64,5.5,3.13,9.45,0,0,3.9-6.33,4-9.87,0,0-.89-.08-1.31-.25l-5.02.25Z"/>
        <g>
          <path class="cls-5" d="M204.83,151.66c.58-.61,1.2-1.44,1.32-2.27,0,0-.16-1.76,0-3.17l-4.25,1.6v2.27c0,.41.46,1.03.93,1.56h2.01Z"/>
          <path class="cls-10" d="M201.89,147.83v1.51c.35.97,1.74.95,2.85.08.81-.63,1.04,1.12.48,1.79.44-.54.83-1.18.92-1.82,0,0-.16-1.76,0-3.17l-4.25,1.6Z"/>
          <path class="cls-4" d="M201.22,145.08c-.23-.32-.6-.49-.18-.89,0,0-.8-.94-.5-1.64.4-.93,1.55-.26,2.26-.95,1.04-1.03,2.91-1.23,3.15.79,0,0,1.23-.05,1.13,1.65s-.52,1.35-.65,2.2l-1.36-.13-3.83-1.01Z"/>
          <path class="cls-5" d="M201.26,143.51c-.28,2.93.56,5.5,1.92,5.5,1.14,0,1.86-1.31,2.15-2,.2-.48.35-.63.42-.57.16.15.39.3.66-.22.27-.52.31-1.36.07-1.44s-.61.44-.88.89-.26.13-.41.03c-.15-.09.25-.64.14-.77s-.35-.68-.09-1.21c0,0-.47.02-.63-.56,0,0-1.73.7-2.39.71-.66,0-.96-.38-.96-.38Z"/>
        </g>
        <path class="cls-16" d="M203.68,151.75c.36-.25,2.03-.58,2.43-2.89l-.02-.33s.15.03.28.37c.07.16.21.28.26.36.43.66-.16,3.45-1.49,4.07,0,0-.21-.69-.71-.94-.64-.32-.76-.29-.76-.29v-.34Z"/>
        <path class="cls-16" d="M203.68,151.75c-.3-.25-1.46-.61-1.79-2.93v-.25s-.12,0-.24.32c-.05.16-.17.28-.22.36-.36.66-.09,3.45,1.02,4.07,0,0,.17-.69.59-.94.54-.32.64-.29.64-.29v-.34Z"/>
        <g>
          <path class="cls-9" d="M204.05,151.48c.11-.02,1.34-.98,1.51-.77.17.21.12,1.9,0,2.04-.12.14-.57.06-1.5-.4,0,0-.18,0-.18-.43s.16-.43.16-.43Z"/>
          <path class="cls-18" d="M205.56,152.75s.04-.08.05-.17c-.03.17-.4.15-.87-.02-.48-.17-.55-.6-.39-.6s1.06.21,1.06-.07-.8,0-1.04,0-.32-.4-.17-.49h0c-.08.05-.13.08-.15.09,0,0-.16,0-.16.43s.18.43.18.43c.93.47,1.37.54,1.5.4Z"/>
          <path class="cls-18" d="M205.56,152.75s.04-.08.05-.17c-.03.17-.4.15-.87-.02-.48-.17-.55-.6-.39-.6s1.06.21,1.06-.07-.8,0-1.04,0-.32-.4-.17-.49h0c-.08.05-.13.08-.15.09,0,0-.16,0-.16.43s.18.43.18.43c.93.47,1.37.54,1.5.4Z"/>
          <g>
            <path class="cls-9" d="M203.42,151.48c-.11-.02-1.39-.98-1.56-.77-.17.21-.12,1.9,0,2.04.12.14.62.06,1.54-.4,0,0,.18,0,.18-.43s-.16-.43-.16-.43Z"/>
            <path class="cls-18" d="M201.86,152.75s-.04-.08-.05-.17c.03.17.4.15.87-.02.48-.17.55-.6.39-.6s-1.06.21-1.06-.07.8,0,1.04,0,.32-.43.17-.52l.06.04c.08.05.13.08.14.08,0,0,.16,0,.16.43s-.18.43-.18.43c-.93.47-1.42.54-1.54.4Z"/>
          </g>
          <path class="cls-9" d="M204.06,152.35c-.05.08-.23-.04-.56.03-.3.06-.3-1.01.05-.92.34.09.47-.08.5.03-.19.19-.09.85.01.86Z"/>
        </g>
        <path class="cls-1" d="M208.11,151.75s.38-.1.7-.19c.21-.88.2-1.52.12-1.69-.27-.54-2.04-.48-2.23-.75-.2-.27-.29-.18-.29-.18.06.12.24.31.24.31.14,1.96-.97,5.51-2.86,10.2,1.45-2.25,3.14-4.03,3.98-5.4.45-.74.75-1.45.93-2.08l-.58-.23Z"/>
        <path class="cls-4" d="M200.38,150.1c-.33.11-.93.31-1.54.48,0,2.92,3.53,7.18,4.74,8.55l-3.2-9.03Z"/>
        <path class="cls-1" d="M200,152.11s-.33-.09-.6-.17c-.2-.86-.2-1.5-.13-1.67.22-.55,1.76-.56,1.93-.84.17-.28.32-.3.32-.3-.13.15-.16.35-.16.35-.1,1.97.78,5.51,2.43,9.97-1.33-1.83-2.72-3.79-3.45-5.1-.4-.71-.66-1.39-.83-2l.5-.24Z"/>
      </g>
      <path class="cls-4" d="M209.95,153.32c-.02.1-.03.2-.05.31-.35,2.39-.32,4.37-.32,5.51s-.91,4.56-1.38,5.75c0,0,.53-.47,1.1-1.38,0,0,1.61,4.23,1.69,6.52h0c.06,0,.11,0,.17-.01.35-.03.6-.36.52-.7-.28-1.21-.96-3.83-2.13-6.24,0,0,1.23-5.22,1.73-8.81l-1.34-.94Z"/>
      <g>
        <path class="cls-1" d="M211.28,150.95c1.99,1.43,2.79,9.01,3.21,10.13,1.26,3.37,1.23,3.92.97,8.54h-2.5s-.63-1.84-.8-4.12c-.14-1.86-.24-2.91-.83-4.57-.33-.92-1.12-2.93-1.41-4.74-.29-1.8.23-6.05,1.36-5.24Z"/>
        <path class="cls-5" d="M213.34,170.59c0,.27-.43.91-.38,1.57.05.67.31.79.31,1.26s.03.85.08,1.02c0,0-.35-.02-.39.17s.19.29.19.29c0,0-.28.2-.2.38.09.18.65.12,1,.09.35-.03.94-.47,1.09-.61.15-.14.33-1.02.49-1.4.15-.38-.42-1.79-.42-2.77h-1.76Z"/>
        <polygon class="cls-16" points="212.96 169.61 213.14 170.59 215.1 170.59 215.1 169.61 212.96 169.61"/>
      </g>
    </g>
    <path class="cls-5" d="M189.13,164.14l.02-.15c.42-.04.32-.4.18-.4-.15,0-.21-.09-.36-.2-.15-.12-.56-.18-.62.2-.03.19.18.34-.2.66-.2.17-.43.25-.35.96.05.37.07.85.17,1.1.1.25.95.03,1.24-.3,0,0,.14-.19-.18-.29,0,0,.41.02.32-.49-.07-.35.34-.81.2-.99-.15-.18-.41-.11-.41-.11Z"/>
  </g>
  <g>
    <g>
      <g>
        <path class="cls-8" d="M335.97,147.4c0,.64,0,1.34,0,1.34l-.17-.81-.24,2.44s-.19-1.94-.29-2.97h-1.62l-.04.52-.05-.52h-.02c-.02.42-.09,1.66-.1,1.73,0,.04-.11-.82-.2-1.73h-.51v53.74h3.64v-53.74h-.4Z"/>
        <path class="cls-12" d="M334.13,147.4c0,.64,0,1.34,0,1.34l-.07-.81-.1,2.44s-.08-1.94-.13-2.97h-.7l-.02.52-.02-.52h0c0,.42-.04,1.66-.04,1.73,0,.04-.05-.82-.09-1.73h-.22v53.74h1.57v-53.74h-.17Z"/>
        <polygon class="cls-12" points="332.73 177.88 332.73 178.92 336.41 177.88 332.73 177.88"/>
      </g>
      <g>
        <path class="cls-6" d="M342.47,172.22l2.51-.31s-6.44-1.18-6.5-1.04c-.72,1.7,8.68.96,11.87.93v-13.88l-8.73-.51,8.73-.31v-.12l-7.23-.54,7.23-.38v-3.98h-31.61v2.03c1.62.1,4.18.29,4.18.29l-2.33.63,8.72.63s-7.19.43-10.57.58v20.34h8.96l-2.53.75,6.56.53h18.63v-5.66h-7.88Z"/>
        <path class="cls-6" d="M342.47,172.22l2.51-.31s-6.44-1.18-6.5-1.04c-.72,1.7,8.68.96,11.87.93v-13.88l-8.73-.51,8.73-.31v-.12l-7.23-.54,7.23-.38v-3.98h-31.61v2.03c1.62.1,4.18.29,4.18.29l-2.33.63,8.72.63s-7.19.43-10.57.58v20.34h8.96l-2.53.75,6.56.53h18.63v-5.66h-7.88Z"/>
        <g class="cls-23">
          <g class="cls-27">
            <g>
              <g>
                <path class="cls-12" d="M324.2,154.33c0-.22-.19-.4-.41-.39-.22,0-.4.19-.39.41,0,.22.19.4.41.39.22,0,.4-.19.39-.41Z"/>
                <path class="cls-12" d="M323.82,152.87c.09,0,.16-.08.16-.17s-.08-.16-.17-.16c-.09,0-.16.08-.16.17,0,.09.08.16.17.16Z"/>
                <path class="cls-12" d="M324.99,151.93c0,.06.01.11.04.16-.02.04-.03.09-.03.13,0,.16.13.29.29.28.15,0,.26-.11.28-.25.11-.07.19-.19.19-.33,0-.21-.18-.38-.39-.38-.21,0-.38.18-.38.39Z"/>
                <path class="cls-12" d="M326.28,153.16s0,0,0,0c0-.14-.12-.24-.26-.24-.14,0-.25.12-.25.26,0,.11.07.2.17.23-.01.04-.02.08-.02.12,0,.2.17.36.37.36.2,0,.36-.17.36-.37,0-.2-.17-.36-.37-.36Z"/>
                <path class="cls-12" d="M325.95,155.63c-.16,0-.29.14-.29.3,0,.16.14.29.3.29.16,0,.29-.14.29-.3s-.14-.29-.3-.29Z"/>
                <path class="cls-12" d="M325,152.51c0-.19-.16-.35-.36-.35-.19,0-.35.16-.35.36,0,.19.16.35.36.35.19,0,.35-.16.35-.36Z"/>
                <path class="cls-12" d="M328.54,150.97c.34,0,.6-.28.6-.62,0-.34-.28-.6-.62-.6-.34,0-.6.28-.6.62,0,.34.28.6.62.6Z"/>
                <path class="cls-12" d="M331.25,151.06c-.11,0-.19.09-.19.19,0,.11.09.19.19.19s.19-.09.19-.19c0-.11-.09-.19-.19-.19Z"/>
                <path class="cls-12" d="M328.17,152.99c.24,0,.44-.21.44-.45,0-.24-.21-.44-.45-.44-.24,0-.44.21-.44.45,0,.24.21.44.45.44Z"/>
                <path class="cls-12" d="M328.96,154.33c0-.27-.23-.48-.49-.48-.27,0-.48.23-.48.49,0,.27.23.48.49.48.27,0,.48-.23.48-.49Z"/>
                <path class="cls-12" d="M324.68,156.73c-.15,0-.27.13-.26.27,0,.15.13.27.27.26.15,0,.27-.13.26-.27,0-.15-.13-.27-.27-.26Z"/>
                <path class="cls-12" d="M327.07,155.31c-.1,0-.17.08-.17.18,0,.1.08.17.18.17.1,0,.17-.08.17-.18,0-.1-.08-.17-.18-.17Z"/>
                <path class="cls-12" d="M328.95,156.17c-.16,0-.28.13-.28.29,0,.16.13.28.29.28.16,0,.28-.13.28-.29s-.13-.28-.29-.28Z"/>
                <path class="cls-12" d="M330.79,154.94c-.08,0-.15.07-.15.15,0,.08.07.15.15.15.08,0,.15-.07.15-.15,0-.08-.07-.15-.15-.15Z"/>
                <path class="cls-12" d="M330.86,153.81c-.13,0-.24.11-.24.25,0,.13.11.24.25.24.13,0,.24-.11.24-.25,0-.13-.11-.24-.25-.24Z"/>
                <path class="cls-12" d="M330.9,152.45c0-.13-.11-.24-.24-.23-.13,0-.24.11-.23.24,0,.13.11.24.24.23.13,0,.24-.11.23-.24Z"/>
                <path class="cls-12" d="M319.57,149.07c.06,0,.11-.05.11-.11,0-.06-.05-.11-.11-.11-.06,0-.11.05-.11.11,0,.06.05.11.11.11Z"/>
                <path class="cls-12" d="M318.3,150.81c0-.09-.07-.15-.16-.15-.09,0-.15.07-.15.16,0,.09.07.15.16.15.09,0,.15-.07.15-.16Z"/>
                <path class="cls-12" d="M323.32,156.53s-.09.01-.13.03c.04-.07.06-.15.05-.24,0-.02,0-.04,0-.06.03,0,.05.01.08.01.16,0,.29-.14.29-.3,0-.16-.14-.29-.3-.29-.14,0-.25.1-.28.23-.09-.06-.2-.1-.31-.1-.1,0-.2.03-.28.09.06-.1.09-.22.09-.35,0-.05,0-.1-.02-.14.2-.04.35-.22.34-.43,0-.03,0-.05,0-.07.23-.06.4-.27.4-.53,0-.3-.25-.53-.55-.53-.02,0-.03,0-.05,0,.07-.07.12-.16.11-.27,0-.15-.1-.28-.23-.33.01-.05.02-.09.02-.14,0-.02,0-.03,0-.05.13-.04.22-.16.21-.29,0-.12-.08-.23-.18-.27.02-.01.04-.03.06-.05.06.02.13.04.2.04.11,0,.2-.04.28-.09.06.04.14.07.22.07.21,0,.38-.18.38-.39,0-.21-.18-.38-.39-.38-.03,0-.06,0-.08.01-.09-.14-.25-.22-.43-.22-.03,0-.07,0-.1.01,0,0,0,0,0,0,0-.23-.19-.41-.42-.4-.15,0-.27.08-.34.2-.07-.04-.14-.06-.22-.06-.03,0-.06,0-.09.01.03-.06.06-.12.08-.18.05.02.1.03.16.03.22,0,.39-.18.39-.4,0-.22-.18-.39-.4-.39-.08,0-.14.02-.2.06-.05-.1-.12-.18-.21-.26.02-.02.03-.04.04-.05.07.15.22.25.39.25.23,0,.42-.2.41-.43,0-.23-.2-.42-.43-.41-.01,0-.03,0-.04,0,.02-.06.03-.12.04-.18.07-.1.11-.23.11-.36,0-.34-.28-.61-.62-.6-.28,0-.52.2-.58.46-.11.11-.18.26-.19.42-.14.12-.23.3-.22.49,0,.11.04.22.09.31-.14.08-.25.19-.33.33-.03-.32-.24-.58-.54-.67-.09-.11-.23-.17-.38-.17-.28,0-.5.23-.49.51-.07.12-.11.26-.11.41,0,.27.14.5.35.63-.07.06-.13.15-.17.24-.02,0-.03,0-.05,0-.27,0-.49.23-.49.5,0,.27.23.49.5.49.05,0,.11-.01.15-.03.11.11.26.18.42.18.07,0,.15-.02.21-.05-.02.05-.02.1-.03.15-.1-.06-.22-.1-.34-.1-.34,0-.6.28-.6.62,0,.05.01.1.02.15-.01.05-.02.11-.02.16,0,.03,0,.07,0,.1-.15.12-.24.31-.24.52,0,.35.28.62.61.65-.02.05-.03.11-.03.17,0,.1.03.19.08.27-.05-.01-.1-.02-.15-.02-.08,0-.16.02-.23.05.03-.05.04-.11.04-.18,0-.22-.18-.39-.4-.39-.22,0-.39.18-.39.4,0,.22.18.39.4.39.02,0,.04,0,.07,0,0,0,0,0,0,0-.08.11-.13.25-.13.4,0,.36.3.65.67.64.23,0,.43-.13.55-.31.03.03.05.06.09.08-.12.08-.19.21-.19.37,0,.09.03.17.08.24-.02.04-.04.09-.05.14-.12-.14-.29-.23-.49-.23-.35,0-.62.29-.61.64,0,.35.29.62.64.61.26,0,.47-.16.57-.38.14.22.39.37.68.36.44,0,.78-.37.78-.8,0-.08-.01-.15-.04-.22.01,0,.02,0,.03,0,.14,0,.26-.12.26-.27,0,0,0,0,0-.01.16-.04.29-.15.34-.3.04.03.1.05.16.05.06,0,.11-.02.16-.05.01,0,.02,0,.03,0,.15,0,.29-.06.4-.14-.03.06-.04.12-.05.19-.29.02-.53.26-.53.56-.06-.02-.11-.03-.17-.03-.32,0-.58.27-.58.6,0,.32.27.58.6.58.25,0,.45-.16.54-.38.09.12.24.2.4.2.28,0,.5-.23.5-.51,0-.14-.06-.26-.15-.35,0-.03,0-.07,0-.1,0,0,0,0,0,0,.06,0,.11-.03.16-.06-.01.04-.02.09-.02.13,0,.21.18.38.39.38.21,0,.38-.18.38-.39,0-.21-.18-.38-.39-.38ZM319.47,155.4s-.05-.08-.08-.12c.02,0,.05,0,.07,0,.18,0,.33-.1.42-.23.02.13.09.24.2.31-.01,0-.02.01-.03.02-.08-.06-.18-.1-.29-.1-.11,0-.22.05-.3.12ZM319.98,154.75c0-.23-.17-.43-.39-.48.03-.05.05-.11.06-.17.08.12.18.21.31.27,0,0,0,0,0,.01,0,.11.03.21.07.31-.02.02-.04.04-.06.06ZM320.34,152.91s0,.02.01.03c-.01,0-.03,0-.04,0,.01,0,.02-.02.03-.03ZM320.91,153.26s0,0,0,0c.02,0,.03,0,.05,0,0,0,0,0,0,0h0s-.03,0-.05,0c0,0,0,0,0,0ZM322.18,152.66s-.07-.01-.11-.01c0,0,0,0,0,0,.03-.05.06-.11.08-.17.04.03.08.05.12.07-.04.03-.07.07-.09.11ZM322.11,151.95s0-.02,0-.02c.01-.02.02-.04.03-.06.02,0,.03.01.05.02-.03.02-.06.04-.09.06ZM321.17,151.9c-.03-.06-.08-.11-.13-.15.09-.04.17-.1.23-.18.02,0,.03-.02.05-.02-.01.04-.02.08-.02.13,0,.04,0,.08.02.12-.06.03-.11.06-.15.1ZM319.81,153.1s-.02-.04-.02-.05c0-.01,0-.03,0-.04,0-.02,0-.03,0-.05.05.03.1.04.16.05-.05.02-.09.05-.13.09ZM322.16,154.4c0,.08.02.15.05.21-.11.06-.19.16-.21.28-.06-.01-.12-.02-.18-.02-.21,0-.39.1-.51.24-.03-.03-.06-.05-.09-.07,0-.03-.01-.05-.02-.07.03,0,.05,0,.08,0,.3,0,.55-.26.54-.56,0-.16-.07-.3-.18-.4,0-.04,0-.07,0-.11,0,0,0,0,0,0,.17-.01.31-.09.42-.21.04.14.17.25.33.25-.14.1-.22.26-.22.44ZM320.35,151.47c-.05.05-.08.12-.08.2,0,.08.04.15.09.2-.04.07-.07.14-.08.23-.08-.05-.18-.08-.28-.08-.06,0-.11.01-.16.03.02-.05.03-.11.04-.18.07-.1.11-.23.11-.37,0-.07-.01-.14-.04-.2.06-.04.1-.1.13-.16.06.13.15.24.26.32Z"/>
                <path class="cls-12" d="M323.44,155.4c.16,0,.29-.13.28-.29,0-.16-.13-.29-.29-.28-.16,0-.29.13-.28.29,0,.16.13.29.29.28Z"/>
                <path class="cls-12" d="M323.11,153.38c0,.17.14.3.31.3.17,0,.3-.14.3-.31,0-.17-.14-.3-.31-.3-.17,0-.3.14-.3.31Z"/>
                <path class="cls-12" d="M322.55,150.83c0,.13.11.24.25.24.13,0,.24-.11.24-.25,0-.13-.11-.24-.25-.24-.13,0-.24.11-.24.25Z"/>
                <path class="cls-12" d="M323.18,149.56s.09-.01.14-.03c0,0,0,0,0,0,0,.3.25.53.55.53.3,0,.53-.25.53-.55,0-.17-.08-.31-.21-.41.06-.09.09-.19.09-.31,0-.3-.25-.54-.56-.54-.3,0-.54.25-.54.56,0,0,0,0,0,0,0,0,0,0-.01,0-.2,0-.37.17-.36.38,0,.2.17.37.38.36Z"/>
                <path class="cls-12" d="M324.71,150.79c.25,0,.44-.21.44-.45,0-.25-.21-.44-.45-.44s-.44.21-.44.45.21.44.45.44Z"/>
                <path class="cls-12" d="M324.89,155.52c0-.24-.2-.43-.44-.42-.24,0-.43.2-.42.44,0,.24.2.43.44.42.24,0,.43-.2.42-.44Z"/>
                <path class="cls-12" d="M325.54,156.75c-.32,0-.58.27-.58.6,0,.32.27.58.6.58.32,0,.58-.27.58-.6,0-.32-.27-.58-.6-.58Z"/>
                <path class="cls-12" d="M325.62,154.28s.01-.05.01-.08c0-.17-.14-.3-.3-.29s-.3.14-.29.3c0,.06.02.12.06.17-.03.06-.05.12-.05.19,0,.2.17.36.37.36s.36-.17.36-.37c0-.12-.06-.22-.15-.28Z"/>
                <path class="cls-12" d="M324.76,153.25c0-.21-.18-.38-.39-.38-.21,0-.38.18-.38.39,0,.21.18.38.39.38.21,0,.38-.18.38-.39Z"/>
                <path class="cls-12" d="M323.8,151.38s.06,0,.09-.01c-.04.07-.07.14-.07.23,0,.23.19.41.42.4.23,0,.41-.19.4-.42,0-.23-.19-.41-.42-.4-.03,0-.06,0-.08.01.04-.07.07-.15.07-.23.04-.07.07-.16.07-.25,0-.26-.22-.46-.47-.46-.26,0-.46.22-.46.47,0,.07.02.13.04.18,0,.02,0,.04,0,.06,0,.23.19.41.42.41Z"/>
                <path class="cls-12" d="M325.12,149.45c.16,0,.29-.14.29-.3,0-.16-.14-.29-.3-.29-.16,0-.29.14-.29.3,0,.16.14.29.3.29Z"/>
                <path class="cls-12" d="M325.96,151.43c.21,0,.38-.18.37-.39,0-.08-.03-.16-.07-.22.13-.04.23-.16.23-.3,0-.17-.14-.31-.31-.3-.17,0-.31.14-.3.31,0,.05.02.1.04.14-.19.02-.34.18-.33.38,0,.21.18.38.39.37Z"/>
                <path class="cls-12" d="M326.91,152.38c.15,0,.28-.13.27-.28,0-.15-.13-.28-.28-.27-.15,0-.28.13-.27.28s.13.28.28.27Z"/>
                <path class="cls-12" d="M327.59,151.4c.08,0,.14-.06.14-.14,0-.08-.06-.14-.14-.14-.08,0-.14.06-.14.14,0,.08.06.14.14.14Z"/>
                <path class="cls-12" d="M329.55,150.95c.07,0,.12-.06.12-.12,0-.07-.06-.12-.12-.12s-.12.06-.12.12c0,.07.06.12.12.12Z"/>
                <path class="cls-12" d="M331.85,152.29c-.21,0-.38.18-.38.39,0,.21.18.38.39.38.21,0,.38-.18.38-.39,0-.21-.18-.38-.39-.38Z"/>
                <path class="cls-12" d="M334.68,152.27c-.07,0-.12.06-.12.13,0,.07.06.12.13.12.07,0,.12-.06.12-.13,0-.07-.06-.12-.13-.12Z"/>
                <path class="cls-12" d="M333.88,154.79c-.12,0-.21.1-.21.22,0,.12.1.21.22.21.12,0,.21-.1.21-.22,0-.12-.1-.21-.22-.21Z"/>
                <path class="cls-12" d="M332.82,156.59c-.07,0-.13.06-.13.14,0,.07.06.13.14.13.07,0,.13-.06.13-.14,0-.07-.06-.13-.14-.13Z"/>
                <path class="cls-12" d="M333.12,153.77c-.12,0-.21.1-.21.22,0,.12.1.21.22.21.12,0,.21-.1.21-.22,0-.12-.1-.21-.22-.21Z"/>
                <path class="cls-12" d="M336.18,152.75c-.08,0-.15.07-.15.16,0,.08.07.15.16.15.08,0,.15-.07.15-.16,0-.08-.07-.15-.16-.15Z"/>
                <path class="cls-12" d="M335.72,149.87c-.2,0-.36.17-.36.37,0,.2.17.36.37.36.2,0,.36-.17.36-.37,0-.2-.17-.36-.37-.36Z"/>
                <path class="cls-12" d="M332.91,149.68c-.12,0-.21.1-.21.21,0,.12.1.21.21.21.12,0,.21-.1.21-.21,0-.12-.1-.21-.21-.21Z"/>
                <path class="cls-12" d="M331.27,149.34c.13,0,.23-.11.23-.24,0-.13-.11-.23-.24-.23-.13,0-.23.11-.23.24s.11.23.24.23Z"/>
                <path class="cls-12" d="M329.63,152.05c-.1,0-.19.09-.19.19,0,.1.09.19.19.19.1,0,.19-.09.19-.19,0-.1-.09-.19-.19-.19Z"/>
                <path class="cls-12" d="M329.93,149.13c-.09,0-.16.07-.16.16,0,.09.07.16.16.16.09,0,.16-.07.16-.16,0-.09-.07-.16-.16-.16Z"/>
                <path class="cls-12" d="M324.54,154.52c.15,0,.26-.12.26-.27,0-.15-.12-.26-.27-.26-.15,0-.26.12-.26.27,0,.15.12.26.27.26Z"/>
                <path class="cls-12" d="M325.32,153.6s-.03-.06-.06-.06c-.03,0-.06.03-.06.06,0,.03.03.06.06.06s.06-.03.06-.06Z"/>
                <path class="cls-12" d="M326.39,152.3c-.07,0-.12.06-.12.13,0,.07.06.12.13.12.07,0,.13-.06.12-.13,0-.07-.06-.12-.13-.12Z"/>
                <path class="cls-12" d="M327.71,153.25c0-.14-.12-.25-.26-.25-.14,0-.25.12-.25.26,0,.14.12.25.26.25.14,0,.25-.12.25-.26Z"/>
                <path class="cls-12" d="M326.94,154.2c0,.06.05.11.11.11s.11-.05.11-.11c0-.06-.05-.11-.11-.11-.06,0-.11.05-.11.11Z"/>
                <path class="cls-12" d="M326.27,154.78s-.04-.09-.09-.09c-.05,0-.09.04-.09.09,0,.05.04.09.09.09.05,0,.09-.04.09-.09Z"/>
                <path class="cls-12" d="M327.51,154.94c0,.05.05.1.1.1.05,0,.1-.05.1-.1,0-.05-.05-.1-.1-.1-.05,0-.1.05-.1.1Z"/>
                <path class="cls-12" d="M327.62,155.65c-.05,0-.09.04-.09.1,0,.05.04.09.1.09.05,0,.09-.04.09-.1,0-.05-.04-.09-.1-.09Z"/>
                <path class="cls-12" d="M326.76,156.35c-.06,0-.12.05-.12.12,0,.06.05.12.12.12.06,0,.12-.05.12-.12,0-.06-.05-.12-.12-.12Z"/>
                <path class="cls-12" d="M325.13,156.3c0,.15.13.27.27.26.15,0,.27-.13.26-.27,0-.15-.13-.27-.27-.26-.15,0-.27.13-.26.27Z"/>
                <path class="cls-12" d="M327.47,156.53c-.05,0-.1.05-.1.1,0,.05.05.1.1.1.05,0,.1-.05.1-.1,0-.05-.05-.1-.1-.1Z"/>
                <path class="cls-12" d="M328.53,155.31c-.07,0-.12.06-.12.12,0,.07.06.12.12.12.07,0,.12-.06.12-.12,0-.07-.06-.12-.12-.12Z"/>
                <path class="cls-12" d="M329.55,154.74s-.06.03-.06.06c0,.03.03.06.06.06.03,0,.06-.03.06-.06,0-.03-.03-.06-.06-.06Z"/>
                <path class="cls-12" d="M329.41,153.27c-.08,0-.15.07-.15.15,0,.08.07.15.15.15.08,0,.15-.07.15-.15,0-.08-.07-.15-.15-.15Z"/>
                <path class="cls-12" d="M328.72,151.64c0,.08.07.15.15.15.08,0,.15-.07.15-.15,0-.08-.07-.15-.15-.15-.08,0-.15.07-.15.15Z"/>
                <path class="cls-12" d="M327.25,150.49c.08,0,.15-.07.14-.15,0-.08-.07-.15-.15-.14-.08,0-.15.07-.14.15,0,.08.07.15.15.14Z"/>
                <path class="cls-12" d="M327.84,149.56c.12,0,.22-.1.22-.23,0-.12-.1-.22-.23-.22-.12,0-.22.1-.22.23,0,.12.1.22.23.22Z"/>
                <path class="cls-12" d="M328.77,149.09s.09-.04.09-.09c0-.05-.04-.09-.09-.09-.05,0-.09.04-.09.09,0,.05.04.09.09.09Z"/>
                <path class="cls-12" d="M330.65,150.07c0-.08-.06-.13-.14-.13-.08,0-.13.06-.13.14,0,.08.06.13.14.13.08,0,.13-.06.13-.14Z"/>
                <path class="cls-12" d="M330.67,151.21c.11,0,.2-.09.19-.2,0-.11-.09-.2-.2-.19-.11,0-.2.09-.19.2,0,.11.09.2.2.19Z"/>
                <path class="cls-12" d="M325.61,149.75s.08-.04.07-.08c0-.04-.04-.08-.08-.07s-.08.04-.07.08c0,.04.04.08.08.07Z"/>
                <path class="cls-12" d="M326.2,149.05s.04,0,.06,0c-.03.04-.06.1-.05.15,0,.13.11.23.24.23.13,0,.23-.11.23-.24,0-.13-.11-.23-.24-.23,0,0,0,0,0,0,.07-.07.12-.16.12-.27,0-.2-.17-.35-.36-.35-.2,0-.35.17-.35.36,0,.2.17.35.36.35Z"/>
                <path class="cls-12" d="M322.72,150.09c.1,0,.18-.09.18-.19,0-.1-.09-.18-.19-.18-.1,0-.18.09-.18.19,0,.1.09.18.19.18Z"/>
              </g>
              <g>
                <path class="cls-12" d="M324.2,162.23c0-.22-.19-.4-.41-.39-.22,0-.4.19-.39.41,0,.22.19.4.41.39.22,0,.4-.19.39-.41Z"/>
                <path class="cls-12" d="M323.82,160.78c.09,0,.16-.08.16-.17s-.08-.16-.17-.16c-.09,0-.16.08-.16.17,0,.09.08.16.17.16Z"/>
                <path class="cls-12" d="M324.99,159.83c0,.06.01.11.04.16-.02.04-.03.09-.03.13,0,.16.13.29.29.28.15,0,.26-.11.28-.25.11-.07.19-.19.19-.33,0-.21-.18-.38-.39-.38-.21,0-.38.18-.38.39Z"/>
                <path class="cls-12" d="M326.28,161.06s0,0,0,0c0-.14-.12-.24-.26-.24-.14,0-.25.12-.25.26,0,.11.07.2.17.23-.01.04-.02.08-.02.12,0,.2.17.36.37.36.2,0,.36-.17.36-.37,0-.2-.17-.36-.37-.36Z"/>
                <path class="cls-12" d="M325.95,163.54c-.16,0-.29.14-.29.3,0,.16.14.29.3.29.16,0,.29-.14.29-.3s-.14-.29-.3-.29Z"/>
                <path class="cls-12" d="M325,160.41c0-.19-.16-.35-.36-.35-.19,0-.35.16-.35.36,0,.19.16.35.36.35.19,0,.35-.16.35-.36Z"/>
                <path class="cls-12" d="M328.54,158.87c.34,0,.6-.28.6-.62,0-.34-.28-.6-.62-.6-.34,0-.6.28-.6.62,0,.34.28.6.62.6Z"/>
                <path class="cls-12" d="M331.25,158.96c-.11,0-.19.09-.19.19,0,.11.09.19.19.19.11,0,.19-.09.19-.19,0-.11-.09-.19-.19-.19Z"/>
                <path class="cls-12" d="M328.17,160.89c.24,0,.44-.21.44-.45,0-.24-.21-.44-.45-.44s-.44.21-.44.45c0,.24.21.44.45.44Z"/>
                <path class="cls-12" d="M328.96,162.23c0-.27-.23-.48-.49-.48-.27,0-.48.23-.48.49s.23.48.49.48c.27,0,.48-.23.48-.49Z"/>
                <path class="cls-12" d="M324.68,164.64c-.15,0-.27.13-.26.27,0,.15.13.27.27.26.15,0,.27-.13.26-.27,0-.15-.13-.27-.27-.26Z"/>
                <path class="cls-12" d="M327.07,163.21c-.1,0-.17.08-.17.18,0,.1.08.17.18.17.1,0,.17-.08.17-.18,0-.1-.08-.17-.18-.17Z"/>
                <path class="cls-12" d="M328.95,164.08c-.16,0-.28.13-.28.29,0,.16.13.28.29.28.16,0,.28-.13.28-.29,0-.16-.13-.28-.29-.28Z"/>
                <path class="cls-12" d="M330.79,162.85c-.08,0-.15.07-.15.15,0,.08.07.15.15.15.08,0,.15-.07.15-.15,0-.08-.07-.15-.15-.15Z"/>
                <path class="cls-12" d="M330.86,161.71c-.13,0-.24.11-.24.25,0,.13.11.24.25.24.13,0,.24-.11.24-.25,0-.13-.11-.24-.25-.24Z"/>
                <path class="cls-12" d="M330.9,160.35c0-.13-.11-.24-.24-.23-.13,0-.24.11-.23.24,0,.13.11.24.24.23.13,0,.24-.11.23-.24Z"/>
                <path class="cls-12" d="M319.57,156.97c.06,0,.11-.05.11-.11,0-.06-.05-.11-.11-.11-.06,0-.11.05-.11.11,0,.06.05.11.11.11Z"/>
                <path class="cls-12" d="M318.3,158.72c0-.09-.07-.15-.16-.15-.09,0-.15.07-.15.16,0,.09.07.15.16.15.09,0,.15-.07.15-.16Z"/>
                <path class="cls-12" d="M323.32,164.43s-.09.01-.13.03c.04-.07.06-.15.05-.24,0-.02,0-.04,0-.06.03,0,.05.01.08.01.16,0,.29-.14.29-.3,0-.16-.14-.29-.3-.29-.14,0-.25.1-.28.23-.09-.06-.2-.1-.31-.1-.1,0-.2.03-.28.09.06-.1.09-.22.09-.35,0-.05,0-.1-.02-.14.2-.04.35-.22.34-.43,0-.03,0-.05,0-.07.23-.06.4-.27.4-.53,0-.3-.25-.53-.55-.53-.02,0-.03,0-.05,0,.07-.07.12-.16.11-.27,0-.15-.1-.28-.23-.33.01-.05.02-.09.02-.14,0-.02,0-.03,0-.05.13-.04.22-.16.21-.29,0-.12-.08-.23-.18-.27.02-.01.04-.03.06-.05.06.02.13.04.2.04.11,0,.2-.04.28-.09.06.04.14.07.22.07.21,0,.38-.18.38-.39,0-.21-.18-.38-.39-.38-.03,0-.06,0-.08.01-.09-.14-.25-.22-.43-.22-.03,0-.07,0-.1.01,0,0,0,0,0,0,0-.23-.19-.41-.42-.4-.15,0-.27.08-.34.2-.07-.04-.14-.06-.22-.06-.03,0-.06,0-.09.01.03-.06.06-.12.08-.18.05.02.1.03.16.03.22,0,.39-.18.39-.4,0-.22-.18-.39-.4-.39-.08,0-.14.02-.2.06-.05-.1-.12-.18-.21-.26.02-.02.03-.04.04-.05.07.15.22.25.39.25.23,0,.42-.2.41-.43,0-.23-.2-.42-.43-.41-.01,0-.03,0-.04,0,.02-.06.03-.12.04-.18.07-.1.11-.23.11-.36,0-.34-.28-.61-.62-.6-.28,0-.52.2-.58.46-.11.11-.18.26-.19.42-.14.12-.23.3-.22.49,0,.11.04.22.09.31-.14.08-.25.19-.33.33-.03-.32-.24-.58-.54-.67-.09-.11-.23-.17-.38-.17-.28,0-.5.23-.49.51-.07.12-.11.26-.11.41,0,.27.14.5.35.63-.07.06-.13.15-.17.24-.02,0-.03,0-.05,0-.27,0-.49.23-.49.5,0,.27.23.49.5.49.05,0,.11-.01.15-.03.11.11.26.18.42.18.07,0,.15-.02.21-.05-.02.05-.02.1-.03.15-.1-.06-.22-.1-.34-.1-.34,0-.6.28-.6.62,0,.05.01.1.02.15-.01.05-.02.11-.02.16,0,.03,0,.07,0,.1-.15.12-.24.31-.24.52,0,.35.28.62.61.65-.02.05-.03.11-.03.17,0,.1.03.19.08.27-.05-.01-.1-.02-.15-.02-.08,0-.16.02-.23.05.03-.05.04-.11.04-.18,0-.22-.18-.39-.4-.39-.22,0-.39.18-.39.4,0,.22.18.39.4.39.02,0,.04,0,.07,0,0,0,0,0,0,0-.08.11-.13.25-.13.4,0,.36.3.65.67.64.23,0,.43-.13.55-.31.03.03.05.06.09.08-.12.08-.19.21-.19.37,0,.09.03.17.08.24-.02.04-.04.09-.05.14-.12-.14-.29-.23-.49-.23-.35,0-.62.29-.61.64,0,.35.29.62.64.61.26,0,.47-.16.57-.38.14.22.39.37.68.36.44,0,.78-.37.78-.8,0-.08-.01-.15-.04-.22.01,0,.02,0,.03,0,.14,0,.26-.12.26-.27,0,0,0,0,0-.01.16-.04.29-.15.34-.3.04.03.1.05.16.05.06,0,.11-.02.16-.05.01,0,.02,0,.03,0,.15,0,.29-.06.4-.14-.03.06-.04.12-.05.19-.29.02-.53.26-.53.56-.06-.02-.11-.03-.17-.03-.32,0-.58.27-.58.6,0,.32.27.58.6.58.25,0,.45-.16.54-.38.09.12.24.2.4.2.28,0,.5-.23.5-.51,0-.14-.06-.26-.15-.35,0-.03,0-.07,0-.1,0,0,0,0,0,0,.06,0,.11-.03.16-.06-.01.04-.02.09-.02.13,0,.21.18.38.39.38.21,0,.38-.18.38-.39,0-.21-.18-.38-.39-.38ZM319.47,163.31s-.05-.08-.08-.12c.02,0,.05,0,.07,0,.18,0,.33-.09.42-.23.02.13.09.24.2.31-.01,0-.02.01-.03.02-.08-.06-.18-.1-.29-.1-.11,0-.22.05-.3.12ZM319.98,162.66c0-.23-.17-.43-.39-.48.03-.05.05-.11.06-.17.08.12.18.21.31.27,0,0,0,0,0,.01,0,.11.03.21.07.31-.02.02-.04.04-.06.06ZM320.34,160.81s0,.02.01.03c-.01,0-.03,0-.04,0,.01,0,.02-.02.03-.03ZM320.91,161.16s0,0,0,0c.02,0,.03,0,.05,0,0,0,0,0,0,0h0s-.03,0-.05,0c0,0,0,0,0,0ZM322.18,160.57s-.07-.01-.11-.01c0,0,0,0,0,0,.03-.05.06-.11.08-.17.04.03.08.05.12.07-.04.03-.07.07-.09.11ZM322.11,159.85s0-.02,0-.02c.01-.02.02-.04.03-.06.02,0,.03.01.05.02-.03.02-.06.04-.09.06ZM321.17,159.8c-.03-.06-.08-.11-.13-.15.09-.04.17-.1.23-.18.02,0,.03-.02.05-.02-.01.04-.02.08-.02.13,0,.04,0,.08.02.12-.06.03-.11.06-.15.1ZM319.81,161.01s-.02-.04-.02-.05c0-.01,0-.03,0-.04,0-.02,0-.03,0-.05.05.03.1.04.16.05-.05.02-.09.05-.13.09ZM322.16,162.3c0,.08.02.15.05.21-.11.06-.19.16-.21.28-.06-.01-.12-.02-.18-.02-.21,0-.39.1-.51.24-.03-.03-.06-.05-.09-.07,0-.03-.01-.05-.02-.07.03,0,.05,0,.08,0,.3,0,.55-.26.54-.56,0-.16-.07-.3-.18-.4,0-.04,0-.07,0-.11,0,0,0,0,0,0,.17-.01.31-.09.42-.21.04.14.17.25.33.25-.14.1-.22.26-.22.44ZM320.35,159.37c-.05.05-.08.12-.08.2,0,.08.04.15.09.2-.04.07-.07.14-.08.23-.08-.05-.18-.08-.28-.08-.06,0-.11.01-.16.03.02-.05.03-.11.04-.18.07-.1.11-.23.11-.37,0-.07-.01-.14-.04-.2.06-.04.1-.1.13-.16.06.13.15.24.26.32Z"/>
                <path class="cls-12" d="M323.44,163.3c.16,0,.29-.13.28-.29,0-.16-.13-.29-.29-.28-.16,0-.29.13-.28.29,0,.16.13.29.29.28Z"/>
                <path class="cls-12" d="M323.11,161.28c0,.17.14.3.31.3.17,0,.3-.14.3-.31,0-.17-.14-.3-.31-.3-.17,0-.3.14-.3.31Z"/>
                <path class="cls-12" d="M322.55,158.73c0,.13.11.24.25.24.13,0,.24-.11.24-.25,0-.13-.11-.24-.25-.24-.13,0-.24.11-.24.25Z"/>
                <path class="cls-12" d="M323.18,157.47s.09-.01.14-.03c0,0,0,0,0,0,0,.3.25.53.55.53.3,0,.53-.25.53-.55,0-.17-.08-.31-.21-.41.06-.09.09-.19.09-.31,0-.3-.25-.54-.56-.54-.3,0-.54.25-.54.56,0,0,0,0,0,0,0,0,0,0-.01,0-.2,0-.37.17-.36.38,0,.2.17.37.38.36Z"/>
                <path class="cls-12" d="M324.71,158.7c.25,0,.44-.21.44-.45,0-.25-.21-.44-.45-.44s-.44.21-.44.45.21.44.45.44Z"/>
                <path class="cls-12" d="M324.89,163.42c0-.24-.2-.43-.44-.42-.24,0-.43.2-.42.44s.2.43.44.42c.24,0,.43-.2.42-.44Z"/>
                <path class="cls-12" d="M325.54,164.66c-.32,0-.58.27-.58.6,0,.32.27.58.6.58.32,0,.58-.27.58-.6,0-.32-.27-.58-.6-.58Z"/>
                <path class="cls-12" d="M325.62,162.18s.01-.05.01-.08c0-.17-.14-.3-.3-.29-.17,0-.3.14-.29.3,0,.06.02.12.06.17-.03.06-.05.12-.05.19,0,.2.17.36.37.36.2,0,.36-.17.36-.37,0-.12-.06-.22-.15-.28Z"/>
                <path class="cls-12" d="M324.76,161.15c0-.21-.18-.38-.39-.38-.21,0-.38.18-.38.39,0,.21.18.38.39.38.21,0,.38-.18.38-.39Z"/>
                <path class="cls-12" d="M323.8,159.28s.06,0,.09-.01c-.04.07-.07.14-.07.23,0,.23.19.41.42.4.23,0,.41-.19.4-.42,0-.23-.19-.41-.42-.4-.03,0-.06,0-.08.01.04-.07.07-.15.07-.23.04-.07.07-.16.07-.25,0-.26-.22-.46-.47-.46-.26,0-.46.22-.46.47,0,.07.02.13.04.18,0,.02,0,.04,0,.06,0,.23.19.41.42.41Z"/>
                <path class="cls-12" d="M325.12,157.35c.16,0,.29-.14.29-.3,0-.16-.14-.29-.3-.29s-.29.14-.29.3c0,.16.14.29.3.29Z"/>
                <path class="cls-12" d="M325.96,159.33c.21,0,.38-.18.37-.39,0-.08-.03-.16-.07-.22.13-.04.23-.16.23-.3,0-.17-.14-.31-.31-.3-.17,0-.31.14-.3.31,0,.05.02.1.04.14-.19.02-.34.18-.33.38,0,.21.18.38.39.37Z"/>
                <path class="cls-12" d="M326.91,160.28c.15,0,.28-.13.27-.28,0-.15-.13-.28-.28-.27-.15,0-.28.13-.27.28s.13.28.28.27Z"/>
                <path class="cls-12" d="M327.59,159.3c.08,0,.14-.06.14-.14s-.06-.14-.14-.14c-.08,0-.14.06-.14.14,0,.08.06.14.14.14Z"/>
                <path class="cls-12" d="M329.55,158.86c.07,0,.12-.06.12-.12,0-.07-.06-.12-.12-.12-.07,0-.12.06-.12.12,0,.07.06.12.12.12Z"/>
                <path class="cls-12" d="M331.85,160.19c-.21,0-.38.18-.38.39s.18.38.39.38c.21,0,.38-.18.38-.39,0-.21-.18-.38-.39-.38Z"/>
                <path class="cls-12" d="M334.68,160.17c-.07,0-.12.06-.12.13,0,.07.06.12.13.12.07,0,.12-.06.12-.13,0-.07-.06-.13-.13-.12Z"/>
                <path class="cls-12" d="M333.88,162.69c-.12,0-.21.1-.21.22,0,.12.1.21.22.21.12,0,.21-.1.21-.22,0-.12-.1-.21-.22-.21Z"/>
                <path class="cls-12" d="M332.82,164.5c-.07,0-.13.06-.13.14,0,.07.06.13.14.13.07,0,.13-.06.13-.14,0-.07-.06-.13-.14-.13Z"/>
                <path class="cls-12" d="M333.12,161.68c-.12,0-.21.1-.21.22,0,.12.1.21.22.21.12,0,.21-.1.21-.22,0-.12-.1-.21-.22-.21Z"/>
                <path class="cls-12" d="M336.18,160.65c-.08,0-.15.07-.15.16,0,.08.07.15.16.15.08,0,.15-.07.15-.16s-.07-.15-.16-.15Z"/>
                <path class="cls-12" d="M335.72,157.77c-.2,0-.36.17-.36.37,0,.2.17.36.37.36.2,0,.36-.17.36-.37,0-.2-.17-.36-.37-.36Z"/>
                <path class="cls-12" d="M332.91,157.58c-.12,0-.21.1-.21.21,0,.12.1.21.21.21.12,0,.21-.1.21-.21,0-.12-.1-.21-.21-.21Z"/>
                <path class="cls-12" d="M331.27,157.25c.13,0,.23-.11.23-.24,0-.13-.11-.23-.24-.23-.13,0-.23.11-.23.24,0,.13.11.23.24.23Z"/>
                <path class="cls-12" d="M329.63,159.95c-.1,0-.19.09-.19.19,0,.1.09.19.19.19.1,0,.19-.09.19-.19,0-.1-.09-.19-.19-.19Z"/>
                <path class="cls-12" d="M329.93,157.03c-.09,0-.16.07-.16.16,0,.09.07.16.16.16.09,0,.16-.07.16-.16,0-.09-.07-.16-.16-.16Z"/>
                <path class="cls-12" d="M324.54,162.42c.15,0,.26-.12.26-.27,0-.15-.12-.26-.27-.26-.15,0-.26.12-.26.27,0,.15.12.26.27.26Z"/>
                <path class="cls-12" d="M325.32,161.51s-.03-.06-.06-.06c-.03,0-.06.03-.06.06,0,.03.03.06.06.06.03,0,.06-.03.06-.06Z"/>
                <path class="cls-12" d="M326.39,160.21c-.07,0-.12.06-.12.13,0,.07.06.12.13.12.07,0,.13-.06.12-.13,0-.07-.06-.12-.13-.12Z"/>
                <path class="cls-12" d="M327.71,161.15c0-.14-.12-.25-.26-.25-.14,0-.25.12-.25.26,0,.14.12.25.26.25.14,0,.25-.12.25-.26Z"/>
                <path class="cls-12" d="M326.94,162.11c0,.06.05.11.11.11s.11-.05.11-.11c0-.06-.05-.11-.11-.11-.06,0-.11.05-.11.11Z"/>
                <path class="cls-12" d="M326.27,162.68s-.04-.09-.09-.09c-.05,0-.09.04-.09.09,0,.05.04.09.09.09.05,0,.09-.04.09-.09Z"/>
                <path class="cls-12" d="M327.51,162.85c0,.05.05.1.1.1.05,0,.1-.05.1-.1,0-.05-.05-.1-.1-.1-.05,0-.1.05-.1.1Z"/>
                <path class="cls-12" d="M327.62,163.55c-.05,0-.09.04-.09.1,0,.05.04.09.1.09.05,0,.09-.04.09-.1,0-.05-.04-.09-.1-.09Z"/>
                <path class="cls-12" d="M326.76,164.25c-.06,0-.12.05-.12.12,0,.06.05.12.12.12.06,0,.12-.05.12-.12,0-.06-.05-.12-.12-.12Z"/>
                <path class="cls-12" d="M325.13,164.2c0,.15.13.27.27.26.15,0,.27-.13.26-.27,0-.15-.13-.27-.27-.26-.15,0-.27.13-.26.27Z"/>
                <path class="cls-12" d="M327.47,164.43c-.05,0-.1.05-.1.1,0,.05.05.1.1.1.05,0,.1-.05.1-.1,0-.05-.05-.1-.1-.1Z"/>
                <path class="cls-12" d="M328.53,163.21c-.07,0-.12.06-.12.12,0,.07.06.12.12.12.07,0,.12-.06.12-.12s-.06-.12-.12-.12Z"/>
                <path class="cls-12" d="M329.55,162.64s-.06.03-.06.06c0,.03.03.06.06.06s.06-.03.06-.06c0-.03-.03-.06-.06-.06Z"/>
                <path class="cls-12" d="M329.41,161.18c-.08,0-.15.07-.15.15,0,.08.07.15.15.15.08,0,.15-.07.15-.15,0-.08-.07-.15-.15-.15Z"/>
                <path class="cls-12" d="M328.72,159.54c0,.08.07.15.15.15.08,0,.15-.07.15-.15,0-.08-.07-.15-.15-.15-.08,0-.15.07-.15.15Z"/>
                <path class="cls-12" d="M327.25,158.4c.08,0,.15-.07.14-.15,0-.08-.07-.15-.15-.14-.08,0-.15.07-.14.15,0,.08.07.15.15.14Z"/>
                <path class="cls-12" d="M327.84,157.46c.12,0,.22-.1.22-.23,0-.12-.1-.22-.23-.22-.12,0-.22.1-.22.23,0,.12.1.22.23.22Z"/>
                <path class="cls-12" d="M328.77,157s.09-.04.09-.09c0-.05-.04-.09-.09-.09-.05,0-.09.04-.09.09,0,.05.04.09.09.09Z"/>
                <path class="cls-12" d="M330.65,157.97c0-.08-.06-.13-.14-.13-.08,0-.13.06-.13.14,0,.08.06.13.14.13.08,0,.13-.06.13-.14Z"/>
                <path class="cls-12" d="M330.67,159.11c.11,0,.2-.09.19-.2,0-.11-.09-.2-.2-.19-.11,0-.2.09-.19.2,0,.11.09.2.2.19Z"/>
                <path class="cls-12" d="M325.61,157.65s.08-.04.07-.08c0-.04-.04-.08-.08-.07-.04,0-.08.04-.07.08,0,.04.04.08.08.07Z"/>
                <path class="cls-12" d="M326.2,156.95s.04,0,.06,0c-.03.04-.06.1-.05.15,0,.13.11.23.24.23.13,0,.23-.11.23-.24,0-.13-.11-.23-.24-.23,0,0,0,0,0,0,.07-.07.12-.16.12-.27,0-.2-.17-.36-.36-.35-.2,0-.35.17-.35.36,0,.2.17.35.36.35Z"/>
                <path class="cls-12" d="M322.72,158c.1,0,.18-.09.18-.19,0-.1-.09-.18-.19-.18-.1,0-.18.09-.18.19,0,.1.09.18.19.18Z"/>
              </g>
              <g>
                <path class="cls-12" d="M324.2,170.13c0-.22-.19-.4-.41-.39-.22,0-.4.19-.39.41,0,.22.19.4.41.39.22,0,.4-.19.39-.41Z"/>
                <path class="cls-12" d="M323.82,168.68c.09,0,.16-.08.16-.17s-.08-.16-.17-.16c-.09,0-.16.08-.16.17,0,.09.08.16.17.16Z"/>
                <path class="cls-12" d="M324.99,167.74c0,.06.01.11.04.16-.02.04-.03.09-.03.13,0,.16.13.29.29.28.15,0,.26-.11.28-.25.11-.07.19-.19.19-.33,0-.21-.18-.38-.39-.38-.21,0-.38.18-.38.39Z"/>
                <path class="cls-12" d="M326.28,168.97s0,0,0,0c0-.13-.12-.24-.26-.24-.14,0-.25.12-.25.26,0,.11.07.2.17.23-.01.04-.02.08-.02.12,0,.2.17.36.37.36.2,0,.36-.17.36-.37,0-.2-.17-.36-.37-.36Z"/>
                <path class="cls-12" d="M325.95,171.44c-.16,0-.29.14-.29.3,0,.16.14.29.3.29.16,0,.29-.14.29-.3s-.14-.29-.3-.29Z"/>
                <path class="cls-12" d="M325,168.32c0-.19-.16-.35-.36-.35-.19,0-.35.16-.35.36,0,.19.16.35.36.35.19,0,.35-.16.35-.36Z"/>
                <path class="cls-12" d="M328.54,166.78c.34,0,.6-.28.6-.62,0-.34-.28-.6-.62-.6-.34,0-.6.28-.6.62,0,.34.28.6.62.6Z"/>
                <path class="cls-12" d="M331.25,166.87c-.11,0-.19.09-.19.19,0,.11.09.19.19.19.11,0,.19-.09.19-.19,0-.11-.09-.19-.19-.19Z"/>
                <path class="cls-12" d="M328.17,168.8c.24,0,.44-.21.44-.45,0-.24-.21-.44-.45-.44-.24,0-.44.21-.44.45,0,.24.21.44.45.44Z"/>
                <path class="cls-12" d="M328.96,170.14c0-.27-.23-.48-.49-.48-.27,0-.48.23-.48.49,0,.27.23.48.49.48.27,0,.48-.23.48-.49Z"/>
                <path class="cls-12" d="M324.68,172.54c-.15,0-.27.13-.26.27,0,.15.13.27.27.26.15,0,.27-.13.26-.27,0-.15-.13-.27-.27-.26Z"/>
                <path class="cls-12" d="M327.07,171.12c-.1,0-.17.08-.17.18,0,.1.08.17.18.17.1,0,.17-.08.17-.18,0-.1-.08-.17-.18-.17Z"/>
                <path class="cls-12" d="M328.95,171.98c-.16,0-.28.13-.28.29,0,.16.13.28.29.28.16,0,.28-.13.28-.29s-.13-.28-.29-.28Z"/>
                <path class="cls-12" d="M330.79,170.75c-.08,0-.15.07-.15.15,0,.08.07.15.15.15s.15-.07.15-.15c0-.08-.07-.15-.15-.15Z"/>
                <path class="cls-12" d="M330.86,169.62c-.13,0-.24.11-.24.25,0,.13.11.24.25.24.13,0,.24-.11.24-.25,0-.13-.11-.24-.25-.24Z"/>
                <path class="cls-12" d="M330.9,168.26c0-.13-.11-.24-.24-.23-.13,0-.24.11-.23.24,0,.13.11.24.24.23.13,0,.24-.11.23-.24Z"/>
                <path class="cls-12" d="M319.57,164.88c.06,0,.11-.05.11-.11,0-.06-.05-.11-.11-.11-.06,0-.11.05-.11.11,0,.06.05.11.11.11Z"/>
                <path class="cls-12" d="M318.3,166.62c0-.09-.07-.15-.16-.15-.09,0-.15.07-.15.16s.07.15.16.15c.09,0,.15-.07.15-.16Z"/>
                <path class="cls-12" d="M323.32,172.34s-.09.01-.13.03c.04-.07.06-.15.05-.24,0-.02,0-.04,0-.06.03,0,.05.01.08.01.16,0,.29-.14.29-.3,0-.16-.14-.29-.3-.29-.14,0-.25.1-.28.23-.09-.06-.2-.1-.31-.1-.1,0-.2.03-.28.09.06-.1.09-.22.09-.35,0-.05,0-.1-.02-.14.2-.04.35-.22.34-.43,0-.03,0-.05,0-.07.23-.06.4-.27.4-.53,0-.3-.25-.53-.55-.53-.02,0-.03,0-.05,0,.07-.07.12-.16.11-.27,0-.15-.1-.28-.23-.33.01-.05.02-.09.02-.14,0-.02,0-.03,0-.05.13-.04.22-.16.21-.29,0-.12-.08-.23-.18-.27.02-.01.04-.03.06-.05.06.02.13.04.2.04.11,0,.2-.04.28-.09.06.04.14.07.22.07.21,0,.38-.18.38-.39,0-.21-.18-.38-.39-.38-.03,0-.06,0-.08.01-.09-.14-.25-.22-.43-.22-.03,0-.07,0-.1.01,0,0,0,0,0,0,0-.23-.19-.41-.42-.4-.15,0-.27.08-.34.2-.07-.04-.14-.06-.22-.06-.03,0-.06,0-.09.01.03-.06.06-.12.08-.18.05.02.1.03.16.03.22,0,.39-.18.39-.4,0-.22-.18-.39-.4-.39-.08,0-.14.02-.2.06-.05-.1-.12-.18-.21-.26.02-.02.03-.04.04-.05.07.15.22.25.39.25.23,0,.42-.2.41-.43,0-.23-.2-.42-.43-.41-.01,0-.03,0-.04,0,.02-.06.03-.12.04-.18.07-.1.11-.23.11-.36,0-.34-.28-.61-.62-.6-.28,0-.52.2-.58.46-.11.11-.18.26-.19.42-.14.12-.23.3-.22.49,0,.11.04.22.09.31-.14.08-.25.19-.33.33-.03-.32-.24-.58-.54-.67-.09-.11-.23-.17-.38-.17-.28,0-.5.23-.49.51-.07.12-.11.26-.11.41,0,.27.14.5.35.63-.07.06-.13.15-.17.24-.02,0-.03,0-.05,0-.27,0-.49.23-.49.5,0,.27.23.49.5.49.05,0,.11-.01.15-.03.11.11.26.18.42.18.07,0,.15-.02.21-.05-.02.05-.02.1-.03.15-.1-.06-.22-.1-.34-.1-.34,0-.6.28-.6.62,0,.05.01.1.02.15-.01.05-.02.11-.02.16,0,.03,0,.07,0,.1-.15.12-.24.31-.24.52,0,.35.28.62.61.65-.02.05-.03.11-.03.17,0,.1.03.19.08.27-.05-.01-.1-.02-.15-.02-.08,0-.16.02-.23.05.03-.05.04-.11.04-.18,0-.22-.18-.39-.4-.39-.22,0-.39.18-.39.4,0,.22.18.39.4.39.02,0,.04,0,.07,0,0,0,0,0,0,0-.08.11-.13.25-.13.4,0,.36.3.65.67.64.23,0,.43-.13.55-.31.03.03.05.06.09.08-.12.08-.19.21-.19.37,0,.09.03.17.08.24-.02.04-.04.09-.05.14-.12-.14-.29-.23-.49-.23-.35,0-.62.29-.61.64,0,.35.29.62.64.61.26,0,.47-.16.57-.38.14.22.39.37.68.36.44,0,.78-.37.78-.8,0-.08-.01-.15-.04-.22.01,0,.02,0,.03,0,.14,0,.26-.12.26-.27,0,0,0,0,0-.01.16-.04.29-.15.34-.3.04.03.1.05.16.05.06,0,.11-.02.16-.05.01,0,.02,0,.03,0,.15,0,.29-.06.4-.14-.03.06-.04.12-.05.19-.29.02-.53.26-.53.56-.06-.02-.11-.03-.17-.03-.32,0-.58.27-.58.6,0,.32.27.58.6.58.25,0,.45-.16.54-.38.09.12.24.2.4.2.28,0,.5-.23.5-.51,0-.14-.06-.26-.15-.35,0-.03,0-.07,0-.1,0,0,0,0,0,0,.06,0,.11-.03.16-.06-.01.04-.02.09-.02.13,0,.21.18.38.39.38.21,0,.38-.18.38-.39,0-.21-.18-.38-.39-.38ZM319.47,171.21s-.05-.08-.08-.12c.02,0,.05,0,.07,0,.18,0,.33-.09.42-.23.02.13.09.24.2.31-.01,0-.02.01-.03.02-.08-.06-.18-.1-.29-.1-.11,0-.22.05-.3.12ZM319.98,170.56c0-.23-.17-.43-.39-.48.03-.05.05-.11.06-.17.08.12.18.21.31.27,0,0,0,0,0,.01,0,.11.03.21.07.31-.02.02-.04.04-.06.06ZM320.34,168.72s0,.02.01.03c-.01,0-.03,0-.04,0,.01,0,.02-.02.03-.03ZM320.91,169.06s0,0,0,0c.02,0,.03,0,.05,0,0,0,0,0,0,0,0,0,0,0,0,0-.02,0-.03,0-.05,0,0,0,0,0,0,0ZM322.18,168.47s-.07-.01-.11-.01c0,0,0,0,0,0,.03-.05.06-.11.08-.17.04.03.08.05.12.07-.04.03-.07.07-.09.11ZM322.11,167.75s0-.02,0-.02c.01-.02.02-.04.03-.06.02,0,.03.01.05.02-.03.02-.06.04-.09.06ZM321.17,167.71c-.03-.06-.08-.11-.13-.15.09-.04.17-.1.23-.18.02,0,.03-.02.05-.02-.01.04-.02.08-.02.13,0,.04,0,.08.02.12-.06.03-.11.06-.15.1ZM319.81,168.91s-.02-.04-.02-.05c0-.01,0-.03,0-.04,0-.02,0-.03,0-.05.05.03.1.04.16.05-.05.02-.09.05-.13.09ZM322.16,170.2c0,.08.02.15.05.21-.11.06-.19.16-.21.28-.06-.01-.12-.02-.18-.02-.21,0-.39.1-.51.24-.03-.03-.06-.05-.09-.07,0-.03-.01-.05-.02-.07.03,0,.05,0,.08,0,.3,0,.55-.26.54-.56,0-.16-.07-.3-.18-.4,0-.04,0-.07,0-.11,0,0,0,0,0,0,.17-.01.31-.09.42-.21.04.14.17.25.33.25-.14.1-.22.26-.22.44ZM320.35,167.28c-.05.05-.08.12-.08.2,0,.08.04.15.09.2-.04.07-.07.14-.08.23-.08-.05-.18-.08-.28-.08-.06,0-.11.01-.16.03.02-.05.03-.11.04-.18.07-.1.11-.23.11-.37,0-.07-.01-.14-.04-.2.06-.04.1-.1.13-.16.06.13.15.24.26.32Z"/>
                <path class="cls-12" d="M323.44,171.21c.16,0,.29-.13.28-.29,0-.16-.13-.29-.29-.28-.16,0-.29.13-.28.29,0,.16.13.29.29.28Z"/>
                <path class="cls-12" d="M323.11,169.19c0,.17.14.3.31.3.17,0,.3-.14.3-.31,0-.17-.14-.3-.31-.3-.17,0-.3.14-.3.31Z"/>
                <path class="cls-12" d="M322.55,166.64c0,.13.11.24.25.24.13,0,.24-.11.24-.25,0-.13-.11-.24-.25-.24-.13,0-.24.11-.24.25Z"/>
                <path class="cls-12" d="M323.18,165.37s.09-.01.14-.03c0,0,0,0,0,0,0,.3.25.53.55.53.3,0,.53-.25.53-.55,0-.17-.08-.31-.21-.41.06-.09.09-.19.09-.31,0-.3-.25-.54-.56-.54-.3,0-.54.25-.54.56,0,0,0,0,0,0,0,0,0,0-.01,0-.2,0-.37.17-.36.38s.17.37.38.36Z"/>
                <path class="cls-12" d="M324.71,166.6c.25,0,.44-.21.44-.45,0-.25-.21-.44-.45-.44-.25,0-.44.21-.44.45s.21.44.45.44Z"/>
                <path class="cls-12" d="M324.89,171.32c0-.24-.2-.43-.44-.42-.24,0-.43.2-.42.44,0,.24.2.43.44.42.24,0,.43-.2.42-.44Z"/>
                <path class="cls-12" d="M325.54,172.56c-.32,0-.58.27-.58.6,0,.32.27.58.6.58.32,0,.58-.27.58-.6,0-.32-.27-.58-.6-.58Z"/>
                <path class="cls-12" d="M325.62,170.09s.01-.05.01-.08c0-.17-.14-.3-.3-.29-.17,0-.3.14-.29.3,0,.06.02.12.06.17-.03.06-.05.12-.05.19,0,.2.17.36.37.36.2,0,.36-.17.36-.37,0-.12-.06-.22-.15-.28Z"/>
                <path class="cls-12" d="M324.76,169.06c0-.21-.18-.38-.39-.38-.21,0-.38.18-.38.39,0,.21.18.38.39.38.21,0,.38-.18.38-.39Z"/>
                <path class="cls-12" d="M323.8,167.19s.06,0,.09-.01c-.04.07-.07.14-.07.23,0,.23.19.41.42.4.23,0,.41-.19.4-.42,0-.23-.19-.41-.42-.4-.03,0-.06,0-.08.01.04-.07.07-.15.07-.23.04-.07.07-.16.07-.25,0-.26-.22-.46-.47-.46-.26,0-.46.22-.46.47,0,.07.02.13.04.18,0,.02,0,.04,0,.06,0,.23.19.41.42.41Z"/>
                <path class="cls-12" d="M325.12,165.26c.16,0,.29-.14.29-.3,0-.16-.14-.29-.3-.29s-.29.14-.29.3c0,.16.14.29.3.29Z"/>
                <path class="cls-12" d="M325.96,167.23c.21,0,.38-.18.37-.39,0-.08-.03-.16-.07-.22.13-.04.23-.16.23-.3,0-.17-.14-.31-.31-.3-.17,0-.31.14-.3.31,0,.05.02.1.04.14-.19.02-.34.18-.33.38,0,.21.18.38.39.37Z"/>
                <path class="cls-12" d="M326.91,168.18c.15,0,.28-.13.27-.28,0-.15-.13-.28-.28-.27-.15,0-.28.13-.27.28s.13.28.28.27Z"/>
                <path class="cls-12" d="M327.59,167.21c.08,0,.14-.06.14-.14,0-.08-.06-.14-.14-.14-.08,0-.14.06-.14.14,0,.08.06.14.14.14Z"/>
                <path class="cls-12" d="M329.55,166.76c.07,0,.12-.06.12-.12,0-.07-.06-.12-.12-.12-.07,0-.12.06-.12.12,0,.07.06.12.12.12Z"/>
                <path class="cls-12" d="M331.85,168.1c-.21,0-.38.18-.38.39s.18.38.39.38c.21,0,.38-.18.38-.39,0-.21-.18-.38-.39-.38Z"/>
                <path class="cls-12" d="M334.68,168.08c-.07,0-.12.06-.12.13,0,.07.06.12.13.12.07,0,.12-.06.12-.13,0-.07-.06-.13-.13-.12Z"/>
                <path class="cls-12" d="M333.88,170.6c-.12,0-.21.1-.21.22,0,.12.1.21.22.21.12,0,.21-.1.21-.22,0-.12-.1-.21-.22-.21Z"/>
                <path class="cls-12" d="M332.82,172.4c-.07,0-.13.06-.13.14,0,.07.06.13.14.13.07,0,.13-.06.13-.14,0-.07-.06-.13-.14-.13Z"/>
                <path class="cls-12" d="M333.12,169.58c-.12,0-.21.1-.21.22,0,.12.1.21.22.21.12,0,.21-.1.21-.22,0-.12-.1-.21-.22-.21Z"/>
                <path class="cls-12" d="M336.18,168.55c-.08,0-.15.07-.15.16,0,.08.07.15.16.15.08,0,.15-.07.15-.16s-.07-.15-.16-.15Z"/>
                <path class="cls-12" d="M335.72,165.68c-.2,0-.36.17-.36.37,0,.2.17.36.37.36.2,0,.36-.17.36-.37,0-.2-.17-.36-.37-.36Z"/>
                <path class="cls-12" d="M332.91,165.49c-.12,0-.21.1-.21.21,0,.12.1.21.21.21.12,0,.21-.1.21-.21,0-.12-.1-.21-.21-.21Z"/>
                <path class="cls-12" d="M331.27,165.15c.13,0,.23-.11.23-.24,0-.13-.11-.23-.24-.23-.13,0-.23.11-.23.24,0,.13.11.23.24.23Z"/>
                <path class="cls-12" d="M329.63,167.86c-.1,0-.19.09-.19.19,0,.1.09.19.19.19.1,0,.19-.09.19-.19,0-.1-.09-.19-.19-.19Z"/>
                <path class="cls-12" d="M329.93,164.94c-.09,0-.16.07-.16.16,0,.09.07.16.16.16.09,0,.16-.07.16-.16,0-.09-.07-.16-.16-.16Z"/>
                <path class="cls-12" d="M324.54,170.33c.15,0,.26-.12.26-.27,0-.15-.12-.26-.27-.26-.15,0-.26.12-.26.27,0,.15.12.26.27.26Z"/>
                <path class="cls-12" d="M325.32,169.41s-.03-.06-.06-.06c-.03,0-.06.03-.06.06,0,.03.03.06.06.06.03,0,.06-.03.06-.06Z"/>
                <path class="cls-12" d="M326.39,168.11c-.07,0-.12.06-.12.13,0,.07.06.12.13.12.07,0,.13-.06.12-.13,0-.07-.06-.12-.13-.12Z"/>
                <path class="cls-12" d="M327.71,169.06c0-.14-.12-.25-.26-.25-.14,0-.25.12-.25.26s.12.25.26.25c.14,0,.25-.12.25-.26Z"/>
                <path class="cls-12" d="M326.94,170.01c0,.06.05.11.11.11s.11-.05.11-.11c0-.06-.05-.11-.11-.11s-.11.05-.11.11Z"/>
                <path class="cls-12" d="M326.27,170.58s-.04-.09-.09-.09c-.05,0-.09.04-.09.09,0,.05.04.09.09.09.05,0,.09-.04.09-.09Z"/>
                <path class="cls-12" d="M327.51,170.75c0,.05.05.1.1.1.05,0,.1-.05.1-.1,0-.05-.05-.1-.1-.1-.05,0-.1.05-.1.1Z"/>
                <path class="cls-12" d="M327.62,171.46c-.05,0-.09.04-.09.1,0,.05.04.09.1.09.05,0,.09-.04.09-.1,0-.05-.04-.09-.1-.09Z"/>
                <path class="cls-12" d="M326.76,172.16c-.06,0-.12.05-.12.12,0,.06.05.12.12.12.06,0,.12-.05.12-.12,0-.06-.05-.12-.12-.12Z"/>
                <path class="cls-12" d="M325.13,172.1c0,.15.13.27.27.26.15,0,.27-.13.26-.27,0-.15-.13-.27-.27-.26-.15,0-.27.13-.26.27Z"/>
                <path class="cls-12" d="M327.47,172.33c-.05,0-.1.05-.1.1,0,.05.05.1.1.1.05,0,.1-.05.1-.1,0-.05-.05-.1-.1-.1Z"/>
                <path class="cls-12" d="M328.53,171.12c-.07,0-.12.06-.12.12,0,.07.06.12.12.12.07,0,.12-.06.12-.12s-.06-.12-.12-.12Z"/>
                <path class="cls-12" d="M329.55,170.55s-.06.03-.06.06c0,.03.03.06.06.06.03,0,.06-.03.06-.06,0-.03-.03-.06-.06-.06Z"/>
                <path class="cls-12" d="M329.41,169.08c-.08,0-.15.07-.15.15,0,.08.07.15.15.15s.15-.07.15-.15c0-.08-.07-.15-.15-.15Z"/>
                <path class="cls-12" d="M328.72,167.44c0,.08.07.15.15.15.08,0,.15-.07.15-.15,0-.08-.07-.15-.15-.15-.08,0-.15.07-.15.15Z"/>
                <path class="cls-12" d="M327.25,166.3c.08,0,.15-.07.14-.15,0-.08-.07-.15-.15-.14-.08,0-.15.07-.14.15,0,.08.07.15.15.14Z"/>
                <path class="cls-12" d="M327.84,165.37c.12,0,.22-.1.22-.23,0-.12-.1-.22-.23-.22-.12,0-.22.1-.22.23,0,.12.1.22.23.22Z"/>
                <path class="cls-12" d="M328.77,164.9s.09-.04.09-.09c0-.05-.04-.09-.09-.09s-.09.04-.09.09c0,.05.04.09.09.09Z"/>
                <path class="cls-12" d="M330.65,165.87c0-.08-.06-.13-.14-.13-.08,0-.13.06-.13.14,0,.08.06.13.14.13.08,0,.13-.06.13-.14Z"/>
                <path class="cls-12" d="M330.67,167.01c.11,0,.2-.09.19-.2,0-.11-.09-.2-.2-.19-.11,0-.2.09-.19.2,0,.11.09.2.2.19Z"/>
                <path class="cls-12" d="M325.61,165.56s.08-.04.07-.08c0-.04-.04-.08-.08-.07-.04,0-.08.04-.07.08,0,.04.04.08.08.07Z"/>
                <path class="cls-12" d="M326.2,164.85s.04,0,.06,0c-.03.04-.06.1-.05.15,0,.13.11.23.24.23.13,0,.23-.11.23-.24,0-.13-.11-.23-.24-.23,0,0,0,0,0,0,.07-.07.12-.16.12-.27,0-.2-.17-.35-.36-.35-.2,0-.35.17-.35.36,0,.2.17.35.36.35Z"/>
                <path class="cls-12" d="M322.72,165.9c.1,0,.18-.09.18-.19,0-.1-.09-.18-.19-.18-.1,0-.18.09-.18.19s.09.18.19.18Z"/>
              </g>
              <g>
                <path class="cls-12" d="M324.2,178.04c0-.22-.19-.4-.41-.39-.22,0-.4.19-.39.41,0,.22.19.4.41.39.22,0,.4-.19.39-.41Z"/>
                <path class="cls-12" d="M323.82,176.58c.09,0,.16-.08.16-.17s-.08-.16-.17-.16c-.09,0-.16.08-.16.17,0,.09.08.16.17.16Z"/>
                <path class="cls-12" d="M324.99,175.64c0,.06.01.11.04.16-.02.04-.03.09-.03.13,0,.16.13.29.29.28.15,0,.26-.11.28-.25.11-.07.19-.19.19-.33,0-.21-.18-.38-.39-.38-.21,0-.38.18-.38.39Z"/>
                <path class="cls-12" d="M326.28,176.87s0,0,0,0c0-.13-.12-.24-.26-.24-.14,0-.25.12-.25.26,0,.11.07.2.17.23-.01.04-.02.08-.02.12,0,.2.17.36.37.36.2,0,.36-.17.36-.37,0-.2-.17-.36-.37-.36Z"/>
                <path class="cls-12" d="M325.95,179.34c-.16,0-.29.14-.29.3,0,.16.14.29.3.29.16,0,.29-.14.29-.3,0-.16-.14-.29-.3-.29Z"/>
                <path class="cls-12" d="M325,176.22c0-.19-.16-.35-.36-.35-.19,0-.35.16-.35.36,0,.19.16.35.36.35.19,0,.35-.16.35-.36Z"/>
                <path class="cls-12" d="M328.54,174.68c.34,0,.6-.28.6-.62,0-.34-.28-.6-.62-.6-.34,0-.6.28-.6.62,0,.34.28.6.62.6Z"/>
                <path class="cls-12" d="M331.25,174.77c-.11,0-.19.09-.19.19,0,.11.09.19.19.19.11,0,.19-.09.19-.19,0-.11-.09-.19-.19-.19Z"/>
                <path class="cls-12" d="M328.17,176.7c.24,0,.44-.21.44-.45,0-.24-.21-.44-.45-.44-.24,0-.44.21-.44.45,0,.24.21.44.45.44Z"/>
                <path class="cls-12" d="M328.96,178.04c0-.27-.23-.48-.49-.48-.27,0-.48.23-.48.49,0,.27.23.48.49.48.27,0,.48-.23.48-.49Z"/>
                <path class="cls-12" d="M324.68,180.44c-.15,0-.27.13-.26.27,0,.15.13.27.27.26.15,0,.27-.13.26-.27,0-.15-.13-.27-.27-.26Z"/>
                <path class="cls-12" d="M327.07,179.02c-.1,0-.17.08-.17.18,0,.1.08.17.18.17.1,0,.17-.08.17-.18,0-.1-.08-.17-.18-.17Z"/>
                <path class="cls-12" d="M328.95,179.88c-.16,0-.28.13-.28.29,0,.16.13.28.29.28.16,0,.28-.13.28-.29,0-.16-.13-.28-.29-.28Z"/>
                <path class="cls-12" d="M330.79,178.65c-.08,0-.15.07-.15.15,0,.08.07.15.15.15.08,0,.15-.07.15-.15,0-.08-.07-.15-.15-.15Z"/>
                <path class="cls-12" d="M330.86,177.52c-.13,0-.24.11-.24.25,0,.13.11.24.25.24.13,0,.24-.11.24-.25,0-.13-.11-.24-.25-.24Z"/>
                <path class="cls-12" d="M330.9,176.16c0-.13-.11-.24-.24-.23-.13,0-.24.11-.23.24,0,.13.11.24.24.23.13,0,.24-.11.23-.24Z"/>
                <path class="cls-12" d="M319.57,172.78c.06,0,.11-.05.11-.11,0-.06-.05-.11-.11-.11-.06,0-.11.05-.11.11,0,.06.05.11.11.11Z"/>
                <path class="cls-12" d="M318.3,174.53c0-.09-.07-.15-.16-.15-.09,0-.15.07-.15.16s.07.15.16.15c.09,0,.15-.07.15-.16Z"/>
                <path class="cls-12" d="M323.32,180.24s-.09.01-.13.03c.04-.07.06-.15.05-.24,0-.02,0-.04,0-.06.03,0,.05.01.08.01.16,0,.29-.14.29-.3,0-.16-.14-.29-.3-.29-.14,0-.25.1-.28.23-.09-.06-.2-.1-.31-.1-.1,0-.2.03-.28.09.06-.1.09-.22.09-.35,0-.05,0-.1-.02-.14.2-.04.35-.22.34-.43,0-.03,0-.05,0-.07.23-.06.4-.27.4-.53,0-.3-.25-.53-.55-.53-.02,0-.03,0-.05,0,.07-.07.12-.16.11-.27,0-.15-.1-.28-.23-.33.01-.05.02-.09.02-.14,0-.02,0-.03,0-.05.13-.04.22-.16.21-.29,0-.12-.08-.23-.18-.27.02-.01.04-.03.06-.05.06.02.13.04.2.04.11,0,.2-.04.28-.09.06.04.14.07.22.07.21,0,.38-.18.38-.39,0-.21-.18-.38-.39-.38-.03,0-.06,0-.08.01-.09-.14-.25-.22-.43-.22-.03,0-.07,0-.1.01,0,0,0,0,0,0,0-.23-.19-.41-.42-.4-.15,0-.27.08-.34.2-.07-.04-.14-.06-.22-.05-.03,0-.06,0-.09.01.03-.06.06-.12.08-.18.05.02.1.03.16.03.22,0,.39-.18.39-.4,0-.22-.18-.39-.4-.39-.08,0-.14.02-.2.06-.05-.1-.12-.18-.21-.26.02-.02.03-.04.04-.05.07.15.22.25.39.25.23,0,.42-.2.41-.43,0-.23-.2-.42-.43-.41-.01,0-.03,0-.04,0,.02-.06.03-.12.04-.18.07-.1.11-.23.11-.36,0-.34-.28-.61-.62-.6-.28,0-.52.2-.58.46-.11.11-.18.26-.19.42-.14.12-.23.3-.22.49,0,.11.04.22.09.31-.14.08-.25.19-.33.33-.03-.32-.24-.58-.54-.67-.09-.11-.23-.17-.38-.17-.28,0-.5.23-.49.51-.07.12-.11.26-.11.41,0,.27.14.5.35.63-.07.06-.13.15-.17.24-.02,0-.03,0-.05,0-.27,0-.49.23-.49.5,0,.27.23.49.5.49.05,0,.11-.01.15-.03.11.11.26.18.42.18.07,0,.15-.02.21-.05-.02.05-.02.1-.03.15-.1-.06-.22-.1-.34-.1-.34,0-.6.28-.6.62,0,.05.01.1.02.15-.01.05-.02.11-.02.16,0,.03,0,.07,0,.1-.15.12-.24.31-.24.52,0,.35.28.62.61.65-.02.05-.03.11-.03.17,0,.1.03.19.08.27-.05-.01-.1-.02-.15-.02-.08,0-.16.02-.23.05.03-.05.04-.11.04-.18,0-.22-.18-.39-.4-.39-.22,0-.39.18-.39.4,0,.22.18.39.4.39.02,0,.04,0,.07,0,0,0,0,0,0,0-.08.11-.13.25-.13.4,0,.36.3.65.67.64.23,0,.43-.13.55-.31.03.03.05.06.09.08-.12.08-.19.21-.19.37,0,.09.03.17.08.24-.02.04-.04.09-.05.14-.12-.14-.29-.23-.49-.23-.35,0-.62.29-.61.64,0,.35.29.62.64.61.26,0,.47-.16.57-.38.14.22.39.37.68.36.44,0,.78-.37.78-.8,0-.08-.01-.15-.04-.22.01,0,.02,0,.03,0,.14,0,.26-.12.26-.27,0,0,0,0,0-.01.16-.04.29-.15.34-.3.04.03.1.05.16.05.06,0,.11-.02.16-.05.01,0,.02,0,.03,0,.15,0,.29-.06.4-.14-.03.06-.04.12-.05.19-.29.02-.53.26-.53.56-.06-.02-.11-.03-.17-.03-.32,0-.58.27-.58.6,0,.32.27.58.6.58.25,0,.45-.16.54-.38.09.12.24.2.4.2.28,0,.5-.23.5-.51,0-.14-.06-.26-.15-.35,0-.03,0-.07,0-.1,0,0,0,0,0,0,.06,0,.11-.03.16-.06-.01.04-.02.09-.02.13,0,.21.18.38.39.38.21,0,.38-.18.38-.39,0-.21-.18-.38-.39-.38ZM319.47,179.11s-.05-.08-.08-.12c.02,0,.05,0,.07,0,.18,0,.33-.1.42-.23.02.13.09.24.2.31-.01,0-.02.01-.03.02-.08-.06-.18-.1-.29-.1-.11,0-.22.05-.3.12ZM319.98,178.46c0-.23-.17-.43-.39-.48.03-.05.05-.11.06-.17.08.12.18.21.31.27,0,0,0,0,0,.01,0,.11.03.21.07.31-.02.02-.04.04-.06.06ZM320.34,176.62s0,.02.01.03c-.01,0-.03,0-.04,0,.01,0,.02-.02.03-.03ZM320.91,176.97s0,0,0,0c.02,0,.03,0,.05,0,0,0,0,0,0,0h0s-.03,0-.05,0c0,0,0,0,0,0ZM322.18,176.37s-.07-.01-.11-.01c0,0,0,0,0,0,.03-.05.06-.11.08-.17.04.03.08.05.12.07-.04.03-.07.07-.09.11ZM322.11,175.66s0-.02,0-.02c.01-.02.02-.04.03-.06.02,0,.03.01.05.02-.03.02-.06.04-.09.06ZM321.17,175.61c-.03-.06-.08-.11-.13-.15.09-.04.17-.1.23-.18.02,0,.03-.02.05-.02-.01.04-.02.08-.02.13,0,.04,0,.08.02.12-.06.03-.11.06-.15.1ZM319.81,176.81s-.02-.04-.02-.05c0-.01,0-.03,0-.04,0-.02,0-.03,0-.05.05.03.1.04.16.05-.05.02-.09.05-.13.09ZM322.16,178.11c0,.08.02.15.05.21-.11.06-.19.16-.21.28-.06-.01-.12-.02-.18-.02-.21,0-.39.1-.51.24-.03-.03-.06-.05-.09-.07,0-.03-.01-.05-.02-.07.03,0,.05,0,.08,0,.3,0,.55-.26.54-.56,0-.16-.07-.3-.18-.4,0-.04,0-.07,0-.11,0,0,0,0,0,0,.17-.01.31-.09.42-.21.04.14.17.25.33.25-.14.1-.22.26-.22.44ZM320.35,175.18c-.05.05-.08.12-.08.2,0,.08.04.15.09.2-.04.07-.07.14-.08.23-.08-.05-.18-.08-.28-.08-.06,0-.11.01-.16.03.02-.05.03-.11.04-.18.07-.1.11-.23.11-.37,0-.07-.01-.14-.04-.2.06-.04.1-.1.13-.16.06.13.15.24.26.32Z"/>
                <path class="cls-12" d="M323.44,179.11c.16,0,.29-.13.28-.29,0-.16-.13-.29-.29-.28-.16,0-.29.13-.28.29,0,.16.13.29.29.28Z"/>
                <path class="cls-12" d="M323.11,177.09c0,.17.14.3.31.3.17,0,.3-.14.3-.31,0-.17-.14-.3-.31-.3-.17,0-.3.14-.3.31Z"/>
                <path class="cls-12" d="M322.55,174.54c0,.13.11.24.25.24.13,0,.24-.11.24-.25,0-.13-.11-.24-.25-.24-.13,0-.24.11-.24.25Z"/>
                <path class="cls-12" d="M323.18,173.28s.09-.01.14-.03c0,0,0,0,0,0,0,.3.25.53.55.53.3,0,.53-.25.53-.55,0-.17-.08-.31-.21-.41.06-.09.09-.19.09-.31,0-.3-.25-.54-.56-.54-.3,0-.54.25-.54.56,0,0,0,0,0,0,0,0,0,0-.01,0-.2,0-.37.17-.36.38,0,.2.17.37.38.36Z"/>
                <path class="cls-12" d="M324.71,174.5c.25,0,.44-.21.44-.45s-.21-.44-.45-.44c-.25,0-.44.21-.44.45,0,.25.21.44.45.44Z"/>
                <path class="cls-12" d="M324.89,179.23c0-.24-.2-.43-.44-.42-.24,0-.43.2-.42.44,0,.24.2.43.44.42.24,0,.43-.2.42-.44Z"/>
                <path class="cls-12" d="M325.54,180.46c-.32,0-.58.27-.58.6,0,.32.27.58.6.58.32,0,.58-.27.58-.6,0-.32-.27-.58-.6-.58Z"/>
                <path class="cls-12" d="M325.62,177.99s.01-.05.01-.08c0-.17-.14-.3-.3-.29s-.3.14-.29.3c0,.06.02.12.06.17-.03.06-.05.12-.05.19,0,.2.17.36.37.36s.36-.17.36-.37c0-.12-.06-.22-.15-.28Z"/>
                <path class="cls-12" d="M324.76,176.96c0-.21-.18-.38-.39-.38-.21,0-.38.18-.38.39,0,.21.18.38.39.38.21,0,.38-.18.38-.39Z"/>
                <path class="cls-12" d="M323.8,175.09s.06,0,.09-.01c-.04.07-.07.14-.07.23,0,.23.19.41.42.4.23,0,.41-.19.4-.42,0-.23-.19-.41-.42-.4-.03,0-.06,0-.08.01.04-.07.07-.15.07-.23.04-.07.07-.16.07-.25,0-.26-.22-.46-.47-.46-.26,0-.46.22-.46.47,0,.07.02.13.04.18,0,.02,0,.04,0,.06,0,.23.19.41.42.41Z"/>
                <path class="cls-12" d="M325.12,173.16c.16,0,.29-.14.29-.3,0-.16-.14-.29-.3-.29-.16,0-.29.14-.29.3,0,.16.14.29.3.29Z"/>
                <path class="cls-12" d="M325.96,175.14c.21,0,.38-.18.37-.39,0-.08-.03-.16-.07-.22.13-.04.23-.16.23-.3,0-.17-.14-.31-.31-.3-.17,0-.31.14-.3.31,0,.05.02.1.04.14-.19.02-.34.18-.33.38,0,.21.18.38.39.37Z"/>
                <path class="cls-12" d="M326.91,176.09c.15,0,.28-.13.27-.28,0-.15-.13-.28-.28-.27-.15,0-.28.13-.27.28,0,.15.13.28.28.27Z"/>
                <path class="cls-12" d="M327.59,175.11c.08,0,.14-.06.14-.14,0-.08-.06-.14-.14-.14-.08,0-.14.06-.14.14,0,.08.06.14.14.14Z"/>
                <path class="cls-12" d="M329.55,174.66c.07,0,.12-.06.12-.12,0-.07-.06-.12-.12-.12s-.12.06-.12.12c0,.07.06.12.12.12Z"/>
                <path class="cls-12" d="M331.85,176c-.21,0-.38.18-.38.39s.18.38.39.38c.21,0,.38-.18.38-.39,0-.21-.18-.38-.39-.38Z"/>
                <path class="cls-12" d="M334.68,175.98c-.07,0-.12.06-.12.13,0,.07.06.12.13.12.07,0,.12-.06.12-.13,0-.07-.06-.12-.13-.12Z"/>
                <path class="cls-12" d="M333.88,178.5c-.12,0-.21.1-.21.22,0,.12.1.21.22.21.12,0,.21-.1.21-.22,0-.12-.1-.21-.22-.21Z"/>
                <path class="cls-12" d="M332.82,180.3c-.07,0-.13.06-.13.14,0,.07.06.13.14.13.07,0,.13-.06.13-.14,0-.07-.06-.13-.14-.13Z"/>
                <path class="cls-12" d="M333.12,177.48c-.12,0-.21.1-.21.22,0,.12.1.21.22.21.12,0,.21-.1.21-.22,0-.12-.1-.21-.22-.21Z"/>
                <path class="cls-12" d="M336.18,176.46c-.08,0-.15.07-.15.16,0,.08.07.15.16.15.08,0,.15-.07.15-.16s-.07-.15-.16-.15Z"/>
                <path class="cls-12" d="M335.72,173.58c-.2,0-.36.17-.36.37,0,.2.17.36.37.36.2,0,.36-.17.36-.37,0-.2-.17-.36-.37-.36Z"/>
                <path class="cls-12" d="M332.91,173.39c-.12,0-.21.1-.21.21,0,.12.1.21.21.21.12,0,.21-.1.21-.21,0-.12-.1-.21-.21-.21Z"/>
                <path class="cls-12" d="M331.27,173.05c.13,0,.23-.11.23-.24,0-.13-.11-.23-.24-.23s-.23.11-.23.24.11.23.24.23Z"/>
                <path class="cls-12" d="M329.63,175.76c-.1,0-.19.09-.19.19,0,.1.09.19.19.19.1,0,.19-.09.19-.19,0-.1-.09-.19-.19-.19Z"/>
                <path class="cls-12" d="M329.93,172.84c-.09,0-.16.07-.16.16,0,.09.07.16.16.16.09,0,.16-.07.16-.16,0-.09-.07-.16-.16-.16Z"/>
                <path class="cls-12" d="M324.54,178.23c.15,0,.26-.12.26-.27,0-.15-.12-.26-.27-.26-.15,0-.26.12-.26.27,0,.15.12.26.27.26Z"/>
                <path class="cls-12" d="M325.32,177.31s-.03-.06-.06-.06c-.03,0-.06.03-.06.06,0,.03.03.06.06.06.03,0,.06-.03.06-.06Z"/>
                <path class="cls-12" d="M326.39,176.01c-.07,0-.12.06-.12.13,0,.07.06.13.13.12.07,0,.13-.06.12-.13,0-.07-.06-.13-.13-.12Z"/>
                <path class="cls-12" d="M327.71,176.96c0-.14-.12-.25-.26-.25-.14,0-.25.12-.25.26,0,.14.12.25.26.25.14,0,.25-.12.25-.26Z"/>
                <path class="cls-12" d="M326.94,177.91c0,.06.05.11.11.11s.11-.05.11-.11c0-.06-.05-.11-.11-.11s-.11.05-.11.11Z"/>
                <path class="cls-12" d="M326.27,178.49s-.04-.09-.09-.09c-.05,0-.09.04-.09.09,0,.05.04.09.09.09.05,0,.09-.04.09-.09Z"/>
                <path class="cls-12" d="M327.51,178.65c0,.05.05.1.1.1.05,0,.1-.05.1-.1,0-.05-.05-.1-.1-.1-.05,0-.1.05-.1.1Z"/>
                <path class="cls-12" d="M327.62,179.36c-.05,0-.09.04-.09.1,0,.05.04.09.1.09.05,0,.09-.04.09-.1,0-.05-.04-.09-.1-.09Z"/>
                <path class="cls-12" d="M326.76,180.06c-.06,0-.12.05-.12.12,0,.06.05.12.12.12.06,0,.12-.05.12-.12,0-.06-.05-.12-.12-.12Z"/>
                <path class="cls-12" d="M325.13,180.01c0,.15.13.27.27.26.15,0,.27-.13.26-.27,0-.15-.13-.27-.27-.26-.15,0-.27.13-.26.27Z"/>
                <path class="cls-12" d="M327.47,180.24c-.05,0-.1.05-.1.1,0,.05.05.1.1.1.05,0,.1-.05.1-.1,0-.05-.05-.1-.1-.1Z"/>
                <path class="cls-12" d="M328.53,179.02c-.07,0-.12.06-.12.12,0,.07.06.12.12.12.07,0,.12-.06.12-.12s-.06-.12-.12-.12Z"/>
                <path class="cls-12" d="M329.55,178.45s-.06.03-.06.06c0,.03.03.06.06.06s.06-.03.06-.06c0-.03-.03-.06-.06-.06Z"/>
                <path class="cls-12" d="M329.41,176.98c-.08,0-.15.07-.15.15,0,.08.07.15.15.15s.15-.07.15-.15c0-.08-.07-.15-.15-.15Z"/>
                <path class="cls-12" d="M328.72,175.35c0,.08.07.15.15.15.08,0,.15-.07.15-.15,0-.08-.07-.15-.15-.15-.08,0-.15.07-.15.15Z"/>
                <path class="cls-12" d="M327.25,174.2c.08,0,.15-.07.14-.15,0-.08-.07-.15-.15-.14-.08,0-.15.07-.14.15,0,.08.07.15.15.14Z"/>
                <path class="cls-12" d="M327.84,173.27c.12,0,.22-.1.22-.23,0-.12-.1-.22-.23-.22-.12,0-.22.1-.22.23,0,.12.1.22.23.22Z"/>
                <path class="cls-12" d="M328.77,172.8s.09-.04.09-.09c0-.05-.04-.09-.09-.09-.05,0-.09.04-.09.09,0,.05.04.09.09.09Z"/>
                <path class="cls-12" d="M330.65,173.78c0-.08-.06-.13-.14-.13-.08,0-.13.06-.13.14,0,.08.06.13.14.13.08,0,.13-.06.13-.14Z"/>
                <path class="cls-12" d="M330.67,174.92c.11,0,.2-.09.19-.2,0-.11-.09-.2-.2-.19-.11,0-.2.09-.19.2,0,.11.09.2.2.19Z"/>
                <path class="cls-12" d="M325.61,173.46s.08-.04.07-.08c0-.04-.04-.08-.08-.07-.04,0-.08.04-.07.08,0,.04.04.08.08.07Z"/>
                <path class="cls-12" d="M326.2,172.76s.04,0,.06,0c-.03.04-.06.1-.05.15,0,.13.11.23.24.23.13,0,.23-.11.23-.24,0-.13-.11-.23-.24-.23,0,0,0,0,0,0,.07-.07.12-.16.12-.27,0-.2-.17-.35-.36-.35-.2,0-.35.17-.35.36,0,.2.17.35.36.35Z"/>
                <path class="cls-12" d="M322.72,173.8c.1,0,.18-.09.18-.19,0-.1-.09-.18-.19-.18-.1,0-.18.09-.18.19s.09.18.19.18Z"/>
              </g>
            </g>
          </g>
        </g>
        <circle class="cls-12" cx="334.55" cy="154.57" r=".64"/>
        <path class="cls-12" d="M335.19,176.21c0,.35-.29.64-.64.64s-.64-.29-.64-.64.29-.64.64-.64.64.29.64.64Z"/>
      </g>
    </g>
    <text class="cls-22" transform="translate(321.08 164.69)"><tspan x="0" y="0">Forever</tspan></text>
    <g>
      <rect class="cls-15" x="325.18" y="168.99" width="19.9" height=".55"/>
      <path class="cls-15" d="M343.34,171.13c-.08,0-.17-.04-.22-.11-.09-.12-.06-.29.06-.38l1.74-1.26s.07-.07.07-.1c0-.03-.03-.07-.07-.1l-1.74-1.28c-.12-.09-.15-.26-.06-.38.09-.12.26-.15.38-.06l1.74,1.28c.19.14.29.34.29.54,0,.21-.11.41-.3.54l-1.74,1.26s-.1.05-.16.05Z"/>
    </g>
  </g>
</svg>