<?xml version="1.0" encoding="UTF-8"?>
<svg id="OBJECTS" xmlns="http://www.w3.org/2000/svg" xmlns:xlink="http://www.w3.org/1999/xlink" viewBox="0 0 146.49 169.14">
  <defs>
    <style>
      .cls-1 {
        fill: url(#linear-gradient-38);
      }

      .cls-1, .cls-2, .cls-3, .cls-4, .cls-5, .cls-6, .cls-7, .cls-8, .cls-9, .cls-10, .cls-11, .cls-12, .cls-13, .cls-14, .cls-15, .cls-16, .cls-17, .cls-18, .cls-19, .cls-20, .cls-21, .cls-22, .cls-23, .cls-24, .cls-25, .cls-26, .cls-27, .cls-28, .cls-29, .cls-30, .cls-31, .cls-32, .cls-33, .cls-34, .cls-35, .cls-36, .cls-37, .cls-38, .cls-39, .cls-40, .cls-41, .cls-42, .cls-43, .cls-44, .cls-45, .cls-46, .cls-47, .cls-48, .cls-49, .cls-50, .cls-51, .cls-52, .cls-53, .cls-54, .cls-55, .cls-56, .cls-57, .cls-58, .cls-59, .cls-60, .cls-61, .cls-62, .cls-63, .cls-64, .cls-65, .cls-66, .cls-67, .cls-68, .cls-69, .cls-70, .cls-71, .cls-72, .cls-73, .cls-74, .cls-75, .cls-76, .cls-77, .cls-78, .cls-79, .cls-80, .cls-81, .cls-82, .cls-83, .cls-84, .cls-85, .cls-86, .cls-87, .cls-88, .cls-89, .cls-90, .cls-91, .cls-92, .cls-93, .cls-94, .cls-95, .cls-96, .cls-97, .cls-98, .cls-99, .cls-100, .cls-101, .cls-102, .cls-103, .cls-104, .cls-105, .cls-106, .cls-107, .cls-108, .cls-109, .cls-110 {
        stroke-width: 0px;
      }

      .cls-2 {
        fill: #841e28;
      }

      .cls-3 {
        fill: url(#linear-gradient-12);
      }

      .cls-111 {
        opacity: .7;
      }

      .cls-4 {
        fill: url(#linear-gradient-17);
      }

      .cls-5 {
        fill: url(#linear-gradient-19);
      }

      .cls-6 {
        fill: url(#linear-gradient-33);
      }

      .cls-7 {
        fill: url(#linear-gradient);
      }

      .cls-8 {
        fill: url(#linear-gradient-62);
      }

      .cls-9 {
        fill: url(#linear-gradient-67);
      }

      .cls-10 {
        fill: url(#linear-gradient-57);
      }

      .cls-11 {
        opacity: .56;
      }

      .cls-11, .cls-87 {
        fill: #fff;
      }

      .cls-12 {
        fill: url(#linear-gradient-21);
      }

      .cls-13 {
        fill: url(#linear-gradient-6);
      }

      .cls-14 {
        fill: #9c2a30;
      }

      .cls-15 {
        fill: url(#radial-gradient-8);
      }

      .cls-16 {
        fill: url(#New_Gradient_Swatch_2-2);
      }

      .cls-112 {
        clip-path: url(#clippath-2);
      }

      .cls-17 {
        fill: url(#linear-gradient-42);
      }

      .cls-18 {
        fill: #363636;
      }

      .cls-19 {
        fill: url(#New_Gradient_Swatch_2-6);
      }

      .cls-20 {
        fill: url(#linear-gradient-15);
      }

      .cls-21 {
        fill: url(#linear-gradient-11);
      }

      .cls-22 {
        fill: url(#linear-gradient-73);
      }

      .cls-23 {
        fill: url(#linear-gradient-5);
      }

      .cls-24 {
        fill: none;
      }

      .cls-25 {
        fill: url(#linear-gradient-31);
      }

      .cls-26 {
        fill: url(#linear-gradient-71);
      }

      .cls-27 {
        fill: url(#linear-gradient-58);
      }

      .cls-28 {
        fill: url(#linear-gradient-63);
      }

      .cls-29 {
        fill: url(#linear-gradient-34);
      }

      .cls-30 {
        fill: url(#New_Gradient_Swatch_2);
      }

      .cls-31 {
        fill: #d5e7ef;
        opacity: .62;
      }

      .cls-113 {
        clip-path: url(#clippath-1);
      }

      .cls-32 {
        fill: url(#linear-gradient-41);
      }

      .cls-33 {
        fill: #a52b31;
      }

      .cls-34 {
        fill: url(#linear-gradient-40);
      }

      .cls-35 {
        fill: #774639;
      }

      .cls-36 {
        fill: url(#linear-gradient-66);
      }

      .cls-37 {
        fill: url(#linear-gradient-13);
      }

      .cls-38 {
        fill: url(#linear-gradient-23);
      }

      .cls-39 {
        fill: url(#linear-gradient-25);
      }

      .cls-40 {
        fill: url(#linear-gradient-43);
      }

      .cls-41 {
        fill: url(#linear-gradient-16);
      }

      .cls-42 {
        fill: url(#linear-gradient-22);
      }

      .cls-43 {
        fill: url(#linear-gradient-54);
      }

      .cls-44 {
        fill: url(#New_Gradient_Swatch_1-3);
      }

      .cls-45 {
        fill: url(#linear-gradient-55);
      }

      .cls-46 {
        fill: url(#linear-gradient-35);
      }

      .cls-47 {
        fill: url(#linear-gradient-50);
      }

      .cls-48 {
        fill: url(#linear-gradient-32);
      }

      .cls-49 {
        fill: url(#linear-gradient-60);
      }

      .cls-50 {
        fill: url(#linear-gradient-59);
      }

      .cls-51 {
        fill: url(#linear-gradient-20);
      }

      .cls-52 {
        fill: url(#New_Gradient_Swatch_1-6);
      }

      .cls-53 {
        fill: url(#linear-gradient-14);
      }

      .cls-54 {
        fill: url(#linear-gradient-2);
      }

      .cls-55 {
        fill: url(#linear-gradient-52);
      }

      .cls-56 {
        fill: url(#New_Gradient_Swatch_1);
      }

      .cls-57 {
        fill: url(#linear-gradient-45);
      }

      .cls-58 {
        fill: url(#linear-gradient-7);
      }

      .cls-59 {
        fill: url(#radial-gradient-2);
      }

      .cls-60 {
        fill: url(#linear-gradient-39);
      }

      .cls-61 {
        fill: url(#radial-gradient-7);
      }

      .cls-62 {
        fill: url(#linear-gradient-3);
      }

      .cls-63 {
        fill: url(#linear-gradient-69);
      }

      .cls-114 {
        clip-path: url(#clippath);
      }

      .cls-64 {
        fill: url(#New_Gradient_Swatch_1-2);
      }

      .cls-65 {
        fill: url(#radial-gradient-5);
      }

      .cls-66 {
        fill: url(#linear-gradient-9);
      }

      .cls-67 {
        fill: url(#linear-gradient-27);
      }

      .cls-68 {
        fill: url(#New_Gradient_Swatch_2-3);
      }

      .cls-69 {
        fill: url(#radial-gradient);
      }

      .cls-70 {
        fill: url(#linear-gradient-53);
      }

      .cls-71 {
        fill: url(#linear-gradient-65);
      }

      .cls-72 {
        fill: url(#linear-gradient-36);
      }

      .cls-73 {
        fill: url(#linear-gradient-48);
      }

      .cls-74 {
        fill: url(#linear-gradient-49);
      }

      .cls-75 {
        fill: #4a4949;
      }

      .cls-76 {
        fill: url(#linear-gradient-8);
      }

      .cls-77 {
        fill: url(#linear-gradient-47);
      }

      .cls-78 {
        fill: url(#radial-gradient-10);
      }

      .cls-79 {
        fill: url(#linear-gradient-24);
      }

      .cls-80 {
        fill: url(#linear-gradient-26);
      }

      .cls-81 {
        fill: url(#linear-gradient-61);
      }

      .cls-82 {
        fill: url(#New_Gradient_Swatch_1-4);
      }

      .cls-83 {
        fill: url(#linear-gradient-18);
      }

      .cls-84 {
        fill: url(#New_Gradient_Swatch_2-7);
      }

      .cls-85 {
        fill: url(#linear-gradient-51);
      }

      .cls-86 {
        fill: url(#linear-gradient-30);
      }

      .cls-88 {
        fill: url(#linear-gradient-44);
      }

      .cls-89 {
        fill: url(#linear-gradient-68);
      }

      .cls-90 {
        fill: url(#linear-gradient-72);
      }

      .cls-91 {
        fill: url(#linear-gradient-29);
      }

      .cls-92 {
        fill: url(#linear-gradient-46);
      }

      .cls-93 {
        fill: url(#linear-gradient-64);
      }

      .cls-94 {
        fill: url(#radial-gradient-6);
      }

      .cls-95 {
        fill: url(#linear-gradient-28);
      }

      .cls-96 {
        fill: url(#linear-gradient-56);
      }

      .cls-97 {
        fill: url(#linear-gradient-10);
      }

      .cls-98 {
        fill: url(#radial-gradient-9);
      }

      .cls-99 {
        fill: url(#New_Gradient_Swatch_1-5);
      }

      .cls-100 {
        fill: url(#radial-gradient-3);
      }

      .cls-101 {
        fill: url(#linear-gradient-70);
      }

      .cls-102 {
        fill: url(#linear-gradient-74);
      }

      .cls-103 {
        fill: url(#New_Gradient_Swatch_2-5);
      }

      .cls-104 {
        fill: url(#linear-gradient-4);
      }

      .cls-105 {
        fill: url(#New_Gradient_Swatch_2-4);
      }

      .cls-106 {
        fill: #090909;
      }

      .cls-107 {
        fill: url(#linear-gradient-37);
      }

      .cls-108 {
        fill: url(#New_Gradient_Swatch_1-7);
      }

      .cls-109 {
        fill: url(#radial-gradient-4);
      }

      .cls-110 {
        fill: url(#linear-gradient-75);
      }
    </style>
    <clipPath id="clippath">
      <rect class="cls-24" x="-4548.06" y="8.13" width="3120.16" height="142.49"/>
    </clipPath>
    <clipPath id="clippath-1">
      <rect class="cls-24" x="155.08" y="-545.22" width="390" height="844"/>
    </clipPath>
    <linearGradient id="New_Gradient_Swatch_2" data-name="New Gradient Swatch 2" x1="100.23" y1="81.22" x2="100.23" y2="46.31" gradientUnits="userSpaceOnUse">
      <stop offset="0" stop-color="#4070b7"/>
      <stop offset="1" stop-color="#66a8de"/>
    </linearGradient>
    <radialGradient id="New_Gradient_Swatch_1" data-name="New Gradient Swatch 1" cx="-3486.45" cy="-236.68" fx="-3486.45" fy="-236.68" r="31.68" gradientTransform="translate(8452.63 369.17) scale(2.4 1.21)" gradientUnits="userSpaceOnUse">
      <stop offset="0" stop-color="#fff" stop-opacity="0"/>
      <stop offset=".29" stop-color="#000" stop-opacity="0"/>
      <stop offset=".91" stop-color="#f1f1f1"/>
    </radialGradient>
    <linearGradient id="New_Gradient_Swatch_2-2" data-name="New Gradient Swatch 2" x1="70.66" x2="70.66" xlink:href="#New_Gradient_Swatch_2"/>
    <radialGradient id="New_Gradient_Swatch_1-2" data-name="New Gradient Swatch 1" cx="-3498.86" fx="-3498.86" r="31.68" xlink:href="#New_Gradient_Swatch_1"/>
    <linearGradient id="New_Gradient_Swatch_2-3" data-name="New Gradient Swatch 2" x1="136.21" y1="80.16" x2="136.21" y2="66.42" xlink:href="#New_Gradient_Swatch_2"/>
    <radialGradient id="New_Gradient_Swatch_1-3" data-name="New Gradient Swatch 1" cx="-3470.64" fx="-3470.64" r="31.68" xlink:href="#New_Gradient_Swatch_1"/>
    <linearGradient id="linear-gradient" x1="192.6" y1="95.92" x2="119.01" y2="95.92" gradientUnits="userSpaceOnUse">
      <stop offset=".36" stop-color="#99cee5"/>
      <stop offset=".47" stop-color="#63add4"/>
      <stop offset=".71" stop-color="#4d88a5"/>
      <stop offset=".74" stop-color="#4a829e"/>
      <stop offset=".77" stop-color="#3f6f89"/>
    </linearGradient>
    <linearGradient id="linear-gradient-2" x1="137.25" y1="181.68" x2="137.25" y2="145.21" gradientUnits="userSpaceOnUse">
      <stop offset="0" stop-color="#fff"/>
      <stop offset=".15" stop-color="#d4d4d4"/>
      <stop offset=".32" stop-color="#adadad"/>
      <stop offset=".48" stop-color="#8e8e8e"/>
      <stop offset=".64" stop-color="#777"/>
      <stop offset=".8" stop-color="#6a6a6a"/>
      <stop offset=".93" stop-color="#666"/>
      <stop offset=".93" stop-color="#000"/>
    </linearGradient>
    <linearGradient id="linear-gradient-3" x1="146.6" y1="116.51" x2="146.6" y2="122.18" xlink:href="#linear-gradient-2"/>
    <linearGradient id="linear-gradient-4" x1="142.28" y1="116.51" x2="142.28" y2="122.18" xlink:href="#linear-gradient-2"/>
    <linearGradient id="linear-gradient-5" x1="137.48" y1="116.51" x2="137.48" y2="122.18" xlink:href="#linear-gradient-2"/>
    <linearGradient id="linear-gradient-6" x1="133.17" y1="116.51" x2="133.17" y2="122.18" xlink:href="#linear-gradient-2"/>
    <linearGradient id="linear-gradient-7" x1="128.37" y1="116.51" x2="128.37" y2="122.18" xlink:href="#linear-gradient-2"/>
    <linearGradient id="linear-gradient-8" x1="124.06" y1="116.51" x2="124.06" y2="122.18" xlink:href="#linear-gradient-2"/>
    <linearGradient id="linear-gradient-9" x1="119.26" y1="116.51" x2="119.26" y2="122.18" xlink:href="#linear-gradient-2"/>
    <linearGradient id="linear-gradient-10" x1="114.94" y1="116.51" x2="114.94" y2="122.18" xlink:href="#linear-gradient-2"/>
    <linearGradient id="linear-gradient-11" x1="167.22" y1="118.82" x2="167.22" y2="119.46" xlink:href="#linear-gradient-2"/>
    <linearGradient id="linear-gradient-12" x1="82.81" y1="116.51" x2="82.81" y2="122.18" xlink:href="#linear-gradient-2"/>
    <linearGradient id="linear-gradient-13" x1="78.49" y1="116.51" x2="78.49" y2="122.18" xlink:href="#linear-gradient-2"/>
    <linearGradient id="linear-gradient-14" x1="73.69" y1="116.51" x2="73.69" y2="122.18" xlink:href="#linear-gradient-2"/>
    <linearGradient id="linear-gradient-15" x1="69.38" y1="116.51" x2="69.38" y2="122.18" xlink:href="#linear-gradient-2"/>
    <linearGradient id="linear-gradient-16" x1="64.58" y1="116.51" x2="64.58" y2="122.18" xlink:href="#linear-gradient-2"/>
    <linearGradient id="linear-gradient-17" x1="105.83" y1="116.51" x2="105.83" y2="122.18" xlink:href="#linear-gradient-2"/>
    <linearGradient id="linear-gradient-18" x1="101.03" y1="116.51" x2="101.03" y2="122.18" xlink:href="#linear-gradient-2"/>
    <linearGradient id="linear-gradient-19" x1="114.94" y1="116.51" x2="114.94" y2="122.18" xlink:href="#linear-gradient-2"/>
    <linearGradient id="linear-gradient-20" x1="110.15" y1="116.51" x2="110.15" y2="122.18" xlink:href="#linear-gradient-2"/>
    <linearGradient id="linear-gradient-21" x1="96.72" y1="116.51" x2="96.72" y2="122.18" xlink:href="#linear-gradient-2"/>
    <linearGradient id="linear-gradient-22" x1="91.92" y1="116.51" x2="91.92" y2="122.18" xlink:href="#linear-gradient-2"/>
    <linearGradient id="linear-gradient-23" x1="87.6" y1="116.51" x2="87.6" y2="122.18" xlink:href="#linear-gradient-2"/>
    <linearGradient id="linear-gradient-24" x1="60.74" y1="116.51" x2="60.74" y2="122.18" xlink:href="#linear-gradient-2"/>
    <linearGradient id="linear-gradient-25" x1="55.95" y1="116.51" x2="55.95" y2="122.18" xlink:href="#linear-gradient-2"/>
    <linearGradient id="linear-gradient-26" x1="51.63" y1="116.51" x2="51.63" y2="122.18" xlink:href="#linear-gradient-2"/>
    <linearGradient id="linear-gradient-27" x1="46.83" y1="116.51" x2="46.83" y2="122.18" xlink:href="#linear-gradient-2"/>
    <linearGradient id="linear-gradient-28" x1="42.52" y1="116.51" x2="42.52" y2="122.18" xlink:href="#linear-gradient-2"/>
    <linearGradient id="linear-gradient-29" x1="37.72" y1="116.51" x2="37.72" y2="122.18" xlink:href="#linear-gradient-2"/>
    <linearGradient id="linear-gradient-30" x1="33.41" y1="116.51" x2="33.41" y2="122.18" xlink:href="#linear-gradient-2"/>
    <linearGradient id="linear-gradient-31" x1="28.61" y1="116.51" x2="28.61" y2="122.18" xlink:href="#linear-gradient-2"/>
    <linearGradient id="linear-gradient-32" x1="24.29" y1="116.51" x2="24.29" y2="122.18" xlink:href="#linear-gradient-2"/>
    <linearGradient id="linear-gradient-33" x1="19.5" y1="116.51" x2="19.5" y2="122.18" xlink:href="#linear-gradient-2"/>
    <linearGradient id="linear-gradient-34" x1="15.18" y1="116.51" x2="15.18" y2="122.18" xlink:href="#linear-gradient-2"/>
    <linearGradient id="linear-gradient-35" x1="10.38" y1="116.51" x2="10.38" y2="122.18" xlink:href="#linear-gradient-2"/>
    <linearGradient id="linear-gradient-36" x1="62.66" y1="118.82" x2="62.66" y2="119.46" xlink:href="#linear-gradient-2"/>
    <radialGradient id="radial-gradient" cx="244.2" cy="-420.29" fx="244.2" fy="-420.29" r="21.21" gradientTransform="translate(-214.1 543.75) rotate(6.16) skewX(.03)" gradientUnits="userSpaceOnUse">
      <stop offset="0" stop-color="#fff"/>
      <stop offset=".67" stop-color="#f1f1f1"/>
      <stop offset=".7" stop-color="#979797"/>
    </radialGradient>
    <radialGradient id="radial-gradient-2" cx="72.47" cy="152.03" fx="72.47" fy="152.03" r="2.75" gradientUnits="userSpaceOnUse">
      <stop offset="0" stop-color="#fff"/>
      <stop offset=".97" stop-color="#f1f1f1"/>
      <stop offset="1" stop-color="#979797"/>
    </radialGradient>
    <linearGradient id="linear-gradient-37" x1="134.78" y1="78.25" x2="134.78" y2="56.12" xlink:href="#linear-gradient-2"/>
    <radialGradient id="radial-gradient-3" cx="307.86" cy="-427.1" fx="307.86" fy="-427.1" r="15.25" gradientTransform="translate(-214.1 543.75) rotate(6.16) skewX(.03)" gradientUnits="userSpaceOnUse">
      <stop offset="0" stop-color="#da0000"/>
      <stop offset=".69" stop-color="#b61c20"/>
      <stop offset="1" stop-color="#a52b31"/>
    </radialGradient>
    <radialGradient id="radial-gradient-4" cx="307.86" cy="-427.14" fx="307.86" fy="-427.14" r="21.21" xlink:href="#radial-gradient"/>
    <radialGradient id="radial-gradient-5" cx="136.34" fx="136.34" r="2.75" xlink:href="#radial-gradient-2"/>
    <clipPath id="clippath-2">
      <rect class="cls-24" x="-243.51" y="-544.59" width="390" height="844"/>
    </clipPath>
    <linearGradient id="New_Gradient_Swatch_2-4" data-name="New Gradient Swatch 2" x1="91.64" y1="81.84" x2="91.64" y2="46.94" xlink:href="#New_Gradient_Swatch_2"/>
    <radialGradient id="New_Gradient_Swatch_1-4" data-name="New Gradient Swatch 1" cx="-3490.04" cy="-236.16" fx="-3490.04" fy="-236.16" r="31.68" xlink:href="#New_Gradient_Swatch_1"/>
    <linearGradient id="New_Gradient_Swatch_2-5" data-name="New Gradient Swatch 2" x1="62.07" y1="81.84" x2="62.07" y2="46.94" xlink:href="#New_Gradient_Swatch_2"/>
    <radialGradient id="New_Gradient_Swatch_1-5" data-name="New Gradient Swatch 1" cx="-3502.44" cy="-236.16" fx="-3502.44" fy="-236.16" r="31.68" xlink:href="#New_Gradient_Swatch_1"/>
    <linearGradient id="New_Gradient_Swatch_2-6" data-name="New Gradient Swatch 2" x1="127.62" y1="80.79" x2="127.62" y2="67.05" xlink:href="#New_Gradient_Swatch_2"/>
    <radialGradient id="New_Gradient_Swatch_1-6" data-name="New Gradient Swatch 1" cx="-3474.23" cy="-236.16" fx="-3474.23" fy="-236.16" r="31.68" xlink:href="#New_Gradient_Swatch_1"/>
    <linearGradient id="New_Gradient_Swatch_2-7" data-name="New Gradient Swatch 2" x1="157.44" y1="81.84" x2="157.44" y2="46.94" xlink:href="#New_Gradient_Swatch_2"/>
    <radialGradient id="New_Gradient_Swatch_1-7" data-name="New Gradient Swatch 1" cx="-3462.62" cy="-236.16" fx="-3462.62" fy="-236.16" r="31.68" xlink:href="#New_Gradient_Swatch_1"/>
    <linearGradient id="linear-gradient-38" x1="184.01" y1="96.54" x2="110.42" y2="96.54" xlink:href="#linear-gradient"/>
    <linearGradient id="linear-gradient-39" x1="128.66" y1="182.3" x2="128.66" y2="145.84" xlink:href="#linear-gradient-2"/>
    <linearGradient id="linear-gradient-40" x1="142.8" y1="117.14" x2="142.8" y2="122.81" xlink:href="#linear-gradient-2"/>
    <linearGradient id="linear-gradient-41" x1="138.01" y1="117.14" x2="138.01" y2="122.81" xlink:href="#linear-gradient-2"/>
    <linearGradient id="linear-gradient-42" x1="133.69" y1="117.14" x2="133.69" y2="122.81" xlink:href="#linear-gradient-2"/>
    <linearGradient id="linear-gradient-43" x1="128.89" y1="117.14" x2="128.89" y2="122.81" xlink:href="#linear-gradient-2"/>
    <linearGradient id="linear-gradient-44" x1="124.58" y1="117.14" x2="124.58" y2="122.81" xlink:href="#linear-gradient-2"/>
    <linearGradient id="linear-gradient-45" x1="119.78" y1="117.14" x2="119.78" y2="122.81" xlink:href="#linear-gradient-2"/>
    <linearGradient id="linear-gradient-46" x1="115.47" y1="117.14" x2="115.47" y2="122.81" xlink:href="#linear-gradient-2"/>
    <linearGradient id="linear-gradient-47" x1="110.67" y1="117.14" x2="110.67" y2="122.81" xlink:href="#linear-gradient-2"/>
    <linearGradient id="linear-gradient-48" x1="106.35" y1="117.14" x2="106.35" y2="122.81" xlink:href="#linear-gradient-2"/>
    <linearGradient id="linear-gradient-49" x1="158.63" y1="119.45" x2="158.63" y2="120.09" xlink:href="#linear-gradient-2"/>
    <linearGradient id="linear-gradient-50" x1="74.22" y1="117.14" x2="74.22" y2="122.81" xlink:href="#linear-gradient-2"/>
    <linearGradient id="linear-gradient-51" x1="69.9" y1="117.14" x2="69.9" y2="122.81" xlink:href="#linear-gradient-2"/>
    <linearGradient id="linear-gradient-52" x1="65.1" y1="117.14" x2="65.1" y2="122.81" xlink:href="#linear-gradient-2"/>
    <linearGradient id="linear-gradient-53" x1="60.79" y1="117.14" x2="60.79" y2="122.81" xlink:href="#linear-gradient-2"/>
    <linearGradient id="linear-gradient-54" x1="55.99" y1="117.14" x2="55.99" y2="122.81" xlink:href="#linear-gradient-2"/>
    <linearGradient id="linear-gradient-55" x1="97.24" y1="117.14" x2="97.24" y2="122.81" xlink:href="#linear-gradient-2"/>
    <linearGradient id="linear-gradient-56" x1="92.44" y1="117.14" x2="92.44" y2="122.81" xlink:href="#linear-gradient-2"/>
    <linearGradient id="linear-gradient-57" x1="106.35" y1="117.14" x2="106.35" y2="122.81" xlink:href="#linear-gradient-2"/>
    <linearGradient id="linear-gradient-58" x1="101.56" y1="117.14" x2="101.56" y2="122.81" xlink:href="#linear-gradient-2"/>
    <linearGradient id="linear-gradient-59" x1="88.13" y1="117.14" x2="88.13" y2="122.81" xlink:href="#linear-gradient-2"/>
    <linearGradient id="linear-gradient-60" x1="83.33" y1="117.14" x2="83.33" y2="122.81" xlink:href="#linear-gradient-2"/>
    <linearGradient id="linear-gradient-61" x1="79.01" y1="117.14" x2="79.01" y2="122.81" xlink:href="#linear-gradient-2"/>
    <linearGradient id="linear-gradient-62" x1="52.15" y1="117.14" x2="52.15" y2="122.81" xlink:href="#linear-gradient-2"/>
    <linearGradient id="linear-gradient-63" x1="47.36" y1="117.14" x2="47.36" y2="122.81" xlink:href="#linear-gradient-2"/>
    <linearGradient id="linear-gradient-64" x1="43.04" y1="117.14" x2="43.04" y2="122.81" xlink:href="#linear-gradient-2"/>
    <linearGradient id="linear-gradient-65" x1="38.24" y1="117.14" x2="38.24" y2="122.81" xlink:href="#linear-gradient-2"/>
    <linearGradient id="linear-gradient-66" x1="33.93" y1="117.14" x2="33.93" y2="122.81" xlink:href="#linear-gradient-2"/>
    <linearGradient id="linear-gradient-67" x1="29.13" y1="117.14" x2="29.13" y2="122.81" xlink:href="#linear-gradient-2"/>
    <linearGradient id="linear-gradient-68" x1="24.82" y1="117.14" x2="24.82" y2="122.81" xlink:href="#linear-gradient-2"/>
    <linearGradient id="linear-gradient-69" x1="20.02" y1="117.14" x2="20.02" y2="122.81" xlink:href="#linear-gradient-2"/>
    <linearGradient id="linear-gradient-70" x1="15.7" y1="117.14" x2="15.7" y2="122.81" xlink:href="#linear-gradient-2"/>
    <linearGradient id="linear-gradient-71" x1="10.91" y1="117.14" x2="10.91" y2="122.81" xlink:href="#linear-gradient-2"/>
    <linearGradient id="linear-gradient-72" x1="6.59" y1="117.14" x2="6.59" y2="122.81" xlink:href="#linear-gradient-2"/>
    <linearGradient id="linear-gradient-73" x1="1.79" y1="117.14" x2="1.79" y2="122.81" xlink:href="#linear-gradient-2"/>
    <linearGradient id="linear-gradient-74" x1="54.07" y1="119.45" x2="54.07" y2="120.09" xlink:href="#linear-gradient-2"/>
    <radialGradient id="radial-gradient-6" cx="235.7" cy="-418.74" fx="235.7" fy="-418.74" r="21.21" xlink:href="#radial-gradient"/>
    <radialGradient id="radial-gradient-7" cx="63.88" cy="152.66" fx="63.88" fy="152.66" r="2.75" xlink:href="#radial-gradient-2"/>
    <linearGradient id="linear-gradient-75" x1="126.19" y1="78.88" x2="126.19" y2="56.75" xlink:href="#linear-gradient-2"/>
    <radialGradient id="radial-gradient-8" cx="299.37" cy="-425.55" fx="299.37" fy="-425.55" r="15.25" xlink:href="#radial-gradient-3"/>
    <radialGradient id="radial-gradient-9" cx="299.37" cy="-425.59" fx="299.37" fy="-425.59" r="21.21" xlink:href="#radial-gradient"/>
    <radialGradient id="radial-gradient-10" cx="127.75" cy="152.66" fx="127.75" fy="152.66" r="2.75" xlink:href="#radial-gradient-2"/>
  </defs>
  <g class="cls-114">
    <path class="cls-35" d="M100.7,30.99l-5.53-1.83-41.64,126.02V35.9h13.41v-11.65h-2354.23v11.65h25.53l-19.35,58.57c-8.13,9.55-14.91,20.28-20.06,31.89V35.9h13.41v-11.65h-2354.23v11.65h225.64l18.04,54.6c-24-26.02-58.34-42.35-96.44-42.35h-41.11c-72.36,0-131.23,58.87-131.23,131.23v94.04H54.98v-94.04c0-3.03-.14-6.02-.34-9L100.7,30.99ZM1.88,35.9l17.9,54.17c-23.98-25.76-58.14-41.92-96.03-41.92h-41.11c-37.89,0-72.05,16.16-96.03,41.92l17.9-54.17H1.88ZM-292.69,35.9l18.04,54.6c-24-26.01-58.34-42.34-96.43-42.34h-41.11c-38.09,0-72.44,16.33-96.43,42.34l18.04-54.6h197.89ZM-587.78,35.9l17.9,54.17c-23.98-25.76-58.14-41.92-96.03-41.92h-41.11c-38.1,0-72.44,16.33-96.43,42.34l18.04-54.6h197.63ZM-882.61,35.9l17.9,54.17c-23.98-25.76-58.14-41.92-96.03-41.92h-41.11c-37.89,0-72.05,16.16-96.03,41.92l17.9-54.18h197.36ZM-1177.17,35.9l18.04,54.6c-24-26.01-58.34-42.34-96.43-42.34h-41.11c-38.1,0-72.44,16.33-96.44,42.35l18.04-54.6h197.89ZM-1472.26,35.9l17.9,54.17c-23.98-25.76-58.14-41.92-96.03-41.92h-41.11c-37.89,0-72.06,16.16-96.03,41.92l17.9-54.18h197.37ZM-1766.83,35.9l18.04,54.6c-24-26.01-58.34-42.34-96.43-42.34h-41.11c-37.89,0-72.05,16.16-96.03,41.92l17.9-54.18h197.63ZM-2061.65,35.9l18.04,54.6c-24-26.02-58.34-42.35-96.44-42.35h-41.11c-35.06,0-66.96,13.82-90.52,36.3l16.05-48.56h193.98ZM-2291.9,127.08l-9.29,28.1v-.28c1.98-9.74,5.13-19.06,9.29-27.82ZM-2307.01,35.9v100.45c-4.24-12.18-10.22-23.54-17.65-33.79l-22.03-66.66h39.68ZM-2352.83,35.9l17.9,54.17c-23.98-25.76-58.14-41.92-96.03-41.92h-41.11c-37.89,0-72.05,16.16-96.03,41.92l17.9-54.17h197.36ZM-2647.4,35.9l18.04,54.6c-24-26.01-58.34-42.34-96.43-42.34h-41.11c-38.09,0-72.44,16.33-96.43,42.34l18.04-54.6h197.89ZM-2942.49,35.9l17.9,54.17c-23.98-25.76-58.14-41.92-96.03-41.92h-41.11c-38.1,0-72.44,16.33-96.43,42.34l18.04-54.6h197.63ZM-3237.32,35.9l17.9,54.17c-23.98-25.76-58.14-41.92-96.03-41.92h-41.11c-37.89,0-72.05,16.16-96.03,41.92l17.9-54.18h197.36ZM-3531.88,35.9l18.04,54.6c-24-26.01-58.34-42.34-96.43-42.34h-41.11c-38.1,0-72.44,16.33-96.44,42.35l18.04-54.6h197.89ZM-3826.98,35.9l17.9,54.17c-23.98-25.76-58.14-41.92-96.03-41.92h-41.11c-37.89,0-72.06,16.16-96.03,41.92l17.9-54.18h197.37ZM-4121.54,35.9l18.04,54.6c-24-26.01-58.34-42.34-96.43-42.34h-41.11c-37.89,0-72.05,16.16-96.03,41.92l17.9-54.18h197.63ZM-4372.27,264.69h-286.09v-85.3c0-67.54,54.95-122.49,122.49-122.49h41.11c44.5,0,83.53,23.86,104.98,59.46l16.93,51.23c.37,3.89.58,7.82.58,11.81v85.3ZM-4370.81,136.35c-4.15-11.9-9.96-23.03-17.16-33.1l-22.26-67.35h39.42v100.45ZM-4364.99,136.35V35.9h39.68l-22.03,66.65c-7.43,10.26-13.42,21.62-17.66,33.8ZM-4077.44,264.69h-286.09v-85.3c0-3.63.19-7.21.5-10.75l17.59-53.23c21.57-35.07,60.3-58.51,104.4-58.51h41.11c44.5,0,83.52,23.86,104.97,59.44l16.94,51.25c.37,3.88.58,7.81.58,11.79v85.3ZM-4075.99,136.35c-4.15-11.91-9.96-23.03-17.16-33.11l-22.26-67.34h39.42v100.45ZM-4070.16,136.35V35.9h39.68l-22.03,66.66c-7.43,10.25-13.41,21.62-17.65,33.79ZM-3782.61,264.69h-286.09v-85.3c0-3.63.19-7.21.5-10.76l17.58-53.21c21.57-35.07,60.3-58.51,104.4-58.51h41.11c44.1,0,82.83,23.44,104.4,58.5l17.59,53.23c.31,3.55.5,7.13.5,10.75v85.3ZM-3781.16,136.35c-4.24-12.18-10.22-23.54-17.66-33.8l-22.03-66.65h39.68v100.45ZM-3775.33,136.35V35.9h39.42l-22.26,67.35c-7.2,10.07-13.01,21.19-17.16,33.1ZM-3487.78,264.69h-286.09v-85.3c0-3.98.21-7.92.58-11.81l16.93-51.23c21.45-35.59,60.48-59.46,104.98-59.46h41.11c44.5,0,83.52,23.86,104.97,59.44l16.94,51.25c.37,3.88.58,7.81.58,11.79v85.3ZM-3486.33,136.35c-4.15-11.91-9.96-23.03-17.17-33.11l-22.25-67.34h39.42v100.45ZM-3480.5,136.35V35.9h39.68l-22.03,66.66c-7.43,10.25-13.41,21.61-17.65,33.79ZM-3192.96,264.69h-286.09v-85.3c0-3.63.19-7.21.5-10.76l17.59-53.21c21.57-35.07,60.3-58.51,104.4-58.51h41.11c44.1,0,82.83,23.44,104.4,58.5l17.59,53.23c.31,3.55.5,7.13.5,10.75v85.3ZM-3191.5,136.35c-4.24-12.18-10.22-23.54-17.65-33.79l-22.03-66.66h39.68v100.45ZM-3185.67,136.35V35.9h39.42l-22.26,67.35c-7.2,10.07-13.01,21.19-17.16,33.1ZM-2898.13,264.69h-286.09v-85.3c0-3.98.21-7.91.58-11.79l16.94-51.25c21.45-35.59,60.48-59.44,104.97-59.44h41.11c44.1,0,82.83,23.44,104.4,58.51l17.59,53.22c.31,3.55.5,7.13.5,10.76v85.3ZM-2896.67,136.35c-4.24-12.18-10.22-23.54-17.65-33.79l-22.03-66.66h39.68v100.45ZM-2890.85,136.35V35.9h39.42l-22.26,67.35c-7.2,10.07-13.02,21.2-17.16,33.1ZM-2603.3,264.69h-286.09v-85.3c0-3.98.21-7.91.58-11.79l16.94-51.26c21.45-35.58,60.48-59.44,104.97-59.44h41.11c44.5,0,83.52,23.86,104.97,59.44l16.94,51.25c.37,3.88.58,7.81.58,11.79v85.3ZM-2601.84,136.35c-4.15-11.9-9.96-23.03-17.16-33.1l-22.26-67.35h39.42v100.45ZM-2596.02,136.35V35.9h39.68l-22.03,66.66c-7.43,10.25-13.41,21.62-17.65,33.79ZM-2594.56,264.69v-85.3c0-3.63.19-7.21.5-10.75l17.59-53.23c21.57-35.07,60.29-58.5,104.4-58.5h41.11c44.1,0,82.83,23.44,104.4,58.5l15.35,46.45c-.77,5.74-1.18,11.59-1.18,17.54v85.3h-282.17ZM-2017.56,264.69h-282.17v-85.3c0-3.03-.14-6.02-.34-9l21.56-65.24c22.4-29.31,57.71-48.25,97.36-48.25h41.11c44.5,0,83.53,23.86,104.98,59.46l16.93,51.23c.37,3.89.58,7.82.58,11.81v85.3ZM-2016.1,136.35c-4.15-11.9-9.96-23.03-17.16-33.1l-22.26-67.35h39.42v100.45ZM-2010.28,136.35V35.9h39.68l-22.03,66.65c-7.43,10.26-13.42,21.62-17.66,33.8ZM-1722.73,264.69h-286.09v-85.3c0-3.63.19-7.21.5-10.75l17.59-53.23c21.57-35.07,60.3-58.51,104.4-58.51h41.11c44.5,0,83.52,23.86,104.97,59.44l16.94,51.25c.37,3.88.58,7.81.58,11.79v85.3ZM-1721.27,136.35c-4.15-11.91-9.96-23.03-17.16-33.11l-22.25-67.34h39.42v100.45ZM-1715.45,136.35V35.9h39.68l-22.03,66.66c-7.43,10.25-13.41,21.62-17.65,33.79ZM-1427.9,264.69h-286.09v-85.3c0-3.63.19-7.21.5-10.76l17.58-53.21c21.57-35.07,60.3-58.51,104.4-58.51h41.11c44.1,0,82.83,23.44,104.4,58.5l17.59,53.23c.31,3.55.5,7.13.5,10.75v85.3ZM-1426.45,136.35c-4.24-12.18-10.22-23.54-17.66-33.8l-22.03-66.65h39.68v100.45ZM-1420.62,136.35V35.9h39.42l-22.26,67.35c-7.2,10.07-13.01,21.19-17.16,33.1ZM-1133.07,264.69h-286.09v-85.3c0-3.98.21-7.92.58-11.81l16.93-51.23c21.45-35.59,60.48-59.46,104.98-59.46h41.11c44.5,0,83.52,23.86,104.97,59.44l16.94,51.25c.37,3.88.58,7.81.58,11.79v85.3ZM-1131.62,136.35c-4.15-11.91-9.96-23.03-17.17-33.11l-22.25-67.34h39.42v100.45ZM-1125.79,136.35V35.9h39.68l-22.03,66.66c-7.43,10.25-13.41,21.61-17.65,33.79ZM-838.25,264.69h-286.09v-85.3c0-3.63.19-7.21.5-10.76l17.59-53.21c21.57-35.07,60.3-58.51,104.4-58.51h41.11c44.1,0,82.83,23.44,104.4,58.5l17.59,53.23c.31,3.55.5,7.13.5,10.75v85.3ZM-836.79,136.35c-4.24-12.18-10.22-23.54-17.65-33.79l-22.03-66.66h39.68v100.45ZM-830.96,136.35V35.9h39.42l-22.26,67.35c-7.2,10.07-13.01,21.19-17.16,33.1ZM-543.42,264.69h-286.09v-85.3c0-3.98.21-7.91.58-11.79l16.94-51.25c21.45-35.59,60.48-59.44,104.97-59.44h41.11c44.1,0,82.83,23.44,104.4,58.51l17.59,53.22c.31,3.55.5,7.13.5,10.76v85.3ZM-541.96,136.35c-4.24-12.18-10.22-23.54-17.65-33.79l-22.03-66.66h39.68v100.45ZM-536.13,136.35V35.9h39.42l-22.26,67.35c-7.2,10.07-13.02,21.2-17.16,33.1ZM-248.59,264.69h-286.09v-85.3c0-3.98.21-7.91.58-11.79l16.94-51.26c21.46-35.58,60.48-59.44,104.97-59.44h41.11c44.5,0,83.52,23.86,104.97,59.44l16.94,51.25c.37,3.88.58,7.81.58,11.79v85.3ZM-247.13,136.35c-4.15-11.9-9.96-23.03-17.16-33.1l-22.26-67.35h39.42v100.45ZM-241.3,136.35V35.9h39.68l-22.03,66.66c-7.43,10.25-13.41,21.62-17.65,33.79ZM46.24,264.69H-239.85v-85.3c0-3.63.19-7.21.5-10.75l17.59-53.23c21.57-35.07,60.29-58.5,104.4-58.5h41.11c44.1,0,82.83,23.44,104.4,58.5l17.59,53.23c.31,3.55.5,7.13.5,10.75v85.3ZM47.7,136.35c-4.24-12.18-10.22-23.54-17.65-33.79L8.02,35.9h39.68v100.45Z"/>
  </g>
  <g class="cls-113">
    <g>
      <rect class="cls-18" x="136.05" y="151.31" width="64.75" height="1.44"/>
      <rect class="cls-18" x="72.26" y="151.31" width="64.75" height="1.44"/>
      <g>
        <path class="cls-30" d="M113.98,78.14v-11.72h-27.34v11.72c-.96,0-1.19.49-1.19,1.1s.44.92,1.05.92,1.05-.31,1.05-1.27h.08c0,.96.49,1.1,1.1,1.1s1.1-.14,1.1-1.1h.08c0,.96.49,1.1,1.1,1.1s1.1-.14,1.1-1.1h.08c0,.96.49,1.1,1.1,1.1s1.1-.14,1.1-1.1h.08c0,.96.49,1.1,1.1,1.1s1.1-.14,1.1-1.1h.08c0,.96.49,1.1,1.1,1.1s1.1-.14,1.1-1.1h.08c0,.96.49,1.1,1.1,1.1s1.1-.14,1.1-1.1h.08c0,.96.49,1.1,1.1,1.1s1.1-.14,1.1-1.1h.08c0,.96.49,1.1,1.1,1.1s1.1-.14,1.1-1.1h.08c0,.96.49,1.1,1.1,1.1s1.1-.14,1.1-1.1h.08c0,.96.49,1.1,1.1,1.1s1.1-.14,1.1-1.1h.08c0,.96.49,1.1,1.1,1.1s1.1-.14,1.1-1.1h.08c0,.96.49,1.27,1.1,1.27s1.18-.4,1.18-1.01-.54-1.01-1.02-1.01Z"/>
        <g>
          <rect class="cls-56" x="88.08" y="67.38" width="25.9" height="43.17"/>
          <rect class="cls-11" x="107.75" y="67.38" width="3.84" height="43.17"/>
          <rect class="cls-11" x="104.87" y="67.38" width="3.84" height="43.17"/>
        </g>
        <path class="cls-16" d="M84.25,78.14v-11.72h-27.34v11.72c-.48,0-1.03.49-1.03,1.1s.53.92,1.13.92,1.13-.31,1.13-1.27h.08c0,.96.49,1.1,1.1,1.1s1.1-.14,1.1-1.1h.08c0,.96.49,1.1,1.1,1.1s1.1-.14,1.1-1.1h.08c0,.96.49,1.1,1.1,1.1s1.1-.14,1.1-1.1h.08c0,.96.49,1.1,1.1,1.1s1.1-.14,1.1-1.1h.08c0,.96.49,1.1,1.1,1.1s1.1-.14,1.1-1.1h.08c0,.96.49,1.1,1.1,1.1s1.1-.14,1.1-1.1h.08c0,.96.49,1.1,1.1,1.1s1.1-.14,1.1-1.1h.08c0,.96.49,1.1,1.1,1.1s1.1-.14,1.1-1.1h.08c0,.96.49,1.1,1.1,1.1s1.1-.14,1.1-1.1h.08c0,.96.49,1.1,1.1,1.1s1.1-.14,1.1-1.1h.08c0,.96.49,1.1,1.1,1.1s1.1-.14,1.1-1.1h.08c0,.96.49,1.27,1.1,1.27s1.01-.4,1.01-1.01-.23-1.01-1.19-1.01Z"/>
        <rect class="cls-64" x="58.35" y="67.38" width="25.9" height="43.17"/>
        <rect class="cls-11" x="78.49" y="67.38" width="3.84" height="43.17"/>
        <rect class="cls-11" x="75.13" y="67.38" width="4.32" height="43.17"/>
      </g>
      <path class="cls-68" d="M149.96,78.14v-11.72h-27.34v11.72c-.96,0-1.18.49-1.18,1.1s.45.92,1.06.92,1.06-.31,1.06-1.27h.08c0,.96.49,1.1,1.1,1.1s1.1-.14,1.1-1.1h.08c0,.96.49,1.1,1.1,1.1s1.1-.14,1.1-1.1h.08c0,.96.49,1.1,1.1,1.1s1.1-.14,1.1-1.1h.08c0,.96.49,1.1,1.1,1.1s1.1-.14,1.1-1.1h.08c0,.96.49,1.1,1.1,1.1s1.1-.14,1.1-1.1h.08c0,.96.49,1.1,1.1,1.1s1.1-.14,1.1-1.1h.08c0,.96.49,1.1,1.1,1.1s1.1-.14,1.1-1.1h.08c0,.96.49,1.1,1.1,1.1s1.1-.14,1.1-1.1h.08c0,.96.49,1.1,1.1,1.1s1.1-.14,1.1-1.1h.08c0,.96.49,1.1,1.1,1.1s1.1-.14,1.1-1.1h.08c0,.96.49,1.1,1.1,1.1s1.1-.14,1.1-1.1h.08c0,.96.49,1.27,1.1,1.27s1.17-.4,1.17-1.01-.55-1.01-1.03-1.01Z"/>
      <g>
        <rect class="cls-44" x="125.97" y="67.38" width="25.9" height="43.17"/>
        <rect class="cls-11" x="144.2" y="67.38" width="4.32" height="43.17"/>
        <rect class="cls-11" x="141.32" y="67.38" width="3.84" height="43.17"/>
      </g>
      <path class="cls-7" d="M119.26,61.14v69.55h95.93V61.14h-95.93ZM148.04,105c0,2.8-2.27,5.07-5.07,5.07h-10.97c-2.8,0-5.07-2.27-5.07-5.07v-31.11c0-2.8,2.27-5.07,5.07-5.07h10.97c2.8,0,5.07,2.27,5.07,5.07v31.11ZM177.29,105c0,2.8-2.27,5.07-5.07,5.07h-10.97c-2.8,0-5.07-2.27-5.07-5.07v-31.11c0-2.8,2.27-5.07,5.07-5.07h10.97c2.8,0,5.07,2.27,5.07,5.07v31.11ZM207.03,105c0,2.8-2.27,5.07-5.07,5.07h-10.97c-2.8,0-5.07-2.27-5.07-5.07v-31.11c0-2.8,2.27-5.07,5.07-5.07h10.97c2.8,0,5.07,2.27,5.07,5.07v31.11Z"/>
      <path class="cls-14" d="M119.26,61.14v69.55h95.93V61.14h-95.93ZM148.04,105c0,2.8-2.27,5.07-5.07,5.07h-10.97c-2.8,0-5.07-2.27-5.07-5.07v-31.11c0-2.8,2.27-5.07,5.07-5.07h10.97c2.8,0,5.07,2.27,5.07,5.07v31.11ZM177.29,105c0,2.8-2.27,5.07-5.07,5.07h-10.97c-2.8,0-5.07-2.27-5.07-5.07v-31.11c0-2.8,2.27-5.07,5.07-5.07h10.97c2.8,0,5.07,2.27,5.07,5.07v31.11ZM207.03,105c0,2.8-2.27,5.07-5.07,5.07h-10.97c-2.8,0-5.07-2.27-5.07-5.07v-31.11c0-2.8,2.27-5.07,5.07-5.07h10.97c2.8,0,5.07,2.27,5.07,5.07v31.11Z"/>
      <path class="cls-14" d="M23.81,61.14v69.55h95.45V61.14H23.81ZM52.11,105c0,2.8-2.27,5.07-5.07,5.07h-10.97c-2.8,0-5.07-2.27-5.07-5.07v-31.11c0-2.8,2.27-5.07,5.07-5.07h10.97c2.8,0,5.07,2.27,5.07,5.07v31.11ZM81.85,105c0,2.8-2.27,5.07-5.07,5.07h-10.97c-2.8,0-5.07-2.27-5.07-5.07v-31.11c0-2.8,2.27-5.07,5.07-5.07h10.97c2.8,0,5.07,2.27,5.07,5.07v31.11ZM111.11,105c0,2.8-2.27,5.07-5.07,5.07h-10.97c-2.8,0-5.07-2.27-5.07-5.07v-31.11c0-2.8,2.27-5.07,5.07-5.07h10.97c2.8,0,5.07,2.27,5.07,5.07v31.11Z"/>
      <rect class="cls-54" x="53.55" y="128.77" width="167.39" height="20.62"/>
      <rect class="cls-106" x="53.07" y="64.98" width="166.91" height="1.44"/>
      <rect class="cls-2" x="53.07" y="62.1" width="166.91" height="3.36"/>
      <g>
        <rect class="cls-62" x="146.12" y="119.18" width=".96" height="11.51"/>
        <rect class="cls-104" x="141.8" y="119.18" width=".96" height="11.51"/>
        <rect class="cls-23" x="137.01" y="119.18" width=".96" height="11.51"/>
        <rect class="cls-13" x="132.69" y="119.18" width=".96" height="11.51"/>
        <rect class="cls-58" x="127.89" y="119.18" width=".96" height="11.51"/>
        <rect class="cls-76" x="123.58" y="119.18" width=".96" height="11.51"/>
        <rect class="cls-66" x="118.78" y="119.18" width=".96" height="11.51"/>
        <rect class="cls-97" x="114.46" y="119.18" width=".96" height="11.51"/>
        <rect class="cls-21" x="114.46" y="119.18" width="105.52" height=".96"/>
      </g>
      <g>
        <rect class="cls-3" x="82.33" y="119.18" width=".96" height="11.51"/>
        <rect class="cls-37" x="78.01" y="119.18" width=".96" height="11.51"/>
        <rect class="cls-53" x="73.21" y="119.18" width=".96" height="11.51"/>
        <rect class="cls-20" x="68.9" y="119.18" width=".96" height="11.51"/>
        <rect class="cls-41" x="64.1" y="119.18" width=".96" height="11.51"/>
        <rect class="cls-4" x="105.35" y="119.18" width=".96" height="11.51"/>
        <rect class="cls-83" x="100.55" y="119.18" width=".96" height="11.51"/>
        <rect class="cls-5" x="114.46" y="119.18" width=".96" height="11.51"/>
        <rect class="cls-51" x="109.67" y="119.18" width=".96" height="11.51"/>
        <rect class="cls-12" x="96.24" y="119.18" width=".96" height="11.51"/>
        <rect class="cls-42" x="91.44" y="119.18" width=".96" height="11.51"/>
        <rect class="cls-38" x="87.12" y="119.18" width=".96" height="11.51"/>
        <rect class="cls-79" x="60.26" y="119.18" width=".96" height="11.51"/>
        <rect class="cls-39" x="55.47" y="119.18" width=".96" height="11.51"/>
        <rect class="cls-80" x="51.15" y="119.18" width=".96" height="11.51"/>
        <rect class="cls-67" x="46.36" y="119.18" width=".96" height="11.51"/>
        <rect class="cls-95" x="42.04" y="119.18" width=".96" height="11.51"/>
        <rect class="cls-91" x="37.24" y="119.18" width=".96" height="11.51"/>
        <rect class="cls-86" x="32.93" y="119.18" width=".96" height="11.51"/>
        <rect class="cls-25" x="28.13" y="119.18" width=".96" height="11.51"/>
        <rect class="cls-48" x="23.81" y="119.18" width=".96" height="11.51"/>
        <rect class="cls-6" x="19.02" y="119.18" width=".96" height="11.51"/>
        <rect class="cls-29" x="14.7" y="119.18" width=".96" height="11.51"/>
        <rect class="cls-46" x="9.9" y="119.18" width=".96" height="11.51"/>
        <rect class="cls-72" x="9.9" y="119.18" width="105.52" height=".96"/>
      </g>
      <g>
        <g>
          <rect class="cls-33" x="66.52" y="145.22" width="14.7" height=".51" transform="translate(-80.2 199.14) rotate(-82.28)"/>
          <rect class="cls-33" x="69.84" y="138.48" width=".51" height="14.7" transform="translate(-50.44 37.89) rotate(-22.49)"/>
          <polygon class="cls-33" points="72.96 152.32 72.65 152.72 61.04 143.74 61.34 143.34 72.96 152.32"/>
          <rect class="cls-33" x="65.16" y="144.16" width=".51" height="14.66" transform="translate(-93.44 196.16) rotate(-82.35)"/>
          <polygon class="cls-33" points="72.46 152.25 72.65 152.72 59.09 158.32 58.9 157.85 72.46 152.25"/>
          <polygon class="cls-33" points="72.25 152.41 72.65 152.72 63.69 164.36 63.3 164.05 72.25 152.41"/>
          <rect class="cls-33" x="64.07" y="159.72" width="14.7" height=".51" transform="translate(-96.65 209.42) rotate(-82.33)"/>
          <rect class="cls-33" x="74.95" y="152.27" width=".51" height="14.7" transform="translate(-55.34 40.91) rotate(-22.49)"/>
          <polygon class="cls-33" points="72.34 153.12 72.65 152.72 84.26 161.7 83.95 162.1 72.34 153.12"/>
          <rect class="cls-33" x="79.63" y="146.61" width=".51" height="14.67" transform="translate(-83.29 212.72) rotate(-82.38)"/>
          <rect class="cls-33" x="72.19" y="149.9" width="14.67" height=".51" transform="translate(-51.16 41.57) rotate(-22.37)"/>
          <rect class="cls-33" x="69.98" y="146.8" width="14.69" height=".51" transform="translate(-86.37 118.66) rotate(-52.42)"/>
        </g>
        <g>
          <polygon class="cls-2" points="73.15 152.77 72.65 152.72 74.22 138.1 74.72 138.16 73.15 152.77"/>
          <polygon class="cls-2" points="73.11 152.52 72.65 152.72 66.72 139.27 67.18 139.07 73.11 152.52"/>
          <polygon class="cls-2" points="72.95 152.31 72.65 152.72 60.81 144.05 61.1 143.64 72.95 152.31"/>
          <rect class="cls-2" x="65.13" y="144.35" width=".51" height="14.66" transform="translate(-92.41 200.5) rotate(-83.87)"/>
          <polygon class="cls-2" points="72.44 152.26 72.65 152.72 59.24 158.67 59.03 158.2 72.44 152.26"/>
          <polygon class="cls-2" points="72.24 152.42 72.65 152.72 64 164.59 63.59 164.29 72.24 152.42"/>
          <rect class="cls-2" x="64.26" y="159.75" width="14.7" height=".51" transform="translate(-95.16 214.01) rotate(-83.83)"/>
          <polygon class="cls-2" points="72.19 152.93 72.65 152.72 78.58 166.17 78.12 166.37 72.19 152.93"/>
          <polygon class="cls-2" points="72.35 153.13 72.65 152.72 84.49 161.39 84.19 161.8 72.35 153.13"/>
          <rect class="cls-2" x="79.66" y="146.43" width=".51" height="14.66" transform="translate(-81.47 216.88) rotate(-83.9)"/>
          <rect class="cls-2" x="72.12" y="149.73" width="14.67" height=".51" transform="translate(-53.89 44.98) rotate(-23.87)"/>
          <polygon class="cls-2" points="73.06 153.02 72.65 152.72 81.3 140.85 81.71 141.15 73.06 153.02"/>
        </g>
        <path class="cls-18" d="M74.69,135.69c-9-.97-17.08,5.56-18.05,14.58-.97,9.02,5.54,17.13,14.54,18.1,9,.97,17.08-5.56,18.05-14.58.97-9.02-5.54-17.13-14.54-18.1ZM71.31,167.19c-8.35-.9-14.4-8.42-13.5-16.79.9-8.37,8.4-14.43,16.75-13.53,8.35.9,14.4,8.42,13.5,16.79-.9,8.37-8.4,14.43-16.75,13.53Z"/>
        <path class="cls-2" d="M74.56,136.87c-8.35-.9-15.85,5.16-16.75,13.53-.9,8.37,5.14,15.89,13.5,16.79,8.35.9,15.85-5.16,16.75-13.53.9-8.37-5.15-15.89-13.5-16.79ZM71.39,166.44c-7.94-.86-13.68-8-12.82-15.96.85-7.96,7.98-13.71,15.92-12.86,7.94.86,13.68,8,12.82,15.96-.85,7.96-7.98,13.71-15.92,12.86Z"/>
        <path class="cls-69" d="M74.48,137.62c-7.94-.86-15.06,4.9-15.92,12.86-.85,7.96,4.89,15.1,12.82,15.96,7.94.86,15.06-4.9,15.92-12.86.85-7.96-4.89-15.1-12.82-15.96ZM71.5,165.43c-7.38-.8-12.72-7.44-11.93-14.84.79-7.4,7.42-12.75,14.8-11.96,7.38.8,12.72,7.44,11.93,14.84-.79,7.4-7.42,12.75-14.8,11.96Z"/>
      </g>
      <g>
        <path class="cls-59" d="M75.22,152.03c0,1.52-1.23,2.75-2.75,2.75s-2.75-1.23-2.75-2.75,1.23-2.75,2.75-2.75,2.75,1.23,2.75,2.75Z"/>
        <path class="cls-75" d="M74.51,152.03c0,1.13-.91,2.04-2.04,2.04s-2.04-.91-2.04-2.04.91-2.04,2.04-2.04,2.04.91,2.04,2.04Z"/>
        <circle class="cls-2" cx="72.47" cy="152.03" r="1.18"/>
      </g>
      <path class="cls-107" d="M212.98,49.15H56.58c-11.02,2.88-8.33,13.43-8.33,13.43h173.06s2.69-10.55-8.33-13.43Z"/>
      <path class="cls-2" d="M149,105.2c0,3.22-2.61,5.83-5.83,5.83h-11.36c-3.22,0-5.83-2.61-5.83-5.83v-31.03c0-3.22,2.61-5.83,5.83-5.83h11.36c3.22,0,5.83,2.61,5.83,5.83v31.03ZM147.08,74.09c0-2.38-1.93-4.31-4.31-4.31h-11.05c-2.38,0-4.31,1.93-4.31,4.31v30.71c0,2.38,1.93,4.31,4.31,4.31h11.05c2.38,0,4.31-1.93,4.31-4.31v-30.71Z"/>
      <path class="cls-2" d="M112.54,105.2c0,3.22-2.61,5.83-5.83,5.83h-11.36c-3.22,0-5.83-2.61-5.83-5.83v-31.03c0-3.22,2.61-5.83,5.83-5.83h11.36c3.22,0,5.83,2.61,5.83,5.83v31.03ZM110.63,74.09c0-2.38-1.93-4.31-4.31-4.31h-11.05c-2.38,0-4.31,1.93-4.31,4.31v30.71c0,2.38,1.93,4.31,4.31,4.31h11.05c2.38,0,4.31-1.93,4.31-4.31v-30.71Z"/>
      <path class="cls-2" d="M83.29,105.2c0,3.22-2.61,5.83-5.83,5.83h-11.36c-3.22,0-5.83-2.61-5.83-5.83v-31.03c0-3.22,2.61-5.83,5.83-5.83h11.36c3.22,0,5.83,2.61,5.83,5.83v31.03ZM81.37,74.09c0-2.38-1.93-4.31-4.31-4.31h-11.05c-2.38,0-4.31,1.93-4.31,4.31v30.71c0,2.38,1.93,4.31,4.31,4.31h11.05c2.38,0,4.31-1.93,4.31-4.31v-30.71Z"/>
      <g class="cls-111">
        <path class="cls-87" d="M341.11,4.14c-2.75-5.95-12.97-10.38-25.2-10.38s-22.64,4.51-25.28,10.54c-.61-.03-1.23-.05-1.86-.05-4.99,0-9.52,1.02-12.9,2.68-2.76-1.23-6.3-1.99-10.18-2.05-4.8-5.12-14.83-8.65-26.47-8.65-9.39,0-17.73,2.3-23.13,5.88-1.67-.21-3.39-.33-5.18-.33-8.1,0-15.17,2.26-19.11,5.63-5.79-4.15-15.14-6.86-25.71-6.86-8.38,0-15.98,1.7-21.66,4.47-3.16-1.25-7.09-2-11.37-2-10.42,0-18.87,4.42-18.87,9.88,0,.1.02.2.03.3-2.12-.58-4.54-1-7.11-1-3.14,0-10.53,1.61-10.53,4.23,0,3.8,12.21,5.2,18.25,1.94,0,0,18.41,6.04,39.24.04,0,0,16.96,7.54,39.24.02,0,0,10.66,4.74,19.86.01,0,0,17.44,5.75,35.85,0,0,0,15.02,5.24,28.1,0,0,0,13.08,3.97,20.35,0,0,0,16.96,7.01,29.07,0,0,0,28.29,6.25,37.64,0-1.01-6.95-10.5-12.65-23.07-14.31Z"/>
        <path class="cls-31" d="M363.75,16.8c-.04-.1-.08-.2-.11-.3-.18-.46-.39-.91-.64-1.35-9.18,1.8-17.97,2.6-24.68-.41-14.16-6.48-17.69-1.85-33.62-3.7-.91,0-2.28-.74-3.17-1.7-8.92,10.08-41.07,7.26-46.38-.15,0,3.7-14.47,7.37-17.76,7.69-15.99,1.58-33.83,2.91-46.22-4.5-11.27,8.26-36.87,3.28-45.72-1.35-1.77-1.85-12.39,0-17.69-1.85-3.78-.79-5.94-2.09-7.04-3.76-.03.01-.06.03-.1.05-.44.2-.86.41-1.26.63-.12.06-.23.13-.34.2-.3.17-.58.35-.86.53-.14.09-.28.19-.41.29-.21.15-.41.31-.61.47-.16.13-.32.27-.47.4-.11.1-.23.2-.33.31-.2.2-.38.4-.55.6-.07.08-.13.16-.2.23-.18.23-.35.47-.5.72-.04.06-.08.13-.11.19-.15.26-.28.53-.39.8-.02.04-.03.09-.05.14-.11.29-.2.58-.26.88,0,.02,0,.04-.01.06-.06.32-.09.64-.09.97,0,.05,0,.09.01.14,0,.05.01.14.02.14h.23v.02s-.18-.02-.22-.03c-2.1-.57-4.54-.89-7.07-.89-.74,0-1.49.03-2.2.09-3.51.48-8.37,1.94-8.37,4.06,0,3.8,12.2,5.2,18.24,1.94,0,0,18.41,6.04,39.24.04,0,0,16.95,7.54,39.24.02,0,0,10.66,4.74,19.86.01,0,0,17.44,5.75,35.85,0,0,0,15.02,5.24,28.1,0,0,0,13.08,3.97,20.35,0,0,0,16.96,7.01,29.07,0,0,0,28.29,6.25,37.64,0-.05-.35-.14-.7-.24-1.05-.06-.2-.12-.4-.19-.6Z"/>
      </g>
      <g>
        <g>
          <rect class="cls-33" x="130.4" y="145.22" width="14.7" height=".51" transform="translate(-24.91 262.43) rotate(-82.28)"/>
          <rect class="cls-33" x="133.71" y="138.48" width=".51" height="14.7" transform="translate(-45.6 62.35) rotate(-22.49)"/>
          <polygon class="cls-33" points="136.83 152.32 136.52 152.72 124.91 143.74 125.22 143.34 136.83 152.32"/>
          <rect class="cls-33" x="129.04" y="144.16" width=".51" height="14.66" transform="translate(-38.02 259.53) rotate(-82.37)"/>
          <polygon class="cls-33" points="136.33 152.25 136.52 152.72 122.96 158.32 122.77 157.85 136.33 152.25"/>
          <polygon class="cls-33" points="136.12 152.41 136.52 152.72 127.57 164.36 127.17 164.05 136.12 152.41"/>
          <rect class="cls-33" x="127.95" y="159.72" width="14.7" height=".51" transform="translate(-41.28 272.73) rotate(-82.34)"/>
          <rect class="cls-33" x="138.83" y="152.27" width=".51" height="14.7" transform="translate(-50.46 65.31) rotate(-22.48)"/>
          <polygon class="cls-33" points="136.22 153.12 136.52 152.72 148.14 161.7 147.83 162.1 136.22 153.12"/>
          <rect class="cls-33" x="143.5" y="146.61" width=".51" height="14.67" transform="translate(-27.94 275.95) rotate(-82.36)"/>
          <polygon class="cls-33" points="136.72 153.19 136.52 152.72 150.08 147.12 150.28 147.59 136.72 153.19"/>
          <rect class="cls-33" x="133.86" y="146.8" width="14.69" height=".51" transform="translate(-61.45 169.28) rotate(-52.42)"/>
        </g>
        <g>
          <polygon class="cls-2" points="137.03 152.77 136.52 152.72 138.09 138.1 138.59 138.16 137.03 152.77"/>
          <polygon class="cls-2" points="136.99 152.52 136.52 152.72 130.59 139.27 131.05 139.07 136.99 152.52"/>
          <polygon class="cls-2" points="136.82 152.31 136.52 152.72 124.68 144.05 124.98 143.64 136.82 152.31"/>
          <rect class="cls-2" x="129.01" y="144.35" width=".51" height="14.66" transform="translate(-35.3 264.09) rotate(-83.9)"/>
          <polygon class="cls-2" points="136.32 152.26 136.52 152.72 123.11 158.67 122.91 158.2 136.32 152.26"/>
          <polygon class="cls-2" points="136.11 152.42 136.52 152.72 127.87 164.59 127.47 164.29 136.11 152.42"/>
          <rect class="cls-2" x="128.14" y="159.75" width="14.7" height=".51" transform="translate(-38.14 277.52) rotate(-83.83)"/>
          <polygon class="cls-2" points="136.06 152.93 136.52 152.72 142.45 166.17 141.99 166.37 136.06 152.93"/>
          <polygon class="cls-2" points="136.22 153.13 136.52 152.72 148.37 161.39 148.07 161.8 136.22 153.13"/>
          <rect class="cls-2" x="143.53" y="146.43" width=".51" height="14.66" transform="translate(-24.44 280.31) rotate(-83.87)"/>
          <polygon class="cls-2" points="136.73 153.18 136.52 152.72 149.93 146.77 150.14 147.24 136.73 153.18"/>
          <polygon class="cls-2" points="136.93 153.02 136.52 152.72 145.17 140.85 145.58 141.15 136.93 153.02"/>
        </g>
        <path class="cls-18" d="M138.56,135.69c-9-.97-17.08,5.56-18.05,14.58-.97,9.02,5.54,17.13,14.54,18.1,9,.97,17.08-5.56,18.05-14.58.97-9.02-5.54-17.13-14.54-18.1ZM135.18,167.19c-8.35-.9-14.4-8.42-13.5-16.79.9-8.37,8.4-14.43,16.75-13.53,8.35.9,14.4,8.42,13.5,16.79-.9,8.37-8.4,14.43-16.75,13.53Z"/>
        <path class="cls-100" d="M138.44,136.87c-8.35-.9-15.85,5.16-16.75,13.53-.9,8.37,5.14,15.89,13.5,16.79,8.35.9,15.85-5.16,16.75-13.53.9-8.37-5.15-15.89-13.5-16.79ZM135.26,166.44c-7.94-.86-13.68-8-12.82-15.96.85-7.96,7.98-13.71,15.92-12.86,7.94.86,13.68,8,12.82,15.96-.85,7.96-7.98,13.71-15.92,12.86Z"/>
        <path class="cls-109" d="M138.36,137.62c-7.94-.86-15.06,4.9-15.92,12.86-.85,7.96,4.89,15.1,12.82,15.96,7.94.86,15.06-4.9,15.92-12.86.85-7.96-4.89-15.1-12.82-15.96ZM135.37,165.43c-7.38-.8-12.72-7.44-11.93-14.84.79-7.4,7.42-12.75,14.8-11.96,7.38.8,12.72,7.44,11.93,14.84-.79,7.4-7.42,12.75-14.8,11.96Z"/>
      </g>
      <g>
        <path class="cls-65" d="M139.09,152.03c0,1.52-1.23,2.75-2.75,2.75s-2.75-1.23-2.75-2.75,1.23-2.75,2.75-2.75,2.75,1.23,2.75,2.75Z"/>
        <path class="cls-75" d="M138.38,152.03c0,1.13-.91,2.04-2.04,2.04s-2.04-.91-2.04-2.04.91-2.04,2.04-2.04,2.04.91,2.04,2.04Z"/>
        <path class="cls-2" d="M137.53,152.03c0,.65-.53,1.18-1.18,1.18s-1.18-.53-1.18-1.18.53-1.18,1.18-1.18,1.18.53,1.18,1.18Z"/>
      </g>
    </g>
  </g>
  <g class="cls-112">
    <g>
      <rect class="cls-18" x="127.46" y="151.94" width="64.75" height="1.44"/>
      <rect class="cls-18" x="63.67" y="151.94" width="64.75" height="1.44"/>
      <g>
        <path class="cls-105" d="M105.39,78.77v-11.72h-27.34v11.72c-.96,0-1.19.49-1.19,1.1s.44.92,1.05.92,1.05-.31,1.05-1.27h.08c0,.96.49,1.1,1.1,1.1s1.1-.14,1.1-1.1h.08c0,.96.49,1.1,1.1,1.1s1.1-.14,1.1-1.1h.08c0,.96.49,1.1,1.1,1.1s1.1-.14,1.1-1.1h.08c0,.96.49,1.1,1.1,1.1s1.1-.14,1.1-1.1h.08c0,.96.49,1.1,1.1,1.1s1.1-.14,1.1-1.1h.08c0,.96.49,1.1,1.1,1.1s1.1-.14,1.1-1.1h.08c0,.96.49,1.1,1.1,1.1s1.1-.14,1.1-1.1h.08c0,.96.49,1.1,1.1,1.1s1.1-.14,1.1-1.1h.08c0,.96.49,1.1,1.1,1.1s1.1-.14,1.1-1.1h.08c0,.96.49,1.1,1.1,1.1s1.1-.14,1.1-1.1h.08c0,.96.49,1.1,1.1,1.1s1.1-.14,1.1-1.1h.08c0,.96.49,1.27,1.1,1.27s1.18-.4,1.18-1.01-.54-1.01-1.02-1.01Z"/>
        <g>
          <rect class="cls-82" x="79.49" y="68.01" width="25.9" height="43.17"/>
          <rect class="cls-11" x="99.16" y="68.01" width="3.84" height="43.17"/>
          <rect class="cls-11" x="96.28" y="68.01" width="3.84" height="43.17"/>
        </g>
        <path class="cls-103" d="M75.66,78.77v-11.72h-27.34v11.72c-.48,0-1.03.49-1.03,1.1s.53.92,1.13.92,1.13-.31,1.13-1.27h.08c0,.96.49,1.1,1.1,1.1s1.1-.14,1.1-1.1h.08c0,.96.49,1.1,1.1,1.1s1.1-.14,1.1-1.1h.08c0,.96.49,1.1,1.1,1.1s1.1-.14,1.1-1.1h.08c0,.96.49,1.1,1.1,1.1s1.1-.14,1.1-1.1h.08c0,.96.49,1.1,1.1,1.1s1.1-.14,1.1-1.1h.08c0,.96.49,1.1,1.1,1.1s1.1-.14,1.1-1.1h.08c0,.96.49,1.1,1.1,1.1s1.1-.14,1.1-1.1h.08c0,.96.49,1.1,1.1,1.1s1.1-.14,1.1-1.1h.08c0,.96.49,1.1,1.1,1.1s1.1-.14,1.1-1.1h.08c0,.96.49,1.1,1.1,1.1s1.1-.14,1.1-1.1h.08c0,.96.49,1.1,1.1,1.1s1.1-.14,1.1-1.1h.08c0,.96.49,1.27,1.1,1.27s1.01-.4,1.01-1.01-.23-1.01-1.19-1.01Z"/>
        <rect class="cls-99" x="49.76" y="68.01" width="25.9" height="43.17"/>
        <rect class="cls-11" x="69.9" y="68.01" width="3.84" height="43.17"/>
        <rect class="cls-11" x="66.54" y="68.01" width="4.32" height="43.17"/>
      </g>
      <path class="cls-19" d="M141.37,78.77v-11.72h-27.34v11.72c-.96,0-1.18.49-1.18,1.1s.45.92,1.06.92,1.06-.31,1.06-1.27h.08c0,.96.49,1.1,1.1,1.1s1.1-.14,1.1-1.1h.08c0,.96.49,1.1,1.1,1.1s1.1-.14,1.1-1.1h.08c0,.96.49,1.1,1.1,1.1s1.1-.14,1.1-1.1h.08c0,.96.49,1.1,1.1,1.1s1.1-.14,1.1-1.1h.08c0,.96.49,1.1,1.1,1.1s1.1-.14,1.1-1.1h.08c0,.96.49,1.1,1.1,1.1s1.1-.14,1.1-1.1h.08c0,.96.49,1.1,1.1,1.1s1.1-.14,1.1-1.1h.08c0,.96.49,1.1,1.1,1.1s1.1-.14,1.1-1.1h.08c0,.96.49,1.1,1.1,1.1s1.1-.14,1.1-1.1h.08c0,.96.49,1.1,1.1,1.1s1.1-.14,1.1-1.1h.08c0,.96.49,1.1,1.1,1.1s1.1-.14,1.1-1.1h.08c0,.96.49,1.27,1.1,1.27s1.17-.4,1.17-1.01-.55-1.01-1.03-1.01Z"/>
      <g>
        <rect class="cls-52" x="117.38" y="68.01" width="25.9" height="43.17"/>
        <rect class="cls-11" x="135.61" y="68.01" width="4.32" height="43.17"/>
        <rect class="cls-11" x="132.73" y="68.01" width="3.84" height="43.17"/>
      </g>
      <path class="cls-84" d="M171.1,78.77v-11.72h-27.34v11.72c-.48,0-1.1.49-1.1,1.1s.49.92,1.1.92,1.1-.31,1.1-1.27h.08c0,.96.49,1.1,1.1,1.1s1.1-.14,1.1-1.1h.08c0,.96.49,1.1,1.1,1.1s1.1-.14,1.1-1.1h.08c0,.96.49,1.1,1.1,1.1s1.1-.14,1.1-1.1h.08c0,.96.49,1.1,1.1,1.1s1.1-.14,1.1-1.1h.08c0,.96.49,1.1,1.1,1.1s1.1-.14,1.1-1.1h.08c0,.96.49,1.1,1.1,1.1s1.1-.14,1.1-1.1h.08c0,.96.49,1.1,1.1,1.1s1.1-.14,1.1-1.1h.08c0,.96.49,1.1,1.1,1.1s1.1-.14,1.1-1.1h.08c0,.96.49,1.1,1.1,1.1s1.1-.14,1.1-1.1h.08c0,.96.49,1.1,1.1,1.1s1.1-.14,1.1-1.1h.08c0,.96.49,1.1,1.1,1.1s1.1-.14,1.1-1.1h.08c0,.96.49,1.27,1.1,1.27s1.08-.4,1.08-1.01-.64-1.01-1.12-1.01Z"/>
      <rect class="cls-108" x="145.2" y="68.01" width="25.9" height="43.17"/>
      <path class="cls-1" d="M110.67,61.77v69.55h95.93V61.77h-95.93ZM139.45,105.62c0,2.8-2.27,5.07-5.07,5.07h-10.97c-2.8,0-5.07-2.27-5.07-5.07v-31.11c0-2.8,2.27-5.07,5.07-5.07h10.97c2.8,0,5.07,2.27,5.07,5.07v31.11ZM168.7,105.62c0,2.8-2.27,5.07-5.07,5.07h-10.97c-2.8,0-5.07-2.27-5.07-5.07v-31.11c0-2.8,2.27-5.07,5.07-5.07h10.97c2.8,0,5.07,2.27,5.07,5.07v31.11ZM198.44,105.62c0,2.8-2.27,5.07-5.07,5.07h-10.97c-2.8,0-5.07-2.27-5.07-5.07v-31.11c0-2.8,2.27-5.07,5.07-5.07h10.97c2.8,0,5.07,2.27,5.07,5.07v31.11Z"/>
      <path class="cls-14" d="M110.67,61.77v69.55h95.93V61.77h-95.93ZM139.45,105.62c0,2.8-2.27,5.07-5.07,5.07h-10.97c-2.8,0-5.07-2.27-5.07-5.07v-31.11c0-2.8,2.27-5.07,5.07-5.07h10.97c2.8,0,5.07,2.27,5.07,5.07v31.11ZM168.7,105.62c0,2.8-2.27,5.07-5.07,5.07h-10.97c-2.8,0-5.07-2.27-5.07-5.07v-31.11c0-2.8,2.27-5.07,5.07-5.07h10.97c2.8,0,5.07,2.27,5.07,5.07v31.11ZM198.44,105.62c0,2.8-2.27,5.07-5.07,5.07h-10.97c-2.8,0-5.07-2.27-5.07-5.07v-31.11c0-2.8,2.27-5.07,5.07-5.07h10.97c2.8,0,5.07,2.27,5.07,5.07v31.11Z"/>
      <path class="cls-14" d="M15.22,61.77v69.55h95.45V61.77H15.22ZM43.52,105.62c0,2.8-2.27,5.07-5.07,5.07h-10.97c-2.8,0-5.07-2.27-5.07-5.07v-31.11c0-2.8,2.27-5.07,5.07-5.07h10.97c2.8,0,5.07,2.27,5.07,5.07v31.11ZM73.26,105.62c0,2.8-2.27,5.07-5.07,5.07h-10.97c-2.8,0-5.07-2.27-5.07-5.07v-31.11c0-2.8,2.27-5.07,5.07-5.07h10.97c2.8,0,5.07,2.27,5.07,5.07v31.11ZM102.52,105.62c0,2.8-2.27,5.07-5.07,5.07h-10.97c-2.8,0-5.07-2.27-5.07-5.07v-31.11c0-2.8,2.27-5.07,5.07-5.07h10.97c2.8,0,5.07,2.27,5.07,5.07v31.11Z"/>
      <rect class="cls-60" x="44.96" y="129.4" width="167.39" height="20.62"/>
      <rect class="cls-106" x="44.48" y="65.61" width="166.91" height="1.44"/>
      <rect class="cls-2" x="44.48" y="62.73" width="166.91" height="3.36"/>
      <g>
        <rect class="cls-34" x="142.32" y="119.81" width=".96" height="11.51"/>
        <rect class="cls-32" x="137.53" y="119.81" width=".96" height="11.51"/>
        <rect class="cls-17" x="133.21" y="119.81" width=".96" height="11.51"/>
        <rect class="cls-40" x="128.42" y="119.81" width=".96" height="11.51"/>
        <rect class="cls-88" x="124.1" y="119.81" width=".96" height="11.51"/>
        <rect class="cls-57" x="119.3" y="119.81" width=".96" height="11.51"/>
        <rect class="cls-92" x="114.99" y="119.81" width=".96" height="11.51"/>
        <rect class="cls-77" x="110.19" y="119.81" width=".96" height="11.51"/>
        <rect class="cls-73" x="105.87" y="119.81" width=".96" height="11.51"/>
        <rect class="cls-74" x="105.87" y="119.81" width="105.52" height=".96"/>
      </g>
      <g>
        <rect class="cls-47" x="73.74" y="119.81" width=".96" height="11.51"/>
        <rect class="cls-85" x="69.42" y="119.81" width=".96" height="11.51"/>
        <rect class="cls-55" x="64.62" y="119.81" width=".96" height="11.51"/>
        <rect class="cls-70" x="60.31" y="119.81" width=".96" height="11.51"/>
        <rect class="cls-43" x="55.51" y="119.81" width=".96" height="11.51"/>
        <rect class="cls-45" x="96.76" y="119.81" width=".96" height="11.51"/>
        <rect class="cls-96" x="91.96" y="119.81" width=".96" height="11.51"/>
        <rect class="cls-10" x="105.87" y="119.81" width=".96" height="11.51"/>
        <rect class="cls-27" x="101.08" y="119.81" width=".96" height="11.51"/>
        <rect class="cls-50" x="87.65" y="119.81" width=".96" height="11.51"/>
        <rect class="cls-49" x="82.85" y="119.81" width=".96" height="11.51"/>
        <rect class="cls-81" x="78.53" y="119.81" width=".96" height="11.51"/>
        <rect class="cls-8" x="51.67" y="119.81" width=".96" height="11.51"/>
        <rect class="cls-28" x="46.88" y="119.81" width=".96" height="11.51"/>
        <rect class="cls-93" x="42.56" y="119.81" width=".96" height="11.51"/>
        <rect class="cls-71" x="37.77" y="119.81" width=".96" height="11.51"/>
        <rect class="cls-36" x="33.45" y="119.81" width=".96" height="11.51"/>
        <rect class="cls-9" x="28.65" y="119.81" width=".96" height="11.51"/>
        <rect class="cls-89" x="24.34" y="119.81" width=".96" height="11.51"/>
        <rect class="cls-63" x="19.54" y="119.81" width=".96" height="11.51"/>
        <rect class="cls-101" x="15.22" y="119.81" width=".96" height="11.51"/>
        <rect class="cls-26" x="10.43" y="119.81" width=".96" height="11.51"/>
        <rect class="cls-90" x="6.11" y="119.81" width=".96" height="11.51"/>
        <rect class="cls-22" x="1.31" y="119.81" width=".96" height="11.51"/>
        <rect class="cls-102" x="1.31" y="119.81" width="105.52" height=".96"/>
      </g>
      <g>
        <g>
          <rect class="cls-33" x="57.93" y="145.84" width="14.7" height=".51" transform="translate(-88.26 191.17) rotate(-82.28)"/>
          <rect class="cls-33" x="61.25" y="139.11" width=".51" height="14.7" transform="translate(-51.33 34.65) rotate(-22.49)"/>
          <polygon class="cls-33" points="64.37 152.95 64.06 153.35 52.45 144.37 52.75 143.97 64.37 152.95"/>
          <rect class="cls-33" x="56.57" y="144.79" width=".51" height="14.66" transform="translate(-101.51 188.19) rotate(-82.35)"/>
          <polygon class="cls-33" points="63.87 152.88 64.06 153.35 50.5 158.94 50.31 158.47 63.87 152.88"/>
          <polygon class="cls-33" points="63.66 153.04 64.06 153.35 55.1 164.99 54.7 164.68 63.66 153.04"/>
          <rect class="cls-33" x="55.48" y="160.35" width="14.7" height=".51" transform="translate(-104.71 201.45) rotate(-82.33)"/>
          <rect class="cls-33" x="66.36" y="152.89" width=".51" height="14.7" transform="translate(-56.23 37.67) rotate(-22.49)"/>
          <polygon class="cls-33" points="63.75 153.75 64.06 153.35 75.67 162.32 75.36 162.72 63.75 153.75"/>
          <rect class="cls-33" x="71.04" y="147.24" width=".51" height="14.67" transform="translate(-91.37 204.75) rotate(-82.38)"/>
          <rect class="cls-33" x="63.6" y="150.53" width="14.67" height=".51" transform="translate(-52.05 38.35) rotate(-22.37)"/>
          <rect class="cls-33" x="61.39" y="147.43" width="14.69" height=".51" transform="translate(-90.22 112.1) rotate(-52.42)"/>
        </g>
        <g>
          <polygon class="cls-2" points="64.56 153.4 64.06 153.35 65.63 138.73 66.13 138.78 64.56 153.4"/>
          <polygon class="cls-2" points="64.52 153.14 64.06 153.35 58.13 139.9 58.59 139.7 64.52 153.14"/>
          <polygon class="cls-2" points="64.36 152.94 64.06 153.35 52.22 144.68 52.51 144.27 64.36 152.94"/>
          <rect class="cls-2" x="56.54" y="144.98" width=".51" height="14.66" transform="translate(-100.71 192.52) rotate(-83.87)"/>
          <polygon class="cls-2" points="63.85 152.88 64.06 153.35 50.65 159.29 50.44 158.83 63.85 152.88"/>
          <polygon class="cls-2" points="63.65 153.05 64.06 153.35 55.41 165.22 55 164.92 63.65 153.05"/>
          <rect class="cls-2" x="55.67" y="160.38" width="14.7" height=".51" transform="translate(-103.45 206.03) rotate(-83.83)"/>
          <polygon class="cls-2" points="63.6 153.55 64.06 153.35 69.99 166.79 69.53 167 63.6 153.55"/>
          <polygon class="cls-2" points="63.76 153.76 64.06 153.35 75.9 162.02 75.6 162.43 63.76 153.76"/>
          <rect class="cls-2" x="71.07" y="147.05" width=".51" height="14.66" transform="translate(-89.77 208.9) rotate(-83.9)"/>
          <rect class="cls-2" x="63.53" y="150.35" width="14.67" height=".51" transform="translate(-54.88 41.56) rotate(-23.87)"/>
          <polygon class="cls-2" points="64.47 153.65 64.06 153.35 72.71 141.47 73.12 141.77 64.47 153.65"/>
        </g>
        <path class="cls-18" d="M66.1,136.32c-9-.97-17.08,5.56-18.05,14.58-.97,9.02,5.54,17.13,14.54,18.1,9,.97,17.08-5.56,18.05-14.58.97-9.02-5.54-17.13-14.54-18.1ZM62.72,167.82c-8.35-.9-14.4-8.42-13.5-16.79.9-8.37,8.4-14.43,16.75-13.53,8.35.9,14.4,8.42,13.5,16.79-.9,8.37-8.4,14.43-16.75,13.53Z"/>
        <path class="cls-2" d="M65.97,137.49c-8.35-.9-15.85,5.16-16.75,13.53-.9,8.37,5.14,15.89,13.5,16.79,8.35.9,15.85-5.16,16.75-13.53.9-8.37-5.15-15.89-13.5-16.79ZM62.8,167.06c-7.94-.86-13.68-8-12.82-15.96.85-7.96,7.98-13.71,15.92-12.86,7.94.86,13.68,8,12.82,15.96-.85,7.96-7.98,13.71-15.92,12.86Z"/>
        <path class="cls-94" d="M65.89,138.25c-7.94-.86-15.06,4.9-15.92,12.86-.85,7.96,4.89,15.1,12.82,15.96,7.94.86,15.06-4.9,15.92-12.86.85-7.96-4.89-15.1-12.82-15.96ZM62.91,166.05c-7.38-.8-12.72-7.44-11.93-14.84.79-7.4,7.42-12.75,14.8-11.96,7.38.8,12.72,7.44,11.93,14.84-.79,7.4-7.42,12.75-14.8,11.96Z"/>
      </g>
      <g>
        <path class="cls-61" d="M66.63,152.66c0,1.52-1.23,2.75-2.75,2.75s-2.75-1.23-2.75-2.75,1.23-2.75,2.75-2.75,2.75,1.23,2.75,2.75Z"/>
        <path class="cls-75" d="M65.92,152.66c0,1.13-.91,2.04-2.04,2.04s-2.04-.91-2.04-2.04.91-2.04,2.04-2.04,2.04.91,2.04,2.04Z"/>
        <circle class="cls-2" cx="63.88" cy="152.66" r="1.18"/>
      </g>
      <path class="cls-110" d="M204.39,49.78H47.99c-11.02,2.88-8.33,13.43-8.33,13.43h173.06s2.69-10.55-8.33-13.43Z"/>
      <path class="cls-2" d="M140.41,105.82c0,3.22-2.61,5.83-5.83,5.83h-11.36c-3.22,0-5.83-2.61-5.83-5.83v-31.03c0-3.22,2.61-5.83,5.83-5.83h11.36c3.22,0,5.83,2.61,5.83,5.83v31.03ZM138.49,74.71c0-2.38-1.93-4.31-4.31-4.31h-11.05c-2.38,0-4.31,1.93-4.31,4.31v30.71c0,2.38,1.93,4.31,4.31,4.31h11.05c2.38,0,4.31-1.93,4.31-4.31v-30.71Z"/>
      <path class="cls-2" d="M103.95,105.82c0,3.22-2.61,5.83-5.83,5.83h-11.36c-3.22,0-5.83-2.61-5.83-5.83v-31.03c0-3.22,2.61-5.83,5.83-5.83h11.36c3.22,0,5.83,2.61,5.83,5.83v31.03ZM102.04,74.71c0-2.38-1.93-4.31-4.31-4.31h-11.05c-2.38,0-4.31,1.93-4.31,4.31v30.71c0,2.38,1.93,4.31,4.31,4.31h11.05c2.38,0,4.31-1.93,4.31-4.31v-30.71Z"/>
      <path class="cls-2" d="M74.7,105.82c0,3.22-2.61,5.83-5.83,5.83h-11.36c-3.22,0-5.83-2.61-5.83-5.83v-31.03c0-3.22,2.61-5.83,5.83-5.83h11.36c3.22,0,5.83,2.61,5.83,5.83v31.03ZM72.78,74.71c0-2.38-1.93-4.31-4.31-4.31h-11.05c-2.38,0-4.31,1.93-4.31,4.31v30.71c0,2.38,1.93,4.31,4.31,4.31h11.05c2.38,0,4.31-1.93,4.31-4.31v-30.71Z"/>
      <g class="cls-111">
        <path class="cls-87" d="M332.52,4.77c-2.75-5.95-12.97-10.38-25.2-10.38s-22.64,4.51-25.28,10.54c-.61-.03-1.23-.05-1.86-.05-4.99,0-9.52,1.02-12.9,2.68-2.76-1.23-6.3-1.99-10.18-2.05-4.8-5.12-14.83-8.65-26.47-8.65-9.39,0-17.73,2.3-23.13,5.88-1.67-.21-3.39-.33-5.18-.33-8.1,0-15.17,2.26-19.11,5.63-5.79-4.15-15.14-6.86-25.71-6.86-8.38,0-15.98,1.7-21.66,4.47-3.16-1.25-7.09-2-11.37-2-10.42,0-18.87,4.42-18.87,9.88,0,.1.02.2.03.3-2.12-.58-4.54-1-7.11-1-3.14,0-10.53,1.61-10.53,4.23,0,3.8,12.21,5.2,18.25,1.94,0,0,18.41,6.04,39.24.04,0,0,16.96,7.54,39.24.02,0,0,10.66,4.74,19.86.01,0,0,17.44,5.75,35.85,0,0,0,15.02,5.24,28.1,0,0,0,13.08,3.97,20.35,0,0,0,16.96,7.01,29.07,0,0,0,28.29,6.25,37.64,0-1.01-6.95-10.5-12.65-23.07-14.31Z"/>
        <path class="cls-31" d="M355.16,17.43c-.04-.1-.08-.2-.11-.3-.18-.46-.39-.91-.64-1.35-9.18,1.8-17.97,2.6-24.68-.41-14.16-6.48-17.69-1.85-33.62-3.7-.91,0-2.28-.74-3.17-1.7-8.92,10.08-41.07,7.26-46.38-.15,0,3.7-14.47,7.37-17.76,7.69-15.99,1.58-33.83,2.91-46.22-4.5-11.27,8.26-36.87,3.28-45.72-1.35-1.77-1.85-12.39,0-17.69-1.85-3.78-.79-5.94-2.09-7.04-3.76-.03.01-.06.03-.1.05-.44.2-.86.41-1.26.63-.12.06-.23.13-.34.2-.3.17-.58.35-.86.53-.14.09-.28.19-.41.29-.21.15-.41.31-.61.47-.16.13-.32.27-.47.4-.11.1-.23.2-.33.31-.2.2-.38.4-.55.6-.07.08-.13.16-.2.23-.18.23-.35.47-.5.72-.04.06-.08.13-.11.19-.15.26-.28.53-.39.8-.02.04-.03.09-.05.14-.11.29-.2.58-.26.88,0,.02,0,.04-.01.06-.06.32-.09.64-.09.97,0,.05,0,.09.01.14,0,.05.01.14.02.14h.23v.02s-.18-.02-.22-.03c-2.1-.57-4.54-.89-7.07-.89-.74,0-1.49.03-2.2.09-3.51.48-8.37,1.94-8.37,4.06,0,3.8,12.2,5.2,18.24,1.94,0,0,18.41,6.04,39.24.04,0,0,16.95,7.54,39.24.02,0,0,10.66,4.74,19.86.01,0,0,17.44,5.75,35.85,0,0,0,15.02,5.24,28.1,0,0,0,13.08,3.97,20.35,0,0,0,16.96,7.01,29.07,0,0,0,28.29,6.25,37.64,0-.05-.35-.14-.7-.24-1.05-.06-.2-.12-.4-.19-.6Z"/>
      </g>
      <g>
        <g>
          <rect class="cls-33" x="121.81" y="145.84" width="14.7" height=".51" transform="translate(-32.96 254.46) rotate(-82.28)"/>
          <rect class="cls-33" x="125.12" y="139.11" width=".51" height="14.7" transform="translate(-46.49 59.11) rotate(-22.49)"/>
          <polygon class="cls-33" points="128.24 152.95 127.93 153.35 116.32 144.37 116.63 143.97 128.24 152.95"/>
          <rect class="cls-33" x="120.45" y="144.79" width=".51" height="14.66" transform="translate(-46.1 251.56) rotate(-82.37)"/>
          <polygon class="cls-33" points="127.74 152.88 127.93 153.35 114.37 158.94 114.18 158.47 127.74 152.88"/>
          <polygon class="cls-33" points="127.53 153.04 127.93 153.35 118.98 164.99 118.58 164.68 127.53 153.04"/>
          <rect class="cls-33" x="119.36" y="160.35" width="14.7" height=".51" transform="translate(-49.35 264.76) rotate(-82.34)"/>
          <rect class="cls-33" x="130.24" y="152.89" width=".51" height="14.7" transform="translate(-51.35 62.07) rotate(-22.48)"/>
          <polygon class="cls-33" points="127.63 153.75 127.93 153.35 139.55 162.32 139.24 162.72 127.63 153.75"/>
          <rect class="cls-33" x="134.91" y="147.24" width=".51" height="14.67" transform="translate(-36.01 267.98) rotate(-82.36)"/>
          <polygon class="cls-33" points="128.13 153.82 127.93 153.35 141.49 147.75 141.69 148.22 128.13 153.82"/>
          <rect class="cls-33" x="125.27" y="147.43" width="14.69" height=".51" transform="translate(-65.3 162.72) rotate(-52.42)"/>
        </g>
        <g>
          <polygon class="cls-2" points="128.44 153.4 127.93 153.35 129.5 138.73 130 138.78 128.44 153.4"/>
          <polygon class="cls-2" points="128.4 153.14 127.93 153.35 122 139.9 122.46 139.7 128.4 153.14"/>
          <polygon class="cls-2" points="128.23 152.94 127.93 153.35 116.09 144.68 116.39 144.27 128.23 152.94"/>
          <rect class="cls-2" x="120.42" y="144.98" width=".51" height="14.66" transform="translate(-43.6 256.11) rotate(-83.9)"/>
          <polygon class="cls-2" points="127.73 152.88 127.93 153.35 114.52 159.29 114.32 158.83 127.73 152.88"/>
          <polygon class="cls-2" points="127.52 153.05 127.93 153.35 119.28 165.22 118.88 164.92 127.52 153.05"/>
          <rect class="cls-2" x="119.55" y="160.38" width="14.7" height=".51" transform="translate(-46.43 269.54) rotate(-83.83)"/>
          <polygon class="cls-2" points="127.47 153.55 127.93 153.35 133.86 166.79 133.4 167 127.47 153.55"/>
          <polygon class="cls-2" points="127.63 153.76 127.93 153.35 139.78 162.02 139.48 162.43 127.63 153.76"/>
          <rect class="cls-2" x="134.94" y="147.05" width=".51" height="14.66" transform="translate(-32.74 272.33) rotate(-83.87)"/>
          <polygon class="cls-2" points="128.14 153.81 127.93 153.35 141.34 147.4 141.55 147.86 128.14 153.81"/>
          <polygon class="cls-2" points="128.34 153.65 127.93 153.35 136.58 141.47 136.99 141.77 128.34 153.65"/>
        </g>
        <path class="cls-18" d="M129.97,136.32c-9-.97-17.08,5.56-18.05,14.58-.97,9.02,5.54,17.13,14.54,18.1,9,.97,17.08-5.56,18.05-14.58.97-9.02-5.54-17.13-14.54-18.1ZM126.59,167.82c-8.35-.9-14.4-8.42-13.5-16.79.9-8.37,8.4-14.43,16.75-13.53,8.35.9,14.4,8.42,13.5,16.79-.9,8.37-8.4,14.43-16.75,13.53Z"/>
        <path class="cls-15" d="M129.85,137.49c-8.35-.9-15.85,5.16-16.75,13.53-.9,8.37,5.14,15.89,13.5,16.79,8.35.9,15.85-5.16,16.75-13.53.9-8.37-5.15-15.89-13.5-16.79ZM126.67,167.06c-7.94-.86-13.68-8-12.82-15.96.85-7.96,7.98-13.71,15.92-12.86,7.94.86,13.68,8,12.82,15.96-.85,7.96-7.98,13.71-15.92,12.86Z"/>
        <path class="cls-98" d="M129.76,138.25c-7.94-.86-15.06,4.9-15.92,12.86-.85,7.96,4.89,15.1,12.82,15.96,7.94.86,15.06-4.9,15.92-12.86.85-7.96-4.89-15.1-12.82-15.96ZM126.78,166.05c-7.38-.8-12.72-7.44-11.93-14.84.79-7.4,7.42-12.75,14.8-11.96,7.38.8,12.72,7.44,11.93,14.84-.79,7.4-7.42,12.75-14.8,11.96Z"/>
      </g>
      <g>
        <path class="cls-78" d="M130.5,152.66c0,1.52-1.23,2.75-2.75,2.75s-2.75-1.23-2.75-2.75,1.23-2.75,2.75-2.75,2.75,1.23,2.75,2.75Z"/>
        <path class="cls-75" d="M129.79,152.66c0,1.13-.91,2.04-2.04,2.04s-2.04-.91-2.04-2.04.91-2.04,2.04-2.04,2.04.91,2.04,2.04Z"/>
        <path class="cls-2" d="M128.94,152.66c0,.65-.53,1.18-1.18,1.18s-1.18-.53-1.18-1.18.53-1.18,1.18-1.18,1.18.53,1.18,1.18Z"/>
      </g>
    </g>
  </g>
</svg>