<?xml version="1.0" encoding="UTF-8"?>
<svg xmlns="http://www.w3.org/2000/svg" xmlns:xlink="http://www.w3.org/1999/xlink" viewBox="0 0 318.36 301.76">
  <defs>
    <style>
      .cls-1 {
        fill: #ddd7da;
      }

      .cls-1, .cls-2, .cls-3, .cls-4, .cls-5, .cls-6, .cls-7, .cls-8, .cls-9, .cls-10, .cls-11, .cls-12, .cls-13, .cls-14, .cls-15, .cls-16, .cls-17, .cls-18, .cls-19, .cls-20, .cls-21, .cls-22, .cls-23, .cls-24, .cls-25, .cls-26, .cls-27, .cls-28, .cls-29, .cls-30, .cls-31, .cls-32, .cls-33, .cls-34, .cls-35, .cls-36, .cls-37, .cls-38, .cls-39, .cls-40, .cls-41, .cls-42, .cls-43, .cls-44, .cls-45, .cls-46, .cls-47, .cls-48, .cls-49, .cls-50, .cls-51, .cls-52, .cls-53, .cls-54, .cls-55, .cls-56, .cls-57, .cls-58, .cls-59, .cls-60, .cls-61, .cls-62, .cls-63, .cls-64, .cls-65, .cls-66, .cls-67, .cls-68, .cls-69, .cls-70, .cls-71, .cls-72, .cls-73, .cls-74, .cls-75, .cls-76, .cls-77, .cls-78, .cls-79, .cls-80, .cls-81, .cls-82, .cls-83, .cls-84, .cls-85, .cls-86, .cls-87, .cls-88, .cls-89, .cls-90, .cls-91, .cls-92, .cls-93, .cls-94, .cls-95, .cls-96, .cls-97, .cls-98, .cls-99, .cls-100, .cls-101, .cls-102, .cls-103, .cls-104, .cls-105, .cls-106, .cls-107, .cls-108, .cls-109, .cls-110, .cls-111, .cls-112, .cls-113, .cls-114, .cls-115, .cls-116, .cls-117, .cls-118, .cls-119, .cls-120, .cls-121, .cls-122, .cls-123, .cls-124, .cls-125, .cls-126, .cls-127, .cls-128, .cls-129, .cls-130, .cls-131, .cls-132, .cls-133, .cls-134 {
        stroke-width: 0px;
      }

      .cls-2 {
        fill: #841e28;
      }

      .cls-3 {
        fill: url(#radial-gradient-58);
      }

      .cls-4 {
        fill: url(#radial-gradient-68);
      }

      .cls-5 {
        fill: url(#linear-gradient-12);
      }

      .cls-6 {
        fill: url(#radial-gradient-30);
      }

      .cls-7 {
        fill: url(#radial-gradient-70);
      }

      .cls-135 {
        opacity: .7;
      }

      .cls-8 {
        fill: url(#New_Gradient_Swatch_1);
        opacity: .41;
      }

      .cls-9 {
        fill: #181818;
      }

      .cls-10 {
        fill: url(#linear-gradient-17);
      }

      .cls-11 {
        fill: url(#radial-gradient-16);
      }

      .cls-12 {
        fill: url(#linear-gradient-19);
      }

      .cls-13 {
        fill: url(#linear-gradient);
      }

      .cls-14 {
        fill: url(#radial-gradient-40);
      }

      .cls-15 {
        fill: #000;
      }

      .cls-16 {
        fill: #4f4239;
      }

      .cls-17 {
        fill: #dc4791;
      }

      .cls-18 {
        opacity: .56;
      }

      .cls-18, .cls-111, .cls-120 {
        fill: #fff;
      }

      .cls-19 {
        fill: url(#radial-gradient-39);
      }

      .cls-20 {
        fill: url(#radial-gradient-46);
      }

      .cls-21 {
        fill: url(#linear-gradient-21);
      }

      .cls-22 {
        fill: url(#linear-gradient-6);
      }

      .cls-23 {
        fill: #7679d4;
      }

      .cls-24 {
        fill: url(#radial-gradient-59);
      }

      .cls-25 {
        fill: #9c2a30;
      }

      .cls-26 {
        fill: url(#radial-gradient-57);
      }

      .cls-27 {
        fill: url(#radial-gradient-8);
      }

      .cls-28 {
        mix-blend-mode: screen;
      }

      .cls-28, .cls-129 {
        fill: #a88c9b;
      }

      .cls-136 {
        isolation: isolate;
      }

      .cls-29 {
        fill: url(#radial-gradient-69);
      }

      .cls-30 {
        fill: #363636;
      }

      .cls-31 {
        fill: url(#radial-gradient-43);
      }

      .cls-32 {
        fill: url(#linear-gradient-15);
      }

      .cls-33 {
        fill: url(#radial-gradient-13);
      }

      .cls-34 {
        fill: #4e84af;
      }

      .cls-35 {
        fill: url(#radial-gradient-12);
      }

      .cls-36 {
        fill: url(#linear-gradient-11);
      }

      .cls-37 {
        fill: #b0b0b0;
      }

      .cls-38 {
        fill: #702c4e;
      }

      .cls-39 {
        fill: #351e16;
      }

      .cls-40 {
        fill: url(#linear-gradient-5);
      }

      .cls-41 {
        fill: url(#radial-gradient-35);
      }

      .cls-42 {
        fill: url(#linear-gradient-31);
      }

      .cls-43 {
        fill: #55233d;
        opacity: .24;
      }

      .cls-44 {
        fill: url(#radial-gradient-27);
      }

      .cls-45 {
        fill: url(#radial-gradient-29);
      }

      .cls-46 {
        fill: url(#radial-gradient-60);
      }

      .cls-47 {
        fill: #d5e7ef;
        opacity: .62;
      }

      .cls-48 {
        fill: url(#radial-gradient-61);
      }

      .cls-49 {
        fill: url(#radial-gradient-55);
      }

      .cls-50 {
        fill: url(#radial-gradient-53);
      }

      .cls-51 {
        fill: url(#radial-gradient-38);
      }

      .cls-52 {
        fill: #666;
      }

      .cls-53 {
        fill: #a52b31;
      }

      .cls-54 {
        fill: url(#radial-gradient-65);
      }

      .cls-55 {
        fill: url(#linear-gradient-13);
      }

      .cls-56 {
        fill: url(#linear-gradient-23);
      }

      .cls-57 {
        fill: #494b7c;
      }

      .cls-58 {
        fill: url(#radial-gradient-71);
      }

      .cls-59 {
        fill: url(#radial-gradient-22);
      }

      .cls-60 {
        fill: url(#radial-gradient-62);
      }

      .cls-61 {
        fill: url(#linear-gradient-25);
      }

      .cls-62 {
        fill: #dba04f;
      }

      .cls-63 {
        fill: url(#radial-gradient-47);
      }

      .cls-64 {
        fill: url(#linear-gradient-16);
      }

      .cls-65 {
        fill: url(#linear-gradient-22);
      }

      .cls-66 {
        fill: url(#radial-gradient-19);
      }

      .cls-67 {
        fill: url(#radial-gradient-20);
      }

      .cls-68 {
        fill: url(#radial-gradient-25);
      }

      .cls-69 {
        fill: url(#radial-gradient-63);
      }

      .cls-70 {
        fill: url(#linear-gradient-32);
      }

      .cls-71 {
        fill: url(#linear-gradient-20);
      }

      .cls-72 {
        fill: url(#linear-gradient-14);
      }

      .cls-73 {
        fill: url(#linear-gradient-2);
      }

      .cls-74 {
        fill: url(#radial-gradient-33);
      }

      .cls-75 {
        fill: url(#radial-gradient-17);
      }

      .cls-76 {
        fill: url(#radial-gradient-32);
      }

      .cls-77 {
        fill: url(#radial-gradient-21);
      }

      .cls-78 {
        fill: url(#radial-gradient-64);
      }

      .cls-79 {
        fill: url(#linear-gradient-7);
      }

      .cls-80 {
        fill: url(#radial-gradient-54);
      }

      .cls-81 {
        fill: url(#radial-gradient-2);
      }

      .cls-82 {
        fill: url(#radial-gradient-41);
      }

      .cls-83 {
        fill: url(#radial-gradient-50);
      }

      .cls-84 {
        fill: url(#radial-gradient-7);
      }

      .cls-85 {
        fill: url(#linear-gradient-3);
      }

      .cls-86 {
        fill: url(#radial-gradient-66);
      }

      .cls-87 {
        fill: url(#radial-gradient-34);
      }

      .cls-88 {
        fill: url(#radial-gradient-26);
      }

      .cls-89 {
        fill: url(#New_Gradient_Swatch_1-2);
      }

      .cls-90 {
        fill: url(#radial-gradient-5);
      }

      .cls-91 {
        fill: url(#radial-gradient-24);
      }

      .cls-92 {
        fill: url(#linear-gradient-9);
      }

      .cls-93 {
        fill: url(#linear-gradient-27);
      }

      .cls-94 {
        fill: url(#radial-gradient);
      }

      .cls-95 {
        fill: url(#radial-gradient-37);
      }

      .cls-96 {
        fill: url(#radial-gradient-45);
      }

      .cls-97 {
        fill: #564950;
      }

      .cls-98 {
        fill: url(#radial-gradient-31);
      }

      .cls-99 {
        fill: url(#radial-gradient-14);
      }

      .cls-100 {
        fill: #4a4949;
      }

      .cls-101 {
        fill: url(#linear-gradient-8);
      }

      .cls-102 {
        fill: url(#radial-gradient-18);
      }

      .cls-103 {
        fill: url(#radial-gradient-10);
      }

      .cls-104 {
        fill: url(#linear-gradient-24);
      }

      .cls-105 {
        fill: url(#linear-gradient-26);
      }

      .cls-106 {
        fill: url(#radial-gradient-42);
      }

      .cls-107 {
        fill: url(#radial-gradient-52);
      }

      .cls-108 {
        fill: url(#linear-gradient-18);
      }

      .cls-109 {
        fill: url(#linear-gradient-30);
      }

      .cls-110 {
        fill: url(#radial-gradient-67);
      }

      .cls-112 {
        fill: url(#linear-gradient-29);
      }

      .cls-113 {
        fill: url(#radial-gradient-28);
      }

      .cls-114 {
        fill: url(#radial-gradient-51);
      }

      .cls-115 {
        fill: url(#radial-gradient-6);
      }

      .cls-116 {
        fill: url(#linear-gradient-28);
      }

      .cls-117 {
        fill: url(#radial-gradient-44);
      }

      .cls-118 {
        fill: url(#linear-gradient-10);
      }

      .cls-119 {
        fill: url(#radial-gradient-15);
      }

      .cls-120 {
        opacity: .5;
      }

      .cls-121 {
        fill: url(#radial-gradient-9);
      }

      .cls-122 {
        fill: url(#radial-gradient-3);
      }

      .cls-123 {
        fill: url(#radial-gradient-49);
      }

      .cls-124 {
        fill: #7f7f7f;
      }

      .cls-125 {
        fill: url(#radial-gradient-11);
      }

      .cls-126 {
        fill: url(#radial-gradient-56);
      }

      .cls-127 {
        fill: url(#linear-gradient-4);
      }

      .cls-128 {
        fill: url(#radial-gradient-48);
      }

      .cls-130 {
        fill: #090909;
      }

      .cls-131 {
        fill: url(#radial-gradient-36);
      }

      .cls-132 {
        fill: url(#radial-gradient-4);
      }

      .cls-133 {
        fill: url(#radial-gradient-23);
      }

      .cls-134 {
        fill: url(#radial-gradient-72);
      }
    </style>
    <linearGradient id="linear-gradient" x1="298.33" y1="299.92" x2="298.33" y2="264.79" gradientUnits="userSpaceOnUse">
      <stop offset="0" stop-color="#fff"/>
      <stop offset=".15" stop-color="#d4d4d4"/>
      <stop offset=".32" stop-color="#adadad"/>
      <stop offset=".48" stop-color="#8e8e8e"/>
      <stop offset=".64" stop-color="#777"/>
      <stop offset=".8" stop-color="#6a6a6a"/>
      <stop offset=".93" stop-color="#666"/>
      <stop offset=".93" stop-color="#000"/>
    </linearGradient>
    <radialGradient id="New_Gradient_Swatch_1" data-name="New Gradient Swatch 1" cx="177.91" cy="222.21" fx="177.91" fy="222.21" r="57.77" gradientTransform="translate(154.7 .98) rotate(47.12) scale(1 .6)" gradientUnits="userSpaceOnUse">
      <stop offset="0" stop-color="#fff" stop-opacity="0"/>
      <stop offset=".29" stop-color="#000" stop-opacity="0"/>
      <stop offset=".91" stop-color="#f1f1f1"/>
    </radialGradient>
    <linearGradient id="linear-gradient-2" x1="139.88" y1="255.97" x2="147.08" y2="255.97" xlink:href="#linear-gradient"/>
    <linearGradient id="linear-gradient-3" x1="141.86" y1="256.67" x2="141.86" y2="260.66" gradientUnits="userSpaceOnUse">
      <stop offset="0" stop-color="#fff"/>
      <stop offset=".07" stop-color="#d4d4d4"/>
      <stop offset=".14" stop-color="#adadad"/>
      <stop offset=".22" stop-color="#8e8e8e"/>
      <stop offset=".29" stop-color="#777"/>
      <stop offset=".35" stop-color="#6a6a6a"/>
      <stop offset=".42" stop-color="#666"/>
      <stop offset=".93" stop-color="#000"/>
    </linearGradient>
    <linearGradient id="linear-gradient-4" x1="135.64" y1="258.12" x2="138.95" y2="258.12" xlink:href="#linear-gradient"/>
    <radialGradient id="New_Gradient_Swatch_1-2" data-name="New Gradient Swatch 1" cx="210.68" cy="189.62" fx="210.68" fy="189.62" r="31.76" gradientTransform="matrix(1,0,0,1,0,0)" xlink:href="#New_Gradient_Swatch_1"/>
    <linearGradient id="linear-gradient-5" x1="224.35" y1="293.76" x2="224.35" y2="257.3" xlink:href="#linear-gradient"/>
    <linearGradient id="linear-gradient-6" x1="142.05" y1="221.19" x2="189.53" y2="221.19" gradientUnits="userSpaceOnUse">
      <stop offset=".71" stop-color="#4d88a5"/>
      <stop offset=".74" stop-color="#4a829e"/>
      <stop offset=".77" stop-color="#3f6f89"/>
    </linearGradient>
    <linearGradient id="linear-gradient-7" x1="297.35" y1="214.72" x2="291.71" y2="214.72" xlink:href="#linear-gradient"/>
    <linearGradient id="linear-gradient-8" x1="152.01" y1="191.22" x2="155.37" y2="191.22" xlink:href="#linear-gradient"/>
    <linearGradient id="linear-gradient-9" x1="220.76" y1="240.02" x2="220.76" y2="242.72" xlink:href="#linear-gradient"/>
    <linearGradient id="linear-gradient-10" x1="184.78" y1="240.14" x2="184.78" y2="240.42" xlink:href="#linear-gradient"/>
    <linearGradient id="linear-gradient-11" x1="289.34" y1="229.56" x2="289.34" y2="235.23" xlink:href="#linear-gradient"/>
    <linearGradient id="linear-gradient-12" x1="285.03" y1="229.56" x2="285.03" y2="235.23" xlink:href="#linear-gradient"/>
    <linearGradient id="linear-gradient-13" x1="280.23" y1="229.56" x2="280.23" y2="235.23" xlink:href="#linear-gradient"/>
    <linearGradient id="linear-gradient-14" x1="275.91" y1="229.56" x2="275.91" y2="235.23" xlink:href="#linear-gradient"/>
    <linearGradient id="linear-gradient-15" x1="271.12" y1="229.56" x2="271.12" y2="235.23" xlink:href="#linear-gradient"/>
    <linearGradient id="linear-gradient-16" x1="266.8" y1="229.56" x2="266.8" y2="235.23" xlink:href="#linear-gradient"/>
    <linearGradient id="linear-gradient-17" x1="262" y1="229.56" x2="262" y2="235.23" xlink:href="#linear-gradient"/>
    <linearGradient id="linear-gradient-18" x1="257.69" y1="229.56" x2="257.69" y2="235.23" xlink:href="#linear-gradient"/>
    <linearGradient id="linear-gradient-19" x1="252.89" y1="229.56" x2="252.89" y2="235.23" xlink:href="#linear-gradient"/>
    <linearGradient id="linear-gradient-20" x1="249.05" y1="229.56" x2="249.05" y2="235.23" xlink:href="#linear-gradient"/>
    <linearGradient id="linear-gradient-21" x1="244.26" y1="229.56" x2="244.26" y2="235.23" xlink:href="#linear-gradient"/>
    <linearGradient id="linear-gradient-22" x1="239.94" y1="229.56" x2="239.94" y2="235.23" xlink:href="#linear-gradient"/>
    <linearGradient id="linear-gradient-23" x1="235.14" y1="229.56" x2="235.14" y2="235.23" xlink:href="#linear-gradient"/>
    <linearGradient id="linear-gradient-24" x1="230.83" y1="229.56" x2="230.83" y2="235.23" xlink:href="#linear-gradient"/>
    <linearGradient id="linear-gradient-25" x1="226.03" y1="229.56" x2="226.03" y2="235.23" xlink:href="#linear-gradient"/>
    <linearGradient id="linear-gradient-26" x1="221.71" y1="229.56" x2="221.71" y2="235.23" xlink:href="#linear-gradient"/>
    <linearGradient id="linear-gradient-27" x1="216.92" y1="229.56" x2="216.92" y2="235.23" xlink:href="#linear-gradient"/>
    <linearGradient id="linear-gradient-28" x1="253.13" y1="231.87" x2="253.13" y2="232.5" xlink:href="#linear-gradient"/>
    <radialGradient id="radial-gradient" cx="437.37" cy="-176.28" fx="437.37" fy="-176.28" r="18.29" gradientTransform="translate(101.48 -172.43) rotate(90.09) skewX(.03)" gradientUnits="userSpaceOnUse">
      <stop offset="0" stop-color="#da0000"/>
      <stop offset=".69" stop-color="#b61c20"/>
      <stop offset="1" stop-color="#a52b31"/>
    </radialGradient>
    <radialGradient id="radial-gradient-2" cx="437.37" cy="-176.28" fx="437.37" fy="-176.28" r="18.29" gradientTransform="translate(-186.8 202.19) rotate(30.22) skewX(.03)" xlink:href="#radial-gradient"/>
    <radialGradient id="radial-gradient-3" cx="437.37" cy="-176.28" fx="437.37" fy="-176.28" r="18.29" gradientTransform="translate(-171.87 397.62) rotate(6.16) skewX(.03)" xlink:href="#radial-gradient"/>
    <radialGradient id="radial-gradient-4" cx="437.37" cy="-176.28" fx="437.37" fy="-176.28" r="18.32" gradientTransform="translate(100.29 -162.59) rotate(90.04) skewX(.03)" xlink:href="#radial-gradient"/>
    <radialGradient id="radial-gradient-5" cx="437.37" cy="-176.28" fx="437.37" fy="-176.28" r="18.29" gradientTransform="translate(-171.87 397.62) rotate(6.16) skewX(.03)" xlink:href="#radial-gradient"/>
    <radialGradient id="radial-gradient-6" cx="437.37" cy="-176.28" fx="437.37" fy="-176.28" r="18.29" gradientTransform="translate(-87.74 -15.98) rotate(59.95) skewX(.03)" xlink:href="#radial-gradient"/>
    <radialGradient id="radial-gradient-7" cx="437.37" cy="-176.28" fx="437.37" fy="-176.28" r="18.29" gradientTransform="translate(108.7 -161.21) rotate(89.87) skewX(.03)" xlink:href="#radial-gradient"/>
    <radialGradient id="radial-gradient-8" cx="437.37" cy="-176.28" fx="437.37" fy="-176.28" r="18.29" gradientTransform="translate(-182.87 203.44) rotate(29.98) skewX(.03)" xlink:href="#radial-gradient"/>
    <radialGradient id="radial-gradient-9" cx="437.37" cy="-176.28" fx="437.37" fy="-176.28" r="18.29" gradientTransform="translate(-85.51 -22.14) rotate(59.95) skewX(.03)" xlink:href="#radial-gradient"/>
    <radialGradient id="radial-gradient-10" cx="437.37" cy="-176.28" fx="437.37" fy="-176.28" r="18.29" gradientTransform="translate(110.65 -171.34) rotate(90.02) skewX(.03)" xlink:href="#radial-gradient"/>
    <radialGradient id="radial-gradient-11" cx="437.37" cy="-176.28" fx="437.37" fy="-176.28" r="18.29" gradientTransform="translate(-185.28 201.36) rotate(30.02) skewX(.03)" xlink:href="#radial-gradient"/>
    <radialGradient id="radial-gradient-12" cx="437.37" cy="-176.28" fx="437.37" fy="-176.28" r="18.29" gradientTransform="translate(-171.87 397.62) rotate(6.16) skewX(.03)" xlink:href="#radial-gradient"/>
    <radialGradient id="radial-gradient-13" cx="437.88" cy="-176.28" fx="437.88" fy="-176.28" r="11.53" gradientTransform="translate(-171.87 397.62) rotate(6.16) skewX(.03)" gradientUnits="userSpaceOnUse">
      <stop offset="0" stop-color="#fff"/>
      <stop offset=".15" stop-color="#d4d4d4"/>
      <stop offset=".31" stop-color="#adadad"/>
      <stop offset=".48" stop-color="#8e8e8e"/>
      <stop offset=".64" stop-color="#777"/>
      <stop offset=".79" stop-color="#6a6a6a"/>
      <stop offset=".92" stop-color="#666"/>
      <stop offset="1" stop-color="#000"/>
    </radialGradient>
    <radialGradient id="radial-gradient-14" cx="437.88" cy="-176.28" fx="437.88" fy="-176.28" r="10.7" gradientTransform="translate(-171.87 397.62) rotate(6.16) skewX(.03)" xlink:href="#radial-gradient"/>
    <radialGradient id="radial-gradient-15" cx="437.88" cy="-176.31" fx="437.88" fy="-176.31" r="14.88" gradientTransform="translate(-171.87 397.62) rotate(6.16) skewX(.03)" gradientUnits="userSpaceOnUse">
      <stop offset="0" stop-color="#fff"/>
      <stop offset=".67" stop-color="#f1f1f1"/>
      <stop offset=".7" stop-color="#979797"/>
    </radialGradient>
    <radialGradient id="radial-gradient-16" cx="412.2" cy="-173.57" fx="412.2" fy="-173.57" r="18.29" gradientTransform="translate(78.95 -147.34) rotate(90.09) skewX(.03)" xlink:href="#radial-gradient"/>
    <radialGradient id="radial-gradient-17" cx="412.2" cy="-173.57" fx="412.2" fy="-173.57" r="18.29" gradientTransform="translate(-189.05 212.95) rotate(30.16) skewX(.03)" xlink:href="#radial-gradient"/>
    <radialGradient id="radial-gradient-18" cx="412.2" cy="-173.57" fx="412.2" fy="-173.57" r="18.29" gradientTransform="translate(-171.87 397.62) rotate(6.16) skewX(.03)" xlink:href="#radial-gradient"/>
    <radialGradient id="radial-gradient-19" cx="412.2" cy="-173.57" fx="412.2" fy="-173.57" r="18.31" gradientTransform="translate(77.72 -137.48) rotate(90.04) skewX(.03)" xlink:href="#radial-gradient"/>
    <radialGradient id="radial-gradient-20" cx="412.2" cy="-173.57" fx="412.2" fy="-173.57" r="18.29" gradientTransform="translate(-186.83 216.74) rotate(29.9) skewX(.03)" xlink:href="#radial-gradient"/>
    <radialGradient id="radial-gradient-21" cx="412.2" cy="-173.57" fx="412.2" fy="-173.57" r="18.29" gradientTransform="translate(-171.87 397.62) rotate(6.16) skewX(.03)" xlink:href="#radial-gradient"/>
    <radialGradient id="radial-gradient-22" cx="412.2" cy="-173.57" fx="412.2" fy="-173.57" r="18.29" gradientTransform="translate(86.16 -136.08) rotate(89.86) skewX(.03)" xlink:href="#radial-gradient"/>
    <radialGradient id="radial-gradient-23" cx="412.2" cy="-173.57" fx="412.2" fy="-173.57" r="18.29" gradientTransform="translate(-171.87 397.62) rotate(6.16) skewX(.03)" xlink:href="#radial-gradient"/>
    <radialGradient id="radial-gradient-24" cx="412.2" cy="-173.57" fx="412.2" fy="-173.57" r="18.29" gradientTransform="translate(-171.87 397.62) rotate(6.16) skewX(.03)" xlink:href="#radial-gradient"/>
    <radialGradient id="radial-gradient-25" cx="412.2" cy="-173.57" fx="412.2" fy="-173.57" r="18.29" gradientTransform="translate(89.17 -146.68) rotate(90.17) skewX(.03)" xlink:href="#radial-gradient"/>
    <radialGradient id="radial-gradient-26" cx="412.2" cy="-173.57" fx="412.2" fy="-173.57" r="18.29" gradientTransform="translate(-187.44 211.57) rotate(30.02) skewX(.03)" xlink:href="#radial-gradient"/>
    <radialGradient id="radial-gradient-27" cx="412.2" cy="-173.57" fx="412.2" fy="-173.57" r="18.29" gradientTransform="translate(-101.76 -4.41) rotate(60.01) skewX(.03)" xlink:href="#radial-gradient"/>
    <radialGradient id="radial-gradient-28" cx="412.71" cy="-173.57" fx="412.71" fy="-173.57" r="11.53" xlink:href="#radial-gradient-13"/>
    <radialGradient id="radial-gradient-29" cx="412.7" cy="-173.57" fx="412.7" fy="-173.57" r="10.7" gradientTransform="translate(-171.87 397.62) rotate(6.16) skewX(.03)" xlink:href="#radial-gradient"/>
    <radialGradient id="radial-gradient-30" cx="412.71" cy="-173.6" fx="412.71" fy="-173.6" r="14.88" xlink:href="#radial-gradient-15"/>
    <linearGradient id="linear-gradient-29" x1="268.48" y1="268.38" x2="268.48" y2="268.98" gradientUnits="userSpaceOnUse">
      <stop offset="0" stop-color="#fff"/>
      <stop offset=".15" stop-color="#d4d4d4"/>
      <stop offset=".31" stop-color="#adadad"/>
      <stop offset=".48" stop-color="#8e8e8e"/>
      <stop offset=".64" stop-color="#777"/>
      <stop offset=".79" stop-color="#6a6a6a"/>
      <stop offset=".92" stop-color="#666"/>
      <stop offset="1" stop-color="#000"/>
    </linearGradient>
    <radialGradient id="radial-gradient-31" cx="256" cy="269.2" fx="256" fy="269.2" r="1.93" gradientUnits="userSpaceOnUse">
      <stop offset="0" stop-color="#fff"/>
      <stop offset=".97" stop-color="#f1f1f1"/>
      <stop offset="1" stop-color="#979797"/>
    </radialGradient>
    <radialGradient id="radial-gradient-32" cx="255.99" cy="269.2" fx="255.99" fy="269.2" r="1.43" gradientUnits="userSpaceOnUse">
      <stop offset="0" stop-color="#fff"/>
      <stop offset=".16" stop-color="#d4d4d4"/>
      <stop offset=".33" stop-color="#adadad"/>
      <stop offset=".51" stop-color="#8e8e8e"/>
      <stop offset=".67" stop-color="#777"/>
      <stop offset=".83" stop-color="#6a6a6a"/>
      <stop offset=".98" stop-color="#666"/>
      <stop offset="1" stop-color="#000"/>
    </radialGradient>
    <radialGradient id="radial-gradient-33" cx="256" cy="269.2" fx="256" fy="269.2" r=".83" gradientTransform="matrix(1,0,0,1,0,0)" xlink:href="#radial-gradient"/>
    <radialGradient id="radial-gradient-34" cx="281.25" fx="281.25" r="1.93" xlink:href="#radial-gradient-31"/>
    <radialGradient id="radial-gradient-35" cx="281.25" fx="281.25" r="1.43" xlink:href="#radial-gradient-32"/>
    <radialGradient id="radial-gradient-36" cx="281.25" cy="269.2" fx="281.25" fy="269.2" r=".83" gradientTransform="matrix(1,0,0,1,0,0)" xlink:href="#radial-gradient"/>
    <linearGradient id="linear-gradient-30" x1="-1809.92" y1="-4526.64" x2="-1793.79" y2="-4522" gradientTransform="translate(-4243.73 2060.01) rotate(90)" gradientUnits="userSpaceOnUse">
      <stop offset="0" stop-color="#fff"/>
      <stop offset=".1" stop-color="#d4d4d4"/>
      <stop offset=".2" stop-color="#adadad"/>
      <stop offset=".3" stop-color="#8e8e8e"/>
      <stop offset=".41" stop-color="#777"/>
      <stop offset=".5" stop-color="#6a6a6a"/>
      <stop offset=".59" stop-color="#666"/>
      <stop offset="1" stop-color="#000"/>
    </linearGradient>
    <radialGradient id="radial-gradient-37" cx="377.8" cy="-175" fx="377.8" fy="-175" r="26.06" gradientTransform="translate(-171.87 397.62) rotate(6.16) skewX(.03)" xlink:href="#radial-gradient"/>
    <radialGradient id="radial-gradient-38" cx="377.8" cy="-175" fx="377.8" fy="-175" r="26.07" gradientTransform="translate(-171.87 397.62) rotate(6.16) skewX(.03)" xlink:href="#radial-gradient"/>
    <radialGradient id="radial-gradient-39" cx="377.8" cy="-175" fx="377.8" fy="-175" r="26.06" gradientTransform="translate(-171.87 397.62) rotate(6.16) skewX(.03)" xlink:href="#radial-gradient"/>
    <radialGradient id="radial-gradient-40" cx="377.8" cy="-175" fx="377.8" fy="-175" r="26.08" gradientTransform="translate(40.49 -106.35) rotate(90.06) skewX(.03)" xlink:href="#radial-gradient"/>
    <radialGradient id="radial-gradient-41" cx="377.8" cy="-175" fx="377.8" fy="-175" r="26.06" gradientTransform="translate(-171.87 397.62) rotate(6.16) skewX(.03)" xlink:href="#radial-gradient"/>
    <radialGradient id="radial-gradient-42" cx="377.8" cy="-175" fx="377.8" fy="-175" r="26.06" gradientTransform="translate(-171.87 397.62) rotate(6.16) skewX(.03)" xlink:href="#radial-gradient"/>
    <radialGradient id="radial-gradient-43" cx="377.8" cy="-175" fx="377.8" fy="-175" r="26.06" gradientTransform="translate(53.9 -104.92) rotate(89.99) skewX(.03)" xlink:href="#radial-gradient"/>
    <radialGradient id="radial-gradient-44" cx="377.8" cy="-175" fx="377.8" fy="-175" r="26.06" gradientTransform="translate(-171.87 397.62) rotate(6.16) skewX(.03)" xlink:href="#radial-gradient"/>
    <radialGradient id="radial-gradient-45" cx="377.8" cy="-175" fx="377.8" fy="-175" r="26.07" gradientTransform="translate(-171.87 397.62) rotate(6.16) skewX(.03)" xlink:href="#radial-gradient"/>
    <radialGradient id="radial-gradient-46" cx="377.8" cy="-175" fx="377.8" fy="-175" r="26.06" gradientTransform="translate(55.53 -118.94) rotate(90.06) skewX(.03)" xlink:href="#radial-gradient"/>
    <radialGradient id="radial-gradient-47" cx="377.8" cy="-175" fx="377.8" fy="-175" r="26.06" gradientTransform="translate(-171.87 397.62) rotate(6.16) skewX(.03)" xlink:href="#radial-gradient"/>
    <radialGradient id="radial-gradient-48" cx="377.8" cy="-175" fx="377.8" fy="-175" r="26.06" gradientTransform="translate(-171.87 397.62) rotate(6.16) skewX(.03)" xlink:href="#radial-gradient"/>
    <radialGradient id="radial-gradient-49" cx="378.51" cy="-175" fx="378.51" fy="-175" r="16.43" xlink:href="#radial-gradient-13"/>
    <radialGradient id="radial-gradient-50" cx="378.51" cy="-175" fx="378.51" fy="-175" r="15.25" gradientTransform="translate(-171.87 397.62) rotate(6.16) skewX(.03)" xlink:href="#radial-gradient"/>
    <radialGradient id="radial-gradient-51" cx="378.51" cy="-175.05" fx="378.51" fy="-175.05" r="21.21" xlink:href="#radial-gradient-15"/>
    <radialGradient id="radial-gradient-52" cx="341.92" cy="-171.14" fx="341.92" fy="-171.14" r="26.06" gradientTransform="translate(-171.87 397.62) rotate(6.16) skewX(.03)" xlink:href="#radial-gradient"/>
    <radialGradient id="radial-gradient-53" cx="341.92" cy="-171.14" fx="341.92" fy="-171.14" r="26.07" gradientTransform="translate(-171.87 397.62) rotate(6.16) skewX(.03)" xlink:href="#radial-gradient"/>
    <radialGradient id="radial-gradient-54" cx="341.92" cy="-171.14" fx="341.92" fy="-171.14" r="26.06" gradientTransform="translate(-171.87 397.62) rotate(6.16) skewX(.03)" xlink:href="#radial-gradient"/>
    <radialGradient id="radial-gradient-55" cx="341.92" cy="-171.14" fx="341.92" fy="-171.14" r="26.08" gradientTransform="translate(8.32 -70.57) rotate(90.06) skewX(.03)" xlink:href="#radial-gradient"/>
    <radialGradient id="radial-gradient-56" cx="341.92" cy="-171.14" fx="341.92" fy="-171.14" r="26.06" gradientTransform="translate(-171.87 397.62) rotate(6.16) skewX(.03)" xlink:href="#radial-gradient"/>
    <radialGradient id="radial-gradient-57" cx="341.92" cy="-171.14" fx="341.92" fy="-171.14" r="26.06" gradientTransform="translate(-171.87 397.62) rotate(6.16) skewX(.03)" xlink:href="#radial-gradient"/>
    <radialGradient id="radial-gradient-58" cx="341.92" cy="-171.14" fx="341.92" fy="-171.14" r="26.06" gradientTransform="translate(21.77 -69.14) rotate(89.99) skewX(.03)" xlink:href="#radial-gradient"/>
    <radialGradient id="radial-gradient-59" cx="341.92" cy="-171.14" fx="341.92" fy="-171.14" r="26.06" gradientTransform="translate(-171.87 397.62) rotate(6.16) skewX(.03)" xlink:href="#radial-gradient"/>
    <radialGradient id="radial-gradient-60" cx="341.92" cy="-171.14" fx="341.92" fy="-171.14" r="26.06" gradientTransform="translate(-171.87 397.62) rotate(6.16) skewX(.03)" xlink:href="#radial-gradient"/>
    <radialGradient id="radial-gradient-61" cx="341.92" cy="-171.14" fx="341.92" fy="-171.14" r="26.06" gradientTransform="translate(23.36 -83.15) rotate(90.06) skewX(.03)" xlink:href="#radial-gradient"/>
    <radialGradient id="radial-gradient-62" cx="341.92" cy="-171.14" fx="341.92" fy="-171.14" r="26.06" gradientTransform="translate(-195.55 238.52) rotate(30.02) skewX(.03)" xlink:href="#radial-gradient"/>
    <radialGradient id="radial-gradient-63" cx="341.92" cy="-171.14" fx="341.92" fy="-171.14" r="26.07" gradientTransform="translate(-171.87 397.62) rotate(6.16) skewX(.03)" xlink:href="#radial-gradient"/>
    <radialGradient id="radial-gradient-64" cx="342.64" cy="-171.14" fx="342.64" fy="-171.14" r="16.43" xlink:href="#radial-gradient-13"/>
    <radialGradient id="radial-gradient-65" cx="342.64" cy="-171.14" fx="342.64" fy="-171.14" r="15.25" gradientTransform="translate(-171.87 397.62) rotate(6.16) skewX(.03)" xlink:href="#radial-gradient"/>
    <radialGradient id="radial-gradient-66" cx="342.64" cy="-171.19" fx="342.64" fy="-171.19" r="21.21" xlink:href="#radial-gradient-15"/>
    <linearGradient id="linear-gradient-31" x1="204.21" y1="262.5" x2="204.21" y2="264.3" xlink:href="#linear-gradient-29"/>
    <radialGradient id="radial-gradient-67" cx="186.26" cy="264.11" fx="186.26" fy="264.11" r="2.75" xlink:href="#radial-gradient-31"/>
    <radialGradient id="radial-gradient-68" cx="186.26" cy="264.11" fx="186.26" fy="264.11" r="2.04" xlink:href="#radial-gradient-32"/>
    <radialGradient id="radial-gradient-69" cx="186.26" cy="264.11" fx="186.26" fy="264.11" r="1.18" gradientTransform="matrix(1,0,0,1,0,0)" xlink:href="#radial-gradient"/>
    <radialGradient id="radial-gradient-70" cx="222.25" cy="264.11" fx="222.25" fy="264.11" r="2.75" xlink:href="#radial-gradient-31"/>
    <radialGradient id="radial-gradient-71" cx="222.25" cy="264.11" fx="222.25" fy="264.11" r="2.04" xlink:href="#radial-gradient-32"/>
    <radialGradient id="radial-gradient-72" cx="222.25" cy="264.11" fx="222.25" fy="264.11" r="1.18" gradientTransform="matrix(1,0,0,1,0,0)" xlink:href="#radial-gradient"/>
    <linearGradient id="linear-gradient-32" x1="185.24" y1="190.34" x2="185.24" y2="168.21" xlink:href="#linear-gradient"/>
  </defs>
  <g class="cls-136">
    <g id="OBJECTS">
      <g>
        <path class="cls-39" d="M278.39,10.54c-1.23-7.9-9.42-11.99-16.78-9.76-.6.18-1.23.44-1.87.74-.01,0-.02-.01-.03-.02-.3-.2-.62.06-.66.35-2.52,1.32-5.13,3.44-7,5.92-.3,0-.55.35-.46.64-1.01,1.48-1.74,3.06-2.02,4.66-.93-5.41-3.31-10.78-8.91-12.51-7.07-2.18-14.56,2.04-18.06,8.18-8.54,14.99,8.4,33.69,22.68,36.73,0,0,0,0,.01,0-.02.06-.04.13-.04.19-.4.41-.76.84-1.1,1.28-.21.02-.38.23-.33.44-.55.75-1.06,1.54-1.55,2.34-.21.34,0,.8.37.9.75.22,1.52.33,2.28.35-1.07,2.18-1.87,4.46-2.36,6.79-.61-.55-1.21-1.1-1.83-1.64-.45-.39-1.07-1.15-1.76-.91-.66.23-.76,1.26-.92,1.81-.35,1.16-.69,2.31-1.04,3.47-.07.25.09.58.35.62,1.49.27,3.43.25,4.77-.63-.3,2.8-.15,5.62.49,8.39-1.14-.98-2.66-1.7-3.89-2.43-.33-.19-.75.05-.75.43,0,1.82.27,3.65.78,5.39.07.25.38.48.66.37,1.25-.5,2.39-1.17,3.45-1.98.08.06.17.09.28.08.24.77.5,1.54.82,2.29,1.12,2.63,2.52,5.13,3.75,7.7-.04.04-.08.08-.12.11.03-.12.01-.25-.08-.37-.84-1.21-2.18-1.91-3.61-2.16-.4-.07-.71.16-.75.57-.19,1.97-.13,3.95.23,5.9.07.38.6.58.91.37,1.43-.93,2.86-2.12,3.8-3.59.48,1.06.93,2.13,1.31,3.24.96,2.81,1.2,5.87.58,8.56-1.04-1.42-2.14-2.81-3.17-4.23-.29-.4-.87-.34-1.04.14-.68,1.9-1.33,3.81-1.96,5.72-.13.39.21.77.59.78,1.62.04,3.28-.03,4.88-.34-1.22,2.71-3.57,4.75-7.33,5.26-.48.06-.73.87-.13.96,4.44.61,7.31-1.98,8.78-5.49.56,1.05,1.19,2.04,1.81,3.06.27.44.88.32,1.04-.14.72-2.03,1.45-4.06,2.16-6.1.15-.43-.32-.86-.73-.73-1.11.35-2.34.62-3.43,1.08.45-2.27.43-4.66-.05-6.69-.42-1.78-1.07-3.47-1.83-5.11.98.23,1.95.53,2.82,1,.26.14.69.03.75-.3.31-1.84-.05-3.65-.8-5.33-.1-.22-.44-.35-.66-.27-1.31.46-2.53,1.3-3.29,2.47-1.31-2.57-2.72-5.1-3.73-7.79-.03-.08-.05-.16-.08-.24,1.64.69,3.34,1.09,5.14,1.33.27.04.54-.27.53-.53-.05-1.14-.27-2.28-.6-3.37-.21-.71-.45-1.48-1.24-1.71-.87-.25-1.68.39-2.37.83-.68.43-1.41.84-2.1,1.31-.66-2.77-.65-5.4-.29-8.02,1.25,1.24,2.6,2.32,4.06,3.38.23.17.61.04.74-.19.92-1.71,1.22-3.6,1.03-5.52-.03-.31-.25-.63-.61-.61-1.59.11-3.24.26-4.83.6.49-2.46,1.17-4.95,1.76-7.58.92-.07,1.83-.27,2.71-.62.29-.12.52-.4.42-.73-.37-1.15-.63-2.56-1.14-3.73,8.02-2.6,15.46-7.16,21.24-13.32,5.31-5.67,10.65-13.89,9.38-22.03ZM240.19,60.1c-.69.16-1.37.19-2.05.12.05-.18.11-.36.16-.55.5.13.99.27,1.47.44.34.12.55-.28.42-.55-.1-.23-.23-.44-.36-.65.3.14.59.3.87.52.39.32.96-.22.57-.57-.18-.16-.34-.33-.52-.5.47.33.89.78,1.38,1.04-.67.19-1.26.53-1.94.68ZM242.38,58.74c-.74-.89-2.21-1.58-3.14-2.01-.05-.02-.11-.03-.16-.03.07-.22.15-.37.22-.4.3-.13,1.37.92,1.61,1.11.5.38,1.01.74,1.51,1.11-.01.08-.03.16-.04.23ZM239.14,68.4s-.02,0-.02,0c-.02-.2-.06-.39-.08-.59.5.29.99.59,1.47.9-.09,0-.18.04-.25.11-.37-.16-.74-.3-1.12-.42ZM239.64,71.43c-.08-.36-.15-.73-.22-1.1.39.26.81.46,1.26.62-.34.17-.69.33-1.04.48ZM241.37,70.6s-.04-.07-.07-.11c-.43-.4-.86-.78-1.26-1.19.26.11.51.24.74.38.28.26.56.52.85.77-.08.05-.17.1-.25.14ZM244.29,81.34c.23.35.47.68.71,1.02-.22-.12-.43-.27-.67-.18-.02-.28-.04-.56-.05-.84ZM244.45,83.56c-.02-.2-.03-.39-.05-.59.08-.09.1-.23-.02-.29,0,0,0,0,0,0,.09.03.27,0,.39.06.13.06.24.16.38.22.03,0,.05,0,.07.01-.25.2-.5.42-.77.61ZM245.75,82.53c-.36-.54-.74-1.06-1.14-1.57.26-.01.53.02.79.09.35.3.72.57,1.09.82-.25.22-.49.45-.74.66ZM246.88,81.52c-.42-.44-.9-.86-1.39-1.25.02-.01.02-.03.03-.04.39.26.76.57,1.13.93.14.14.33.17.5.12-.09.08-.18.16-.27.24ZM246.51,90.65c.47.63.93,1.27,1.4,1.9,0,0-.01.01-.02.02-.45-.32-.92-.62-1.45-.86-.09-.04-.18-.04-.26-.02.11-.35.23-.69.34-1.04ZM245.99,92.25c.18.31.39.61.62.89-.14-.08-.29-.15-.43-.23-.18-.1-.35-.03-.44.1.08-.25.16-.5.25-.76ZM245.23,94.6c.08-.22.15-.45.22-.67.41.19.81.37,1.22.56.08.05.18.09.27.13,0,0,.02,0,.03.01-.58,0-1.15,0-1.73-.03ZM248.83,94.59c.05-.1.05-.22-.07-.31-.48-.38-.89-.79-1.27-1.24.61.38,1.17.83,1.59,1.38.09.12.21.13.31.1.01.02.02.03.04.05-.2,0-.4.01-.6.02ZM254.09,93.77c-.05.15-.1.3-.16.45-.2-.12-.52,0-.43.27-.25-.11-.5-.2-.76-.29.45-.13.9-.28,1.35-.44ZM253.6,95.19c-.12.35-.24.7-.36,1.06-.29-.51-.59-1.02-.87-1.53.43.1.85.26,1.24.47ZM252.4,96.27c.18.27.36.54.55.8-.02.07-.05.13-.07.2-.48-.53-.9-1.09-1.29-1.69.3.2.56.43.8.7ZM251.51,77.98c.02.06.04.13.06.19-.23.02-.43.15-.59.4-.1.16-.03.37.12.47.3.2.53.44.71.72-.65-.17-1.29-.35-1.93-.54.46-.51.98-.93,1.62-1.24ZM251.2,81.14c.09.05.18.11.26.16-.73-.17-1.47-.34-2.21-.45-.04-.09-.08-.17-.13-.26.73.06,1.43.24,2.07.56ZM247.29,68.24c.36-.13.76-.28,1.1.12.18.21.27.84.34,1.12,0,.03.01.05.02.08-.27-.17-.53-.36-.77-.55.03,0,.07,0,.1.01.32.03.37-.47.07-.55-.29-.08-.59-.15-.88-.22,0,0,.01,0,.02,0ZM244.91,69.75c.72.16,1.45.35,2.15.61.4.25.83.46,1.29.63,0,0,0,0,0,0h0s.06.03.1.04c.38.14.6-.33.43-.61.02,0,.04-.02.06-.03.06.3.11.59.16.89-1.63-.13-3.22-.54-4.75-1.13.19-.13.38-.27.56-.4ZM248.28,59.24c.01.3,0,.59,0,.89-.23-.29-.47-.54-.74-.79.25-.03.5-.08.75-.1ZM246.92,59.42c-.06.11-.07.24-.02.38.04.1.11.19.16.29-.31-.19-.63-.38-.95-.57.27-.04.54-.07.81-.11ZM245.78,61.45c.62.45,1.24,1.04,1.97,1.29.01,0,.02,0,.03,0-.03.09-.05.19-.09.28-1.4-.78-2.73-1.74-3.94-2.81.01-.07.02-.14.03-.21.67.48,1.33.96,2,1.44ZM269.5,29.7c-3.21-2.43-6.35-4.96-9.38-7.61.49.36.85.63,1.01.75,1.96,1.51,3.95,2.95,5.97,4.38.92.69,1.86,1.35,2.83,1.98-.14.17-.28.34-.43.5ZM270.6,28.35c-3.63-2.4-6.94-5.16-10.01-8.23-.4-.39-1.66-1.73-3.08-3.22.62.51,1.28,1.03,1.96,1.57,3.57,3.43,7.42,6.53,11.85,8.93-.23.32-.48.64-.72.96ZM271.89,26.59c-4.14-2.9-8.18-5.95-12.1-9.14-.78-.76-1.72-1.66-2.63-2.54,3.69,2.91,9.12,6.84,12.48,9.24.47.35.95.68,1.43,1.02.52.37.93.66,1.21.86-.13.19-.26.38-.39.57ZM272.77,25.22c-5.13-3.6-9.86-7.79-14.52-12.02,5.1,3.57,10.19,7.14,15.28,10.73-.24.44-.5.87-.76,1.29ZM273.98,23.11c-4.24-3.2-8.4-6.49-12.51-9.86,4.31,3.05,8.55,6.18,12.78,9.33-.09.18-.18.35-.27.52ZM274.7,21.61c-3.03-2.79-6.11-5.53-9.24-8.2,3.26,2.33,6.5,4.69,9.73,7.07-.16.38-.32.76-.49,1.13ZM275.78,18.95c-.05.14-.11.27-.16.41-2.3-2.41-4.68-4.75-7.15-6.98,2.42,1.67,4.85,3.35,7.27,5.02.17.12.34.11.48.04-.12.5-.27,1-.44,1.5ZM276.3,16.46c-6.11-4.13-12.23-8.25-18.33-12.39.13-.08.27-.15.4-.23,4.52,2.95,9.05,5.88,13.62,8.75,1.41.95,2.85,1.86,4.33,2.69.1.06.19.06.28.05-.05.41-.1.83-.18,1.24-.03-.04-.06-.08-.11-.12ZM276.09,13.31c.22.15.46.06.59-.12.01.4,0,.81-.01,1.22-3.85-2.39-7.4-5.08-10.88-7.89,3.44,2.26,6.87,4.52,10.3,6.79ZM260.03,2.97c1.58,1.42,3.19,2.83,4.83,4.2-2.01-1.2-4.02-2.4-6.03-3.6.39-.22.79-.42,1.2-.6ZM276.65,12.57c-1.42-1.38-2.89-2.7-4.39-3.99,1.07.68,2.14,1.35,3.21,2.03.49.31,1.09-.43.64-.82-1.74-1.48-3.51-2.94-5.26-4.4.95.56,1.9,1.12,2.85,1.68.56.33,1.21-.46.71-.91-1.28-1.15-2.56-2.31-3.86-3.45-.01-.01-.02-.03-.04-.04,3.71,1.73,5.85,5.57,6.14,9.92ZM268.88,2.8c.16.15.33.3.5.45-.89-.51-1.77-1.03-2.66-1.55.74.05,1.45.17,2.11.34-.16.22-.19.54.05.76ZM263.29,1.92c.58-.11,1.13-.18,1.68-.21,0,.11.06.23.17.32,1.5,1.27,3.02,2.51,4.53,3.77-1.61-1-3.22-1.99-4.83-3-.53-.33-.97.47-.48.82,2.46,1.78,4.83,3.65,7.14,5.61-3.44-2.23-6.87-4.46-10.28-6.73.68-.24,1.37-.44,2.08-.57ZM257.3,4.51c.02.1.07.19.17.27.49.37.97.74,1.45,1.11.1.31.41.55.94.72,3.9,3.04,7.64,6.22,11.21,9.63-4.98-3.61-10-7.19-15.06-10.69.42-.37.85-.71,1.31-1.03ZM255.23,6.25c4.07,3.22,8.05,6.54,11.96,9.94-4.22-3.08-8.48-6.1-12.85-8.98.28-.33.58-.65.88-.96ZM253.71,8c2.11,1.81,4.24,3.58,6.39,5.34-2.27-1.6-4.54-3.2-6.8-4.8.13-.19.28-.36.42-.54ZM252.7,9.5c2.13,1.92,4.24,3.86,6.38,5.8-2.23-1.74-4.45-3.5-6.62-5.31.08-.16.15-.32.24-.48ZM251.68,11.83c2.22,2.66,4.49,5.26,6.89,7.74-2.53-1.99-5.02-4.04-7.46-6.16.19-.53.38-1.05.57-1.58ZM250.78,14.29c.25.25.5.5.74.75.16.36.9,1.06,1.91,1.91,1.84,1.82,3.72,3.6,5.66,5.32.05.05.11.1.16.15-3.06-2.18-6.12-4.37-9.16-6.59.25-.5.48-1.02.68-1.54ZM250.01,16.79c1.25,1.09,2.51,2.18,3.77,3.27-1.26-.85-2.53-1.67-3.83-2.48.06-.08.1-.17.09-.29,0-.16-.02-.33-.03-.5ZM248.02,12.73c.23.94.44,1.89.63,2.82-1.64-1.85-3.32-3.66-5.05-5.41,1.25.9,2.51,1.79,3.78,2.65.24.17.48.1.64-.06ZM244.82,5.15c1.35,1.77,2.22,4,2.87,6.34-.98-1.09-1.99-2.15-3.02-3.19.33.24.65.47.98.71.56.4,1.15-.45.71-.92-1.04-1.1-2.09-2.18-3.13-3.28l.91.55c.29.18.56.03.68-.2ZM243.66,3.85c-.89-.56-1.78-1.12-2.67-1.68,1.02.42,1.91.98,2.67,1.68ZM237.43,1.42c.82.03,1.56.16,2.26.34-.23.19-.33.56-.08.82.57.61,1.15,1.22,1.72,1.84-1.38-1-2.76-2-4.13-3,.08,0,.15,0,.23,0ZM235.61,1.48c0,.12.06.24.17.33,2.59,2.07,5.03,4.27,7.37,6.58-2.95-2.16-5.82-4.42-8.63-6.77.36-.06.72-.11,1.08-.14ZM233.15,1.94c4.25,3.58,8.27,7.39,12.06,11.43-4.62-3.53-9.14-7.19-13.63-10.87.51-.21,1.04-.4,1.57-.56ZM230.5,3c5.76,4.86,11.5,9.72,17.25,14.59-6.09-4.67-12.19-9.33-18.28-14,.34-.21.68-.4,1.03-.58ZM228.53,4.21c3.44,3.41,6.98,6.69,10.6,9.88-3.92-2.99-7.84-5.97-11.75-8.97.37-.32.75-.63,1.14-.92ZM235.13,12.29c-.08,0-.16,0-.26.01-.04,0-.08.03-.1.06-.69-.64-1.38-1.28-2.06-1.93.81.62,1.62,1.24,2.43,1.86ZM226.6,5.85c5.44,5.49,11.12,10.72,16.93,15.8-6.1-4.74-12.21-9.48-18.31-14.22.43-.55.88-1.08,1.37-1.57ZM224.59,8.3c2.97,3.36,6.2,6.43,9.57,9.34-3.45-2.7-6.89-5.4-10.32-8.12,0,0,0,0,0,0,.23-.42.48-.83.75-1.22ZM223.39,10.36c2.19,1.88,12.02,10.24,20.48,17.34-8.43-6.52-18.3-14.01-21.02-16.09.16-.42.34-.84.54-1.24ZM222.52,12.53c2.11,2.21,4.29,4.34,6.53,6.38-1.03-.8-2.05-1.6-3.08-2.4-.1-.08-.19-.16-.29-.23-1.15-.9-2.3-1.8-3.45-2.7.08-.35.17-.71.28-1.06ZM222.05,14.49c.87.74,1.75,1.47,2.62,2.21.68.67,1.45,1.29,2.25,1.89,3.41,2.87,6.83,5.74,10.24,8.61,2.13,1.79,4.25,3.57,6.38,5.36-1.73-1.28-3.47-2.57-5.2-3.85-5.48-4.06-10.96-8.13-16.44-12.19-.04-.03-.08-.04-.12-.05.05-.65.14-1.31.26-1.97ZM221.75,17.55c3.41,2.88,6.88,5.7,10.37,8.5-3.26-2.18-6.55-4.31-9.88-6.37-.13-.08-.27-.05-.38.03-.08-.71-.11-1.43-.1-2.15ZM227.96,24.54c4.08,3.87,8.84,7.14,13.28,10.6.68.53,1.36,1.07,2.04,1.6-1.1-.79-2.22-1.56-3.31-2.37-1.11-.88-2.22-1.77-3.34-2.64-1.36-1.06-2.73-2.1-4.12-3.1-.87-.7-1.74-1.42-2.6-2.14-1.67-1.4-3.25-2.97-4.95-4.34.35.26.69.5.95.67.71.46,1.41.93,2.12,1.4-.12.04-.19.2-.08.31ZM221.92,20.35c1.83,1.71,3.7,3.37,5.6,5-1.43-.85-2.9-1.65-4.43-2.37-.27-.13-.49.06-.51.28-.29-.95-.52-1.92-.66-2.92ZM222.66,23.51s.04.06.08.08c1,.75,5.57,4.13,10.58,7.83-4.56-3.01-8.74-5.7-10.2-6.64-.17-.42-.32-.84-.46-1.27ZM229.17,33.77c3.02,2.6,6.03,5.11,9.28,7.3-3.3-2.01-6.54-4.47-9.28-7.3ZM241.91,42.57c-1.33-.76-2.61-1.6-3.87-2.47-3.16-2.16-6.16-4.52-9.15-6.92-.08-.07-.18-.01-.21.06-2.08-2.23-3.84-4.69-5.06-7.33,3.46,2.8,6.89,5.73,10.37,8.6l-7.66-5.53c-.25-.18-.58.24-.33.43,5.64,4.56,11.44,8.99,16.94,13.72,1.81,1.56-.11-.04-1.02-.56ZM235.87,36.7c-.25-.2-.51-.41-.76-.61.8.53,1.58,1.05,2.32,1.59,3.2,2.31,6.39,4.61,9.59,6.92-.41.15-.81.31-1.22.46,0-.12-.05-.24-.21-.3-.06-.02-.11-.05-.17-.07.05-.1.05-.21-.07-.3-3.17-2.55-6.33-5.11-9.5-7.67ZM246.19,46.79c.11.13.19.26.28.4-.33-.23-.65-.47-.94-.73.02-.03.04-.06.05-.09.13.08.3.11.5.05.02,0,.03,0,.05-.01-.05.13-.04.28.05.4ZM243.73,49.65c.06-.11.13-.22.19-.33.47.06.94.13,1.4.23.27.06.53-.23.37-.49-.14-.23-.28-.44-.42-.67.48.32.93.68,1.37,1.06.3.26.68-.06.53-.41-.13-.29-.29-.58-.46-.87.2.15.4.3.6.44.1.27.19.53.29.79-1.27.4-2.56.48-3.87.23ZM247.63,44.37c-4.1-3.27-8.21-6.54-12.31-9.81-.76-.6-5.02-3.78-8.12-6.11,3.39,2.25,8.26,5.22,8.96,5.7,4.47,3.09,8.88,6.26,13.25,9.48-.6.25-1.19.5-1.79.73ZM249.95,43.41c0-.08-.04-.16-.13-.22-.74-.56-1.48-1.12-2.21-1.67-.97-.88-2.83-2.26-5.12-3.87-2.45-1.86-4.91-3.72-7.36-5.57-2.45-1.85-4.9-3.7-7.35-5.55-.17-.13-.47-.41-.82-.73,1.55.9,3.05,1.86,4.51,2.88,1.17.95,2.35,1.89,3.54,2.81,2.28,1.77,4.6,3.49,6.95,5.17.68.53,1.37,1.05,2.06,1.57,1.63,1.3,3.75,3.03,5.37,3.72.54.34,1.1.68,1.65,1-.36.16-.72.32-1.08.48ZM252.43,42.29c-5.8-4.26-11.45-8.99-17.32-13.29.68.47,1.37.93,2.04,1.41,1.94,1.37,3.86,2.76,5.77,4.17,3.27,2.53,6.54,5.06,9.82,7.57-.1.05-.21.1-.31.14ZM253.59,41.71c-.71-.57-1.43-1.12-2.15-1.68-1.45-1.99-5.27-4.02-7.18-5.5-2.62-2.03-5.23-4.08-7.83-6.14,5.89,4.35,11.78,8.71,17.67,13.06-.17.09-.34.18-.51.26ZM254.93,41.03s-.03-.05-.06-.07c-5.66-4.74-11.31-9.48-16.97-14.22.56.43,1.12.86,1.69,1.29,5.55,4.17,11.18,8.23,16.93,12.11-.53.3-1.06.6-1.6.89ZM257.35,39.68s0-.01-.02-.02c-1.04-.73-2.08-1.47-3.12-2.2-.48-.4-1.06-.79-1.65-1.16-4.74-3.36-9.45-6.78-14.01-10.38-2.44-1.93-4.84-3.91-7.17-5.97-.26-.23-1.9-1.59-3.61-3.1,4.25,3.38,10.32,7.53,11.56,8.49,6.11,4.72,12.21,9.43,18.32,14.15-.1.06-.2.13-.31.19ZM258.46,38.99c-5.84-4.98-11.67-9.97-17.51-14.96,6.12,4.81,12.23,9.63,18.35,14.43-.28.18-.56.35-.84.52ZM260.25,37.83c-9.78-9.27-21.3-16.55-30.91-25.97,10.76,8.34,21.51,16.69,32.25,25.05-.44.32-.89.62-1.34.92ZM262.4,36.3c-8.6-7.13-17.17-14.31-25.4-21.86,8.58,7.27,17.49,14.33,26.59,20.92-.4.32-.78.64-1.19.94ZM264.33,34.78c-4.54-3.61-9.22-7.05-13.84-10.57-2.48-1.89-4.97-3.79-7.44-5.69-1.35-1.04-2.7-2.08-4.05-3.12-.18-.14-1.18-.9-1.88-1.58,9.1,6.96,18.19,13.93,27.28,20.91-.02.02-.05.04-.07.06ZM265.27,33.98c-9.81-7.67-19.64-15.34-28.84-23.72,9.9,7.65,19.81,15.29,29.73,22.91-.29.27-.59.54-.89.8ZM267.02,32.36c-5.12-4.31-10.24-8.63-15.37-12.94,3.53,2.43,6.98,4.98,10.3,7.68,1.77,1.52,3.54,3.04,5.31,4.55.11.09.23.11.34.09-.2.2-.39.41-.6.61ZM267.97,31.38c0-.1-.02-.21-.13-.3-.7-.62-1.4-1.24-2.1-1.85-1.76-2.28-4.96-4.21-7.14-6.08-.67-.57-1.35-1.22-2.04-1.87,2.1,1.51,4.2,3.03,6.29,4.54,1.41,1.28,2.89,2.47,4.38,3.16.07.05.15.11.22.16.55.76.93,1.03,1.15.83.13.09.26.19.39.28-.34.38-.68.75-1.03,1.12Z"/>
        <path class="cls-39" d="M290.41,70.91c-.66-4.25-5.06-6.45-9.02-5.25-.32.1-.66.24-1.01.4,0,0-.01,0-.02-.01-.16-.11-.34.03-.36.19-1.35.71-2.76,1.85-3.76,3.18-.16,0-.3.19-.25.35-.54.79-.94,1.64-1.09,2.51-.5-2.91-1.78-5.8-4.79-6.73-3.8-1.17-7.83,1.1-9.71,4.4-4.59,8.06,4.52,18.12,12.2,19.75,0,0,0,0,0,0-.01.03-.02.07-.02.1-.21.22-.41.45-.59.69-.11.01-.21.12-.18.24-.3.4-.57.83-.83,1.26-.11.18,0,.43.2.49.41.12.82.18,1.23.19-.58,1.17-1.01,2.4-1.27,3.65-.33-.3-.65-.59-.98-.88-.24-.21-.58-.62-.95-.49-.35.12-.41.68-.5.97-.19.62-.37,1.24-.56,1.86-.04.13.05.31.19.34.8.15,1.85.13,2.57-.34-.16,1.5-.08,3.02.26,4.51-.62-.53-1.43-.92-2.09-1.31-.18-.1-.41.03-.41.23,0,.98.15,1.96.42,2.9.04.14.21.26.35.2.67-.27,1.28-.63,1.85-1.07.04.03.09.05.15.04.13.41.27.83.44,1.23.6,1.42,1.36,2.76,2.02,4.14-.02.02-.04.04-.07.06.02-.06,0-.13-.04-.2-.45-.65-1.17-1.03-1.94-1.16-.22-.04-.38.09-.4.31-.1,1.06-.07,2.12.13,3.17.04.21.32.31.49.2.77-.5,1.54-1.14,2.04-1.93.26.57.5,1.15.7,1.74.51,1.51.65,3.16.31,4.6-.56-.76-1.15-1.51-1.71-2.28-.16-.22-.47-.18-.56.07-.36,1.02-.71,2.05-1.05,3.08-.07.21.11.41.32.42.87.02,1.76-.02,2.62-.18-.66,1.46-1.92,2.56-3.94,2.83-.26.03-.39.47-.07.51,2.39.33,3.93-1.07,4.72-2.95.3.56.64,1.1.98,1.65.14.24.47.17.56-.07.39-1.09.78-2.19,1.16-3.28.08-.23-.17-.46-.39-.39-.6.19-1.26.33-1.85.58.24-1.22.23-2.5-.03-3.6-.23-.96-.58-1.86-.98-2.75.53.13,1.05.29,1.51.54.14.08.37.02.4-.16.17-.99-.03-1.96-.43-2.87-.05-.12-.24-.19-.36-.14-.7.25-1.36.7-1.77,1.33-.7-1.38-1.46-2.74-2-4.19-.02-.04-.03-.09-.04-.13.88.37,1.8.59,2.76.72.15.02.29-.15.28-.28-.03-.61-.15-1.22-.32-1.81-.12-.38-.24-.79-.66-.92-.47-.14-.9.21-1.27.45-.36.23-.76.45-1.13.7-.36-1.49-.35-2.91-.16-4.31.67.67,1.4,1.25,2.19,1.82.12.09.33.02.4-.1.49-.92.66-1.94.55-2.97-.02-.17-.14-.34-.33-.33-.86.06-1.74.14-2.6.32.26-1.32.63-2.66.94-4.07.49-.04.98-.15,1.46-.34.16-.06.28-.21.22-.39-.2-.62-.34-1.38-.61-2.01,4.32-1.4,8.32-3.85,11.42-7.16,2.86-3.05,5.73-7.47,5.04-11.85ZM269.86,97.57c-.37.08-.73.1-1.1.07.03-.1.06-.2.09-.29.27.07.53.15.79.23.18.06.29-.15.23-.3-.06-.12-.12-.24-.2-.35.16.07.32.16.47.28.21.17.52-.12.3-.3-.09-.09-.18-.18-.28-.27.25.18.48.42.74.56-.36.1-.68.28-1.05.37ZM271.04,96.83c-.4-.48-1.19-.85-1.69-1.08-.03-.01-.06-.02-.09-.02.04-.12.08-.2.12-.22.16-.07.73.5.87.6.27.2.54.4.81.59,0,.04-.01.08-.02.13ZM269.3,102.03s0,0-.01,0c-.01-.11-.03-.21-.04-.32.27.15.53.32.79.49-.05,0-.1.02-.13.06-.2-.09-.4-.16-.6-.22ZM269.56,103.66c-.05-.2-.08-.39-.12-.59.21.14.44.24.68.33-.18.09-.37.18-.56.26ZM270.5,103.21s-.02-.04-.04-.06c-.23-.21-.46-.42-.68-.64.14.06.27.13.4.21.15.14.3.28.46.41-.04.03-.09.05-.13.08ZM272.07,108.99c.12.19.25.37.38.55-.12-.07-.23-.14-.36-.1,0-.15-.02-.3-.03-.45ZM272.15,110.18c-.01-.11-.02-.21-.03-.32.04-.05.05-.12-.01-.16,0,0,0,0,0,0,.05.02.15,0,.21.03.07.03.13.09.2.12.01,0,.02,0,.04,0-.14.11-.27.22-.41.33ZM272.85,109.63c-.19-.29-.4-.57-.61-.84.14,0,.28,0,.42.05.19.16.39.31.59.44-.13.12-.26.24-.4.36ZM273.46,109.08c-.23-.24-.48-.46-.75-.67,0,0,.01-.02.02-.02.21.14.41.3.61.5.08.08.18.09.27.07-.05.04-.1.09-.14.13ZM273.26,113.99c.25.34.5.68.75,1.02,0,0,0,0-.01,0-.24-.17-.49-.33-.78-.46-.05-.02-.1-.02-.14-.01.06-.19.12-.37.18-.56ZM272.98,114.86c.1.17.21.33.33.48-.08-.04-.15-.08-.23-.12-.1-.05-.19-.02-.23.05.04-.14.09-.27.13-.41ZM272.57,116.12c.04-.12.08-.24.12-.36.22.1.44.2.65.3.05.03.1.05.14.07,0,0,.01,0,.02,0-.31,0-.62,0-.93-.02ZM274.51,116.12c.03-.05.02-.12-.04-.17-.26-.21-.48-.43-.68-.67.33.2.63.45.86.74.05.06.11.07.17.05,0,0,.01.02.02.03-.11,0-.21,0-.32.01ZM277.34,115.67c-.03.08-.06.16-.08.24-.11-.06-.28,0-.23.15-.13-.06-.27-.11-.41-.15.24-.07.49-.15.72-.24ZM277.07,116.43c-.07.19-.13.38-.2.57-.16-.27-.32-.55-.47-.82.23.05.46.14.67.25ZM276.43,117.02c.09.15.19.29.3.43-.01.04-.02.07-.04.11-.26-.28-.49-.59-.69-.91.16.11.3.23.43.38ZM275.95,107.18s.02.07.03.1c-.12.01-.23.08-.32.22-.06.09-.01.2.07.25.16.11.28.24.38.39-.35-.09-.69-.19-1.04-.29.25-.27.53-.5.87-.67ZM275.78,108.88s.09.06.14.08c-.39-.09-.79-.18-1.19-.24-.02-.05-.05-.09-.07-.14.39.03.77.13,1.11.3ZM273.68,101.94c.19-.07.41-.15.59.07.1.11.14.45.18.6,0,.01,0,.03,0,.04-.14-.09-.28-.19-.41-.3.02,0,.04,0,.05,0,.17.02.2-.25.04-.3-.16-.04-.32-.08-.47-.12,0,0,0,0,0,0ZM272.4,102.76c.39.08.78.19,1.16.33.22.13.45.25.69.34,0,0,0,0,0,0h0s.03.02.05.02c.21.07.32-.18.23-.33.01,0,.02-.01.03-.02.03.16.06.32.08.48-.88-.07-1.73-.29-2.55-.61.1-.07.2-.14.3-.22ZM274.22,97.1c0,.16,0,.32,0,.48-.12-.16-.25-.29-.4-.42.13-.02.27-.04.4-.05ZM273.48,97.2c-.03.06-.04.13,0,.2.02.06.06.1.08.16-.17-.1-.34-.2-.51-.3.14-.02.29-.04.43-.06ZM272.87,98.29c.33.24.67.56,1.06.7,0,0,0,0,.01,0-.02.05-.03.1-.05.15-.75-.42-1.47-.94-2.12-1.51,0-.04.01-.08.02-.11.36.26.72.52,1.07.78ZM285.63,81.22c-1.73-1.31-3.41-2.67-5.04-4.09.26.19.46.34.54.4,1.05.81,2.13,1.59,3.21,2.35.49.37,1,.73,1.52,1.07-.08.09-.15.18-.23.27ZM286.22,80.49c-1.95-1.29-3.73-2.78-5.38-4.43-.21-.21-.89-.93-1.65-1.73.34.27.69.56,1.05.84,1.92,1.84,3.99,3.51,6.37,4.8-.13.17-.26.34-.39.51ZM286.91,79.54c-2.23-1.56-4.4-3.2-6.51-4.92-.42-.41-.92-.89-1.42-1.37,1.99,1.56,4.91,3.68,6.71,4.97.25.19.51.37.77.55.28.2.5.36.65.46-.07.1-.14.2-.21.31ZM287.38,78.81c-2.76-1.94-5.3-4.19-7.81-6.46,2.74,1.92,5.48,3.84,8.22,5.77-.13.24-.27.47-.41.69ZM288.03,77.67c-2.28-1.72-4.52-3.49-6.73-5.3,2.32,1.64,4.6,3.32,6.87,5.02-.05.1-.1.19-.15.28ZM288.42,76.86c-1.63-1.5-3.29-2.97-4.97-4.41,1.75,1.25,3.5,2.52,5.23,3.8-.08.21-.17.41-.26.61ZM289,75.43c-.03.07-.06.15-.08.22-1.24-1.3-2.51-2.55-3.85-3.75,1.3.9,2.61,1.8,3.91,2.7.09.06.18.06.26.02-.07.27-.14.54-.24.81ZM289.28,74.1c-3.29-2.22-6.58-4.44-9.86-6.66.07-.04.14-.08.22-.13,2.43,1.59,4.87,3.16,7.33,4.71.76.51,1.53,1,2.33,1.45.05.03.1.03.15.03-.02.22-.06.45-.1.67-.02-.02-.03-.04-.06-.06ZM289.17,72.4c.12.08.25.03.32-.06,0,.22,0,.43,0,.65-2.07-1.28-3.98-2.73-5.85-4.24,1.85,1.21,3.7,2.43,5.54,3.65ZM280.53,66.84c.85.76,1.71,1.52,2.6,2.26-1.08-.65-2.16-1.29-3.24-1.94.21-.12.43-.22.65-.32ZM289.47,72c-.77-.74-1.56-1.45-2.36-2.15.57.36,1.15.73,1.72,1.09.27.17.59-.23.34-.44-.94-.8-1.89-1.58-2.83-2.37.51.3,1.02.6,1.53.91.3.18.65-.25.38-.49-.69-.62-1.38-1.24-2.07-1.86,0,0-.01-.02-.02-.02,1.99.93,3.15,3,3.3,5.33ZM285.29,66.75c.09.08.18.16.27.24-.48-.27-.95-.55-1.43-.83.4.03.78.09,1.14.18-.09.12-.1.29.03.41ZM282.29,66.28c.31-.06.61-.09.9-.12,0,.06.03.12.09.17.81.68,1.63,1.35,2.44,2.03-.87-.54-1.73-1.07-2.6-1.61-.28-.18-.52.25-.26.44,1.32.96,2.6,1.97,3.84,3.02-1.85-1.2-3.7-2.4-5.53-3.62.36-.13.74-.24,1.12-.31ZM279.07,67.67c.01.05.04.1.09.14.26.2.52.4.78.6.05.17.22.3.5.39,2.1,1.64,4.11,3.35,6.03,5.18-2.68-1.94-5.38-3.86-8.1-5.75.22-.2.46-.38.7-.56ZM277.95,68.6c2.19,1.73,4.33,3.51,6.43,5.34-2.27-1.66-4.56-3.28-6.91-4.83.15-.18.31-.35.48-.51ZM277.13,69.55c1.13.97,2.28,1.93,3.44,2.87-1.22-.86-2.44-1.72-3.66-2.58.07-.1.15-.19.22-.29ZM276.59,70.35c1.14,1.03,2.28,2.08,3.43,3.12-1.2-.93-2.39-1.88-3.56-2.86.04-.09.08-.17.13-.26ZM276.04,71.6c1.19,1.43,2.42,2.83,3.7,4.16-1.36-1.07-2.7-2.17-4.01-3.31.1-.28.2-.57.31-.85ZM275.56,72.93c.13.14.27.27.4.41.09.19.49.57,1.03,1.03.99.98,2,1.93,3.04,2.86.03.03.06.05.09.08-1.65-1.17-3.29-2.35-4.92-3.54.14-.27.26-.55.37-.83ZM275.14,74.27c.67.59,1.35,1.17,2.03,1.76-.68-.46-1.36-.9-2.06-1.33.03-.04.05-.09.05-.16,0-.09-.01-.18-.02-.27ZM274.07,72.09c.12.51.24,1.02.34,1.52-.88-1-1.79-1.97-2.72-2.91.67.48,1.35.96,2.03,1.43.13.09.26.05.34-.03ZM272.35,68.01c.73.95,1.2,2.15,1.54,3.41-.53-.59-1.07-1.16-1.62-1.72.17.13.35.25.52.38.3.22.62-.24.38-.5-.56-.59-1.12-1.18-1.68-1.76l.49.3c.16.09.3.01.37-.11ZM271.73,67.32c-.48-.3-.96-.6-1.44-.9.55.22,1.03.53,1.44.9ZM268.38,66.01c.44.02.84.09,1.21.18-.12.1-.18.3-.04.44.31.33.62.66.93.99-.74-.54-1.48-1.07-2.22-1.61.04,0,.08,0,.12,0ZM267.4,66.04c0,.07.03.13.09.18,1.39,1.11,2.71,2.3,3.97,3.54-1.59-1.16-3.13-2.38-4.64-3.64.19-.03.39-.06.58-.08ZM266.08,66.29c2.29,1.93,4.45,3.97,6.49,6.15-2.49-1.9-4.91-3.87-7.33-5.85.28-.12.56-.22.85-.3ZM264.65,66.86c3.1,2.61,6.19,5.23,9.28,7.84-3.28-2.51-6.56-5.02-9.83-7.53.18-.11.37-.22.56-.31ZM263.59,67.51c1.85,1.83,3.76,3.6,5.7,5.32-2.11-1.61-4.21-3.21-6.32-4.82.2-.17.4-.34.62-.49ZM267.14,71.85s-.08,0-.14,0c-.02,0-.04.01-.06.03-.37-.35-.74-.69-1.11-1.04.44.33.87.67,1.3,1ZM262.55,68.39c2.93,2.95,5.98,5.76,9.11,8.5-3.28-2.55-6.57-5.1-9.85-7.65.23-.3.47-.58.74-.85ZM261.47,69.71c1.6,1.81,3.33,3.46,5.15,5.02-1.85-1.45-3.71-2.9-5.55-4.36,0,0,0,0,0,0,.13-.23.26-.44.4-.66ZM260.83,70.81c1.18,1.01,6.46,5.51,11.01,9.32-4.53-3.51-9.84-7.54-11.3-8.66.09-.23.18-.45.29-.67ZM260.36,71.98c1.13,1.19,2.31,2.33,3.51,3.43-.55-.43-1.1-.86-1.66-1.29-.05-.04-.1-.08-.16-.12-.62-.48-1.24-.97-1.85-1.45.05-.19.09-.38.15-.57ZM260.11,73.04c.47.4.94.79,1.41,1.19.36.36.78.7,1.21,1.02,1.84,1.54,3.67,3.09,5.51,4.63,1.14.96,2.29,1.92,3.43,2.88-.93-.69-1.86-1.38-2.8-2.07-2.95-2.18-5.89-4.37-8.84-6.55-.02-.02-.04-.02-.06-.03.03-.35.08-.7.14-1.06ZM259.94,74.68c1.84,1.55,3.7,3.07,5.58,4.57-1.75-1.17-3.52-2.32-5.32-3.43-.07-.04-.15-.03-.2.01-.04-.38-.06-.77-.06-1.16ZM263.28,78.44c2.19,2.08,4.76,3.84,7.14,5.7.37.29.73.57,1.1.86-.59-.42-1.19-.84-1.78-1.27-.6-.47-1.19-.95-1.8-1.42-.73-.57-1.47-1.13-2.21-1.67-.47-.38-.93-.76-1.4-1.15-.9-.75-1.75-1.59-2.66-2.33.19.14.37.27.51.36.38.25.76.5,1.14.75-.06.02-.1.11-.04.17ZM260.04,76.19c.99.92,1.99,1.81,3.01,2.69-.77-.46-1.56-.89-2.38-1.27-.15-.07-.27.03-.27.15-.16-.51-.28-1.03-.36-1.57ZM260.44,77.89s.02.03.04.04c.54.4,3,2.22,5.69,4.21-2.45-1.62-4.7-3.07-5.48-3.57-.09-.23-.17-.45-.25-.68ZM263.94,83.41c1.62,1.4,3.24,2.75,4.99,3.92-1.77-1.08-3.52-2.4-4.99-3.92ZM270.79,88.14c-.72-.41-1.4-.86-2.08-1.33-1.7-1.16-3.32-2.43-4.92-3.72-.04-.04-.1,0-.11.03-1.12-1.2-2.06-2.52-2.72-3.94,1.86,1.5,3.71,3.08,5.58,4.63l-4.12-2.98c-.14-.1-.31.13-.18.23,3.03,2.45,6.15,4.83,9.11,7.38.97.84-.06-.02-.55-.3ZM267.54,84.98c-.14-.11-.27-.22-.41-.33.43.28.85.57,1.25.85,1.72,1.24,3.44,2.48,5.16,3.72-.22.08-.44.17-.65.25,0-.07-.03-.13-.11-.16-.03-.01-.06-.03-.09-.04.03-.05.03-.11-.04-.16-1.71-1.37-3.41-2.75-5.11-4.13ZM273.09,90.41c.06.07.1.14.15.21-.18-.12-.35-.25-.5-.39,0-.02.02-.03.03-.05.07.04.16.06.27.03,0,0,.02,0,.03,0-.03.07-.02.15.03.21ZM271.76,91.94c.03-.06.07-.12.1-.18.25.03.51.07.75.13.15.03.28-.12.2-.26-.07-.12-.15-.24-.22-.36.26.17.5.37.74.57.16.14.37-.03.28-.22-.07-.16-.16-.31-.25-.47.11.08.22.16.32.24.05.14.1.29.15.43-.68.22-1.38.26-2.08.12ZM273.86,89.1c-2.21-1.76-4.41-3.52-6.62-5.27-.41-.32-2.7-2.03-4.36-3.28,1.82,1.21,4.44,2.8,4.82,3.07,2.4,1.66,4.77,3.37,7.13,5.1-.32.13-.64.27-.96.39ZM275.11,88.59s-.02-.09-.07-.12c-.4-.3-.79-.6-1.19-.9-.52-.47-1.52-1.22-2.75-2.08-1.32-1-2.64-2-3.96-3-1.32-1-2.64-1.99-3.95-2.99-.09-.07-.25-.22-.44-.39.83.48,1.64,1,2.42,1.55.63.51,1.26,1.02,1.9,1.51,1.23.95,2.47,1.88,3.74,2.78.37.28.74.56,1.11.84.88.7,2.02,1.63,2.89,2,.29.18.59.36.89.54-.19.09-.39.17-.58.26ZM276.45,87.99c-3.12-2.29-6.16-4.84-9.31-7.15.37.25.74.5,1.1.76,1.04.73,2.08,1.48,3.1,2.24,1.76,1.36,3.52,2.72,5.28,4.07-.06.03-.11.05-.17.08ZM277.07,87.68c-.38-.3-.77-.6-1.15-.9-.78-1.07-2.83-2.16-3.86-2.96-1.41-1.09-2.81-2.2-4.21-3.3,3.17,2.34,6.33,4.68,9.5,7.03-.09.05-.18.09-.28.14ZM277.79,87.31s-.02-.03-.03-.04c-3.04-2.55-6.08-5.1-9.13-7.65.3.23.6.46.91.69,2.98,2.25,6.01,4.43,9.11,6.52-.28.16-.57.32-.86.48ZM279.09,86.58s0,0,0,0c-.56-.39-1.12-.79-1.68-1.19-.26-.22-.57-.43-.88-.63-2.55-1.81-5.08-3.64-7.53-5.58-1.31-1.04-2.6-2.1-3.86-3.21-.14-.12-1.02-.86-1.94-1.67,2.29,1.82,5.55,4.05,6.22,4.57,3.28,2.54,6.57,5.07,9.85,7.61-.06.03-.11.07-.17.1ZM279.69,86.21c-3.14-2.68-6.28-5.36-9.42-8.04,3.29,2.59,6.58,5.18,9.87,7.76-.15.1-.3.19-.45.28ZM280.65,85.59c-5.26-4.99-11.45-8.9-16.62-13.97,5.78,4.49,11.57,8.98,17.34,13.47-.24.17-.48.33-.72.5ZM281.81,84.77c-4.62-3.84-9.23-7.69-13.66-11.76,4.61,3.91,9.41,7.71,14.3,11.25-.21.17-.42.34-.64.51ZM282.84,83.95c-2.44-1.94-4.96-3.79-7.44-5.68-1.34-1.02-2.67-2.04-4-3.06-.73-.56-1.45-1.12-2.18-1.68-.1-.07-.63-.48-1.01-.85,4.89,3.74,9.78,7.49,14.67,11.24-.01.01-.03.02-.04.03ZM283.35,83.52c-5.28-4.12-10.56-8.25-15.51-12.75,5.33,4.11,10.65,8.23,15.99,12.32-.16.15-.32.29-.48.43ZM284.29,82.65c-2.75-2.32-5.51-4.64-8.26-6.96,1.9,1.31,3.75,2.68,5.54,4.13.95.82,1.91,1.63,2.86,2.45.06.05.12.06.19.05-.11.11-.21.22-.32.33ZM284.8,82.12c0-.05-.01-.11-.07-.16-.37-.34-.75-.67-1.13-.99-.94-1.22-2.67-2.27-3.84-3.27-.36-.31-.73-.66-1.1-1.01,1.13.81,2.26,1.63,3.38,2.44.76.69,1.55,1.33,2.36,1.7.04.03.08.06.12.09.3.41.5.56.62.45.07.05.14.1.21.15-.18.2-.37.41-.56.6Z"/>
        <g>
          <path class="cls-13" d="M318.36,275.87l-17.24-24.94h-22.81v9.34l11.51,9.97v5.63h28.54ZM313.79,272.99h-4.75l-4.53-14.29,9.28,14.29ZM302.29,258.24l4.41,14.75h-4.41v-14.75Z"/>
          <rect class="cls-8" x="187.18" y="178.03" width="18.71" height="25.9"/>
          <g>
            <rect class="cls-73" x="144.01" y="250.45" width="9.59" height="11.03"/>
            <rect class="cls-85" x="139.7" y="256.21" width="4.32" height="5.28"/>
            <rect class="cls-127" x="136.34" y="252.37" width="3.36" height="11.51" rx="1.54" ry="1.54"/>
          </g>
          <rect class="cls-25" x="217.88" y="192.9" width="71.94" height="44.61"/>
          <rect class="cls-89" x="207.33" y="176.11" width="10.55" height="35.97"/>
          <rect class="cls-18" x="215.48" y="176.11" width="2.4" height="35.97"/>
          <rect class="cls-18" x="214.04" y="176.11" width="2.4" height="35.97"/>
          <rect class="cls-18" x="200.13" y="176.11" width="2.88" height="35.97"/>
          <rect class="cls-18" x="198.69" y="176.11" width="2.4" height="35.97"/>
          <rect class="cls-40" x="147.37" y="240.86" width="153.96" height="20.62"/>
          <rect class="cls-2" x="259.13" y="191.94" width="18.23" height="2.4"/>
          <rect class="cls-2" x="232.75" y="191.94" width="20.14" height="2.4"/>
          <path class="cls-2" d="M242.58,179.43c-4.62,0-8.39,3.74-8.39,8.36v4.14h16.79v-4.14c0-4.62-3.77-8.36-8.39-8.36Z"/>
          <path class="cls-52" d="M294.62,193.88v42.03c3.84,0,6.84-16.17,6.84-21.02,0-4.3-3.01-21.02-6.84-21.02Z"/>
          <path class="cls-100" d="M294.62,196.91v35.97c3.84,0,6.84-13.84,6.84-17.99,0-3.68-3.01-17.99-6.84-17.99Z"/>
          <path class="cls-30" d="M294.62,200.32v29.16c3.84,0,6.84-11.22,6.84-14.58,0-2.98-3.01-14.58-6.84-14.58Z"/>
          <rect class="cls-22" x="157.44" y="203.93" width="29.26" height="34.53"/>
          <rect class="cls-2" x="157.44" y="203.93" width="29.26" height="34.53"/>
          <polygon class="cls-79" points="289.82 193.85 289.82 195.92 289.82 233.38 289.82 235.58 294.62 235.58 294.62 193.85 289.82 193.85"/>
          <path class="cls-25" d="M208.28,200.79v-16.3c0-2.38,1.55-4.54,3.85-5.98h-6.73v23.97c0,.84-.78,1.45-1.62,1.45h-14.19c-.84,0-1.45-.61-1.45-1.45v-23.97h-3.58c.59.48,1.18,1.3,1.18,2.1v53.88c0,1.36-1.3,2.53-2.66,2.53h-22.96c-1.36,0-2.67-1.17-2.67-2.53v-30.56h-5.76v36.45h66.19l.16-35.97c-5.28,0-9.75.44-9.75-3.62Z"/>
          <rect class="cls-101" x="153.13" y="178.51" width="3.36" height="25.42"/>
          <rect class="cls-92" x="151.69" y="240.86" width="138.13" height="3.36"/>
          <rect class="cls-118" x="151.69" y="240.38" width="66.19" height=".48"/>
          <g>
            <rect class="cls-36" x="288.86" y="232.22" width=".96" height="11.51"/>
            <rect class="cls-5" x="284.55" y="232.22" width=".96" height="11.51"/>
            <rect class="cls-55" x="279.75" y="232.22" width=".96" height="11.51"/>
            <rect class="cls-72" x="275.43" y="232.22" width=".96" height="11.51"/>
            <rect class="cls-32" x="270.64" y="232.22" width=".96" height="11.51"/>
            <rect class="cls-64" x="266.32" y="232.22" width=".96" height="11.51"/>
            <rect class="cls-10" x="261.52" y="232.22" width=".96" height="11.51"/>
            <rect class="cls-108" x="257.21" y="232.22" width=".96" height="11.51"/>
            <rect class="cls-12" x="252.41" y="232.22" width=".96" height="11.51"/>
            <rect class="cls-71" x="248.57" y="232.22" width=".96" height="11.51"/>
            <rect class="cls-21" x="243.78" y="232.22" width=".96" height="11.51"/>
            <rect class="cls-65" x="239.46" y="232.22" width=".96" height="11.51"/>
            <rect class="cls-56" x="234.66" y="232.22" width=".96" height="11.51"/>
            <rect class="cls-104" x="230.35" y="232.22" width=".96" height="11.51"/>
            <rect class="cls-61" x="225.55" y="232.22" width=".96" height="11.51"/>
            <rect class="cls-105" x="221.23" y="232.22" width=".96" height="11.51"/>
            <rect class="cls-93" x="216.44" y="232.22" width=".96" height="11.51"/>
            <rect class="cls-116" x="216.44" y="232.22" width="73.38" height=".96"/>
          </g>
          <g>
            <path class="cls-15" d="M292.93,196.23c0,.47-.38.85-.85.85s-.85-.38-.85-.85.38-.84.85-.84.85.38.85.84Z"/>
            <path class="cls-15" d="M292.93,199.64c0,.47-.38.84-.85.84s-.85-.38-.85-.84.38-.84.85-.84.85.38.85.84Z"/>
            <path class="cls-15" d="M292.93,203.05c0,.47-.38.85-.85.85s-.85-.38-.85-.85.38-.84.85-.84.85.38.85.84Z"/>
            <path class="cls-15" d="M292.93,206.46c0,.47-.38.84-.85.84s-.85-.38-.85-.84.38-.84.85-.84.85.38.85.84Z"/>
            <path class="cls-15" d="M292.93,209.87c0,.47-.38.84-.85.84s-.85-.38-.85-.84.38-.84.85-.84.85.38.85.84Z"/>
            <path class="cls-15" d="M292.93,213.28c0,.47-.38.84-.85.84s-.85-.38-.85-.84.38-.84.85-.84.85.38.85.84Z"/>
            <path class="cls-15" d="M292.93,216.69c0,.47-.38.84-.85.84s-.85-.38-.85-.84.38-.85.85-.85.85.38.85.85Z"/>
            <path class="cls-15" d="M292.93,220.1c0,.47-.38.84-.85.84s-.85-.38-.85-.84.38-.84.85-.84.85.38.85.84Z"/>
            <path class="cls-15" d="M292.93,223.51c0,.47-.38.84-.85.84s-.85-.38-.85-.84.38-.85.85-.85.85.38.85.85Z"/>
            <path class="cls-15" d="M292.93,226.92c0,.47-.38.85-.85.85s-.85-.38-.85-.85.38-.84.85-.84.85.38.85.84Z"/>
            <path class="cls-15" d="M292.93,230.33c0,.47-.38.84-.85.84s-.85-.38-.85-.84.38-.84.85-.84.85.38.85.84Z"/>
            <path class="cls-15" d="M292.93,233.74c0,.47-.38.84-.85.84s-.85-.38-.85-.84.38-.85.85-.85.85.38.85.85Z"/>
          </g>
          <g>
            <path class="cls-15" d="M292.93,196.23c0,.47-.38.85-.85.85s-.85-.38-.85-.85.38-.84.85-.84.85.38.85.84Z"/>
            <path class="cls-15" d="M292.93,199.64c0,.47-.38.84-.85.84s-.85-.38-.85-.84.38-.84.85-.84.85.38.85.84Z"/>
            <path class="cls-15" d="M292.93,203.05c0,.47-.38.85-.85.85s-.85-.38-.85-.85.38-.84.85-.84.85.38.85.84Z"/>
            <path class="cls-15" d="M292.93,206.46c0,.47-.38.84-.85.84s-.85-.38-.85-.84.38-.84.85-.84.85.38.85.84Z"/>
            <path class="cls-15" d="M292.93,209.87c0,.47-.38.84-.85.84s-.85-.38-.85-.84.38-.84.85-.84.85.38.85.84Z"/>
            <path class="cls-15" d="M292.93,213.28c0,.47-.38.84-.85.84s-.85-.38-.85-.84.38-.84.85-.84.85.38.85.84Z"/>
            <path class="cls-15" d="M292.93,216.69c0,.47-.38.84-.85.84s-.85-.38-.85-.84.38-.85.85-.85.85.38.85.85Z"/>
            <path class="cls-15" d="M292.93,220.1c0,.47-.38.84-.85.84s-.85-.38-.85-.84.38-.84.85-.84.85.38.85.84Z"/>
            <path class="cls-15" d="M292.93,223.51c0,.47-.38.84-.85.84s-.85-.38-.85-.84.38-.85.85-.85.85.38.85.85Z"/>
            <path class="cls-15" d="M292.93,226.92c0,.47-.38.85-.85.85s-.85-.38-.85-.85.38-.84.85-.84.85.38.85.84Z"/>
            <path class="cls-15" d="M292.93,230.33c0,.47-.38.84-.85.84s-.85-.38-.85-.84.38-.84.85-.84.85.38.85.84Z"/>
            <path class="cls-15" d="M292.93,233.74c0,.47-.38.84-.85.84s-.85-.38-.85-.84.38-.85.85-.85.85.38.85.85Z"/>
          </g>
          <g>
            <path class="cls-124" d="M292.93,196.23c0,.47-.38.85-.85.85s-.85-.38-.85-.85.38-.84.85-.84.85.38.85.84Z"/>
            <path class="cls-124" d="M292.93,199.64c0,.47-.38.84-.85.84s-.85-.38-.85-.84.38-.84.85-.84.85.38.85.84Z"/>
            <path class="cls-124" d="M292.93,203.05c0,.47-.38.85-.85.85s-.85-.38-.85-.85.38-.84.85-.84.85.38.85.84Z"/>
            <path class="cls-124" d="M292.93,206.46c0,.47-.38.84-.85.84s-.85-.38-.85-.84.38-.84.85-.84.85.38.85.84Z"/>
            <path class="cls-124" d="M292.93,209.87c0,.47-.38.84-.85.84s-.85-.38-.85-.84.38-.84.85-.84.85.38.85.84Z"/>
            <path class="cls-124" d="M292.93,213.28c0,.47-.38.84-.85.84s-.85-.38-.85-.84.38-.84.85-.84.85.38.85.84Z"/>
            <path class="cls-124" d="M292.93,216.69c0,.47-.38.84-.85.84s-.85-.38-.85-.84.38-.85.85-.85.85.38.85.85Z"/>
            <path class="cls-124" d="M292.93,220.1c0,.47-.38.84-.85.84s-.85-.38-.85-.84.38-.84.85-.84.85.38.85.84Z"/>
            <path class="cls-124" d="M292.93,223.51c0,.47-.38.84-.85.84s-.85-.38-.85-.84.38-.85.85-.85.85.38.85.85Z"/>
            <path class="cls-124" d="M292.93,226.92c0,.47-.38.85-.85.85s-.85-.38-.85-.85.38-.84.85-.84.85.38.85.84Z"/>
            <path class="cls-124" d="M292.93,230.33c0,.47-.38.84-.85.84s-.85-.38-.85-.84.38-.84.85-.84.85.38.85.84Z"/>
            <path class="cls-124" d="M292.93,233.74c0,.47-.38.84-.85.84s-.85-.38-.85-.84.38-.85.85-.85.85.38.85.85Z"/>
          </g>
          <g>
            <g>
              <g>
                <rect class="cls-53" x="276.68" y="264.41" width="10.32" height=".35" transform="translate(-16 511.03) rotate(-82.8)"/>
                <polygon class="cls-53" points="281.35 269.55 281.02 269.69 277.03 260.18 277.36 260.04 281.35 269.55"/>
                <polygon class="cls-53" points="281.23 269.4 281.02 269.69 272.82 263.45 273.04 263.17 281.23 269.4"/>
                <rect class="cls-53" x="275.76" y="263.72" width=".36" height="10.29" transform="translate(-25.6 508.66) rotate(-82.75)"/>
                <rect class="cls-53" x="271.06" y="271.34" width="10.29" height=".36" transform="translate(-83.26 127.31) rotate(-22.65)"/>
                <polygon class="cls-53" points="280.74 269.47 281.02 269.69 274.8 277.9 274.52 277.69 280.74 269.47"/>
                <rect class="cls-53" x="275.04" y="274.6" width="10.32" height=".35" transform="translate(-27.91 517.86) rotate(-82.71)"/>
                <polygon class="cls-53" points="280.69 269.82 281.02 269.69 285.01 279.2 284.68 279.33 280.69 269.82"/>
                <polygon class="cls-53" points="280.81 269.97 281.02 269.69 289.22 275.92 289 276.2 280.81 269.97"/>
                <rect class="cls-53" x="285.92" y="265.36" width=".36" height="10.29" transform="translate(-18.44 520.08) rotate(-82.73)"/>
                <polygon class="cls-53" points="281.16 270.01 281.02 269.69 290.51 265.69 290.64 266.02 281.16 270.01"/>
                <rect class="cls-53" x="279.12" y="265.51" width="10.31" height=".35" transform="translate(-99.17 331.77) rotate(-52.84)"/>
              </g>
              <g>
                <rect class="cls-94" x="276.59" y="264.4" width="10.32" height=".35" transform="translate(-11.14 516.77) rotate(-83.93)"/>
                <rect class="cls-81" x="278.92" y="259.74" width=".36" height="10.31" transform="translate(-83.76 136.83) rotate(-24.06)"/>
                <polygon class="cls-122" points="281.23 269.4 281.02 269.69 272.71 263.6 272.92 263.31 281.23 269.4"/>
                <rect class="cls-132" x="275.75" y="263.81" width=".36" height="10.29" transform="translate(-20.9 514.66) rotate(-83.88)"/>
                <polygon class="cls-90" points="280.88 269.36 281.02 269.69 271.61 273.86 271.47 273.53 280.88 269.36"/>
                <rect class="cls-115" x="272.69" y="273.57" width="10.31" height=".35" transform="translate(-107.16 336.26) rotate(-53.8)"/>
                <rect class="cls-84" x="275.14" y="274.62" width="10.32" height=".36" transform="translate(-23.54 523.32) rotate(-83.71)"/>
                <rect class="cls-27" x="282.76" y="269.32" width=".35" height="10.31" transform="translate(-86.75 137.66) rotate(-23.82)"/>
                <rect class="cls-121" x="284.89" y="267.72" width=".36" height="10.3" transform="translate(-103.5 341.7) rotate(-53.79)"/>
                <rect class="cls-103" x="285.94" y="265.27" width=".35" height="10.29" transform="translate(-13.35 525.97) rotate(-83.86)"/>
                <rect class="cls-125" x="280.65" y="267.58" width="10.29" height=".36" transform="translate(-83.89 138.51) rotate(-23.86)"/>
                <polygon class="cls-35" points="281.31 269.9 281.02 269.69 287.09 261.36 287.38 261.56 281.31 269.9"/>
              </g>
              <path class="cls-33" d="M282.45,257.74c-6.31-.68-11.99,3.9-12.67,10.23-.68,6.33,3.89,12.02,10.21,12.7,6.31.68,11.99-3.9,12.67-10.23.68-6.33-3.89-12.02-10.21-12.7ZM280.08,279.84c-5.86-.63-10.1-5.91-9.47-11.78.63-5.88,5.89-10.13,11.76-9.5,5.86.63,10.1,5.91,9.47,11.78-.63,5.88-5.89,10.13-11.76,9.49Z"/>
              <path class="cls-99" d="M282.36,258.56c-5.86-.63-11.12,3.62-11.76,9.5-.63,5.88,3.61,11.15,9.47,11.78,5.86.63,11.13-3.62,11.76-9.49.63-5.88-3.61-11.15-9.47-11.78ZM280.14,279.31c-5.57-.6-9.6-5.61-9-11.2.6-5.58,5.6-9.62,11.17-9.02,5.57.6,9.6,5.62,9,11.2-.6,5.58-5.6,9.62-11.17,9.02Z"/>
              <path class="cls-119" d="M282.31,259.09c-5.57-.6-10.57,3.44-11.17,9.02-.6,5.58,3.43,10.6,9,11.2,5.57.6,10.57-3.44,11.17-9.02.6-5.58-3.43-10.6-9-11.2ZM280.21,278.6c-5.18-.56-8.93-5.22-8.37-10.41.56-5.19,5.21-8.95,10.39-8.39,5.18.56,8.93,5.22,8.37,10.41-.56,5.19-5.21,8.95-10.39,8.39Z"/>
            </g>
            <g>
              <g>
                <rect class="cls-53" x="251.47" y="264.42" width="10.32" height=".36" transform="translate(-39.81 483.68) rotate(-82.34)"/>
                <rect class="cls-53" x="253.79" y="259.69" width=".36" height="10.31" transform="translate(-82.07 117.46) rotate(-22.52)"/>
                <polygon class="cls-53" points="255.98 269.4 255.76 269.69 247.62 263.39 247.83 263.11 255.98 269.4"/>
                <polygon class="cls-53" points="255.81 269.33 255.76 269.69 245.57 268.32 245.61 267.96 255.81 269.33"/>
                <polygon class="cls-53" points="255.63 269.36 255.76 269.69 246.25 273.61 246.12 273.28 255.63 269.36"/>
                <polygon class="cls-53" points="255.48 269.47 255.76 269.69 249.48 277.86 249.2 277.64 255.48 269.47"/>
                <rect class="cls-53" x="249.75" y="274.6" width="10.32" height=".36" transform="translate(-51.92 490.03) rotate(-82.2)"/>
                <rect class="cls-53" x="257.38" y="269.37" width=".36" height="10.31" transform="translate(-85.07 118.62) rotate(-22.36)"/>
                <polygon class="cls-53" points="255.55 269.97 255.76 269.69 263.91 275.98 263.7 276.27 255.55 269.97"/>
                <rect class="cls-53" x="260.66" y="265.4" width=".36" height="10.29" transform="translate(-42.04 493.02) rotate(-82.34)"/>
                <rect class="cls-53" x="255.44" y="267.71" width="10.29" height=".36" transform="translate(-82.25 119.12) rotate(-22.33)"/>
                <polygon class="cls-53" points="256.05 269.9 255.76 269.69 262.05 261.52 262.33 261.73 256.05 269.9"/>
              </g>
              <g>
                <rect class="cls-11" x="251.33" y="264.4" width="10.32" height=".35" transform="translate(-33.7 491.69) rotate(-83.94)"/>
                <rect class="cls-75" x="253.67" y="259.74" width=".36" height="10.31" transform="translate(-85.81 126.18) rotate(-24)"/>
                <polygon class="cls-102" points="255.97 269.4 255.76 269.69 247.46 263.6 247.66 263.31 255.97 269.4"/>
                <rect class="cls-66" x="250.49" y="263.81" width=".36" height="10.29" transform="translate(-43.46 489.55) rotate(-83.88)"/>
                <rect class="cls-67" x="245.84" y="271.43" width="10.29" height=".36" transform="translate(-88.1 124.01) rotate(-23.74)"/>
                <polygon class="cls-77" points="255.48 269.48 255.76 269.69 249.7 278.02 249.41 277.81 255.48 269.48"/>
                <rect class="cls-59" x="249.88" y="274.62" width="10.32" height=".35" transform="translate(-46.06 498.17) rotate(-83.71)"/>
                <polygon class="cls-133" points="255.44 269.83 255.76 269.69 259.93 279.12 259.6 279.26 255.44 269.83"/>
                <polygon class="cls-91" points="255.56 269.97 255.76 269.69 264.07 275.77 263.87 276.06 255.56 269.97"/>
                <rect class="cls-68" x="260.68" y="265.27" width=".35" height="10.29" transform="translate(-35.31 501.62) rotate(-84.01)"/>
                <rect class="cls-88" x="255.39" y="267.58" width="10.29" height=".36" transform="translate(-86.06 128.3) rotate(-23.86)"/>
                <rect class="cls-44" x="253.79" y="265.45" width="10.31" height=".36" transform="translate(-108.29 318.05) rotate(-53.85)"/>
              </g>
              <path class="cls-113" d="M257.2,257.74c-6.32-.68-11.99,3.9-12.67,10.23-.68,6.33,3.89,12.02,10.21,12.7,6.31.68,11.99-3.9,12.67-10.23.68-6.33-3.89-12.02-10.2-12.7ZM254.82,279.84c-5.86-.63-10.1-5.91-9.47-11.78.63-5.88,5.89-10.13,11.76-9.5,5.86.63,10.1,5.91,9.47,11.78-.63,5.88-5.89,10.13-11.75,9.49Z"/>
              <path class="cls-45" d="M257.11,258.56c-5.86-.63-11.12,3.62-11.76,9.5-.63,5.88,3.61,11.15,9.47,11.78,5.86.63,11.12-3.62,11.75-9.49.63-5.88-3.61-11.15-9.47-11.78ZM254.88,279.31c-5.57-.6-9.6-5.61-9-11.2.6-5.58,5.6-9.62,11.17-9.02,5.57.6,9.6,5.62,9,11.2-.6,5.58-5.6,9.62-11.17,9.02Z"/>
              <path class="cls-6" d="M257.05,259.09c-5.57-.6-10.57,3.44-11.17,9.02-.6,5.58,3.43,10.6,9,11.2,5.57.6,10.57-3.44,11.17-9.02.6-5.58-3.43-10.6-9-11.2ZM254.96,278.6c-5.18-.56-8.93-5.22-8.37-10.41.56-5.19,5.21-8.95,10.39-8.39,5.18.56,8.93,5.22,8.37,10.41-.56,5.19-5.21,8.95-10.39,8.39Z"/>
            </g>
            <rect class="cls-112" x="255.77" y="268.68" width="25.42" height=".48"/>
            <g>
              <path class="cls-98" d="M257.92,269.2c0,1.06-.86,1.93-1.93,1.93s-1.93-.86-1.93-1.93.86-1.93,1.93-1.93,1.93.86,1.93,1.93Z"/>
              <path class="cls-76" d="M257.42,269.2c0,.79-.64,1.43-1.43,1.43s-1.43-.64-1.43-1.43.64-1.43,1.43-1.43,1.43.64,1.43,1.43Z"/>
              <path class="cls-74" d="M256.83,269.2c0,.46-.37.83-.83.83s-.83-.37-.83-.83.37-.83.83-.83.83.37.83.83Z"/>
            </g>
            <g>
              <path class="cls-87" d="M283.18,269.2c0,1.06-.86,1.93-1.93,1.93s-1.93-.86-1.93-1.93.86-1.93,1.93-1.93,1.93.86,1.93,1.93Z"/>
              <path class="cls-41" d="M282.68,269.2c0,.79-.64,1.43-1.43,1.43s-1.43-.64-1.43-1.43.64-1.43,1.43-1.43,1.43.64,1.43,1.43Z"/>
              <path class="cls-131" d="M282.08,269.2c0,.46-.37.83-.83.83s-.83-.37-.83-.83.37-.83.83-.83.83.37.83.83Z"/>
            </g>
          </g>
          <g>
            <path class="cls-30" d="M288.86,260.46c0,1.51-1.52,2.94-3.51,2.94h-8.51c-1.99,0-3.81-1.44-3.81-2.94v-4.18c0-1.51,1.82-2.95,3.81-2.95h8.51c1.99,0,3.51,1.45,3.51,2.95v4.18Z"/>
            <path class="cls-109" d="M287.42,255.25c0,1.06-.86,1.92-1.92,1.92h-8.15c-1.06,0-1.92-.86-1.92-1.92h0c0-1.06.86-1.92,1.92-1.92h8.15c1.06,0,1.92.86,1.92,1.92h0Z"/>
            <rect class="cls-111" x="277.35" y="253.33" width=".48" height="10.07"/>
            <rect class="cls-111" x="278.31" y="253.33" width=".48" height="10.07"/>
            <rect class="cls-111" x="283.59" y="253.33" width=".48" height="10.07"/>
            <rect class="cls-111" x="284.55" y="253.33" width=".48" height="10.07"/>
          </g>
          <polygon class="cls-2" points="270.29 210.64 217.88 210.64 217.88 210.16 270.11 210.16 289.59 193.21 289.91 193.63 270.29 210.64"/>
          <rect class="cls-2" x="217.88" y="221.67" width="71.94" height=".48"/>
          <g>
            <rect class="cls-2" x="162.72" y="239.9" width=".96" height="20.62"/>
            <rect class="cls-2" x="176.63" y="239.9" width=".96" height="20.62"/>
            <rect class="cls-2" x="162.72" y="243.26" width="14.87" height=".96"/>
            <rect class="cls-2" x="162.72" y="250.93" width="14.87" height=".96"/>
            <rect class="cls-2" x="162.72" y="258.12" width="14.87" height=".96"/>
          </g>
          <rect class="cls-120" x="234.18" y="191.46" width="16.79" height=".48"/>
          <g>
            <g>
              <g>
                <rect class="cls-53" x="215.74" y="257.29" width="14.7" height=".51" transform="translate(-60.7 446.12) rotate(-82.7)"/>
                <rect class="cls-53" x="219.06" y="250.58" width=".51" height="14.7" transform="translate(-83.05 105.6) rotate(-22.89)"/>
                <polygon class="cls-53" points="222.23 264.4 221.92 264.81 210.24 255.92 210.55 255.51 222.23 264.4"/>
                <rect class="cls-53" x="214.43" y="256.3" width=".51" height="14.67" transform="translate(-73.68 443.74) rotate(-82.83)"/>
                <polygon class="cls-53" points="221.73 264.34 221.92 264.81 208.4 270.5 208.21 270.04 221.73 264.34"/>
                <polygon class="cls-53" points="221.52 264.5 221.92 264.81 213.06 276.52 212.65 276.21 221.52 264.5"/>
                <rect class="cls-53" x="213.4" y="271.81" width="14.7" height=".51" transform="translate(-76.93 456.83) rotate(-82.77)"/>
                <polygon class="cls-53" points="221.46 265 221.92 264.81 227.61 278.36 227.14 278.56 221.46 265"/>
                <polygon class="cls-53" points="221.62 265.21 221.92 264.81 233.6 273.69 233.3 274.1 221.62 265.21"/>
                <rect class="cls-53" x="228.91" y="258.65" width=".51" height="14.66" transform="translate(-63.49 459.92) rotate(-82.78)"/>
                <polygon class="cls-53" points="222.12 265.27 221.92 264.81 235.44 259.11 235.64 259.58 222.12 265.27"/>
                <polygon class="cls-53" points="222.33 265.11 221.92 264.81 230.79 253.1 231.19 253.4 222.33 265.11"/>
              </g>
              <g>
                <polygon class="cls-95" points="222.43 264.86 221.92 264.81 223.49 250.19 223.99 250.24 222.43 264.86"/>
                <polygon class="cls-51" points="222.39 264.6 221.92 264.81 215.99 251.36 216.45 251.16 222.39 264.6"/>
                <polygon class="cls-19" points="222.22 264.4 221.92 264.81 210.08 256.14 210.38 255.73 222.22 264.4"/>
                <rect class="cls-14" x="214.41" y="256.44" width=".51" height="14.66" transform="translate(-70.43 449.18) rotate(-83.9)"/>
                <polygon class="cls-82" points="221.72 264.34 221.92 264.81 208.51 270.75 208.31 270.29 221.72 264.34"/>
                <polygon class="cls-106" points="221.51 264.51 221.92 264.81 213.27 276.68 212.87 276.38 221.51 264.51"/>
                <rect class="cls-31" x="213.54" y="271.83" width="14.7" height=".51" transform="translate(-73.35 462.48) rotate(-83.83)"/>
                <polygon class="cls-117" points="221.46 265.01 221.92 264.81 227.85 278.25 227.39 278.46 221.46 265.01"/>
                <polygon class="cls-96" points="221.62 265.22 221.92 264.81 233.77 273.48 233.47 273.89 221.62 265.22"/>
                <rect class="cls-20" x="228.93" y="258.51" width=".51" height="14.66" transform="translate(-59.51 465.48) rotate(-83.9)"/>
                <polygon class="cls-63" points="222.13 265.27 221.92 264.81 235.33 258.86 235.54 259.32 222.13 265.27"/>
                <polygon class="cls-128" points="222.33 265.11 221.92 264.81 230.57 252.93 230.98 253.23 222.33 265.11"/>
              </g>
              <path class="cls-123" d="M223.96,247.78c-9-.97-17.08,5.56-18.05,14.58-.97,9.02,5.54,17.13,14.54,18.1,9,.97,17.08-5.56,18.05-14.58.97-9.02-5.54-17.13-14.54-18.1ZM220.58,279.28c-8.35-.9-14.4-8.42-13.5-16.79.9-8.37,8.4-14.43,16.75-13.53,8.35.9,14.4,8.42,13.5,16.79-.9,8.37-8.4,14.43-16.75,13.53Z"/>
              <path class="cls-83" d="M223.84,248.95c-8.35-.9-15.85,5.16-16.75,13.53-.9,8.37,5.14,15.89,13.5,16.79,8.35.9,15.85-5.16,16.75-13.53.9-8.37-5.15-15.89-13.5-16.79ZM220.66,278.52c-7.94-.86-13.68-8-12.82-15.96.85-7.96,7.98-13.71,15.92-12.86,7.94.86,13.68,8,12.82,15.96-.85,7.96-7.98,13.71-15.92,12.86Z"/>
              <path class="cls-114" d="M223.75,249.71c-7.94-.86-15.06,4.9-15.92,12.86-.85,7.96,4.89,15.1,12.82,15.96,7.94.86,15.06-4.9,15.92-12.86.85-7.96-4.89-15.1-12.82-15.96ZM220.77,277.51c-7.38-.8-12.72-7.44-11.93-14.84.79-7.4,7.42-12.75,14.8-11.96,7.38.8,12.72,7.44,11.93,14.84-.79,7.4-7.42,12.75-14.8,11.96Z"/>
            </g>
            <g>
              <g>
                <rect class="cls-53" x="179.8" y="257.3" width="14.7" height=".51" transform="translate(-93.2 408.43) rotate(-82.28)"/>
                <rect class="cls-53" x="183.12" y="250.56" width=".51" height="14.7" transform="translate(-84.7 89.74) rotate(-22.49)"/>
                <polygon class="cls-53" points="186.24 264.4 185.93 264.81 174.32 255.83 174.63 255.43 186.24 264.4"/>
                <rect class="cls-53" x="178.44" y="256.25" width=".51" height="14.67" transform="translate(-106.32 405.6) rotate(-82.35)"/>
                <polygon class="cls-53" points="185.74 264.34 185.93 264.81 172.37 270.4 172.18 269.93 185.74 264.34"/>
                <polygon class="cls-53" points="185.53 264.5 185.93 264.81 176.98 276.45 176.58 276.14 185.53 264.5"/>
                <rect class="cls-53" x="177.35" y="271.81" width="14.7" height=".51" transform="translate(-109.55 418.84) rotate(-82.34)"/>
                <rect class="cls-53" x="188.23" y="264.35" width=".51" height="14.7" transform="translate(-89.57 92.72) rotate(-22.48)"/>
                <polygon class="cls-53" points="185.62 265.21 185.93 264.81 197.54 273.78 197.23 274.18 185.62 265.21"/>
                <rect class="cls-53" x="192.91" y="258.7" width=".51" height="14.67" transform="translate(-96.19 422.1) rotate(-82.36)"/>
                <polygon class="cls-53" points="186.12 265.27 185.93 264.81 199.49 259.21 199.68 259.68 186.12 265.27"/>
                <rect class="cls-53" x="183.26" y="258.89" width="14.69" height=".51" transform="translate(-131.01 252.17) rotate(-52.42)"/>
              </g>
              <g>
                <polygon class="cls-107" points="186.43 264.86 185.93 264.81 187.5 250.19 188 250.24 186.43 264.86"/>
                <polygon class="cls-50" points="186.39 264.6 185.93 264.81 180 251.36 180.46 251.16 186.39 264.6"/>
                <polygon class="cls-80" points="186.23 264.4 185.93 264.81 174.09 256.14 174.39 255.73 186.23 264.4"/>
                <rect class="cls-49" x="178.41" y="256.44" width=".51" height="14.66" transform="translate(-102.59 413.39) rotate(-83.9)"/>
                <polygon class="cls-126" points="185.73 264.34 185.93 264.81 172.52 270.75 172.31 270.29 185.73 264.34"/>
                <polygon class="cls-26" points="185.52 264.51 185.93 264.81 177.28 276.68 176.87 276.38 185.52 264.51"/>
                <rect class="cls-3" x="177.54" y="271.83" width="14.7" height=".51" transform="translate(-105.48 426.69) rotate(-83.83)"/>
                <polygon class="cls-24" points="185.47 265.01 185.93 264.81 191.86 278.25 191.4 278.46 185.47 265.01"/>
                <polygon class="cls-46" points="185.63 265.22 185.93 264.81 197.77 273.48 197.47 273.89 185.63 265.22"/>
                <rect class="cls-48" x="192.94" y="258.51" width=".51" height="14.66" transform="translate(-91.68 429.69) rotate(-83.9)"/>
                <rect class="cls-60" x="185.4" y="261.81" width="14.67" height=".51" transform="translate(-89.55 100.38) rotate(-23.86)"/>
                <polygon class="cls-69" points="186.34 265.11 185.93 264.81 194.58 252.93 194.99 253.23 186.34 265.11"/>
              </g>
              <path class="cls-78" d="M187.97,247.78c-9-.97-17.08,5.56-18.05,14.58-.97,9.02,5.54,17.13,14.54,18.1,9,.97,17.08-5.56,18.05-14.58.97-9.02-5.54-17.13-14.54-18.1ZM184.59,279.28c-8.35-.9-14.4-8.42-13.5-16.79.9-8.37,8.4-14.43,16.75-13.53,8.35.9,14.4,8.42,13.5,16.79-.9,8.37-8.4,14.43-16.75,13.53Z"/>
              <path class="cls-54" d="M187.84,248.95c-8.35-.9-15.85,5.16-16.75,13.53-.9,8.37,5.14,15.89,13.5,16.79,8.35.9,15.85-5.16,16.75-13.53.9-8.37-5.15-15.89-13.5-16.79ZM184.67,278.52c-7.94-.86-13.68-8-12.82-15.96.85-7.96,7.98-13.71,15.92-12.86,7.94.86,13.68,8,12.82,15.96-.85,7.96-7.98,13.71-15.92,12.86Z"/>
              <path class="cls-86" d="M187.76,249.71c-7.94-.86-15.06,4.9-15.92,12.86-.85,7.96,4.89,15.1,12.82,15.96,7.94.86,15.06-4.9,15.92-12.86.85-7.96-4.89-15.1-12.82-15.96ZM184.78,277.51c-7.38-.8-12.72-7.44-11.93-14.84.79-7.4,7.42-12.75,14.8-11.96,7.38.8,12.72,7.44,11.93,14.84-.79,7.4-7.42,12.75-14.8,11.96Z"/>
            </g>
            <rect class="cls-42" x="186.22" y="263.4" width="35.97" height="1.44"/>
            <g>
              <path class="cls-110" d="M189,264.11c0,1.52-1.23,2.75-2.75,2.75s-2.75-1.23-2.75-2.75,1.23-2.75,2.75-2.75,2.75,1.23,2.75,2.75Z"/>
              <path class="cls-4" d="M188.3,264.11c0,1.13-.91,2.04-2.04,2.04s-2.04-.91-2.04-2.04.91-2.04,2.04-2.04,2.04.91,2.04,2.04Z"/>
              <circle class="cls-29" cx="186.26" cy="264.11" r="1.18"/>
            </g>
            <g>
              <path class="cls-7" d="M225,264.11c0,1.52-1.23,2.75-2.75,2.75s-2.75-1.23-2.75-2.75,1.23-2.75,2.75-2.75,2.75,1.23,2.75,2.75Z"/>
              <path class="cls-58" d="M224.29,264.11c0,1.13-.91,2.04-2.04,2.04s-2.04-.91-2.04-2.04.91-2.04,2.04-2.04,2.04.91,2.04,2.04Z"/>
              <circle class="cls-134" cx="222.25" cy="264.11" r="1.18"/>
            </g>
          </g>
          <g>
            <rect class="cls-130" x="149.77" y="177.07" width="72.42" height="1.44"/>
            <path class="cls-70" d="M218.44,161.24h-66.4c-6.93,2.88-5.24,13.43-5.24,13.43h76.87s1.69-10.55-5.24-13.43Z"/>
            <rect class="cls-2" x="149.77" y="174.67" width="72.42" height="2.88"/>
          </g>
          <rect class="cls-37" x="301.81" y="258.12" width=".48" height="14.87"/>
          <g class="cls-135">
            <path class="cls-111" d="M244.52,116.23c-2.75-5.95-12.97-10.38-25.2-10.38s-22.64,4.51-25.28,10.54c-.61-.03-1.23-.05-1.86-.05-4.99,0-9.52,1.02-12.9,2.68-2.76-1.23-6.3-1.99-10.18-2.05-4.8-5.12-14.83-8.65-26.47-8.65-9.39,0-17.73,2.3-23.13,5.88-1.67-.21-3.39-.33-5.18-.33-8.1,0-15.17,2.26-19.11,5.63-5.79-4.15-15.14-6.86-25.71-6.86-8.38,0-15.98,1.7-21.66,4.47-3.16-1.25-7.09-2-11.37-2-10.42,0-18.87,4.42-18.87,9.88,0,.1.02.2.03.3-2.12-.58-4.54-1-7.11-1-3.14,0-10.53,1.61-10.53,4.23,0,3.8,12.21,5.2,18.25,1.94,0,0,18.41,6.04,39.24.04,0,0,16.96,7.54,39.24.02,0,0,10.66,4.74,19.86.01,0,0,17.44,5.75,35.85,0,0,0,15.02,5.24,28.1,0,0,0,13.08,3.97,20.35,0,0,0,16.96,7.01,29.07,0,0,0,28.29,6.25,37.64,0-1.01-6.95-10.5-12.65-23.07-14.31Z"/>
            <path class="cls-47" d="M267.16,128.89c-.04-.1-.08-.2-.11-.3-.18-.46-.39-.91-.64-1.35-9.18,1.8-17.97,2.6-24.68-.41-14.16-6.48-17.69-1.85-33.62-3.7-.91,0-2.28-.74-3.17-1.7-8.92,10.08-41.07,7.26-46.38-.15,0,3.7-14.47,7.37-17.76,7.69-15.99,1.58-33.83,2.91-46.22-4.5-11.27,8.26-36.87,3.28-45.72-1.35-1.77-1.85-12.39,0-17.69-1.85-3.78-.79-5.94-2.09-7.04-3.76-.03.01-.06.03-.1.05-.44.2-.86.41-1.26.63-.12.06-.23.13-.34.2-.3.17-.58.35-.86.53-.14.09-.28.19-.41.29-.21.15-.41.31-.61.47-.16.13-.32.27-.47.4-.11.1-.23.2-.33.31-.2.2-.38.4-.55.6-.07.08-.13.16-.2.23-.18.23-.35.47-.5.72-.04.06-.08.13-.11.19-.15.26-.28.53-.39.8-.02.04-.03.09-.05.14-.11.29-.2.58-.26.88,0,.02,0,.04-.01.06-.06.32-.09.64-.09.97,0,.05,0,.09.01.14,0,.05.01.14.02.14h.23v.02s-.18-.02-.22-.03c-2.1-.57-4.54-.89-7.07-.89-.74,0-1.49.03-2.2.09-3.51.48-8.37,1.94-8.37,4.06,0,3.8,12.2,5.2,18.24,1.94,0,0,18.41,6.04,39.24.04,0,0,16.95,7.54,39.24.02,0,0,10.66,4.74,19.86.01,0,0,17.44,5.75,35.85,0,0,0,15.02,5.24,28.1,0,0,0,13.08,3.97,20.35,0,0,0,16.96,7.01,29.07,0,0,0,28.29,6.25,37.64,0-.05-.35-.14-.7-.24-1.05-.06-.2-.12-.4-.19-.6Z"/>
          </g>
          <g>
            <rect class="cls-30" x="260.08" y="143.49" width="16.31" height="48.44"/>
            <polygon class="cls-30" points="276.3 140.62 260.11 140.62 261.59 136.3 274.82 136.3 276.3 140.62"/>
            <rect class="cls-25" x="260.08" y="140.62" width="16.31" height="2.88"/>
          </g>
        </g>
        <g>
          <path class="cls-16" d="M94.81,229.92c.38-6.32,4.73-12.2,4.8-12.28.1-.13.28-.15.41-.06.13.1.15.28.06.4-.1.13-9.63,13-1.3,20.76,3.94,3.68,12.14,6.64,20.06,9.5,9.42,3.4,17.56,6.34,17.33,10.04,0,.16-.15.28-.31.27s-.28-.15-.27-.31c.2-3.27-8.13-6.28-16.95-9.46-7.98-2.88-16.23-5.86-20.26-9.62-2.93-2.73-3.76-6.05-3.57-9.25Z"/>
          <path class="cls-9" d="M135.59,258.25c.28-6.71-32.76-11.22-39.16-21.26-3.69-5.84-.82-13.76,3.18-19.36-2.93,4.22-5.51,10.38-4.53,15.47,2.42,13.19,33.02,15.6,39.74,23.28.45.52.81,1.17.77,1.87Z"/>
          <path class="cls-16" d="M89.48,234.62c.14-2.26,1.19-3.55,1.21-3.57.1-.12.28-.14.41-.03.12.1.14.28.03.41-.18.21-4.26,5.29,4.23,13.34,9.3,8.81,39.25,15.08,40.51,13.96.12-.11.01-.23.12-.11.11.12.38.43.26.54-1.1.98-10.23-.91-18.05-3.23-5.2-1.54-17.87-5.66-23.24-10.74-4.67-4.42-5.63-8.08-5.48-10.56Z"/>
          <g>
            <path class="cls-38" d="M95.81,212.43l-.04,4.28,7-.62-.89-3.24s.17-4.95.17-4.95c-.02-.27-1.61-.36-3.55-.19-1.93.17-3.48.53-3.46.8,0,0,.76,3.92.76,3.92Z"/>
            <path class="cls-43" d="M95.77,216.71l1.78-.16.02-2.64s-2.8-5.23,1.16-5.57c.63-.06,2.46-.41,3.28.77.02-.69.04-1.2.04-1.2-.02-.27-1.61-.36-3.55-.19-1.93.17-3.48.53-3.46.8,0,0,.76,3.92.76,3.92l-.04,4.28Z"/>
            <path class="cls-1" d="M95.77,216.71c-.04-.42,1.5-.89,3.44-1.06,1.93-.17,3.53.03,3.57.45.04.42-1.5.89-3.44,1.06-1.93.17-3.53-.03-3.57-.45Z"/>
            <path class="cls-97" d="M99.22,215.84c2.06-.18,3.28.09,3.36.28-.05.2-1.21.67-3.26.85-2.06.18-3.28-.09-3.36-.28.05-.2,1.21-.67,3.26-.85Z"/>
            <path class="cls-129" d="M95.97,219.03c-.08-.86,1.43-1.7,3.36-1.87,1.93-.17,3.56.39,3.64,1.25.08.86-1.43,1.7-3.37,1.87-1.93.17-3.56-.39-3.64-1.25Z"/>
            <g>
              <path class="cls-129" d="M96.68,219.87l2.09-2.63c-1.65.27-2.87,1.02-2.8,1.8.03.33.29.62.71.84Z"/>
              <path class="cls-129" d="M98.88,220.31l2.43-3.05c-.26-.05-.55-.09-.86-.11l-2.47,3.1c.28.04.58.06.9.06Z"/>
              <path class="cls-28" d="M99.38,220.3l2.34-2.94c-.13-.04-.26-.07-.4-.1l-2.43,3.05c.16,0,.33,0,.5-.01Z"/>
              <path class="cls-28" d="M97.99,220.25l2.47-3.1c-.15,0-.31-.01-.48-.01l-2.42,3.04c.14.03.28.06.43.08Z"/>
              <path class="cls-28" d="M97.04,220.02l2.27-2.86c-.18.02-.36.04-.54.07l-2.09,2.63c.11.06.23.11.36.16Z"/>
            </g>
          </g>
          <g>
            <path class="cls-17" d="M90.24,235.21l1.68-3.95-6.73-2.12-.42,3.35s-2.06,4.53-2.06,4.53c-.08.26,1.36.95,3.22,1.54,1.86.59,3.43.85,3.52.59,0,0,.81-3.93.81-3.93Z"/>
            <path class="cls-43" d="M91.92,231.26l-1.71-.54-1.04,2.44s.59,5.93-3.22,4.73c-.61-.19-2.44-.57-2.75-1.97-.29.63-.5,1.1-.5,1.1-.08.26,1.36.95,3.22,1.54,1.86.59,3.43.85,3.52.59,0,0,.81-3.93.81-3.93l1.68-3.95Z"/>
            <path class="cls-1" d="M91.93,231.26c-.13.4-1.74.25-3.6-.33-1.86-.59-3.26-1.39-3.14-1.79.13-.4,1.74-.25,3.6.33,1.86.59,3.26,1.39,3.14,1.79Z"/>
            <path class="cls-97" d="M88.39,230.75c-1.98-.62-3.01-1.34-3.01-1.56.12-.16,1.38-.16,3.36.46,1.98.62,3.01,1.34,3.01,1.56-.12.16-1.38.16-3.36-.46Z"/>
          </g>
          <path class="cls-57" d="M92.01,201.75c0-.06.03-.12.08-.17,3.82-3.39,7.34-4.7,10.45-3.89,4.77,1.24,6.82,6.96,6.9,7.2.04.13-.02.27-.15.31-.13.04-.27-.02-.31-.15-.02-.06-2.05-5.72-6.57-6.89-2.95-.77-6.31.51-10,3.78-.1.09-.25.08-.34-.02-.04-.05-.06-.11-.06-.18Z"/>
        </g>
        <g>
          <path class="cls-16" d="M75.71,286.66c.07-.15.24-.21.38-.14,7.74,3.49,16.62-5.19,20.05-12.8.04-.09.08-.17.12-.26-1.53.09-2.79-.04-3.67-.43-4.7-2.12-7.01-8.15-5.54-11.42.51-1.13,1.44-1.86,2.68-2.1,1.37-.26,3.08.06,5.08.97,2.12.96,3.36,2.84,3.59,5.43.17,2.01-.26,4.39-1.25,6.92,11.8-1.25,38.13-13.66,38.43-13.8.14-.07.32,0,.39.14.07.14,0,.32-.14.39-1.26.6-27.14,12.79-38.92,13.87-.08.18-.16.36-.24.55-4.05,8.98-13.16,16.55-20.82,13.09-.15-.07-.21-.24-.14-.38ZM97.83,265.94c-.21-2.41-1.3-4.08-3.25-4.95-1.9-.85-3.49-1.17-4.74-.93-1.06.2-1.82.8-2.26,1.77-1.36,3.01.94,8.72,5.25,10.66.86.39,2.12.5,3.67.38,1.04-2.55,1.5-4.93,1.32-6.93Z"/>
          <path class="cls-16" d="M110.59,294.77c1.07.48,2.08.8,2.89.89.15.02.27-.07.26-.2,0-.13-.14-.25-.3-.27-2.7-.3-8.78-3.77-10.36-7.91-1.43-3.75,1.17-7.05,7.51-9.55,8.68-3.42,25.37-18.11,25.54-18.26.1-.08.08-.23-.04-.33-.12-.1-.3-.11-.39-.03-.17.15-16.81,14.79-25.41,18.18-8.3,3.28-8.78,7.27-7.73,10.05,1.2,3.14,4.9,6.02,8.03,7.43Z"/>
          <path class="cls-16" d="M92.33,258.57c.23.1.46.18.71.23,1.7.35,3.88-.55,7.06-2.93,11.21-8.38,34.85,3.35,35.09,3.47h.01c.14.07.31.01.38-.13.07-.14.01-.32-.13-.39-.98-.49-24.2-12.01-35.69-3.42-3.03,2.27-5.07,3.14-6.6,2.82-1.71-.35-2.78-2.2-4.25-4.76-1.77-3.07-3.97-6.9-8.44-10.31-4.08-3.12-7.34-4.17-9.71-3.15-2.86,1.24-3.27,5.05-3.28,5.21-.02.16.1.3.26.32.16.02.3-.1.32-.26,0-.04.39-3.63,2.94-4.74,2.15-.94,5.22.1,9.12,3.08,4.37,3.34,6.54,7.11,8.29,10.14,1.3,2.26,2.37,4.11,3.92,4.81Z"/>
          <g>
            <path class="cls-34" d="M110.41,294l3.9-1.95,2.57,6.69-3.37.64s-4.46,2.37-4.46,2.37c-.26.1-1.05-1.32-1.76-3.17-.71-1.85-1.07-3.43-.81-3.53,0,0,3.93-1.06,3.93-1.06Z"/>
            <path class="cls-43" d="M114.31,292.06l.65,1.7-2.41,1.2s-6.04-.23-4.59,3.55c.23.6.73,2.44,2.17,2.67-.62.33-1.08.58-1.09.58-.26.1-1.05-1.32-1.76-3.17-.71-1.85-1.07-3.43-.81-3.53,0,0,3.93-1.06,3.93-1.06l3.9-1.95Z"/>
            <path class="cls-1" d="M114.31,292.05c-.4.15-.15,1.78.56,3.62.71,1.85,1.61,3.22,2.01,3.07.4-.15.15-1.78-.56-3.62-.71-1.85-1.61-3.22-2.01-3.07Z"/>
            <path class="cls-97" d="M115.05,295.6c.75,1.96,1.55,2.97,1.76,2.96.16-.13.08-1.41-.68-3.37-.75-1.97-1.55-2.97-1.76-2.96-.16.13-.08,1.41.68,3.37Z"/>
            <path class="cls-34" d="M114.3,292.87c.26.84,2,1.05,3.89.47,1.89-.58,3.22-1.73,2.96-2.58-.26-.84-2-1.05-3.89-.47-1.89.58-3.22,1.73-2.96,2.58Z"/>
          </g>
          <g>
            <path class="cls-62" d="M75.64,288.15l-2.66-3.96,6.89-3.72,1.16,3.56s3.19,4.5,3.19,4.51c.14.27-1.28,1.32-3.18,2.35-1.9,1.03-3.56,1.64-3.71,1.38,0,0-1.7-4.11-1.7-4.11Z"/>
            <path class="cls-43" d="M72.98,284.2l1.75-.94,1.64,2.45s.6,6.58,4.5,4.48c.62-.34,2.54-1.13,2.59-2.73.45.63.78,1.09.78,1.1.14.27-1.28,1.32-3.18,2.35-1.9,1.03-3.56,1.64-3.71,1.38,0,0-1.7-4.11-1.7-4.11l-2.66-3.96Z"/>
            <path class="cls-1" d="M72.97,284.2c.22.41,1.95-.09,3.85-1.12,1.9-1.03,3.27-2.19,3.04-2.61-.22-.41-1.95.09-3.85,1.12-1.9,1.03-3.27,2.19-3.04,2.61Z"/>
            <path class="cls-97" d="M76.72,282.9c2.02-1.09,3-2.09,2.96-2.32-.16-.15-1.54.11-3.56,1.21-2.02,1.09-3,2.09-2.96,2.32.16.15,1.54-.11,3.56-1.21Z"/>
            <path class="cls-38" d="M72.84,277.47c-.4.88.88,2.31,2.85,3.21,1.97.89,3.89.91,4.29.03.4-.88-.88-2.31-2.85-3.21-1.97-.89-3.89-.91-4.29-.03Z"/>
            <g>
              <path class="cls-28" d="M76.89,277.4l1.37,3.95c-.15,0-.3-.02-.46-.04l-1.42-4.11c.17.06.34.13.52.2Z"/>
              <path class="cls-28" d="M75.41,276.94l1.44,4.17c-.17-.05-.33-.1-.5-.16l-1.41-4.09c.15.02.31.04.48.08Z"/>
              <path class="cls-28" d="M74.33,276.83l1.33,3.84c-.19-.09-.37-.18-.54-.27l-1.23-3.54c.14-.02.28-.03.44-.03Z"/>
            </g>
          </g>
          <g>
            <path class="cls-23" d="M64.79,251.32l-2.58-3.84,6.68-3.61,1.13,3.45s3.09,4.36,3.1,4.37c.14.26-1.24,1.28-3.09,2.27-1.84,1-3.45,1.59-3.59,1.33,0,0-1.65-3.98-1.65-3.98Z"/>
            <path class="cls-43" d="M62.21,247.49l1.7-.92,1.59,2.37s.58,6.38,4.36,4.34c.6-.33,2.46-1.1,2.51-2.64.43.61.75,1.06.75,1.06.14.26-1.24,1.28-3.09,2.27-1.84,1-3.45,1.59-3.59,1.33,0,0-1.65-3.98-1.65-3.98l-2.58-3.84Z"/>
            <path class="cls-1" d="M62.2,247.49c.22.4,1.89-.09,3.73-1.08,1.84-1,3.17-2.13,2.95-2.53-.22-.4-1.89.09-3.73,1.08-1.84,1-3.17,2.13-2.95,2.53Z"/>
            <path class="cls-97" d="M65.84,246.23c1.96-1.06,2.91-2.03,2.86-2.25-.16-.15-1.49.11-3.45,1.17-1.96,1.06-2.91,2.03-2.87,2.25.16.15,1.49-.11,3.45-1.17Z"/>
            <path class="cls-129" d="M61.01,245.28c.44.82,2.3.68,4.14-.32,1.84-1,2.98-2.47,2.54-3.29-.44-.82-2.3-.68-4.14.32-1.84,1-2.98,2.47-2.54,3.29Z"/>
            <g>
              <path class="cls-129" d="M61.15,244.11l3.45,1.13c-1.65.74-3.19.78-3.59.05-.17-.32-.11-.73.14-1.17Z"/>
              <path class="cls-129" d="M62.87,242.4l4,1.31c-.21.21-.44.41-.71.61l-4.07-1.33c.23-.2.49-.4.77-.59Z"/>
              <path class="cls-28" d="M63.33,242.12l3.85,1.26c-.09.11-.19.22-.3.33l-4-1.31c.15-.1.3-.19.46-.28Z"/>
              <path class="cls-28" d="M62.1,242.99l4.07,1.33c-.13.1-.27.2-.42.29l-3.98-1.3c.1-.11.22-.22.34-.32Z"/>
              <path class="cls-28" d="M61.38,243.75l3.75,1.23c-.18.09-.35.18-.53.26l-3.45-1.13c.07-.12.14-.24.23-.36Z"/>
            </g>
          </g>
          <path class="cls-57" d="M61.96,283.49s.1.03.15.02c.13-.03.22-.16.19-.29-1.21-5.81-.57-10.21,1.9-13.07,3.32-3.84,8.88-3.54,8.94-3.54.13,0,.25-.09.26-.23,0-.13-.09-.25-.23-.26-.24-.01-5.85-.32-9.33,3.7-2.58,2.98-3.26,7.52-2.02,13.49.02.08.07.14.14.17Z"/>
        </g>
      </g>
    </g>
  </g>
</svg>