<?xml version="1.0" encoding="UTF-8"?>
<svg id="OBJECTS" xmlns="http://www.w3.org/2000/svg" viewBox="0 0 78.11 130.18">
  <defs>
    <style>
      .cls-1 {
        fill: #263238;
      }

      .cls-1, .cls-2, .cls-3 {
        stroke-width: 0px;
      }

      .cls-2 {
        fill: #92e3a9;
      }

      .cls-3 {
        fill: #fff;
        opacity: .5;
      }
    </style>
  </defs>
  <g>
    <path class="cls-2" d="M29.81,0c16.46,0,29.81,13.25,29.81,29.61,0,7.58-2.87,14.49-7.59,19.73-2.16-.31-6.09-.53-10.44.95-5.76,1.96-9.35,5.17-10.14,5.92h-2.67c-.79-.75-4.38-3.96-10.14-5.92-4.73-1.61-8.98-1.21-10.97-.87C2.9,44.17,0,37.23,0,29.61,0,13.25,13.35,0,29.81,0Z"/>
    <path class="cls-3" d="M29.81,0c16.46,0,29.81,13.25,29.81,29.61,0,7.58-2.87,14.49-7.59,19.73-2.16-.31-6.09-.53-10.44.95-5.76,1.96-9.35,5.17-10.14,5.92h-2.67c-.79-.75-4.38-3.96-10.14-5.92-4.73-1.61-8.98-1.21-10.97-.87C2.9,44.17,0,37.23,0,29.61,0,13.25,13.35,0,29.81,0Z"/>
    <path class="cls-1" d="M15.93,41.48c.92.44,1.83.9,2.72,1.38.9.49,1.78,1.02,2.6,1.61.31.22.62.44.92.66l-4.88-9.1,6.7,10.49c.68.55,1.35,1.1,2,1.67,1.08.94,2.13,1.9,3.17,2.89l.34-9.87-7.01-10.67,7.06,9.18.3-8.83.5,9.88h0s0,0,0,0l.5,9.91c.9-.85,1.81-1.68,2.74-2.49.73-.64,1.48-1.27,2.25-1.87l6.34-10.83-4.66,9.55c.27-.19.53-.39.81-.58.83-.58,1.71-1.12,2.6-1.61.9-.48,1.81-.94,2.72-1.38,1.84-.88,3.71-1.71,5.64-2.39-1.88.8-3.68,1.73-5.44,2.71-.88.49-1.74,1-2.6,1.53-.84.53-1.65,1.09-2.41,1.71-1.54,1.22-2.99,2.56-4.38,3.93-1.21,1.2-2.39,2.45-3.52,3.72l.64,77.48h-2.94s.42-76.97.42-76.97c-1.26-1.44-2.6-2.86-3.97-4.23-1.39-1.38-2.83-2.71-4.38-3.93-.77-.62-1.57-1.18-2.41-1.71-.85-.53-1.72-1.04-2.6-1.53-1.76-.98-3.56-1.92-5.44-2.71,1.93.68,3.8,1.51,5.64,2.39Z"/>
  </g>
  <g>
    <path class="cls-2" d="M56.01,33.17c11.65,0,21.1,9.38,21.1,20.95,0,5.37-2.03,10.26-5.37,13.97-1.53-.22-4.31-.37-7.39.67-4.08,1.39-6.62,3.66-7.18,4.19h-1.89c-.56-.53-3.1-2.8-7.18-4.19-3.35-1.14-6.36-.86-7.77-.61-3.37-3.71-5.42-8.63-5.42-14.03,0-11.57,9.45-20.95,21.1-20.95Z"/>
    <path class="cls-3" d="M56.01,33.17c11.65,0,21.1,9.38,21.1,20.95,0,5.37-2.03,10.26-5.37,13.97-1.53-.22-4.31-.37-7.39.67-4.08,1.39-6.62,3.66-7.18,4.19h-1.89c-.56-.53-3.1-2.8-7.18-4.19-3.35-1.14-6.36-.86-7.77-.61-3.37-3.71-5.42-8.63-5.42-14.03,0-11.57,9.45-20.95,21.1-20.95Z"/>
    <path class="cls-1" d="M46.18,62.53c.65.31,1.29.64,1.93.98.64.35,1.26.72,1.84,1.14.22.15.44.31.65.47l-3.46-6.44,4.74,7.43c.48.39.95.78,1.42,1.18.77.67,1.51,1.35,2.24,2.05l.24-6.98-4.96-7.55,5,6.5.22-6.25.36,7h0s0,0,0,0l.36,7.01c.63-.6,1.28-1.19,1.94-1.76.52-.45,1.05-.9,1.59-1.33l4.49-7.66-3.3,6.76c.19-.14.38-.28.57-.41.58-.41,1.21-.79,1.84-1.14.63-.34,1.28-.66,1.93-.98,1.3-.62,2.62-1.21,3.99-1.69-1.33.56-2.6,1.22-3.85,1.92-.62.35-1.24.71-1.84,1.08-.59.38-1.17.77-1.71,1.21-1.09.87-2.11,1.81-3.1,2.79-.86.85-1.69,1.74-2.49,2.63l.45,54.84h-2.08s.29-54.48.29-54.48c-.89-1.02-1.84-2.02-2.81-2.99-.98-.98-2-1.92-3.1-2.79-.54-.44-1.11-.84-1.71-1.21-.6-.37-1.22-.73-1.84-1.08-1.24-.7-2.52-1.36-3.85-1.92,1.37.48,2.69,1.07,3.99,1.69Z"/>
  </g>
</svg>