<?xml version="1.0" encoding="UTF-8"?>
<svg id="OBJECTS" xmlns="http://www.w3.org/2000/svg" viewBox="0 0 70.64 130.18">
  <defs>
    <style>
      .cls-1 {
        fill: #263238;
      }

      .cls-1, .cls-2, .cls-3 {
        stroke-width: 0px;
      }

      .cls-2 {
        fill: #92e3a9;
      }

      .cls-3 {
        fill: #fff;
        opacity: .5;
      }
    </style>
  </defs>
  <g>
    <path class="cls-2" d="M40.83,0c16.46,0,29.81,13.25,29.81,29.61,0,7.58-2.87,14.49-7.59,19.73-2.16-.31-6.09-.53-10.44.95-5.76,1.96-9.35,5.17-10.14,5.92h-2.67c-.79-.75-4.38-3.96-10.14-5.92-4.73-1.61-8.98-1.21-10.97-.87-4.76-5.25-7.66-12.2-7.66-19.82C11.02,13.25,24.37,0,40.83,0Z"/>
    <path class="cls-3" d="M40.83,0c16.46,0,29.81,13.25,29.81,29.61,0,7.58-2.87,14.49-7.59,19.73-2.16-.31-6.09-.53-10.44.95-5.76,1.96-9.35,5.17-10.14,5.92h-2.67c-.79-.75-4.38-3.96-10.14-5.92-4.73-1.61-8.98-1.21-10.97-.87-4.76-5.25-7.66-12.2-7.66-19.82C11.02,13.25,24.37,0,40.83,0Z"/>
    <path class="cls-1" d="M26.96,41.48c.92.44,1.83.9,2.72,1.38.9.49,1.78,1.02,2.6,1.61.31.22.62.44.92.66l-4.88-9.1,6.7,10.49c.68.55,1.35,1.1,2,1.67,1.08.94,2.13,1.9,3.17,2.89l.34-9.87-7.01-10.67,7.06,9.18.3-8.83.5,9.88h0s0,0,0,0l.5,9.91c.9-.85,1.81-1.68,2.74-2.49.73-.64,1.48-1.27,2.25-1.87l6.34-10.83-4.66,9.55c.27-.19.53-.39.81-.58.83-.58,1.71-1.12,2.6-1.61.9-.48,1.81-.94,2.72-1.38,1.84-.88,3.71-1.71,5.64-2.39-1.88.8-3.68,1.73-5.44,2.71-.88.49-1.74,1-2.6,1.53-.84.53-1.65,1.09-2.41,1.71-1.54,1.22-2.99,2.56-4.38,3.93-1.21,1.2-2.39,2.45-3.52,3.72l.64,77.48h-2.94s.42-76.97.42-76.97c-1.26-1.44-2.6-2.86-3.97-4.23-1.39-1.38-2.83-2.71-4.38-3.93-.77-.62-1.57-1.18-2.41-1.71-.85-.53-1.72-1.04-2.6-1.53-1.76-.98-3.56-1.92-5.44-2.71,1.93.68,3.8,1.51,5.64,2.39Z"/>
  </g>
  <g>
    <path class="cls-2" d="M16.71,57.19c9.23,0,16.71,7.43,16.71,16.6,0,4.25-1.61,8.13-4.25,11.06-1.21-.18-3.42-.3-5.85.53-3.23,1.1-5.24,2.9-5.68,3.32h-1.5c-.44-.42-2.45-2.22-5.68-3.32-2.65-.9-5.03-.68-6.15-.49C1.63,81.96,0,78.06,0,73.79c0-9.17,7.48-16.6,16.71-16.6Z"/>
    <path class="cls-3" d="M16.71,57.19c9.23,0,16.71,7.43,16.71,16.6,0,4.25-1.61,8.13-4.25,11.06-1.21-.18-3.42-.3-5.85.53-3.23,1.1-5.24,2.9-5.68,3.32h-1.5c-.44-.42-2.45-2.22-5.68-3.32-2.65-.9-5.03-.68-6.15-.49C1.63,81.96,0,78.06,0,73.79c0-9.17,7.48-16.6,16.71-16.6Z"/>
    <path class="cls-1" d="M8.93,80.45c.51.25,1.02.51,1.53.77.5.28,1,.57,1.46.9.17.12.35.25.52.37l-2.74-5.1,3.76,5.88c.38.31.75.62,1.12.94.61.53,1.2,1.07,1.77,1.62l.19-5.53-3.93-5.98,3.96,5.15.17-4.95.28,5.54h0s0,0,0,0l.28,5.55c.5-.48,1.01-.94,1.54-1.4.41-.36.83-.71,1.26-1.05l3.55-6.07-2.61,5.35c.15-.11.3-.22.45-.32.46-.33.96-.63,1.46-.9.5-.27,1.01-.53,1.53-.77,1.03-.49,2.08-.96,3.16-1.34-1.05.45-2.06.97-3.05,1.52-.49.28-.98.56-1.46.86-.47.3-.92.61-1.35.96-.87.69-1.67,1.43-2.45,2.21-.68.68-1.34,1.37-1.97,2.08l.36,43.44h-1.65s.23-43.16.23-43.16c-.71-.81-1.46-1.6-2.23-2.37-.78-.77-1.59-1.52-2.45-2.21-.43-.35-.88-.66-1.35-.96-.48-.3-.96-.58-1.46-.86-.99-.55-1.99-1.07-3.05-1.52,1.08.38,2.13.84,3.16,1.34Z"/>
  </g>
</svg>