<?xml version="1.0" encoding="UTF-8"?>
<svg id="Layer_1" data-name="Layer 1" xmlns="http://www.w3.org/2000/svg" xmlns:xlink="http://www.w3.org/1999/xlink" viewBox="0 0 67.52 24.14">
  <defs>
    <style>
      .cls-1 {
        fill: #f58c83;
      }

      .cls-2 {
        fill: #f7a19a;
      }

      .cls-3 {
        fill: #f8a488;
      }

      .cls-4 {
        fill: #f9ae97;
      }

      .cls-5 {
        fill: #f26c53;
      }

      .cls-6 {
        fill: #e6e7e8;
      }

      .cls-7 {
        fill: #e87f73;
      }

      .cls-8 {
        fill: #e4837f;
      }

      .cls-9 {
        fill: #eacf92;
      }

      .cls-10 {
        fill: #f37978;
      }

      .cls-11 {
        fill: #fcd6d5;
      }

      .cls-12 {
        fill: #e78e78;
      }

      .cls-13 {
        fill: #8c3f42;
      }

      .cls-14 {
        fill: #a1a3a6;
      }

      .cls-15 {
        fill: #d0736f;
      }

      .cls-16 {
        fill: #af5657;
      }

      .cls-17 {
        fill: #c9cacc;
      }

      .cls-18 {
        fill: #c97468;
      }

      .cls-19 {
        fill: #221b18;
      }

      .cls-20 {
        fill: #414042;
      }

      .cls-21 {
        fill: #6e1f2c;
      }

      .cls-22 {
        fill: #6d6e71;
      }

      .cls-23 {
        fill: #342d2b;
      }

      .cls-24 {
        fill: #58595b;
      }

      .cls-25 {
        fill: #2e2726;
      }

      .cls-26 {
        fill: #78d2f7;
      }

      .cls-27 {
        fill: #77787b;
      }

      .cls-28 {
        stroke: #d67b77;
      }

      .cls-28, .cls-29, .cls-30 {
        stroke-width: 1.11px;
      }

      .cls-28, .cls-29, .cls-30, .cls-31, .cls-32 {
        fill: none;
        stroke-miterlimit: 10;
      }

      .cls-29 {
        stroke: #c6726f;
      }

      .cls-30 {
        stroke: #e4837f;
      }

      .cls-33 {
        fill: url(#radial-gradient);
      }

      .cls-31 {
        stroke: #bec0c2;
        stroke-width: 1.34px;
      }

      .cls-32 {
        stroke: #fff;
        stroke-width: .48px;
      }
    </style>
    <radialGradient id="radial-gradient" cx="-2396.59" cy="155.99" fx="-2396.59" fy="155.99" r=".32" gradientTransform="translate(2390.04 -448.45) rotate(-7.11)" gradientUnits="userSpaceOnUse">
      <stop offset="0" stop-color="#f69080"/>
      <stop offset="1" stop-color="#f8a488"/>
    </radialGradient>
  </defs>
  <g>
    <g>
      <path class="cls-30" d="m6.32,21.63s.95,1.38,2.76-.33c1.81-1.71,2.71-2.15,4.41-1.95,1.44.17,4.32-.57,4.68-1.64"/>
      <g>
        <rect class="cls-8" x="4.38" y="20.09" width="1.93" height="3.48" transform="translate(-17.1 20.46) rotate(-72.75)"/>
        <g>
          <rect class="cls-18" x="2.89" y="21.19" width="1.93" height=".36" transform="translate(-17.7 18.7) rotate(-72.73)"/>
          <rect class="cls-18" x="5.87" y="22.12" width="1.93" height=".36" transform="translate(-16.49 22.22) rotate(-72.78)"/>
        </g>
        <g>
          <line class="cls-32" x1="4.59" y1="20.6" x2="4.02" y2="22.43"/>
          <line class="cls-32" x1="5" y1="20.73" x2="4.44" y2="22.56"/>
          <line class="cls-32" x1="5.42" y1="20.86" x2="4.85" y2="22.68"/>
          <line class="cls-32" x1="5.83" y1="20.98" x2="5.26" y2="22.81"/>
          <line class="cls-32" x1="6.25" y1="21.11" x2="5.68" y2="22.94"/>
          <line class="cls-32" x1="6.66" y1="21.24" x2="6.09" y2="23.07"/>
        </g>
      </g>
    </g>
    <g>
      <path class="cls-29" d="m16.79,17.67s-.08,1.68-1.58,2.05c-1.51.37-2.68.19-3.49,1.53-.33.55-1.67,1.79-2.44,1.06"/>
      <g>
        <rect class="cls-2" x="6.76" y="21.74" width="3.48" height="1.93" transform="translate(-6.35 3.54) rotate(-17.24)"/>
        <g>
          <rect class="cls-18" x="6.83" y="22.2" width=".36" height="1.93" transform="translate(-6.56 3.13) rotate(-17.28)"/>
          <rect class="cls-18" x="9.81" y="21.28" width=".36" height="1.93" transform="translate(-6.14 3.96) rotate(-17.23)"/>
        </g>
        <g>
          <line class="cls-32" x1="7.18" y1="22.11" x2="7.75" y2="23.94"/>
          <line class="cls-32" x1="7.59" y1="21.98" x2="8.16" y2="23.81"/>
          <line class="cls-32" x1="8.01" y1="21.85" x2="8.57" y2="23.68"/>
          <line class="cls-32" x1="8.42" y1="21.73" x2="8.99" y2="23.56"/>
          <line class="cls-32" x1="8.84" y1="21.6" x2="9.4" y2="23.43"/>
          <line class="cls-32" x1="9.25" y1="21.47" x2="9.82" y2="23.3"/>
        </g>
      </g>
    </g>
    <g>
      <path class="cls-28" d="m2.78,20.07s.83-.83,2.47-.16c1.65.67,4.1.15,5.01,0,1.83-.3,4.01,1.21,5.92.3,1.91-.91,1.81-2.17,1.81-2.17"/>
      <g>
        <rect class="cls-2" x=".15" y="20.43" width="3.48" height="1.93" transform="translate(-14.99 8.12) rotate(-46.76)"/>
        <g>
          <rect class="cls-18" x=".64" y="21.56" width=".36" height="1.93" transform="translate(-16.18 7.73) rotate(-46.87)"/>
          <rect class="cls-18" x="2.78" y="19.29" width=".36" height="1.93" transform="translate(-13.85 8.57) rotate(-46.87)"/>
        </g>
        <g>
          <line class="cls-32" x1=".45" y1="21.53" x2="1.85" y2="22.84"/>
          <line class="cls-32" x1=".75" y1="21.21" x2="2.15" y2="22.52"/>
          <line class="cls-32" x1="1.05" y1="20.89" x2="2.44" y2="22.21"/>
          <line class="cls-32" x1="1.35" y1="20.58" x2="2.74" y2="21.89"/>
          <line class="cls-32" x1="1.64" y1="20.26" x2="3.04" y2="21.57"/>
          <line class="cls-32" x1="1.94" y1="19.95" x2="3.34" y2="21.26"/>
        </g>
      </g>
    </g>
  </g>
  <g>
    <rect class="cls-24" x="25.33" y="6.36" width="23.64" height="3.61" transform="translate(-.25 1.22) rotate(-1.87)"/>
    <rect class="cls-27" x="25.28" y="6.36" width="23.64" height=".64" transform="translate(-.2 1.21) rotate(-1.87)"/>
    <line class="cls-31" x1="25.46" y1="7.99" x2="47.32" y2="7.28"/>
  </g>
  <rect class="cls-20" x="31.8" y="8.28" width="4.08" height=".46" transform="translate(-.26 1.11) rotate(-1.87)"/>
  <path class="cls-23" d="m28.53,10.06l2.35.08-1.22-3.7c-.36-1.11-1.36-1.89-1.95-1.74-.42.11-.65.57-.52.98l1.34,4.38Z"/>
  <rect class="cls-9" x="23.15" y="11.19" width="40.35" height="5.39" transform="translate(-.43 1.42) rotate(-1.87)"/>
  <path class="cls-23" d="m37.17,9.69l2.34.13-1.13-3.73c-.33-1.11-1.31-1.92-1.91-1.79-.42.1-.66.55-.54.97l1.23,4.41Z"/>
  <g>
    <polygon class="cls-23" points="48 8.55 42.86 7.09 43.03 6.5 48.17 7.97 48 8.55"/>
    <rect class="cls-23" x="41.27" y="6.46" width="3.37" height=".53" transform="translate(22.44 45.07) rotate(-70.75)"/>
  </g>
  <g>
    <polygon class="cls-26" points="49.63 7.87 48.82 8.52 42.94 1.34 43.56 .85 49.63 7.87"/>
    <polygon class="cls-2" points="49.22 8.29 48.41 8.95 42.48 1.71 43.29 1.05 49.22 8.29"/>
  </g>
  <g>
    <g>
      <path class="cls-4" d="m40.92,2.13c-.07-.05-.11-.1-.17-.17-.04-.05-.08-.11-.14-.19,0,0-.02-.07-.01-.08,0-.16,0-.46-.12-.72.02-.33-.25-.58-.34-.63-.95-.55-1.96.07-2.04.12,0,0-.73.35-.62,1.11.1.66.38,1.18.72,1.37.05.2.06.44.06.44.02.24.01,1.31.01,1.31l1.6-.24c-.11-.18.03-.94.15-1.03.05-.04.36-.07.39-.07.22.02.41-.11.36-.26-.02-.06-.02-.1-.02-.13.01-.05.05-.07.06-.11,0-.02,0-.03-.02-.03.01-.07.01-.16.01-.23.04-.02.04-.05.03-.07-.01-.02-.03-.07-.03-.09,0-.06-.02-.16.07-.17.17-.02.1-.1.06-.13Z"/>
      <path class="cls-21" d="m38.06.43c0-.1-.12-.09-.12-.09.09-.05.24.03.24.03-.04-.1.09-.24.09-.24-.07.11.03.19.03.19.53-.41,1.35-.43,1.89,0,.01.01.17.18.29.37.02.03.03.06.05.09.07-.04.14-.09.18-.16,0,0,.05.47-.27.53-.19.05-.45-.06-.68-.12-.44-.11-.64.11-.66.45-.01.24,0,.31-.01.62,0,.12,0,.15,0,.32,0,.05-.07.04-.12.05-.07.01-.08-.07-.08-.1-.06-.21-.2-.3-.31-.33-.12-.03-.16.01-.19.07-.08.13.06.26.22.46.12.14-.18.41-.36.43-.13.02-.69-.74-.79-1.41-.12-.78.64-1.14.64-1.14Z"/>
      <path class="cls-4" d="m38.75,2.16c.11.15.11.31.02.38-.1.06-.27,0-.37-.16-.11-.15-.11-.31-.02-.38.1-.06.27,0,.37.16Z"/>
      <path class="cls-13" d="m40.39,1.56s-.04,0-.09,0c-.05,0-.13.02-.2.03-.08.01-.14.07-.19.09-.05.03-.09.05-.09.05h0s-.02,0-.02,0c0,0,0-.02,0-.02,0,0,.03-.02.08-.06.05-.03.11-.1.19-.12.08-.03.16-.07.23-.07.07-.01.11,0,.11,0h0s.06.03.06.07c0,.03-.03.06-.07.06,0,0,0,0,0,0Z"/>
      <path class="cls-11" d="m40.31,2.58s-.04,0-.03.03c.02.04.32.22.5.2v-.02c.02-.07.01-.13.01-.21-.02,0-.28.08-.48,0Z"/>
      <path class="cls-13" d="m40.39,1.8s.04-.01.06-.01c-.07-.04-.17-.03-.24,0-.03.03-.07.05-.09.09-.02.04-.03.08-.03.12.06-.06.1-.11.16-.15,0,0,0,0,0,0,0,.01,0,.02,0,.04,0,.05.05.08.11.07.05,0,.09-.05.08-.1,0-.03-.02-.05-.05-.06Z"/>
    </g>
    <g>
      <polygon class="cls-11" points="38.2 3.26 39.96 3.81 39.83 4.22 38.26 3.67 38.2 3.26"/>
      <path class="cls-19" d="m38.31,8.41c-.1-.68-.37-2.49-.45-3.02-.12-.82.4-1.71.4-1.71l1.57.54s.61.65.71,1.33c.22,1.49.87,5.84.87,5.84-.28.07-2.54.64-3.18.32,0,0,.22-2.35.08-3.31Z"/>
      <path class="cls-25" d="m38.14,3.91l.07-.48,1.62.79c.74.76.77,1.68.77,1.68l.21,1.42-1.08-2.24.2-.26-.33.1-1.46-1Z"/>
    </g>
  </g>
  <g>
    <path class="cls-4" d="m42.45,5.95s.45-.57.76-.66c.44-.12.49-.07.56.15.03.09.07.54-.23.74-.04.03-.06.03-.12,0,0,0,.04-.14.04-.14-.24,0-.42.32-.67.53l-.34-.64Z"/>
    <rect class="cls-11" x="42.48" y="5.77" width=".38" height=".97" transform="translate(2.66 22.35) rotate(-30.25)"/>
    <path class="cls-25" d="m38.08,5.12c.03.34.22.76.43,1.18.7,1.38,1.37,1.89,1.37,1.89l.83-.77s-.42-.89-.95-1.83c-.16-.28-.53-.7-.76-.9-.36-.29-.97-.17-.92.44Z"/>
    <path class="cls-25" d="m40.08,7.33c.51-.35,1.43-1.01,2.24-1.45l.48.88c-.67.47-1.43,1.04-2.25,1.58-.49.32-1.24-.48-.47-1.01Z"/>
  </g>
  <g>
    <g>
      <path class="cls-12" d="m30.7,8.53c.09.21.3.38.5.33h0c.2-.05.26-.27.26-.5.01-.41-.08-1.05-.15-1.38-.09-.37-.28-1.02-.46-1.39-.1-.21-.25-.39-.54-.32-.25.06-.36.29-.35.52.02.48.16,1,.25,1.39.11.44.29.91.49,1.35Z"/>
      <path class="cls-12" d="m31.14,8.93s1.79.31,3.61.09l.07-.35s-2.22-.46-3.58-.48c0,0-.35.03-.39.34-.03.26.29.41.29.41Z"/>
    </g>
    <path class="cls-12" d="m35.43,8.49c-.26,0-.68.17-.68.17,0,0-.05.36-.05.36.11.11.48.16.61.15.16-.02.07-.09-.01-.11.3,0,.61-.11.66-.24.05-.13-.27-.32-.52-.33Z"/>
  </g>
  <g>
    <path class="cls-3" d="m32.22,6.12h0s0,0,0,0h0s-.4-.39-.74-.6c-.45-.28-.56-.7-.57-.75-.01-.1,0,0-.02-.21-.04-.35.08-.76.08-.76l-1.22-.02s.15.28.15.5c-.01.38.01.68-.16,1.08-.15.35-.25,1-.23,1.17v.04s2.73-.34,2.73-.34v-.11s-.01,0-.01,0Z"/>
    <path class="cls-11" d="m30.32,10.45l1.7-.2-.09-2.84c.66-.6.32-1.28.32-1.28l-2.77.35c-.02.25,0,.84.21,1.4.66,1.66.73,2.4.63,2.58Z"/>
    <path class="cls-3" d="m31.91,2.45c.05.26.16.36.29.43.05.03.06.09.02.11-.11.04-.12.17-.12.23,0,.09-.06.1-.04.16,0,.03-.03.09-.01.11.02.03.05.07,0,.1,0,0-.06.05-.02.24.04.16-.16.29-.39.27-.14-.01-.77-.08-.92-.1-.05,0-.47-.03-.92-.13-.13-.06-.25-.13-.35-.21-.56-.29-1.03-1.59.07-2.46.28-.23,1.14-.27,1.69-.11.36.11.48.32.56.5.13.28.11.6.12.77v.08Z"/>
    <path class="cls-16" d="m31.76,2.31s-.14-.06-.3-.04c-.08,0-.15.04-.2.07-.05.03-.08.06-.08.06h0s-.02,0-.03,0c0,0,0-.02,0-.02,0,0,.03-.03.08-.07.05-.04.13-.09.21-.11.09-.03.18-.03.25-.03.07,0,.12.02.12.02h0s.06.05.05.09c-.01.04-.05.06-.09.05,0,0,0,0,0,0Z"/>
    <path class="cls-11" d="m32.08,3.35s.01.09,0,.18l-.3-.11.31-.07Z"/>
    <path class="cls-10" d="m32.11,3.22s-.05,0-.11.04c-.04.02-.21.09-.32.11-.02,0-.03.03,0,.04.26.07.46-.06.46-.06,0,0,.07-.04.04-.09-.02-.03-.04-.04-.06-.04Z"/>
    <path class="cls-10" d="m32.13,3.5s-.04-.02-.12-.03c-.05,0-.22-.05-.32-.1-.02,0-.04.01-.03.03.18.21.41.22.41.22,0,0,.08,0,.09-.05,0-.04,0-.05-.03-.07Z"/>
    <path class="cls-7" d="m31.78,2.62c-.02-.1-.12-.19-.3-.16-.16.02-.2.16-.2.27,0,0,.13-.09.24-.11.15-.03.26,0,.26,0Z"/>
    <path class="cls-33" d="m31.63,3.24c-.04.14-.23.2-.43.15-.2-.05-.34-.21-.3-.34.04-.13.23-.2.43-.15.2.05.34.21.3.34Z"/>
    <path class="cls-13" d="m31.94,1.3c-.12.01-.43-.14-.44-.15-.08-.05-.19-.09-.32-.13-1.46-.38-2.23.44-2.33,1.23-.1,0-.24.04-.35.17-.05.06-.08.15-.1.23-.04.05-.07.11-.09.17-.02.06-.02.12,0,.18-.07.05-.17.17-.16.39.01.35.21.45.37.47.04.07.09.12.15.16.04.03.09.05.13.06.06.1.17.18.37.15.35-.06.46-.35.49-.45.03.01.05.02.07.02-.01.03-.03.06-.04.09-.03.05-.06.09-.1.13.05-.03.09-.07.13-.11.02-.02.04-.05.06-.07,0,.01,0,.02,0,.04-.01.05-.03.09-.05.13-.04.09-.1.17-.16.24.07-.07.14-.14.19-.23.03-.04.05-.09.07-.13.01-.03.02-.06.03-.09.11-.04.26-.23.27-.42.01-.34-.1-.59-.1-.59.34-.02.71-.03.95-.54.17-.37.37-.8.67-.68.03.01.05.02.07.02,0,0,0,0,0,0,.34.07.34-.31.22-.3Zm-3.63,1.7c0-.06,0-.11.03-.16.01-.02.03-.04.04-.07-.01.11,0,.19,0,.19,0,0-.03,0-.07.04Zm.39.99s-.05-.07-.06-.11c.05,0,.08-.01.08-.01,0,0,0,.1.06.19-.03-.02-.05-.04-.07-.07Z"/>
    <g>
      <path class="cls-11" d="m28.98,2.23s-.04-.02-.1-.01c0,0-.02,0-.03,0,0,0,.01-.01.02-.02.03-.04.05-.08.04-.09-.01,0-.05.02-.08.06,0,0-.01.02-.02.02,0,0,0-.02,0-.03,0-.05-.02-.09-.04-.09-.01,0-.02.04-.01.1,0,0,0,.02,0,.03,0,0-.01-.01-.02-.02-.04-.03-.08-.05-.09-.04,0,.01.02.05.06.08,0,0,.01.01.02.02,0,0-.02,0-.03,0-.05,0-.09.02-.09.04,0,.01.04.02.09.02,0,0,.02,0,.03,0,0,0-.01.01-.02.02-.03.04-.05.08-.04.09.01,0,.05-.02.08-.06,0,0,.01-.01.02-.02,0,0,0,.02,0,.03,0,.05.02.09.04.09.01,0,.02-.04.01-.1,0,0,0-.02,0-.03,0,0,.01.01.02.02.04.03.08.05.09.04,0-.01-.02-.05-.06-.08,0,0-.01-.01-.02-.02,0,0,.02,0,.03,0,.05,0,.09-.02.09-.04Z"/>
      <path class="cls-11" d="m29.08,2.64s-.02-.04-.06-.06c0,0-.01,0-.02-.01,0,0,.02,0,.02,0,.04-.01.08-.04.07-.05,0-.01-.04-.01-.09,0,0,0-.02,0-.02,0,0,0,0-.01.01-.02.02-.04.03-.08.02-.09-.01,0-.04.02-.06.06,0,0,0,.01-.01.02,0,0,0-.02,0-.02-.01-.05-.04-.08-.05-.07-.01,0-.01.04,0,.09,0,0,0,.02,0,.02,0,0-.01,0-.02-.01-.04-.02-.08-.03-.09-.02,0,.01.02.04.06.06,0,0,.01,0,.02.01,0,0-.02,0-.02,0-.04.01-.08.03-.08.05,0,.01.04.01.09,0,0,0,.02,0,.02,0,0,0,0,.01-.01.02-.02.04-.03.08-.02.09.01,0,.04-.02.06-.06,0,0,0-.02.01-.02,0,0,0,.02,0,.02.01.04.04.08.05.07.01,0,.01-.04,0-.09,0,0,0-.02,0-.02,0,0,.01,0,.02.01.04.02.08.03.09.02Z"/>
      <path class="cls-11" d="m28.76,2.55s-.02-.03-.05-.05c0,0-.01,0-.02,0,0,0,.01,0,.02,0,.03-.01.06-.03.06-.04,0,0-.03,0-.07,0,0,0-.01,0-.02,0,0,0,0-.01,0-.02.02-.03.02-.06.01-.06,0,0-.03.02-.05.05,0,0,0,.01,0,.02,0,0,0-.01,0-.02-.01-.03-.03-.06-.04-.06-.01,0,0,.03,0,.07,0,0,0,.01,0,.02,0,0-.01,0-.02,0-.03-.02-.06-.02-.06-.01,0,0,.02.03.05.05,0,0,.01,0,.02,0,0,0-.01,0-.02,0-.03.01-.06.03-.06.04,0,0,.03,0,.07,0,0,0,.01,0,.02,0,0,0,0,0,0,.02-.02.03-.02.06-.01.06,0,0,.03-.02.05-.05,0,0,0-.01,0-.02,0,0,0,.01,0,.02.01.03.03.06.04.06.01,0,0-.03,0-.07,0,0,0-.01,0-.02,0,0,.01,0,.02,0,.03.02.06.02.07.01Z"/>
      <path class="cls-11" d="m29.21,2.42s-.02-.04-.06-.06c0,0-.01,0-.02-.01,0,0,.01,0,.02,0,.04-.01.07-.03.07-.04,0-.01-.04-.01-.08,0,0,0-.01,0-.02,0,0,0,0-.01.01-.02.02-.04.03-.08.02-.08-.01,0-.04.02-.06.06,0,0,0,.01-.01.02,0,0,0-.01,0-.02-.01-.04-.03-.07-.04-.07-.01,0-.01.04,0,.08,0,0,0,.02,0,.02,0,0-.01,0-.02-.01-.04-.02-.08-.03-.08-.02,0,.01.02.04.06.06,0,0,.01,0,.02,0,0,0-.01,0-.02,0-.04.01-.07.03-.07.05,0,.01.04.01.08,0,0,0,.02,0,.02,0,0,0,0,.01-.01.02-.02.04-.03.08-.02.08.01,0,.04-.02.06-.06,0,0,0-.01.01-.02,0,0,0,.02,0,.02.01.04.03.07.04.07.01,0,.01-.04,0-.08,0,0,0-.02,0-.02,0,0,.01,0,.02.01.04.02.08.03.08.02Z"/>
      <path class="cls-11" d="m29.11,2.16s-.02-.03-.04-.04c0,0-.01,0-.02,0,0,0,.01,0,.02,0,.03,0,.05-.02.05-.03,0,0-.03,0-.06,0,0,0-.01,0-.02,0,0,0,0,0,0-.01.01-.03.02-.05.01-.06,0,0-.03.02-.04.04,0,0,0,.01,0,.02,0,0,0-.01,0-.02,0-.03-.02-.05-.03-.05,0,0,0,.03,0,.06,0,0,0,.01,0,.02,0,0-.01,0-.01,0-.03-.02-.05-.02-.06-.01,0,0,.01.03.04.04,0,0,.01,0,.01,0,0,0-.01,0-.02,0-.03,0-.05.02-.05.03,0,0,.03,0,.06,0,0,0,.01,0,.02,0,0,0,0,0,0,.01-.02.03-.02.06-.01.06,0,0,.03-.02.04-.04,0,0,0-.01,0-.02,0,0,0,.01,0,.02,0,.03.02.05.03.05,0,0,0-.03,0-.06,0,0,0-.01,0-.02,0,0,0,0,.01,0,.03.02.05.02.06.01Z"/>
      <path class="cls-11" d="m28.71,2.32s-.02-.03-.05-.05c0,0-.01,0-.02,0,0,0,.01,0,.02,0,.03-.01.06-.03.06-.04,0,0-.03,0-.07,0,0,0-.01,0-.02,0,0,0,0-.01.01-.02.02-.03.02-.06.01-.07,0,0-.03.02-.05.05,0,0,0,.01,0,.02,0,0,0-.01,0-.02-.01-.03-.03-.06-.04-.06,0,0,0,.03,0,.07,0,0,0,.01,0,.02,0,0,0,0-.02,0-.03-.02-.06-.02-.07-.01,0,0,.02.03.05.05,0,0,.01,0,.02,0,0,0-.01,0-.02,0-.03.01-.06.03-.06.04,0,.01.03,0,.07,0,0,0,.01,0,.02,0,0,0,0,.01-.01.02-.02.03-.02.06-.01.07,0,0,.03-.02.05-.05,0,0,0-.01,0-.02,0,0,0,.01,0,.02.01.03.03.06.04.06,0,0,0-.03,0-.07,0,0,0-.01,0-.02,0,0,.01,0,.02,0,.03.02.06.02.07.01Z"/>
    </g>
    <path class="cls-3" d="m30.28,2.78c.11.11.13.27.05.34-.08.08-.23.05-.34-.06-.11-.11-.13-.27-.05-.34.08-.08.23-.05.34.06Z"/>
    <path class="cls-11" d="m30.3,3.1s-.03.09-.08.1c-.05,0-.09-.03-.1-.08,0-.05.03-.09.08-.1.05,0,.09.03.1.08Z"/>
    <g>
      <path class="cls-11" d="m31.42,5.54s.04.07.09.07c.04,0,.07-.04.07-.09,0-.04-.04-.07-.09-.07-.04,0-.07.04-.07.08Z"/>
      <path class="cls-11" d="m31.27,5.54s.04.07.09.07c.04,0,.07-.04.07-.08,0-.04-.04-.07-.08-.07-.04,0-.07.04-.07.08Z"/>
      <path class="cls-11" d="m31.11,5.53s.04.07.08.07c.04,0,.07-.04.07-.08,0-.04-.04-.07-.09-.07-.04,0-.07.04-.07.09Z"/>
      <path class="cls-11" d="m30.96,5.5s.04.07.09.07c.04,0,.07-.04.07-.08,0-.04-.04-.07-.08-.07-.04,0-.07.04-.07.08Z"/>
      <path class="cls-11" d="m30.81,5.47s.04.07.09.07c.04,0,.07-.04.07-.08,0-.04-.04-.07-.08-.07-.04,0-.07.04-.07.08Z"/>
      <path class="cls-11" d="m30.66,5.44s.04.07.09.07c.04,0,.07-.04.07-.08,0-.04-.04-.07-.08-.07-.04,0-.07.04-.07.09Z"/>
      <path class="cls-11" d="m30.53,5.38s.04.07.09.07c.04,0,.07-.04.07-.09,0-.04-.04-.07-.08-.07-.04,0-.07.04-.07.09Z"/>
      <path class="cls-11" d="m30.4,5.32s.04.07.09.07c.04,0,.07-.04.07-.08,0-.04-.04-.07-.08-.07-.04,0-.07.04-.07.09Z"/>
      <path class="cls-11" d="m30.27,5.26s.04.07.09.07c.04,0,.07-.04.07-.08,0-.04-.04-.07-.08-.07-.04,0-.07.04-.07.08Z"/>
      <path class="cls-11" d="m30.15,5.17s.04.07.08.07c.04,0,.07-.04.07-.08,0-.04-.04-.07-.09-.07-.04,0-.07.04-.07.08Z"/>
      <path class="cls-11" d="m30.03,5.1s.04.07.08.07c.04,0,.07-.04.07-.09,0-.04-.04-.07-.08-.07-.04,0-.07.04-.07.09Z"/>
      <path class="cls-11" d="m29.9,5.03s.04.07.09.07c.04,0,.07-.04.07-.08,0-.04-.04-.07-.09-.07-.04,0-.07.04-.07.09Z"/>
      <path class="cls-11" d="m29.79,4.94s.04.07.08.07c.04,0,.07-.04.07-.09,0-.04-.04-.07-.08-.07-.04,0-.07.04-.07.08Z"/>
    </g>
    <path class="cls-13" d="m31.17,2.68c.07.02.13,0,.18-.04.04-.04.09-.07.15-.08.1-.02.21,0,.29.08-.02,0-.05,0-.07,0,.01.01.02.03.03.05,0,.05-.03.1-.08.1-.05,0-.1-.03-.11-.08,0-.03,0-.06.03-.08-.02,0-.04,0-.07,0-.09.01-.16.06-.24.12,0-.02.02-.04.03-.05-.05,0-.09,0-.13-.01Z"/>
  </g>
  <g>
    <path class="cls-3" d="m30.5,9.14c.08.22.27.41.47.38h0c.2-.03.28-.25.3-.47.04-.41.01-1.05-.04-1.38-.05-.37-.19-1.04-.34-1.43-.09-.22-.22-.41-.51-.37-.26.04-.38.26-.39.49-.02.48.07,1.01.13,1.4.07.45.21.94.37,1.39Z"/>
    <path class="cls-3" d="m30.9,9.58s1.79.44,3.61.37l.07-.32s-2.18-.64-3.53-.78c0,0-.35,0-.42.3-.06.25.26.43.26.43Z"/>
    <path class="cls-3" d="m34.44,9.95s.57.4,1.48.19c.07-.02.22-.09.17-.2-.03-.06-.08-.1-.24-.15-.08-.03-.22-.07-.47-.1.14-.03.35-.07.32-.16-.05-.13-.73.09-1.02.1-.06,0-.12.01-.19,0l-.05.33Z"/>
  </g>
  <g>
    <g>
      <path class="cls-23" d="m35.76,17.59c.08,2.41-1.81,4.43-4.22,4.51s-4.43-1.81-4.51-4.23,1.81-4.43,4.22-4.51,4.43,1.81,4.51,4.22Z"/>
      <path class="cls-6" d="m34.16,17.64c.05,1.53-1.15,2.81-2.67,2.85s-2.8-1.15-2.85-2.67,1.15-2.8,2.67-2.85,2.8,1.15,2.85,2.67Z"/>
      <path class="cls-24" d="m33.8,17.66c.04,1.33-1,2.44-2.33,2.48s-2.44-1-2.48-2.33,1-2.44,2.33-2.48,2.44,1,2.48,2.33Z"/>
      <path class="cls-22" d="m33.27,17.67c.03,1.04-.78,1.91-1.82,1.94s-1.91-.78-1.94-1.82.78-1.91,1.82-1.94,1.91.78,1.94,1.82Z"/>
    </g>
    <g>
      <path class="cls-2" d="m67.51,11.36c.04,1.12-.48,2.05-1.16,2.08s-1.25-.87-1.29-2,.48-2.05,1.16-2.08,1.25.87,1.29,2Z"/>
      <path class="cls-24" d="m66.23,9.36s0,0,0,0v.21c.42.32.72,1,.75,1.8s-.23,1.5-.62,1.84v.21s.01,0,.01,0c.68-.02,1.19-.95,1.16-2.08s-.61-2.02-1.29-2Z"/>
    </g>
    <g>
      <path class="cls-2" d="m57.7,6.95c.04,1.12-.48,2.05-1.16,2.08s-1.25-.87-1.29-2,.48-2.05,1.16-2.08,1.25.87,1.29,2Z"/>
      <path class="cls-24" d="m56.43,4.95s0,0,0,0v.21c.42.32.72,1,.75,1.8s-.23,1.5-.62,1.84v.21s.01,0,.01,0c.68-.02,1.19-.95,1.16-2.08s-.61-2.02-1.29-2Z"/>
    </g>
    <path class="cls-2" d="m66.63,15.89l-.23-4.72c-.02-.59-.26-1.13-.63-1.61-.29-.39-.66-.74-1.05-1.04-1.24-.98-2.62-1.56-3.55-1.96-1.96-.84-3.69-.83-3.69-.83l-1.65-.45-8.19.31c.13.11.27.33.37.47.79,1.06.84,2.76-.52,2.81-5.22.17-18.68.61-18.68.61-3.59.12-3.4-2.72-3.4-2.72-5.29.17-10.67,3.35-10.67,3.35-3.34,1.95-2.82,6.12-2.64,7.58l12.45,1.32,1.05-1.76,41.02-1.34Z"/>
    <g>
      <path class="cls-23" d="m61.4,16.75c.08,2.41-1.81,4.43-4.22,4.51s-4.43-1.81-4.51-4.23,1.81-4.43,4.23-4.51,4.43,1.81,4.51,4.22Z"/>
      <path class="cls-6" d="m59.8,16.81c.05,1.53-1.15,2.81-2.67,2.85s-2.8-1.15-2.85-2.67,1.15-2.8,2.67-2.85,2.8,1.15,2.85,2.67Z"/>
      <path class="cls-24" d="m59.44,16.82c.04,1.33-1,2.44-2.33,2.48s-2.44-1-2.48-2.33,1-2.44,2.33-2.48,2.44,1,2.48,2.33Z"/>
      <path class="cls-22" d="m58.92,16.84c.03,1.04-.78,1.91-1.82,1.94s-1.91-.78-1.94-1.82.78-1.91,1.82-1.94,1.91.78,1.94,1.82Z"/>
    </g>
    <path class="cls-24" d="m17.2,16.85c.02.74-.56,1.37-1.3,1.39l-3.4.11c-.74.02-.8-.58-.82-1.32h0c-.02-.74,0-1.35.74-1.37l3.4-.11c.74-.02,1.37.56,1.39,1.3h0Z"/>
    <path class="cls-24" d="m67.35,15.3c.02.74-.33,1.32-1.07,1.29-.59-.03-1.17-.1-1.49-.14-.74-.09-1.36-.28-1.38-1.02h0c-.02-.74.6-.76,1.32-.97.16-.05.86-.24,1.44-.38.74-.18,1.16.47,1.18,1.22h0Z"/>
    <path class="cls-15" d="m23.01,7.1s-.02.23-.02.63c0,.2,0,.44.01.72.01.28.04.59.1.92.04.16.06.34.13.5.03.1.06.14.1.28,0,.03.02.03,0,.08,0,.04-.02.1-.05.13-.04.04-.09.1-.14.12-.39.21-.8.26-1.23.34-.85.14-1.76.26-2.66.42-.9.15-1.8.32-2.62.56-.82.23-1.57.5-2.18.81-.61.31-1.08.63-1.37.9-.15.13-.26.24-.33.32-.07.08-.11.12-.11.12,0,0,.04-.04.1-.13.07-.08.16-.21.31-.35.14-.15.32-.31.54-.48.22-.17.49-.35.79-.52.3-.17.64-.33,1.01-.49.37-.15.76-.3,1.18-.42.83-.25,1.73-.44,2.64-.6.91-.15,1.82-.26,2.67-.39.41-.07.85-.12,1.16-.28.04-.02.06-.04.09-.06,0,0,0,0,0,0,.02,0,0-.04,0-.06,0,0-.01-.05,0-.01v-.04s-.03-.07-.03-.07l-.04-.14c-.07-.18-.08-.37-.11-.54-.05-.35-.05-.67-.04-.95,0-.28.03-.52.04-.73.04-.4.08-.63.08-.63Z"/>
    <path class="cls-1" d="m25.79,18.3v-.37c-.03-.63.48-.74,1.11-.76l9.15-.3c.63-.02,1.15.05,1.17.68v.38s-.02.65.55.63l.78-.03c.25-.35.39-.78.37-1.25l-.04-1.26c-.04-1.14-.99-2.03-2.12-1.99l-10.73.35c-1.14.04-2.03.99-1.99,2.12l.04,1.26c.02.46.18.89.45,1.22l.66-.02c.68-.02.61-.68.61-.68Z"/>
    <path class="cls-15" d="m17.42,14.04s2.12-.1,5.3-.25c1.59-.06,3.44-.14,5.43-.22,1.99-.07,4.11-.15,6.22-.22,2.12-.06,4.24-.13,6.23-.18,1.99-.05,3.84-.09,5.43-.13,3.18-.05,5.3-.09,5.3-.09,0,0-2.12.1-5.3.26-1.59.06-3.44.14-5.43.22-1.99.07-4.11.15-6.22.22-2.12.06-4.24.13-6.23.18-1.99.05-3.84.09-5.43.13-3.18.05-5.3.09-5.3.09Z"/>
    <path class="cls-15" d="m65.76,9.65s-.24-.05-.65-.14c-.41-.09-1-.2-1.72-.29-.36-.04-.74-.08-1.15-.07-.41,0-.85.04-1.3.05-.9.04-1.87.07-2.83.11-.96.02-1.93.05-2.83.07-.9.02-1.75.03-2.47.04-1.45.01-2.41,0-2.41,0,0,0,.96-.08,2.41-.16.72-.04,1.57-.09,2.47-.12.9-.04,1.87-.07,2.83-.11.96-.03,1.93-.05,2.83-.07.45-.01.89-.03,1.31-.01.42,0,.82.06,1.17.12.72.12,1.3.29,1.71.4.41.11.63.2.63.2Z"/>
    <path class="cls-15" d="m56.74,5.58s-.11-.01-.31-.03c-.2-.02-.48-.05-.82,0-.34.03-.74.06-1.17.09-.43.02-.89.04-1.34.06-.46.02-.92.02-1.35.03-.43.01-.83,0-1.17,0-.69-.01-1.15-.04-1.15-.04,0,0,.46-.06,1.14-.12.34-.02.74-.07,1.17-.08.43-.02.89-.05,1.34-.06.46,0,.92-.02,1.35-.02.43,0,.83,0,1.17.02.35,0,.64.05.83.1.2.05.31.07.31.07Z"/>
    <g>
      <path class="cls-24" d="m12.32,14.98c-.17,0-.32-.13-.33-.31,0-.07-.07-1.7.81-2.64.12-.13.32-.14.45-.01.13.12.14.32.01.45-.7.75-.64,2.16-.64,2.17,0,.18-.13.33-.3.34h0Z"/>
      <path class="cls-5" d="m12.17,14.84c-.13,0-.24-.1-.25-.23,0-.07-.07-1.66.79-2.58.09-.1.24-.1.34-.01.1.09.1.24.01.34-.72.77-.66,2.22-.66,2.23,0,.13-.1.25-.23.25h0Z"/>
    </g>
  </g>
  <g>
    <path class="cls-14" d="m47.06,7.07l-.8.03.08,2.3.8-.03c.64-.02,1.13-.55,1.11-1.19s-.55-1.14-1.19-1.11Z"/>
    <rect class="cls-17" x="45.82" y="7.1" width=".48" height="2.3" transform="translate(-.24 1.51) rotate(-1.87)"/>
  </g>
</svg>