<?xml version="1.0" encoding="UTF-8"?>
<svg xmlns="http://www.w3.org/2000/svg" xmlns:xlink="http://www.w3.org/1999/xlink" viewBox="0 0 103.49 100.38">
  <defs>
    <style>
      .cls-1 {
        fill: none;
      }

      .cls-2 {
        clip-path: url(#clippath);
      }

      .cls-3 {
        fill: #fff;
      }

      .cls-4 {
        fill: #fee88e;
      }

      .cls-5 {
        fill: #9edae6;
      }

      .cls-6 {
        fill: #9093c8;
      }

      .cls-7, .cls-8 {
        fill: #331d11;
      }

      .cls-9 {
        fill: #133c63;
      }

      .cls-10, .cls-11 {
        fill: #056357;
      }

      .cls-12, .cls-13 {
        fill: #71a5d3;
      }

      .cls-14 {
        fill: #779a3e;
      }

      .cls-8, .cls-11 {
        mix-blend-mode: multiply;
      }

      .cls-15 {
        filter: url(#drop-shadow-1);
      }

      .cls-11 {
        opacity: .43;
      }

      .cls-13, .cls-16 {
        mix-blend-mode: soft-light;
      }

      .cls-17 {
        isolation: isolate;
      }
    </style>
    <filter id="drop-shadow-1" filterUnits="userSpaceOnUse">
      <feOffset dx="4" dy="4"/>
      <feGaussianBlur result="blur" stdDeviation="0"/>
      <feFlood flood-color="#010101" flood-opacity=".4"/>
      <feComposite in2="blur" operator="in"/>
      <feComposite in="SourceGraphic"/>
    </filter>
    <clipPath id="clippath">
      <path class="cls-1" d="m91.82,52.14l-6.14,10.47c0-.31-1.13-14.91-1.11-15.21l-.49,13.33-9.77-15.58,3.65,7.14-7.4-3.75,8.27,5.45,5.13,10.03c-.15,4.24-.49,13.2-.64,17.49h3.75s-1.23-16.58-1.23-16.58l5.97-12.78Z"/>
    </clipPath>
  </defs>
  <g class="cls-17">
    <g id="Layer_1" data-name="Layer 1">
      <g>
        <ellipse class="cls-5" cx="51.75" cy="71.09" rx="51.75" ry="29.28"/>
        <g>
          <g>
            <path class="cls-9" d="m6.76,40.05c-.5-7.31,3.26-14.5,9.54-16,8.71-2.08,18.82,6.53,27.35,3.91,4.69-1.44,7.75-6.01,12.17-8.1,5.75-2.71,13.37-.63,18.7,4.42,5.33,5.05,8.38,12.65,8.76,19.89.3,5.75-1.21,11.71-5.31,14.69-3.83,2.78-9.23,2.46-14.03.62-4.8-1.84-9.19-5.03-13.66-7.89-2.12-1.36-4.52-2.7-6.72-2.2-2.02.46-3.32,2.36-4.61,4.03-2.55,3.3-5.69,6.16-9.57,7.42-3.9,1.26-8.49.4-12.51-1.54-3.57-1.72-6.44-7.15-8-10.8-1.16-2.71-1.92-5.58-2.11-8.44Z"/>
            <path class="cls-9" d="m33.89,13.87c-6.5,0-6.51,10.1,0,10.1s6.51-10.1,0-10.1Z"/>
            <path class="cls-9" d="m48.13,11.74c-2.38,0-2.38,3.69,0,3.69s2.38-3.69,0-3.69Z"/>
            <path class="cls-9" d="m54.61,13.29c-.81,0-1.59.72-1.56,1.56.04.84.68,1.56,1.56,1.56.81,0,1.59-.72,1.56-1.56-.04-.84-.68-1.56-1.56-1.56Z"/>
            <path class="cls-9" d="m23.35,17.66c-1.8,0-1.8,2.8,0,2.8s1.8-2.8,0-2.8Z"/>
            <path class="cls-9" d="m8.7,54.46c-5.38,0-5.39,8.36,0,8.36s5.39-8.36,0-8.36Z"/>
            <path class="cls-9" d="m5.27,49.9c-1.2,0-1.2,1.87,0,1.87s1.2-1.87,0-1.87Z"/>
            <path class="cls-9" d="m82.62,63.59c-.6-.55-1.34-.9-2.17-.9-.79,0-1.61.34-2.17.9-.53.53-.93,1.4-.9,2.17.04.79.3,1.61.9,2.17.6.55,1.34.9,2.17.9.79,0,1.61-.34,2.17-.9.53-.53.93-1.4.9-2.17-.04-.79-.3-1.61-.9-2.17Z"/>
            <path class="cls-9" d="m86.2,57.58c-1.05,0-2.06.92-2.01,2.01.05,1.09.88,2.01,2.01,2.01,1.05,0,2.06-.92,2.01-2.01-.05-1.09-.88-2.01-2.01-2.01Z"/>
          </g>
          <g class="cls-15">
            <polygon class="cls-6" points="49.85 2.73 46.91 2.73 46.91 0 45.91 0 45.91 2.73 42.97 2.73 42.97 3.73 45.91 3.73 45.91 12.28 46.91 12.28 46.91 3.73 49.85 3.73 49.85 2.73"/>
            <g>
              <polygon class="cls-4" points="80.64 54.41 52.83 38.92 52.83 74.3 80.64 74.3 80.64 54.41"/>
              <path class="cls-12" d="m60.85,52.56h0c1.06,0,1.92.86,1.92,1.92v19.63c0,.11-.09.2-.2.2h-3.44c-.11,0-.2-.09-.2-.2v-19.63c0-1.06.86-1.92,1.92-1.92Z"/>
              <path class="cls-12" d="m66.7,52.56h0c1.06,0,1.92.86,1.92,1.92v19.63c0,.11-.09.2-.2.2h-3.44c-.11,0-.2-.09-.2-.2v-19.63c0-1.06.86-1.92,1.92-1.92Z"/>
              <path class="cls-12" d="m75.7,44.87h0c1.7,0,3.08,1.38,3.08,3.08v26.31h-6.17v-26.31c0-1.7,1.38-3.08,3.08-3.08Z"/>
              <polygon class="cls-4" points="12.25 54.41 40.06 38.92 40.06 74.3 12.25 74.3 12.25 54.41"/>
              <path class="cls-12" d="m32.04,52.56h0c-1.06,0-1.92.86-1.92,1.92v19.63c0,.11.09.2.2.2h3.44c.11,0,.2-.09.2-.2v-19.63c0-1.06-.86-1.92-1.92-1.92Z"/>
              <path class="cls-12" d="m26.19,52.56h0c-1.06,0-1.92.86-1.92,1.92v19.63c0,.11.09.2.2.2h3.44c.11,0,.2-.09.2-.2v-19.63c0-1.06-.86-1.92-1.92-1.92Z"/>
              <path class="cls-12" d="m14.1,44.87h6.17v26.31c0,1.7-1.38,3.08-3.08,3.08h0c-1.7,0-3.08-1.38-3.08-3.08v-26.31h0Z" transform="translate(34.38 119.14) rotate(180)"/>
              <rect class="cls-4" x="38.72" y="17.98" width="15.39" height="56.32"/>
              <polygon class="cls-12" points="46.41 8.49 55.72 18.96 37.1 18.96 46.41 8.49"/>
              <path class="cls-12" d="m46.41,57.72h0c2.74,0,4.96,2.22,4.96,4.96v11.62h-9.92v-11.62c0-2.74,2.22-4.96,4.96-4.96Z"/>
              <rect class="cls-9" x="44.77" y="37.79" width="3.05" height="71.09" transform="translate(119.63 27.05) rotate(90)"/>
              <g>
                <path class="cls-12" d="m49.6,28.91c0,1.82-1.48,3.3-3.3,3.3s-3.3-1.48-3.3-3.3,1.48-3.3,3.3-3.3,3.3,1.48,3.3,3.3Z"/>
                <path class="cls-13" d="m46.31,31.86c-.22,0-.39-.17-.39-.39v-5.14c0-.22.17-.39.39-.39s.39.17.39.39v5.14c0,.22-.17.39-.39.39Z"/>
                <path class="cls-13" d="m48.64,29.3h-4.67c-.22,0-.39-.17-.39-.39s.17-.39.39-.39h4.67c.21,0,.39.17.39.39s-.17.39-.39.39Z"/>
              </g>
              <g>
                <path class="cls-12" d="m46.38,40.18h0c1.82,0,3.3,1.48,3.3,3.3v9.08c0,.19-.15.34-.34.34h-5.92c-.19,0-.34-.15-.34-.34v-9.08c0-1.82,1.48-3.3,3.3-3.3Z"/>
                <path class="cls-13" d="m46.38,52.5c-.22,0-.39-.17-.39-.39v-11.16c0-.21.17-.39.39-.39s.39.17.39.39v11.16c0,.21-.17.39-.39.39Z"/>
                <path class="cls-13" d="m49.15,46.92h-5.55c-.21,0-.39-.17-.39-.39s.17-.39.39-.39h5.55c.22,0,.39.17.39.39s-.17.39-.39.39Z"/>
              </g>
              <g class="cls-16">
                <path class="cls-3" d="m77.56,57.17c-.21,0-.39-.17-.39-.38-.02-1.36-.01-2.74,0-4.08.01-1.33.02-2.71,0-4.07,0-.22.17-.39.38-.4.22,0,.39.17.4.38.02,1.36.01,2.75,0,4.09-.01,1.33-.02,2.71,0,4.06,0,.22-.17.39-.38.4h0Z"/>
                <path class="cls-3" d="m76.26,58.67c-.21,0-.39-.17-.39-.39l-.04-4.04c0-.22.17-.39.39-.39h0c.21,0,.39.17.39.39l.04,4.04c0,.22-.17.39-.39.39h0Z"/>
                <path class="cls-3" d="m67.03,69.72c-.21,0-.39-.17-.39-.38-.02-1.36-.01-2.75,0-4.09.01-1.33.02-2.71,0-4.06,0-.22.17-.39.38-.4.21,0,.39.17.4.38.02,1.36.01,2.74,0,4.08-.01,1.33-.02,2.71,0,4.07,0,.22-.17.39-.38.4h0Z"/>
                <path class="cls-3" d="m59.89,62.75c-.21,0-.39-.17-.39-.38-.02-1.36-.01-2.75,0-4.09.01-1.33.02-2.71,0-4.06,0-.22.17-.39.38-.4.2-.01.39.17.4.38.02,1.36.01,2.74,0,4.08-.01,1.33-.02,2.71,0,4.07,0,.22-.17.39-.38.4h0Z"/>
                <path class="cls-3" d="m65.72,71.23c-.21,0-.39-.17-.39-.39l-.04-4.04c0-.22.17-.39.39-.39h0c.21,0,.39.17.39.39l.04,4.04c0,.22-.17.39-.39.39h0Z"/>
                <path class="cls-3" d="m67.67,58.67c-.21,0-.39-.17-.39-.39l-.04-4.04c0-.22.17-.39.39-.39h0c.21,0,.39.17.39.39l.04,4.04c0,.22-.17.39-.39.39h0Z"/>
                <path class="cls-3" d="m61.79,69.72c-.21,0-.39-.17-.39-.39l-.04-4.04c0-.22.17-.39.39-.39h0c.21,0,.39.17.39.39l.04,4.04c0,.22-.17.39-.39.39h0Z"/>
                <path class="cls-3" d="m73.87,71.14c-.21,0-.38-.17-.39-.38l-.09-3.84c0-.22.17-.39.38-.4.2,0,.39.16.4.38l.09,3.84c0,.22-.17.39-.38.4h0Z"/>
                <path class="cls-3" d="m15.15,70.95c-.21,0-.39-.17-.39-.38-.02-1.36-.01-2.74,0-4.08.01-1.33.02-2.71,0-4.07,0-.22.17-.39.38-.4.22,0,.39.17.4.38.02,1.36.01,2.75,0,4.09-.01,1.33-.02,2.71,0,4.06,0,.22-.17.39-.38.4h0Z"/>
                <path class="cls-3" d="m16.49,65.33c-.21,0-.39-.17-.39-.39l-.04-4.04c0-.22.17-.39.39-.39.21.01.39.17.39.39l.04,4.04c0,.22-.17.39-.39.39h0Z"/>
                <path class="cls-3" d="m25.87,64.38c-.21,0-.39-.17-.39-.38-.02-1.36-.01-2.75,0-4.09.01-1.33.02-2.71,0-4.06,0-.22.17-.39.38-.4.21,0,.39.17.4.38.02,1.36.01,2.74,0,4.08-.01,1.33-.02,2.71,0,4.07,0,.22-.17.39-.38.4h0Z"/>
                <path class="cls-3" d="m33.01,71.35c-.21,0-.39-.17-.39-.38-.02-1.36-.01-2.75,0-4.09.01-1.33.02-2.71,0-4.06,0-.22.17-.39.38-.4.21,0,.39.17.4.38.02,1.36.01,2.74,0,4.08-.01,1.33-.02,2.71,0,4.07,0,.22-.17.39-.38.4h0Z"/>
                <path class="cls-3" d="m27.21,58.77c-.21,0-.39-.17-.39-.39l-.04-4.04c0-.22.17-.39.39-.39.22-.02.39.17.39.39l.04,4.04c0,.21-.17.39-.39.39h0Z"/>
                <path class="cls-3" d="m25.26,71.32c-.21,0-.39-.17-.39-.39l-.04-4.04c0-.22.17-.39.39-.39h0c.21,0,.39.17.39.39l.04,4.04c0,.22-.17.39-.39.39h0Z"/>
                <path class="cls-3" d="m31.14,60.27c-.21,0-.39-.17-.39-.39l-.04-4,.39-.04h.39s.04,4.04.04,4.04c0,.22-.17.39-.39.39h0Z"/>
                <path class="cls-3" d="m18.93,52.67c-.21,0-.38-.17-.39-.38l-.09-3.84c0-.22.17-.39.38-.4.22,0,.39.17.4.38l.09,3.84c0,.21-.17.39-.38.4h0Z"/>
                <path class="cls-3" d="m46.41,71.09c-.21,0-.39-.17-.39-.39v-11.88c0-.22.17-.39.39-.39s.39.17.39.39v11.88c0,.21-.17.39-.39.39Z"/>
                <path class="cls-3" d="m52.2,58.56c-.22,0-.39-.17-.39-.39V21.67c0-.22.17-.39.39-.39s.39.17.39.39v36.49c0,.21-.17.39-.39.39Z"/>
                <path class="cls-3" d="m40.52,17.69c-.09,0-.18-.03-.25-.09-.17-.14-.19-.38-.05-.55l4.93-5.98c.14-.17.38-.19.55-.05.17.14.19.38.05.55l-4.93,5.98c-.08.09-.19.14-.3.14Z"/>
                <path class="cls-3" d="m44.63,15.51c-.08,0-.15-.02-.22-.07-.18-.12-.22-.37-.1-.54l1.15-1.65c.12-.18.37-.22.54-.1.18.12.22.37.1.54l-1.15,1.65c-.08.11-.2.17-.32.17Z"/>
              </g>
            </g>
          </g>
        </g>
        <g>
          <g>
            <polygon class="cls-7" points="91.82 52.14 85.07 63.65 85.06 66.59 91.82 52.14"/>
            <path class="cls-10" d="m84.05,37.58c-.2,10.41-17.34,10.4-17.54,0,.2-10.41,17.34-10.4,17.54,0Z"/>
            <path class="cls-10" d="m89.25,33.62c-.12,6.36-10.6,6.36-10.72,0,.12-6.36,10.6-6.36,10.72,0Z"/>
            <path class="cls-10" d="m101.91,45.2c-.35,18.5-30.83,18.5-31.18,0,.35-18.5,30.83-18.5,31.18,0Z"/>
            <path class="cls-11" d="m100.27,38.91c1.06,12.5-15.58,21.03-26.93,14.07,10.74,14.38,35.41,1.65,26.93-14.07Z"/>
            <polygon class="cls-7" points="84.57 47.63 87.07 81.5 83.32 81.5 84.57 47.4 84.57 47.63"/>
            <polygon class="cls-7" points="74.31 45.14 84.82 65.69 85.07 62.3 74.31 45.14"/>
            <polygon class="cls-7" points="70.56 48.53 79.81 54.63 79.03 52.82 70.56 48.53"/>
            <g class="cls-2">
              <polygon class="cls-8" points="91.57 68.85 94.82 60.05 94.42 53.01 92.57 50.79 84.93 64.71 84.82 83.53 95.32 79.92 91.57 68.85"/>
              <polygon class="cls-8" points="85.79 62 86.82 49.88 84.57 47.4 84.99 63.38 85.67 62.61 85.79 62"/>
              <polygon class="cls-8" points="74.31 45.14 83.96 61.69 83.82 59.14 74.31 45.14"/>
            </g>
            <g>
              <path class="cls-10" d="m76.9,46.37c-.18,9.25-15.42,9.25-15.59,0,.18-9.25,15.42-9.25,15.59,0Z"/>
              <path class="cls-11" d="m75.62,42.5c1.85,7.5-8.78,11.55-13.98,5.89,3.78,10.04,20.08,3.23,13.98-5.89Z"/>
            </g>
            <g>
              <path class="cls-10" d="m95.42,42.27c-.23,11.95-19.91,11.95-20.14,0,.23-11.95,19.91-11.95,20.14,0Z"/>
              <path class="cls-11" d="m93.75,37.27c2.26,9.78-11.16,14.91-18.05,7.6,4.88,12.97,25.94,4.18,18.05-7.6Z"/>
            </g>
          </g>
          <g>
            <path class="cls-14" d="m81.04,82.3s-.18-2.31-1.51-3.37c0,0,1.89,1.4,2.02,1.69,0,0-.29-2.21-.82-2.8,0,0,1.19.96,1.43,1.47,0,0-.37-1.6-.73-2.12,0,0,1.08,1.34,1.24,2.29,0,0,.19-2.55-.18-3.53,0,0,.97,2.76.99,4.01,0,0,.04-2.38.81-3.27,0,0-.16,2.31-.03,3.14,0,0,.37-1.22.35-1.98,0,0,.47,1.55.34,2.31,0,0,.66-1.4.38-3.3,0,0,.57,1.48.53,2.72,0,0,.46-1.09,1.08-1.71,0,0-.83,2.03-.85,2.68,0,0,.34-.8.96-1.16,0,0-.81,1.36-.98,1.95,0,0,.69-.83,1.79-1.16,0,0-1.23,1.39-1.25,2.14h-5.57Z"/>
            <path class="cls-14" d="m85.2,82.3s-.12-1.61-1.06-2.36c0,0,1.32.98,1.42,1.18,0,0-.2-1.54-.57-1.96,0,0,.84.67,1,1.03,0,0-.26-1.12-.51-1.48,0,0,.76.94.87,1.6,0,0,.14-1.79-.12-2.47,0,0,.68,1.93.69,2.8,0,0,.03-1.66.57-2.29,0,0-.11,1.61-.02,2.2,0,0,.26-.85.25-1.39,0,0,.33,1.09.24,1.62,0,0,.46-.98.26-2.31,0,0,.4,1.04.37,1.91,0,0,.32-.76.76-1.2,0,0-.58,1.42-.59,1.87,0,0,.24-.56.67-.81,0,0-.57.95-.69,1.36,0,0,.48-.58,1.26-.81,0,0-.86.97-.87,1.5h-3.9Z"/>
          </g>
        </g>
      </g>
    </g>
  </g>
</svg>