<?xml version="1.0" encoding="UTF-8"?>
<svg xmlns="http://www.w3.org/2000/svg" xmlns:xlink="http://www.w3.org/1999/xlink" viewBox="0 0 392.08 205.61">
  <defs>
    <style>
      .cls-1 {
        fill: #fff;
        mix-blend-mode: soft-light;
      }

      .cls-1, .cls-2, .cls-3, .cls-4, .cls-5, .cls-6, .cls-7, .cls-8, .cls-9, .cls-10, .cls-11, .cls-12 {
        stroke-width: 0px;
      }

      .cls-2 {
        fill: url(#linear-gradient);
      }

      .cls-3 {
        fill: url(#_Áåçûìÿííûé_ãðàäèåíò_181);
      }

      .cls-4 {
        fill: url(#_Áåçûìÿííûé_ãðàäèåíò_180);
      }

      .cls-4, .cls-9, .cls-11 {
        mix-blend-mode: color-dodge;
      }

      .cls-4, .cls-11 {
        opacity: .74;
      }

      .cls-5 {
        opacity: .2;
      }

      .cls-5, .cls-8 {
        fill: #bc8ea8;
        mix-blend-mode: multiply;
      }

      .cls-6 {
        fill: url(#_Áåçûìÿííûé_ãðàäèåíò_70);
        opacity: .8;
      }

      .cls-13 {
        isolation: isolate;
      }

      .cls-7 {
        fill: none;
      }

      .cls-14 {
        clip-path: url(#clippath);
      }

      .cls-8 {
        opacity: .56;
      }

      .cls-9 {
        fill: url(#_Áåçûìÿííûé_ãðàäèåíò_96);
      }

      .cls-10 {
        fill: url(#_Áåçûìÿííûé_ãðàäèåíò_30);
      }

      .cls-11 {
        fill: url(#_Áåçûìÿííûé_ãðàäèåíò_180-2);
      }

      .cls-12 {
        fill: url(#_Áåçûìÿííûé_ãðàäèåíò_30-2);
      }
    </style>
    <clipPath id="clippath">
      <rect class="cls-7" width="392.08" height="843.86"/>
    </clipPath>
    <linearGradient id="_Áåçûìÿííûé_ãðàäèåíò_181" data-name="Áåçûìÿííûé ãðàäèåíò 181" x1="-1310.17" y1="103.11" x2="-1310.17" y2="-132.55" gradientTransform="translate(-863.37) rotate(-180) scale(1 -1)" gradientUnits="userSpaceOnUse">
      <stop offset="0" stop-color="#703327"/>
      <stop offset="1" stop-color="#5a1e1c"/>
    </linearGradient>
    <linearGradient id="linear-gradient" x1="-2065.59" y1="-104.11" x2="-769.99" y2="-30.06" gradientTransform="translate(-805.91 2.72) rotate(-176.73) scale(1 -1)" gradientUnits="userSpaceOnUse">
      <stop offset="0" stop-color="#f0f1dd"/>
      <stop offset="1" stop-color="#866a39"/>
    </linearGradient>
    <linearGradient id="_Áåçûìÿííûé_ãðàäèåíò_180" data-name="Áåçûìÿííûé ãðàäèåíò 180" x1="-1638.93" y1="28.87" x2="-1247.75" y2="28.87" gradientTransform="translate(-863.37) rotate(-180) scale(1 -1)" gradientUnits="userSpaceOnUse">
      <stop offset="0" stop-color="#000"/>
      <stop offset="1" stop-color="#725e27"/>
    </linearGradient>
    <linearGradient id="_Áåçûìÿííûé_ãðàäèåíò_180-2" data-name="Áåçûìÿííûé ãðàäèåíò 180" x1="-1185.47" y1="40.01" x2="-831.75" y2="40.01" xlink:href="#_Áåçûìÿííûé_ãðàäèåíò_180"/>
    <linearGradient id="_Áåçûìÿííûé_ãðàäèåíò_30" data-name="Áåçûìÿííûé ãðàäèåíò 30" x1="-1219.94" y1="-16.62" x2="-1722.4" y2="-16.62" gradientTransform="translate(-863.37) rotate(-180) scale(1 -1)" gradientUnits="userSpaceOnUse">
      <stop offset="0" stop-color="#f0dc9c"/>
      <stop offset=".54" stop-color="#d66d3a"/>
      <stop offset=".98" stop-color="#efc257"/>
    </linearGradient>
    <linearGradient id="_Áåçûìÿííûé_ãðàäèåíò_30-2" data-name="Áåçûìÿííûé ãðàäèåíò 30" x1="-858.92" y1="16.99" x2="-1195.99" y2="16.99" xlink:href="#_Áåçûìÿííûé_ãðàäèåíò_30"/>
    <linearGradient id="_Áåçûìÿííûé_ãðàäèåíò_70" data-name="Áåçûìÿííûé ãðàäèåíò 70" x1="-1297.01" y1="199.43" x2="-1297.01" y2="-161.23" gradientTransform="translate(-919.31) rotate(-180) scale(1 -1)" gradientUnits="userSpaceOnUse">
      <stop offset="0" stop-color="#fcf6bf"/>
      <stop offset="1" stop-color="#e3ab84"/>
    </linearGradient>
    <linearGradient id="_Áåçûìÿííûé_ãðàäèåíò_96" data-name="Áåçûìÿííûé ãðàäèåíò 96" x1="-1560.24" y1="19.18" x2="-1033.79" y2="19.18" gradientTransform="translate(-919.31) rotate(-180) scale(1 -1)" gradientUnits="userSpaceOnUse">
      <stop offset="0" stop-color="#000"/>
      <stop offset="1" stop-color="#61685f"/>
    </linearGradient>
  </defs>
  <g class="cls-13">
    <g id="OBJECTS">
      <g class="cls-14">
        <g>
          <g>
            <path class="cls-3" d="M345.74-127.2s65.32,181.46,202.11,230.3l-191.28-235.66-10.84,5.36Z"/>
            <path class="cls-2" d="M-35.43-164.71L-7.44,208.57S271.96,103,339.68-154.24c0,0,15.46,43.85,44.52,96.85,0,0,.06.09.19.3,46.99,81.3,129.85,179.5,237.55,171.46,65.23-5,115.94-40.46,153.63-81.88.3-.3.45-.44.45-.44,62.89-67.12,89.11-152.85,89.11-152.85,0,0,17.66,44.62,51.31,90.83,38.78,50.41,98.87,100.37,176.05,94.2,82.57-6.77,126.5-64.43,148.67-111.51.17-.3.29-.54.36-.74,16.36-34.53,20.8-64.3,20.8-64.3l-34.21-5.26s-30.84,68.79-134.3,70.88c-103.4,1.81-209.94-91.72-209.94-91.72l-43.49-3.71s-102.32,104.8-212.33,105.93c-109.93.82-260.29-134.12-260.29-134.12l-45.66-4.87-357.54,10.49Z"/>
            <path class="cls-8" d="M371.58-148.78S474.14-28.17,597.89-7.14c0,0-95.94-9.05-177.79-78.95,0,0,89.55,152.32,199.26,162.74,110.14,8.52,179.75-109.69,179.75-109.69,0,0-47.12,112.33-175.27,120.76-128.06,8.02-267.26-220.27-267.26-220.27l15-16.23Z"/>
            <path class="cls-8" d="M329.81-143.34S179.21,45.96,31.77,123.82c0,0,88.51-56.37,132.98-124.79,0,0-68.31,39.62-132.98,63.64,0,0,234.45-143.5,296.05-214.19l1.99,8.17Z"/>
            <path class="cls-4" d="M384.38-57.1c46.99,81.3,129.85,179.5,237.55,171.46,65.23-5,115.94-40.46,153.63-81.88-6.09,6.01-75.75,74.72-163.08,76.08-107.39.84-222.82-157.81-228.09-165.66Z"/>
            <path class="cls-11" d="M322.1-125.36S243.63,89.24-31.62,205.39l3.74-43.42S237.41,37.01,322.1-125.36Z"/>
            <path class="cls-10" d="M856.8-114.46s-85.17,213.28-241.64,208.77c-156.47-4.51-253.49-230.66-253.49-230.66l-5.09,3.79s80.68,224.54,248.98,235.29c168.3,10.75,253.47-213.82,253.47-213.82l-2.23-3.37Z"/>
            <path class="cls-12" d="M-2.4,148.55C219.11,44.49,330.89-139.01,330.89-139.01l1.73,2.67C213.85,89.36-4.45,172.99-4.45,172.99l2.05-24.43Z"/>
          </g>
          <g>
            <path class="cls-6" d="M640.93-152.81s-59.32,350.01-239.69,352.23c-196.05,2.41-286.77-360.65-286.77-360.65l8.01,1.6s131.9,93.72,282.38,93.72,223.31-86.9,223.31-86.9h12.75Z"/>
            <path class="cls-1" d="M140.63-111.87s108.37,268.68,217.4,287.52c109.03,18.85,196.44-112.85,196.44-112.85,0,0-90.18,113.52-181.16,105.9C282.34,161.08,205.2-2.15,205.2-2.15c0,0,9.06-3.3,17,4.47,29.52,28.92,85.15,105.41,165.45,105.41S546.36,14.95,546.36,14.95c0,0-80.45,87.23-158.71,86.39-128.86-1.38-207.88-191.49-207.88-191.49l30.82,68.04-9,3.98-60.96-93.75Z"/>
            <path class="cls-1" d="M604.44-102.28S467.36,6.08,394.22.58c-73.14-5.5-174.95-87.4-174.95-87.4,0,0,108.73,76.4,185.83,76.4,70.55,0,199.34-91.85,199.34-91.85Z"/>
            <path class="cls-9" d="M122.49-159.63S207.04,186.59,391.33,194.31c184.29,7.71,249.6-347.11,249.6-347.11,0,0-48.32,342.97-239.69,352.23C209.88,208.68,114.48-161.23,114.48-161.23l8.01,1.6Z"/>
            <path class="cls-5" d="M539.19-43.29s-73.02,60.28-127.34,82.14c-39.19,15.77-111.6-13.76-111.6-13.76,0,0,37.55,43.42,83.45,46.43,45.9,3.01,163.94-76.76,163.94-76.76,0,0-96.22,80.26-163.94,84.07-67.72,3.81-226.02-196.07-226.02-196.07,0,0,133.39,134.53,211.96,150.68,51.97,10.68,169.54-76.74,169.54-76.74Z"/>
            <path class="cls-5" d="M540.54,50.81s-89.13,84.71-153.58,84.71S254.35,58.83,254.35,58.83c0,0,76.08,91.23,132.6,86.69,64.9-5.21,153.58-94.72,153.58-94.72Z"/>
          </g>
        </g>
      </g>
    </g>
  </g>
</svg>