<?xml version="1.0" encoding="UTF-8"?>
<svg id="OBJECTS" xmlns="http://www.w3.org/2000/svg" xmlns:xlink="http://www.w3.org/1999/xlink" viewBox="0 0 3120.16 142.49">
  <defs>
    <style>
      .cls-1 {
        fill: url(#linear-gradient-38);
      }

      .cls-1, .cls-2, .cls-3, .cls-4, .cls-5, .cls-6, .cls-7, .cls-8, .cls-9, .cls-10, .cls-11, .cls-12, .cls-13, .cls-14, .cls-15, .cls-16, .cls-17, .cls-18, .cls-19, .cls-20, .cls-21, .cls-22, .cls-23, .cls-24, .cls-25, .cls-26, .cls-27, .cls-28, .cls-29, .cls-30, .cls-31, .cls-32, .cls-33, .cls-34, .cls-35, .cls-36, .cls-37, .cls-38, .cls-39, .cls-40, .cls-41, .cls-42, .cls-43, .cls-44, .cls-45, .cls-46, .cls-47, .cls-48, .cls-49, .cls-50, .cls-51, .cls-52, .cls-53, .cls-54, .cls-55, .cls-56, .cls-57, .cls-58, .cls-59, .cls-60, .cls-61, .cls-62, .cls-63, .cls-64, .cls-65, .cls-66, .cls-67, .cls-68, .cls-69, .cls-70, .cls-71, .cls-72, .cls-73, .cls-74, .cls-75, .cls-76, .cls-77, .cls-78, .cls-79, .cls-80, .cls-81, .cls-82, .cls-83, .cls-84, .cls-85, .cls-86, .cls-87, .cls-88, .cls-89, .cls-90, .cls-91, .cls-92, .cls-93, .cls-94, .cls-95, .cls-96, .cls-97, .cls-98, .cls-99, .cls-100, .cls-101, .cls-102, .cls-103, .cls-104, .cls-105, .cls-106, .cls-107, .cls-108, .cls-109, .cls-110, .cls-111, .cls-112, .cls-113, .cls-114, .cls-115, .cls-116, .cls-117, .cls-118, .cls-119, .cls-120, .cls-121, .cls-122, .cls-123, .cls-124, .cls-125, .cls-126, .cls-127, .cls-128, .cls-129, .cls-130, .cls-131, .cls-132, .cls-133, .cls-134, .cls-135, .cls-136, .cls-137, .cls-138, .cls-139, .cls-140, .cls-141, .cls-142, .cls-143, .cls-144, .cls-145, .cls-146, .cls-147, .cls-148, .cls-149, .cls-150, .cls-151, .cls-152, .cls-153, .cls-154, .cls-155, .cls-156, .cls-157, .cls-158, .cls-159, .cls-160, .cls-161, .cls-162, .cls-163, .cls-164, .cls-165, .cls-166, .cls-167, .cls-168, .cls-169, .cls-170, .cls-171, .cls-172, .cls-173, .cls-174, .cls-175, .cls-176, .cls-177, .cls-178, .cls-179, .cls-180, .cls-181, .cls-182, .cls-183, .cls-184, .cls-185, .cls-186, .cls-187, .cls-188, .cls-189, .cls-190, .cls-191, .cls-192, .cls-193, .cls-194, .cls-195, .cls-196, .cls-197, .cls-198, .cls-199 {
        stroke-width: 0px;
      }

      .cls-2 {
        fill: url(#linear-gradient-12);
      }

      .cls-3 {
        fill: url(#linear-gradient-127);
      }

      .cls-4 {
        fill: url(#linear-gradient-159);
      }

      .cls-5 {
        fill: url(#linear-gradient-17);
      }

      .cls-6 {
        fill: url(#linear-gradient-132);
      }

      .cls-7 {
        fill: url(#linear-gradient-88);
      }

      .cls-8 {
        fill: url(#linear-gradient-19);
      }

      .cls-9 {
        fill: url(#linear-gradient-33);
      }

      .cls-10 {
        fill: url(#linear-gradient);
      }

      .cls-11 {
        fill: url(#linear-gradient-175);
      }

      .cls-12 {
        fill: url(#linear-gradient-62);
      }

      .cls-13 {
        fill: url(#linear-gradient-137);
      }

      .cls-14 {
        fill: url(#linear-gradient-92);
      }

      .cls-15 {
        fill: url(#linear-gradient-98);
      }

      .cls-16 {
        fill: url(#linear-gradient-139);
      }

      .cls-17 {
        fill: url(#linear-gradient-67);
      }

      .cls-18 {
        fill: url(#linear-gradient-167);
      }

      .cls-19 {
        fill: url(#linear-gradient-153);
      }

      .cls-20 {
        fill: url(#linear-gradient-57);
      }

      .cls-21 {
        fill: url(#linear-gradient-138);
      }

      .cls-22 {
        fill: url(#linear-gradient-191);
      }

      .cls-23 {
        fill: url(#linear-gradient-149);
      }

      .cls-24 {
        fill: url(#linear-gradient-21);
      }

      .cls-25 {
        fill: url(#linear-gradient-6);
      }

      .cls-26 {
        fill: url(#linear-gradient-157);
      }

      .cls-27 {
        fill: url(#linear-gradient-190);
      }

      .cls-28 {
        fill: url(#linear-gradient-196);
      }

      .cls-29 {
        fill: url(#linear-gradient-76);
      }

      .cls-30 {
        fill: url(#linear-gradient-181);
      }

      .cls-31 {
        fill: url(#linear-gradient-197);
      }

      .cls-32 {
        fill: url(#linear-gradient-124);
      }

      .cls-33 {
        fill: url(#linear-gradient-160);
      }

      .cls-34 {
        fill: url(#linear-gradient-184);
      }

      .cls-35 {
        fill: url(#linear-gradient-136);
      }

      .cls-36 {
        fill: url(#linear-gradient-42);
      }

      .cls-37 {
        fill: url(#linear-gradient-104);
      }

      .cls-38 {
        fill: url(#linear-gradient-95);
      }

      .cls-39 {
        fill: url(#linear-gradient-15);
      }

      .cls-40 {
        fill: url(#linear-gradient-11);
      }

      .cls-41 {
        fill: url(#linear-gradient-106);
      }

      .cls-42 {
        fill: url(#linear-gradient-101);
      }

      .cls-43 {
        fill: url(#linear-gradient-81);
      }

      .cls-44 {
        fill: url(#linear-gradient-73);
      }

      .cls-45 {
        fill: url(#linear-gradient-91);
      }

      .cls-46 {
        fill: url(#linear-gradient-188);
      }

      .cls-47 {
        fill: url(#linear-gradient-151);
      }

      .cls-48 {
        fill: url(#linear-gradient-5);
      }

      .cls-49 {
        fill: url(#linear-gradient-187);
      }

      .cls-50 {
        fill: url(#linear-gradient-164);
      }

      .cls-51 {
        fill: url(#linear-gradient-133);
      }

      .cls-52 {
        fill: url(#linear-gradient-179);
      }

      .cls-53 {
        fill: none;
      }

      .cls-54 {
        fill: url(#linear-gradient-31);
      }

      .cls-55 {
        fill: url(#linear-gradient-103);
      }

      .cls-56 {
        fill: url(#linear-gradient-71);
      }

      .cls-57 {
        fill: url(#linear-gradient-58);
      }

      .cls-58 {
        fill: url(#linear-gradient-63);
      }

      .cls-59 {
        fill: url(#linear-gradient-154);
      }

      .cls-60 {
        fill: url(#linear-gradient-34);
      }

      .cls-61 {
        fill: url(#linear-gradient-122);
      }

      .cls-62 {
        fill: url(#linear-gradient-96);
      }

      .cls-63 {
        fill: url(#linear-gradient-170);
      }

      .cls-64 {
        fill: url(#linear-gradient-165);
      }

      .cls-65 {
        fill: url(#linear-gradient-130);
      }

      .cls-66 {
        fill: url(#linear-gradient-120);
      }

      .cls-67 {
        fill: url(#linear-gradient-41);
      }

      .cls-68 {
        fill: url(#linear-gradient-89);
      }

      .cls-69 {
        fill: url(#linear-gradient-40);
      }

      .cls-70 {
        fill: #774639;
      }

      .cls-71 {
        fill: url(#linear-gradient-147);
      }

      .cls-72 {
        fill: url(#linear-gradient-66);
      }

      .cls-73 {
        fill: url(#linear-gradient-126);
      }

      .cls-74 {
        fill: url(#linear-gradient-13);
      }

      .cls-75 {
        fill: url(#linear-gradient-23);
      }

      .cls-76 {
        fill: url(#linear-gradient-25);
      }

      .cls-77 {
        fill: url(#linear-gradient-43);
      }

      .cls-78 {
        fill: url(#linear-gradient-16);
      }

      .cls-79 {
        fill: url(#linear-gradient-22);
      }

      .cls-80 {
        fill: url(#linear-gradient-54);
      }

      .cls-81 {
        fill: url(#linear-gradient-55);
      }

      .cls-82 {
        fill: url(#linear-gradient-110);
      }

      .cls-83 {
        fill: url(#linear-gradient-141);
      }

      .cls-84 {
        fill: url(#linear-gradient-35);
      }

      .cls-85 {
        fill: url(#linear-gradient-50);
      }

      .cls-86 {
        fill: url(#linear-gradient-32);
      }

      .cls-87 {
        fill: url(#linear-gradient-60);
      }

      .cls-88 {
        fill: url(#linear-gradient-59);
      }

      .cls-89 {
        fill: url(#linear-gradient-20);
      }

      .cls-90 {
        fill: url(#linear-gradient-14);
      }

      .cls-91 {
        fill: url(#linear-gradient-185);
      }

      .cls-92 {
        fill: url(#linear-gradient-2);
      }

      .cls-93 {
        fill: url(#linear-gradient-156);
      }

      .cls-94 {
        fill: url(#linear-gradient-146);
      }

      .cls-95 {
        fill: url(#linear-gradient-52);
      }

      .cls-96 {
        fill: url(#linear-gradient-45);
      }

      .cls-97 {
        fill: url(#linear-gradient-194);
      }

      .cls-98 {
        fill: url(#linear-gradient-93);
      }

      .cls-99 {
        fill: url(#linear-gradient-172);
      }

      .cls-100 {
        fill: url(#linear-gradient-163);
      }

      .cls-101 {
        fill: url(#linear-gradient-7);
      }

      .cls-102 {
        fill: url(#linear-gradient-39);
      }

      .cls-103 {
        fill: url(#linear-gradient-3);
      }

      .cls-104 {
        fill: url(#linear-gradient-148);
      }

      .cls-105 {
        fill: url(#linear-gradient-77);
      }

      .cls-106 {
        fill: url(#linear-gradient-119);
      }

      .cls-107 {
        fill: url(#linear-gradient-69);
      }

      .cls-200 {
        clip-path: url(#clippath);
      }

      .cls-108 {
        fill: url(#linear-gradient-143);
      }

      .cls-109 {
        fill: url(#linear-gradient-125);
      }

      .cls-110 {
        fill: url(#linear-gradient-94);
      }

      .cls-111 {
        fill: url(#linear-gradient-9);
      }

      .cls-112 {
        fill: url(#linear-gradient-27);
      }

      .cls-113 {
        fill: url(#linear-gradient-134);
      }

      .cls-114 {
        fill: url(#linear-gradient-152);
      }

      .cls-115 {
        fill: url(#linear-gradient-100);
      }

      .cls-116 {
        fill: url(#linear-gradient-162);
      }

      .cls-117 {
        fill: url(#linear-gradient-131);
      }

      .cls-118 {
        fill: url(#linear-gradient-183);
      }

      .cls-119 {
        fill: url(#linear-gradient-82);
      }

      .cls-120 {
        fill: url(#linear-gradient-105);
      }

      .cls-121 {
        fill: url(#linear-gradient-83);
      }

      .cls-122 {
        fill: url(#linear-gradient-142);
      }

      .cls-123 {
        fill: url(#linear-gradient-155);
      }

      .cls-124 {
        fill: url(#linear-gradient-53);
      }

      .cls-125 {
        fill: url(#linear-gradient-90);
      }

      .cls-126 {
        fill: url(#linear-gradient-178);
      }

      .cls-127 {
        fill: url(#linear-gradient-117);
      }

      .cls-128 {
        fill: url(#linear-gradient-85);
      }

      .cls-129 {
        fill: url(#linear-gradient-65);
      }

      .cls-130 {
        fill: url(#linear-gradient-36);
      }

      .cls-131 {
        fill: url(#linear-gradient-180);
      }

      .cls-132 {
        fill: url(#linear-gradient-48);
      }

      .cls-133 {
        fill: url(#linear-gradient-195);
      }

      .cls-134 {
        fill: url(#linear-gradient-49);
      }

      .cls-135 {
        fill: url(#linear-gradient-161);
      }

      .cls-136 {
        fill: url(#linear-gradient-8);
      }

      .cls-137 {
        fill: url(#linear-gradient-47);
      }

      .cls-138 {
        fill: url(#linear-gradient-173);
      }

      .cls-139 {
        fill: url(#linear-gradient-24);
      }

      .cls-140 {
        fill: url(#linear-gradient-26);
      }

      .cls-141 {
        fill: url(#linear-gradient-61);
      }

      .cls-142 {
        fill: url(#linear-gradient-114);
      }

      .cls-143 {
        fill: url(#linear-gradient-18);
      }

      .cls-144 {
        fill: url(#linear-gradient-51);
      }

      .cls-145 {
        fill: url(#linear-gradient-30);
      }

      .cls-146 {
        fill: url(#linear-gradient-121);
      }

      .cls-147 {
        fill: url(#linear-gradient-44);
      }

      .cls-148 {
        fill: url(#linear-gradient-193);
      }

      .cls-149 {
        fill: url(#linear-gradient-84);
      }

      .cls-150 {
        fill: url(#linear-gradient-97);
      }

      .cls-151 {
        fill: url(#linear-gradient-68);
      }

      .cls-152 {
        fill: url(#linear-gradient-129);
      }

      .cls-153 {
        fill: url(#linear-gradient-72);
      }

      .cls-154 {
        fill: url(#linear-gradient-29);
      }

      .cls-155 {
        fill: url(#linear-gradient-46);
      }

      .cls-156 {
        fill: url(#linear-gradient-140);
      }

      .cls-157 {
        fill: url(#linear-gradient-168);
      }

      .cls-158 {
        fill: url(#linear-gradient-171);
      }

      .cls-159 {
        fill: url(#linear-gradient-64);
      }

      .cls-160 {
        fill: url(#linear-gradient-107);
      }

      .cls-161 {
        fill: url(#linear-gradient-192);
      }

      .cls-162 {
        fill: url(#linear-gradient-109);
      }

      .cls-163 {
        fill: url(#linear-gradient-145);
      }

      .cls-164 {
        fill: url(#linear-gradient-113);
      }

      .cls-165 {
        fill: url(#linear-gradient-182);
      }

      .cls-166 {
        fill: url(#linear-gradient-28);
      }

      .cls-167 {
        fill: url(#linear-gradient-56);
      }

      .cls-168 {
        fill: url(#linear-gradient-99);
      }

      .cls-169 {
        fill: url(#linear-gradient-10);
      }

      .cls-170 {
        fill: url(#linear-gradient-150);
      }

      .cls-171 {
        fill: url(#linear-gradient-174);
      }

      .cls-172 {
        fill: url(#linear-gradient-87);
      }

      .cls-173 {
        fill: url(#linear-gradient-70);
      }

      .cls-174 {
        fill: url(#linear-gradient-78);
      }

      .cls-175 {
        fill: url(#linear-gradient-86);
      }

      .cls-176 {
        fill: url(#linear-gradient-74);
      }

      .cls-177 {
        fill: url(#linear-gradient-177);
      }

      .cls-178 {
        fill: url(#linear-gradient-169);
      }

      .cls-179 {
        fill: url(#linear-gradient-102);
      }

      .cls-180 {
        fill: url(#linear-gradient-4);
      }

      .cls-181 {
        fill: url(#linear-gradient-118);
      }

      .cls-182 {
        fill: url(#linear-gradient-112);
      }

      .cls-183 {
        fill: url(#linear-gradient-123);
      }

      .cls-184 {
        fill: url(#linear-gradient-176);
      }

      .cls-185 {
        fill: url(#linear-gradient-128);
      }

      .cls-186 {
        fill: url(#linear-gradient-37);
      }

      .cls-187 {
        fill: url(#linear-gradient-166);
      }

      .cls-188 {
        fill: url(#linear-gradient-186);
      }

      .cls-189 {
        fill: url(#linear-gradient-80);
      }

      .cls-190 {
        fill: url(#linear-gradient-115);
      }

      .cls-191 {
        fill: url(#linear-gradient-135);
      }

      .cls-192 {
        fill: url(#linear-gradient-189);
      }

      .cls-193 {
        fill: url(#linear-gradient-158);
      }

      .cls-194 {
        fill: url(#linear-gradient-116);
      }

      .cls-195 {
        fill: url(#linear-gradient-79);
      }

      .cls-196 {
        fill: url(#linear-gradient-111);
      }

      .cls-197 {
        fill: url(#linear-gradient-108);
      }

      .cls-198 {
        fill: url(#linear-gradient-144);
      }

      .cls-199 {
        fill: url(#linear-gradient-75);
      }
    </style>
    <linearGradient id="linear-gradient" x1="441.83" y1="9.93" x2="441.83" y2="13.54" gradientUnits="userSpaceOnUse">
      <stop offset="0" stop-color="#fff"/>
      <stop offset=".15" stop-color="#d4d4d4"/>
      <stop offset=".32" stop-color="#adadad"/>
      <stop offset=".48" stop-color="#8e8e8e"/>
      <stop offset=".64" stop-color="#777"/>
      <stop offset=".8" stop-color="#6a6a6a"/>
      <stop offset=".93" stop-color="#666"/>
      <stop offset=".93" stop-color="#000"/>
    </linearGradient>
    <linearGradient id="linear-gradient-2" x1="621.45" y1="10.29" x2="621.45" y2="15.1" gradientUnits="userSpaceOnUse">
      <stop offset="0" stop-color="#fff"/>
      <stop offset=".12" stop-color="#eee7dd"/>
      <stop offset=".29" stop-color="#dbcbb6"/>
      <stop offset=".46" stop-color="#ccb697"/>
      <stop offset=".63" stop-color="#c1a680"/>
      <stop offset=".78" stop-color="#bb9d73"/>
      <stop offset=".92" stop-color="#b99a6f"/>
      <stop offset="1" stop-color="#6b4d2b"/>
    </linearGradient>
    <linearGradient id="linear-gradient-3" x1="602.27" x2="602.27" xlink:href="#linear-gradient-2"/>
    <linearGradient id="linear-gradient-4" x1="582.36" x2="582.36" xlink:href="#linear-gradient-2"/>
    <linearGradient id="linear-gradient-5" x1="562.94" x2="562.94" xlink:href="#linear-gradient-2"/>
    <linearGradient id="linear-gradient-6" x1="543.27" x2="543.27" xlink:href="#linear-gradient-2"/>
    <linearGradient id="linear-gradient-7" x1="524.09" x2="524.09" xlink:href="#linear-gradient-2"/>
    <linearGradient id="linear-gradient-8" x1="503.94" x2="503.94" xlink:href="#linear-gradient-2"/>
    <linearGradient id="linear-gradient-9" x1="485" x2="485" xlink:href="#linear-gradient-2"/>
    <linearGradient id="linear-gradient-10" x1="465.33" x2="465.33" xlink:href="#linear-gradient-2"/>
    <linearGradient id="linear-gradient-11" x1="445.43" x2="445.43" xlink:href="#linear-gradient-2"/>
    <linearGradient id="linear-gradient-12" x1="426.24" x2="426.24" xlink:href="#linear-gradient-2"/>
    <linearGradient id="linear-gradient-13" x1="406.58" x2="406.58" xlink:href="#linear-gradient-2"/>
    <linearGradient id="linear-gradient-14" x1="387.15" x2="387.15" xlink:href="#linear-gradient-2"/>
    <linearGradient id="linear-gradient-15" x1="367.49" x2="367.49" xlink:href="#linear-gradient-2"/>
    <linearGradient id="linear-gradient-16" x1="347.58" x2="347.58" xlink:href="#linear-gradient-2"/>
    <linearGradient id="linear-gradient-17" x1="328.4" x2="328.4" xlink:href="#linear-gradient-2"/>
    <linearGradient id="linear-gradient-18" x1="308.73" x2="308.73" xlink:href="#linear-gradient-2"/>
    <linearGradient id="linear-gradient-19" x1="288.83" x2="288.83" xlink:href="#linear-gradient-2"/>
    <linearGradient id="linear-gradient-20" x1="269.64" x2="269.64" xlink:href="#linear-gradient-2"/>
    <linearGradient id="linear-gradient-21" x1="138.01" y1="10.98" x2="138.01" y2="14.15" xlink:href="#linear-gradient"/>
    <linearGradient id="linear-gradient-22" x1="295.68" y1="11.3" x2="295.68" y2="15.52" xlink:href="#linear-gradient-2"/>
    <linearGradient id="linear-gradient-23" x1="278.84" y1="11.3" x2="278.84" y2="15.52" xlink:href="#linear-gradient-2"/>
    <linearGradient id="linear-gradient-24" x1="261.37" y1="11.3" x2="261.37" y2="15.52" xlink:href="#linear-gradient-2"/>
    <linearGradient id="linear-gradient-25" x1="244.32" y1="11.3" x2="244.32" y2="15.52" xlink:href="#linear-gradient-2"/>
    <linearGradient id="linear-gradient-26" x1="227.05" y1="11.3" x2="227.05" y2="15.52" xlink:href="#linear-gradient-2"/>
    <linearGradient id="linear-gradient-27" x1="210.21" y1="11.3" x2="210.21" y2="15.52" xlink:href="#linear-gradient-2"/>
    <linearGradient id="linear-gradient-28" x1="192.53" y1="11.3" x2="192.53" y2="15.52" xlink:href="#linear-gradient-2"/>
    <linearGradient id="linear-gradient-29" x1="175.9" y1="11.3" x2="175.9" y2="15.52" xlink:href="#linear-gradient-2"/>
    <linearGradient id="linear-gradient-30" x1="158.64" y1="11.3" x2="158.64" y2="15.52" xlink:href="#linear-gradient-2"/>
    <linearGradient id="linear-gradient-31" x1="141.17" y1="11.3" x2="141.17" y2="15.52" xlink:href="#linear-gradient-2"/>
    <linearGradient id="linear-gradient-32" x1="124.33" y1="11.3" x2="124.33" y2="15.52" xlink:href="#linear-gradient-2"/>
    <linearGradient id="linear-gradient-33" x1="107.06" y1="11.3" x2="107.06" y2="15.52" xlink:href="#linear-gradient-2"/>
    <linearGradient id="linear-gradient-34" x1="90.01" y1="11.3" x2="90.01" y2="15.52" xlink:href="#linear-gradient-2"/>
    <linearGradient id="linear-gradient-35" x1="72.75" y1="11.3" x2="72.75" y2="15.52" xlink:href="#linear-gradient-2"/>
    <linearGradient id="linear-gradient-36" x1="55.28" y1="11.3" x2="55.28" y2="15.52" xlink:href="#linear-gradient-2"/>
    <linearGradient id="linear-gradient-37" x1="38.44" y1="11.3" x2="38.44" y2="15.52" xlink:href="#linear-gradient-2"/>
    <linearGradient id="linear-gradient-38" x1="21.18" y1="11.3" x2="21.18" y2="15.52" xlink:href="#linear-gradient-2"/>
    <linearGradient id="linear-gradient-39" x1="3.7" y1="11.3" x2="3.7" y2="15.52" xlink:href="#linear-gradient-2"/>
    <linearGradient id="linear-gradient-40" x1="791.67" y1="10.98" x2="791.67" y2="14.15" xlink:href="#linear-gradient"/>
    <linearGradient id="linear-gradient-41" x1="949.34" y1="11.3" x2="949.34" y2="15.52" xlink:href="#linear-gradient-2"/>
    <linearGradient id="linear-gradient-42" x1="932.5" y1="11.3" x2="932.5" y2="15.52" xlink:href="#linear-gradient-2"/>
    <linearGradient id="linear-gradient-43" x1="915.03" y1="11.3" x2="915.03" y2="15.52" xlink:href="#linear-gradient-2"/>
    <linearGradient id="linear-gradient-44" x1="897.98" y1="11.3" x2="897.98" y2="15.52" xlink:href="#linear-gradient-2"/>
    <linearGradient id="linear-gradient-45" x1="880.72" y1="11.3" x2="880.72" y2="15.52" xlink:href="#linear-gradient-2"/>
    <linearGradient id="linear-gradient-46" x1="863.87" y1="11.3" x2="863.87" y2="15.52" xlink:href="#linear-gradient-2"/>
    <linearGradient id="linear-gradient-47" x1="846.19" y1="11.3" x2="846.19" y2="15.52" xlink:href="#linear-gradient-2"/>
    <linearGradient id="linear-gradient-48" x1="829.56" y1="11.3" x2="829.56" y2="15.52" xlink:href="#linear-gradient-2"/>
    <linearGradient id="linear-gradient-49" x1="812.3" y1="11.3" x2="812.3" y2="15.52" xlink:href="#linear-gradient-2"/>
    <linearGradient id="linear-gradient-50" x1="794.83" y1="11.3" x2="794.83" y2="15.52" xlink:href="#linear-gradient-2"/>
    <linearGradient id="linear-gradient-51" x1="777.99" y1="11.3" x2="777.99" y2="15.52" xlink:href="#linear-gradient-2"/>
    <linearGradient id="linear-gradient-52" x1="760.73" y1="11.3" x2="760.73" y2="15.52" xlink:href="#linear-gradient-2"/>
    <linearGradient id="linear-gradient-53" x1="743.67" y1="11.3" x2="743.67" y2="15.52" xlink:href="#linear-gradient-2"/>
    <linearGradient id="linear-gradient-54" x1="726.41" y1="11.3" x2="726.41" y2="15.52" xlink:href="#linear-gradient-2"/>
    <linearGradient id="linear-gradient-55" x1="708.94" y1="11.3" x2="708.94" y2="15.52" xlink:href="#linear-gradient-2"/>
    <linearGradient id="linear-gradient-56" x1="692.1" y1="11.3" x2="692.1" y2="15.52" xlink:href="#linear-gradient-2"/>
    <linearGradient id="linear-gradient-57" x1="674.84" y1="11.3" x2="674.84" y2="15.52" xlink:href="#linear-gradient-2"/>
    <linearGradient id="linear-gradient-58" x1="657.37" y1="11.3" x2="657.37" y2="15.52" xlink:href="#linear-gradient-2"/>
    <linearGradient id="linear-gradient-59" x1="640.53" y1="11.3" x2="640.53" y2="15.52" xlink:href="#linear-gradient-2"/>
    <linearGradient id="linear-gradient-60" x1="1119.51" y1="10.98" x2="1119.51" y2="14.15" xlink:href="#linear-gradient"/>
    <linearGradient id="linear-gradient-61" x1="1277.19" y1="11.3" x2="1277.19" y2="15.52" xlink:href="#linear-gradient-2"/>
    <linearGradient id="linear-gradient-62" x1="1260.34" y1="11.3" x2="1260.34" y2="15.52" xlink:href="#linear-gradient-2"/>
    <linearGradient id="linear-gradient-63" x1="1242.87" y1="11.3" x2="1242.87" y2="15.52" xlink:href="#linear-gradient-2"/>
    <linearGradient id="linear-gradient-64" x1="1225.82" y1="11.3" x2="1225.82" y2="15.52" xlink:href="#linear-gradient-2"/>
    <linearGradient id="linear-gradient-65" x1="1208.56" y1="11.3" x2="1208.56" y2="15.52" xlink:href="#linear-gradient-2"/>
    <linearGradient id="linear-gradient-66" x1="1191.72" y1="11.3" x2="1191.72" y2="15.52" xlink:href="#linear-gradient-2"/>
    <linearGradient id="linear-gradient-67" x1="1174.04" y1="11.3" x2="1174.04" y2="15.52" xlink:href="#linear-gradient-2"/>
    <linearGradient id="linear-gradient-68" x1="1157.41" y1="11.3" x2="1157.41" y2="15.52" xlink:href="#linear-gradient-2"/>
    <linearGradient id="linear-gradient-69" x1="1140.14" y1="11.3" x2="1140.14" y2="15.52" xlink:href="#linear-gradient-2"/>
    <linearGradient id="linear-gradient-70" x1="1122.67" y1="11.3" x2="1122.67" y2="15.52" xlink:href="#linear-gradient-2"/>
    <linearGradient id="linear-gradient-71" x1="1105.83" y1="11.3" x2="1105.83" y2="15.52" xlink:href="#linear-gradient-2"/>
    <linearGradient id="linear-gradient-72" x1="1088.57" y1="11.3" x2="1088.57" y2="15.52" xlink:href="#linear-gradient-2"/>
    <linearGradient id="linear-gradient-73" x1="1071.52" y1="11.3" x2="1071.52" y2="15.52" xlink:href="#linear-gradient-2"/>
    <linearGradient id="linear-gradient-74" x1="1054.26" y1="11.3" x2="1054.26" y2="15.52" xlink:href="#linear-gradient-2"/>
    <linearGradient id="linear-gradient-75" x1="1036.79" y1="11.3" x2="1036.79" y2="15.52" xlink:href="#linear-gradient-2"/>
    <linearGradient id="linear-gradient-76" x1="1019.94" y1="11.3" x2="1019.94" y2="15.52" xlink:href="#linear-gradient-2"/>
    <linearGradient id="linear-gradient-77" x1="1002.68" y1="11.3" x2="1002.68" y2="15.52" xlink:href="#linear-gradient-2"/>
    <linearGradient id="linear-gradient-78" x1="985.21" y1="11.3" x2="985.21" y2="15.52" xlink:href="#linear-gradient-2"/>
    <linearGradient id="linear-gradient-79" x1="968.37" y1="11.3" x2="968.37" y2="15.52" xlink:href="#linear-gradient-2"/>
    <linearGradient id="linear-gradient-80" x1="1446.08" y1="10.98" x2="1446.08" y2="14.15" xlink:href="#linear-gradient"/>
    <linearGradient id="linear-gradient-81" x1="1603.75" y1="11.3" x2="1603.75" y2="15.52" xlink:href="#linear-gradient-2"/>
    <linearGradient id="linear-gradient-82" x1="1586.91" y1="11.3" x2="1586.91" y2="15.52" xlink:href="#linear-gradient-2"/>
    <linearGradient id="linear-gradient-83" x1="1569.44" y1="11.3" x2="1569.44" y2="15.52" xlink:href="#linear-gradient-2"/>
    <linearGradient id="linear-gradient-84" x1="1552.39" y1="11.3" x2="1552.39" y2="15.52" xlink:href="#linear-gradient-2"/>
    <linearGradient id="linear-gradient-85" x1="1535.13" y1="11.3" x2="1535.13" y2="15.52" xlink:href="#linear-gradient-2"/>
    <linearGradient id="linear-gradient-86" x1="1518.29" y1="11.3" x2="1518.29" y2="15.52" xlink:href="#linear-gradient-2"/>
    <linearGradient id="linear-gradient-87" x1="1500.6" y1="11.3" x2="1500.6" y2="15.52" xlink:href="#linear-gradient-2"/>
    <linearGradient id="linear-gradient-88" x1="1483.97" y1="11.3" x2="1483.97" y2="15.52" xlink:href="#linear-gradient-2"/>
    <linearGradient id="linear-gradient-89" x1="1466.71" y1="11.3" x2="1466.71" y2="15.52" xlink:href="#linear-gradient-2"/>
    <linearGradient id="linear-gradient-90" x1="1449.24" y1="11.3" x2="1449.24" y2="15.52" xlink:href="#linear-gradient-2"/>
    <linearGradient id="linear-gradient-91" x1="1432.4" y1="11.3" x2="1432.4" y2="15.52" xlink:href="#linear-gradient-2"/>
    <linearGradient id="linear-gradient-92" x1="1415.14" y1="11.3" x2="1415.14" y2="15.52" xlink:href="#linear-gradient-2"/>
    <linearGradient id="linear-gradient-93" x1="1398.09" y1="11.3" x2="1398.09" y2="15.52" xlink:href="#linear-gradient-2"/>
    <linearGradient id="linear-gradient-94" x1="1380.83" y1="11.3" x2="1380.83" y2="15.52" xlink:href="#linear-gradient-2"/>
    <linearGradient id="linear-gradient-95" x1="1363.35" y1="11.3" x2="1363.35" y2="15.52" xlink:href="#linear-gradient-2"/>
    <linearGradient id="linear-gradient-96" x1="1346.51" y1="11.3" x2="1346.51" y2="15.52" xlink:href="#linear-gradient-2"/>
    <linearGradient id="linear-gradient-97" x1="1329.25" y1="11.3" x2="1329.25" y2="15.52" xlink:href="#linear-gradient-2"/>
    <linearGradient id="linear-gradient-98" x1="1311.78" y1="11.3" x2="1311.78" y2="15.52" xlink:href="#linear-gradient-2"/>
    <linearGradient id="linear-gradient-99" x1="1294.94" y1="11.3" x2="1294.94" y2="15.52" xlink:href="#linear-gradient-2"/>
    <linearGradient id="linear-gradient-100" x1="1689.39" y1="10.98" x2="1689.39" y2="14.15" xlink:href="#linear-gradient"/>
    <linearGradient id="linear-gradient-101" x1="1847.06" y1="11.3" x2="1847.06" y2="15.52" xlink:href="#linear-gradient-2"/>
    <linearGradient id="linear-gradient-102" x1="1830.22" y1="11.3" x2="1830.22" y2="15.52" xlink:href="#linear-gradient-2"/>
    <linearGradient id="linear-gradient-103" x1="1812.74" y1="11.3" x2="1812.74" y2="15.52" xlink:href="#linear-gradient-2"/>
    <linearGradient id="linear-gradient-104" x1="1795.69" y1="11.3" x2="1795.69" y2="15.52" xlink:href="#linear-gradient-2"/>
    <linearGradient id="linear-gradient-105" x1="1778.43" y1="11.3" x2="1778.43" y2="15.52" xlink:href="#linear-gradient-2"/>
    <linearGradient id="linear-gradient-106" x1="1761.59" y1="11.3" x2="1761.59" y2="15.52" xlink:href="#linear-gradient-2"/>
    <linearGradient id="linear-gradient-107" x1="1743.91" y1="11.3" x2="1743.91" y2="15.52" xlink:href="#linear-gradient-2"/>
    <linearGradient id="linear-gradient-108" x1="1727.28" y1="11.3" x2="1727.28" y2="15.52" xlink:href="#linear-gradient-2"/>
    <linearGradient id="linear-gradient-109" x1="1710.02" y1="11.3" x2="1710.02" y2="15.52" xlink:href="#linear-gradient-2"/>
    <linearGradient id="linear-gradient-110" x1="1692.54" y1="11.3" x2="1692.54" y2="15.52" xlink:href="#linear-gradient-2"/>
    <linearGradient id="linear-gradient-111" x1="1675.7" y1="11.3" x2="1675.7" y2="15.52" xlink:href="#linear-gradient-2"/>
    <linearGradient id="linear-gradient-112" x1="1658.44" y1="11.3" x2="1658.44" y2="15.52" xlink:href="#linear-gradient-2"/>
    <linearGradient id="linear-gradient-113" x1="1641.39" y1="11.3" x2="1641.39" y2="15.52" xlink:href="#linear-gradient-2"/>
    <linearGradient id="linear-gradient-114" x1="1624.13" y1="11.3" x2="1624.13" y2="15.52" xlink:href="#linear-gradient-2"/>
    <linearGradient id="linear-gradient-115" x1="1606.66" y1="11.3" x2="1606.66" y2="15.52" xlink:href="#linear-gradient-2"/>
    <linearGradient id="linear-gradient-116" x1="1589.82" y1="11.3" x2="1589.82" y2="15.52" xlink:href="#linear-gradient-2"/>
    <linearGradient id="linear-gradient-117" x1="1572.55" y1="11.3" x2="1572.55" y2="15.52" xlink:href="#linear-gradient-2"/>
    <linearGradient id="linear-gradient-118" x1="1555.08" y1="11.3" x2="1555.08" y2="15.52" xlink:href="#linear-gradient-2"/>
    <linearGradient id="linear-gradient-119" x1="1538.24" y1="11.3" x2="1538.24" y2="15.52" xlink:href="#linear-gradient-2"/>
    <linearGradient id="linear-gradient-120" x1="2017.72" y1="10.98" x2="2017.72" y2="14.15" xlink:href="#linear-gradient"/>
    <linearGradient id="linear-gradient-121" x1="2175.39" y1="11.3" x2="2175.39" y2="15.52" xlink:href="#linear-gradient-2"/>
    <linearGradient id="linear-gradient-122" x1="2158.55" y1="11.3" x2="2158.55" y2="15.52" xlink:href="#linear-gradient-2"/>
    <linearGradient id="linear-gradient-123" x1="2141.08" y1="11.3" x2="2141.08" y2="15.52" xlink:href="#linear-gradient-2"/>
    <linearGradient id="linear-gradient-124" x1="2124.03" y1="11.3" x2="2124.03" y2="15.52" xlink:href="#linear-gradient-2"/>
    <linearGradient id="linear-gradient-125" x1="2106.77" y1="11.3" x2="2106.77" y2="15.52" xlink:href="#linear-gradient-2"/>
    <linearGradient id="linear-gradient-126" x1="2089.93" y1="11.3" x2="2089.93" y2="15.52" xlink:href="#linear-gradient-2"/>
    <linearGradient id="linear-gradient-127" x1="2072.25" y1="11.3" x2="2072.25" y2="15.52" xlink:href="#linear-gradient-2"/>
    <linearGradient id="linear-gradient-128" x1="2055.61" y1="11.3" x2="2055.61" y2="15.52" xlink:href="#linear-gradient-2"/>
    <linearGradient id="linear-gradient-129" x1="2038.35" y1="11.3" x2="2038.35" y2="15.52" xlink:href="#linear-gradient-2"/>
    <linearGradient id="linear-gradient-130" x1="2020.88" y1="11.3" x2="2020.88" y2="15.52" xlink:href="#linear-gradient-2"/>
    <linearGradient id="linear-gradient-131" x1="2004.04" y1="11.3" x2="2004.04" y2="15.52" xlink:href="#linear-gradient-2"/>
    <linearGradient id="linear-gradient-132" x1="1986.78" y1="11.3" x2="1986.78" y2="15.52" xlink:href="#linear-gradient-2"/>
    <linearGradient id="linear-gradient-133" x1="1969.73" y1="11.3" x2="1969.73" y2="15.52" xlink:href="#linear-gradient-2"/>
    <linearGradient id="linear-gradient-134" x1="1952.47" y1="11.3" x2="1952.47" y2="15.52" xlink:href="#linear-gradient-2"/>
    <linearGradient id="linear-gradient-135" x1="1934.99" y1="11.3" x2="1934.99" y2="15.52" xlink:href="#linear-gradient-2"/>
    <linearGradient id="linear-gradient-136" x1="1918.15" y1="11.3" x2="1918.15" y2="15.52" xlink:href="#linear-gradient-2"/>
    <linearGradient id="linear-gradient-137" x1="1900.89" y1="11.3" x2="1900.89" y2="15.52" xlink:href="#linear-gradient-2"/>
    <linearGradient id="linear-gradient-138" x1="1883.42" y1="11.3" x2="1883.42" y2="15.52" xlink:href="#linear-gradient-2"/>
    <linearGradient id="linear-gradient-139" x1="1866.58" y1="11.3" x2="1866.58" y2="15.52" xlink:href="#linear-gradient-2"/>
    <linearGradient id="linear-gradient-140" x1="2347.28" y1="10.98" x2="2347.28" y2="14.15" xlink:href="#linear-gradient"/>
    <linearGradient id="linear-gradient-141" x1="2504.95" y1="11.3" x2="2504.95" y2="15.52" xlink:href="#linear-gradient-2"/>
    <linearGradient id="linear-gradient-142" x1="2488.11" y1="11.3" x2="2488.11" y2="15.52" xlink:href="#linear-gradient-2"/>
    <linearGradient id="linear-gradient-143" x1="2470.64" y1="11.3" x2="2470.64" y2="15.52" xlink:href="#linear-gradient-2"/>
    <linearGradient id="linear-gradient-144" x1="2453.59" y1="11.3" x2="2453.59" y2="15.52" xlink:href="#linear-gradient-2"/>
    <linearGradient id="linear-gradient-145" x1="2436.32" y1="11.3" x2="2436.32" y2="15.52" xlink:href="#linear-gradient-2"/>
    <linearGradient id="linear-gradient-146" x1="2419.48" y1="11.3" x2="2419.48" y2="15.52" xlink:href="#linear-gradient-2"/>
    <linearGradient id="linear-gradient-147" x1="2401.8" y1="11.3" x2="2401.8" y2="15.52" xlink:href="#linear-gradient-2"/>
    <linearGradient id="linear-gradient-148" x1="2385.17" y1="11.3" x2="2385.17" y2="15.52" xlink:href="#linear-gradient-2"/>
    <linearGradient id="linear-gradient-149" x1="2367.91" y1="11.3" x2="2367.91" y2="15.52" xlink:href="#linear-gradient-2"/>
    <linearGradient id="linear-gradient-150" x1="2350.44" y1="11.3" x2="2350.44" y2="15.52" xlink:href="#linear-gradient-2"/>
    <linearGradient id="linear-gradient-151" x1="2333.6" y1="11.3" x2="2333.6" y2="15.52" xlink:href="#linear-gradient-2"/>
    <linearGradient id="linear-gradient-152" x1="2316.33" y1="11.3" x2="2316.33" y2="15.52" xlink:href="#linear-gradient-2"/>
    <linearGradient id="linear-gradient-153" x1="2299.28" y1="11.3" x2="2299.28" y2="15.52" xlink:href="#linear-gradient-2"/>
    <linearGradient id="linear-gradient-154" x1="2282.02" y1="11.3" x2="2282.02" y2="15.52" xlink:href="#linear-gradient-2"/>
    <linearGradient id="linear-gradient-155" x1="2264.55" y1="11.3" x2="2264.55" y2="15.52" xlink:href="#linear-gradient-2"/>
    <linearGradient id="linear-gradient-156" x1="2247.71" y1="11.3" x2="2247.71" y2="15.52" xlink:href="#linear-gradient-2"/>
    <linearGradient id="linear-gradient-157" x1="2230.45" y1="11.3" x2="2230.45" y2="15.52" xlink:href="#linear-gradient-2"/>
    <linearGradient id="linear-gradient-158" x1="2212.98" y1="11.3" x2="2212.98" y2="15.52" xlink:href="#linear-gradient-2"/>
    <linearGradient id="linear-gradient-159" x1="2196.13" y1="11.3" x2="2196.13" y2="15.52" xlink:href="#linear-gradient-2"/>
    <linearGradient id="linear-gradient-160" x1="2675.62" y1="10.98" x2="2675.62" y2="14.15" xlink:href="#linear-gradient"/>
    <linearGradient id="linear-gradient-161" x1="2833.29" y1="11.3" x2="2833.29" y2="15.52" xlink:href="#linear-gradient-2"/>
    <linearGradient id="linear-gradient-162" x1="2816.45" y1="11.3" x2="2816.45" y2="15.52" xlink:href="#linear-gradient-2"/>
    <linearGradient id="linear-gradient-163" x1="2798.97" y1="11.3" x2="2798.97" y2="15.52" xlink:href="#linear-gradient-2"/>
    <linearGradient id="linear-gradient-164" x1="2781.92" y1="11.3" x2="2781.92" y2="15.52" xlink:href="#linear-gradient-2"/>
    <linearGradient id="linear-gradient-165" x1="2764.66" y1="11.3" x2="2764.66" y2="15.52" xlink:href="#linear-gradient-2"/>
    <linearGradient id="linear-gradient-166" x1="2747.82" y1="11.3" x2="2747.82" y2="15.52" xlink:href="#linear-gradient-2"/>
    <linearGradient id="linear-gradient-167" x1="2730.14" y1="11.3" x2="2730.14" y2="15.52" xlink:href="#linear-gradient-2"/>
    <linearGradient id="linear-gradient-168" x1="2713.51" y1="11.3" x2="2713.51" y2="15.52" xlink:href="#linear-gradient-2"/>
    <linearGradient id="linear-gradient-169" x1="2696.25" y1="11.3" x2="2696.25" y2="15.52" xlink:href="#linear-gradient-2"/>
    <linearGradient id="linear-gradient-170" x1="2678.77" y1="11.3" x2="2678.77" y2="15.52" xlink:href="#linear-gradient-2"/>
    <linearGradient id="linear-gradient-171" x1="2661.93" y1="11.3" x2="2661.93" y2="15.52" xlink:href="#linear-gradient-2"/>
    <linearGradient id="linear-gradient-172" x1="2644.67" y1="11.3" x2="2644.67" y2="15.52" xlink:href="#linear-gradient-2"/>
    <linearGradient id="linear-gradient-173" x1="2627.62" y1="11.3" x2="2627.62" y2="15.52" xlink:href="#linear-gradient-2"/>
    <linearGradient id="linear-gradient-174" x1="2610.36" y1="11.3" x2="2610.36" y2="15.52" xlink:href="#linear-gradient-2"/>
    <linearGradient id="linear-gradient-175" x1="2592.89" y1="11.3" x2="2592.89" y2="15.52" xlink:href="#linear-gradient-2"/>
    <linearGradient id="linear-gradient-176" x1="2576.05" y1="11.3" x2="2576.05" y2="15.52" xlink:href="#linear-gradient-2"/>
    <linearGradient id="linear-gradient-177" x1="2558.79" y1="11.3" x2="2558.79" y2="15.52" xlink:href="#linear-gradient-2"/>
    <linearGradient id="linear-gradient-178" x1="2541.31" y1="11.3" x2="2541.31" y2="15.52" xlink:href="#linear-gradient-2"/>
    <linearGradient id="linear-gradient-179" x1="2524.47" y1="11.3" x2="2524.47" y2="15.52" xlink:href="#linear-gradient-2"/>
    <linearGradient id="linear-gradient-180" x1="3001.06" y1="10.98" x2="3001.06" y2="14.15" xlink:href="#linear-gradient"/>
    <linearGradient id="linear-gradient-181" x1="3124.42" y1="11.3" x2="3124.42" y2="15.52" xlink:href="#linear-gradient-2"/>
    <linearGradient id="linear-gradient-182" x1="3107.37" y1="11.3" x2="3107.37" y2="15.52" xlink:href="#linear-gradient-2"/>
    <linearGradient id="linear-gradient-183" x1="3090.11" y1="11.3" x2="3090.11" y2="15.52" xlink:href="#linear-gradient-2"/>
    <linearGradient id="linear-gradient-184" x1="3073.26" y1="11.3" x2="3073.26" y2="15.52" xlink:href="#linear-gradient-2"/>
    <linearGradient id="linear-gradient-185" x1="3055.58" y1="11.3" x2="3055.58" y2="15.52" xlink:href="#linear-gradient-2"/>
    <linearGradient id="linear-gradient-186" x1="3038.95" y1="11.3" x2="3038.95" y2="15.52" xlink:href="#linear-gradient-2"/>
    <linearGradient id="linear-gradient-187" x1="3021.69" y1="11.3" x2="3021.69" y2="15.52" xlink:href="#linear-gradient-2"/>
    <linearGradient id="linear-gradient-188" x1="3004.22" y1="11.3" x2="3004.22" y2="15.52" xlink:href="#linear-gradient-2"/>
    <linearGradient id="linear-gradient-189" x1="2987.38" y1="11.3" x2="2987.38" y2="15.52" xlink:href="#linear-gradient-2"/>
    <linearGradient id="linear-gradient-190" x1="2970.12" y1="11.3" x2="2970.12" y2="15.52" xlink:href="#linear-gradient-2"/>
    <linearGradient id="linear-gradient-191" x1="2953.06" y1="11.3" x2="2953.06" y2="15.52" xlink:href="#linear-gradient-2"/>
    <linearGradient id="linear-gradient-192" x1="2935.8" y1="11.3" x2="2935.8" y2="15.52" xlink:href="#linear-gradient-2"/>
    <linearGradient id="linear-gradient-193" x1="2918.33" y1="11.3" x2="2918.33" y2="15.52" xlink:href="#linear-gradient-2"/>
    <linearGradient id="linear-gradient-194" x1="2901.49" y1="11.3" x2="2901.49" y2="15.52" xlink:href="#linear-gradient-2"/>
    <linearGradient id="linear-gradient-195" x1="2884.23" y1="11.3" x2="2884.23" y2="15.52" xlink:href="#linear-gradient-2"/>
    <linearGradient id="linear-gradient-196" x1="2866.76" y1="11.3" x2="2866.76" y2="15.52" xlink:href="#linear-gradient-2"/>
    <linearGradient id="linear-gradient-197" x1="2849.92" y1="11.3" x2="2849.92" y2="15.52" xlink:href="#linear-gradient-2"/>
    <clipPath id="clippath">
      <rect class="cls-53" width="3120.16" height="142.49"/>
    </clipPath>
  </defs>
  <g>
    <g>
      <g>
        <path class="cls-10" d="M629.12,13.31c0,.65-.48,1.29-1.24,1.29H255.99c-.75,0-1.46-.64-1.46-1.29v-.17c0-.65.7-1.42,1.46-1.42h371.9c.75,0,1.24.76,1.24,1.42v.17Z"/>
        <path class="cls-92" d="M627.21,14.55c0,1.09-.77,1.98-1.75,1.98h-8.11c-.98,0-1.64-.88-1.64-1.98v-.1c0-1.09.66-1.76,1.64-1.76h8.11c.98,0,1.75.67,1.75,1.76v.1Z"/>
        <path class="cls-103" d="M608.02,14.55c0,1.09-.85,1.98-1.83,1.98h-8.11c-.98,0-1.56-.88-1.56-1.98v-.1c0-1.09.59-1.76,1.56-1.76h8.11c.98,0,1.83.67,1.83,1.76v.1Z"/>
        <path class="cls-180" d="M588.36,14.55c0,1.09-.96,1.98-1.94,1.98h-8.11c-.98,0-1.94-.88-1.94-1.98v-.1c0-1.09.96-1.76,1.94-1.76h8.11c.98,0,1.94.67,1.94,1.76v.1Z"/>
        <path class="cls-48" d="M568.69,14.55c0,1.09-.56,1.98-1.54,1.98h-8.12c-.98,0-1.86-.88-1.86-1.98v-.1c0-1.09.88-1.76,1.86-1.76h8.12c.98,0,1.54.67,1.54,1.76v.1Z"/>
        <path class="cls-25" d="M549.03,14.55c0,1.09-.66,1.98-1.64,1.98h-8.12c-.98,0-1.75-.88-1.75-1.98v-.1c0-1.09.78-1.76,1.75-1.76h8.12c.98,0,1.64.67,1.64,1.76v.1Z"/>
        <path class="cls-101" d="M529.84,14.55c0,1.09-.74,1.98-1.72,1.98h-8.11c-.98,0-1.68-.88-1.68-1.98v-.1c0-1.09.7-1.76,1.68-1.76h8.11c.98,0,1.72.67,1.72,1.76v.1Z"/>
        <path class="cls-136" d="M509.7,14.55c0,1.09-.87,1.98-1.85,1.98h-8.11c-.98,0-1.54-.88-1.54-1.98v-.1c0-1.09.56-1.76,1.54-1.76h8.11c.98,0,1.85.67,1.85,1.76v.1Z"/>
        <path class="cls-111" d="M490.99,14.55c0,1.09-.93,1.98-1.9,1.98h-8.11c-.98,0-1.97-.88-1.97-1.98v-.1c0-1.09.99-1.76,1.97-1.76h8.11c.98,0,1.9.67,1.9,1.76v.1Z"/>
        <path class="cls-169" d="M471.33,14.55c0,1.09-1.03,1.98-2.01,1.98h-8.11c-.98,0-1.87-.88-1.87-1.98v-.1c0-1.09.89-1.76,1.87-1.76h8.11c.98,0,2.01.67,2.01,1.76v.1Z"/>
        <path class="cls-40" d="M451.18,14.55c0,1.09-.66,1.98-1.64,1.98h-8.11c-.98,0-1.76-.88-1.76-1.98v-.1c0-1.09.78-1.76,1.76-1.76h8.11c.98,0,1.64.67,1.64,1.76v.1Z"/>
        <path class="cls-2" d="M432,14.55c0,1.09-.74,1.98-1.72,1.98h-8.11c-.98,0-1.68-.88-1.68-1.98v-.1c0-1.09.7-1.76,1.68-1.76h8.11c.98,0,1.72.67,1.72,1.76v.1Z"/>
        <path class="cls-74" d="M412.33,14.55c0,1.09-.84,1.98-1.82,1.98h-8.12c-.98,0-1.57-.88-1.57-1.98v-.1c0-1.09.6-1.76,1.57-1.76h8.12c.98,0,1.82.67,1.82,1.76v.1Z"/>
        <path class="cls-90" d="M393.15,14.55c0,1.09-.92,1.98-1.9,1.98h-8.12c-.98,0-1.98-.88-1.98-1.98v-.1c0-1.09,1-1.76,1.98-1.76h8.12c.98,0,1.9.67,1.9,1.76v.1Z"/>
        <path class="cls-39" d="M373.48,14.55c0,1.09-1.03,1.98-2.01,1.98h-8.12c-.98,0-1.87-.88-1.87-1.98v-.1c0-1.09.89-1.76,1.87-1.76h8.12c.98,0,2.01.67,2.01,1.76v.1Z"/>
        <path class="cls-78" d="M353.34,14.55c0,1.09-.65,1.98-1.63,1.98h-8.11c-.98,0-1.76-.88-1.76-1.98v-.1c0-1.09.79-1.76,1.76-1.76h8.11c.98,0,1.63.67,1.63,1.76v.1Z"/>
        <path class="cls-5" d="M334.15,14.55c0,1.09-.73,1.98-1.71,1.98h-8.11c-.98,0-1.69-.88-1.69-1.98v-.1c0-1.09.71-1.76,1.69-1.76h8.11c.98,0,1.71.67,1.71,1.76v.1Z"/>
        <path class="cls-143" d="M314.49,14.55c0,1.09-.84,1.98-1.82,1.98h-8.12c-.98,0-1.58-.88-1.58-1.98v-.1c0-1.09.6-1.76,1.58-1.76h8.12c.98,0,1.82.67,1.82,1.76v.1Z"/>
        <path class="cls-8" d="M294.82,14.55c0,1.09-.94,1.98-1.92,1.98h-8.11c-.98,0-1.95-.88-1.95-1.98v-.1c0-1.09.98-1.76,1.95-1.76h8.11c.98,0,1.92.67,1.92,1.76v.1Z"/>
        <path class="cls-89" d="M275.64,14.55c0,1.09-1.02,1.98-2,1.98h-8.12c-.98,0-1.88-.88-1.88-1.98v-.1c0-1.09.9-1.76,1.88-1.76h8.12c.98,0,2,.67,2,1.76v.1Z"/>
      </g>
      <g>
        <path class="cls-24" d="M302.42,13.95c0,.57-.42,1.13-1.08,1.13H-25.12c-.66,0-1.28-.56-1.28-1.13v-.15c0-.57.62-1.24,1.28-1.24h326.45c.66,0,1.08.67,1.08,1.24v.15Z"/>
        <path class="cls-79" d="M300.73,15.04c0,.96-.68,1.73-1.54,1.73h-7.12c-.86,0-1.44-.78-1.44-1.73v-.09c0-.96.58-1.54,1.44-1.54h7.12c.86,0,1.54.58,1.54,1.54v.09Z"/>
        <path class="cls-75" d="M283.89,15.04c0,.96-.75,1.73-1.61,1.73h-7.12c-.86,0-1.37-.78-1.37-1.73v-.09c0-.96.51-1.54,1.37-1.54h7.12c.86,0,1.61.58,1.61,1.54v.09Z"/>
        <path class="cls-139" d="M266.63,15.04c0,.96-.84,1.73-1.7,1.73h-7.12c-.86,0-1.7-.78-1.7-1.73v-.09c0-.96.84-1.54,1.7-1.54h7.12c.86,0,1.7.58,1.7,1.54v.09Z"/>
        <path class="cls-76" d="M249.37,15.04c0,.96-.49,1.73-1.35,1.73h-7.12c-.86,0-1.63-.78-1.63-1.73v-.09c0-.96.77-1.54,1.63-1.54h7.12c.86,0,1.35.58,1.35,1.54v.09Z"/>
        <path class="cls-140" d="M232.11,15.04c0,.96-.58,1.73-1.44,1.73h-7.12c-.86,0-1.54-.78-1.54-1.73v-.09c0-.96.68-1.54,1.54-1.54h7.12c.86,0,1.44.58,1.44,1.54v.09Z"/>
        <path class="cls-112" d="M215.27,15.04c0,.96-.65,1.73-1.51,1.73h-7.12c-.86,0-1.47-.78-1.47-1.73v-.09c0-.96.61-1.54,1.47-1.54h7.12c.86,0,1.51.58,1.51,1.54v.09Z"/>
        <path class="cls-166" d="M197.58,15.04c0,.96-.77,1.73-1.63,1.73h-7.12c-.86,0-1.35-.78-1.35-1.73v-.09c0-.96.49-1.54,1.35-1.54h7.12c.86,0,1.63.58,1.63,1.54v.09Z"/>
        <path class="cls-154" d="M181.16,15.04c0,.96-.81,1.73-1.67,1.73h-7.12c-.86,0-1.73-.78-1.73-1.73v-.09c0-.96.87-1.54,1.73-1.54h7.12c.86,0,1.67.58,1.67,1.54v.09Z"/>
        <path class="cls-145" d="M163.9,15.04c0,.96-.91,1.73-1.77,1.73h-7.12c-.86,0-1.64-.78-1.64-1.73v-.09c0-.96.78-1.54,1.64-1.54h7.12c.86,0,1.77.58,1.77,1.54v.09Z"/>
        <path class="cls-54" d="M146.22,15.04c0,.96-.58,1.73-1.44,1.73h-7.12c-.86,0-1.54-.78-1.54-1.73v-.09c0-.96.69-1.54,1.54-1.54h7.12c.86,0,1.44.58,1.44,1.54v.09Z"/>
        <path class="cls-86" d="M129.38,15.04c0,.96-.65,1.73-1.51,1.73h-7.12c-.86,0-1.48-.78-1.48-1.73v-.09c0-.96.62-1.54,1.48-1.54h7.12c.86,0,1.51.58,1.51,1.54v.09Z"/>
        <path class="cls-9" d="M112.12,15.04c0,.96-.74,1.73-1.6,1.73h-7.12c-.86,0-1.38-.78-1.38-1.73v-.09c0-.96.52-1.54,1.38-1.54h7.12c.86,0,1.6.58,1.6,1.54v.09Z"/>
        <path class="cls-60" d="M95.28,15.04c0,.96-.81,1.73-1.67,1.73h-7.12c-.86,0-1.73-.78-1.73-1.73v-.09c0-.96.88-1.54,1.73-1.54h7.12c.86,0,1.67.58,1.67,1.54v.09Z"/>
        <path class="cls-84" d="M78.01,15.04c0,.96-.9,1.73-1.76,1.73h-7.12c-.86,0-1.64-.78-1.64-1.73v-.09c0-.96.78-1.54,1.64-1.54h7.12c.86,0,1.76.58,1.76,1.54v.09Z"/>
        <path class="cls-130" d="M60.33,15.04c0,.96-.57,1.73-1.43,1.73h-7.12c-.86,0-1.55-.78-1.55-1.73v-.09c0-.96.69-1.54,1.55-1.54h7.12c.86,0,1.43.58,1.43,1.54v.09Z"/>
        <path class="cls-186" d="M43.49,15.04c0,.96-.64,1.73-1.5,1.73h-7.12c-.86,0-1.48-.78-1.48-1.73v-.09c0-.96.62-1.54,1.48-1.54h7.12c.86,0,1.5.58,1.5,1.54v.09Z"/>
        <path class="cls-1" d="M26.23,15.04c0,.96-.73,1.73-1.59,1.73h-7.12c-.86,0-1.39-.78-1.39-1.73v-.09c0-.96.53-1.54,1.39-1.54h7.12c.86,0,1.59.58,1.59,1.54v.09Z"/>
        <path class="cls-102" d="M8.97,15.04c0,.96-.83,1.73-1.69,1.73H.16c-.86,0-1.72-.78-1.72-1.73v-.09c0-.96.86-1.54,1.72-1.54h7.12c.86,0,1.69.58,1.69,1.54v.09Z"/>
      </g>
      <g>
        <path class="cls-69" d="M956.08,13.95c0,.57-.42,1.13-1.08,1.13h-326.45c-.66,0-1.28-.56-1.28-1.13v-.15c0-.57.62-1.24,1.28-1.24h326.45c.66,0,1.08.67,1.08,1.24v.15Z"/>
        <path class="cls-67" d="M954.39,15.04c0,.96-.68,1.73-1.54,1.73h-7.12c-.86,0-1.44-.78-1.44-1.73v-.09c0-.96.58-1.54,1.44-1.54h7.12c.86,0,1.54.58,1.54,1.54v.09Z"/>
        <path class="cls-36" d="M937.55,15.04c0,.96-.75,1.73-1.61,1.73h-7.12c-.86,0-1.37-.78-1.37-1.73v-.09c0-.96.51-1.54,1.37-1.54h7.12c.86,0,1.61.58,1.61,1.54v.09Z"/>
        <path class="cls-77" d="M920.29,15.04c0,.96-.84,1.73-1.7,1.73h-7.12c-.86,0-1.7-.78-1.7-1.73v-.09c0-.96.84-1.54,1.7-1.54h7.12c.86,0,1.7.58,1.7,1.54v.09Z"/>
        <path class="cls-147" d="M903.03,15.04c0,.96-.49,1.73-1.35,1.73h-7.12c-.86,0-1.63-.78-1.63-1.73v-.09c0-.96.77-1.54,1.63-1.54h7.12c.86,0,1.35.58,1.35,1.54v.09Z"/>
        <path class="cls-96" d="M885.77,15.04c0,.96-.58,1.73-1.44,1.73h-7.12c-.86,0-1.54-.78-1.54-1.73v-.09c0-.96.68-1.54,1.54-1.54h7.12c.86,0,1.44.58,1.44,1.54v.09Z"/>
        <path class="cls-155" d="M868.93,15.04c0,.96-.65,1.73-1.51,1.73h-7.12c-.86,0-1.47-.78-1.47-1.73v-.09c0-.96.61-1.54,1.47-1.54h7.12c.86,0,1.51.58,1.51,1.54v.09Z"/>
        <path class="cls-137" d="M851.24,15.04c0,.96-.77,1.73-1.63,1.73h-7.12c-.86,0-1.35-.78-1.35-1.73v-.09c0-.96.49-1.54,1.35-1.54h7.12c.86,0,1.63.58,1.63,1.54v.09Z"/>
        <path class="cls-132" d="M834.82,15.04c0,.96-.81,1.73-1.67,1.73h-7.12c-.86,0-1.73-.78-1.73-1.73v-.09c0-.96.87-1.54,1.73-1.54h7.12c.86,0,1.67.58,1.67,1.54v.09Z"/>
        <path class="cls-134" d="M817.56,15.04c0,.96-.91,1.73-1.77,1.73h-7.12c-.86,0-1.64-.78-1.64-1.73v-.09c0-.96.78-1.54,1.64-1.54h7.12c.86,0,1.77.58,1.77,1.54v.09Z"/>
        <path class="cls-85" d="M799.88,15.04c0,.96-.58,1.73-1.44,1.73h-7.12c-.86,0-1.54-.78-1.54-1.73v-.09c0-.96.69-1.54,1.54-1.54h7.12c.86,0,1.44.58,1.44,1.54v.09Z"/>
        <path class="cls-144" d="M783.04,15.04c0,.96-.65,1.73-1.51,1.73h-7.12c-.86,0-1.48-.78-1.48-1.73v-.09c0-.96.62-1.54,1.48-1.54h7.12c.86,0,1.51.58,1.51,1.54v.09Z"/>
        <path class="cls-95" d="M765.78,15.04c0,.96-.74,1.73-1.6,1.73h-7.12c-.86,0-1.38-.78-1.38-1.73v-.09c0-.96.52-1.54,1.38-1.54h7.12c.86,0,1.6.58,1.6,1.54v.09Z"/>
        <path class="cls-124" d="M748.94,15.04c0,.96-.81,1.73-1.67,1.73h-7.12c-.86,0-1.73-.78-1.73-1.73v-.09c0-.96.88-1.54,1.73-1.54h7.12c.86,0,1.67.58,1.67,1.54v.09Z"/>
        <path class="cls-80" d="M731.68,15.04c0,.96-.9,1.73-1.76,1.73h-7.12c-.86,0-1.64-.78-1.64-1.73v-.09c0-.96.78-1.54,1.64-1.54h7.12c.86,0,1.76.58,1.76,1.54v.09Z"/>
        <path class="cls-81" d="M713.99,15.04c0,.96-.57,1.73-1.43,1.73h-7.12c-.86,0-1.55-.78-1.55-1.73v-.09c0-.96.69-1.54,1.55-1.54h7.12c.86,0,1.43.58,1.43,1.54v.09Z"/>
        <path class="cls-167" d="M697.15,15.04c0,.96-.64,1.73-1.5,1.73h-7.12c-.86,0-1.48-.78-1.48-1.73v-.09c0-.96.62-1.54,1.48-1.54h7.12c.86,0,1.5.58,1.5,1.54v.09Z"/>
        <path class="cls-20" d="M679.89,15.04c0,.96-.73,1.73-1.59,1.73h-7.12c-.86,0-1.39-.78-1.39-1.73v-.09c0-.96.53-1.54,1.39-1.54h7.12c.86,0,1.59.58,1.59,1.54v.09Z"/>
        <path class="cls-57" d="M662.63,15.04c0,.96-.83,1.73-1.69,1.73h-7.12c-.86,0-1.72-.78-1.72-1.73v-.09c0-.96.86-1.54,1.72-1.54h7.12c.86,0,1.69.58,1.69,1.54v.09Z"/>
        <path class="cls-88" d="M645.79,15.04c0,.96-.9,1.73-1.76,1.73h-7.12c-.86,0-1.65-.78-1.65-1.73v-.09c0-.96.79-1.54,1.65-1.54h7.12c.86,0,1.76.58,1.76,1.54v.09Z"/>
      </g>
      <g>
        <path class="cls-87" d="M1283.92,13.95c0,.57-.42,1.13-1.08,1.13h-326.45c-.66,0-1.28-.56-1.28-1.13v-.15c0-.57.62-1.24,1.28-1.24h326.45c.66,0,1.08.67,1.08,1.24v.15Z"/>
        <path class="cls-141" d="M1282.24,15.04c0,.96-.68,1.73-1.54,1.73h-7.12c-.86,0-1.44-.78-1.44-1.73v-.09c0-.96.58-1.54,1.44-1.54h7.12c.86,0,1.54.58,1.54,1.54v.09Z"/>
        <path class="cls-12" d="M1265.4,15.04c0,.96-.75,1.73-1.61,1.73h-7.12c-.86,0-1.37-.78-1.37-1.73v-.09c0-.96.51-1.54,1.37-1.54h7.12c.86,0,1.61.58,1.61,1.54v.09Z"/>
        <path class="cls-58" d="M1248.13,15.04c0,.96-.84,1.73-1.7,1.73h-7.12c-.86,0-1.7-.78-1.7-1.73v-.09c0-.96.84-1.54,1.7-1.54h7.12c.86,0,1.7.58,1.7,1.54v.09Z"/>
        <path class="cls-159" d="M1230.87,15.04c0,.96-.49,1.73-1.35,1.73h-7.12c-.86,0-1.63-.78-1.63-1.73v-.09c0-.96.77-1.54,1.63-1.54h7.12c.86,0,1.35.58,1.35,1.54v.09Z"/>
        <path class="cls-129" d="M1213.61,15.04c0,.96-.58,1.73-1.44,1.73h-7.12c-.86,0-1.54-.78-1.54-1.73v-.09c0-.96.68-1.54,1.54-1.54h7.12c.86,0,1.44.58,1.44,1.54v.09Z"/>
        <path class="cls-72" d="M1196.77,15.04c0,.96-.65,1.73-1.51,1.73h-7.12c-.86,0-1.47-.78-1.47-1.73v-.09c0-.96.61-1.54,1.47-1.54h7.12c.86,0,1.51.58,1.51,1.54v.09Z"/>
        <path class="cls-17" d="M1179.09,15.04c0,.96-.77,1.73-1.63,1.73h-7.12c-.86,0-1.35-.78-1.35-1.73v-.09c0-.96.49-1.54,1.35-1.54h7.12c.86,0,1.63.58,1.63,1.54v.09Z"/>
        <path class="cls-151" d="M1162.67,15.04c0,.96-.81,1.73-1.67,1.73h-7.12c-.86,0-1.73-.78-1.73-1.73v-.09c0-.96.87-1.54,1.73-1.54h7.12c.86,0,1.67.58,1.67,1.54v.09Z"/>
        <path class="cls-107" d="M1145.41,15.04c0,.96-.91,1.73-1.77,1.73h-7.12c-.86,0-1.64-.78-1.64-1.73v-.09c0-.96.78-1.54,1.64-1.54h7.12c.86,0,1.77.58,1.77,1.54v.09Z"/>
        <path class="cls-173" d="M1127.72,15.04c0,.96-.58,1.73-1.44,1.73h-7.12c-.86,0-1.54-.78-1.54-1.73v-.09c0-.96.69-1.54,1.54-1.54h7.12c.86,0,1.44.58,1.44,1.54v.09Z"/>
        <path class="cls-56" d="M1110.88,15.04c0,.96-.65,1.73-1.51,1.73h-7.12c-.86,0-1.48-.78-1.48-1.73v-.09c0-.96.62-1.54,1.48-1.54h7.12c.86,0,1.51.58,1.51,1.54v.09Z"/>
        <path class="cls-153" d="M1093.62,15.04c0,.96-.74,1.73-1.6,1.73h-7.12c-.86,0-1.38-.78-1.38-1.73v-.09c0-.96.52-1.54,1.38-1.54h7.12c.86,0,1.6.58,1.6,1.54v.09Z"/>
        <path class="cls-44" d="M1076.78,15.04c0,.96-.81,1.73-1.67,1.73h-7.12c-.86,0-1.73-.78-1.73-1.73v-.09c0-.96.88-1.54,1.73-1.54h7.12c.86,0,1.67.58,1.67,1.54v.09Z"/>
        <path class="cls-176" d="M1059.52,15.04c0,.96-.9,1.73-1.76,1.73h-7.12c-.86,0-1.64-.78-1.64-1.73v-.09c0-.96.78-1.54,1.64-1.54h7.12c.86,0,1.76.58,1.76,1.54v.09Z"/>
        <path class="cls-199" d="M1041.84,15.04c0,.96-.57,1.73-1.43,1.73h-7.12c-.86,0-1.55-.78-1.55-1.73v-.09c0-.96.69-1.54,1.55-1.54h7.12c.86,0,1.43.58,1.43,1.54v.09Z"/>
        <path class="cls-29" d="M1025,15.04c0,.96-.64,1.73-1.5,1.73h-7.12c-.86,0-1.48-.78-1.48-1.73v-.09c0-.96.62-1.54,1.48-1.54h7.12c.86,0,1.5.58,1.5,1.54v.09Z"/>
        <path class="cls-105" d="M1007.74,15.04c0,.96-.73,1.73-1.59,1.73h-7.12c-.86,0-1.39-.78-1.39-1.73v-.09c0-.96.53-1.54,1.39-1.54h7.12c.86,0,1.59.58,1.59,1.54v.09Z"/>
        <path class="cls-174" d="M990.47,15.04c0,.96-.83,1.73-1.69,1.73h-7.12c-.86,0-1.72-.78-1.72-1.73v-.09c0-.96.86-1.54,1.72-1.54h7.12c.86,0,1.69.58,1.69,1.54v.09Z"/>
        <path class="cls-195" d="M973.63,15.04c0,.96-.9,1.73-1.76,1.73h-7.12c-.86,0-1.65-.78-1.65-1.73v-.09c0-.96.79-1.54,1.65-1.54h7.12c.86,0,1.76.58,1.76,1.54v.09Z"/>
      </g>
      <g>
        <path class="cls-189" d="M1610.49,13.95c0,.57-.42,1.13-1.08,1.13h-326.45c-.66,0-1.28-.56-1.28-1.13v-.15c0-.57.62-1.24,1.28-1.24h326.45c.66,0,1.08.67,1.08,1.24v.15Z"/>
        <path class="cls-43" d="M1608.81,15.04c0,.96-.68,1.73-1.54,1.73h-7.12c-.86,0-1.44-.78-1.44-1.73v-.09c0-.96.58-1.54,1.44-1.54h7.12c.86,0,1.54.58,1.54,1.54v.09Z"/>
        <path class="cls-119" d="M1591.97,15.04c0,.96-.75,1.73-1.61,1.73h-7.12c-.86,0-1.37-.78-1.37-1.73v-.09c0-.96.51-1.54,1.37-1.54h7.12c.86,0,1.61.58,1.61,1.54v.09Z"/>
        <path class="cls-121" d="M1574.7,15.04c0,.96-.84,1.73-1.7,1.73h-7.12c-.86,0-1.7-.78-1.7-1.73v-.09c0-.96.84-1.54,1.7-1.54h7.12c.86,0,1.7.58,1.7,1.54v.09Z"/>
        <path class="cls-149" d="M1557.44,15.04c0,.96-.49,1.73-1.35,1.73h-7.12c-.86,0-1.63-.78-1.63-1.73v-.09c0-.96.77-1.54,1.63-1.54h7.12c.86,0,1.35.58,1.35,1.54v.09Z"/>
        <path class="cls-128" d="M1540.18,15.04c0,.96-.58,1.73-1.44,1.73h-7.12c-.86,0-1.54-.78-1.54-1.73v-.09c0-.96.68-1.54,1.54-1.54h7.12c.86,0,1.44.58,1.44,1.54v.09Z"/>
        <path class="cls-175" d="M1523.34,15.04c0,.96-.65,1.73-1.51,1.73h-7.12c-.86,0-1.47-.78-1.47-1.73v-.09c0-.96.61-1.54,1.47-1.54h7.12c.86,0,1.51.58,1.51,1.54v.09Z"/>
        <path class="cls-172" d="M1505.66,15.04c0,.96-.77,1.73-1.63,1.73h-7.12c-.86,0-1.35-.78-1.35-1.73v-.09c0-.96.49-1.54,1.35-1.54h7.12c.86,0,1.63.58,1.63,1.54v.09Z"/>
        <path class="cls-7" d="M1489.24,15.04c0,.96-.81,1.73-1.67,1.73h-7.12c-.86,0-1.73-.78-1.73-1.73v-.09c0-.96.87-1.54,1.73-1.54h7.12c.86,0,1.67.58,1.67,1.54v.09Z"/>
        <path class="cls-68" d="M1471.98,15.04c0,.96-.91,1.73-1.77,1.73h-7.12c-.86,0-1.64-.78-1.64-1.73v-.09c0-.96.78-1.54,1.64-1.54h7.12c.86,0,1.77.58,1.77,1.54v.09Z"/>
        <path class="cls-125" d="M1454.29,15.04c0,.96-.58,1.73-1.44,1.73h-7.12c-.86,0-1.54-.78-1.54-1.73v-.09c0-.96.69-1.54,1.54-1.54h7.12c.86,0,1.44.58,1.44,1.54v.09Z"/>
        <path class="cls-45" d="M1437.45,15.04c0,.96-.65,1.73-1.51,1.73h-7.12c-.86,0-1.48-.78-1.48-1.73v-.09c0-.96.62-1.54,1.48-1.54h7.12c.86,0,1.51.58,1.51,1.54v.09Z"/>
        <path class="cls-14" d="M1420.19,15.04c0,.96-.74,1.73-1.6,1.73h-7.12c-.86,0-1.38-.78-1.38-1.73v-.09c0-.96.52-1.54,1.38-1.54h7.12c.86,0,1.6.58,1.6,1.54v.09Z"/>
        <path class="cls-98" d="M1403.35,15.04c0,.96-.81,1.73-1.67,1.73h-7.12c-.86,0-1.73-.78-1.73-1.73v-.09c0-.96.88-1.54,1.73-1.54h7.12c.86,0,1.67.58,1.67,1.54v.09Z"/>
        <path class="cls-110" d="M1386.09,15.04c0,.96-.9,1.73-1.76,1.73h-7.12c-.86,0-1.64-.78-1.64-1.73v-.09c0-.96.78-1.54,1.64-1.54h7.12c.86,0,1.76.58,1.76,1.54v.09Z"/>
        <path class="cls-38" d="M1368.41,15.04c0,.96-.57,1.73-1.43,1.73h-7.12c-.86,0-1.55-.78-1.55-1.73v-.09c0-.96.69-1.54,1.55-1.54h7.12c.86,0,1.43.58,1.43,1.54v.09Z"/>
        <path class="cls-62" d="M1351.57,15.04c0,.96-.64,1.73-1.5,1.73h-7.12c-.86,0-1.48-.78-1.48-1.73v-.09c0-.96.62-1.54,1.48-1.54h7.12c.86,0,1.5.58,1.5,1.54v.09Z"/>
        <path class="cls-150" d="M1334.3,15.04c0,.96-.73,1.73-1.59,1.73h-7.12c-.86,0-1.39-.78-1.39-1.73v-.09c0-.96.53-1.54,1.39-1.54h7.12c.86,0,1.59.58,1.59,1.54v.09Z"/>
        <path class="cls-15" d="M1317.04,15.04c0,.96-.83,1.73-1.69,1.73h-7.12c-.86,0-1.72-.78-1.72-1.73v-.09c0-.96.86-1.54,1.72-1.54h7.12c.86,0,1.69.58,1.69,1.54v.09Z"/>
        <path class="cls-168" d="M1300.2,15.04c0,.96-.9,1.73-1.76,1.73h-7.12c-.86,0-1.65-.78-1.65-1.73v-.09c0-.96.79-1.54,1.65-1.54h7.12c.86,0,1.76.58,1.76,1.54v.09Z"/>
      </g>
      <g>
        <path class="cls-115" d="M1853.79,13.95c0,.57-.42,1.13-1.08,1.13h-326.45c-.66,0-1.28-.56-1.28-1.13v-.15c0-.57.62-1.24,1.28-1.24h326.45c.66,0,1.08.67,1.08,1.24v.15Z"/>
        <path class="cls-42" d="M1852.11,15.04c0,.96-.68,1.73-1.54,1.73h-7.12c-.86,0-1.44-.78-1.44-1.73v-.09c0-.96.58-1.54,1.44-1.54h7.12c.86,0,1.54.58,1.54,1.54v.09Z"/>
        <path class="cls-179" d="M1835.27,15.04c0,.96-.75,1.73-1.61,1.73h-7.12c-.86,0-1.37-.78-1.37-1.73v-.09c0-.96.51-1.54,1.37-1.54h7.12c.86,0,1.61.58,1.61,1.54v.09Z"/>
        <path class="cls-55" d="M1818.01,15.04c0,.96-.84,1.73-1.7,1.73h-7.12c-.86,0-1.7-.78-1.7-1.73v-.09c0-.96.84-1.54,1.7-1.54h7.12c.86,0,1.7.58,1.7,1.54v.09Z"/>
        <path class="cls-37" d="M1800.74,15.04c0,.96-.49,1.73-1.35,1.73h-7.12c-.86,0-1.63-.78-1.63-1.73v-.09c0-.96.77-1.54,1.63-1.54h7.12c.86,0,1.35.58,1.35,1.54v.09Z"/>
        <path class="cls-120" d="M1783.48,15.04c0,.96-.58,1.73-1.44,1.73h-7.12c-.86,0-1.54-.78-1.54-1.73v-.09c0-.96.68-1.54,1.54-1.54h7.12c.86,0,1.44.58,1.44,1.54v.09Z"/>
        <path class="cls-41" d="M1766.64,15.04c0,.96-.65,1.73-1.51,1.73h-7.12c-.86,0-1.47-.78-1.47-1.73v-.09c0-.96.61-1.54,1.47-1.54h7.12c.86,0,1.51.58,1.51,1.54v.09Z"/>
        <path class="cls-160" d="M1748.96,15.04c0,.96-.77,1.73-1.63,1.73h-7.12c-.86,0-1.35-.78-1.35-1.73v-.09c0-.96.49-1.54,1.35-1.54h7.12c.86,0,1.63.58,1.63,1.54v.09Z"/>
        <path class="cls-197" d="M1732.54,15.04c0,.96-.81,1.73-1.67,1.73h-7.12c-.86,0-1.73-.78-1.73-1.73v-.09c0-.96.87-1.54,1.73-1.54h7.12c.86,0,1.67.58,1.67,1.54v.09Z"/>
        <path class="cls-162" d="M1715.28,15.04c0,.96-.91,1.73-1.77,1.73h-7.12c-.86,0-1.64-.78-1.64-1.73v-.09c0-.96.78-1.54,1.64-1.54h7.12c.86,0,1.77.58,1.77,1.54v.09Z"/>
        <path class="cls-82" d="M1697.6,15.04c0,.96-.58,1.73-1.44,1.73h-7.12c-.86,0-1.54-.78-1.54-1.73v-.09c0-.96.69-1.54,1.54-1.54h7.12c.86,0,1.44.58,1.44,1.54v.09Z"/>
        <path class="cls-196" d="M1680.75,15.04c0,.96-.65,1.73-1.51,1.73h-7.12c-.86,0-1.48-.78-1.48-1.73v-.09c0-.96.62-1.54,1.48-1.54h7.12c.86,0,1.51.58,1.51,1.54v.09Z"/>
        <path class="cls-182" d="M1663.49,15.04c0,.96-.74,1.73-1.6,1.73h-7.12c-.86,0-1.38-.78-1.38-1.73v-.09c0-.96.52-1.54,1.38-1.54h7.12c.86,0,1.6.58,1.6,1.54v.09Z"/>
        <path class="cls-164" d="M1646.65,15.04c0,.96-.81,1.73-1.67,1.73h-7.12c-.86,0-1.73-.78-1.73-1.73v-.09c0-.96.88-1.54,1.73-1.54h7.12c.86,0,1.67.58,1.67,1.54v.09Z"/>
        <path class="cls-142" d="M1629.39,15.04c0,.96-.9,1.73-1.76,1.73h-7.12c-.86,0-1.64-.78-1.64-1.73v-.09c0-.96.78-1.54,1.64-1.54h7.12c.86,0,1.76.58,1.76,1.54v.09Z"/>
        <path class="cls-190" d="M1611.71,15.04c0,.96-.57,1.73-1.43,1.73h-7.12c-.86,0-1.55-.78-1.55-1.73v-.09c0-.96.69-1.54,1.55-1.54h7.12c.86,0,1.43.58,1.43,1.54v.09Z"/>
        <path class="cls-194" d="M1594.87,15.04c0,.96-.64,1.73-1.5,1.73h-7.12c-.86,0-1.48-.78-1.48-1.73v-.09c0-.96.62-1.54,1.48-1.54h7.12c.86,0,1.5.58,1.5,1.54v.09Z"/>
        <path class="cls-127" d="M1577.61,15.04c0,.96-.73,1.73-1.59,1.73h-7.12c-.86,0-1.39-.78-1.39-1.73v-.09c0-.96.53-1.54,1.39-1.54h7.12c.86,0,1.59.58,1.59,1.54v.09Z"/>
        <path class="cls-181" d="M1560.34,15.04c0,.96-.83,1.73-1.69,1.73h-7.12c-.86,0-1.72-.78-1.72-1.73v-.09c0-.96.86-1.54,1.72-1.54h7.12c.86,0,1.69.58,1.69,1.54v.09Z"/>
        <path class="cls-106" d="M1543.5,15.04c0,.96-.9,1.73-1.76,1.73h-7.12c-.86,0-1.65-.78-1.65-1.73v-.09c0-.96.79-1.54,1.65-1.54h7.12c.86,0,1.76.58,1.76,1.54v.09Z"/>
      </g>
      <g>
        <path class="cls-66" d="M2182.13,13.95c0,.57-.42,1.13-1.08,1.13h-326.45c-.66,0-1.28-.56-1.28-1.13v-.15c0-.57.62-1.24,1.28-1.24h326.45c.66,0,1.08.67,1.08,1.24v.15Z"/>
        <path class="cls-146" d="M2180.45,15.04c0,.96-.68,1.73-1.54,1.73h-7.12c-.86,0-1.44-.78-1.44-1.73v-.09c0-.96.58-1.54,1.44-1.54h7.12c.86,0,1.54.58,1.54,1.54v.09Z"/>
        <path class="cls-61" d="M2163.61,15.04c0,.96-.75,1.73-1.61,1.73h-7.12c-.86,0-1.37-.78-1.37-1.73v-.09c0-.96.51-1.54,1.37-1.54h7.12c.86,0,1.61.58,1.61,1.54v.09Z"/>
        <path class="cls-183" d="M2146.34,15.04c0,.96-.84,1.73-1.7,1.73h-7.12c-.86,0-1.7-.78-1.7-1.73v-.09c0-.96.84-1.54,1.7-1.54h7.12c.86,0,1.7.58,1.7,1.54v.09Z"/>
        <path class="cls-32" d="M2129.08,15.04c0,.96-.49,1.73-1.35,1.73h-7.12c-.86,0-1.63-.78-1.63-1.73v-.09c0-.96.77-1.54,1.63-1.54h7.12c.86,0,1.35.58,1.35,1.54v.09Z"/>
        <path class="cls-109" d="M2111.82,15.04c0,.96-.58,1.73-1.44,1.73h-7.12c-.86,0-1.54-.78-1.54-1.73v-.09c0-.96.68-1.54,1.54-1.54h7.12c.86,0,1.44.58,1.44,1.54v.09Z"/>
        <path class="cls-73" d="M2094.98,15.04c0,.96-.65,1.73-1.51,1.73h-7.12c-.86,0-1.47-.78-1.47-1.73v-.09c0-.96.61-1.54,1.47-1.54h7.12c.86,0,1.51.58,1.51,1.54v.09Z"/>
        <path class="cls-3" d="M2077.3,15.04c0,.96-.77,1.73-1.63,1.73h-7.12c-.86,0-1.35-.78-1.35-1.73v-.09c0-.96.49-1.54,1.35-1.54h7.12c.86,0,1.63.58,1.63,1.54v.09Z"/>
        <path class="cls-185" d="M2060.88,15.04c0,.96-.81,1.73-1.67,1.73h-7.12c-.86,0-1.73-.78-1.73-1.73v-.09c0-.96.87-1.54,1.73-1.54h7.12c.86,0,1.67.58,1.67,1.54v.09Z"/>
        <path class="cls-152" d="M2043.62,15.04c0,.96-.91,1.73-1.77,1.73h-7.12c-.86,0-1.64-.78-1.64-1.73v-.09c0-.96.78-1.54,1.64-1.54h7.12c.86,0,1.77.58,1.77,1.54v.09Z"/>
        <path class="cls-65" d="M2025.93,15.04c0,.96-.58,1.73-1.44,1.73h-7.12c-.86,0-1.54-.78-1.54-1.73v-.09c0-.96.69-1.54,1.54-1.54h7.12c.86,0,1.44.58,1.44,1.54v.09Z"/>
        <path class="cls-117" d="M2009.09,15.04c0,.96-.65,1.73-1.51,1.73h-7.12c-.86,0-1.48-.78-1.48-1.73v-.09c0-.96.62-1.54,1.48-1.54h7.12c.86,0,1.51.58,1.51,1.54v.09Z"/>
        <path class="cls-6" d="M1991.83,15.04c0,.96-.74,1.73-1.6,1.73h-7.12c-.86,0-1.38-.78-1.38-1.73v-.09c0-.96.52-1.54,1.38-1.54h7.12c.86,0,1.6.58,1.6,1.54v.09Z"/>
        <path class="cls-51" d="M1974.99,15.04c0,.96-.81,1.73-1.67,1.73h-7.12c-.86,0-1.73-.78-1.73-1.73v-.09c0-.96.88-1.54,1.73-1.54h7.12c.86,0,1.67.58,1.67,1.54v.09Z"/>
        <path class="cls-113" d="M1957.73,15.04c0,.96-.9,1.73-1.76,1.73h-7.12c-.86,0-1.64-.78-1.64-1.73v-.09c0-.96.78-1.54,1.64-1.54h7.12c.86,0,1.76.58,1.76,1.54v.09Z"/>
        <path class="cls-191" d="M1940.05,15.04c0,.96-.57,1.73-1.43,1.73h-7.12c-.86,0-1.55-.78-1.55-1.73v-.09c0-.96.69-1.54,1.55-1.54h7.12c.86,0,1.43.58,1.43,1.54v.09Z"/>
        <path class="cls-35" d="M1923.21,15.04c0,.96-.64,1.73-1.5,1.73h-7.12c-.86,0-1.48-.78-1.48-1.73v-.09c0-.96.62-1.54,1.48-1.54h7.12c.86,0,1.5.58,1.5,1.54v.09Z"/>
        <path class="cls-13" d="M1905.94,15.04c0,.96-.73,1.73-1.59,1.73h-7.12c-.86,0-1.39-.78-1.39-1.73v-.09c0-.96.53-1.54,1.39-1.54h7.12c.86,0,1.59.58,1.59,1.54v.09Z"/>
        <path class="cls-21" d="M1888.68,15.04c0,.96-.83,1.73-1.69,1.73h-7.12c-.86,0-1.72-.78-1.72-1.73v-.09c0-.96.86-1.54,1.72-1.54h7.12c.86,0,1.69.58,1.69,1.54v.09Z"/>
        <path class="cls-16" d="M1871.84,15.04c0,.96-.9,1.73-1.76,1.73h-7.12c-.86,0-1.65-.78-1.65-1.73v-.09c0-.96.79-1.54,1.65-1.54h7.12c.86,0,1.76.58,1.76,1.54v.09Z"/>
      </g>
      <g>
        <path class="cls-156" d="M2511.69,13.95c0,.57-.42,1.13-1.08,1.13h-326.45c-.66,0-1.28-.56-1.28-1.13v-.15c0-.57.62-1.24,1.28-1.24h326.45c.66,0,1.08.67,1.08,1.24v.15Z"/>
        <path class="cls-83" d="M2510,15.04c0,.96-.68,1.73-1.54,1.73h-7.12c-.86,0-1.44-.78-1.44-1.73v-.09c0-.96.58-1.54,1.44-1.54h7.12c.86,0,1.54.58,1.54,1.54v.09Z"/>
        <path class="cls-122" d="M2493.16,15.04c0,.96-.75,1.73-1.61,1.73h-7.12c-.86,0-1.37-.78-1.37-1.73v-.09c0-.96.51-1.54,1.37-1.54h7.12c.86,0,1.61.58,1.61,1.54v.09Z"/>
        <path class="cls-108" d="M2475.9,15.04c0,.96-.84,1.73-1.7,1.73h-7.12c-.86,0-1.7-.78-1.7-1.73v-.09c0-.96.84-1.54,1.7-1.54h7.12c.86,0,1.7.58,1.7,1.54v.09Z"/>
        <path class="cls-198" d="M2458.64,15.04c0,.96-.49,1.73-1.35,1.73h-7.12c-.86,0-1.63-.78-1.63-1.73v-.09c0-.96.77-1.54,1.63-1.54h7.12c.86,0,1.35.58,1.35,1.54v.09Z"/>
        <path class="cls-163" d="M2441.38,15.04c0,.96-.58,1.73-1.44,1.73h-7.12c-.86,0-1.54-.78-1.54-1.73v-.09c0-.96.68-1.54,1.54-1.54h7.12c.86,0,1.44.58,1.44,1.54v.09Z"/>
        <path class="cls-94" d="M2424.54,15.04c0,.96-.65,1.73-1.51,1.73h-7.12c-.86,0-1.47-.78-1.47-1.73v-.09c0-.96.61-1.54,1.47-1.54h7.12c.86,0,1.51.58,1.51,1.54v.09Z"/>
        <path class="cls-71" d="M2406.85,15.04c0,.96-.77,1.73-1.63,1.73h-7.12c-.86,0-1.35-.78-1.35-1.73v-.09c0-.96.49-1.54,1.35-1.54h7.12c.86,0,1.63.58,1.63,1.54v.09Z"/>
        <path class="cls-104" d="M2390.43,15.04c0,.96-.81,1.73-1.67,1.73h-7.12c-.86,0-1.73-.78-1.73-1.73v-.09c0-.96.87-1.54,1.73-1.54h7.12c.86,0,1.67.58,1.67,1.54v.09Z"/>
        <path class="cls-23" d="M2373.17,15.04c0,.96-.91,1.73-1.77,1.73h-7.12c-.86,0-1.64-.78-1.64-1.73v-.09c0-.96.78-1.54,1.64-1.54h7.12c.86,0,1.77.58,1.77,1.54v.09Z"/>
        <path class="cls-170" d="M2355.49,15.04c0,.96-.58,1.73-1.44,1.73h-7.12c-.86,0-1.54-.78-1.54-1.73v-.09c0-.96.69-1.54,1.54-1.54h7.12c.86,0,1.44.58,1.44,1.54v.09Z"/>
        <path class="cls-47" d="M2338.65,15.04c0,.96-.65,1.73-1.51,1.73h-7.12c-.86,0-1.48-.78-1.48-1.73v-.09c0-.96.62-1.54,1.48-1.54h7.12c.86,0,1.51.58,1.51,1.54v.09Z"/>
        <path class="cls-114" d="M2321.39,15.04c0,.96-.74,1.73-1.6,1.73h-7.12c-.86,0-1.38-.78-1.38-1.73v-.09c0-.96.52-1.54,1.38-1.54h7.12c.86,0,1.6.58,1.6,1.54v.09Z"/>
        <path class="cls-19" d="M2304.55,15.04c0,.96-.81,1.73-1.67,1.73h-7.12c-.86,0-1.73-.78-1.73-1.73v-.09c0-.96.88-1.54,1.73-1.54h7.12c.86,0,1.67.58,1.67,1.54v.09Z"/>
        <path class="cls-59" d="M2287.28,15.04c0,.96-.9,1.73-1.76,1.73h-7.12c-.86,0-1.64-.78-1.64-1.73v-.09c0-.96.78-1.54,1.64-1.54h7.12c.86,0,1.76.58,1.76,1.54v.09Z"/>
        <path class="cls-123" d="M2269.6,15.04c0,.96-.57,1.73-1.43,1.73h-7.12c-.86,0-1.55-.78-1.55-1.73v-.09c0-.96.69-1.54,1.55-1.54h7.12c.86,0,1.43.58,1.43,1.54v.09Z"/>
        <path class="cls-93" d="M2252.76,15.04c0,.96-.64,1.73-1.5,1.73h-7.12c-.86,0-1.48-.78-1.48-1.73v-.09c0-.96.62-1.54,1.48-1.54h7.12c.86,0,1.5.58,1.5,1.54v.09Z"/>
        <path class="cls-26" d="M2235.5,15.04c0,.96-.73,1.73-1.59,1.73h-7.12c-.86,0-1.39-.78-1.39-1.73v-.09c0-.96.53-1.54,1.39-1.54h7.12c.86,0,1.59.58,1.59,1.54v.09Z"/>
        <path class="cls-193" d="M2218.24,15.04c0,.96-.83,1.73-1.69,1.73h-7.12c-.86,0-1.72-.78-1.72-1.73v-.09c0-.96.86-1.54,1.72-1.54h7.12c.86,0,1.69.58,1.69,1.54v.09Z"/>
        <path class="cls-4" d="M2201.4,15.04c0,.96-.9,1.73-1.76,1.73h-7.12c-.86,0-1.65-.78-1.65-1.73v-.09c0-.96.79-1.54,1.65-1.54h7.12c.86,0,1.76.58,1.76,1.54v.09Z"/>
      </g>
      <g>
        <path class="cls-33" d="M2840.02,13.95c0,.57-.42,1.13-1.08,1.13h-326.45c-.66,0-1.28-.56-1.28-1.13v-.15c0-.57.62-1.24,1.28-1.24h326.45c.66,0,1.08.67,1.08,1.24v.15Z"/>
        <path class="cls-135" d="M2838.34,15.04c0,.96-.68,1.73-1.54,1.73h-7.12c-.86,0-1.44-.78-1.44-1.73v-.09c0-.96.58-1.54,1.44-1.54h7.12c.86,0,1.54.58,1.54,1.54v.09Z"/>
        <path class="cls-116" d="M2821.5,15.04c0,.96-.75,1.73-1.61,1.73h-7.12c-.86,0-1.37-.78-1.37-1.73v-.09c0-.96.51-1.54,1.37-1.54h7.12c.86,0,1.61.58,1.61,1.54v.09Z"/>
        <path class="cls-100" d="M2804.24,15.04c0,.96-.84,1.73-1.7,1.73h-7.12c-.86,0-1.7-.78-1.7-1.73v-.09c0-.96.84-1.54,1.7-1.54h7.12c.86,0,1.7.58,1.7,1.54v.09Z"/>
        <path class="cls-50" d="M2786.98,15.04c0,.96-.49,1.73-1.35,1.73h-7.12c-.86,0-1.63-.78-1.63-1.73v-.09c0-.96.77-1.54,1.63-1.54h7.12c.86,0,1.35.58,1.35,1.54v.09Z"/>
        <path class="cls-64" d="M2769.71,15.04c0,.96-.58,1.73-1.44,1.73h-7.12c-.86,0-1.54-.78-1.54-1.73v-.09c0-.96.68-1.54,1.54-1.54h7.12c.86,0,1.44.58,1.44,1.54v.09Z"/>
        <path class="cls-187" d="M2752.87,15.04c0,.96-.65,1.73-1.51,1.73h-7.12c-.86,0-1.47-.78-1.47-1.73v-.09c0-.96.61-1.54,1.47-1.54h7.12c.86,0,1.51.58,1.51,1.54v.09Z"/>
        <path class="cls-18" d="M2735.19,15.04c0,.96-.77,1.73-1.63,1.73h-7.12c-.86,0-1.35-.78-1.35-1.73v-.09c0-.96.49-1.54,1.35-1.54h7.12c.86,0,1.63.58,1.63,1.54v.09Z"/>
        <path class="cls-157" d="M2718.77,15.04c0,.96-.81,1.73-1.67,1.73h-7.12c-.86,0-1.73-.78-1.73-1.73v-.09c0-.96.87-1.54,1.73-1.54h7.12c.86,0,1.67.58,1.67,1.54v.09Z"/>
        <path class="cls-178" d="M2701.51,15.04c0,.96-.91,1.73-1.77,1.73h-7.12c-.86,0-1.64-.78-1.64-1.73v-.09c0-.96.78-1.54,1.64-1.54h7.12c.86,0,1.77.58,1.77,1.54v.09Z"/>
        <path class="cls-63" d="M2683.83,15.04c0,.96-.58,1.73-1.44,1.73h-7.12c-.86,0-1.54-.78-1.54-1.73v-.09c0-.96.69-1.54,1.54-1.54h7.12c.86,0,1.44.58,1.44,1.54v.09Z"/>
        <path class="cls-158" d="M2666.99,15.04c0,.96-.65,1.73-1.51,1.73h-7.12c-.86,0-1.48-.78-1.48-1.73v-.09c0-.96.62-1.54,1.48-1.54h7.12c.86,0,1.51.58,1.51,1.54v.09Z"/>
        <path class="cls-99" d="M2649.72,15.04c0,.96-.74,1.73-1.6,1.73h-7.12c-.86,0-1.38-.78-1.38-1.73v-.09c0-.96.52-1.54,1.38-1.54h7.12c.86,0,1.6.58,1.6,1.54v.09Z"/>
        <path class="cls-138" d="M2632.88,15.04c0,.96-.81,1.73-1.67,1.73h-7.12c-.86,0-1.73-.78-1.73-1.73v-.09c0-.96.88-1.54,1.73-1.54h7.12c.86,0,1.67.58,1.67,1.54v.09Z"/>
        <path class="cls-171" d="M2615.62,15.04c0,.96-.9,1.73-1.76,1.73h-7.12c-.86,0-1.64-.78-1.64-1.73v-.09c0-.96.78-1.54,1.64-1.54h7.12c.86,0,1.76.58,1.76,1.54v.09Z"/>
        <path class="cls-11" d="M2597.94,15.04c0,.96-.57,1.73-1.43,1.73h-7.12c-.86,0-1.55-.78-1.55-1.73v-.09c0-.96.69-1.54,1.55-1.54h7.12c.86,0,1.43.58,1.43,1.54v.09Z"/>
        <path class="cls-184" d="M2581.1,15.04c0,.96-.64,1.73-1.5,1.73h-7.12c-.86,0-1.48-.78-1.48-1.73v-.09c0-.96.62-1.54,1.48-1.54h7.12c.86,0,1.5.58,1.5,1.54v.09Z"/>
        <path class="cls-177" d="M2563.84,15.04c0,.96-.73,1.73-1.59,1.73h-7.12c-.86,0-1.39-.78-1.39-1.73v-.09c0-.96.53-1.54,1.39-1.54h7.12c.86,0,1.59.58,1.59,1.54v.09Z"/>
        <path class="cls-126" d="M2546.58,15.04c0,.96-.83,1.73-1.69,1.73h-7.12c-.86,0-1.72-.78-1.72-1.73v-.09c0-.96.86-1.54,1.72-1.54h7.12c.86,0,1.69.58,1.69,1.54v.09Z"/>
        <path class="cls-52" d="M2529.74,15.04c0,.96-.9,1.73-1.76,1.73h-7.12c-.86,0-1.65-.78-1.65-1.73v-.09c0-.96.79-1.54,1.65-1.54h7.12c.86,0,1.76.58,1.76,1.54v.09Z"/>
      </g>
    </g>
    <g>
      <path class="cls-131" d="M3165.47,13.95c0,.57-.42,1.13-1.08,1.13h-326.45c-.66,0-1.28-.56-1.28-1.13v-.15c0-.57.62-1.24,1.28-1.24h326.45c.66,0,1.08.67,1.08,1.24v.15Z"/>
      <path class="cls-30" d="M3129.68,15.04c0,.96-.84,1.73-1.7,1.73h-7.12c-.86,0-1.7-.78-1.7-1.73v-.09c0-.96.84-1.54,1.7-1.54h7.12c.86,0,1.7.58,1.7,1.54v.09Z"/>
      <path class="cls-165" d="M3112.42,15.04c0,.96-.49,1.73-1.35,1.73h-7.12c-.86,0-1.63-.78-1.63-1.73v-.09c0-.96.77-1.54,1.63-1.54h7.12c.86,0,1.35.58,1.35,1.54v.09Z"/>
      <path class="cls-118" d="M3095.16,15.04c0,.96-.58,1.73-1.44,1.73h-7.12c-.86,0-1.54-.78-1.54-1.73v-.09c0-.96.68-1.54,1.54-1.54h7.12c.86,0,1.44.58,1.44,1.54v.09Z"/>
      <path class="cls-34" d="M3078.32,15.04c0,.96-.65,1.73-1.51,1.73h-7.12c-.86,0-1.47-.78-1.47-1.73v-.09c0-.96.61-1.54,1.47-1.54h7.12c.86,0,1.51.58,1.51,1.54v.09Z"/>
      <path class="cls-91" d="M3060.63,15.04c0,.96-.77,1.73-1.63,1.73h-7.12c-.86,0-1.35-.78-1.35-1.73v-.09c0-.96.49-1.54,1.35-1.54h7.12c.86,0,1.63.58,1.63,1.54v.09Z"/>
      <path class="cls-188" d="M3044.21,15.04c0,.96-.81,1.73-1.67,1.73h-7.12c-.86,0-1.73-.78-1.73-1.73v-.09c0-.96.87-1.54,1.73-1.54h7.12c.86,0,1.67.58,1.67,1.54v.09Z"/>
      <path class="cls-49" d="M3026.95,15.04c0,.96-.91,1.73-1.77,1.73h-7.12c-.86,0-1.64-.78-1.64-1.73v-.09c0-.96.78-1.54,1.64-1.54h7.12c.86,0,1.77.58,1.77,1.54v.09Z"/>
      <path class="cls-46" d="M3009.27,15.04c0,.96-.58,1.73-1.44,1.73h-7.12c-.86,0-1.54-.78-1.54-1.73v-.09c0-.96.69-1.54,1.54-1.54h7.12c.86,0,1.44.58,1.44,1.54v.09Z"/>
      <path class="cls-192" d="M2992.43,15.04c0,.96-.65,1.73-1.51,1.73h-7.12c-.86,0-1.48-.78-1.48-1.73v-.09c0-.96.62-1.54,1.48-1.54h7.12c.86,0,1.51.58,1.51,1.54v.09Z"/>
      <path class="cls-27" d="M2975.17,15.04c0,.96-.74,1.73-1.6,1.73h-7.12c-.86,0-1.38-.78-1.38-1.73v-.09c0-.96.52-1.54,1.38-1.54h7.12c.86,0,1.6.58,1.6,1.54v.09Z"/>
      <path class="cls-22" d="M2958.33,15.04c0,.96-.81,1.73-1.67,1.73h-7.12c-.86,0-1.73-.78-1.73-1.73v-.09c0-.96.88-1.54,1.73-1.54h7.12c.86,0,1.67.58,1.67,1.54v.09Z"/>
      <path class="cls-161" d="M2941.07,15.04c0,.96-.9,1.73-1.76,1.73h-7.12c-.86,0-1.64-.78-1.64-1.73v-.09c0-.96.78-1.54,1.64-1.54h7.12c.86,0,1.76.58,1.76,1.54v.09Z"/>
      <path class="cls-148" d="M2923.38,15.04c0,.96-.57,1.73-1.43,1.73h-7.12c-.86,0-1.55-.78-1.55-1.73v-.09c0-.96.69-1.54,1.55-1.54h7.12c.86,0,1.43.58,1.43,1.54v.09Z"/>
      <path class="cls-97" d="M2906.54,15.04c0,.96-.64,1.73-1.5,1.73h-7.12c-.86,0-1.48-.78-1.48-1.73v-.09c0-.96.62-1.54,1.48-1.54h7.12c.86,0,1.5.58,1.5,1.54v.09Z"/>
      <path class="cls-133" d="M2889.28,15.04c0,.96-.73,1.73-1.59,1.73h-7.12c-.86,0-1.39-.78-1.39-1.73v-.09c0-.96.53-1.54,1.39-1.54h7.12c.86,0,1.59.58,1.59,1.54v.09Z"/>
      <path class="cls-28" d="M2872.02,15.04c0,.96-.83,1.73-1.69,1.73h-7.12c-.86,0-1.72-.78-1.72-1.73v-.09c0-.96.86-1.54,1.72-1.54h7.12c.86,0,1.69.58,1.69,1.54v.09Z"/>
      <path class="cls-31" d="M2855.18,15.04c0,.96-.9,1.73-1.76,1.73h-7.12c-.86,0-1.65-.78-1.65-1.73v-.09c0-.96.79-1.54,1.65-1.54h7.12c.86,0,1.76.58,1.76,1.54v.09Z"/>
    </g>
  </g>
  <g class="cls-200">
    <path class="cls-70" d="M4648.77,22.86l-5.53-1.83-41.64,126.02V27.77h13.41v-11.65h-2354.23v11.65h25.53l-19.35,58.57c-8.13,9.55-14.91,20.28-20.06,31.89V27.77h13.41v-11.65H-93.94v11.65h225.64l18.04,54.6c-24-26.02-58.34-42.35-96.44-42.35H12.19c-72.36,0-131.23,58.87-131.23,131.23v94.04h4722.08v-94.04c0-3.03-.14-6.02-.34-9l46.07-139.4ZM4549.94,27.77l17.9,54.17c-23.98-25.76-58.14-41.92-96.03-41.92h-41.11c-37.89,0-72.05,16.16-96.03,41.92l17.9-54.17h197.36ZM4255.38,27.77l18.04,54.6c-24-26.01-58.34-42.34-96.43-42.34h-41.11c-38.09,0-72.44,16.33-96.43,42.34l18.04-54.6h197.89ZM3960.28,27.77l17.9,54.17c-23.98-25.76-58.14-41.92-96.03-41.92h-41.11c-38.1,0-72.44,16.33-96.43,42.34l18.04-54.6h197.63ZM3665.46,27.77l17.9,54.17c-23.98-25.76-58.14-41.92-96.03-41.92h-41.11c-37.89,0-72.05,16.16-96.03,41.92l17.9-54.18h197.36ZM3370.89,27.77l18.04,54.6c-24-26.01-58.34-42.34-96.43-42.34h-41.11c-38.1,0-72.44,16.33-96.44,42.35l18.04-54.6h197.89ZM3075.8,27.77l17.9,54.17c-23.98-25.76-58.14-41.92-96.03-41.92h-41.11c-37.89,0-72.06,16.16-96.03,41.92l17.9-54.18h197.37ZM2781.24,27.77l18.04,54.6c-24-26.01-58.34-42.34-96.43-42.34h-41.11c-37.89,0-72.05,16.16-96.03,41.92l17.9-54.18h197.63ZM2486.41,27.77l18.04,54.6c-24-26.02-58.34-42.35-96.44-42.35h-41.11c-35.06,0-66.96,13.82-90.52,36.3l16.05-48.56h193.98ZM2256.16,118.95l-9.29,28.1v-.28c1.98-9.74,5.13-19.06,9.29-27.82ZM2241.05,27.77v100.45c-4.24-12.18-10.22-23.54-17.65-33.79l-22.03-66.66h39.68ZM2195.23,27.77l17.9,54.17c-23.98-25.76-58.14-41.92-96.03-41.92h-41.11c-37.89,0-72.05,16.16-96.03,41.92l17.9-54.17h197.36ZM1900.67,27.77l18.04,54.6c-24-26.01-58.34-42.34-96.43-42.34h-41.11c-38.09,0-72.44,16.33-96.43,42.34l18.04-54.6h197.89ZM1605.57,27.77l17.9,54.17c-23.98-25.76-58.14-41.92-96.03-41.92h-41.11c-38.1,0-72.44,16.33-96.43,42.34l18.04-54.6h197.63ZM1310.74,27.77l17.9,54.17c-23.98-25.76-58.14-41.92-96.03-41.92h-41.11c-37.89,0-72.05,16.16-96.03,41.92l17.9-54.18h197.36ZM1016.18,27.77l18.04,54.6c-24-26.01-58.34-42.34-96.43-42.34h-41.11c-38.1,0-72.44,16.33-96.44,42.35l18.04-54.6h197.89ZM721.09,27.77l17.9,54.17c-23.98-25.76-58.14-41.92-96.03-41.92h-41.11c-37.89,0-72.06,16.16-96.03,41.92l17.9-54.18h197.37ZM426.52,27.77l18.04,54.6c-24-26.01-58.34-42.34-96.43-42.34h-41.11c-37.89,0-72.05,16.16-96.03,41.92l17.9-54.18h197.63ZM175.79,256.56H-110.3v-85.3c0-67.54,54.95-122.49,122.49-122.49h41.11c44.5,0,83.53,23.86,104.98,59.46l16.93,51.23c.37,3.89.58,7.82.58,11.81v85.3ZM177.25,128.22c-4.15-11.9-9.96-23.03-17.16-33.1l-22.26-67.35h39.42v100.45ZM183.08,128.22V27.77h39.68l-22.03,66.65c-7.43,10.26-13.42,21.62-17.66,33.8ZM470.62,256.56H184.53v-85.3c0-3.63.19-7.21.5-10.75l17.59-53.23c21.57-35.07,60.3-58.51,104.4-58.51h41.11c44.5,0,83.52,23.86,104.97,59.44l16.94,51.25c.37,3.88.58,7.81.58,11.79v85.3ZM472.08,128.22c-4.15-11.91-9.96-23.03-17.16-33.11l-22.26-67.34h39.42v100.45ZM477.91,128.22V27.77h39.68l-22.03,66.66c-7.43,10.25-13.41,21.62-17.65,33.79ZM765.45,256.56h-286.09v-85.3c0-3.63.19-7.21.5-10.76l17.58-53.21c21.57-35.07,60.3-58.51,104.4-58.51h41.11c44.1,0,82.83,23.44,104.4,58.5l17.59,53.23c.31,3.55.5,7.13.5,10.75v85.3ZM766.91,128.22c-4.24-12.18-10.22-23.54-17.66-33.8l-22.03-66.65h39.68v100.45ZM772.73,128.22V27.77h39.42l-22.26,67.35c-7.2,10.07-13.01,21.19-17.16,33.1ZM1060.28,256.56h-286.09v-85.3c0-3.98.21-7.92.58-11.81l16.93-51.23c21.45-35.59,60.48-59.46,104.98-59.46h41.11c44.5,0,83.52,23.86,104.97,59.44l16.94,51.25c.37,3.88.58,7.81.58,11.79v85.3ZM1061.74,128.22c-4.15-11.91-9.96-23.03-17.17-33.11l-22.25-67.34h39.42v100.45ZM1067.56,128.22V27.77h39.68l-22.03,66.66c-7.43,10.25-13.41,21.61-17.65,33.79ZM1355.11,256.56h-286.09v-85.3c0-3.63.19-7.21.5-10.76l17.59-53.21c21.57-35.07,60.3-58.51,104.4-58.51h41.11c44.1,0,82.83,23.44,104.4,58.5l17.59,53.23c.31,3.55.5,7.13.5,10.75v85.3ZM1356.56,128.22c-4.24-12.18-10.22-23.54-17.65-33.79l-22.03-66.66h39.68v100.45ZM1362.39,128.22V27.77h39.42l-22.26,67.35c-7.2,10.07-13.01,21.19-17.16,33.1ZM1649.93,256.56h-286.09v-85.3c0-3.98.21-7.91.58-11.79l16.94-51.25c21.45-35.59,60.48-59.44,104.97-59.44h41.11c44.1,0,82.83,23.44,104.4,58.51l17.59,53.22c.31,3.55.5,7.13.5,10.76v85.3ZM1651.39,128.22c-4.24-12.18-10.22-23.54-17.65-33.79l-22.03-66.66h39.68v100.45ZM1657.22,128.22V27.77h39.42l-22.26,67.35c-7.2,10.07-13.02,21.2-17.16,33.1ZM1944.76,256.56h-286.09v-85.3c0-3.98.21-7.91.58-11.79l16.94-51.26c21.45-35.58,60.48-59.44,104.97-59.44h41.11c44.5,0,83.52,23.86,104.97,59.44l16.94,51.25c.37,3.88.58,7.81.58,11.79v85.3ZM1946.22,128.22c-4.15-11.9-9.96-23.03-17.16-33.1l-22.26-67.35h39.42v100.45ZM1952.05,128.22V27.77h39.68l-22.03,66.66c-7.43,10.25-13.41,21.62-17.65,33.79ZM1953.5,256.56v-85.3c0-3.63.19-7.21.5-10.75l17.59-53.23c21.57-35.07,60.29-58.5,104.4-58.5h41.11c44.1,0,82.83,23.44,104.4,58.5l15.35,46.45c-.77,5.74-1.18,11.59-1.18,17.54v85.3h-282.17ZM2530.5,256.56h-282.17v-85.3c0-3.03-.14-6.02-.34-9l21.56-65.24c22.4-29.31,57.71-48.25,97.36-48.25h41.11c44.5,0,83.53,23.86,104.98,59.46l16.93,51.23c.37,3.89.58,7.82.58,11.81v85.3ZM2531.96,128.22c-4.15-11.9-9.96-23.03-17.16-33.1l-22.26-67.35h39.42v100.45ZM2537.79,128.22V27.77h39.68l-22.03,66.65c-7.43,10.26-13.42,21.62-17.66,33.8ZM2825.33,256.56h-286.09v-85.3c0-3.63.19-7.21.5-10.75l17.59-53.23c21.57-35.07,60.3-58.51,104.4-58.51h41.11c44.5,0,83.52,23.86,104.97,59.44l16.94,51.25c.37,3.88.58,7.81.58,11.79v85.3ZM2826.79,128.22c-4.15-11.91-9.96-23.03-17.16-33.11l-22.25-67.34h39.42v100.45ZM2832.62,128.22V27.77h39.68l-22.03,66.66c-7.43,10.25-13.41,21.62-17.65,33.79ZM3120.16,256.56h-286.09v-85.3c0-3.63.19-7.21.5-10.76l17.58-53.21c21.57-35.07,60.3-58.51,104.4-58.51h41.11c44.1,0,82.83,23.44,104.4,58.5l17.59,53.23c.31,3.55.5,7.13.5,10.75v85.3ZM3121.62,128.22c-4.24-12.18-10.22-23.54-17.66-33.8l-22.03-66.65h39.68v100.45ZM3127.45,128.22V27.77h39.42l-22.26,67.35c-7.2,10.07-13.01,21.19-17.16,33.1ZM3414.99,256.56h-286.09v-85.3c0-3.98.21-7.92.58-11.81l16.93-51.23c21.45-35.59,60.48-59.46,104.98-59.46h41.11c44.5,0,83.52,23.86,104.97,59.44l16.94,51.25c.37,3.88.58,7.81.58,11.79v85.3ZM3416.45,128.22c-4.15-11.91-9.96-23.03-17.17-33.11l-22.25-67.34h39.42v100.45ZM3422.28,128.22V27.77h39.68l-22.03,66.66c-7.43,10.25-13.41,21.61-17.65,33.79ZM3709.82,256.56h-286.09v-85.3c0-3.63.19-7.21.5-10.76l17.59-53.21c21.57-35.07,60.3-58.51,104.4-58.51h41.11c44.1,0,82.83,23.44,104.4,58.5l17.59,53.23c.31,3.55.5,7.13.5,10.75v85.3ZM3711.28,128.22c-4.24-12.18-10.22-23.54-17.65-33.79l-22.03-66.66h39.68v100.45ZM3717.1,128.22V27.77h39.42l-22.26,67.35c-7.2,10.07-13.01,21.19-17.16,33.1ZM4004.65,256.56h-286.09v-85.3c0-3.98.21-7.91.58-11.79l16.94-51.25c21.45-35.59,60.48-59.44,104.97-59.44h41.11c44.1,0,82.83,23.44,104.4,58.51l17.59,53.22c.31,3.55.5,7.13.5,10.76v85.3ZM4006.1,128.22c-4.24-12.18-10.22-23.54-17.65-33.79l-22.03-66.66h39.68v100.45ZM4011.93,128.22V27.77h39.42l-22.26,67.35c-7.2,10.07-13.02,21.2-17.16,33.1ZM4299.47,256.56h-286.09v-85.3c0-3.98.21-7.91.58-11.79l16.94-51.26c21.46-35.58,60.48-59.44,104.97-59.44h41.11c44.5,0,83.52,23.86,104.97,59.44l16.94,51.25c.37,3.88.58,7.81.58,11.79v85.3ZM4300.93,128.22c-4.15-11.9-9.96-23.03-17.16-33.1l-22.26-67.35h39.42v100.45ZM4306.76,128.22V27.77h39.68l-22.03,66.66c-7.43,10.25-13.41,21.62-17.65,33.79ZM4594.3,256.56h-286.09v-85.3c0-3.63.19-7.21.5-10.75l17.59-53.23c21.57-35.07,60.29-58.5,104.4-58.5h41.11c44.1,0,82.83,23.44,104.4,58.5l17.59,53.23c.31,3.55.5,7.13.5,10.75v85.3ZM4595.76,128.22c-4.24-12.18-10.22-23.54-17.65-33.79l-22.03-66.66h39.68v100.45Z"/>
  </g>
</svg>