<?xml version="1.0" encoding="UTF-8"?><svg xmlns="http://www.w3.org/2000/svg" xmlns:xlink="http://www.w3.org/1999/xlink" viewBox="0 0 117.8 212.8"><defs><style>.cls-1{fill:#383838;}.cls-2{fill:none;}.cls-3{isolation:isolate;}.cls-4{mix-blend-mode:screen;}.cls-5{clip-path:url(#clippath);}</style><clipPath id="clippath"><rect class="cls-2" x="-3520.7" y="278.4" width="8195.4" height="2063.9"/></clipPath></defs><g class="cls-3"><g id="card_1"><g class="cls-5"><image class="cls-4" width="8363" height="5406" transform="translate(-7791.4 -747.4)" xlink:href="Design for couple-09-1.png"/></g><path class="cls-1" d="M38.7,31.8v.5c.1,2.3,2,4.1,4.3,4.2,2.3,0,4.2-1.8,4.4-4.1v-.8c.2-.6,1.6-5.8-.8-7.4h0c-2.2-1.1-4.9-1.2-7.1-.2-1.2.3-2.2,1.3-2.7,2.5-.3,1.8.2,3.7,1.4,5.1.1,0,.2.1.4.1h0ZM43.1,35.6c-1.9,0-3.4-1.5-3.4-3.4v-.7l2.8-.6c.3,0,.4-.3.4-.6,0-.4,0-1.2.2-1.5.4.8.7,1.7.9,2.6,0,.2.2.4.5.4h2.1v.3h0c0,1.9-1.5,3.4-3.4,3.4h0ZM37.9,26.7c.2-.7.9-1.4,2.1-1.8h0c2-.9,4.2-.9,6.2,0,1.5,1,.9,4.5.5,6.1h-1.8c-.2-1-.7-2.6-1.4-3h0c-.2-.1-.5-.1-.7,0-.8.4-.9,1.5-.9,2.1l-2.9.6h0c-.9-1.1-1.3-2.6-1-4h0ZM55.9,33.1h2.7v2.6c0,.3,0,.6.2.9-1.8.4-3.1,1.9-3.1,3.7v7.3c0,.3.2.5.5.5s.5-.2.5-.5v-7.3c0-1.5,1.1-2.7,2.6-2.8.6.8,1.5,1.2,2.4,1.2s1.9-.5,2.4-1.2c1.5,0,2.6,1.3,2.6,2.8v7.3c0,.1,0,.3.1.3s.2.1.3.1.2,0,.3-.1.1-.2.1-.3v-7.3c0-1.8-1.3-3.4-3.1-3.7.1-.3.2-.5.2-.8v-2.2h2.6c.1,0,.2,0,.3-.1s.1-.2.1-.3v-5.4c0-1.3-1.1-2.3-2.3-2.4h-.8c-.3,0-.5-.1-.7-.3-.2-.2-.3-.5-.3-.7v-2.4c0-1.3-1.1-2.4-2.4-2.4s-2.4,1.1-2.4,2.4v2.3c0,.6-.5,1-1,1-1.3,0-2.4,1.1-2.4,2.4v5.2h0c0,.3.2.5.5.5h0ZM61.7,37.8c-1.2,0-2.1-.9-2.1-2.1v-6.1h4.1v6.1c0,1.1-.9,2-2.1,2.1h0ZM56.4,27.5c0-.8.6-1.4,1.4-1.4s1-.2,1.4-.6.6-.9.6-1.4v-2.3c0-.8.6-1.4,1.4-1.4s1.4.6,1.4,1.4v2.4c0,.5.2,1,.6,1.4s.9.6,1.4.6h.8c.8,0,1.4.6,1.4,1.4v4.9h-2v-3.4c0-.3-.2-.5-.5-.5h-5c-.3,0-.5.2-.5.5v3h-2.4s0-4.6,0-4.6ZM18.6,127.2c-1.2,0-2.4.3-3.3,1.2-.9.8-1.4,2-1.4,3.2s.5,2.4,1.4,3.2c.9.8,2.1,1.3,3.3,1.2h1.1v3.9h0c0,1.6,1.3,3,3,3s3-1.3,3-3v-3.9h3.3v3.9c0,1.6,1.3,3,3,3s3-1.3,3-3v-3.9h17.1v3.9h0c.1,1.6,1.4,2.8,3,2.8s2.9-1.2,3-2.8v-3.9h19.3v3.9c.1,1.6,1.4,2.8,3,2.8s2.9-1.2,3-2.8v-3.9h3.2v3.9c.1,1.6,1.4,2.8,3,2.8s2.9-1.2,3-2.8v-3.9h1.2c2.3-.2,4.1-2.1,4.1-4.4s-1.8-4.3-4.1-4.4h-3.7v-12.1c1.4-.2,2.5-1.5,2.5-2.9v-3.9h1.1c2.3-.2,4.1-2.1,4.1-4.4s-1.8-4.3-4.1-4.4h-12.9v-19.3c1.7-1,2.6-3,2.1-5-.5-1.9-2.3-3.3-4.3-3.3h-6.6c0-3.4.2-18.5-2.8-20.6h0c-1.9-1.6-3.1-3.8-3.5-6.2,0-.3-.3-.5-.6-.4-.3,0-.5.3-.4.6.2.8.4,1.6.7,2.4h-6.6c-.3,0-.5.2-.5.5s.2.5.5.5h7c.6,1.4,1.6,2.6,2.8,3.5,2.1,1.5,2.6,12.5,2.4,19.9h-19.1c-.2-7.4.3-18.4,2.4-19.9h0c2.1-1.7,3.5-4.2,3.9-6.9,0-.3-.2-.5-.4-.5-.1,0-.3,0-.4,0-.1,0-.2.2-.2.3-.4,2.4-1.6,4.6-3.5,6.2-.9,1-1.5,2.2-1.7,3.5-.2-4.7-.8-9.4-1.6-14-.5-2-1.3-3.3-2.1-3.7h0c-.3-.2-.7-.2-1,0-.1,0-.2.1-.3.3,0,.1,0,.3,0,.4,0,.1.1.2.2.3.1,0,.2,0,.4,0,0,0,.2,0,.4.2l-4.3,8.9-4.6-8.6c.4-.5.7-.6.8-.6h0c.2,0,.5,0,.6-.3,0-.1,0-.3,0-.4,0-.1-.1-.2-.3-.3-.3-.2-.7-.2-1,0-.9.4-1.6,1.6-2.1,3.7-.9,5.3-1.5,10.7-1.8,16,0,.1,0,.3.1.3,0,0,.2.2.3.2h2.9l1.9,14.6h-7.3c-2,0-3.7,1.4-4.2,3.3-.5,1.9.4,4,2.1,4.9v19.3h-12.8c-1.2,0-2.4.3-3.3,1.2-.9.8-1.4,2-1.4,3.2s.5,2.4,1.4,3.2c.9.8,2.1,1.3,3.3,1.2h1.1v3.9h0c0,1.5,1.1,2.7,2.5,2.9v12.1h-3.6ZM51.2,71.9h-3.6l1.4-14.6h2.8,0c-.5,4.8-.7,9.7-.6,14.6ZM40,56.8h0c0-.2-.2-.4-.5-.4h-2.9c.2-5.1.8-10.3,1.7-15.3.1-.5.3-1.1.5-1.6l4.7,8.9c0,.2.2.2.4.2.2,0,.4,0,.4-.2l4.5-9.3c.3.6.6,1.3.8,2.1.9,5.1,1.5,10.2,1.7,15.3h-2.8c-.2,0-.4.2-.5.4l-1.5,15.1h-4.7s-1.9-15.1-1.9-15.1ZM32.4,80.6c.4.1.8.2,1.2.2h1.1v3.8c0,1.6,1.3,3,3,3s3-1.3,3-3v-3.8h3.2v3.8c.1,1.6,1.4,2.8,3,2.8s2.9-1.2,3-2.8v-3.8h3.2v3.8c.1,1.6,1.4,2.8,3,2.8s2.9-1.2,3-2.8v-3.8h3.2v3.8c0,1.6,1.3,3,3,3s3-1.3,3-3v-3.8h3.2v3.8c.1,1.6,1.4,2.8,3,2.8s2.9-1.2,3-2.8v-3.8h1.1c.4,0,.8,0,1.2-.2v19h-47.4v-19ZM23.2,115.1c1.4-.2,2.5-1.5,2.5-2.9v-3.9h3.3v3.9c0,1.6,1.3,3,3,3s3-1.3,3-3v-3.9h17.1v3.9h0c.1,1.6,1.4,2.8,3,2.8s2.9-1.2,3-2.8v-3.9h19.3v3.9c.1,1.6,1.4,2.8,3,2.8s2.9-1.2,3-2.8v-3.9h3.2v3.9c0,1.5,1.1,2.7,2.5,2.9v12.1H23.2v-12.1ZM106.6,157.2h-16.5v-12.5c0-.3-.2-.5-.5-.5s-.5.2-.5.5v12.5H23.2v-12.5c0-.3-.2-.5-.5-.5s-.5.2-.5.5v12.5h-11c-.3,0-.5.2-.5.5,0,4.5,3.7,8.2,8.2,8.2h32.3v3.7c0,4.5-2.8,8.4-7,9.9-4,1.4-6.9,4.8-7.6,9l-.7,4.4c0,.1,0,.3.1.4,0,.1.2.2.4.2h45.2c.1,0,.3,0,.4-.2,0-.1.1-.2.1-.4l-.7-4.4c-.7-4.2-3.6-7.6-7.6-9-4.2-1.4-7.1-5.4-7.1-9.9v-3.7h32.3c4.5,0,8.2-3.7,8.2-8.2s0-.3-.1-.3-.2-.1-.3-.1h0ZM98.8,164.9h-32.6c-.3,0-.5.2-.5.5v4.1h0c0,4.9,3.1,9.2,7.7,10.8,3.6,1.3,6.3,4.4,6.9,8.2l.6,3.9h-44.2l.6-3.9c.6-3.8,3.3-7,6.9-8.2,4.6-1.6,7.7-5.9,7.7-10.8v-4.2c0-.1,0-.2-.1-.3s-.2-.1-.3-.1H18.9c-3.8,0-6.9-2.9-7.2-6.7h94.3c-.2,3.8-3.4,6.7-7.2,6.7h0ZM83.4,118.5s-4.8,4.3-18,3.2c-4-.3-5.6-1.2-6.2-1.9h0c1.7-.6,3.2-1.6,4.4-2.8.4-.4.5-1,.2-1.5-.4-.7-1.3-.8-2.5-.3-1.6.6-3.7,2.2-3.4,4.1-4.6,1.8-11.3,3.3-16.5,1.7h0c-.7-.2-1.3-.4-1.9-.8.9-.5,1.7-1.2,2.3-2.1.6-1,.7-1.8.2-2.3-.4-.5-1.2-.5-2.1-.2h0c-1.4.4-2.4,1.7-2.6,3.1,0,.5.2.9.5,1.3-3.3,1-6.8,1.2-10.2.8-.3,0-.5.2-.5.4,0,.3.1.5.4.5.3,0,6.7.9,11.1-1h0c.8.5,1.7.9,2.6,1.2,5.4,1.7,12.4.2,17.2-1.7.9,1.3,3.2,2.1,7,2.4,1.5.1,3,.2,4.3.2,10.4,0,14.3-3.5,14.4-3.7.2-.2.1-.5,0-.6-.2-.2-.4-.2-.6,0h0ZM38.1,118.7c0-.9,1-1.8,1.9-2.2h0c.2-.1.5-.2.8-.2,0,0,.2,0,.3,0,0,0,0,.4-.4,1.2h0c-.5.8-1.3,1.5-2.2,1.9-.2-.2-.3-.5-.3-.9h0ZM61.7,116.1c.3-.1.6-.2.9-.2.2,0,.4,0,.4.2s0,.2-.2.4h0c-1.1,1.1-2.5,2-3.9,2.5,0-1.1,1.4-2.3,2.8-2.8h0ZM29.9,147.6c-.3,0-.5.2-.6.4,0,.1,0,.3,0,.4,0,.1.2.2.3.2,3.7.5,7.5.2,11.1-1,.8.5,1.7,1,2.6,1.2,5.4,1.7,12.4.2,17.2-1.7.9,1.3,3.2,2.1,7,2.4,1.6.1,3,.2,4.3.2,10.4,0,14.3-3.5,14.4-3.7.2-.2.2-.5,0-.7-.2-.2-.5-.2-.7,0,0,0-4.8,4.3-18,3.2-4-.3-5.6-1.2-6.2-1.8,1.7-.6,3.2-1.6,4.4-2.8.4-.4.5-1,.2-1.5-.4-.7-1.3-.8-2.5-.3-1.6.6-3.7,2.2-3.4,4.1-4.6,1.9-11.3,3.3-16.5,1.7h0c-.7-.2-1.3-.5-1.9-.8.9-.5,1.7-1.3,2.2-2.2.6-1,.7-1.8.2-2.3-.4-.5-1.2-.5-2.1-.2-1.4.5-2.4,1.7-2.5,3.2,0,.5.2.9.5,1.3-3.3,1-6.8,1.2-10.2.7h0ZM64,143h0c.3-.1.6-.2.9-.2.2,0,.3,0,.4.2,0,0,0,.2-.2.4-1.2,1.1-2.5,1.9-4,2.5,0-1.1,1.4-2.3,2.7-2.8h0ZM42.5,143.3c.2,0,.5-.2.8-.2,0,0,.2,0,.3,0,0,0,0,.4-.3,1.2-.5.8-1.3,1.5-2.2,1.9-.3-.2-.4-.6-.4-.9-.1-.7,1-1.6,1.9-2h0ZM72.3,95.8h0c-1.8,0-3.6-.4-5.3-1,.6-.3,1.1-.8,1.5-1.3.8-.8.9-2,.5-3.1-.3-.6-1.1-.8-1.9-.5-1.5.4-2.6,1.8-2.6,3.4,0,.5.3,1,.7,1.3-3.6.9-7.4.7-10.8-.5-1.3-.3-2.6-.8-3.9-1.5,1.6-.7,2.9-1.5,3.1-2.5.1-.3,0-.7,0-1-.2-.3-.5-.5-.8-.6-1.3-.4-4,.5-4.5,2.1h0c-.2.5,0,1.1.3,1.5-2.7.8-5.5,1.4-8.4,1.8-.1,0-.2,0-.3.2,0,.1-.1.2,0,.4,0,.3.3.5.6.4,3.1-.4,6.1-1,9-1.9,1.4.9,3,1.6,4.7,1.9,6.1,1.7,9.8,1.2,12,.3,2,.9,4.1,1.4,6.2,1.4.3,0,.5-.2.5-.4,0-.3-.2-.5-.5-.5h0ZM49.1,91c.2-.8,1.8-1.5,2.8-1.5.2,0,.3,0,.4,0,.3,0,.2.2.2.3-.2.7-1.4,1.4-3.1,1.9-.3-.2-.5-.5-.4-.8h0ZM65.3,93.2c-.1-.9.9-1.9,1.9-2.3h0c.2,0,.3,0,.5,0,.2,0,.3,0,.3.1.2.7,0,1.4-.4,1.9-.5.6-1.1,1.1-1.7,1.4-.4-.3-.6-.7-.7-1.1h0Z"/></g></g></svg>