<?xml version="1.0" encoding="UTF-8"?><svg xmlns="http://www.w3.org/2000/svg" xmlns:xlink="http://www.w3.org/1999/xlink" viewBox="0 0 1011.3 698.7"><defs><style>.cls-1{opacity:.6;}.cls-1,.cls-2{fill:#fff;}.cls-3{fill:#383838;}.cls-4{fill:none;}.cls-5{isolation:isolate;}.cls-6{mix-blend-mode:screen;}.cls-7{clip-path:url(#clippath);}</style><clipPath id="clippath"><rect class="cls-4" x="-1687.6" y="959.3" width="8195.4" height="2063.9"/></clipPath></defs><g class="cls-5"><g id="card_1"><g class="cls-7"><image class="cls-6" width="8363" height="5406" transform="translate(-5958.3 -66.4)" xlink:href="Design for couple-10-1.png"/></g><rect class="cls-1" x="50.7" y="35" width="909.9" height="628.7" rx="49.9" ry="49.9"/><path class="cls-3" d="M181.3,444.1c3.9-9.2,12.8-15.7,23.1-15.7s23.9,11.9,25.2,26.1c0,0,.7,3.5-.8,9.9-2,8.6-6.8,16.3-13.3,22.2l-34.2,30.5-33.6-30.5c-6.5-5.9-11.3-13.5-13.3-22.2-1.5-6.3-.8-9.9-.8-9.9,1.3-14.2,11.3-26.1,25.2-26.1s18.6,6.4,22.5,15.7h0Z"/><g id="text30889" class="cls-5"><g class="cls-5"><path class="cls-3" d="M391.5,316.8c1.8-.5,4.1-1.1,6.8-1.1,5.8,0,9.5,2.9,9.5,7.6s-1.6,4.9-4.9,7.3l-7.8,5.8c-3.2,2.2-4.5,5.4-4.5,9h16.4c.2,0,.4.1.4.4v1.1c0,.2-.1.4-.4.4h-18c-.2,0-.4-.1-.4-.4v-1.3c0-4.4,1.5-8,5.3-10.7l7.9-5.7c2.7-1.9,3.9-3.8,3.9-5.8,0-3.5-3-5.8-7.6-5.8s-4.6.4-6.2,1l-2.1.7c-.2,0-.4,0-.5-.2l-.3-1c0-.2,0-.4.2-.5l2.1-.7Z"/></g></g><g id="text30889-2" class="cls-5"><g class="cls-5"><path class="cls-3" d="M502.6,316.7c1.9-.5,3.8-1,6.4-1,5.4,0,9.1,3,9.1,8s-1.4,5.6-4.4,6.8c-.5.2-.5.4,0,.5,3.4,1.1,5.3,4,5.3,7.9s-4,8.7-10.1,8.7-5-.6-6.8-1.1l-2.2-.7c-.2,0-.3-.2-.2-.5l.3-1c0-.2.3-.3.5-.3l2.1.7c1.6.5,3.9,1,6.3,1,4.9,0,8.1-2.7,8.1-6.9s-3.1-7.1-8.3-7.1h-1.5c-.2,0-.4-.1-.4-.4v-1c0-.2.1-.4.4-.4h1.5c4.7,0,7.5-2.4,7.5-6.2s-2.9-6.2-7.1-6.2-4.2.4-5.9.9l-1.9.6c-.2,0-.4,0-.5-.3l-.3-1c0-.2,0-.4.2-.5l1.8-.6Z"/></g></g><g id="text30903" class="cls-5"><g class="cls-5"><path class="cls-3" d="M822.1,417.7c-.2,0-.4-.1-.4-.4v-25.6c0-.8,0-1.4.1-2.2,0-.3,0-.4-.3-.4s-.2,0-.3,0l-3.7,2c-.2.1-.4,0-.5-.1l-.5-1c0-.2,0-.4.2-.5l5.9-3.1c.2,0,.4,0,.5,0h.2c.1.2.2.4.2.5v30.4c0,.2-.1.4-.4.4h-1.2Z"/><path class="cls-3" d="M833.6,387.2c1.9-.5,3.8-1,6.4-1,5.4,0,9.1,3,9.1,8s-1.4,5.6-4.4,6.8c-.5.2-.5.4,0,.5,3.4,1.1,5.3,4,5.3,7.9s-4,8.7-10.1,8.7-5-.6-6.8-1.1l-2.2-.7c-.2,0-.3-.2-.2-.5l.3-1c0-.2.3-.3.5-.3l2.1.7c1.6.5,3.9,1,6.3,1,4.9,0,8.1-2.7,8.1-6.9s-3.1-7.1-8.3-7.1h-1.5c-.2,0-.4-.1-.4-.4v-1c0-.2.1-.4.4-.4h1.5c4.7,0,7.5-2.4,7.5-6.2s-2.9-6.2-7.1-6.2-4.2.4-5.9.9l-1.9.6c-.2,0-.4,0-.5-.3l-.3-1c0-.2,0-.4.2-.5l1.8-.6Z"/></g></g><g id="text30917" class="cls-5"><g class="cls-5"><path class="cls-3" d="M812.9,457.9c1.8-.5,4.1-1.1,6.8-1.1,5.8,0,9.5,2.9,9.5,7.6s-1.6,4.9-4.9,7.3l-7.8,5.8c-3.2,2.2-4.5,5.4-4.5,9h16.4c.2,0,.4.1.4.4v1.1c0,.2-.1.4-.4.4h-18c-.2,0-.4-.1-.4-.4v-1.3c0-4.4,1.5-8,5.3-10.7l7.9-5.7c2.7-1.9,3.9-3.8,3.9-5.8,0-3.5-3-5.8-7.6-5.8s-4.6.4-6.2,1l-2.1.7c-.2,0-.4,0-.5-.2l-.3-1c0-.2,0-.4.2-.5l2.1-.7Z"/><path class="cls-3" d="M857.5,472.7c0,9.9-4.3,16-11.3,16s-11.2-6-11.2-16,4.2-15.9,11.2-15.9,11.3,6,11.3,15.9ZM836.9,472.7c0,8.9,3.4,14.1,9.3,14.1s9.3-5.2,9.3-14.1-3.5-14.1-9.3-14.1-9.3,5.3-9.3,14.1Z"/></g></g><g id="text30931" class="cls-5"><g class="cls-5"><path class="cls-3" d="M814.3,528.5c1.8-.5,4.1-1.1,6.8-1.1,5.8,0,9.5,2.9,9.5,7.6s-1.6,4.9-4.9,7.3l-7.8,5.8c-3.2,2.2-4.5,5.4-4.5,9h16.4c.2,0,.4.1.4.4v1.1c0,.2-.1.4-.4.4h-18c-.2,0-.4-.1-.4-.4v-1.3c0-4.4,1.5-8,5.3-10.7l7.9-5.7c2.7-1.9,3.9-3.8,3.9-5.8,0-3.5-3-5.8-7.6-5.8s-4.6.4-6.2,1l-2.1.7c-.2,0-.4,0-.5-.2l-.3-1c0-.2,0-.4.2-.5l2.1-.7Z"/><path class="cls-3" d="M856.6,528.5c0,.2,0,.4,0,.5-.8,1.2-1.4,2.4-2,3.7l-11.7,25.9c0,.2-.2.3-.5.3h-1.3c-.3,0-.4-.2-.3-.4l11.9-26.2c.3-.6.7-1.3,1.2-2,.2-.4,0-.5-.4-.5h-17.6c-.2,0-.4-.1-.4-.4v-1c0-.2.1-.4.4-.4h20c.2,0,.3,0,.4.3l.2.4Z"/></g></g><g id="text30441"><g class="cls-5"><g class="cls-5"><path class="cls-3" d="M807.4,269.6c.3.1.7.3,1,.4.3.2.7.3,1.1.5s.8.3,1.2.4c.4,0,.8.1,1.3.1s1.1,0,1.6-.2c.6-.1,1.1-.3,1.6-.6s1-.6,1.5-.9c.5-.4.9-.8,1.3-1.2.4-.5.8-1,1.1-1.4s.5-.8.7-1.1c.2-.3.3-.6.4-.8,0-.2.1-.4.1-.6,0-.2,0-.5-.3-.6-.2-.2-.4-.3-.7-.5s-.6-.2-1-.3c-.4,0-.7,0-1.1,0s-.5,0-.8,0c-.3,0-.6,0-.9,0-.3,0-.6,0-.9,0s-.6,0-.8,0c-.3,0-.7,0-1-.1-.3,0-.7-.2-1-.4-.3-.2-.6-.4-.9-.7s-.5-.6-.7-1.1c0-.1-.1-.3-.2-.5,0-.2,0-.4,0-.6s0-.5,0-.7c0-.2,0-.4.1-.6.1-.5.4-1,.7-1.5.3-.5.7-1,1.2-1.5.4-.5.9-1,1.5-1.4.5-.5,1.1-.9,1.6-1.3.6-.4,1.1-.8,1.6-1.1.5-.3,1-.6,1.5-.8.7-.3,1.3-.5,2-.7.7-.1,1.3-.2,2-.2s.8,0,1.1.2.7.3.9.5.5.4.6.7c.2.3.2.6.2,1s0,.4,0,.5c0,.1-.1.3-.2.4,0,0-.2.2-.3.2,0,0-.2,0-.3,0-.3,0-.5,0-.7,0-.2,0-.4-.1-.6-.2-.2,0-.4-.1-.6-.2-.2,0-.4,0-.7,0-.7,0-1.5.1-2.2.4-.8.3-1.5.7-2.2,1.1-.7.4-1.4.9-2,1.5-.6.6-1.2,1.1-1.7,1.6-.3.3-.5.6-.6.8s-.2.5-.2.8c0,.4.2.6.5.9.3.2.7.3,1.2.3s.6,0,.9,0c.3,0,.7,0,1,0,.3,0,.7,0,1,0,.3,0,.6,0,.9,0,.6,0,1.2,0,1.8.3.6.2,1.1.4,1.5.8.4.3.8.8,1,1.2s.4,1.1.4,1.7,0,.8-.2,1.2-.3.8-.5,1.2c-.2.4-.4.8-.7,1.2-.3.4-.5.8-.8,1.2-.5.7-1.1,1.3-1.8,1.9s-1.4,1.1-2.1,1.6c-.7.5-1.5.8-2.3,1.1-.8.3-1.7.4-2.5.4s-.8,0-1.2-.1c-.4,0-.8-.2-1.2-.3s-.7-.3-1.1-.5c-.3-.2-.6-.4-.9-.7s-.5-.5-.6-.8c-.2-.3-.2-.6-.2-1s0-.3,0-.5c0-.2.2-.2.4-.2Z"/><path class="cls-3" d="M839,273.2c-.2,0-.4,0-.5-.1-.2,0-.3-.2-.4-.3-.1-.1-.2-.3-.2-.4,0-.2,0-.3,0-.5s0-.4.1-.6c0-.3.2-.6.3-.9.1-.3.3-.7.4-1,.1-.4.3-.7.4-1,.1-.3.3-.6.4-.9,0-.3.2-.5.2-.6,0-.2,0-.4.1-.6,0-.2.1-.5.2-.8,0-.3.1-.6.2-.9,0-.3.2-.6.2-1-.1,0-.3,0-.5,0-.2,0-.4,0-.6,0-.3,0-.6,0-1,.1-.3,0-.6.1-1,.2-.3,0-.7.2-1,.2-.4,0-.7.2-1.1.3-.6.1-1.2.3-1.8.4-.6.2-1.2.2-1.8.2s-.4,0-.5-.2c-.2-.1-.4-.2-.6-.2-.2.3-.4.7-.6,1-.2.4-.3.7-.5,1.1-.1.4-.3.8-.4,1.1-.1.4-.2.7-.3,1,0,.2,0,.4-.1.7,0,.3,0,.6,0,.9,0,.3,0,.6,0,.8,0,.3,0,.5,0,.6,0,.1,0,.3-.2.4,0,.1-.2.3-.3.4s-.3.2-.4.3c-.2,0-.3.1-.5.1-.3,0-.5,0-.7-.2-.2-.2-.3-.4-.4-.6-.1-.2-.2-.5-.2-.8,0-.3,0-.5,0-.8,0-.6,0-1.2.2-1.9.1-.6.3-1.3.6-2s.5-1.3.9-2,.7-1.3,1.1-2c.3-.6.7-1.3,1.2-2.1s1-1.6,1.6-2.4,1.2-1.6,1.9-2.4c.7-.8,1.4-1.5,2.2-2.1s1.5-1.1,2.3-1.5c.8-.4,1.6-.6,2.3-.6s1.5.1,2,.4c.5.3,1,.7,1.3,1.2.3.5.6,1.1.7,1.8.1.7.2,1.4.2,2.1s0,1.3-.1,2c0,.7-.2,1.4-.3,2.1s-.3,1.3-.4,1.9-.3,1.2-.4,1.7l-.5,2c0,0,0,.2-.1.4,0,.2-.1.4-.2.6s-.2.5-.3.8-.2.6-.3.9c-.1.3-.2.5-.3.8s-.2.4-.2.6h0c0,.2-.1.5-.2.8s-.2.5-.3.7c-.1.2-.3.4-.5.5s-.5.2-.8.2ZM839.8,254.7c-.4,0-.9,0-1.3.3-.4.2-.9.4-1.3.7-.4.3-.8.6-1.2,1-.4.4-.8.8-1.1,1.2-.4.4-.7.8-1,1.2-.3.4-.6.8-.9,1.2,0,0,0,.1-.2.2,0,0-.1.2-.2.3,0,.1-.1.2-.2.4,0,.1-.1.2-.1.3h1.5c.6,0,1.2,0,1.9-.1.7,0,1.4-.2,2.1-.3s1.3-.2,1.9-.3c.6-.1,1-.2,1.3-.3,0-.1,0-.3.1-.5,0-.2,0-.5,0-.7s0-.5,0-.8c0-.3,0-.6,0-.9s0-.5,0-.9c0-.3,0-.6-.2-.9,0-.3-.2-.5-.5-.7-.2-.2-.5-.3-.8-.3Z"/><path class="cls-3" d="M853.3,270.6c.4-1.6.8-3.3,1.3-4.9.5-1.7.9-3.3,1.4-4.9.2-.7.4-1.3.5-1.9s.3-1.1.4-1.5c0-.5.2-.9.2-1.2,0-.4,0-.7,0-1v-.2c0,0,0-.2,0-.3,0,0-.3,0-.7.2s-.7.3-1.2.4c-.5.2-.9.4-1.4.6-.5.2-1,.4-1.4.7-.3.2-.6.3-.9.4s-.4.2-.6.3c-.2,0-.3.1-.5.1s-.3,0-.4,0c-.3,0-.6-.1-.8-.4-.2-.2-.3-.5-.3-.9s0-.4,0-.6c0-.2.1-.3.2-.4,0-.1.2-.2.4-.4.2-.1.3-.2.6-.3,2.5-1.3,5-2.3,7.6-2.9,2.5-.6,5.1-.9,7.7-.9s.5,0,.7,0c.3,0,.6,0,.9,0s.6,0,.9.1c.3,0,.5,0,.8.2.2,0,.4.2.6.4.2.2.3.4.3.7s0,.4,0,.6c0,.2,0,.3-.2.5,0,.1-.2.2-.3.3s-.3.1-.5.1c-.4,0-.8,0-1.2-.1-.5,0-.9,0-1.4,0-.9,0-1.8,0-2.8,0-.9,0-1.9.2-2.8.4,0,0,0,0,0,.2s0,.2,0,.3c0,.5,0,1-.1,1.4,0,.4-.1.8-.2,1.2-.1.4-.2.8-.4,1.3-.1.5-.3,1-.5,1.7s-.4,1.4-.7,2.3-.5,2-.9,3.3l-.7,2.9c-.2.7-.3,1.3-.4,1.8,0,.5-.2,1-.2,1.6,0,.2-.2.3-.5.5s-.6.2-.9.2-.4,0-.6-.2c-.2-.1-.3-.3-.4-.4-.1-.2-.2-.4-.2-.6,0-.2,0-.4,0-.6Z"/></g></g></g><g id="text30891" class="cls-5"><g class="cls-5"><path class="cls-3" d="M192,387.4c0,.2,0,.4,0,.5-.8,1.2-1.4,2.4-2,3.7l-11.7,25.9c0,.2-.2.3-.5.3h-1.3c-.3,0-.4-.2-.3-.4l11.9-26.2c.3-.6.7-1.3,1.2-2,.2-.4,0-.5-.4-.5h-17.6c-.2,0-.4-.1-.4-.4v-1c0-.2.1-.4.4-.4h20c.2,0,.3,0,.4.3l.2.4Z"/></g></g><g id="text30905" class="cls-5"><g class="cls-5"><path class="cls-2" d="M169.1,488.3c-.2,0-.4-.1-.4-.4v-25.6c0-.8,0-1.4.1-2.2,0-.3,0-.4-.3-.4s-.2,0-.3,0l-3.7,2c-.2.1-.4,0-.5-.1l-.5-1c0-.2,0-.4.2-.5l5.9-3.1c.2,0,.4,0,.5,0h.2c.1.2.2.4.2.5v30.4c0,.2-.1.4-.4.4h-1.2Z"/><path class="cls-2" d="M198.9,478.6c0,.2-.1.4-.4.4h-2.8v8.9c0,.2-.1.4-.4.4h-1.2c-.2,0-.4-.1-.4-.4v-8.8h-16.3c-.2,0-.4-.1-.4-.4v-1.2c0-.2,0-.3.2-.5,1.1-1.3,1.8-2.1,2.8-3.3l11.3-13.6c.8-.9,1.3-1.6,1.9-2.6,0-.2.2-.3.4-.3h1.6c.2,0,.4.1.4.4v19.6h2.8c.2,0,.4.1.4.4v1ZM193.8,463.5c0-1.1,0-2.2.2-2.9,0-.5-.3-.5-.6-.2l-11.4,13.7c-.7.8-1.8,2.1-2.2,2.5-.3.3-.1.5,0,.5h13.9v-13.7Z"/></g></g><g id="text30919" class="cls-5"><g class="cls-5"><path class="cls-3" d="M168.2,528.5c1.8-.5,4.1-1.1,6.8-1.1,5.8,0,9.5,2.9,9.5,7.6s-1.6,4.9-4.9,7.3l-7.8,5.8c-3.2,2.2-4.5,5.4-4.5,9h16.4c.2,0,.4.1.4.4v1.1c0,.2-.1.4-.4.4h-18c-.2,0-.4-.1-.4-.4v-1.3c0-4.4,1.5-8,5.3-10.7l7.9-5.7c2.7-1.9,3.9-3.8,3.9-5.8,0-3.5-3-5.8-7.6-5.8s-4.6.4-6.2,1l-2.1.7c-.2,0-.4,0-.5-.2l-.3-1c0-.2,0-.4.2-.5l2.1-.7Z"/><path class="cls-3" d="M195.4,558.8c-.2,0-.4-.1-.4-.4v-25.6c0-.8,0-1.4.1-2.2,0-.3,0-.4-.3-.4s-.2,0-.3,0l-3.7,2c-.2.1-.4,0-.5-.1l-.5-1c0-.2,0-.4.2-.5l5.9-3.1c.2,0,.4,0,.5,0h.2c.1.2.2.4.2.5v30.4c0,.2-.1.4-.4.4h-1.2Z"/></g></g><g id="text30933" class="cls-5"><g class="cls-5"><path class="cls-3" d="M161.6,599c1.8-.5,4.1-1.1,6.8-1.1,5.8,0,9.5,2.9,9.5,7.6s-1.6,4.9-4.9,7.3l-7.8,5.8c-3.2,2.2-4.5,5.4-4.5,9h16.4c.2,0,.4.1.4.4v1.1c0,.2-.1.4-.4.4h-18c-.2,0-.4-.1-.4-.4v-1.3c0-4.4,1.5-8,5.3-10.7l7.9-5.7c2.7-1.9,3.9-3.8,3.9-5.8,0-3.5-3-5.8-7.6-5.8s-4.6.4-6.2,1l-2.1.7c-.2,0-.4,0-.5-.2l-.3-1c0-.2,0-.4.2-.5l2.1-.7Z"/></g><g class="cls-5"><path class="cls-3" d="M203.8,605.9c0,3.1-1.5,5.6-5.1,6.8-.5.1-.5.5,0,.6,3.8,1.2,6.1,4.4,6.1,7.9,0,5.3-4.1,8.6-10.8,8.6s-10.8-3.3-10.8-8.6,2.3-6.8,6-7.9c.5-.1.5-.5,0-.6-3.6-1.1-5.1-3.7-5.1-6.8,0-4.9,3.7-8,9.9-8s9.8,3.1,9.8,8ZM185,621.2c0,4.2,3.4,6.8,8.9,6.8s8.9-2.5,8.9-6.8-4-7.3-8.9-7.3-8.9,2.8-8.9,7.3ZM185.9,606c0,3.9,3,6.1,8,6.1s7.9-2.3,7.9-6.1-3-6.3-7.9-6.3-8,2.4-8,6.3Z"/></g></g><g id="text30443"><g class="cls-5"><g class="cls-5"><path class="cls-3" d="M152.7,269.6c.3.1.7.3,1,.4.3.2.7.3,1.1.5s.8.3,1.2.4c.4,0,.8.1,1.3.1s1.1,0,1.6-.2c.6-.1,1.1-.3,1.6-.6s1-.6,1.5-.9c.5-.4.9-.8,1.3-1.2.4-.5.8-1,1.1-1.4s.5-.8.7-1.1c.2-.3.3-.6.4-.8,0-.2.1-.4.1-.6,0-.2,0-.5-.3-.6-.2-.2-.4-.3-.7-.5s-.6-.2-1-.3c-.4,0-.7,0-1.1,0s-.5,0-.8,0c-.3,0-.6,0-.9,0-.3,0-.6,0-.9,0s-.6,0-.8,0c-.3,0-.7,0-1-.1-.3,0-.7-.2-1-.4-.3-.2-.6-.4-.9-.7s-.5-.6-.7-1.1c0-.1-.1-.3-.2-.5,0-.2,0-.4,0-.6s0-.5,0-.7c0-.2,0-.4.1-.6.1-.5.4-1,.7-1.5.3-.5.7-1,1.2-1.5.4-.5.9-1,1.5-1.4.5-.5,1.1-.9,1.6-1.3.6-.4,1.1-.8,1.6-1.1.5-.3,1-.6,1.5-.8.7-.3,1.3-.5,2-.7.7-.1,1.3-.2,2-.2s.8,0,1.1.2.7.3.9.5.5.4.6.7c.2.3.2.6.2,1s0,.4,0,.5c0,.1-.1.3-.2.4,0,0-.2.2-.3.2,0,0-.2,0-.3,0-.3,0-.5,0-.7,0-.2,0-.4-.1-.6-.2-.2,0-.4-.1-.6-.2-.2,0-.4,0-.7,0-.7,0-1.5.1-2.2.4-.8.3-1.5.7-2.2,1.1-.7.4-1.4.9-2,1.5-.6.6-1.2,1.1-1.7,1.6-.3.3-.5.6-.6.8s-.2.5-.2.8c0,.4.2.6.5.9.3.2.7.3,1.2.3s.6,0,.9,0c.3,0,.7,0,1,0,.3,0,.7,0,1,0,.3,0,.6,0,.9,0,.6,0,1.2,0,1.8.3.6.2,1.1.4,1.5.8.4.3.8.8,1,1.2s.4,1.1.4,1.7,0,.8-.2,1.2-.3.8-.5,1.2c-.2.4-.4.8-.7,1.2-.3.4-.5.8-.8,1.2-.5.7-1.1,1.3-1.8,1.9s-1.4,1.1-2.1,1.6c-.7.5-1.5.8-2.3,1.1-.8.3-1.7.4-2.5.4s-.8,0-1.2-.1c-.4,0-.8-.2-1.2-.3s-.7-.3-1.1-.5c-.3-.2-.6-.4-.9-.7s-.5-.5-.6-.8c-.2-.3-.2-.6-.2-1s0-.3,0-.5c0-.2.2-.2.4-.2Z"/><path class="cls-3" d="M172.9,265.9c.2-1,.5-1.9.7-2.7.3-.8.5-1.5.7-2.2.2-.7.5-1.3.7-1.9s.4-1.3.6-1.9l.2-.7c0-.2,0-.4.1-.7,0-.3,0-.5,0-.8,0-.3,0-.6.1-.9,0-.3.1-.5.3-.8s.3-.4.4-.6.4-.2.7-.2.6,0,.8.2.4.3.5.4c.1.2.2.4.3.6,0,.2,0,.5,0,.7s0,.4,0,.6c0,.2,0,.4-.1.6-.1.4-.3,1-.5,1.6-.2.6-.5,1.2-.8,2-.3.7-.6,1.5-.9,2.3-.3.8-.6,1.7-.8,2.6-.1.5-.3,1.1-.4,1.7s-.2,1.2-.2,1.7,0,.8.1,1.1c0,.4.2.7.4.9.2.3.4.5.7.6.3.2.7.2,1.1.2s.7,0,1.1,0c.4,0,.8-.2,1.4-.4.8-.3,1.5-.8,2.2-1.3.7-.5,1.3-1.2,1.9-1.9.6-.7,1.1-1.5,1.6-2.3.5-.8.9-1.6,1.4-2.5s.8-1.7,1.1-2.6c.3-.9.6-1.8.8-2.6,0-.4.2-.7.2-1,0-.3,0-.6.1-1s0-.7,0-1.1,0-.8,0-1.3c0-.4.1-.7.3-1,.2-.3.5-.4.9-.4s.5,0,.6.3c.2.2.3.4.5.7s.2.6.3.9c0,.3,0,.6,0,.9,0,.5,0,1-.1,1.6,0,.6-.2,1.1-.4,1.6-.3,1.1-.6,2.3-1,3.4s-.9,2.3-1.4,3.4c-.6,1.1-1.2,2.2-1.9,3.2-.7,1-1.6,2-2.5,2.9-.5.4-1,.9-1.5,1.3-.6.4-1.1.8-1.7,1.2-.6.3-1.2.6-1.8.8-.6.2-1.3.3-1.9.3-.9,0-1.7-.1-2.3-.4-.7-.3-1.2-.6-1.6-1.1-.4-.5-.8-1-1-1.6-.2-.6-.3-1.3-.3-2.1s0-.7,0-1.2c0-.4.1-.8.2-1.3Z"/><path class="cls-3" d="M197.2,255.1c0-.3.1-.5.2-.8,0-.3.2-.6.4-.8s.3-.4.6-.6c.2-.2.5-.2.9-.2s.7,0,.9.3c.3.2.5.4.7.6.3.2.5.5.7,1s.5,1.1.7,1.9.5,1.6.8,2.5c.3.9.6,1.9,1,3,.3,1,.7,2.1,1.2,3.2.4,1.1.9,2.1,1.5,3.2,0,.2.2.3.3.6.1.2.2.4.4.6.1.2.2.3.3.5.1.1.2.2.2.2s0,0,.1-.2c0-.1,0-.3.1-.5,0-.2.1-.4.2-.6,0-.2.1-.4.2-.5.2-.5.4-1,.6-1.6.2-.6.5-1.3.7-2.1.3-.8.6-1.8.9-3,.3-1.1.7-2.5,1.1-4.1,0-.4.2-.8.3-1.3s.2-1,.3-1.5c.1-.5.2-1,.3-1.5s.1-.9.2-1.3c0,0,0-.2,0-.3,0-.1,0-.3,0-.5,0-.2,0-.4,0-.6,0-.2,0-.4.2-.6,0-.2.1-.3.2-.4,0-.1.2-.2.4-.2s.3,0,.5,0c.2,0,.4,0,.6.2.2.3.4.6.5.9.2.4.2.8.2,1.5s0,.8-.1,1.4c0,.5-.2,1.1-.3,1.7s-.3,1.2-.4,1.9-.3,1.3-.5,1.9c-.2.6-.3,1.1-.5,1.6-.1.5-.3.9-.4,1.2-.2.6-.4,1.2-.6,1.8-.2.6-.4,1.2-.6,1.9-.2.7-.5,1.4-.8,2.1s-.6,1.5-.9,2.4c-.1.4-.3.8-.5,1.2-.2.4-.4.7-.7,1-.2.3-.5.6-.8.8-.3.2-.7.3-1,.3s-.5,0-.7,0c-.2,0-.4-.2-.6-.4-.8-.9-1.5-2-2.2-3.2-.6-1.2-1.2-2.4-1.7-3.7-.5-1.3-.9-2.6-1.3-3.9-.4-1.3-.7-2.6-1-3.8v-.3c-.1-.1-.2-.3-.2-.4s0-.3-.1-.4c0-.1,0-.2-.1-.3,0,0,0-.1-.2-.1s-.1.1-.2.3c0,.2-.2.5-.3.7,0,.3-.2.5-.2.8,0,.3-.1.4-.1.5,0,.3-.2.6-.3,1.1-.1.5-.3,1-.5,1.6s-.4,1.2-.6,1.9c-.2.7-.4,1.3-.6,1.9-.2.6-.4,1.2-.5,1.7s-.3,1-.4,1.3c0,.3-.2.6-.3,1-.1.4-.3.8-.4,1.2-.1.4-.2.8-.4,1.1s-.2.6-.2.7c-.1.4-.3.7-.5.8-.2.2-.5.3-.7.3s-.3,0-.4-.2c-.1-.1-.3-.2-.4-.4s-.2-.3-.3-.5c0-.2-.1-.3-.1-.5s0-.2,0-.4c0-.2.1-.5.2-.9l.4-1.5,4.4-14.1Z"/></g></g></g><g id="text30893" class="cls-5"><g class="cls-5"><path class="cls-3" d="M300.9,394.3c0,3.1-1.5,5.6-5.1,6.8-.5.1-.5.5,0,.6,3.8,1.2,6.1,4.4,6.1,7.9,0,5.3-4.1,8.6-10.8,8.6s-10.8-3.3-10.8-8.6,2.3-6.8,6-7.9c.5-.1.5-.5,0-.6-3.6-1.1-5.1-3.7-5.1-6.8,0-4.9,3.7-8,9.9-8s9.8,3.1,9.8,8ZM282.2,409.5c0,4.2,3.4,6.8,8.9,6.8s8.9-2.5,8.9-6.8-4-7.3-8.9-7.3-8.9,2.8-8.9,7.3ZM283.1,394.4c0,3.9,3,6.1,8,6.1s7.9-2.3,7.9-6.1-3-6.3-7.9-6.3-8,2.4-8,6.3Z"/></g></g><g id="text30907" class="cls-5"><g class="cls-5"><path class="cls-3" d="M278.8,488.3c-.2,0-.4-.1-.4-.4v-25.6c0-.8,0-1.4.1-2.2,0-.3,0-.4-.3-.4s-.2,0-.3,0l-3.7,2c-.2.1-.4,0-.5-.1l-.5-1c0-.2,0-.4.2-.5l5.9-3.1c.2,0,.4,0,.5,0h.2c.1.2.2.4.2.5v30.4c0,.2-.1.4-.4.4h-1.2Z"/><path class="cls-3" d="M305.6,458.7c0,.2-.2.3-.4.3h-14.1v7.9c0,.7,0,1.5,0,2.3,0,.5,0,.6.5.5l1.3-.2c1.9-.3,3.9-.5,4.9-.5,6.6,0,10.3,3.6,10.3,9.7s-4.1,9.9-11.1,9.9-5-.6-6.8-1.1l-2.1-.7c-.2,0-.3-.2-.2-.5l.4-1c0-.2.3-.3.5-.2l2.1.7c1.6.5,3.8,1,6.2,1,5.8,0,9.2-3,9.2-8.1s-3-7.8-8.4-7.8-3.1,0-4.9.4l-2.5.3c-.2,0-.3,0-.5-.1l-.4-.4c-.2-.1-.2-.3-.2-.5v-13.1c0-.2.1-.4.4-.4h16.1c.2,0,.4.2.3.4l-.3,1Z"/></g></g><g id="text30921" class="cls-5"><g class="cls-5"><path class="cls-3" d="M271.7,528.5c1.8-.5,4.1-1.1,6.8-1.1,5.8,0,9.5,2.9,9.5,7.6s-1.6,4.9-4.9,7.3l-7.8,5.8c-3.2,2.2-4.5,5.4-4.5,9h16.4c.2,0,.4.1.4.4v1.1c0,.2-.1.4-.4.4h-18c-.2,0-.4-.1-.4-.4v-1.3c0-4.4,1.5-8,5.3-10.7l7.9-5.7c2.7-1.9,3.9-3.8,3.9-5.8,0-3.5-3-5.8-7.6-5.8s-4.6.4-6.2,1l-2.1.7c-.2,0-.4,0-.5-.2l-.3-1c0-.2,0-.4.2-.5l2.1-.7Z"/><path class="cls-3" d="M297.3,528.5c1.8-.5,4.1-1.1,6.8-1.1,5.8,0,9.5,2.9,9.5,7.6s-1.6,4.9-4.9,7.3l-7.8,5.8c-3.2,2.2-4.5,5.4-4.5,9h16.4c.2,0,.4.1.4.4v1.1c0,.2-.1.4-.4.4h-18c-.2,0-.4-.1-.4-.4v-1.3c0-4.4,1.5-8,5.3-10.7l7.9-5.7c2.7-1.9,3.9-3.8,3.9-5.8,0-3.5-3-5.8-7.6-5.8s-4.6.4-6.2,1l-2.1.7c-.2,0-.4,0-.5-.2l-.3-1c0-.2,0-.4.2-.5l2.1-.7Z"/></g></g><g id="text30935" class="cls-5"><g class="cls-5"><path class="cls-3" d="M271.2,599c1.8-.5,4.1-1.1,6.8-1.1,5.8,0,9.5,2.9,9.5,7.6s-1.6,4.9-4.9,7.3l-7.8,5.8c-3.2,2.2-4.5,5.4-4.5,9h16.4c.2,0,.4.1.4.4v1.1c0,.2-.1.4-.4.4h-18c-.2,0-.4-.1-.4-.4v-1.3c0-4.4,1.5-8,5.3-10.7l7.9-5.7c2.7-1.9,3.9-3.8,3.9-5.8,0-3.5-3-5.8-7.6-5.8s-4.6.4-6.2,1l-2.1.7c-.2,0-.4,0-.5-.2l-.3-1c0-.2,0-.4.2-.5l2.1-.7Z"/></g><g class="cls-5"><path class="cls-3" d="M308.4,618.5c.6-.8,1.4-1.8,2-2.7.3-.5,0-.7-.5-.4-1.7,1.2-4.1,1.9-6.4,1.9-6.7,0-10.6-3.5-10.6-9.7s3.9-9.7,10.7-9.7,10.7,3.6,10.7,10.1-1.7,7.9-4.3,11.5l-7.1,9.6c-.1.2-.3.2-.5.2h-1.5c-.3,0-.4-.2-.2-.5l7.8-10.4ZM294.8,607.5c0,4.9,3.1,7.9,8.8,7.9s8.7-2.9,8.7-7.9-3.1-7.8-8.7-7.8-8.8,2.9-8.8,7.8Z"/></g></g><g id="text30445"><g class="cls-5"><g class="cls-5"><path class="cls-3" d="M255.3,271.7c.2-.7.4-1.6.8-2.5.3-.9.7-1.9,1.2-2.9.4-1,.9-2,1.4-3s1.1-2,1.6-3c.6-1,1.1-1.9,1.7-2.7s1.2-1.6,1.8-2.3c.2-.2.4-.4.6-.7s.5-.6.8-.9c.3-.3.6-.6,1-.9.3-.3.7-.6,1-.8s.7-.4,1-.6.6-.2.9-.2.7,0,1,.2c.3.1.6.3.8.5s.4.5.5.8c.1.3.2.7.2,1.1s0,.3,0,.5c0,.2,0,.3,0,.5l-1.6,8.2c.1-.2.4-.5.6-.9s.6-.8.9-1.3c.3-.5.7-1,1-1.5.4-.5.7-1,1.1-1.5.3-.5.7-.9,1-1.3.3-.4.5-.7.7-1l.3-.3c.2-.2.4-.5.6-.8.3-.3.5-.6.8-1,.3-.3.6-.7,1-1,.3-.3.7-.6,1-.9s.7-.5,1-.6c.3-.2.7-.2,1-.2s.4,0,.6.2.3.3.4.4c0,.2.2.4.2.6,0,.2,0,.5,0,.8,0,.4,0,.8-.1,1.3,0,.4-.1.8-.2,1.2,0,.3-.1.7-.2,1.2,0,.5-.2,1.1-.3,1.8s-.2,1.4-.4,2.2-.3,1.6-.4,2.4c-.1.8-.3,1.6-.4,2.4s-.3,1.5-.4,2.2-.2,1.3-.3,1.8-.2.9-.2,1.2c0,.1,0,.3-.1.6,0,.2-.2.5-.3.7s-.3.4-.5.6c-.2.2-.5.3-.7.3s-.3,0-.5-.2c-.1-.1-.3-.2-.4-.4-.1-.2-.2-.3-.3-.5,0-.2-.1-.3-.1-.5l3.1-14.6c0-.1,0-.3,0-.4s0-.2,0-.3,0-.2,0-.3c0,0,0-.2,0-.3,0,0,0-.2,0-.2-.4.3-.9.8-1.4,1.3s-1,1.1-1.5,1.7-1,1.3-1.6,2c-.5.7-1,1.4-1.5,2.1-.4.6-.8,1.2-1.2,1.8-.4.6-.8,1.2-1.3,1.9-.4.6-.8,1.2-1.2,1.9-.4.6-.8,1.2-1.1,1.8-.2.3-.3.6-.5,1.1-.2.4-.4.9-.6,1.3-.2.4-.4.8-.7,1.1-.2.3-.5.4-.8.4s-.4,0-.6-.1c-.2,0-.3-.2-.4-.3,0-.1-.2-.2-.2-.4,0-.2,0-.3,0-.5s0-.5,0-.7c0-.2,0-.4.1-.6.2-.9.4-1.7.6-2.6s.5-1.7.7-2.6.5-1.8.7-2.8c.3-1,.5-2,.8-3.1,0-.3.1-.6.2-1,0-.4.2-.8.3-1.2,0-.4.1-.8.2-1.1,0-.4,0-.7,0-1s0-.5,0-.6-.1-.2-.2-.2c-.4,0-.7.1-1.2.4-.4.3-.8.6-1.2,1.1-.4.4-.8,1-1.2,1.5-.4.6-.8,1.2-1.2,1.8-.4.6-.7,1.2-1,1.8-.3.6-.6,1.1-.8,1.6,0,0-.1.2-.2.4,0,.2-.2.4-.4.7-.2.3-.3.7-.6,1.2-.2.5-.5,1.1-.8,1.8-.3.7-.6,1.6-1,2.6s-.8,2.2-1.3,3.6c0,.2-.2.4-.5.6-.2.1-.5.2-.7.2-.5,0-.9-.1-1.1-.4-.2-.3-.4-.6-.4-1s0-.4,0-.6Z"/><path class="cls-3" d="M284.5,265.5c.2-.7.4-1.5.8-2.3.3-.8.7-1.5,1.2-2.3.5-.8,1-1.5,1.5-2.3s1.1-1.5,1.8-2.2c.6-.7,1.3-1.4,1.9-2,.7-.6,1.3-1.2,2-1.7.3-.2.6-.4.9-.4.3,0,.5-.1.8-.1s.6,0,.8.1.5.3.7.5c0,0,.2.2.3.2,0,0,.2.1.3.1s0,0,0,0,0,0,0-.2c0,0,0-.1.1-.2,0,0,.1-.1.2-.1.2,0,.4-.1.6-.2s.5,0,.7,0c.4,0,.9,0,1.3.2.4.2.8.4,1.1.7.7.7,1.3,1.5,1.7,2.5.4,1,.6,2,.6,3.1s-.1,2.1-.4,3.2c-.3,1-.6,2-1.1,3-.5,1-1,1.9-1.7,2.7s-1.4,1.6-2.2,2.3c-.8.7-1.6,1.3-2.5,1.8s-1.8.9-2.8,1.2c-1,.3-2,.4-3,.4s-1.8-.1-2.5-.4-1.4-.7-1.9-1.2c-.5-.5-.9-1.1-1.2-1.9-.3-.7-.4-1.5-.4-2.4s0-.8,0-1.1c0-.4.1-.8.2-1.2ZM287,266.5c-.1.5-.2.9-.2,1.3s0,1,.3,1.5c.2.4.5.8.8,1,.3.3.8.5,1.3.6s1,.2,1.6.2,1.4-.1,2.1-.3,1.4-.5,2.1-.9c.7-.4,1.3-.9,2-1.5.6-.6,1.2-1.2,1.8-2,.5-.7,1-1.5,1.4-2.4.4-.9.8-1.8,1-2.8,0-.4.2-.7.2-1.1,0-.4,0-.8,0-1.1,0-.6,0-1.1-.2-1.6s-.3-1-.6-1.4c-.3-.4-.7-.7-1.2-1-.5-.2-1.1-.4-1.8-.4s-.2,0-.2.1c0,0-.1.2-.2.3,0,.1-.1.2-.2.3,0,.1-.1.2-.3.3-.1,0-.2.2-.4.2-.2,0-.3,0-.6,0s-.3,0-.4-.1-.3-.2-.4-.3-.1-.1-.1-.1c0,0,0,0-.1,0,0,0-.2,0-.3.1-.1,0-.3.2-.4.3s-.3.2-.4.3-.3.2-.3.3c-.7.7-1.3,1.4-2,2.3-.7.8-1.3,1.7-1.8,2.5-.6.9-1.1,1.7-1.5,2.6-.4.9-.7,1.7-.9,2.5Z"/><path class="cls-3" d="M310.4,255.1c0-.3.1-.5.2-.8,0-.3.2-.6.4-.8s.3-.4.6-.6c.2-.2.5-.2.9-.2s.7,0,.9.3c.3.2.5.4.7.6.3.2.5.5.7,1s.5,1.1.7,1.9.5,1.6.8,2.5c.3.9.6,1.9,1,3,.3,1,.7,2.1,1.2,3.2.4,1.1.9,2.1,1.5,3.2,0,.2.2.3.3.6.1.2.2.4.4.6.1.2.2.3.3.5.1.1.2.2.2.2s0,0,.1-.2c0-.1,0-.3.1-.5,0-.2.1-.4.2-.6,0-.2.1-.4.2-.5.2-.5.4-1,.6-1.6.2-.6.5-1.3.7-2.1.3-.8.6-1.8.9-3,.3-1.1.7-2.5,1.1-4.1,0-.4.2-.8.3-1.3s.2-1,.3-1.5c.1-.5.2-1,.3-1.5s.1-.9.2-1.3c0,0,0-.2,0-.3,0-.1,0-.3,0-.5,0-.2,0-.4,0-.6,0-.2,0-.4.2-.6,0-.2.1-.3.2-.4,0-.1.2-.2.4-.2s.3,0,.5,0c.2,0,.4,0,.6.2.2.3.4.6.5.9.2.4.2.8.2,1.5s0,.8-.1,1.4c0,.5-.2,1.1-.3,1.7s-.3,1.2-.4,1.9-.3,1.3-.5,1.9c-.2.6-.3,1.1-.5,1.6-.1.5-.3.9-.4,1.2-.2.6-.4,1.2-.6,1.8-.2.6-.4,1.2-.6,1.9-.2.7-.5,1.4-.8,2.1s-.6,1.5-.9,2.4c-.1.4-.3.8-.5,1.2-.2.4-.4.7-.7,1-.2.3-.5.6-.8.8-.3.2-.7.3-1,.3s-.5,0-.7,0c-.2,0-.4-.2-.6-.4-.8-.9-1.5-2-2.2-3.2-.6-1.2-1.2-2.4-1.7-3.7-.5-1.3-.9-2.6-1.3-3.9-.4-1.3-.7-2.6-1-3.8v-.3c-.1-.1-.2-.3-.2-.4s0-.3-.1-.4c0-.1,0-.2-.1-.3,0,0,0-.1-.2-.1s-.1.1-.2.3c0,.2-.2.5-.3.7,0,.3-.2.5-.2.8,0,.3-.1.4-.1.5,0,.3-.2.6-.3,1.1-.1.5-.3,1-.5,1.6s-.4,1.2-.6,1.9c-.2.7-.4,1.3-.6,1.9-.2.6-.4,1.2-.5,1.7s-.3,1-.4,1.3c0,.3-.2.6-.3,1-.1.4-.3.8-.4,1.2-.1.4-.2.8-.4,1.1s-.2.6-.2.7c-.1.4-.3.7-.5.8-.2.2-.5.3-.7.3s-.3,0-.4-.2c-.1-.1-.3-.2-.4-.4s-.2-.3-.3-.5c0-.2-.1-.3-.1-.5s0-.2,0-.4c0-.2.1-.5.2-.9l.4-1.5,4.4-14.1Z"/></g></g></g><g id="text30895" class="cls-5"><g class="cls-5"><path class="cls-3" d="M402.8,406.9c.6-.8,1.4-1.8,2-2.7.3-.5,0-.7-.5-.4-1.7,1.2-4.1,1.9-6.4,1.9-6.7,0-10.6-3.5-10.6-9.7s3.9-9.7,10.7-9.7,10.7,3.6,10.7,10.1-1.7,7.9-4.3,11.5l-7.1,9.6c-.1.2-.3.2-.5.2h-1.5c-.3,0-.4-.2-.2-.5l7.8-10.4ZM389.3,395.9c0,4.9,3.1,7.9,8.8,7.9s8.7-2.9,8.7-7.9-3.1-7.8-8.7-7.8-8.8,2.9-8.8,7.8Z"/></g></g><g id="text30909" class="cls-5"><g class="cls-5"><path class="cls-3" d="M385.7,488.3c-.2,0-.4-.1-.4-.4v-25.6c0-.8,0-1.4.1-2.2,0-.3,0-.4-.3-.4s-.2,0-.3,0l-3.7,2c-.2.1-.4,0-.5-.1l-.5-1c0-.2,0-.4.2-.5l5.9-3.1c.2,0,.4,0,.5,0h.2c.1.2.2.4.2.5v30.4c0,.2-.1.4-.4.4h-1.2Z"/><path class="cls-3" d="M400.2,468.1c-.6.8-1.4,1.8-2,2.7-.3.5,0,.7.5.4,1.7-1.2,4.1-1.9,6.4-1.9,6.7,0,10.6,3.5,10.6,9.7s-3.9,9.7-10.7,9.7-10.7-3.6-10.7-10.1,1.7-7.9,4.3-11.5l7.1-9.6c.1-.2.3-.2.5-.2h1.5c.3,0,.4.2.2.5l-7.8,10.4ZM413.8,479c0-4.9-3.1-7.9-8.8-7.9s-8.7,2.9-8.7,7.9,3.1,7.8,8.7,7.8,8.8-2.9,8.8-7.8Z"/></g></g><g id="text30923" class="cls-5"><g class="cls-5"><path class="cls-3" d="M379,528.5c1.8-.5,4.1-1.1,6.8-1.1,5.8,0,9.5,2.9,9.5,7.6s-1.6,4.9-4.9,7.3l-7.8,5.8c-3.2,2.2-4.5,5.4-4.5,9h16.4c.2,0,.4.1.4.4v1.1c0,.2-.1.4-.4.4h-18c-.2,0-.4-.1-.4-.4v-1.3c0-4.4,1.5-8,5.3-10.7l7.9-5.7c2.7-1.9,3.9-3.8,3.9-5.8,0-3.5-3-5.8-7.6-5.8s-4.6.4-6.2,1l-2.1.7c-.2,0-.4,0-.5-.2l-.3-1c0-.2,0-.4.2-.5l2.1-.7Z"/><path class="cls-3" d="M404.1,528.3c1.9-.5,3.8-1,6.4-1,5.4,0,9.1,3,9.1,8s-1.4,5.6-4.4,6.8c-.5.2-.5.4,0,.5,3.4,1.1,5.3,4,5.3,7.9s-4,8.7-10.1,8.7-5-.6-6.8-1.1l-2.2-.7c-.2,0-.3-.2-.2-.5l.3-1c0-.2.3-.3.5-.3l2.1.7c1.6.5,3.9,1,6.3,1,4.9,0,8.1-2.7,8.1-6.9s-3.1-7.1-8.3-7.1h-1.5c-.2,0-.4-.1-.4-.4v-1c0-.2.1-.4.4-.4h1.5c4.7,0,7.5-2.4,7.5-6.2s-2.9-6.2-7.1-6.2-4.2.4-5.9.9l-1.9.6c-.2,0-.4,0-.5-.3l-.3-1c0-.2,0-.4.2-.5l1.8-.6Z"/></g></g><g id="text30937" class="cls-5"><g class="cls-5"><path class="cls-3" d="M377.1,598.8c1.9-.5,3.8-1,6.4-1,5.4,0,9.1,3,9.1,8s-1.4,5.6-4.4,6.8c-.5.2-.5.4,0,.5,3.4,1.1,5.3,4,5.3,7.9s-4,8.7-10.1,8.7-5-.6-6.8-1.1l-2.2-.7c-.2,0-.3-.2-.2-.5l.3-1c0-.2.3-.3.5-.3l2.1.7c1.6.5,3.9,1,6.3,1,4.9,0,8.1-2.7,8.1-6.9s-3.1-7.1-8.3-7.1h-1.5c-.2,0-.4-.1-.4-.4v-1c0-.2.1-.4.4-.4h1.5c4.7,0,7.5-2.4,7.5-6.2s-2.9-6.2-7.1-6.2-4.2.4-5.9.9l-1.9.6c-.2,0-.4,0-.5-.3l-.3-1c0-.2,0-.4.2-.5l1.8-.6Z"/></g><g class="cls-5"><path class="cls-3" d="M421.9,613.8c0,9.9-4.3,16-11.3,16s-11.2-6-11.2-16,4.2-15.9,11.2-15.9,11.3,6,11.3,15.9ZM401.4,613.8c0,8.9,3.4,14.1,9.3,14.1s9.3-5.2,9.3-14.1-3.5-14.1-9.3-14.1-9.3,5.3-9.3,14.1Z"/></g></g><g id="text30447"><g class="cls-5"><g class="cls-5"><path class="cls-3" d="M361.5,270.6c.4-1.6.8-3.3,1.3-4.9.5-1.7.9-3.3,1.4-4.9.2-.7.4-1.3.5-1.9s.3-1.1.4-1.5c0-.5.2-.9.2-1.2,0-.4,0-.7,0-1v-.2c0,0,0-.2,0-.3,0,0-.3,0-.7.2s-.7.3-1.2.4c-.5.2-.9.4-1.4.6-.5.2-1,.4-1.4.7-.3.2-.6.3-.9.4s-.4.2-.6.3c-.2,0-.3.1-.5.1s-.3,0-.4,0c-.3,0-.6-.1-.8-.4-.2-.2-.3-.5-.3-.9s0-.4,0-.6c0-.2.1-.3.2-.4,0-.1.2-.2.4-.4.2-.1.3-.2.6-.3,2.5-1.3,5-2.3,7.6-2.9,2.5-.6,5.1-.9,7.7-.9s.5,0,.7,0c.3,0,.6,0,.9,0s.6,0,.9.1c.3,0,.5,0,.8.2.2,0,.4.2.6.4.2.2.3.4.3.7s0,.4,0,.6c0,.2,0,.3-.2.5,0,.1-.2.2-.3.3s-.3.1-.5.1c-.4,0-.8,0-1.2-.1-.5,0-.9,0-1.4,0-.9,0-1.8,0-2.8,0-.9,0-1.9.2-2.8.4,0,0,0,0,0,.2s0,.2,0,.3c0,.5,0,1-.1,1.4,0,.4-.1.8-.2,1.2-.1.4-.2.8-.4,1.3-.1.5-.3,1-.5,1.7s-.4,1.4-.7,2.3-.5,2-.9,3.3l-.7,2.9c-.2.7-.3,1.3-.4,1.8,0,.5-.2,1-.2,1.6,0,.2-.2.3-.5.5s-.6.2-.9.2-.4,0-.6-.2c-.2-.1-.3-.3-.4-.4-.1-.2-.2-.4-.2-.6,0-.2,0-.4,0-.6Z"/><path class="cls-3" d="M376.1,265.9c.2-1,.5-1.9.7-2.7.3-.8.5-1.5.7-2.2.2-.7.5-1.3.7-1.9s.4-1.3.6-1.9l.2-.7c0-.2,0-.4.1-.7,0-.3,0-.5,0-.8,0-.3,0-.6.1-.9,0-.3.1-.5.3-.8s.3-.4.4-.6.4-.2.7-.2.6,0,.8.2.4.3.5.4c.1.2.2.4.3.6,0,.2,0,.5,0,.7s0,.4,0,.6c0,.2,0,.4-.1.6-.1.4-.3,1-.5,1.6-.2.6-.5,1.2-.8,2-.3.7-.6,1.5-.9,2.3-.3.8-.6,1.7-.8,2.6-.1.5-.3,1.1-.4,1.7s-.2,1.2-.2,1.7,0,.8.1,1.1c0,.4.2.7.4.9.2.3.4.5.7.6.3.2.7.2,1.1.2s.7,0,1.1,0c.4,0,.8-.2,1.4-.4.8-.3,1.5-.8,2.2-1.3.7-.5,1.3-1.2,1.9-1.9.6-.7,1.1-1.5,1.6-2.3.5-.8.9-1.6,1.4-2.5s.8-1.7,1.1-2.6c.3-.9.6-1.8.8-2.6,0-.4.2-.7.2-1,0-.3,0-.6.1-1s0-.7,0-1.1,0-.8,0-1.3c0-.4.1-.7.3-1,.2-.3.5-.4.9-.4s.5,0,.6.3c.2.2.3.4.5.7s.2.6.3.9c0,.3,0,.6,0,.9,0,.5,0,1-.1,1.6,0,.6-.2,1.1-.4,1.6-.3,1.1-.6,2.3-1,3.4s-.9,2.3-1.4,3.4c-.6,1.1-1.2,2.2-1.9,3.2-.7,1-1.6,2-2.5,2.9-.5.4-1,.9-1.5,1.3-.6.4-1.1.8-1.7,1.2-.6.3-1.2.6-1.8.8-.6.2-1.3.3-1.9.3-.9,0-1.7-.1-2.3-.4-.7-.3-1.2-.6-1.6-1.1-.4-.5-.8-1-1-1.6-.2-.6-.3-1.3-.3-2.1s0-.7,0-1.2c0-.4.1-.8.2-1.3Z"/><path class="cls-3" d="M395.9,271.9c0-.3,0-.7.1-1.1.3-1.3.7-2.7,1.2-3.9s.9-2.6,1.2-3.8.7-2.3.9-3.2.5-1.6.6-2.2c.2-.6.4-1.2.5-1.6.2-.5.3-.9.5-1.3.1-.3.2-.5.4-.8.1-.3.3-.5.5-.8.2-.2.3-.4.5-.6.2-.2.4-.2.6-.2.4,0,.7,0,.9.2.2.1.3.3.4.4v.6c.3,0,.5,0,.7,0,.2,0,.5,0,.7-.1.2,0,.5,0,.7-.1.2,0,.4,0,.5-.1.7-.2,1.2-.3,1.8-.5.6-.1,1.1-.2,1.6-.3s1-.1,1.4-.2c.5,0,.9,0,1.4,0s.8,0,1.1,0c.3,0,.5.1.7.2.2,0,.3.2.3.3,0,.1,0,.2,0,.4s0,.2,0,.4-.2.3-.3.4-.3.2-.6.3c-.2,0-.5.1-.9.2,0,0-.3,0-.6.1-.3,0-.7.1-1,.2-.4,0-.7.1-1.1.2-.3,0-.6.1-.7.1h0c0,0-.2,0-.4.1-.2,0-.5.1-.8.2-.3,0-.7.2-1,.3-.4.1-.7.2-1.1.3-.4.1-.7.2-1,.3-.3,0-.6.2-.7.2-.6.2-1.1.5-1.4.9s-.6.8-.8,1.3c0,0,0,.2-.2.5,0,.2-.2.5-.3.7s-.2.6-.3.9c-.1.3-.2.6-.3.9,0,.3-.2.5-.3.8,0,.2-.1.4-.2.5,0,0,0,.2,0,.3,0,0,0,.1,0,.2,0,0,0,0,0,0,.1,0,.5,0,.9-.2s1-.3,1.6-.5,1.3-.4,2-.6,1.4-.4,2.1-.6c.7-.2,1.2-.4,1.7-.5s.9-.2,1.1-.2c.3,0,.6,0,.7.2.1.1.2.2.2.4,0,.4-.1.7-.4.9s-.6.5-.9.7c-.1,0-.3.1-.7.3-.3.1-.7.2-1,.3s-.7.2-1.1.3c-.3.1-.6.2-.7.2-1,.4-1.8.7-2.4.9-.6.2-1.1.4-1.5.6-.4.2-.7.3-.9.3-.2,0-.4.1-.6.2-.2,0-.4.1-.6.2-.2,0-.5.1-.9.2,0,.2-.2.5-.3.9-.1.4-.2.9-.3,1.3-.1.4-.2.9-.3,1.2,0,.4-.1.6-.1.8s0,.3,0,.4c0,0,.1.1.2.2,0,0,.1,0,.2,0h.2c.5,0,1,0,1.7-.2.7-.1,1.3-.3,2-.5.6-.2,1.2-.5,1.6-.7.5-.3.9-.5,1.3-.7.4-.2.8-.4,1.2-.6s.8-.2,1.3-.2c0,0,.2,0,.3,0s.3,0,.4.1c.1,0,.2.1.3.2,0,0,.1.2,0,.3,0,.3-.2.6-.4.8s-.6.5-.9.8c-.4.3-.8.5-1.3.7-.5.2-.9.5-1.4.7s-1,.4-1.4.6c-.5.2-.9.3-1.2.5-.9.3-1.8.5-2.6.7s-1.6.2-2.3.2-1.3-.1-1.7-.4c-.4-.3-.6-.7-.6-1.4Z"/><path class="cls-3" d="M414,269.6c.3.1.7.3,1,.4.3.2.7.3,1.1.5s.8.3,1.2.4c.4,0,.8.1,1.3.1s1.1,0,1.6-.2c.6-.1,1.1-.3,1.6-.6s1-.6,1.5-.9c.5-.4.9-.8,1.3-1.2.4-.5.8-1,1.1-1.4s.5-.8.7-1.1c.2-.3.3-.6.4-.8,0-.2.1-.4.1-.6,0-.2,0-.5-.3-.6-.2-.2-.4-.3-.7-.5s-.6-.2-1-.3c-.4,0-.7,0-1.1,0s-.5,0-.8,0c-.3,0-.6,0-.9,0-.3,0-.6,0-.9,0s-.6,0-.8,0c-.3,0-.7,0-1-.1-.3,0-.7-.2-1-.4-.3-.2-.6-.4-.9-.7s-.5-.6-.7-1.1c0-.1-.1-.3-.2-.5,0-.2,0-.4,0-.6s0-.5,0-.7c0-.2,0-.4.1-.6.1-.5.4-1,.7-1.5.3-.5.7-1,1.2-1.5.4-.5.9-1,1.5-1.4.5-.5,1.1-.9,1.6-1.3.6-.4,1.1-.8,1.6-1.1.5-.3,1-.6,1.5-.8.7-.3,1.3-.5,2-.7.7-.1,1.3-.2,2-.2s.8,0,1.1.2.7.3.9.5.5.4.6.7c.2.3.2.6.2,1s0,.4,0,.5c0,.1-.1.3-.2.4,0,0-.2.2-.3.2,0,0-.2,0-.3,0-.3,0-.5,0-.7,0-.2,0-.4-.1-.6-.2-.2,0-.4-.1-.6-.2-.2,0-.4,0-.7,0-.7,0-1.5.1-2.2.4-.8.3-1.5.7-2.2,1.1-.7.4-1.4.9-2,1.5-.6.6-1.2,1.1-1.7,1.6-.3.3-.5.6-.6.8s-.2.5-.2.8c0,.4.2.6.5.9.3.2.7.3,1.2.3s.6,0,.9,0c.3,0,.7,0,1,0,.3,0,.7,0,1,0,.3,0,.6,0,.9,0,.6,0,1.2,0,1.8.3.6.2,1.1.4,1.5.8.4.3.8.8,1,1.2s.4,1.1.4,1.7,0,.8-.2,1.2-.3.8-.5,1.2c-.2.4-.4.8-.7,1.2-.3.4-.5.8-.8,1.2-.5.7-1.1,1.3-1.8,1.9s-1.4,1.1-2.1,1.6c-.7.5-1.5.8-2.3,1.1-.8.3-1.7.4-2.5.4s-.8,0-1.2-.1c-.4,0-.8-.2-1.2-.3s-.7-.3-1.1-.5c-.3-.2-.6-.4-.9-.7s-.5-.5-.6-.8c-.2-.3-.2-.6-.2-1s0-.3,0-.5c0-.2.2-.2.4-.2Z"/></g></g></g><g id="text30897" class="cls-5"><g class="cls-5"><path class="cls-3" d="M496.2,417.7c-.2,0-.4-.1-.4-.4v-25.6c0-.8,0-1.4.1-2.2,0-.3,0-.4-.3-.4s-.2,0-.3,0l-3.7,2c-.2.1-.4,0-.5-.1l-.5-1c0-.2,0-.4.2-.5l5.9-3.1c.2,0,.4,0,.5,0h.2c.1.2.2.4.2.5v30.4c0,.2-.1.4-.4.4h-1.2Z"/><path class="cls-3" d="M527.4,402.2c0,9.9-4.3,16-11.3,16s-11.2-6-11.2-16,4.2-15.9,11.2-15.9,11.3,6,11.3,15.9ZM506.8,402.2c0,8.9,3.4,14.1,9.3,14.1s9.3-5.2,9.3-14.1-3.5-14.1-9.3-14.1-9.3,5.3-9.3,14.1Z"/></g></g><g id="text30911" class="cls-5"><g class="cls-5"><path class="cls-3" d="M497.6,488.3c-.2,0-.4-.1-.4-.4v-25.6c0-.8,0-1.4.1-2.2,0-.3,0-.4-.3-.4s-.2,0-.3,0l-3.7,2c-.2.1-.4,0-.5-.1l-.5-1c0-.2,0-.4.2-.5l5.9-3.1c.2,0,.4,0,.5,0h.2c.1.2.2.4.2.5v30.4c0,.2-.1.4-.4.4h-1.2Z"/><path class="cls-3" d="M526.6,457.9c0,.2,0,.4,0,.5-.8,1.2-1.4,2.4-2,3.7l-11.7,25.9c0,.2-.2.3-.5.3h-1.3c-.3,0-.4-.2-.3-.4l11.9-26.2c.3-.6.7-1.3,1.2-2,.2-.4,0-.5-.4-.5h-17.6c-.2,0-.4-.1-.4-.4v-1c0-.2.1-.4.4-.4h20c.2,0,.3,0,.4.3l.2.4Z"/></g></g><g id="text30925" class="cls-5"><g class="cls-5"><path class="cls-3" d="M489.4,528.5c1.8-.5,4.1-1.1,6.8-1.1,5.8,0,9.5,2.9,9.5,7.6s-1.6,4.9-4.9,7.3l-7.8,5.8c-3.2,2.2-4.5,5.4-4.5,9h16.4c.2,0,.4.1.4.4v1.1c0,.2-.1.4-.4.4h-18c-.2,0-.4-.1-.4-.4v-1.3c0-4.4,1.5-8,5.3-10.7l7.9-5.7c2.7-1.9,3.9-3.8,3.9-5.8,0-3.5-3-5.8-7.6-5.8s-4.6.4-6.2,1l-2.1.7c-.2,0-.4,0-.5-.2l-.3-1c0-.2,0-.4.2-.5l2.1-.7Z"/></g><g class="cls-5"><path class="cls-3" d="M532.6,549.2c0,.2-.1.4-.4.4h-2.8v8.9c0,.2-.1.4-.4.4h-1.2c-.2,0-.4-.1-.4-.4v-8.8h-16.3c-.2,0-.4-.1-.4-.4v-1.2c0-.2,0-.3.2-.5,1.1-1.3,1.8-2.1,2.8-3.3l11.3-13.6c.8-.9,1.3-1.6,1.9-2.6,0-.2.2-.3.4-.3h1.6c.2,0,.4.1.4.4v19.6h2.8c.2,0,.4.1.4.4v1ZM527.5,534.1c0-1.1,0-2.2.2-2.9,0-.5-.3-.5-.6-.2l-11.4,13.7c-.7.8-1.8,2.1-2.2,2.5-.3.3-.1.5,0,.5h13.9v-13.7Z"/></g></g><g id="text30449"><g class="cls-5"><g class="cls-5"><path class="cls-3" d="M477.9,266.4c.2-.9.5-1.8.8-2.8s.7-2,1.1-3c.4-1,.8-2,1.1-3.1.4-1,.7-2.1,1-3.1,0-.3.1-.5.2-.7,0-.2,0-.4.1-.7.1-.3.3-.5.5-.6s.4-.2.7-.2.4,0,.6.1c.2,0,.4.2.5.3s.3.3.3.6c0,.2.1.5.1.8s0,.8-.2,1.2c-.4,1-.8,1.9-1.2,2.9-.4.9-.8,1.9-1.1,2.8s-.7,1.8-1,2.7c-.3.9-.6,1.8-.8,2.6,0,0,0,.2-.1.5,0,.2-.1.5-.2.8,0,.3-.1.7-.2,1,0,.4,0,.7,0,1.1s0,.5,0,.7,0,.4.1.6c0,.2.2.3.3.4.1,0,.3.1.4.1.4,0,.8-.2,1.4-.6s1.1-.9,1.8-1.6c.6-.7,1.3-1.5,1.9-2.3s1.3-1.9,1.9-2.9,1.2-2.1,1.8-3.2,1-2.2,1.4-3.2c0-.2.2-.3.3-.4s.3,0,.5,0c.4,0,.7.1,1,.3.3.2.4.5.4.9s0,.2,0,.3c0,0,0,.2,0,.3l-.2.6c-.2.5-.3.9-.5,1.3-.1.4-.3.8-.3,1.1-.1.5-.2.9-.3,1.4,0,.4-.1.8-.2,1.2s0,.7,0,1.1,0,.7,0,1,0,.3,0,.6,0,.6.1.9c0,.3.1.6.2,1,0,.3.2.6.3.9s.2.5.4.7.3.3.5.3c.3,0,.6-.1,1-.4s.7-.6,1-1c.3-.4.7-1,1-1.5.3-.6.7-1.2,1-1.9.3-.7.6-1.4.9-2.1.3-.7.6-1.4.8-2.2.3-.7.5-1.4.7-2.1.2-.7.3-1.3.5-1.8.1-.5.2-1,.3-1.5,0-.5.2-1,.2-1.5,0-.5.2-1,.3-1.5s.2-1,.3-1.5c0-.2.1-.4.2-.6,0-.2.2-.4.4-.5.1-.2.3-.3.5-.4.2-.1.3-.2.5-.2.4,0,.7.1.9.4s.2.6.2,1.2,0,.9-.1,1.4c0,.6-.2,1.1-.3,1.7s-.2,1.2-.4,1.8c-.1.6-.3,1.2-.4,1.8-.3,1.1-.6,2.3-1.1,3.5-.5,1.2-1,2.4-1.5,3.5-.6,1.1-1.1,2.2-1.8,3.2s-1.3,1.9-1.9,2.6c-.2.3-.5.5-.8.8-.3.3-.6.5-1,.7-.3.2-.7.4-1,.5s-.7.2-1,.2c-.7,0-1.2-.2-1.7-.6-.5-.4-.8-.9-1.1-1.6-.3-.7-.5-1.4-.7-2.3-.2-.9-.3-1.7-.3-2.6-.6.8-1.1,1.5-1.5,2.2-.5.6-.9,1.2-1.4,1.8-.4.4-.8.8-1.2,1.3-.4.5-.9.9-1.4,1.3-.5.4-1,.7-1.5,1s-1,.4-1.5.4-1.1-.1-1.5-.3c-.4-.2-.7-.5-.9-.8s-.4-.8-.5-1.3c-.1-.5-.2-1-.2-1.6s0-1.3.2-2c.1-.7.2-1.4.4-2.1Z"/><path class="cls-3" d="M505,271.9c0-.3,0-.7.1-1.1.3-1.3.7-2.7,1.2-3.9s.9-2.6,1.2-3.8.7-2.3.9-3.2.5-1.6.6-2.2c.2-.6.4-1.2.5-1.6.2-.5.3-.9.5-1.3.1-.3.2-.5.4-.8.1-.3.3-.5.5-.8.2-.2.3-.4.5-.6.2-.2.4-.2.6-.2.4,0,.7,0,.9.2.2.1.3.3.4.4v.6c.3,0,.5,0,.7,0,.2,0,.5,0,.7-.1.2,0,.5,0,.7-.1.2,0,.4,0,.5-.1.7-.2,1.2-.3,1.8-.5.6-.1,1.1-.2,1.6-.3s1-.1,1.4-.2c.5,0,.9,0,1.4,0s.8,0,1.1,0c.3,0,.5.1.7.2.2,0,.3.2.3.3,0,.1,0,.2,0,.4s0,.2,0,.4-.2.3-.3.4-.3.2-.6.3c-.2,0-.5.1-.9.2,0,0-.3,0-.6.1-.3,0-.7.1-1,.2-.4,0-.7.1-1.1.2-.3,0-.6.1-.7.1h0c0,0-.2,0-.4.1-.2,0-.5.1-.8.2-.3,0-.7.2-1,.3-.4.1-.7.2-1.1.3-.4.1-.7.2-1,.3-.3,0-.6.2-.7.2-.6.2-1.1.5-1.4.9s-.6.8-.8,1.3c0,0,0,.2-.2.5,0,.2-.2.5-.3.7s-.2.6-.3.9c-.1.3-.2.6-.3.9,0,.3-.2.5-.3.8,0,.2-.1.4-.2.5,0,0,0,.2,0,.3,0,0,0,.1,0,.2,0,0,0,0,0,0,.1,0,.5,0,.9-.2s1-.3,1.6-.5,1.3-.4,2-.6,1.4-.4,2.1-.6c.7-.2,1.2-.4,1.7-.5s.9-.2,1.1-.2c.3,0,.6,0,.7.2.1.1.2.2.2.4,0,.4-.1.7-.4.9s-.6.5-.9.7c-.1,0-.3.1-.7.3-.3.1-.7.2-1,.3s-.7.2-1.1.3c-.3.1-.6.2-.7.2-1,.4-1.8.7-2.4.9-.6.2-1.1.4-1.5.6-.4.2-.7.3-.9.3-.2,0-.4.1-.6.2-.2,0-.4.1-.6.2-.2,0-.5.1-.9.2,0,.2-.2.5-.3.9-.1.4-.2.9-.3,1.3-.1.4-.2.9-.3,1.2,0,.4-.1.6-.1.8s0,.3,0,.4c0,0,.1.1.2.2,0,0,.1,0,.2,0h.2c.5,0,1,0,1.7-.2.7-.1,1.3-.3,2-.5.6-.2,1.2-.5,1.6-.7.5-.3.9-.5,1.3-.7.4-.2.8-.4,1.2-.6s.8-.2,1.3-.2c0,0,.2,0,.3,0s.3,0,.4.1c.1,0,.2.1.3.2,0,0,.1.2,0,.3,0,.3-.2.6-.4.8s-.6.5-.9.8c-.4.3-.8.5-1.3.7-.5.2-.9.5-1.4.7s-1,.4-1.4.6c-.5.2-.9.3-1.2.5-.9.3-1.8.5-2.6.7s-1.6.2-2.3.2-1.3-.1-1.7-.4c-.4-.3-.6-.7-.6-1.4Z"/><path class="cls-3" d="M522.2,270.8c.5-.3.9-.5,1.4-.6.5,0,1-.2,1.5-.2l3.7-14.9s-.2,0-.3,0c-.2,0-.4,0-.6,0-.2,0-.4,0-.7-.1-.2,0-.4-.1-.5-.3,0,0-.1-.2-.2-.3s-.1-.2-.2-.4c0-.1-.1-.3-.2-.4,0-.1,0-.3,0-.4,0-.2,0-.4.3-.6.2-.2.4-.3.7-.4.3,0,.6-.2.9-.2s.6,0,.9,0c1.2,0,2.4,0,3.4.1,1.1,0,2,.2,3,.5.9.2,1.8.6,2.6,1,.8.5,1.6,1.1,2.3,1.8.3.3.5.6.8,1,.3.4.5.7.7,1.2.2.4.3.9.5,1.3s.2,1,.2,1.5,0,.6,0,.9c0,.3,0,.6-.1.8-.3,1.1-.7,2.2-1.2,3s-1.1,1.7-1.8,2.3c-.7.7-1.4,1.3-2.3,1.8-.8.5-1.7.9-2.5,1.3s-1.8.7-2.7,1c-.9.3-1.8.5-2.6.7h0c-.4.1-.8.2-1.2.3-.4,0-.9.2-1.3.2-.5,0-.9.1-1.4.1-.4,0-.9,0-1.3,0s-.8,0-1.1,0c-.3,0-.5-.1-.7-.2-.2,0-.3-.2-.4-.3,0-.1-.1-.2-.1-.4,0-.2,0-.4.2-.6.1-.2.3-.4.6-.6ZM528.7,266.6c-.1.5-.2,1-.4,1.5s-.3,1.1-.4,1.6h.3c.2-.1.5-.2.9-.3.4,0,.8-.2,1.3-.4s1-.3,1.5-.5c.5-.2,1.1-.5,1.7-.7.6-.3,1.2-.6,1.8-1,.6-.4,1.1-.8,1.7-1.2.5-.4,1-.9,1.4-1.4s.7-1,1-1.6c.2-.5.4-1.1.4-1.7s-.1-1.2-.4-1.7c-.2-.5-.6-1-1-1.5-.4-.5-.9-.9-1.4-1.2s-1.1-.7-1.6-.9c-.6-.3-1.1-.5-1.7-.6-.6-.1-1.1-.2-1.7-.2-.7,1.9-1.4,3.8-1.9,5.8s-1,4-1.5,6Z"/></g></g></g><g id="text30899" class="cls-5"><g class="cls-5"><path class="cls-3" d="M608.7,417.7c-.2,0-.4-.1-.4-.4v-25.6c0-.8,0-1.4.1-2.2,0-.3,0-.4-.3-.4s-.2,0-.3,0l-3.7,2c-.2.1-.4,0-.5-.1l-.5-1c0-.2,0-.4.2-.5l5.9-3.1c.2,0,.4,0,.5,0h.2c.1.2.2.4.2.5v30.4c0,.2-.1.4-.4.4h-1.2Z"/><path class="cls-3" d="M622.2,417.7c-.2,0-.4-.1-.4-.4v-25.6c0-.8,0-1.4.1-2.2,0-.3,0-.4-.3-.4s-.2,0-.3,0l-3.7,2c-.2.1-.4,0-.5-.1l-.5-1c0-.2,0-.4.2-.5l5.9-3.1c.2,0,.4,0,.5,0h.2c.1.2.2.4.2.5v30.4c0,.2-.1.4-.4.4h-1.2Z"/></g></g><g id="text30913" class="cls-5"><g class="cls-5"><path class="cls-3" d="M601.7,488.3c-.2,0-.4-.1-.4-.4v-25.6c0-.8,0-1.4.1-2.2,0-.3,0-.4-.3-.4s-.2,0-.3,0l-3.7,2c-.2.1-.4,0-.5-.1l-.5-1c0-.2,0-.4.2-.5l5.9-3.1c.2,0,.4,0,.5,0h.2c.1.2.2.4.2.5v30.4c0,.2-.1.4-.4.4h-1.2Z"/><path class="cls-3" d="M631.1,464.8c0,3.1-1.5,5.6-5.1,6.8-.5.1-.5.5,0,.6,3.8,1.2,6.1,4.4,6.1,7.9,0,5.3-4.1,8.6-10.8,8.6s-10.8-3.3-10.8-8.6,2.3-6.8,6-7.9c.5-.1.5-.5,0-.6-3.6-1.1-5.1-3.7-5.1-6.8,0-4.9,3.7-8,9.9-8s9.8,3.1,9.8,8ZM612.3,480.1c0,4.2,3.4,6.8,8.9,6.8s8.9-2.5,8.9-6.8-4-7.3-8.9-7.3-8.9,2.8-8.9,7.3ZM613.2,464.9c0,3.9,3,6.1,8,6.1s7.9-2.3,7.9-6.1-3-6.3-7.9-6.3-8,2.4-8,6.3Z"/></g></g><g id="text30927" class="cls-5"><g class="cls-5"><path class="cls-3" d="M594.7,528.5c1.8-.5,4.1-1.1,6.8-1.1,5.8,0,9.5,2.9,9.5,7.6s-1.6,4.9-4.9,7.3l-7.8,5.8c-3.2,2.2-4.5,5.4-4.5,9h16.4c.2,0,.4.1.4.4v1.1c0,.2-.1.4-.4.4h-18c-.2,0-.4-.1-.4-.4v-1.3c0-4.4,1.5-8,5.3-10.7l7.9-5.7c2.7-1.9,3.9-3.8,3.9-5.8,0-3.5-3-5.8-7.6-5.8s-4.6.4-6.2,1l-2.1.7c-.2,0-.4,0-.5-.2l-.3-1c0-.2,0-.4.2-.5l2.1-.7Z"/><path class="cls-3" d="M634.7,529.3c0,.2-.2.3-.4.3h-14.1v7.9c0,.7,0,1.5,0,2.3,0,.5,0,.6.5.5l1.3-.2c1.9-.3,3.9-.5,4.9-.5,6.6,0,10.3,3.6,10.3,9.7s-4.1,9.9-11.1,9.9-5-.6-6.8-1.1l-2.1-.7c-.2,0-.3-.2-.2-.5l.4-1c0-.2.3-.3.5-.2l2.1.7c1.6.5,3.8,1,6.2,1,5.8,0,9.2-3,9.2-8.1s-3-7.8-8.4-7.8-3.1,0-4.9.4l-2.5.3c-.2,0-.3,0-.5-.1l-.4-.4c-.2-.1-.2-.3-.2-.5v-13.1c0-.2.1-.4.4-.4h16.1c.2,0,.4.2.3.4l-.3,1Z"/></g></g><g id="text30451" class="cls-5"><g class="cls-5"><path class="cls-3" d="M577.2,270.6c.4-1.6.8-3.3,1.3-4.9.5-1.7.9-3.3,1.4-4.9.2-.7.4-1.3.5-1.9s.3-1.1.4-1.5c0-.5.2-.9.2-1.2,0-.4,0-.7,0-1v-.2c0,0,0-.2,0-.3,0,0-.3,0-.7.2s-.7.3-1.2.4c-.5.2-.9.4-1.4.6-.5.2-1,.4-1.4.7-.3.2-.6.3-.9.4s-.4.2-.6.3c-.2,0-.3.1-.5.1s-.3,0-.4,0c-.3,0-.6-.1-.8-.4-.2-.2-.3-.5-.3-.9s0-.4,0-.6c0-.2.1-.3.2-.4,0-.1.2-.2.4-.4.2-.1.3-.2.6-.3,2.5-1.3,5-2.3,7.6-2.9,2.5-.6,5.1-.9,7.7-.9s.5,0,.7,0c.3,0,.6,0,.9,0s.6,0,.9.1c.3,0,.5,0,.8.2.2,0,.4.2.6.4.2.2.3.4.3.7s0,.4,0,.6c0,.2,0,.3-.2.5,0,.1-.2.2-.3.3s-.3.1-.5.1c-.4,0-.8,0-1.2-.1-.5,0-.9,0-1.4,0-.9,0-1.8,0-2.8,0-.9,0-1.9.2-2.8.4,0,0,0,0,0,.2s0,.2,0,.3c0,.5,0,1-.1,1.4,0,.4-.1.8-.2,1.2-.1.4-.2.8-.4,1.3-.1.5-.3,1-.5,1.7s-.4,1.4-.7,2.3-.5,2-.9,3.3l-.7,2.9c-.2.7-.3,1.3-.4,1.8,0,.5-.2,1-.2,1.6,0,.2-.2.3-.5.5s-.6.2-.9.2-.4,0-.6-.2c-.2-.1-.3-.3-.4-.4-.1-.2-.2-.4-.2-.6,0-.2,0-.4,0-.6Z"/><path class="cls-3" d="M589.5,272.6c0-.1,0-.3,0-.4,0-.2,0-.4.1-.6,0-.2.1-.4.2-.6,0-.2,0-.3.1-.4l6-19.6c0,0,.1-.1.2-.2,0,0,.1,0,.2-.1,0,0,.2,0,.3,0h.3c.2,0,.4,0,.5.1.1,0,.3.2.4.3,0,.1.2.3.2.4,0,.2,0,.3,0,.5s0,.3,0,.5,0,.3,0,.5,0,.3,0,.5,0,.2,0,.3l-3.1,10.5h1.4c1.6-.5,3.2-.8,4.8-1.2s3.2-.7,4.8-1.1c.2,0,.3-.3.5-.5.1-.3.3-.6.4-1.1.1-.4.3-1,.4-1.6s.3-1.3.6-2l.3-1c.1-.5.2-1,.3-1.5.1-.5.2-1,.4-1.4.1-.4.3-.8.6-1,.2-.3.5-.4.9-.4.5,0,.9.2,1.2.5.3.3.4.7.4,1.2s-.1.8-.3,1.5c-.2.7-.5,1.6-.9,2.6-.1.4-.3.8-.4,1.2s-.3.8-.4,1.2c-.1.4-.2.7-.3,1,0,.3-.1.6-.1.7s0,.4,0,.5c0,.2,0,.4,0,.6,0,.4-.1.8-.4,1.1-.2.3-.6.6-1,.9,0,0,0,.2,0,.4,0,.2,0,.3-.1.5l-.2.8c-.1.5-.3,1.1-.3,1.6,0,.5-.2,1.1-.3,1.6,0,.5-.2,1.1-.2,1.6,0,.5-.2,1.1-.3,1.6,0,.2-.1.4-.3.5-.1.2-.3.3-.4.4s-.3.2-.5.3c-.2,0-.3,0-.5,0-.2,0-.4,0-.6-.2s-.3-.2-.3-.4c0-.1-.1-.3-.2-.5,0-.2,0-.3,0-.4s0-.3,0-.6c0-.3,0-.6.1-1,0-.4.1-.8.2-1.2,0-.4.2-.9.2-1.3.2-1,.4-2.1.7-3.3h-.1c-.3,0-.5,0-.8,0-.3,0-.6.1-1.1.2-.2,0-.5.1-.8.2-.4,0-.8.2-1.3.3s-1,.3-1.5.4c-.5.1-1.1.3-1.6.4l-4,1.1c-.2.4-.4.8-.5,1.2-.2.4-.3.9-.5,1.4-.1.5-.3.9-.4,1.4-.1.4-.2.9-.3,1.3,0,.1,0,.2-.2.4,0,.1-.2.2-.3.4s-.3.2-.4.3c-.1,0-.3.1-.4.1-.2,0-.4,0-.5-.1-.1,0-.3-.2-.3-.4,0-.2-.1-.3-.2-.5,0-.2,0-.4,0-.6Z"/><path class="cls-3" d="M613.8,265.9c.2-1,.5-1.9.7-2.7.3-.8.5-1.5.7-2.2.2-.7.5-1.3.7-1.9s.4-1.3.6-1.9l.2-.7c0-.2,0-.4.1-.7,0-.3,0-.5,0-.8,0-.3,0-.6.1-.9,0-.3.1-.5.3-.8s.3-.4.4-.6.4-.2.7-.2.6,0,.8.2.4.3.5.4c.1.2.2.4.3.6,0,.2,0,.5,0,.7s0,.4,0,.6c0,.2,0,.4-.1.6-.1.4-.3,1-.5,1.6-.2.6-.5,1.2-.8,2-.3.7-.6,1.5-.9,2.3-.3.8-.6,1.7-.8,2.6-.1.5-.3,1.1-.4,1.7s-.2,1.2-.2,1.7,0,.8.1,1.1c0,.4.2.7.4.9.2.3.4.5.7.6.3.2.7.2,1.1.2s.7,0,1.1,0c.4,0,.8-.2,1.4-.4.8-.3,1.5-.8,2.2-1.3.7-.5,1.3-1.2,1.9-1.9.6-.7,1.1-1.5,1.6-2.3.5-.8.9-1.6,1.4-2.5s.8-1.7,1.1-2.6c.3-.9.6-1.8.8-2.6,0-.4.2-.7.2-1,0-.3,0-.6.1-1s0-.7,0-1.1,0-.8,0-1.3c0-.4.1-.7.3-1,.2-.3.5-.4.9-.4s.5,0,.6.3c.2.2.3.4.5.7s.2.6.3.9c0,.3,0,.6,0,.9,0,.5,0,1-.1,1.6,0,.6-.2,1.1-.4,1.6-.3,1.1-.6,2.3-1,3.4s-.9,2.3-1.4,3.4c-.6,1.1-1.2,2.2-1.9,3.2-.7,1-1.6,2-2.5,2.9-.5.4-1,.9-1.5,1.3-.6.4-1.1.8-1.7,1.2-.6.3-1.2.6-1.8.8-.6.2-1.3.3-1.9.3-.9,0-1.7-.1-2.3-.4-.7-.3-1.2-.6-1.6-1.1-.4-.5-.8-1-1-1.6-.2-.6-.3-1.3-.3-2.1s0-.7,0-1.2c0-.4.1-.8.2-1.3Z"/><path class="cls-3" d="M633.9,271.1c.6-2.3,1.1-4.5,1.7-6.7.6-2.2,1.2-4.4,1.7-6.7,0-.3.1-.6.2-.8,0-.3.1-.5.2-.8,0-.3.1-.5.1-.8,0-.3,0-.6,0-.8s0-.4,0-.6c0-.2,0-.4,0-.6s0-.5,0-.7c.1-.6.4-1,.6-1.3s.7-.4,1.2-.4.4,0,.7,0c.2,0,.4,0,.6.2.2,0,.5.1.7.2.2,0,.5,0,.7,0s.4,0,.6,0c.2,0,.4,0,.6,0,.2,0,.5,0,.9,0s.7,0,1.2,0,.6,0,1,0,.8,0,1.2.1c.4,0,.8.2,1.2.3.4.1.8.3,1.2.5s.7.5,1,.8.5.7.6,1.2c0,.2.1.4.1.6,0,.2,0,.4,0,.5,0,.6-.2,1.2-.5,1.8-.3.7-.8,1.3-1.4,1.9-.6.6-1.3,1.1-2,1.6-.3.2-.7.4-1.1.6-.4.2-.8.4-1.2.6-.4.2-.7.4-1,.6-.3.2-.5.3-.6.4.3.2.7.3,1,.5.3.2.7.4,1.1.7s.7.6,1.1.9.8.8,1.2,1.3.8,1.1,1.2,1.9c.4.7.9,1.6,1.3,2.5.1.2.2.5.2.8s0,.4-.1.6c0,.2-.2.4-.3.6s-.3.3-.5.4c-.2.1-.4.2-.6.2-.3,0-.6-.1-.9-.4-.2-.3-.4-.6-.6-1-.2-.4-.4-.9-.6-1.4s-.5-1-.8-1.6c-.4-.6-.7-1.1-1.2-1.6-.4-.5-.9-1-1.4-1.3-.5-.4-1-.7-1.5-.9-.5-.2-1-.3-1.5-.3h-.2c-.3,0-.6,0-.8,0-.2,0-.5.1-.7.1-.3-.1-.5-.3-.7-.5s-.2-.5-.2-.8v-.2l-1.2,4.7c0,.1,0,.3-.2.6,0,.3-.1.5-.2.8,0,.3-.2.6-.3,1,0,.3-.2.6-.3.9,0,.3-.2.6-.2.8,0,.2-.1.4-.1.5-.1.2-.3.4-.5.6s-.4.2-.7.2c-.4,0-.7-.1-.9-.4-.2-.3-.3-.6-.3-.9s0-.3,0-.4,0-.3,0-.4ZM641.2,254.5c0,.2-.1.5-.3.9s-.2.8-.4,1.3c-.1.5-.3,1-.4,1.5-.2.5-.3,1.1-.5,1.6s-.3,1.1-.5,1.6-.3,1-.4,1.4c.2-.3.5-.5.9-.7.4-.2.8-.4,1.3-.6.4-.1.9-.3,1.4-.6.6-.3,1.1-.5,1.8-.9.6-.3,1.2-.7,1.8-1.1s1.2-.8,1.7-1.2c.5-.4.9-.8,1.2-1.2.3-.4.5-.8.5-1.2s-.1-.7-.4-.9c-.3-.2-.6-.4-1-.5-.4-.1-.8-.2-1.3-.2-.5,0-.9,0-1.3,0-.7,0-1.4,0-2.1.1-.7,0-1.4.3-2.1.5Z"/></g></g><g id="text30887" class="cls-5"><g class="cls-5"><path class="cls-3" d="M292.1,347.2c-.2,0-.4-.1-.4-.4v-25.6c0-.8,0-1.4.1-2.2,0-.3,0-.4-.3-.4s-.2,0-.3,0l-3.7,2c-.2.1-.4,0-.5-.1l-.5-1c0-.2,0-.4.2-.5l5.9-3.1c.2,0,.4,0,.5,0h.2c.1.2.2.4.2.5v30.4c0,.2-.1.4-.4.4h-1.2Z"/></g></g><g id="text30901" class="cls-5"><g class="cls-5"><path class="cls-3" d="M711.4,417.7c-.2,0-.4-.1-.4-.4v-25.6c0-.8,0-1.4.1-2.2,0-.3,0-.4-.3-.4s-.2,0-.3,0l-3.7,2c-.2.1-.4,0-.5-.1l-.5-1c0-.2,0-.4.2-.5l5.9-3.1c.2,0,.4,0,.5,0h.2c.1.2.2.4.2.5v30.4c0,.2-.1.4-.4.4h-1.2Z"/><path class="cls-3" d="M723.3,387.4c1.8-.5,4.1-1.1,6.8-1.1,5.8,0,9.5,2.9,9.5,7.6s-1.6,4.9-4.9,7.3l-7.8,5.8c-3.2,2.2-4.5,5.4-4.5,9h16.4c.2,0,.4.1.4.4v1.1c0,.2-.1.4-.4.4h-18c-.2,0-.4-.1-.4-.4v-1.3c0-4.4,1.5-8,5.3-10.7l7.9-5.7c2.7-1.9,3.9-3.8,3.9-5.8,0-3.5-3-5.8-7.6-5.8s-4.6.4-6.2,1l-2.1.7c-.2,0-.4,0-.5-.2l-.3-1c0-.2,0-.4.2-.5l2.1-.7Z"/></g></g><g id="text30903-2" class="cls-5"><g class="cls-5"><path class="cls-3" d="M828.8,327c-.6.8-1.4,1.8-2,2.7-.3.5,0,.7.5.4,1.7-1.2,4.1-1.9,6.4-1.9,6.7,0,10.6,3.5,10.6,9.7s-3.9,9.7-10.7,9.7-10.7-3.6-10.7-10.1,1.7-7.9,4.3-11.5l7.1-9.6c.1-.2.3-.2.5-.2h1.5c.3,0,.4.2.2.5l-7.8,10.4ZM842.4,337.9c0-4.9-3.1-7.9-8.8-7.9s-8.7,2.9-8.7,7.9,3.1,7.8,8.7,7.8,8.8-2.9,8.8-7.8Z"/></g></g><g id="text30899-2" class="cls-5"><g class="cls-5"><path class="cls-3" d="M625,337.5c0,.2-.1.4-.4.4h-2.8v8.9c0,.2-.1.4-.4.4h-1.2c-.2,0-.4-.1-.4-.4v-8.8h-16.3c-.2,0-.4-.1-.4-.4v-1.2c0-.2,0-.3.2-.5,1.1-1.3,1.8-2.1,2.8-3.3l11.3-13.6c.8-.9,1.3-1.6,1.9-2.6,0-.2.2-.3.4-.3h1.6c.2,0,.4.1.4.4v19.6h2.8c.2,0,.4.1.4.4v1ZM619.9,322.4c0-1.1,0-2.2.2-2.9,0-.5-.3-.5-.6-.2l-11.4,13.7c-.7.8-1.8,2.1-2.2,2.5-.3.3-.1.5,0,.5h13.9v-13.7Z"/></g></g><g id="text30901-2" class="cls-5"><g class="cls-5"><path class="cls-3" d="M730.9,317.6c0,.2-.2.3-.4.3h-14.1v7.9c0,.7,0,1.5,0,2.3,0,.5,0,.6.5.5l1.3-.2c1.9-.3,3.9-.5,4.9-.5,6.6,0,10.3,3.6,10.3,9.7s-4.1,9.9-11.1,9.9-5-.6-6.8-1.1l-2.1-.7c-.2,0-.3-.2-.2-.5l.4-1c0-.2.3-.3.5-.2l2.1.7c1.6.5,3.8,1,6.2,1,5.8,0,9.2-3,9.2-8.1s-3-7.8-8.4-7.8-3.1,0-4.9.4l-2.5.3c-.2,0-.3,0-.5-.1l-.4-.4c-.2-.1-.2-.3-.2-.5v-13.1c0-.2.1-.4.4-.4h16.1c.2,0,.4.2.3.4l-.3,1Z"/></g></g><g id="text30915" class="cls-5"><g class="cls-5"><path class="cls-3" d="M710.7,488.3c-.2,0-.4-.1-.4-.4v-25.6c0-.8,0-1.4.1-2.2,0-.3,0-.4-.3-.4s-.2,0-.3,0l-3.7,2c-.2.1-.4,0-.5-.1l-.5-1c0-.2,0-.4.2-.5l5.9-3.1c.2,0,.4,0,.5,0h.2c.1.2.2.4.2.5v30.4c0,.2-.1.4-.4.4h-1.2Z"/><path class="cls-3" d="M734.7,477.4c.6-.8,1.4-1.8,2-2.7.3-.5,0-.7-.5-.4-1.7,1.2-4.1,1.9-6.4,1.9-6.7,0-10.6-3.5-10.6-9.7s3.9-9.7,10.7-9.7,10.7,3.6,10.7,10.1-1.7,7.9-4.3,11.5l-7.1,9.6c-.1.2-.3.2-.5.2h-1.5c-.3,0-.4-.2-.2-.5l7.8-10.4ZM721.1,466.5c0,4.9,3.1,7.9,8.8,7.9s8.7-2.9,8.7-7.9-3.1-7.8-8.7-7.8-8.8,2.9-8.8,7.8Z"/></g></g><g id="text30929" class="cls-5"><g class="cls-5"><path class="cls-3" d="M703.3,528.5c1.8-.5,4.1-1.1,6.8-1.1,5.8,0,9.5,2.9,9.5,7.6s-1.6,4.9-4.9,7.3l-7.8,5.8c-3.2,2.2-4.5,5.4-4.5,9h16.4c.2,0,.4.1.4.4v1.1c0,.2-.1.4-.4.4h-18c-.2,0-.4-.1-.4-.4v-1.3c0-4.4,1.5-8,5.3-10.7l7.9-5.7c2.7-1.9,3.9-3.8,3.9-5.8,0-3.5-3-5.8-7.6-5.8s-4.6.4-6.2,1l-2.1.7c-.2,0-.4,0-.5-.2l-.3-1c0-.2,0-.4.2-.5l2.1-.7Z"/><path class="cls-3" d="M731,538.7c-.6.8-1.4,1.8-2,2.7-.3.5,0,.7.5.4,1.7-1.2,4.1-1.9,6.4-1.9,6.7,0,10.6,3.5,10.6,9.7s-3.9,9.7-10.7,9.7-10.7-3.6-10.7-10.1,1.7-7.9,4.3-11.5l7.1-9.6c.1-.2.3-.2.5-.2h1.5c.3,0,.4.2.2.5l-7.8,10.4ZM744.6,549.6c0-4.9-3.1-7.9-8.8-7.9s-8.7,2.9-8.7,7.9,3.1,7.8,8.7,7.8,8.8-2.9,8.8-7.8Z"/></g></g><g id="text30453"><g class="cls-5"><g class="cls-5"><path class="cls-3" d="M708.7,257.1c0,.1-.2.3-.3.6-.1.3-.3.6-.4,1s-.3.8-.4,1.2c-.1.4-.3.8-.4,1.2-.1.4-.2.7-.3,1,0,.3-.1.5-.1.6,0,.1,0,.3-.1.5s-.1.4-.1.6c1.1-.4,2.2-.7,3.3-.9s2.2-.4,3.2-.4.4,0,.7,0c.3,0,.5,0,.8.1.3,0,.5.2.7.3.2.1.3.3.3.6s0,0,0,.2,0,.2,0,.4-.1.3-.2.4-.2.3-.4.3c-.1,0-.2,0-.3,0h-.3c-.7,0-1.4,0-2.1.2-.7.1-1.4.3-2.1.5-.7.2-1.4.5-2.1.8-.7.3-1.4.6-2.1.9l-1.5,6.5c0,.2-.1.3-.2.5s-.3.2-.4.2h-.4c-.4,0-.6-.2-.8-.5-.1-.3-.2-.7-.2-1.2s0-.8.1-1.3c0-.5.1-.9.2-1.4,0-.5.2-.9.2-1.2,0-.4.1-.7.1-.9-.1-.2-.2-.3-.4-.5-.1-.2-.2-.4-.2-.7,0-.4.1-.8.3-1s.5-.5.9-.8c0,0,0,0,.1-.2,0,0,0-.2.1-.3,0,0,0-.2,0-.3,0,0,0-.2,0-.3l.6-2.2c.2-.9.4-1.6.6-2.3.2-.6.4-1.2.5-1.7.2-.5.3-1,.4-1.4.1-.4.3-.8.4-1.2,0-.1.1-.3.2-.5s.2-.5.3-.7c.1-.2.3-.4.5-.6s.3-.3.5-.3c.4,0,.7,0,.9.1.2,0,.3.2.3.3v.3c.3,0,.5,0,.8-.1.3,0,.6-.1.9-.2.3,0,.6-.1.9-.2.3,0,.5-.1.6-.2.7-.2,1.3-.3,1.8-.5.6-.1,1.1-.2,1.6-.3.5,0,1-.1,1.4-.2.5,0,.9,0,1.4,0s.4,0,.6,0c.2,0,.3,0,.5.1.1,0,.2.1.3.2,0,.1.1.2.1.4s0,.2,0,.3-.1.3-.2.4c0,.1-.2.3-.4.4s-.3.2-.6.3c0,0-.2,0-.4,0-.2,0-.4,0-.6.1-.2,0-.5,0-.7.1-.3,0-.5,0-.7.1-.4,0-.8.2-1.3.3-.5.1-1,.2-1.5.3s-1,.3-1.5.4c-.5.1-1,.3-1.4.5-.5.2-.9.3-1.2.5s-.6.3-.8.5Z"/><path class="cls-3" d="M718.8,271.1c.6-2.3,1.1-4.5,1.7-6.7.6-2.2,1.2-4.4,1.7-6.7,0-.3.1-.6.2-.8,0-.3.1-.5.2-.8,0-.3.1-.5.1-.8,0-.3,0-.6,0-.8s0-.4,0-.6c0-.2,0-.4,0-.6s0-.5,0-.7c.1-.6.4-1,.6-1.3s.7-.4,1.2-.4.4,0,.7,0c.2,0,.4,0,.6.2.2,0,.5.1.7.2.2,0,.5,0,.7,0s.4,0,.6,0c.2,0,.4,0,.6,0,.2,0,.5,0,.9,0s.7,0,1.2,0,.6,0,1,0,.8,0,1.2.1c.4,0,.8.2,1.2.3.4.1.8.3,1.2.5s.7.5,1,.8.5.7.6,1.2c0,.2.1.4.1.6,0,.2,0,.4,0,.5,0,.6-.2,1.2-.5,1.8-.3.7-.8,1.3-1.4,1.9-.6.6-1.3,1.1-2,1.6-.3.2-.7.4-1.1.6-.4.2-.8.4-1.2.6-.4.2-.7.4-1,.6-.3.2-.5.3-.6.4.3.2.7.3,1,.5.3.2.7.4,1.1.7s.7.6,1.1.9.8.8,1.2,1.3.8,1.1,1.2,1.9c.4.7.9,1.6,1.3,2.5.1.2.2.5.2.8s0,.4-.1.6c0,.2-.2.4-.3.6s-.3.3-.5.4c-.2.1-.4.2-.6.2-.3,0-.6-.1-.9-.4-.2-.3-.4-.6-.6-1-.2-.4-.4-.9-.6-1.4s-.5-1-.8-1.6c-.4-.6-.7-1.1-1.2-1.6-.4-.5-.9-1-1.4-1.3-.5-.4-1-.7-1.5-.9-.5-.2-1-.3-1.5-.3h-.2c-.3,0-.6,0-.8,0-.2,0-.5.1-.7.1-.3-.1-.5-.3-.7-.5s-.2-.5-.2-.8v-.2l-1.2,4.7c0,.1,0,.3-.2.6,0,.3-.1.5-.2.8,0,.3-.2.6-.3,1,0,.3-.2.6-.3.9,0,.3-.2.6-.2.8,0,.2-.1.4-.1.5-.1.2-.3.4-.5.6s-.4.2-.7.2c-.4,0-.7-.1-.9-.4-.2-.3-.3-.6-.3-.9s0-.3,0-.4,0-.3,0-.4ZM726.1,254.5c0,.2-.1.5-.3.9s-.2.8-.4,1.3c-.1.5-.3,1-.4,1.5-.2.5-.3,1.1-.5,1.6s-.3,1.1-.5,1.6-.3,1-.4,1.4c.2-.3.5-.5.9-.7.4-.2.8-.4,1.3-.6.4-.1.9-.3,1.4-.6.6-.3,1.1-.5,1.8-.9.6-.3,1.2-.7,1.8-1.1s1.2-.8,1.7-1.2c.5-.4.9-.8,1.2-1.2.3-.4.5-.8.5-1.2s-.1-.7-.4-.9c-.3-.2-.6-.4-1-.5-.4-.1-.8-.2-1.3-.2-.5,0-.9,0-1.3,0-.7,0-1.4,0-2.1.1-.7,0-1.4.3-2.1.5Z"/><path class="cls-3" d="M741.4,264.5c0-.4.2-.8.3-1.3s.3-1,.4-1.5c.1-.5.3-1,.4-1.5.1-.5.3-1,.4-1.5s.3-.9.4-1.3.2-.8.3-1c.2-.6.4-1.3.5-1.9.2-.6.3-1.3.5-2,.2-.4.5-.7.8-.8.3-.2.7-.2,1.1-.2.3.2.6.4.7.7.2.3.3.6.3,1s0,.5-.1.9c0,.3-.2.7-.3,1.1s-.3.8-.4,1.2-.3.8-.5,1.3c-.3.8-.6,1.6-.8,2.4-.3.8-.5,1.7-.8,2.6,0,.2-.1.5-.2.7,0,.2-.2.5-.2.8s-.2.6-.3.9-.2.7-.3,1.2c-.1.5-.2,1-.3,1.6,0,.5-.2,1.1-.3,1.6,0,.5-.2,1.1-.3,1.6,0,.5-.2,1.1-.4,1.6,0,.2-.1.4-.3.5-.1.2-.3.3-.4.4s-.3.2-.5.3c-.2,0-.3,0-.5,0s-.3,0-.5,0-.3,0-.3-.2c-.1-.1-.2-.3-.3-.4,0-.2-.1-.3-.1-.5s0,0,0-.1,0,0,0-.1l1.8-7.8Z"/></g></g></g><g id="text31382"><g class="cls-5"><g class="cls-5"><path class="cls-3" d="M364,209.2c-1.7-2.5-2.7-5.7-2.7-9.8,0-8.5,3.9-18.7,11.8-30.6,8.6-13,18.4-23.6,29.4-32,6.2-4.8,12.7-9.4,19.1-13.8,12.9-8.7,26.6-15.9,40.9-21.7,1.3-.5,2.1-1.4,2.6-2.8,3.2-8.3,4.9-16,5-22.8,0-4.1-.6-7.5-1.7-10.1-2.4-4.6-5.7-7-10.2-7s-5.1.4-8.2,1.2c-5.8,1.5-12,3.7-18.3,6.6-6.3,3-12,6-16.9,9.4-8,5.2-14.5,10.8-19.6,17-3.1,3.8-5.2,7.6-6.6,11.4-.4,1-1,1.8-1.7,2.4-.8.5-1.6.8-2.4.8h-.8c-1.3-.6-2-1.7-2-3.6s.1-1.8.3-2.5c5.2-12.5,17.9-24.2,38-35.5,13.9-7.8,26.3-12,36.9-12.5,9.3,0,15.1,4.1,17.5,12.2.9,2.8,1.3,5.6,1.3,8.7s-.1,2.2-.2,3.4c-.8,7.5-2,13.5-3.6,18.1-.4.7-.7,1.6-.8,2.9,3.2-1.1,6.2-2.1,9.1-2.9,1.4-.5,2.7-.8,3.5-.8s1,.2,1.5.6c.5.4.7,1,.7,1.7s-.2,1.3-.7,1.6c-.4.4-.7.6-.9.6-.1-.1-.2-.2-.2-.3-.1-.1-.1-.2-.2-.3-.2-.5-.4-.8-.8-.8-.9,0-2.6.4-4.8,1.2-3.6,1.2-6,2.1-7.3,2.7-.9.2-1.5.7-1.8,1.6-2.8,6.6-6.2,13.9-10.5,22-9.5,18-20.3,34.6-32.1,49.7-13.4,17.3-26.3,29.3-38.6,35.9-4,2-8,3.1-12,3.1s-9.5-1.7-11.8-5.1ZM385.7,208.1c9-4.6,19.1-13.8,30.5-27.7,9.2-11.5,18.5-25,27.9-40.5,7.9-13.1,13.6-23.8,17.3-32.2l.6-1.5c.1-.3.2-.6.2-.9h-.4c-.4,0-.9.2-1.5.5-11.2,4.8-21.4,10.1-30.7,16s-18.7,12.7-28,20.6c-4.6,3.9-9.2,8.4-13.7,13.4-9.7,10.9-16.6,21.8-20.6,32.5-1.3,3.5-1.9,7.1-1.9,10.7s.6,6,1.9,8.1c1.5,2.5,4.5,3.7,8.8,3.7s6.3-.8,9.6-2.6Z"/><path class="cls-3" d="M463.5,162c0-4.6,2.7-11.2,8-19.6,1.9-3.2,3.4-5.1,4.2-6,1.1-1.2,2.4-1.8,3.7-1.8s1.3.2,1.8.6c.8.6,1.2,1.6,1.2,2.9s-.2,1-.4,1.4l-1.6,1.9c-.9.9-2.5,2.9-4.4,5.9-4.3,6.2-6.4,10.2-6.4,12.1s.5,1.7,1.5,1.7c2.9,0,8.8-5.2,18-15.4,2.6-2.8,4.3-4.6,5.2-5.4l.8-.7c1.4-1.4,2.6-2.1,3.4-2.1s.7.1,1,.3c1.3.9,1.9,2.1,1.9,3.6s-.6,2.9-1.7,6.2c-2.1,5.2-3.2,8.9-3.2,10.9s.3,1.5,1,1.6c6.8-.5,17.8-6.8,33-18.5.5-.4.9-.6,1.2-.6.4.1.6.4.6.8,0,.6-3.9,4-11.7,10-10.3,8.2-18.6,12.3-24.7,12.3h-.6c-2.7-.5-4-2.6-4.1-5.9,0-3.8,1-8.4,3-13.7-1.3,1.4-3,3.3-4.9,5.5-3.2,3.8-6.6,7.6-10.4,11.2-3.8,3.6-7.3,5.6-10.5,5.9-3.4-.4-5-2.1-5-5Z"/><path class="cls-3" d="M523.6,161.3c-.9-.7-1.4-1.6-1.4-2.7s.3-2.6.9-4.1c3-7.1,6.8-13.7,11.5-19.8,1.2-1.5,2.4-2.4,3.4-2.5.9,0,1.6.4,2.1,1.1.3.5.5.9.5,1.4v.6c-1.3,3-3,6.1-5,9.3l-2.5,4.3c-.5.7-.7,1.6-.8,2.8,1.7-1.5,4-3.6,6.8-6.2l6.8-6.2c3.4-3.1,5.6-4.6,6.8-4.6s1.4.3,2.4.9c.8.6,1.3,1.7,1.4,3.3l-.2,5.8c0,1.7.1,3.7.3,5.8.3,3.6,2.2,5.3,5.9,5.3s3.3-.5,5.5-1.4c3.6-1.5,8.7-5.1,15.2-10.7,2-1.8,3.2-2.7,3.5-2.7s.6.2.6.6-.1.3-.2.5c-6.5,7.6-13,12.9-19.5,16-2.1,1-4.2,1.5-6.1,1.5s-3.2-.3-4.6-1c-2.4-1.3-3.9-3.4-4.4-5.9-.4-2-.5-4-.5-6v-1.6l.2-4.2v-.6c-2.1,1.5-5.8,5-11,10.4-2.6,2.7-5.3,5.4-8.3,8.3-1.1,1.1-2.7,1.9-4.4,2.6-.7.3-1.5.4-2.2.4s-1.6-.2-2.5-.6Z"/><path class="cls-3" d="M582.7,157.4c-.8-1.6-1.3-3.7-1.4-6,0-1.3.3-2.9.8-4.8,2.8-6.4,7.6-11.3,14.4-14.2,1.6-.5,3.2-.7,4.6-.7,2.8,0,4.2,1.5,4.2,4.5s-1.4,4.9-4.3,7.4c-5.7,3.9-9.7,5.8-11.9,5.8s-1.7-.3-2.3-.8c-.3,1.2-.4,2.4-.4,3.3s.1,1.4.3,1.9c1,2.1,2.8,3.3,5.3,3.3,5,0,11.4-1.8,19-5.4,7.7-3.6,13.7-7.1,18.2-10.4.2-.1.4-.2.5-.2.4,0,.7.3.8.9,0,.2-.1.4-.3.6-4.3,4.1-10.2,8.1-17.9,12.1-7.7,4-14.8,6.3-21.6,7.1-4.1-.3-6.9-1.7-8.2-4.2ZM595.7,141.3c2.6-1.9,4.1-3.6,4.3-4.7-4.1,1.4-7.7,4.3-10.8,8.5,2.3-.8,4.4-2,6.5-3.8Z"/></g></g></g><path class="cls-3" d="M841.2,154.8h-161.4c-1,0-1.9-.8-1.9-1.9s.8-1.9,1.9-1.9h161.4c1,0,1.9.8,1.9,1.9s-.8,1.9-1.9,1.9Z"/><path class="cls-3" d="M676.9,166.1c-.3,0-.6,0-.9-.2l-19.5-11.3c-.6-.3-.9-.9-.9-1.6s.4-1.3.9-1.6l19.5-11.3c.6-.3,1.3-.3,1.9,0s.9.9.9,1.6v22.5c0,.7-.4,1.3-.9,1.6-.3.2-.6.2-.9.2h0ZM661.1,153l13.9,8.1v-16.1s-13.9,8.1-13.9,8.1Z"/><path class="cls-3" d="M813.8,153.9c-.5,0-1.1-.2-1.4-.7-.6-.8-.6-1.9.2-2.6l15.7-13.2c.8-.6,1.9-.6,2.6.2.6.8.6,1.9-.2,2.6l-15.7,13.2c-.4.3-.8.4-1.2.4h0Z"/><path class="cls-3" d="M826.8,153.9c-.5,0-1.1-.2-1.4-.7-.6-.8-.6-1.9.2-2.6l15.7-13.2c.8-.6,1.9-.6,2.6.2.6.8.6,1.9-.2,2.6l-15.7,13.2c-.4.3-.8.4-1.2.4h0Z"/><path class="cls-3" d="M839.9,153.9c-.5,0-1.1-.2-1.4-.7-.6-.8-.6-1.9.2-2.6l15.7-13.2c.8-.6,1.9-.6,2.6.2.6.8.6,1.9-.2,2.6l-15.7,13.2c-.4.3-.8.4-1.2.4h0Z"/><path class="cls-3" d="M829.5,167.1c-.4,0-.9-.1-1.2-.4l-15.7-13.2c-.8-.6-.9-1.8-.2-2.6s1.8-.9,2.6-.2l15.7,13.2c.8.6.9,1.8.2,2.6-.4.4-.9.7-1.4.7h0Z"/><path class="cls-3" d="M842.5,167.1c-.4,0-.9-.1-1.2-.4l-15.7-13.2c-.8-.6-.9-1.8-.2-2.6s1.8-.9,2.6-.2l15.7,13.2c.8.6.9,1.8.2,2.6-.4.4-.9.7-1.4.7h0Z"/><path class="cls-3" d="M855.6,167.1c-.4,0-.9-.1-1.2-.4l-15.7-13.2c-.8-.6-.9-1.8-.2-2.6s1.8-.9,2.6-.2l15.7,13.2c.8.6.9,1.8.2,2.6-.4.4-.9.7-1.4.7h0Z"/><path class="cls-3" d="M334.5,153.1h-161.4c-1,0-1.9-.8-1.9-1.9s.8-1.9,1.9-1.9h161.4c1,0,1.9.8,1.9,1.9s-.8,1.9-1.9,1.9Z"/><path class="cls-3" d="M337.5,164.3c-.3,0-.6,0-.9-.2-.6-.3-.9-.9-.9-1.6v-22.5c0-.7.4-1.3.9-1.6.6-.3,1.3-.3,1.9,0l19.5,11.3c.6.3.9.9.9,1.6s-.4,1.3-.9,1.6l-19.5,11.3c-.3.2-.6.2-.9.2h0ZM339.4,143.2v16.1l13.9-8.1s-13.9-8.1-13.9-8.1Z"/><path class="cls-3" d="M185,167.1c-.5,0-1.1-.2-1.4-.7-.6-.8-.6-1.9.2-2.6l15.7-13.2c.8-.6,1.9-.6,2.6.2.6.8.6,1.9-.2,2.6l-15.7,13.2c-.4.3-.8.4-1.2.4h0Z"/><path class="cls-3" d="M171.9,167.1c-.5,0-1.1-.2-1.4-.7-.6-.8-.6-1.9.2-2.6l15.7-13.2c.8-.6,1.9-.6,2.6.2.6.8.6,1.9-.2,2.6l-15.7,13.2c-.4.3-.8.4-1.2.4h0Z"/><path class="cls-3" d="M158.8,167.1c-.5,0-1.1-.2-1.4-.7-.6-.8-.6-1.9.2-2.6l15.7-13.2c.8-.6,1.9-.6,2.6.2.6.8.6,1.9-.2,2.6l-15.7,13.2c-.4.3-.8.4-1.2.4h0Z"/><path class="cls-3" d="M200.6,153.9c-.4,0-.9-.1-1.2-.4l-15.7-13.2c-.8-.6-.9-1.8-.2-2.6.7-.8,1.8-.9,2.6-.2l15.7,13.2c.8.6.9,1.8.2,2.6-.4.4-.9.7-1.4.7h0Z"/><path class="cls-3" d="M187.6,153.9c-.4,0-.9-.1-1.2-.4l-15.7-13.2c-.8-.6-.9-1.8-.2-2.6.7-.8,1.8-.9,2.6-.2l15.7,13.2c.8.6.9,1.8.2,2.6-.4.4-.9.7-1.4.7h0Z"/><path class="cls-3" d="M174.6,153.9c-.4,0-.9-.1-1.2-.4l-15.7-13.2c-.8-.6-.9-1.8-.2-2.6.7-.8,1.8-.9,2.6-.2l15.7,13.2c.8.6.9,1.8.2,2.6-.4.4-.9.7-1.4.7h0Z"/></g></g></svg>