<?xml version="1.0" encoding="UTF-8"?><svg xmlns="http://www.w3.org/2000/svg" xmlns:xlink="http://www.w3.org/1999/xlink" viewBox="0 0 199.3 173.1"><defs><style>.cls-1{fill:#383838;}.cls-2{fill:none;}.cls-3{isolation:isolate;}.cls-4{mix-blend-mode:screen;}.cls-5{clip-path:url(#clippath);}</style><clipPath id="clippath"><rect class="cls-2" x="-2831.5" y="278.7" width="8195.4" height="2063.9"/></clipPath></defs><g class="cls-3"><g id="card_1"><g class="cls-5"><image class="cls-4" width="8363" height="5406" transform="translate(-7102.2 -747.1)" xlink:href="Design for couple-07-1.png"/></g><path class="cls-1" d="M183,156.5c-.3-.3-.7-.5-1.1-.5-2.7,0-5.4,0-8,0-2.1,0-4.3,0-6.4,0h0c0-.5,0-.8,0-1.1,0-.6,0-1.2,0-1.8,0-1.2,0-2.5,0-3.7,0-2.5-.1-4.9-.2-7.4s-.1-4.9-.2-7.4c0-2.5-.1-4.9-.2-7.4s-.1-4.9-.2-7.4c0-.3,0-.6,0-.9,0-.2,0-.4-.2-.5,0,0,0,0,0,0,0,0,0-.2,0-.3,0-.3-.2-.5-.5-.7-2.9-1.3-5.7-2.7-8.6-4.1-2.9-1.3-5.7-2.7-8.6-4-1.6-.7-3.3-1.5-4.9-2.2,0-.9,0-1.7,0-2.6v-.4c.1,0,.3-.2.3-.3.1-.2.2-.5.2-.8,0-.3-.2-.5-.5-.6-.3-.2-.6-.4-1-.6-.3-.2-.7-.4-1-.6-.7-.4-1.4-.8-2.1-1.1-1.4-.7-2.8-1.5-4.2-2.2-2.9-1.5-5.7-2.9-8.6-4.4-1.4-.7-2.9-1.5-4.3-2.3,0,0,0-.1,0-.2,0-.3,0-.6,0-.8,0-.2,0-.4,0-.6,0-.4,0-.7,0-1.1-.2-3.2-.2-6.3-.2-9.5,0-3.2,0-6.4-.1-9.6,0-1.8-.1-3.5-.3-5.3,0,0,0,0,0,0,.4-.4.5-1,0-1.3-1.6-1.6-3.1-3.1-4.7-4.7-1.5-1.6-3.1-3.2-4.6-4.8-1.5-1.6-2.9-3.3-4.4-4.9-1.4-1.7-2.9-3.3-4.3-5.1-1.4-1.7-2.7-3.5-4.1-5.2,0-.1-.1-.2-.2-.3.1.2,0,0,0,0,0,0,0-.1-.1-.2,0,0,0,0,0-.1.2-.2.4-.4.4-.7,0-.4,0-.7,0-1.1,0-.4,0-.7,0-1.1,0-.7,0-1.4,0-2.1,0-1.4,0-2.8,0-4.3,0-1.3,0-2.6,0-4,.9,0,1.8,0,2.7,0,.9,0,1.8,0,2.7.1.5,0,1.1-.4,1.1-1,0-.6-.4-1-1-1-.8,0-1.6,0-2.4,0s-1.6,0-2.3,0h-.8c0-.9,0-1.8,0-2.7,0-1.6,0-3.2,0-4.8,0-.2,0-.4-.2-.6-.1-.1-.4-.2-.6-.2-.4,0-.9.3-.9.8,0,2.5-.1,5-.2,7.5-.7,0-1.4,0-2.1,0-.9,0-1.8,0-2.7,0-.4,0-.9.4-.9.8,0,.5.3.8.8.8,1.6,0,3.2.1,4.9.2,0,2.6-.1,5.2-.2,7.8,0,.8,0,1.6,0,2.4,0,.9,0,1.7,0,2.6,0,.2.1.3.3.5,0,0,0,0-.1.1-2,2.7-4.1,5.4-6.3,8-.6.7-1.2,1.4-1.8,2.1-1.7,2-3.5,4-5.3,6-1.8,2-3.7,4-5.6,5.9-1.1,1.1-2.2,2.2-3.3,3.3-.2.2-.3.4-.3.7,0,.2,0,.5.2.7,0,0,.1,0,.1,0-.3,3.4-.4,6.9-.4,10.3,0,3.5,0,6.9-.1,10.4,0,1,0,1.9-.1,2.9,0,.5,0,1,0,1.4,0,.6-.1,1.1,0,1.7,0,0,0-.2,0-.3,0,.1,0,.3,0,.5,0,.1,0,.2,0,.3-2.6,1.4-5.3,2.8-7.9,4.2-2.9,1.5-5.7,2.9-8.6,4.5-.8.4-1.5.8-2.3,1.2-.4.2-.7.4-1.1.6-.4.2-.8.4-1.1.7-.2.2-.4.3-.5.6,0,.2,0,.6,0,.8.1.2.2.3.4.4,0,1,0,2,0,3-2.9,1.3-5.7,2.6-8.5,3.9-2.9,1.4-5.7,2.7-8.6,4.1-1.6.8-3.2,1.5-4.8,2.3-.4.2-.6.6-.6,1-.2.1-.3.3-.3.5,0,2.5,0,4.9-.2,7.4,0,2.5-.1,4.9-.2,7.4s-.1,4.9-.2,7.4c0,2.5-.1,4.9-.2,7.4,0,2.3-.1,4.6-.2,6.9h-1.2c-2.7,0-5.3,0-8,0-1.3,0-2.6,0-3.9,0-.3,0-.7.1-.9.3-.2.2-.4.5-.4.8,0,.6.5,1.1,1.1,1.1,2.7,0,5.4,0,8,0s5.4,0,8,0c2.7,0,5.4,0,8,0,2.7,0,5.3,0,8,0,1.8,0,3.6,0,5.4,0,0,0,0,0,.1,0,.3,0,.6,0,.8,0,.5,0,1.1,0,1.6,0h8c2.7,0,5.4.1,8,.1s5.4,0,8,0c2.7,0,5.4,0,8,0h8c2.7.1,5.3.1,8,.2,2.7,0,5.4,0,8,0,2.7,0,5.3,0,8,0h8c2.7.1,5.4.1,8,.2,2.7,0,5.4,0,8,0s5.4,0,8,0h8c2.7,0,5.4.1,8,.1h8c1.3,0,2.6,0,3.9.1.4,0,.9-.2,1.2-.5.3-.3.5-.7.5-1.1,0-.4,0-.8-.4-1.1h0ZM45.3,155.5c-2.7,0-5.3,0-8,0-1.5,0-3.1,0-4.6,0v-.5c0-.6,0-1.2,0-1.8,0-1.2,0-2.5,0-3.7,0-2.5,0-4.9,0-7.4,0-2.5,0-4.9,0-7.4,0-2.5,0-4.9,0-7.4,0-2.5,0-4.9,0-7.4v-.5c.1,0,.2,0,.3-.1,2.8-1.4,5.7-2.8,8.5-4.2,2.8-1.4,5.7-2.8,8.5-4.2,1.3-.7,2.7-1.4,4-2.1,0,1.7,0,3.3,0,5,0,2,0,4,0,6s0,4.1,0,6.2c0,2.1,0,4.1,0,6.2v6c0,1.8,0,3.7,0,5.5,0,1.6,0,3.2,0,4.8,0,1.3,0,2.6,0,3.9,0,.9,0,1.9,0,2.8v.2s0,0,0,0h-.7c-2.7,0-5.4,0-8,0h0ZM101.5,155.7c-2.7,0-5.3,0-8,0-1.6,0-3.3,0-4.9,0-.2-1.8-.4-3.6-.5-5.4,0-.5,0-1-.1-1.5-.2-2.8-.2-5.6-.2-8.4,0-2.8.1-5.6.4-8.4.1-1.5.3-2.9.6-4.3.4-1.8,1-3.5,1.7-5.1.6-1.2,1.3-2.2,2.1-3.2.7-.8,1.4-1.5,2.3-2.1.7-.5,1.4-.9,2.2-1.2.7-.2,1.3-.4,2.1-.5.7,0,1.5,0,2.3,0,.7,0,1.3.3,2,.5.6.2,1.1.5,1.6.9.5.4,1,.9,1.5,1.5.6.8,1,1.7,1.3,2.6.7,2.1,1,4.3,1.2,6.5,0,.8.1,1.5.1,2.3.2,3.5.3,6.9.3,10.4,0,3.5-.2,7-.4,10.4,0,1-.1,1.9-.2,2.9,0,.5,0,1-.1,1.5,0,.2,0,.5,0,.7h0c-2.3.1-4.6,0-6.9,0h0ZM133.7,155.8c-2.7,0-5.4,0-8,0-2.7,0-5.4,0-8,0-2.3,0-4.5,0-6.7,0,.1-.7.2-1.3.2-2,0-.9.2-1.7.2-2.6.1-1.8.3-3.5.3-5.3.1-3.5.2-7,0-10.6,0-1.8-.1-3.6-.2-5.4,0-1.6-.2-3.2-.4-4.8-.1-1.3-.4-2.7-.8-4-.4-1.3-.9-2.6-1.7-3.8-.4-.6-.9-1.2-1.4-1.6-.6-.5-1.2-.9-1.9-1.3-1.3-.7-2.8-1-4.3-1.1-1.4,0-2.8.2-4.2.6-1.4.5-2.7,1.2-3.9,2.2-2.3,1.8-3.9,4.3-5,7-1.2,3.1-1.7,6.5-2,9.9-.3,3.5-.3,6.9-.3,10.4,0,1.8.2,3.6.3,5.4.1,1.7.3,3.5.6,5.2,0,.5.2,1.1.2,1.6h-1.5c-2.7,0-5.3,0-8,0-2.7,0-5.4,0-8,0-2.7,0-5.4,0-8,0-1.6,0-3.2,0-4.8,0,0,0,0,0,0,0,0,0,0,0,0,0,0,0,0,0,0-.1h0v-15.8c0-2,0-3.9,0-5.9,0-2.1,0-4.1,0-6.2,0-2.1,0-4.1,0-6.2,0-2,0-4-.1-6,0-1.9,0-3.8-.1-5.6,0-1.7,0-3.3-.2-5,0-.2,0-.5,0-.7,0,0,.2,0,.2-.1.3-.2.7-.4,1-.6.7-.4,1.4-.8,2.1-1.1,1.4-.8,2.8-1.5,4.2-2.3,2.8-1.5,5.7-3,8.5-4.6,1.5-.8,3-1.7,4.5-2.6.3-.2.5-.6.5-.9.2-.2.3-.4.3-.7,0-.2,0-.4.1-.6,0-.2,0-.4,0-.7,0-.4,0-.9,0-1.3,0-.9,0-1.7,0-2.6,0-1.8,0-3.5,0-5.3,0-3.5-.2-7-.2-10.6,0-2,0-3.9.2-5.9,0-.1,0-.2,0-.3,1.5-1.5,3-3,4.5-4.5,1.5-1.6,3.1-3.2,4.5-4.8,1.5-1.7,3-3.4,4.5-5.1,1.4-1.7,2.8-3.4,4.1-5.2,1.3-1.7,2.6-3.5,3.9-5.3,1.1,1.6,2.3,3.2,3.5,4.8,1.3,1.8,2.7,3.5,4.1,5.2,1.4,1.7,2.8,3.4,4.3,5,1.5,1.6,3,3.3,4.5,4.8,1.5,1.6,3.1,3.2,4.7,4.7.2.1.3.3.5.5,0,.1,0,.2,0,.4h0v.2c0,0,0,.2,0,.3,0,.2,0,.5,0,.7,0,.4,0,.9,0,1.3,0,.9,0,1.7,0,2.6,0,1.8,0,3.5,0,5.3,0,3.5-.2,7-.2,10.6,0,1,0,1.9,0,2.9,0,.5,0,1,0,1.5,0,.2,0,.5,0,.7,0,.3,0,.6.1.9,0,.2.2.4.3.5,0,.3,0,.6.4.8,2.7,1.6,5.4,3.1,8.2,4.6,2.8,1.5,5.7,3,8.5,4.6.8.4,1.5.8,2.3,1.3.4.2.7.4,1.1.6.2,0,.3.2.5.3,0,1.5-.1,2.9-.1,4.4,0,1.8-.1,3.7-.1,5.5,0,2,0,4-.1,6,0,2.1,0,4.1,0,6.2,0,2.1,0,4.1,0,6.2,0,2,0,4,0,6v17.3c0,.1-.1.2-.2.4-2.5,0-5,0-7.4,0h0ZM157.7,155.9c-2.7,0-5.3,0-8,0-1.9,0-3.9,0-5.8,0,0-.1,0-.3-.1-.4h0s0,0,0-.1c0,0,0,0,0,0,0-.7,0-1.4,0-2.1,0-1.2,0-2.4,0-3.7,0-1.5,0-3.1,0-4.7,0-1.8,0-3.6,0-5.4s0-3.9,0-5.9c0-2.1,0-4.1,0-6.2,0-2.1,0-4.1,0-6.2v-6c0-1.9,0-3.8,0-5.6,0-.2,0-.5,0-.7,2.5,1.3,5,2.6,7.6,3.9,2.8,1.4,5.6,2.8,8.5,4.2,1.6.8,3.2,1.6,4.8,2.4.1,0,.3.1.5.1,0,2.3,0,4.6,0,6.9s0,4.9,0,7.4c0,2.5,0,4.9,0,7.4,0,2.5,0,4.9,0,7.4,0,2.5,0,4.9,0,7.4h0c-2.5.1-4.9,0-7.4,0h0ZM108.6,70.9c.5,2.1.4,4.3-.3,6.4-.3,1-.9,2-1.5,2.8-.3.4-.7.8-1.1,1.2-.4.4-.8.7-1.3,1-1.7,1.1-3.7,1.8-5.7,1.8-2,0-3.9-.6-5.5-1.7-1.6-1.1-2.9-2.6-3.6-4.4-.4-.9-.6-1.9-.7-2.9,0-1,0-2.1.2-3.1.4-1.9,1.4-3.7,2.9-5.1.3-.3.7-.3,1,0,.3.3.2.7,0,1-.1.1-.3.3-.4.4h0s0,0,0,0c0,0-.1.1-.2.2-.2.3-.4.6-.6.9,0,.1-.2.3-.2.4,0,0,0,0,0,0,0,0,0,0,0,0,0,0,0,0,0,0,0,0,0,0,0,0,0,0,0,.1,0,.2-.1.3-.2.6-.4.9-.1.3-.2.6-.3,1,0,0,0,0,0,.1,0,0,0,.1,0,.2,0,.1,0,.3,0,.4,0,.3,0,.7,0,1s0,.3,0,.5h0c0,.2,0,.2,0,.3,0,.6.2,1.2.4,1.8.3.7.6,1.4,1.1,2.1.5.6,1.1,1.2,1.7,1.7.6.5,1.3.8,2,1.1.6.2,1.2.4,1.9.5.6,0,1.3,0,1.9,0,.7,0,1.3-.2,1.9-.5.6-.2,1.2-.6,1.8-.9.5-.4,1-.8,1.4-1.3.4-.5.7-1,1-1.5.3-.6.5-1.3.7-2,.2-.8.2-1.7.2-2.5,0-.9-.2-1.8-.5-2.6-.3-.8-.7-1.6-1.2-2.3-.5-.6-1-1.2-1.7-1.7-.5-.4-1-.7-1.6-.9-.4-.2-.9-.3-1.4-.4-.5,0-1,0-1.5,0-.5,0-.9.2-1.3.3-.4.1-.7.3-1.1.6-.3.2-.6.5-.8.7,0,0,0,0-.1.1-.4.5-1.1.7-1.7.4-.5-.3-.7-1.1-.3-1.6.3-.4.6-.8,1-1.2.8-.7,1.8-1.2,2.8-1.5.4-.1.9-.2,1.3-.3.5,0,1.1-.1,1.6,0,1.1,0,2.1.4,3.1.9.9.4,1.7,1.1,2.5,1.8,1.5,1.5,2.5,3.4,3,5.4h0ZM91.3,70.1h0s0,0,0,0h0ZM92.5,68.4,80.4,115.9c0-.2,0-.5-.2-.7s-.4-.3-.6-.3c-.1,0-.3,0-.4,0-.2,0-.4,0-.6,0-.4,0-.8,0-1.2,0-.8,0-1.7,0-2.5-.1-1.7,0-3.4,0-5,0-1,0-2,.2-2.9.3-.3,0-.5.3-.6.6-.2,0-.3.3-.3.5,0,2-.1,4.1-.2,6.1,0,2.1-.1,4.1-.2,6.2,0,2.1,0,4.2-.1,6.2,0,2.1,0,4.1,0,6.2,0,2.1,0,4.1,0,6.2,0,.3,0,.6,0,.9s.2.4.4.5c.2,0,.3.1.5,0,0,0,0,0,.1,0,.1,0,.3.2.5.2,1.5,0,3.1,0,4.6,0,1.5,0,3.1,0,4.6,0,.4,0,.9,0,1.3,0,.2,0,.5,0,.7,0,.3,0,.7,0,1-.2.3-.2.5-.4.5-.7,0-.1,0-.2,0-.3.4-.1.7-.4.7-.8,0-.5,0-1,0-1.5v-1.4c0-1,0-2,0-2.9,0-1.9,0-3.9,0-5.8,0-3.9,0-7.8,0-11.7s0-4.4,0-6.5c0,0,0-.1,0-.2.1-.1.2-.2.2-.4h0ZM77.6,146.6c-.4,0-.8,0-1.2,0-.8,0-1.5,0-2.3,0-1.5,0-3.1,0-4.6,0-.9,0-1.7,0-2.5,0v-.7c0-.5,0-1,0-1.5,0-1,0-2,0-3.1,0-2.1,0-4.1,0-6.2,0-2.1,0-4.1,0-6.2s0-4.1,0-6.2c0-2.1,0-4.1,0-6.2v-.4h0c0,0,.2,0,.3,0,0,0,.1,0,.2,0,.2,0,.4,0,.6,0,.4,0,.8,0,1.2,0,.8,0,1.6,0,2.5,0,1.7,0,3.3.1,4.9.2.5,0,.9,0,1.4.1.2,0,.5,0,.7,0h0c0,1.9-.2,3.9-.2,5.8,0,1.9,0,3.9-.1,5.8,0,3.9-.2,7.8-.2,11.7,0,1.1,0,2.2,0,3.2v1.6c0,.3,0,.6,0,.8,0,.3,0,.6,0,.8,0,0,0,.1,0,.2,0,0-.1,0-.2,0-.2,0-.4,0-.6,0h0ZM133.1,144.7c0-1,0-2,0-3.1,0-2.1,0-4.1,0-6.2s0-4.1-.1-6.2c0-2.1,0-4.1-.2-6.2,0-2.1-.1-4.1-.2-6.2,0-.2,0-.5,0-.7s-.1-.4-.3-.5c0-.3-.2-.5-.5-.5-3.4-.5-6.8-.5-10.1-.3-.5,0-.9,0-1.4,0-.2,0-.5,0-.7,0-.1,0-.2,0-.4,0-.3,0-.6.1-.8.3-.2.2-.3.4-.3.7,0,.2.1.4.3.5,0,0,0,.1,0,.2,0,2,0,3.9,0,5.9v5.8c0,3.9,0,7.8,0,11.7,0,1.1,0,2.2,0,3.3v1.6c0,.6,0,1.2,0,1.8,0,.2.2.4.4.5.1,0,.2,0,.3,0,0,0,0,.2,0,.2,0,.3.1.6.4.7.3.2.6.2.9.2.2,0,.4,0,.6,0,.4,0,.8,0,1.2,0,.8,0,1.5,0,2.3,0,1.5,0,3.1,0,4.6,0h2.6c.2,0,.4,0,.5-.2.1,0,.2,0,.3,0,.4,0,.7-.4.8-.8,0-.5,0-1,0-1.5s0-1,0-1.5h0ZM127,146.7c-1.5,0-3.1,0-4.6,0-.4,0-.9,0-1.3,0-.2,0-.5,0-.7,0-.1,0-.3,0-.4,0,0,0,0-.1,0-.2,0-.5,0-1,0-1.5,0-.5,0-1,0-1.4,0-1,0-2,0-2.9,0-1.9,0-3.9-.1-5.8,0-3.9-.2-7.8-.3-11.7,0-2.2-.1-4.3-.2-6.5.2,0,.3,0,.5,0,.4,0,.8,0,1.2-.1.8,0,1.6-.1,2.5-.2,1.7,0,3.3-.1,4.9,0,.5,0,.9,0,1.4,0,.2,0,.5,0,.7,0,.1,0,.2,0,.3,0,0,0,.1,0,.2,0h.1c0,1.9,0,3.8,0,5.8,0,2.1,0,4.1,0,6.2,0,2.1,0,4.2,0,6.2,0,2.1,0,4.1,0,6.2,0,2,0,4,0,6-1.5,0-2.9-.1-4.4-.1h0Z"/></g></g></svg>