<?xml version="1.0" encoding="UTF-8"?><svg xmlns="http://www.w3.org/2000/svg" xmlns:xlink="http://www.w3.org/1999/xlink" viewBox="0 0 144.4 180.1"><defs><style>.cls-1{fill:#383838;}.cls-2{fill:none;}.cls-3{isolation:isolate;}.cls-4{mix-blend-mode:screen;}.cls-5{clip-path:url(#clippath);}</style><clipPath id="clippath"><rect class="cls-2" x="-3178.5" y="262.5" width="8195.4" height="2063.9"/></clipPath></defs><g class="cls-3"><g id="card_1"><g class="cls-5"><image class="cls-4" width="8363" height="5406" transform="translate(-7449.2 -763.3)" xlink:href="Design for couple-08-1.png"/></g><path class="cls-1" d="M85.1,17.5c-.9-.4-2,0-2.4,1l-3.6,8.7c-.4.9,0,2,1,2.4.2,0,.5.1.7.1.7,0,1.4-.4,1.7-1.1l3.6-8.7c.4-.9,0-2-1-2.4Z"/><path class="cls-1" d="M84.6,35c.3.7,1,1,1.6,1s.5,0,.8-.2l8.5-4.1c.9-.4,1.3-1.5.9-2.4-.4-.9-1.5-1.3-2.4-.9l-8.5,4.1c-.9.4-1.3,1.5-.9,2.4Z"/><path class="cls-1" d="M72.7,52.5c.2,6.7,3.5,23.2,5.1,29.7,5.2,21.3,16.6,36.6,26.7,36.6s.3,0,.5,0l9.3,37.9-10.4,2.6c-1,.2-1.6,1.2-1.3,2.2.2.8.9,1.4,1.8,1.4s.3,0,.4,0l24.4-6c1-.2,1.6-1.2,1.3-2.2-.2-1-1.2-1.6-2.2-1.3l-10.4,2.6-9.3-37.9c4.4-2,7.6-7.3,9-15.3,1.5-8.4.9-19-1.8-29.7-1.6-6.6-6.3-22.7-9.3-28.7-.4-.8-1.2-1.2-2.1-1l-30.3,7.4c-.8.2-1.4,1-1.4,1.8ZM112.2,73.8c2.5,10.2,3.1,20.2,1.7,28.2-1.3,7.3-4.2,12.1-8,13-8.4,2.1-19.7-13.3-24.6-33.6-.7-3-1.8-8-2.8-13.2l30.1-7.1c1.5,5,2.9,9.8,3.6,12.8ZM103.8,47.1c1.1,2.6,2.4,6.4,3.7,10.4l-29.7,7c-.7-4.1-1.3-7.9-1.5-10.7l27.4-6.7Z"/><path class="cls-1" d="M104.7,103.1c-.4.9,0,2,1,2.4.2,0,.5.1.7.1.7,0,1.4-.4,1.7-1.1,1.8-4.4,2.6-17.6-1.3-33.4-.2-1-1.2-1.6-2.2-1.3-1,.2-1.6,1.2-1.3,2.2,3.6,14.8,3,27.4,1.5,31.1Z"/><path class="cls-1" d="M16.2,128.4c-1-.2-2,.4-2.2,1.3-.2,1,.4,2,1.3,2.2l24.4,6c.1,0,.3,0,.4,0,.8,0,1.6-.6,1.8-1.4.2-1-.4-2-1.3-2.2l-10.4-2.6,9.3-37.9c.2,0,.4,0,.6,0,4.7,0,9.8-3.3,14.5-9.4,5.2-6.8,9.5-16.4,12.2-27.1,1.6-6.6,4.9-23,5.1-29.7,0-.9-.6-1.6-1.4-1.8l-30.3-7.4c-.8-.2-1.7.2-2.1,1-2.9,6-7.6,22.1-9.3,28.7-5.3,21.7-2.1,40.7,7.2,45l-9.3,37.9-10.4-2.6ZM40.6,22.3l27.4,6.7c-.2,2.8-.8,6.7-1.5,10.7l-29.7-7c1.3-4,2.6-7.8,3.7-10.4ZM32.2,48.9c.7-2.9,2.1-7.8,3.6-12.8l30.1,7.1c-1,5.2-2,10.2-2.8,13.2-2.5,10.2-6.6,19.4-11.5,25.8-4.5,5.9-9.3,8.8-13.1,7.8-8.4-2.1-11.3-20.9-6.3-41.2Z"/><path class="cls-1" d="M39.7,78.3c-1.6-3.8-2.2-16.3,1.5-31.1.2-1-.4-2-1.3-2.2-1-.2-2,.4-2.2,1.3-3.9,15.8-3.1,29-1.3,33.4.3.7,1,1.1,1.7,1.1s.5,0,.7-.1c.9-.4,1.4-1.4,1-2.4Z"/><path class="cls-1" d="M61.6,117.5c-4.4,1.7-8.1,7.1-6.7,14,2.5,11.5,15.9,17.4,16.4,17.6.2,0,.5.1.7.1s.5,0,.7-.1c.6-.2,14-6.2,16.4-17.6,1.5-7-2.2-12.3-6.7-14-3.8-1.5-7.7-.4-10.5,2.8-2.8-3.1-6.7-4.2-10.5-2.8ZM73.7,124.3c1.9-3.2,4.7-4.5,7.6-3.4,2.9,1.1,5.5,4.7,4.4,9.9-1.8,8.3-10.9,13.4-13.6,14.7-2.7-1.3-11.8-6.5-13.6-14.7-1.1-5.2,1.5-8.8,4.4-9.9.7-.3,1.4-.4,2.1-.4,2.2,0,4.1,1.3,5.6,3.8.3.6.9.9,1.6.9s1.2-.3,1.6-.9Z"/></g></g></svg>